<?xml version="1.0" encoding="UTF-8" standalone="no"?>
<svg
   xmlns:dc="http://purl.org/dc/elements/1.1/"
   xmlns:cc="http://creativecommons.org/ns#"
   xmlns:rdf="http://www.w3.org/1999/02/22-rdf-syntax-ns#"
   xmlns:svg="http://www.w3.org/2000/svg"
   xmlns="http://www.w3.org/2000/svg"
   xmlns:sodipodi="http://sodipodi.sourceforge.net/DTD/sodipodi-0.dtd"
   xmlns:inkscape="http://www.inkscape.org/namespaces/inkscape"
   width="258.20526mm"
   height="12.537159mm"
   viewBox="0 0 3659.6022 177.69202"
   version="1.2"
   id="svg7808"
   sodipodi:docname="Dossium Canto Leerhel Musica.svg"
   inkscape:version="1.0.2-2 (e86c870879, 2021-01-15)"
   inkscape:export-filename="C:\Users\slagt\Music\Dossia\Dossium Canto Leerhel\Dossium Canto Leerhel Musica.png"
   inkscape:export-xdpi="176"
   inkscape:export-ydpi="176">
  <metadata
     id="metadata7814">
    <rdf:RDF>
      <cc:Work
         rdf:about="">
        <dc:format>image/svg+xml</dc:format>
        <dc:type
           rdf:resource="http://purl.org/dc/dcmitype/StillImage" />
      </cc:Work>
    </rdf:RDF>
  </metadata>
  <defs
     id="defs7812" />
  <sodipodi:namedview
     pagecolor="#ffffff"
     bordercolor="#666666"
     borderopacity="1"
     objecttolerance="10"
     gridtolerance="10"
     guidetolerance="10"
     inkscape:pageopacity="0"
     inkscape:pageshadow="2"
     inkscape:window-width="1920"
     inkscape:window-height="991"
     id="namedview7810"
     showgrid="false"
     inkscape:zoom="1.0328497"
     inkscape:cx="471.36053"
     inkscape:cy="237.76467"
     inkscape:window-x="-9"
     inkscape:window-y="-9"
     inkscape:window-maximized="1"
     inkscape:current-layer="svg7808" />
  <title
     id="title7510">Dossium Canto Leerhel Musica</title>
  <desc
     id="desc7512">Generated by MuseScore Studio 4.5.1</desc>
  <polyline
     class="StaffLines"
     fill="none"
     stroke="#000000"
     stroke-width="2.73"
     stroke-linejoin="bevel"
     points="336.598,634.198 3996.2,634.198"
     id="polyline7516"
     transform="translate(-336.598,-596.9825)" />
  <polyline
     class="StaffLines"
     fill="none"
     stroke="#000000"
     stroke-width="2.73"
     stroke-linejoin="bevel"
     points="336.598,658.998 3996.2,658.998"
     id="polyline7518"
     transform="translate(-336.598,-596.9825)" />
  <polyline
     class="StaffLines"
     fill="none"
     stroke="#000000"
     stroke-width="2.73"
     stroke-linejoin="bevel"
     points="336.598,683.798 3996.2,683.798"
     id="polyline7520"
     transform="translate(-336.598,-596.9825)" />
  <polyline
     class="StaffLines"
     fill="none"
     stroke="#000000"
     stroke-width="2.73"
     stroke-linejoin="bevel"
     points="336.598,708.598 3996.2,708.598"
     id="polyline7522"
     transform="translate(-336.598,-596.9825)" />
  <polyline
     class="StaffLines"
     fill="none"
     stroke="#000000"
     stroke-width="2.73"
     stroke-linejoin="bevel"
     points="336.598,733.398 3996.2,733.398"
     id="polyline7524"
     transform="translate(-336.598,-596.9825)" />
  <path
     class="TieSegment"
     stroke="#000000"
     stroke-width="1.24"
     stroke-linecap="round"
     stroke-linejoin="round"
     fill-rule="evenodd"
     d="m 473.327,43.9195 c 20.712,-25.281 82.848,-25.281 103.56,0 -20.712,-17.345 -82.848,-17.345 -103.56,0"
     id="path7534" />
  <path
     class="TieSegment"
     stroke="#000000"
     stroke-width="1.24"
     stroke-linecap="round"
     stroke-linejoin="round"
     fill-rule="evenodd"
     d="m 1340.482,19.1195 c 20.71,-24.666 82.85,-24.666 103.56,0 -20.71,-16.73 -82.85,-16.73 -103.56,0"
     id="path7536" />
  <path
     class="TieSegment"
     stroke="#000000"
     stroke-width="1.24"
     stroke-linecap="round"
     stroke-linejoin="round"
     fill-rule="evenodd"
     d="m 2223.702,31.5195 c 20.71,-24.666 82.85,-24.666 103.56,0 -20.71,-16.73 -82.85,-16.73 -103.56,0"
     id="path7538" />
  <path
     class="TieSegment"
     stroke="#000000"
     stroke-width="1.24"
     stroke-linecap="round"
     stroke-linejoin="round"
     fill-rule="evenodd"
     d="m 3031.502,56.3195 c 20.71,-19.577 82.85,-19.577 103.56,0 -20.71,-11.641 -82.85,-11.641 -103.56,0"
     id="path7540" />
  <polyline
     class="BarLine"
     fill="none"
     stroke="#000000"
     stroke-width="4.46"
     stroke-linejoin="bevel"
     points="3701.83,632.834 3701.83,734.762"
     id="polyline7542"
     transform="translate(-336.598,-596.9825)" />
  <polyline
     class="BarLine"
     fill="none"
     stroke="#000000"
     stroke-width="4.46"
     stroke-linejoin="bevel"
     points="1143.66,632.834 1143.66,734.762"
     id="polyline7544"
     transform="translate(-336.598,-596.9825)" />
  <polyline
     class="BarLine"
     fill="none"
     stroke="#000000"
     stroke-width="4.46"
     stroke-linejoin="bevel"
     points="864.678,632.834 864.678,734.762"
     id="polyline7546"
     transform="translate(-336.598,-596.9825)" />
  <polyline
     class="BarLine"
     fill="none"
     stroke="#000000"
     stroke-width="4.46"
     stroke-linejoin="bevel"
     points="3422.85,632.834 3422.85,734.762"
     id="polyline7548"
     transform="translate(-336.598,-596.9825)" />
  <polyline
     class="BarLine"
     fill="none"
     stroke="#000000"
     stroke-width="4.46"
     stroke-linejoin="bevel"
     points="2010.82,632.834 2010.82,734.762"
     id="polyline7550"
     transform="translate(-336.598,-596.9825)" />
  <polyline
     class="BarLine"
     fill="none"
     stroke="#000000"
     stroke-width="4.46"
     stroke-linejoin="bevel"
     points="3143.87,632.834 3143.87,734.762"
     id="polyline7552"
     transform="translate(-336.598,-596.9825)" />
  <path
     class="BarLine"
     d="m 1932.145,74.4155 c 0,-2.883 -2.294,-5.254505 -5.1615,-5.254505 -2.883,0 -5.1615,2.371505 -5.1615,5.254505 0,2.883 2.2785,5.254505 5.1615,5.254505 2.8675,0 5.1615,-2.371505 5.1615,-5.254505"
     id="path7554"
     style="stroke-width:0.992" />
  <path
     class="BarLine"
     d="m 1932.145,99.2155 c 0,-2.883 -2.294,-5.254505 -5.1615,-5.254505 -2.883,0 -5.1615,2.371505 -5.1615,5.254505 0,2.883 2.2785,5.2545 5.1615,5.2545 2.8675,0 5.1615,-2.3715 5.1615,-5.2545"
     id="path7556"
     style="stroke-width:0.992" />
  <polyline
     class="BarLine"
     fill="none"
     stroke="#000000"
     stroke-width="4.46"
     stroke-linejoin="bevel"
     points="2280.13,632.834 2280.13,734.762"
     id="polyline7558"
     transform="translate(-336.598,-596.9825)" />
  <polyline
     class="BarLine"
     fill="none"
     stroke="#000000"
     stroke-width="13.64"
     stroke-linejoin="bevel"
     points="2298.36,632.834 2298.36,734.762"
     id="polyline7560"
     transform="translate(-336.598,-596.9825)" />
  <polyline
     class="BarLine"
     fill="none"
     stroke="#000000"
     stroke-width="13.64"
     stroke-linejoin="bevel"
     points="2298.36,632.834 2298.36,734.762"
     id="polyline7562"
     transform="translate(-336.598,-596.9825)" />
  <polyline
     class="BarLine"
     fill="none"
     stroke="#000000"
     stroke-width="4.46"
     stroke-linejoin="bevel"
     points="2316.59,632.834 2316.59,734.762"
     id="polyline7564"
     transform="translate(-336.598,-596.9825)" />
  <path
     class="BarLine"
     d="m 2001.725,74.4155 c 0,-2.883 -2.294,-5.254505 -5.1615,-5.254505 -2.883,0 -5.1615,2.371505 -5.1615,5.254505 0,2.883 2.2785,5.254505 5.1615,5.254505 2.8675,0 5.1615,-2.371505 5.1615,-5.254505"
     id="path7566"
     style="stroke-width:0.992" />
  <path
     class="BarLine"
     d="m 2001.725,99.2155 c 0,-2.883 -2.294,-5.254505 -5.1615,-5.254505 -2.883,0 -5.1615,2.371505 -5.1615,5.254505 0,2.883 2.2785,5.2545 5.1615,5.2545 2.8675,0 5.1615,-2.3715 5.1615,-5.2545"
     id="path7568"
     style="stroke-width:0.992" />
  <polyline
     class="BarLine"
     fill="none"
     stroke="#000000"
     stroke-width="4.46"
     stroke-linejoin="bevel"
     points="2615.05,632.834 2615.05,734.762"
     id="polyline7570"
     transform="translate(-336.598,-596.9825)" />
  <polyline
     class="BarLine"
     fill="none"
     stroke="#000000"
     stroke-width="4.46"
     stroke-linejoin="bevel"
     points="1731.83,632.834 1731.83,734.762"
     id="polyline7572"
     transform="translate(-336.598,-596.9825)" />
  <path
     class="BarLine"
     d="m 3623.155,74.4155 c 0,-2.883 -2.294,-5.254505 -5.1615,-5.254505 -2.883,0 -5.1615,2.371505 -5.1615,5.254505 0,2.883 2.2785,5.254505 5.1615,5.254505 2.8675,0 5.1615,-2.371505 5.1615,-5.254505"
     id="path7574"
     style="stroke-width:0.992" />
  <path
     class="BarLine"
     d="m 3623.155,99.2155 c 0,-2.883 -2.294,-5.254505 -5.1615,-5.254505 -2.883,0 -5.1615,2.371505 -5.1615,5.254505 0,2.883 2.2785,5.2545 5.1615,5.2545 2.8675,0 5.1615,-2.3715 5.1615,-5.2545"
     id="path7576"
     style="stroke-width:0.992" />
  <polyline
     class="BarLine"
     fill="none"
     stroke="#000000"
     stroke-width="4.46"
     stroke-linejoin="bevel"
     points="3971.15,632.834 3971.15,734.762"
     id="polyline7578"
     transform="translate(-336.598,-596.9825)" />
  <polyline
     class="BarLine"
     fill="none"
     stroke="#000000"
     stroke-width="13.64"
     stroke-linejoin="bevel"
     points="3989.38,632.834 3989.38,734.762"
     id="polyline7580"
     transform="translate(-336.598,-596.9825)" />
  <polyline
     class="BarLine"
     fill="none"
     stroke="#000000"
     stroke-width="4.46"
     stroke-linejoin="bevel"
     points="2894.04,632.834 2894.04,734.762"
     id="polyline7582"
     transform="translate(-336.598,-596.9825)" />
  <polyline
     class="BarLine"
     fill="none"
     stroke="#000000"
     stroke-width="4.46"
     stroke-linejoin="bevel"
     points="1416.09,632.834 1416.09,734.762"
     id="polyline7584"
     transform="translate(-336.598,-596.9825)" />
  <path
     class="Accidental"
     d="m 1245.5825,88.7995 c 0.6045,-0.09305 1.1005,-0.790525 1.1005,-1.39505 v -5.843475 c 0,-0.790525 -0.6045,-1.39495 -1.395,-1.39495 -0.093,0 -0.093,0 -0.2015,0 L 1241.816,80.8635 V 66.07645 h -2.7745 v 15.376 l -8.835,1.798 V 69.254025 h -2.7745 V 83.8395 l -3.875,0.790525 c -0.589,0.108425 -1.085,0.790425 -1.085,1.39495 V 86.22645 91.976995 91.7755 c 0,0.790495 0.589,1.395 1.395,1.395 0.093,0 0.186,0 0.2945,0 l 3.2705,-0.697505 V 108.841 l -3.875,0.7905 c -0.589,0.093 -1.085,0.79052 -1.085,1.39505 v 5.75043 c 0,0.79052 0.589,1.37957 1.395,1.37957 0.093,0 0.186,0 0.2945,0 l 3.2705,-0.682 v 14.77147 h 2.7745 v -15.376 l 8.835,-1.78252 v 13.99652 h 2.7745 v -14.58547 l 3.7665,-0.69757 c 0.6045,-0.10843 1.1005,-0.79043 1.1005,-1.39496 v -5.84352 c 0,-0.806 -0.6045,-1.395 -1.395,-1.395 -0.093,0 -0.093,0 -0.2015,0 l -3.2705,0.6975 V 89.496995 l 3.7665,-0.697495 m -15.376,3.069 8.835,-1.782505 V 106.454 l -8.835,1.891 V 91.8685"
     id="path7586"
     style="stroke-width:0.992" />
  <path
     class="Accidental"
     d="m 904.31252,88.7995 c 0.60453,-0.09305 1.10053,-0.790525 1.10053,-1.39505 v -5.843475 c 0,-0.790525 -0.60453,-1.39495 -1.39505,-1.39495 -0.0929,0 -0.0929,0 -0.20148,0 L 900.546,80.8635 V 66.07645 h -2.77452 v 15.376 l -8.83498,1.798 V 69.254025 H 886.162 V 83.8395 l -3.875,0.790525 c -0.589,0.108425 -1.085,0.790425 -1.085,1.39495 V 86.22645 91.976995 91.7755 c 0,0.790495 0.589,1.395 1.395,1.395 0.093,0 0.186,0 0.2945,0 l 3.2705,-0.697505 V 108.841 l -3.875,0.7905 c -0.589,0.093 -1.085,0.79052 -1.085,1.39505 v 5.75043 c 0,0.79052 0.589,1.37957 1.395,1.37957 0.093,0 0.186,0 0.2945,0 l 3.2705,-0.682 v 14.77147 h 2.7745 v -15.376 l 8.83498,-1.78252 v 13.99652 h 2.77452 v -14.58547 l 3.76652,-0.69757 c 0.60453,-0.10843 1.10053,-0.79043 1.10053,-1.39496 v -5.84352 c 0,-0.806 -0.60453,-1.395 -1.39505,-1.395 -0.0929,0 -0.0929,0 -0.20148,0 L 900.546,105.865 V 89.496995 l 3.76652,-0.697495 m -15.37602,3.069 8.83498,-1.782505 V 106.454 l -8.83498,1.891 V 91.8685"
     id="path7588"
     style="stroke-width:0.992" />
  <polyline
     class="Stem"
     fill="none"
     stroke="#000000"
     stroke-width="2.48"
     stroke-linejoin="bevel"
     points="2977.21,663.165 2977.21,745.798"
     id="polyline7590"
     transform="translate(-336.598,-596.9825)" />
  <polyline
     class="Stem"
     fill="none"
     stroke="#000000"
     stroke-width="2.48"
     stroke-linejoin="bevel"
     points="2370.54,638.365 2370.54,720.899"
     id="polyline7592"
     transform="translate(-336.598,-596.9825)" />
  <polyline
     class="Stem"
     fill="none"
     stroke="#000000"
     stroke-width="2.48"
     stroke-linejoin="bevel"
     points="3627.79,675.565 3627.79,751.998"
     id="polyline7594"
     transform="translate(-336.598,-596.9825)" />
  <polyline
     class="Stem"
     fill="none"
     stroke="#000000"
     stroke-width="2.48"
     stroke-linejoin="bevel"
     points="3579.08,675.565 3579.08,751.899"
     id="polyline7596"
     transform="translate(-336.598,-596.9825)" />
  <polyline
     class="Stem"
     fill="none"
     stroke="#000000"
     stroke-width="2.48"
     stroke-linejoin="bevel"
     points="3457.32,675.565 3457.32,751.899"
     id="polyline7598"
     transform="translate(-336.598,-596.9825)" />
  <polyline
     class="Stem"
     fill="none"
     stroke="#000000"
     stroke-width="2.48"
     stroke-linejoin="bevel"
     points="631.532,717.03 631.532,634.397"
     id="polyline7600"
     transform="translate(-336.598,-596.9825)" />
  <polyline
     class="Stem"
     fill="none"
     stroke="#000000"
     stroke-width="2.48"
     stroke-linejoin="bevel"
     points="698.616,717.03 698.616,634.198"
     id="polyline7602"
     transform="translate(-336.598,-596.9825)" />
  <polyline
     class="Stem"
     fill="none"
     stroke="#000000"
     stroke-width="2.48"
     stroke-linejoin="bevel"
     points="741.927,687.965 741.927,764.299"
     id="polyline7604"
     transform="translate(-336.598,-596.9825)" />
  <polyline
     class="Stem"
     fill="none"
     stroke="#000000"
     stroke-width="2.48"
     stroke-linejoin="bevel"
     points="1480.31,717.03 1480.31,634.397"
     id="polyline7606"
     transform="translate(-336.598,-596.9825)" />
  <polyline
     class="Stem"
     fill="none"
     stroke="#000000"
     stroke-width="2.48"
     stroke-linejoin="bevel"
     points="2819.99,650.765 2819.99,733.398"
     id="polyline7608"
     transform="translate(-336.598,-596.9825)" />
  <polyline
     class="Stem"
     fill="none"
     stroke="#000000"
     stroke-width="2.48"
     stroke-linejoin="bevel"
     points="1547.39,717.03 1547.39,634.198"
     id="polyline7610"
     transform="translate(-336.598,-596.9825)" />
  <polyline
     class="Stem"
     fill="none"
     stroke="#000000"
     stroke-width="2.48"
     stroke-linejoin="bevel"
     points="2771.28,650.765 2771.28,733.299"
     id="polyline7612"
     transform="translate(-336.598,-596.9825)" />
  <polyline
     class="Stem"
     fill="none"
     stroke="#000000"
     stroke-width="2.48"
     stroke-linejoin="bevel"
     points="2093.99,687.965 2093.99,758.198"
     id="polyline7614"
     transform="translate(-336.598,-596.9825)" />
  <polyline
     class="Stem"
     fill="none"
     stroke="#000000"
     stroke-width="2.48"
     stroke-linejoin="bevel"
     points="1620.45,692.23 1620.45,615.797"
     id="polyline7616"
     transform="translate(-336.598,-596.9825)" />
  <polyline
     class="Stem"
     fill="none"
     stroke="#000000"
     stroke-width="2.48"
     stroke-linejoin="bevel"
     points="3348.8,675.565 3348.8,751.998"
     id="polyline7618"
     transform="translate(-336.598,-596.9825)" />
  <polyline
     class="Stem"
     fill="none"
     stroke="#000000"
     stroke-width="2.48"
     stroke-linejoin="bevel"
     points="790.631,663.165 790.631,745.798"
     id="polyline7620"
     transform="translate(-336.598,-596.9825)" />
  <polyline
     class="Stem"
     fill="none"
     stroke="#000000"
     stroke-width="2.48"
     stroke-linejoin="bevel"
     points="1657.79,638.365 1657.79,720.998"
     id="polyline7622"
     transform="translate(-336.598,-596.9825)" />
  <polyline
     class="Stem"
     fill="none"
     stroke="#000000"
     stroke-width="2.48"
     stroke-linejoin="bevel"
     points="1279.18,692.23 1279.18,615.598"
     id="polyline7624"
     transform="translate(-336.598,-596.9825)" />
  <polyline
     class="Stem"
     fill="none"
     stroke="#000000"
     stroke-width="2.48"
     stroke-linejoin="bevel"
     points="899.15,663.165 899.15,745.699"
     id="polyline7626"
     transform="translate(-336.598,-596.9825)" />
  <polyline
     class="Stem"
     fill="none"
     stroke="#000000"
     stroke-width="2.48"
     stroke-linejoin="bevel"
     points="3300.1,650.765 3300.1,733.299"
     id="polyline7628"
     transform="translate(-336.598,-596.9825)" />
  <polyline
     class="Stem"
     fill="none"
     stroke="#000000"
     stroke-width="2.48"
     stroke-linejoin="bevel"
     points="2649.53,650.765 2649.53,733.299"
     id="polyline7630"
     transform="translate(-336.598,-596.9825)" />
  <polyline
     class="Stem"
     fill="none"
     stroke="#000000"
     stroke-width="2.48"
     stroke-linejoin="bevel"
     points="1766.31,638.365 1766.31,720.899"
     id="polyline7632"
     transform="translate(-336.598,-596.9825)" />
  <polyline
     class="Stem"
     fill="none"
     stroke="#000000"
     stroke-width="2.48"
     stroke-linejoin="bevel"
     points="2541.01,650.765 2541.01,733.398"
     id="polyline7634"
     transform="translate(-336.598,-596.9825)" />
  <polyline
     class="Stem"
     fill="none"
     stroke="#000000"
     stroke-width="2.48"
     stroke-linejoin="bevel"
     points="2492.3,625.965 2492.3,708.499"
     id="polyline7636"
     transform="translate(-336.598,-596.9825)" />
  <polyline
     class="Stem"
     fill="none"
     stroke="#000000"
     stroke-width="2.48"
     stroke-linejoin="bevel"
     points="3227.04,663.165 3227.04,745.798"
     id="polyline7638"
     transform="translate(-336.598,-596.9825)" />
  <polyline
     class="Stem"
     fill="none"
     stroke="#000000"
     stroke-width="2.48"
     stroke-linejoin="bevel"
     points="1888.06,675.565 1888.06,751.899"
     id="polyline7640"
     transform="translate(-336.598,-596.9825)" />
  <polyline
     class="Stem"
     fill="none"
     stroke="#000000"
     stroke-width="2.48"
     stroke-linejoin="bevel"
     points="2419.25,638.365 2419.25,720.998"
     id="polyline7642"
     transform="translate(-336.598,-596.9825)" />
  <polyline
     class="Stem"
     fill="none"
     stroke="#000000"
     stroke-width="2.48"
     stroke-linejoin="bevel"
     points="2928.51,638.365 2928.51,720.899"
     id="polyline7644"
     transform="translate(-336.598,-596.9825)" />
  <polyline
     class="Stem"
     fill="none"
     stroke="#000000"
     stroke-width="2.48"
     stroke-linejoin="bevel"
     points="1020.91,687.965 1020.91,764.299"
     id="polyline7646"
     transform="translate(-336.598,-596.9825)" />
  <polyline
     class="Stem"
     fill="none"
     stroke="#000000"
     stroke-width="2.48"
     stroke-linejoin="bevel"
     points="3736.31,663.165 3736.31,745.699"
     id="polyline7648"
     transform="translate(-336.598,-596.9825)" />
  <polyline
     class="Stem"
     fill="none"
     stroke="#000000"
     stroke-width="2.48"
     stroke-linejoin="bevel"
     points="3785.01,687.965 3785.01,758.198"
     id="polyline7650"
     transform="translate(-336.598,-596.9825)" />
  <polyline
     class="Stem"
     fill="none"
     stroke="#000000"
     stroke-width="2.48"
     stroke-linejoin="bevel"
     points="3178.34,663.165 3178.34,745.699"
     id="polyline7652"
     transform="translate(-336.598,-596.9825)" />
  <polyline
     class="Stem"
     fill="none"
     stroke="#000000"
     stroke-width="2.48"
     stroke-linejoin="bevel"
     points="1069.61,687.965 1069.61,758.198"
     id="polyline7654"
     transform="translate(-336.598,-596.9825)" />
  <polyline
     class="Stem"
     fill="none"
     stroke="#000000"
     stroke-width="2.48"
     stroke-linejoin="bevel"
     points="2045.29,663.165 2045.29,745.699"
     id="polyline7656"
     transform="translate(-336.598,-596.9825)" />
  <polyline
     class="Stem"
     fill="none"
     stroke="#000000"
     stroke-width="2.48"
     stroke-linejoin="bevel"
     points="1178.13,675.565 1178.13,751.899"
     id="polyline7658"
     transform="translate(-336.598,-596.9825)" />
  <polyline
     class="Stem"
     fill="none"
     stroke="#000000"
     stroke-width="2.48"
     stroke-linejoin="bevel"
     points="1936.77,675.565 1936.77,751.998"
     id="polyline7660"
     transform="translate(-336.598,-596.9825)" />
  <path
     class="Hook"
     d="m 1707.452,148.7225 c 0,0.682 0.589,1.2865 1.2865,1.2865 0.496,0 1.1005,-0.403 1.1935,-0.7905 0,-0.1085 0.899,-3.5805 0.992,-3.875 0.093,-0.403 0.992,-4.1695 4.557,-10.01305 3.875,-6.448 9.827,-11.11347 14.787,-18.05747 4.867,-6.944 7.843,-13.50053 7.843,-22.226955 0,-9.02105 -2.0925,-16.569575 -7.347,-26.19505 -0.2945,-0.697475 -0.899,-1.08495 -1.488,-1.08495 -0.2015,0 -0.403,0 -0.496,0.09295 -0.496,0.201475 -0.6975,0.604525 -0.6975,1.193475 0,0.294525 0.1085,0.790525 0.2945,1.193575 3.968,9.222425 5.5645,14.47695 5.5645,21.622425 0,8.23053 -2.883,12.50853 -4.6655,15.57757 -6.448,11.00496 -16.864,16.368 -21.0335,17.76296 -0.6975,0.29452 -0.7905,0.79052 -0.7905,1.08504 v 22.42848"
     id="path7662"
     style="stroke-width:0.992" />
  <path
     class="Hook"
     d="m 1428.472,123.9225 c 0,0.682 0.589,1.2865 1.2865,1.2865 0.496,0 1.1005,-0.403 1.1935,-0.7905 0,-0.1085 0.899,-3.5805 0.992,-3.875 0.093,-0.403 0.992,-4.1695 4.557,-10.01305 3.875,-6.448 9.827,-11.113475 14.787,-18.057475 4.867,-6.944 7.843,-13.500525 7.843,-22.22695 0,-9.02105 -2.0925,-16.569575 -7.347,-26.19505 -0.2945,-0.697475 -0.899,-1.08495 -1.488,-1.08495 -0.2015,0 -0.403,0 -0.496,0.09295 -0.496,0.201475 -0.6975,0.604525 -0.6975,1.193475 0,0.294525 0.1085,0.790525 0.2945,1.193575 3.968,9.222425 5.5645,14.47695 5.5645,21.622425 0,8.230525 -2.883,12.508525 -4.6655,15.577575 -6.448,11.00495 -16.864,16.368 -21.0335,17.762955 -0.6975,0.29452 -0.7905,0.79052 -0.7905,1.08504 v 22.42848"
     id="path7664"
     style="stroke-width:0.992" />
  <path
     class="Hook"
     d="m 2032.702,123.9225 c 0,0.682 0.589,1.2865 1.2865,1.2865 0.496,0 1.1005,-0.403 1.1935,-0.7905 0,-0.1085 0.899,-3.5805 0.992,-3.875 0.093,-0.403 0.992,-4.1695 4.557,-10.01305 3.875,-6.448 9.827,-11.113475 14.787,-18.057475 4.867,-6.944 7.843,-13.500525 7.843,-22.22695 0,-9.02105 -2.0925,-16.569575 -7.347,-26.19505 -0.2945,-0.697475 -0.899,-1.08495 -1.488,-1.08495 -0.2015,0 -0.403,0 -0.496,0.09295 -0.496,0.201475 -0.6975,0.604525 -0.6975,1.193475 0,0.294525 0.1085,0.790525 0.2945,1.193575 3.968,9.222425 5.5645,14.47695 5.5645,21.622425 0,8.230525 -2.883,12.508525 -4.6655,15.577575 -6.448,11.00495 -16.864,16.368 -21.0335,17.762955 -0.6975,0.29452 -0.7905,0.79052 -0.7905,1.08504 v 22.42848"
     id="path7666"
     style="stroke-width:0.992" />
  <path
     class="Hook"
     d="m 2154.462,111.5225 c 0,0.682 0.589,1.2865 1.2865,1.2865 0.496,0 1.1005,-0.403 1.1935,-0.7905 0,-0.1085 0.899,-3.5805 0.992,-3.875 0.093,-0.403 0.992,-4.1695 4.557,-10.01305 3.875,-6.448 9.827,-11.113475 14.787,-18.057475 4.867,-6.944 7.843,-13.500525 7.843,-22.22695 0,-9.02105 -2.0925,-16.569575 -7.347,-26.19505 -0.2945,-0.697475 -0.899,-1.08495 -1.488,-1.08495 -0.2015,0 -0.403,0 -0.496,0.09295 -0.496,0.201475 -0.6975,0.604525 -0.6975,1.193475 0,0.294525 0.1085,0.790525 0.2945,1.193575 3.968,9.222425 5.5645,14.47695 5.5645,21.622425 0,8.230525 -2.883,12.508525 -4.6655,15.577575 -6.448,11.00495 -16.864,16.368 -21.0335,17.76295 -0.6975,0.294525 -0.7905,0.790525 -0.7905,1.08505 V 111.5225"
     id="path7668"
     style="stroke-width:0.992" />
  <path
     class="Hook"
     d="m 2311.692,136.3225 c 0,0.682 0.589,1.2865 1.2865,1.2865 0.496,0 1.1005,-0.403 1.1935,-0.7905 0,-0.1085 0.899,-3.5805 0.992,-3.875 0.093,-0.403 0.992,-4.1695 4.557,-10.01305 3.875,-6.448 9.827,-11.11347 14.787,-18.05747 4.867,-6.944005 7.843,-13.50053 7.843,-22.226955 0,-9.02105 -2.0925,-16.569575 -7.347,-26.19505 -0.2945,-0.697475 -0.899,-1.08495 -1.488,-1.08495 -0.2015,0 -0.403,0 -0.496,0.09295 -0.496,0.201475 -0.6975,0.604525 -0.6975,1.193475 0,0.294525 0.1085,0.790525 0.2945,1.193575 3.968,9.222425 5.5645,14.47695 5.5645,21.622425 0,8.230525 -2.883,12.508525 -4.6655,15.577575 -6.448,11.004955 -16.864,16.367995 -21.0335,17.762955 -0.6975,0.29452 -0.7905,0.79052 -0.7905,1.08504 v 22.42848"
     id="path7670"
     style="stroke-width:0.992" />
  <path
     class="Hook"
     d="m 2433.442,136.3225 c 0,0.682 0.589,1.2865 1.2865,1.2865 0.496,0 1.1005,-0.403 1.1935,-0.7905 0,-0.1085 0.899,-3.5805 0.992,-3.875 0.093,-0.403 0.992,-4.1695 4.557,-10.01305 3.875,-6.448 9.827,-11.11347 14.787,-18.05747 4.867,-6.944005 7.843,-13.50053 7.843,-22.226955 0,-9.02105 -2.0925,-16.569575 -7.347,-26.19505 -0.2945,-0.697475 -0.899,-1.08495 -1.488,-1.08495 -0.2015,0 -0.403,0 -0.496,0.09295 -0.496,0.201475 -0.6975,0.604525 -0.6975,1.193475 0,0.294525 0.1085,0.790525 0.2945,1.193575 3.968,9.222425 5.5645,14.47695 5.5645,21.622425 0,8.230525 -2.883,12.508525 -4.6655,15.577575 -6.448,11.004955 -16.864,16.367995 -21.0335,17.762955 -0.6975,0.29452 -0.7905,0.79052 -0.7905,1.08504 v 22.42848"
     id="path7672"
     style="stroke-width:0.992" />
  <path
     class="Hook"
     d="m 2590.672,123.9225 c 0,0.682 0.589,1.2865 1.2865,1.2865 0.496,0 1.1005,-0.403 1.1935,-0.7905 0,-0.1085 0.899,-3.5805 0.992,-3.875 0.093,-0.403 0.992,-4.1695 4.557,-10.01305 3.875,-6.448 9.827,-11.113475 14.787,-18.057475 4.867,-6.944 7.843,-13.500525 7.843,-22.22695 0,-9.02105 -2.0925,-16.569575 -7.347,-26.19505 -0.2945,-0.697475 -0.899,-1.08495 -1.488,-1.08495 -0.2015,0 -0.403,0 -0.496,0.09295 -0.496,0.201475 -0.6975,0.604525 -0.6975,1.193475 0,0.294525 0.1085,0.790525 0.2945,1.193575 3.968,9.222425 5.5645,14.47695 5.5645,21.622425 0,8.230525 -2.883,12.508525 -4.6655,15.577575 -6.448,11.00495 -16.864,16.368 -21.0335,17.762955 -0.6975,0.29452 -0.7905,0.79052 -0.7905,1.08504 v 22.42848"
     id="path7674"
     style="stroke-width:0.992" />
  <path
     class="Hook"
     d="m 2840.502,148.7225 c 0,0.682 0.589,1.2865 1.2865,1.2865 0.496,0 1.1005,-0.403 1.1935,-0.7905 0,-0.1085 0.899,-3.5805 0.992,-3.875 0.093,-0.403 0.992,-4.1695 4.557,-10.01305 3.875,-6.448 9.827,-11.11347 14.787,-18.05747 4.867,-6.944 7.843,-13.50053 7.843,-22.226955 0,-9.02105 -2.0925,-16.569575 -7.347,-26.19505 -0.2945,-0.697475 -0.899,-1.08495 -1.488,-1.08495 -0.2015,0 -0.403,0 -0.496,0.09295 -0.496,0.201475 -0.6975,0.604525 -0.6975,1.193475 0,0.294525 0.1085,0.790525 0.2945,1.193575 3.968,9.222425 5.5645,14.47695 5.5645,21.622425 0,8.23053 -2.883,12.50853 -4.6655,15.57757 -6.448,11.00496 -16.864,16.368 -21.0335,17.76296 -0.6975,0.29452 -0.7905,0.79052 -0.7905,1.08504 v 22.42848"
     id="path7676"
     style="stroke-width:0.992" />
  <path
     class="Hook"
     d="m 2962.262,136.3225 c 0,0.682 0.589,1.2865 1.2865,1.2865 0.496,0 1.1005,-0.403 1.1935,-0.7905 0,-0.1085 0.899,-3.5805 0.992,-3.875 0.093,-0.403 0.992,-4.1695 4.557,-10.01305 3.875,-6.448 9.827,-11.11347 14.787,-18.05747 4.867,-6.944005 7.843,-13.50053 7.843,-22.226955 0,-9.02105 -2.0925,-16.569575 -7.347,-26.19505 -0.2945,-0.697475 -0.899,-1.08495 -1.488,-1.08495 -0.2015,0 -0.403,0 -0.496,0.09295 -0.496,0.201475 -0.6975,0.604525 -0.6975,1.193475 0,0.294525 0.1085,0.790525 0.2945,1.193575 3.968,9.222425 5.5645,14.47695 5.5645,21.622425 0,8.230525 -2.883,12.508525 -4.6655,15.577575 -6.448,11.004955 -16.864,16.367995 -21.0335,17.762955 -0.6975,0.29452 -0.7905,0.79052 -0.7905,1.08504 v 22.42848"
     id="path7678"
     style="stroke-width:0.992" />
  <path
     class="Hook"
     d="m 3119.482,154.9225 c 0,0.682 0.589,1.2865 1.2865,1.2865 0.496,0 1.1005,-0.403 1.1935,-0.7905 0,-0.1085 0.899,-3.5805 0.992,-3.875 0.093,-0.403 0.992,-4.1695 4.557,-10.01305 3.875,-6.448 9.827,-11.11347 14.787,-18.05747 4.867,-6.944 7.843,-13.50053 7.843,-22.22696 0,-9.021045 -2.0925,-16.56957 -7.347,-26.195045 -0.2945,-0.697475 -0.899,-1.08495 -1.488,-1.08495 -0.2015,0 -0.403,0 -0.496,0.09295 -0.496,0.201475 -0.6975,0.604525 -0.6975,1.193475 0,0.294525 0.1085,0.790525 0.2945,1.193575 3.968,9.222425 5.5645,14.47695 5.5645,21.622425 0,8.23053 -2.883,12.50853 -4.6655,15.57757 -6.448,11.00496 -16.864,16.368 -21.0335,17.76296 -0.6975,0.29452 -0.7905,0.79052 -0.7905,1.08504 v 22.42848"
     id="path7680"
     style="stroke-width:0.992" />
  <path
     class="Hook"
     d="m 3241.242,154.9225 c 0,0.682 0.589,1.2865 1.2865,1.2865 0.496,0 1.1005,-0.403 1.1935,-0.7905 0,-0.1085 0.899,-3.5805 0.992,-3.875 0.093,-0.403 0.992,-4.1695 4.557,-10.01305 3.875,-6.448 9.827,-11.11347 14.787,-18.05747 4.867,-6.944 7.843,-13.50053 7.843,-22.22696 0,-9.021045 -2.0925,-16.56957 -7.347,-26.195045 -0.2945,-0.697475 -0.899,-1.08495 -1.488,-1.08495 -0.2015,0 -0.403,0 -0.496,0.09295 -0.496,0.201475 -0.6975,0.604525 -0.6975,1.193475 0,0.294525 0.1085,0.790525 0.2945,1.193575 3.968,9.222425 5.5645,14.47695 5.5645,21.622425 0,8.23053 -2.883,12.50853 -4.6655,15.57757 -6.448,11.00496 -16.864,16.368 -21.0335,17.76296 -0.6975,0.29452 -0.7905,0.79052 -0.7905,1.08504 v 22.42848"
     id="path7682"
     style="stroke-width:0.992" />
  <path
     class="Hook"
     d="m 293.694,59.736975 c 0,0.294525 0.093,0.790525 0.7905,1.08505 4.2625,1.39495 12.80298,6.758 19.25098,17.76295 1.78252,3.06905 4.66557,7.34705 4.66557,15.577575 0,7.14547 -1.89105,14.47695 -4.464,21.62243 -0.20157,0.60452 -0.40305,1.10052 -0.31,1.488 0,0.40304 0.10843,0.69757 0.496,0.89904 0.20147,0.093 0.40295,0.093 0.496,0.093 0.69747,0 1.19347,-0.38748 1.59643,-1.08496 4.66557,-8.246 6.24652,-18.755045 6.15357,-25.00147 0,-0.496 0,-0.790525 0,-1.193575 -0.496,-12.80295 -7.84305,-22.22695 -7.84305,-22.22695 0.29452,0 -9.12948,-12.198525 -11.811,-16.368 C 299.057,46.7325 297.3675,41.0905 297.166,40.6875 c -0.093,-0.294495 -0.992,-3.875 -0.992,-3.875 -0.093,-0.3875 -0.589,-0.790505 -1.1935,-0.790505 -0.6975,0 -1.2865,0.604505 -1.2865,1.286505 v 22.428475"
     id="path7684"
     style="stroke-width:0.992" />
  <path
     class="Hook"
     d="m 3398.472,148.7225 c 0,0.682 0.589,1.2865 1.2865,1.2865 0.496,0 1.1005,-0.403 1.1935,-0.7905 0,-0.1085 0.899,-3.5805 0.992,-3.875 0.093,-0.403 0.992,-4.1695 4.557,-10.01305 3.875,-6.448 9.827,-11.11347 14.787,-18.05747 4.867,-6.944 7.843,-13.50053 7.843,-22.226955 0,-9.02105 -2.0925,-16.569575 -7.347,-26.19505 -0.2945,-0.697475 -0.899,-1.08495 -1.488,-1.08495 -0.2015,0 -0.403,0 -0.496,0.09295 -0.496,0.201475 -0.6975,0.604525 -0.6975,1.193475 0,0.294525 0.1085,0.790525 0.2945,1.193575 3.968,9.222425 5.5645,14.47695 5.5645,21.622425 0,8.23053 -2.883,12.50853 -4.6655,15.57757 -6.448,11.00496 -16.864,16.368 -21.0335,17.76296 -0.6975,0.29452 -0.7905,0.79052 -0.7905,1.08504 v 22.42848"
     id="path7686"
     style="stroke-width:0.992" />
  <path
     class="Hook"
     d="m 404.089,167.3225 c 0,0.682 0.589,1.2865 1.2865,1.2865 0.496,0 1.1005,-0.403 1.1935,-0.7905 0,-0.1085 0.899,-3.5805 0.992,-3.875 0.093,-0.403 0.992,-4.1695 4.557,-10.01305 3.875,-6.448 9.827,-11.11347 14.787,-18.05747 4.86705,-6.944 7.84305,-13.50053 7.84305,-22.22696 0,-9.02104 -2.09253,-16.56957 -7.34705,-26.195045 -0.29452,-0.697475 -0.89895,-1.08495 -1.488,-1.08495 -0.20148,0 -0.40295,0 -0.496,0.09295 -0.496,0.201475 -0.69748,0.604525 -0.69748,1.193475 0,0.294525 0.10853,0.790525 0.29453,1.193575 3.968,9.222425 5.56443,14.476955 5.56443,21.622425 0,8.23053 -2.88296,12.50853 -4.66548,15.57757 -6.448,11.00496 -16.864,16.368 -21.0335,17.76296 -0.6975,0.29452 -0.7905,0.79052 -0.7905,1.08504 v 22.42848"
     id="path7688"
     style="stroke-width:0.992" />
  <path
     class="Hook"
     d="m 561.312,148.7225 c 0,0.682 0.589,1.2865 1.2865,1.2865 0.496,0 1.1005,-0.403 1.1935,-0.7905 0,-0.1085 0.899,-3.5805 0.992,-3.875 0.093,-0.403 0.992,-4.1695 4.557,-10.01305 3.875,-6.448 9.827,-11.11347 14.787,-18.05747 4.86705,-6.944 7.84305,-13.50053 7.84305,-22.226955 0,-9.02105 -2.09253,-16.569575 -7.34705,-26.19505 -0.29452,-0.697475 -0.89895,-1.08495 -1.488,-1.08495 -0.20148,0 -0.40295,0 -0.496,0.09295 -0.496,0.201475 -0.69748,0.604525 -0.69748,1.193475 0,0.294525 0.10853,0.790525 0.29453,1.193575 3.968,9.222425 5.56443,14.47695 5.56443,21.622425 0,8.23053 -2.88296,12.50853 -4.66548,15.57757 -6.448,11.00496 -16.864,16.368 -21.0335,17.76296 -0.6975,0.29452 -0.7905,0.79052 -0.7905,1.08504 v 22.42848"
     id="path7690"
     style="stroke-width:0.992" />
  <path
     class="Hook"
     d="m 683.072,167.3225 c 0,0.682 0.589,1.2865 1.2865,1.2865 0.496,0 1.1005,-0.403 1.1935,-0.7905 0,-0.1085 0.899,-3.5805 0.992,-3.875 0.093,-0.403 0.992,-4.1695 4.557,-10.01305 3.875,-6.448 9.827,-11.11347 14.787,-18.05747 4.86705,-6.944 7.84305,-13.50053 7.84305,-22.22696 0,-9.02104 -2.09253,-16.56957 -7.34705,-26.195045 -0.29452,-0.697475 -0.89895,-1.08495 -1.488,-1.08495 -0.20148,0 -0.40295,0 -0.496,0.09295 -0.496,0.201475 -0.69748,0.604525 -0.69748,1.193475 0,0.294525 0.10853,0.790525 0.29453,1.193575 3.968,9.222425 5.56443,14.476955 5.56443,21.622425 0,8.23053 -2.88296,12.50853 -4.66548,15.57757 -6.448,11.00496 -16.864,16.368 -21.0335,17.76296 -0.6975,0.29452 -0.7905,0.79052 -0.7905,1.08504 v 22.42848"
     id="path7692"
     style="stroke-width:0.992" />
  <path
     class="Hook"
     d="m 840.292,154.9225 c 0,0.682 0.589,1.2865 1.2865,1.2865 0.496,0 1.1005,-0.403 1.1935,-0.7905 0,-0.1085 0.899,-3.5805 0.992,-3.875 0.093,-0.403 0.992,-4.1695 4.557,-10.01305 3.875,-6.448 9.827,-11.11347 14.787,-18.05747 4.86705,-6.944 7.84305,-13.50053 7.84305,-22.22696 0,-9.021045 -2.09253,-16.56957 -7.34705,-26.195045 -0.29452,-0.697475 -0.89895,-1.08495 -1.488,-1.08495 -0.20148,0 -0.40295,0 -0.496,0.09295 -0.496,0.201475 -0.69748,0.604525 -0.69748,1.193475 0,0.294525 0.10853,0.790525 0.29453,1.193575 3.968,9.222425 5.56443,14.47695 5.56443,21.622425 0,8.23053 -2.88296,12.50853 -4.66548,15.57757 -6.448,11.00496 -16.864,16.368 -21.0335,17.76296 -0.6975,0.29452 -0.7905,0.79052 -0.7905,1.08504 v 22.42848"
     id="path7694"
     style="stroke-width:0.992" />
  <path
     class="Hook"
     d="m 1142.472,59.736975 c 0,0.294525 0.093,0.790525 0.7905,1.08505 4.2625,1.39495 12.803,6.758 19.251,17.76295 1.7825,3.06905 4.6655,7.34705 4.6655,15.577575 0,7.14547 -1.891,14.47695 -4.464,21.62243 -0.2015,0.60452 -0.403,1.10052 -0.31,1.488 0,0.40304 0.1085,0.69757 0.496,0.89904 0.2015,0.093 0.403,0.093 0.496,0.093 0.6975,0 1.1935,-0.38748 1.5965,-1.08496 4.6655,-8.246 6.2465,-18.755045 6.1535,-25.00147 0,-0.496 0,-0.790525 0,-1.193575 -0.496,-12.80295 -7.843,-22.22695 -7.843,-22.22695 0.2945,0 -9.1295,-12.198525 -11.811,-16.368 -3.658,-5.657525 -5.3475,-11.299525 -5.549,-11.702525 -0.093,-0.294495 -0.992,-3.875 -0.992,-3.875 -0.093,-0.3875 -0.589,-0.790505 -1.1935,-0.790505 -0.6975,0 -1.2865,0.604505 -1.2865,1.286505 v 22.428475"
     id="path7696"
     style="stroke-width:0.992" />
  <path
     class="Hook"
     d="m 1282.612,41.136975 c 0,0.294525 0.093,0.790525 0.7905,1.08505 4.2625,1.39495 12.803,6.758 19.251,17.76295 1.7825,3.06905 4.6655,7.34705 4.6655,15.577575 0,7.145475 -1.891,14.47695 -4.464,21.622425 -0.2015,0.604525 -0.403,1.100525 -0.31,1.488 0,0.40305 0.1085,0.697575 0.496,0.89905 0.2015,0.09295 0.403,0.09295 0.496,0.09295 0.6975,0 1.1935,-0.387475 1.5965,-1.08495 4.6655,-8.246 6.2465,-18.75505 6.1535,-25.001475 0,-0.496 0,-0.790525 0,-1.193575 -0.496,-12.80295 -7.843,-22.22695 -7.843,-22.22695 0.2945,0 -9.1295,-12.198525 -11.811,-16.368 -3.658,-5.657525 -5.3475,-11.299525 -5.549,-11.702525 -0.093,-0.294495 -0.992,-3.875 -0.992,-3.875 -0.093,-0.3875 -0.589,-0.790505 -1.1935,-0.790505 -0.6975,0 -1.2865,0.604505 -1.2865,1.286505 v 22.428475"
     id="path7698"
     style="stroke-width:0.992" />
  <path
     class="Hook"
     d="m 1550.222,154.9225 c 0,0.682 0.589,1.2865 1.2865,1.2865 0.496,0 1.1005,-0.403 1.1935,-0.7905 0,-0.1085 0.899,-3.5805 0.992,-3.875 0.093,-0.403 0.992,-4.1695 4.557,-10.01305 3.875,-6.448 9.827,-11.11347 14.787,-18.05747 4.867,-6.944 7.843,-13.50053 7.843,-22.22696 0,-9.021045 -2.0925,-16.56957 -7.347,-26.195045 -0.2945,-0.697475 -0.899,-1.08495 -1.488,-1.08495 -0.2015,0 -0.403,0 -0.496,0.09295 -0.496,0.201475 -0.6975,0.604525 -0.6975,1.193475 0,0.294525 0.1085,0.790525 0.2945,1.193575 3.968,9.222425 5.5645,14.47695 5.5645,21.622425 0,8.23053 -2.883,12.50853 -4.6655,15.57757 -6.448,11.00496 -16.864,16.368 -21.0335,17.76296 -0.6975,0.29452 -0.7905,0.79052 -0.7905,1.08504 v 22.42848"
     id="path7700"
     style="stroke-width:0.992" />
  <path
     class="Note"
     d="m 2639.372,66.185005 c 0,4.262495 3.069,9.02102 11.1135,9.02102 10.3075,0 21.1265,-8.43202 21.1265,-17.158525 0,-5.859 -4.96,-9.129475 -11.1135,-9.129475 -9.6255,0 -21.1265,8.137475 -21.1265,17.26698"
     id="path7702"
     style="stroke-width:0.992" />
  <path
     class="Note"
     d="m 2081.412,41.385005 c 0,4.262495 3.069,9.02102 11.1135,9.02102 10.3075,0 21.1265,-8.43202 21.1265,-17.158525 0,-5.859 -4.96,-9.129475 -11.1135,-9.129475 -9.6255,0 -21.1265,8.137475 -21.1265,17.26698"
     id="path7704"
     style="stroke-width:0.992" />
  <path
     class="Note"
     d="m 1179.812,128.185 c 0,4.2625 3.069,9.02102 11.1135,9.02102 10.3075,0 21.1265,-8.43202 21.1265,-17.15852 0,-5.859 -4.96,-9.12948 -11.1135,-9.12948 -9.6255,0 -21.1265,8.13748 -21.1265,17.26698"
     id="path7706"
     style="stroke-width:0.992" />
  <path
     class="Note"
     d="m 2433.442,53.785005 c 0,4.262495 3.069,9.02102 11.1135,9.02102 10.3075,0 21.1265,-8.43202 21.1265,-17.158525 0,-5.859 -4.96,-9.129475 -11.1135,-9.129475 -9.6255,0 -21.1265,8.137475 -21.1265,17.26698"
     id="path7708"
     style="stroke-width:0.992" />
  <path
     class="Note"
     d="m 1112.722,128.185 c 0,4.2625 3.069,9.02102 11.1135,9.02102 10.3075,0 21.1265,-8.43202 21.1265,-17.15852 0,-5.859 -4.96,-9.12948 -11.1135,-9.12948 -9.6255,0 -21.1265,8.13748 -21.1265,17.26698"
     id="path7710"
     style="stroke-width:0.992" />
  <path
     class="Note"
     d="m 2482.152,53.785005 c 0,4.262495 3.069,9.02102 11.1135,9.02102 10.3075,0 21.1265,-8.43202 21.1265,-17.158525 0,-5.859 -4.96,-9.129475 -11.1135,-9.129475 -9.6255,0 -21.1265,8.137475 -21.1265,17.26698"
     id="path7712"
     style="stroke-width:0.992" />
  <path
     class="Note"
     d="m 561.312,66.185005 c 0,4.262495 3.069,9.02102 11.11348,9.02102 10.30757,0 21.12652,-8.43202 21.12652,-17.158525 0,-5.859 -4.96,-9.129475 -11.11348,-9.129475 -9.62547,0 -21.12652,8.137475 -21.12652,17.26698"
     id="path7714"
     style="stroke-width:0.992" />
  <path
     class="Note"
     d="m 263.95,128.185 c 0,4.2625 3.069,9.02102 11.11348,9.02102 10.30757,0 21.12652,-8.43202 21.12652,-17.15852 0,-5.859 -4.96,-9.12948 -11.11348,-9.12948 -9.62547,0 -21.12652,8.13748 -21.12652,17.26698"
     id="path7716"
     style="stroke-width:0.992" />
  <path
     class="Note"
     d="m 1598.932,78.585005 c 0,4.262495 3.069,9.02102 11.1135,9.02102 10.3075,0 21.1265,-8.43202 21.1265,-17.158525 0,-5.859 -4.96,-9.129475 -11.1135,-9.129475 -9.6255,0 -21.1265,8.137475 -21.1265,17.26698"
     id="path7718"
     style="stroke-width:0.992" />
  <path
     class="Note"
     d="m 911.592,103.385 c 0,4.2625 3.069,9.02102 11.11348,9.02102 10.30757,0 21.12652,-8.43202 21.12652,-17.15852 0,-5.859 -4.96,-9.129475 -11.11348,-9.129475 -9.62547,0 -21.12652,8.137475 -21.12652,17.266975"
     id="path7720"
     style="stroke-width:0.992" />
  <path
     class="Note"
     d="m 2590.672,41.385005 c 0,4.262495 3.069,9.02102 11.1135,9.02102 10.3075,0 21.1265,-8.43202 21.1265,-17.158525 0,-5.859 -4.96,-9.129475 -11.1135,-9.129475 -9.6255,0 -21.1265,8.137475 -21.1265,17.26698"
     id="path7722"
     style="stroke-width:0.992" />
  <path
     class="Note"
     d="m 452.793,66.185005 c 0,4.262495 3.069,9.02102 11.11348,9.02102 10.30757,0 21.12652,-8.43202 21.12652,-17.158525 0,-5.859 -4.96,-9.129475 -11.11348,-9.129475 -9.62547,0 -21.12652,8.137475 -21.12652,17.26698"
     id="path7724"
     style="stroke-width:0.992" />
  <path
     class="Note"
     d="m 2962.262,53.785005 c 0,4.262495 3.069,9.02102 11.1135,9.02102 10.3075,0 21.1265,-8.43202 21.1265,-17.158525 0,-5.859 -4.96,-9.129475 -11.1135,-9.129475 -9.6255,0 -21.1265,8.137475 -21.1265,17.26698"
     id="path7726"
     style="stroke-width:0.992" />
  <path
     class="Note"
     d="m 331.034,128.185 c 0,4.2625 3.069,9.02102 11.11348,9.02102 10.30757,0 21.12652,-8.43202 21.12652,-17.15852 0,-5.859 -4.96,-9.12948 -11.11348,-9.12948 -9.62547,0 -21.12652,8.13748 -21.12652,17.26698"
     id="path7728"
     style="stroke-width:0.992" />
  <path
     class="Note"
     d="m 404.089,90.985005 c 0,4.262495 3.069,9.021015 11.11348,9.021015 10.30757,0 21.12652,-8.432015 21.12652,-17.15852 0,-5.859 -4.96,-9.129475 -11.11348,-9.129475 -9.62547,0 -21.12652,8.137475 -21.12652,17.26698"
     id="path7730"
     style="stroke-width:0.992" />
  <path
     class="Note"
     d="m 840.292,78.585005 c 0,4.262495 3.069,9.02102 11.11348,9.02102 10.30757,0 21.12652,-8.43202 21.12652,-17.158525 0,-5.859 -4.96,-9.129475 -11.11348,-9.129475 -9.62547,0 -21.12652,8.137475 -21.12652,17.26698"
     id="path7732"
     style="stroke-width:0.992" />
  <path
     class="Note"
     d="m 731.772,90.985005 c 0,4.262495 3.069,9.021015 11.11348,9.021015 10.30757,0 21.12652,-8.432015 21.12652,-17.15852 0,-5.859 -4.96,-9.129475 -11.11348,-9.129475 -9.62547,0 -21.12652,8.137475 -21.12652,17.26698"
     id="path7734"
     style="stroke-width:0.992" />
  <path
     class="Note"
     d="m 2032.702,41.385005 c 0,4.262495 3.069,9.02102 11.1135,9.02102 10.3075,0 21.1265,-8.43202 21.1265,-17.158525 0,-5.859 -4.96,-9.129475 -11.1135,-9.129475 -9.6255,0 -21.1265,8.137475 -21.1265,17.26698"
     id="path7736"
     style="stroke-width:0.992" />
  <path
     class="Note"
     d="m 683.072,90.985005 c 0,4.262495 3.069,9.021015 11.11348,9.021015 10.30757,0 21.12652,-8.432015 21.12652,-17.15852 0,-5.859 -4.96,-9.129475 -11.11348,-9.129475 -9.62547,0 -21.12652,8.137475 -21.12652,17.26698"
     id="path7738"
     style="stroke-width:0.992" />
  <path
     class="Note"
     d="m 2840.502,66.185005 c 0,4.262495 3.069,9.02102 11.1135,9.02102 10.3075,0 21.1265,-8.43202 21.1265,-17.158525 0,-5.859 -4.96,-9.129475 -11.1135,-9.129475 -9.6255,0 -21.1265,8.137475 -21.1265,17.26698"
     id="path7740"
     style="stroke-width:0.992" />
  <path
     class="Note"
     d="m 3010.962,78.585005 c 0,4.262495 3.069,9.02102 11.1135,9.02102 10.3075,0 21.1265,-8.43202 21.1265,-17.158525 0,-5.859 -4.96,-9.129475 -11.1135,-9.129475 -9.6255,0 -21.1265,8.137475 -21.1265,17.26698"
     id="path7742"
     style="stroke-width:0.992" />
  <path
     class="Note"
     d="m 2889.202,66.185005 c 0,4.262495 3.069,9.02102 11.1135,9.02102 10.3075,0 21.1265,-8.43202 21.1265,-17.158525 0,-5.859 -4.96,-9.129475 -11.1135,-9.129475 -9.6255,0 -21.1265,8.137475 -21.1265,17.26698"
     id="path7744"
     style="stroke-width:0.992" />
  <path
     class="Note"
     d="m 1550.222,78.585005 c 0,4.262495 3.069,9.02102 11.1135,9.02102 10.3075,0 21.1265,-8.43202 21.1265,-17.158525 0,-5.859 -4.96,-9.129475 -11.1135,-9.129475 -9.6255,0 -21.1265,8.137475 -21.1265,17.26698"
     id="path7746"
     style="stroke-width:0.992" />
  <path
     class="Note"
     d="m 3119.482,78.585005 c 0,4.262495 3.069,9.02102 11.1135,9.02102 10.3075,0 21.1265,-8.43202 21.1265,-17.158525 0,-5.859 -4.96,-9.129475 -11.1135,-9.129475 -9.6255,0 -21.1265,8.137475 -21.1265,17.26698"
     id="path7748"
     style="stroke-width:0.992" />
  <path
     class="Note"
     d="m 1756.152,90.985005 c 0,4.262495 3.069,9.021015 11.1135,9.021015 10.3075,0 21.1265,-8.432015 21.1265,-17.15852 0,-5.859 -4.96,-9.129475 -11.1135,-9.129475 -9.6255,0 -21.1265,8.137475 -21.1265,17.26698"
     id="path7750"
     style="stroke-width:0.992" />
  <path
     class="Note"
     d="m 3241.242,78.585005 c 0,4.262495 3.069,9.02102 11.1135,9.02102 10.3075,0 21.1265,-8.43202 21.1265,-17.158525 0,-5.859 -4.96,-9.129475 -11.1135,-9.129475 -9.6255,0 -21.1265,8.137475 -21.1265,17.26698"
     id="path7752"
     style="stroke-width:0.992" />
  <path
     class="Note"
     d="m 3289.952,78.585005 c 0,4.262495 3.069,9.02102 11.1135,9.02102 10.3075,0 21.1265,-8.43202 21.1265,-17.158525 0,-5.859 -4.96,-9.129475 -11.1135,-9.129475 -9.6255,0 -21.1265,8.137475 -21.1265,17.26698"
     id="path7754"
     style="stroke-width:0.992" />
  <path
     class="Note"
     d="m 2154.462,28.985005 c 0,4.262495 3.069,9.02102 11.1135,9.02102 10.3075,0 21.1265,-8.43202 21.1265,-17.158525 0,-5.859 -4.96,-9.129475 -11.1135,-9.129475 -9.6255,0 -21.1265,8.137475 -21.1265,17.26698"
     id="path7756"
     style="stroke-width:0.992" />
  <path
     class="Note"
     d="m 1428.472,41.385005 c 0,4.262495 3.069,9.02102 11.1135,9.02102 10.3075,0 21.1265,-8.43202 21.1265,-17.158525 0,-5.859 -4.96,-9.129475 -11.1135,-9.129475 -9.6255,0 -21.1265,8.137475 -21.1265,17.26698"
     id="path7758"
     style="stroke-width:0.992" />
  <path
     class="Note"
     d="m 3398.472,66.185005 c 0,4.262495 3.069,9.02102 11.1135,9.02102 10.3075,0 21.1265,-8.43202 21.1265,-17.158525 0,-5.859 -4.96,-9.129475 -11.1135,-9.129475 -9.6255,0 -21.1265,8.137475 -21.1265,17.26698"
     id="path7760"
     style="stroke-width:0.992" />
  <path
     class="Note"
     d="m 2203.172,53.785005 c 0,4.262495 3.069,9.02102 11.1135,9.02102 10.3075,0 21.1265,-8.43202 21.1265,-17.158525 0,-5.859 -4.96,-9.129475 -11.1135,-9.129475 -9.6255,0 -21.1265,8.137475 -21.1265,17.26698"
     id="path7762"
     style="stroke-width:0.992" />
  <path
     class="Note"
     d="m 3447.172,90.985005 c 0,4.262495 3.069,9.021015 11.1135,9.021015 10.3075,0 21.1265,-8.432015 21.1265,-17.15852 0,-5.859 -4.96,-9.129475 -11.1135,-9.129475 -9.6255,0 -21.1265,8.137475 -21.1265,17.26698"
     id="path7764"
     style="stroke-width:0.992" />
  <path
     class="Note"
     d="m 1319.952,41.385005 c 0,4.262495 3.069,9.02102 11.1135,9.02102 10.3075,0 21.1265,-8.43202 21.1265,-17.158525 0,-5.859 -4.96,-9.129475 -11.1135,-9.129475 -9.6255,0 -21.1265,8.137475 -21.1265,17.26698"
     id="path7766"
     style="stroke-width:0.992" />
  <path
     class="Note"
     d="m 1252.862,103.385 c 0,4.2625 3.069,9.02102 11.1135,9.02102 10.3075,0 21.1265,-8.43202 21.1265,-17.15852 0,-5.859 -4.96,-9.129475 -11.1135,-9.129475 -9.6255,0 -21.1265,8.137475 -21.1265,17.266975"
     id="path7768"
     style="stroke-width:0.992" />
  <path
     class="Note"
     d="m 1707.452,66.185005 c 0,4.262495 3.069,9.02102 11.1135,9.02102 10.3075,0 21.1265,-8.43202 21.1265,-17.158525 0,-5.859 -4.96,-9.129475 -11.1135,-9.129475 -9.6255,0 -21.1265,8.137475 -21.1265,17.26698"
     id="path7770"
     style="stroke-width:0.992" />
  <path
     class="Note"
     d="m 2311.692,53.785005 c 0,4.262495 3.069,9.02102 11.1135,9.02102 10.3075,0 21.1265,-8.43202 21.1265,-17.158525 0,-5.859 -4.96,-9.129475 -11.1135,-9.129475 -9.6255,0 -21.1265,8.137475 -21.1265,17.26698"
     id="path7772"
     style="stroke-width:0.992" />
  <path
     class="Clef"
     d="m 74.353475,113.6925 c 0,7.0525 -2.88295,14.291 -9.92,17.17405 -2.07695,-11.90405 -4.758425,-27.68305 -5.456,-32.0541 8.928,0 15.376,6.06055 15.376,14.88005 M 60.264,132.04455 c -1.984,0.40295 -3.859475,0.60443 -5.750525,0.60443 -14.182425,0 -26.28797,-9.92 -26.28797,-24.90848 0,-12.09005 8.52502,-22.909 17.26702,-30.457525 1.674,-1.488 3.270525,-2.867475 4.758525,-4.355475 0.883475,5.347475 1.58095,10.01295 2.278425,14.089475 C 43.49305,89.69845 37.35505,99.2155 37.35505,108.5465 c 0,6.944 5.456,16.461 13.392,16.461 0.790425,0 1.689475,-0.40295 1.689475,-1.28652 0,-0.89896 -0.992,-1.39496 -2.185475,-2.18548 -3.87505,-2.387 -6.060525,-4.96 -6.060525,-9.827 0,-6.045 4.464,-10.91205 10.32295,-12.291525 L 60.264,132.04455 M 51.537475,30.070025 c 0.89905,-3.968 5.456,-14.384 10.617575,-14.384 1.488,0 3.859475,4.851475 3.859475,11.702425 0,10.32305 -7.626,18.057575 -14.47705,24.8 -0.58895,-3.968 -1.08495,-7.827475 -1.08495,-11.99695 0,-3.673475 0.294525,-7.052525 1.08495,-10.121475 m -20.832,132.431995 c 0,6.55653 5.05305,15.19 18.44505,15.19 4.665475,0 8.742,-1.19347 12.30695,-3.37904 C 66.820525,170.54655 68.2,163.99002 68.2,157.7435 c 0,-3.85948 -0.58895,-8.32348 -1.58095,-13.98095 -0.294525,-1.984 -0.89905,-4.96 -1.488,-8.83505 9.718425,-3.17748 16.95695,-13.29895 16.95695,-23.5135 0,-14.973025 -10.617475,-25.0945 -25.094525,-25.0945 -0.992,-5.952 -1.984,-11.81105 -2.88295,-17.36 10.524525,-11.020525 17.76295,-23.420525 17.76295,-39.184 0,-9.036525 -2.774425,-16.368 -4.37095,-19.948128 C 65.13105,4.774124 62.248,1.302124 60.465475,1.302124 59.768,1.302124 56.69905,2.4955 53.428525,6.355372 47.073475,13.9035 45.29105,26.598025 45.29105,34.9215 c 0,5.36295 0.496,10.23 2.185475,21.343475 -0.108525,0.09305 -5.27,5.347475 -7.34705,7.03705 C 31.09305,71.734025 18.6,83.730975 18.6,103.5865 c 0,18.53805 16.166525,33.12352 34.62705,33.12352 2.867475,0 5.54895,-0.29452 7.827475,-0.69747 1.89095,9.53243 2.976,16.47643 2.976,21.73095 0,10.32305 -5.254525,15.77905 -15.267475,15.77905 -2.38705,0 -4.464,-0.496 -4.665575,-0.496 -0.09295,-0.10853 -0.294425,-0.20157 -0.294425,-0.29453 0,-0.20147 0.201475,-0.31 0.496,-0.40304 4.665475,-0.69748 9.315475,-4.66548 9.315475,-11.00496 0,-5.36304 -4.06105,-11.02052 -11.50105,-11.02052 -6.944,0 -11.408,5.65748 -11.408,12.19852"
     id="path7774"
     style="stroke-width:0.992" />
  <path
     class="KeySig"
     d="m 123.78352,26.7995 c 0.60453,-0.09305 1.10053,-0.790525 1.10053,-1.39505 v -5.843475 c 0,-0.790525 -0.60453,-1.39495 -1.39505,-1.39495 -0.093,0 -0.093,0 -0.20148,0 L 120.017,18.8635 V 4.0764504 h -2.77452 V 19.45245 l -8.83498,1.798 V 7.2540248 H 105.633 V 21.8395 l -3.875,0.790525 c -0.589,0.108425 -1.085,0.790425 -1.085,1.39495 V 24.22645 29.976995 29.7755 c 0,0.790495 0.589,1.395 1.395,1.395 0.093,0 0.186,0 0.2945,0 l 3.2705,-0.697505 v 16.36801 l -3.875,0.790495 c -0.589,0.09305 -1.085,0.790525 -1.085,1.39505 v 5.750425 c 0,0.790525 0.589,1.379575 1.395,1.379575 0.093,0 0.186,0 0.2945,0 l 3.2705,-0.682 v 14.771475 h 2.7745 v -15.376 L 117.24248,53.0875 V 67.084025 H 120.017 V 52.49855 l 3.76652,-0.697575 c 0.60453,-0.108425 1.10053,-0.790425 1.10053,-1.39495 V 44.5625 c 0,-0.806 -0.60453,-1.395 -1.39505,-1.395 -0.093,0 -0.093,0 -0.20148,0 l -3.27052,0.697505 v -16.36801 l 3.76652,-0.697495 m -15.37602,3.069 8.83498,-1.782505 v 16.36801 l -8.83498,1.891 V 29.8685"
     id="path7776"
     style="stroke-width:0.992" />
  <path
     class="KeySig"
     d="m 150.95452,63.9995 c 0.60453,-0.09305 1.10053,-0.790525 1.10053,-1.39505 v -5.843475 c 0,-0.790525 -0.60453,-1.39495 -1.39505,-1.39495 -0.093,0 -0.093,0 -0.20148,0 L 147.188,56.0635 V 41.27645 h -2.77452 v 15.376 l -8.83498,1.798 V 44.454025 H 132.804 V 59.0395 l -3.875,0.790525 c -0.589,0.108425 -1.085,0.790425 -1.085,1.39495 V 61.42645 67.176995 66.9755 c 0,0.790495 0.589,1.395 1.395,1.395 0.093,0 0.186,0 0.2945,0 l 3.2705,-0.697505 v 16.36801 l -3.875,0.790495 c -0.589,0.09305 -1.085,0.790525 -1.085,1.39505 v 5.750425 c 0,0.790525 0.589,1.379575 1.395,1.379575 0.093,0 0.186,0 0.2945,0 l 3.2705,-0.682 v 14.77147 h 2.7745 V 92.070025 l 8.83498,-1.782525 v 13.99652 H 147.188 V 89.69855 l 3.76652,-0.697575 c 0.60453,-0.108425 1.10053,-0.790425 1.10053,-1.39495 V 81.7625 c 0,-0.806 -0.60453,-1.395 -1.39505,-1.395 -0.093,0 -0.093,0 -0.20148,0 l -3.27052,0.697505 v -16.36801 l 3.76652,-0.697495 m -15.37602,3.069 8.83498,-1.782505 v 16.36801 l -8.83498,1.891 V 67.0685"
     id="path7778"
     style="stroke-width:0.992" />
  <path
     class="TimeSig"
     d="m 200.16748,57.752995 c -6.06043,0 -8.23043,1.782505 -9.62548,3.270505 -0.29452,-2.077 -0.496,-3.673505 -0.496,-5.254505 0,-1.596495 0.20148,-2.976 0.496,-4.758545 0.58905,-3.673475 3.06905,-8.246 8.432,-8.246 2.48,0 3.968,0.806 4.96,1.89105 -2.07695,0.89895 -3.76652,3.56495 -3.76652,5.85895 0,3.56505 2.77452,6.339545 6.35504,6.339545 3.56496,0 6.448,-2.774495 6.448,-6.339545 v -0.201475 c 0,0 0,0 0,-0.108525 0,-0.883475 -0.20147,-2.371475 -0.60452,-3.162 -1.28652,-3.580425 -5.456,-8.83495 -15.376,-8.83495 -8.928,0 -15.376,8.52495 -17.36,13.097475 -0.992,2.371525 -2.48,7.238525 -2.48,12.787525 0,6.060505 1.6895,12.89605 7.533,18.057525 5.76605,4.37095 9.42405,4.572525 12.89605,4.572525 3.48747,0 16.47643,-4.076525 16.47643,-15.577545 0,-9.718505 -7.64148,-13.39201 -13.888,-13.39201 m -3.67348,24.79998 c -3.27052,0 -5.952,-4.464 -5.952,-10.028425 0,-5.54905 2.68148,-10.10605 5.952,-10.10605 3.27052,0 6.06052,4.557 6.06052,10.10605 0,5.564425 -2.79,10.028425 -6.06052,10.028425"
     id="path7780"
     style="stroke-width:0.992" />
  <path
     class="TimeSig"
     d="m 207.51405,109.585 c 3.27043,-2.48 5.54895,-5.6575 5.54895,-9.6255 0,-7.145475 -7.82748,-12.98905 -17.45295,-12.98905 -9.62557,0 -17.46855,5.843575 -17.46855,12.98905 0,3.968 0.992,7.533 5.6575,10.509 -4.464,2.5885 -6.944,6.262 -6.944,11.02048 0,8.02904 8.432,14.47704 18.75505,14.47704 10.30747,0 18.73947,-6.448 18.73947,-14.47704 0,-4.75848 -1.674,-9.22248 -6.83547,-11.90398 m -11.904,20.83198 c -6.35505,0 -11.81105,-3.472 -11.81105,-9.03643 0,-6.63405 5.16148,-8.23055 5.16148,-8.23055 6.74252,2.2785 16.368,5.6575 16.368,11.1135 0,2.68148 -3.472,6.15348 -9.71843,6.15348 m 6.33947,-23.51348 c -6.74252,-2.1855 -14.18252,-5.456 -14.18252,-9.92 0,-3.87505 3.56505,-5.456 7.84305,-5.456 6.15347,0 10.30747,2.88295 10.30747,7.44 0,4.7585 -2.17,7.037 -3.968,7.936"
     id="path7782"
     style="stroke-width:0.992" />
  <path
     class="Rest"
     d="m 1027.018,103.27655 c -0.093,-0.0931 -0.2945,-0.29453 -0.589,-0.682 l -11.408,-14.089545 c -0.1085,-0.108505 -0.2015,-0.403 -0.2015,-0.604505 0,-0.2945 0.093,-0.682 0.2015,-0.8835 l 10.106,-15.282975 c 0.1085,-0.201575 0.2015,-0.496 0.2015,-0.697575 v -0.883475 c 0,-0.294525 -0.093,-0.604525 -0.2945,-0.790525 L 1008.9605,47.6315 c 0,0 -0.3875,-0.604525 -0.992,-0.604525 -0.2945,0 -0.496,0.108525 -0.7905,0.31 -0.403,0.294525 -0.496,0.682 -0.496,0.992 0,0.58905 0.2945,1.08505 0.2945,1.08505 l 7.5485,10.32295 c 0.186,0.294525 0.2945,0.682 0.2945,1.178 0,0.40305 -0.1085,0.89905 -0.2945,1.193475 l -10.0285,15.28305 c -0.093,0.201495 -0.2015,0.589 -0.2015,0.790495 v 0.899 c 0,0.294505 0.1085,0.589 0.31,0.790505 l 11.098,13.795 c -0.3875,-0.108495 -1.2865,-0.31 -2.48,-0.31 -1.674,0 -3.8595,0.403 -5.642,1.984 -2.1855,1.98405 -3.379,4.77405 -3.379,7.25405 0,1.37947 0.2945,2.77443 1.085,3.85947 2.0925,3.17748 9.5325,12.60148 9.5325,12.60148 0,0 0.496,0.60452 1.1935,0.60452 0.186,0 0.3875,0 0.589,-0.20147 0.496,-0.40305 0.6975,-0.79053 0.6975,-1.19357 0,-0.40296 -0.2015,-0.69748 -0.2945,-0.89896 -0.31,-0.496 -3.472,-6.24652 -3.472,-6.24652 0,0 -0.6975,-1.39495 -0.6975,-3.17748 0,-1.28652 0.3875,-2.86747 1.6895,-4.16947 1.178,-1.178 2.573,-1.58105 3.8595,-1.58105 1.2865,0 2.387,0.40305 3.1775,0.89905 l 3.875,2.48 c 0,0 0.3875,0.186 0.7905,0.186 0.3875,0 0.6975,-0.0931 0.992,-0.496 0.2015,-0.38757 0.2945,-0.58905 0.2945,-0.88357 0,-0.29443 -0.093,-0.496 -0.2945,-0.79043 l -0.2015,-0.31"
     id="path7784"
     style="stroke-width:0.992" />
  <path
     class="Rest"
     d="m 3191.008,103.27655 c -0.093,-0.0931 -0.2945,-0.29453 -0.589,-0.682 l -11.408,-14.089545 c -0.1085,-0.108505 -0.2015,-0.403 -0.2015,-0.604505 0,-0.2945 0.093,-0.682 0.2015,-0.8835 l 10.106,-15.282975 c 0.1085,-0.201575 0.2015,-0.496 0.2015,-0.697575 v -0.883475 c 0,-0.294525 -0.093,-0.604525 -0.2945,-0.790525 L 3172.9505,47.6315 c 0,0 -0.3875,-0.604525 -0.992,-0.604525 -0.2945,0 -0.496,0.108525 -0.7905,0.31 -0.403,0.294525 -0.496,0.682 -0.496,0.992 0,0.58905 0.2945,1.08505 0.2945,1.08505 l 7.5485,10.32295 c 0.186,0.294525 0.2945,0.682 0.2945,1.178 0,0.40305 -0.1085,0.89905 -0.2945,1.193475 l -10.0285,15.28305 c -0.093,0.201495 -0.2015,0.589 -0.2015,0.790495 v 0.899 c 0,0.294505 0.1085,0.589 0.31,0.790505 l 11.098,13.795 c -0.3875,-0.108495 -1.2865,-0.31 -2.48,-0.31 -1.674,0 -3.8595,0.403 -5.642,1.984 -2.1855,1.98405 -3.379,4.77405 -3.379,7.25405 0,1.37947 0.2945,2.77443 1.085,3.85947 2.0925,3.17748 9.5325,12.60148 9.5325,12.60148 0,0 0.496,0.60452 1.1935,0.60452 0.186,0 0.3875,0 0.589,-0.20147 0.496,-0.40305 0.6975,-0.79053 0.6975,-1.19357 0,-0.40296 -0.2015,-0.69748 -0.2945,-0.89896 -0.31,-0.496 -3.472,-6.24652 -3.472,-6.24652 0,0 -0.6975,-1.39495 -0.6975,-3.17748 0,-1.28652 0.3875,-2.86747 1.6895,-4.16947 1.178,-1.178 2.573,-1.58105 3.8595,-1.58105 1.2865,0 2.387,0.40305 3.1775,0.89905 l 3.875,2.48 c 0,0 0.3875,0.186 0.7905,0.186 0.3875,0 0.6975,-0.0931 0.992,-0.496 0.2015,-0.38757 0.2945,-0.58905 0.2945,-0.88357 0,-0.29443 -0.093,-0.496 -0.2945,-0.79043 l -0.2015,-0.31"
     id="path7786"
     style="stroke-width:0.992" />
  <path
     class="Rest"
     d="m 3562.598,103.27655 c -0.093,-0.0931 -0.2945,-0.29453 -0.589,-0.682 l -11.408,-14.089545 c -0.1085,-0.108505 -0.2015,-0.403 -0.2015,-0.604505 0,-0.2945 0.093,-0.682 0.2015,-0.8835 l 10.106,-15.282975 c 0.1085,-0.201575 0.2015,-0.496 0.2015,-0.697575 v -0.883475 c 0,-0.294525 -0.093,-0.604525 -0.2945,-0.790525 L 3544.5405,47.6315 c 0,0 -0.3875,-0.604525 -0.992,-0.604525 -0.2945,0 -0.496,0.108525 -0.7905,0.31 -0.403,0.294525 -0.496,0.682 -0.496,0.992 0,0.58905 0.2945,1.08505 0.2945,1.08505 l 7.5485,10.32295 c 0.186,0.294525 0.2945,0.682 0.2945,1.178 0,0.40305 -0.1085,0.89905 -0.2945,1.193475 l -10.0285,15.28305 c -0.093,0.201495 -0.2015,0.589 -0.2015,0.790495 v 0.899 c 0,0.294505 0.1085,0.589 0.31,0.790505 l 11.098,13.795 c -0.3875,-0.108495 -1.2865,-0.31 -2.48,-0.31 -1.674,0 -3.8595,0.403 -5.642,1.984 -2.1855,1.98405 -3.379,4.77405 -3.379,7.25405 0,1.37947 0.2945,2.77443 1.085,3.85947 2.0925,3.17748 9.5325,12.60148 9.5325,12.60148 0,0 0.496,0.60452 1.1935,0.60452 0.186,0 0.3875,0 0.589,-0.20147 0.496,-0.40305 0.6975,-0.79053 0.6975,-1.19357 0,-0.40296 -0.2015,-0.69748 -0.2945,-0.89896 -0.31,-0.496 -3.472,-6.24652 -3.472,-6.24652 0,0 -0.6975,-1.39495 -0.6975,-3.17748 0,-1.28652 0.3875,-2.86747 1.6895,-4.16947 1.178,-1.178 2.573,-1.58105 3.8595,-1.58105 1.2865,0 2.387,0.40305 3.1775,0.89905 l 3.875,2.48 c 0,0 0.3875,0.186 0.7905,0.186 0.3875,0 0.6975,-0.0931 0.992,-0.496 0.2015,-0.38757 0.2945,-0.58905 0.2945,-0.88357 0,-0.29443 -0.093,-0.496 -0.2945,-0.79043 l -0.2015,-0.31"
     id="path7788"
     style="stroke-width:0.992" />
  <path
     class="Rest"
     d="m 1499.988,103.27655 c -0.093,-0.0931 -0.2945,-0.29453 -0.589,-0.682 l -11.408,-14.089545 c -0.1085,-0.108505 -0.2015,-0.403 -0.2015,-0.604505 0,-0.2945 0.093,-0.682 0.2015,-0.8835 l 10.106,-15.282975 c 0.1085,-0.201575 0.2015,-0.496 0.2015,-0.697575 v -0.883475 c 0,-0.294525 -0.093,-0.604525 -0.2945,-0.790525 L 1481.9305,47.6315 c 0,0 -0.3875,-0.604525 -0.992,-0.604525 -0.2945,0 -0.496,0.108525 -0.7905,0.31 -0.403,0.294525 -0.496,0.682 -0.496,0.992 0,0.58905 0.2945,1.08505 0.2945,1.08505 l 7.5485,10.32295 c 0.186,0.294525 0.2945,0.682 0.2945,1.178 0,0.40305 -0.1085,0.89905 -0.2945,1.193475 l -10.0285,15.28305 c -0.093,0.201495 -0.2015,0.589 -0.2015,0.790495 v 0.899 c 0,0.294505 0.1085,0.589 0.31,0.790505 l 11.098,13.795 c -0.3875,-0.108495 -1.2865,-0.31 -2.48,-0.31 -1.674,0 -3.8595,0.403 -5.642,1.984 -2.1855,1.98405 -3.379,4.77405 -3.379,7.25405 0,1.37947 0.2945,2.77443 1.085,3.85947 2.0925,3.17748 9.5325,12.60148 9.5325,12.60148 0,0 0.496,0.60452 1.1935,0.60452 0.186,0 0.3875,0 0.589,-0.20147 0.496,-0.40305 0.6975,-0.79053 0.6975,-1.19357 0,-0.40296 -0.2015,-0.69748 -0.2945,-0.89896 -0.31,-0.496 -3.472,-6.24652 -3.472,-6.24652 0,0 -0.6975,-1.39495 -0.6975,-3.17748 0,-1.28652 0.3875,-2.86747 1.6895,-4.16947 1.178,-1.178 2.573,-1.58105 3.8595,-1.58105 1.2865,0 2.387,0.40305 3.1775,0.89905 l 3.875,2.48 c 0,0 0.3875,0.186 0.7905,0.186 0.3875,0 0.6975,-0.0931 0.992,-0.496 0.2015,-0.38757 0.2945,-0.58905 0.2945,-0.88357 0,-0.29443 -0.093,-0.496 -0.2945,-0.79043 l -0.2015,-0.31"
     id="path7790"
     style="stroke-width:0.992" />
  <path
     class="Rest"
     d="m 2754.798,103.27655 c -0.093,-0.0931 -0.2945,-0.29453 -0.589,-0.682 l -11.408,-14.089545 c -0.1085,-0.108505 -0.2015,-0.403 -0.2015,-0.604505 0,-0.2945 0.093,-0.682 0.2015,-0.8835 l 10.106,-15.282975 c 0.1085,-0.201575 0.2015,-0.496 0.2015,-0.697575 v -0.883475 c 0,-0.294525 -0.093,-0.604525 -0.2945,-0.790525 L 2736.7405,47.6315 c 0,0 -0.3875,-0.604525 -0.992,-0.604525 -0.2945,0 -0.496,0.108525 -0.7905,0.31 -0.403,0.294525 -0.496,0.682 -0.496,0.992 0,0.58905 0.2945,1.08505 0.2945,1.08505 l 7.5485,10.32295 c 0.186,0.294525 0.2945,0.682 0.2945,1.178 0,0.40305 -0.1085,0.89905 -0.2945,1.193475 l -10.0285,15.28305 c -0.093,0.201495 -0.2015,0.589 -0.2015,0.790495 v 0.899 c 0,0.294505 0.1085,0.589 0.31,0.790505 l 11.098,13.795 c -0.3875,-0.108495 -1.2865,-0.31 -2.48,-0.31 -1.674,0 -3.8595,0.403 -5.642,1.984 -2.1855,1.98405 -3.379,4.77405 -3.379,7.25405 0,1.37947 0.2945,2.77443 1.085,3.85947 2.0925,3.17748 9.5325,12.60148 9.5325,12.60148 0,0 0.496,0.60452 1.1935,0.60452 0.186,0 0.3875,0 0.589,-0.20147 0.496,-0.40305 0.6975,-0.79053 0.6975,-1.19357 0,-0.40296 -0.2015,-0.69748 -0.2945,-0.89896 -0.31,-0.496 -3.472,-6.24652 -3.472,-6.24652 0,0 -0.6975,-1.39495 -0.6975,-3.17748 0,-1.28652 0.3875,-2.86747 1.6895,-4.16947 1.178,-1.178 2.573,-1.58105 3.8595,-1.58105 1.2865,0 2.387,0.40305 3.1775,0.89905 l 3.875,2.48 c 0,0 0.3875,0.186 0.7905,0.186 0.3875,0 0.6975,-0.0931 0.992,-0.496 0.2015,-0.38757 0.2945,-0.58905 0.2945,-0.88357 0,-0.29443 -0.093,-0.496 -0.2945,-0.79043 l -0.2015,-0.31"
     id="path7792"
     style="stroke-width:0.992" />
  <path
     class="Rest"
     d="m 632.832,103.27655 c -0.0929,-0.0931 -0.29452,-0.29453 -0.58895,-0.682 l -11.408,-14.089545 c -0.10853,-0.108505 -0.20157,-0.403 -0.20157,-0.604505 0,-0.2945 0.093,-0.682 0.20157,-0.8835 l 10.106,-15.282975 c 0.10843,-0.201575 0.20147,-0.496 0.20147,-0.697575 v -0.883475 c 0,-0.294525 -0.093,-0.604525 -0.29452,-0.790525 L 614.7745,47.6315 c 0,0 -0.3875,-0.604525 -0.992,-0.604525 -0.2945,0 -0.496,0.108525 -0.7905,0.31 -0.403,0.294525 -0.496,0.682 -0.496,0.992 0,0.58905 0.2945,1.08505 0.2945,1.08505 l 7.54855,10.32295 c 0.186,0.294525 0.29443,0.682 0.29443,1.178 0,0.40305 -0.10843,0.89905 -0.29443,1.193475 L 610.3105,77.3915 c -0.093,0.201495 -0.2015,0.589 -0.2015,0.790495 v 0.899 c 0,0.294505 0.1085,0.589 0.31,0.790505 l 11.09805,13.795 c -0.38757,-0.108495 -1.28653,-0.31 -2.48005,-0.31 -1.674,0 -3.8595,0.403 -5.642,1.984 -2.1855,1.98405 -3.379,4.77405 -3.379,7.25405 0,1.37947 0.2945,2.77443 1.085,3.85947 2.0925,3.17748 9.53248,12.60148 9.53248,12.60148 0,0 0.496,0.60452 1.19357,0.60452 0.186,0 0.38747,0 0.58895,-0.20147 0.496,-0.40305 0.69748,-0.79053 0.69748,-1.19357 0,-0.40296 -0.20148,-0.69748 -0.29443,-0.89896 -0.31,-0.496 -3.47205,-6.24652 -3.47205,-6.24652 0,0 -0.6975,-1.39495 -0.6975,-3.17748 0,-1.28652 0.3875,-2.86747 1.68955,-4.16947 1.178,-1.178 2.57295,-1.58105 3.85947,-1.58105 1.28653,0 2.38696,0.40305 3.17748,0.89905 l 3.87505,2.48 c 0,0 0.38747,0.186 0.79043,0.186 0.38757,0 0.69757,-0.0931 0.992,-0.496 0.20157,-0.38757 0.29452,-0.58905 0.29452,-0.88357 0,-0.29443 -0.0929,-0.496 -0.29452,-0.79043 l -0.20148,-0.31"
     id="path7794"
     style="stroke-width:0.992" />
  <path
     class="Rest"
     d="m 1871.578,103.27655 c -0.093,-0.0931 -0.2945,-0.29453 -0.589,-0.682 l -11.408,-14.089545 c -0.1085,-0.108505 -0.2015,-0.403 -0.2015,-0.604505 0,-0.2945 0.093,-0.682 0.2015,-0.8835 l 10.106,-15.282975 c 0.1085,-0.201575 0.2015,-0.496 0.2015,-0.697575 v -0.883475 c 0,-0.294525 -0.093,-0.604525 -0.2945,-0.790525 L 1853.5205,47.6315 c 0,0 -0.3875,-0.604525 -0.992,-0.604525 -0.2945,0 -0.496,0.108525 -0.7905,0.31 -0.403,0.294525 -0.496,0.682 -0.496,0.992 0,0.58905 0.2945,1.08505 0.2945,1.08505 l 7.5485,10.32295 c 0.186,0.294525 0.2945,0.682 0.2945,1.178 0,0.40305 -0.1085,0.89905 -0.2945,1.193475 l -10.0285,15.28305 c -0.093,0.201495 -0.2015,0.589 -0.2015,0.790495 v 0.899 c 0,0.294505 0.1085,0.589 0.31,0.790505 l 11.098,13.795 c -0.3875,-0.108495 -1.2865,-0.31 -2.48,-0.31 -1.674,0 -3.8595,0.403 -5.642,1.984 -2.1855,1.98405 -3.379,4.77405 -3.379,7.25405 0,1.37947 0.2945,2.77443 1.085,3.85947 2.0925,3.17748 9.5325,12.60148 9.5325,12.60148 0,0 0.496,0.60452 1.1935,0.60452 0.186,0 0.3875,0 0.589,-0.20147 0.496,-0.40305 0.6975,-0.79053 0.6975,-1.19357 0,-0.40296 -0.2015,-0.69748 -0.2945,-0.89896 -0.31,-0.496 -3.472,-6.24652 -3.472,-6.24652 0,0 -0.6975,-1.39495 -0.6975,-3.17748 0,-1.28652 0.3875,-2.86747 1.6895,-4.16947 1.178,-1.178 2.573,-1.58105 3.8595,-1.58105 1.2865,0 2.387,0.40305 3.1775,0.89905 l 3.875,2.48 c 0,0 0.3875,0.186 0.7905,0.186 0.3875,0 0.6975,-0.0931 0.992,-0.496 0.2015,-0.38757 0.2945,-0.58905 0.2945,-0.88357 0,-0.29443 -0.093,-0.496 -0.2945,-0.79043 l -0.2015,-0.31"
     id="path7796"
     style="stroke-width:0.992" />
  <path
     class="Rest"
     d="m 2383.208,103.27655 c -0.093,-0.0931 -0.2945,-0.29453 -0.589,-0.682 l -11.408,-14.089545 c -0.1085,-0.108505 -0.2015,-0.403 -0.2015,-0.604505 0,-0.2945 0.093,-0.682 0.2015,-0.8835 l 10.106,-15.282975 c 0.1085,-0.201575 0.2015,-0.496 0.2015,-0.697575 v -0.883475 c 0,-0.294525 -0.093,-0.604525 -0.2945,-0.790525 L 2365.1505,47.6315 c 0,0 -0.3875,-0.604525 -0.992,-0.604525 -0.2945,0 -0.496,0.108525 -0.7905,0.31 -0.403,0.294525 -0.496,0.682 -0.496,0.992 0,0.58905 0.2945,1.08505 0.2945,1.08505 l 7.5485,10.32295 c 0.186,0.294525 0.2945,0.682 0.2945,1.178 0,0.40305 -0.1085,0.89905 -0.2945,1.193475 l -10.0285,15.28305 c -0.093,0.201495 -0.2015,0.589 -0.2015,0.790495 v 0.899 c 0,0.294505 0.1085,0.589 0.31,0.790505 l 11.098,13.795 c -0.3875,-0.108495 -1.2865,-0.31 -2.48,-0.31 -1.674,0 -3.8595,0.403 -5.642,1.984 -2.1855,1.98405 -3.379,4.77405 -3.379,7.25405 0,1.37947 0.2945,2.77443 1.085,3.85947 2.0925,3.17748 9.5325,12.60148 9.5325,12.60148 0,0 0.496,0.60452 1.1935,0.60452 0.186,0 0.3875,0 0.589,-0.20147 0.496,-0.40305 0.6975,-0.79053 0.6975,-1.19357 0,-0.40296 -0.2015,-0.69748 -0.2945,-0.89896 -0.31,-0.496 -3.472,-6.24652 -3.472,-6.24652 0,0 -0.6975,-1.39495 -0.6975,-3.17748 0,-1.28652 0.3875,-2.86747 1.6895,-4.16947 1.178,-1.178 2.573,-1.58105 3.8595,-1.58105 1.2865,0 2.387,0.40305 3.1775,0.89905 l 3.875,2.48 c 0,0 0.3875,0.186 0.7905,0.186 0.3875,0 0.6975,-0.0931 0.992,-0.496 0.2015,-0.38757 0.2945,-0.58905 0.2945,-0.88357 0,-0.29443 -0.093,-0.496 -0.2945,-0.79043 l -0.2015,-0.31"
     id="path7798"
     style="stroke-width:0.992" />
  <path
     class="NoteDot"
     d="m 1800.782,74.4155 c 0,2.774505 2.1855,4.96 4.96,4.96 2.7745,0 4.96,-2.185495 4.96,-4.96 0,-2.774505 -2.1855,-4.96 -4.96,-4.96 -2.7745,0 -4.96,2.185495 -4.96,4.96"
     id="path7800"
     style="stroke-width:0.992" />
  <path
     class="NoteDot"
     d="m 2684.002,49.6155 c 0,2.774505 2.1855,4.96 4.96,4.96 2.7745,0 4.96,-2.185495 4.96,-4.96 0,-2.774505 -2.1855,-4.96 -4.96,-4.96 -2.7745,0 -4.96,2.185495 -4.96,4.96"
     id="path7802"
     style="stroke-width:0.992" />
  <path
     class="NoteDot"
     d="m 3491.792,74.4155 c 0,2.774505 2.1855,4.96 4.96,4.96 2.7745,0 4.96,-2.185495 4.96,-4.96 0,-2.774505 -2.1855,-4.96 -4.96,-4.96 -2.7745,0 -4.96,2.185495 -4.96,4.96"
     id="path7804"
     style="stroke-width:0.992" />
  <path
     class="NoteDot"
     d="m 956.222,99.2155 c 0,2.7745 2.1855,4.96 4.96,4.96 2.7745,0 4.96,-2.1855 4.96,-4.96 0,-2.774505 -2.1855,-4.96 -4.96,-4.96 -2.7745,0 -4.96,2.185495 -4.96,4.96"
     id="path7806"
     style="stroke-width:0.992" />
</svg>
