<?xml version="1.0" encoding="UTF-8" standalone="no"?>
<svg
   xmlns:dc="http://purl.org/dc/elements/1.1/"
   xmlns:cc="http://creativecommons.org/ns#"
   xmlns:rdf="http://www.w3.org/1999/02/22-rdf-syntax-ns#"
   xmlns:svg="http://www.w3.org/2000/svg"
   xmlns="http://www.w3.org/2000/svg"
   xmlns:sodipodi="http://sodipodi.sourceforge.net/DTD/sodipodi-0.dtd"
   xmlns:inkscape="http://www.inkscape.org/namespaces/inkscape"
   width="3659.6021"
   height="180.5439"
   viewBox="0 0 3659.6021 180.5439"
   version="1.2"
   id="svg1429"
   sodipodi:docname="Dossium Canto Vrijhaven Musica.svg"
   inkscape:version="1.0.2-2 (e86c870879, 2021-01-15)">
  <metadata
     id="metadata1435">
    <rdf:RDF>
      <cc:Work
         rdf:about="">
        <dc:format>image/svg+xml</dc:format>
        <dc:type
           rdf:resource="http://purl.org/dc/dcmitype/StillImage" />
      </cc:Work>
    </rdf:RDF>
  </metadata>
  <defs
     id="defs1433" />
  <sodipodi:namedview
     pagecolor="#ffffff"
     bordercolor="#666666"
     borderopacity="1"
     objecttolerance="10"
     gridtolerance="10"
     guidetolerance="10"
     inkscape:pageopacity="0"
     inkscape:pageshadow="2"
     inkscape:window-width="1920"
     inkscape:window-height="991"
     id="namedview1431"
     showgrid="false"
     inkscape:zoom="0.25330292"
     inkscape:cx="1767.602"
     inkscape:cy="890.31535"
     inkscape:window-x="-9"
     inkscape:window-y="-9"
     inkscape:window-maximized="1"
     inkscape:current-layer="svg1429" />
  <title
     id="title1135">Dossium Canto Vrijhaven Musica</title>
  <desc
     id="desc1137">Generated by MuseScore Studio 4.4.4</desc>
  <polyline
     class="StaffLines"
     fill="none"
     stroke="#000000"
     stroke-width="2.73"
     stroke-linejoin="bevel"
     points="336.598,634.198 3996.2,634.198"
     id="polyline1139"
     transform="translate(-336.598,-598.28462)" />
  <polyline
     class="StaffLines"
     fill="none"
     stroke="#000000"
     stroke-width="2.73"
     stroke-linejoin="bevel"
     points="336.598,658.998 3996.2,658.998"
     id="polyline1141"
     transform="translate(-336.598,-598.28462)" />
  <polyline
     class="StaffLines"
     fill="none"
     stroke="#000000"
     stroke-width="2.73"
     stroke-linejoin="bevel"
     points="336.598,683.798 3996.2,683.798"
     id="polyline1143"
     transform="translate(-336.598,-598.28462)" />
  <polyline
     class="StaffLines"
     fill="none"
     stroke="#000000"
     stroke-width="2.73"
     stroke-linejoin="bevel"
     points="336.598,708.598 3996.2,708.598"
     id="polyline1145"
     transform="translate(-336.598,-598.28462)" />
  <polyline
     class="StaffLines"
     fill="none"
     stroke="#000000"
     stroke-width="2.73"
     stroke-linejoin="bevel"
     points="336.598,733.398 3996.2,733.398"
     id="polyline1147"
     transform="translate(-336.598,-598.28462)" />
  <path
     class="TieSegment"
     stroke="#000000"
     stroke-width="1.24"
     stroke-linecap="round"
     stroke-linejoin="round"
     fill-rule="evenodd"
     d="m 1922.112,92.217376 c 16.66,-23.976 66.62,-23.976 83.28,0 -16.66,-16.677 -66.62,-16.677 -83.28,0"
     id="path1157" />
  <path
     class="TieSegment"
     stroke="#000000"
     stroke-width="1.24"
     stroke-linecap="round"
     stroke-linejoin="round"
     fill-rule="evenodd"
     d="m 3181.392,128.41038 c 19.99,17.072 79.94,17.072 99.93,0 -19.99,25.008 -79.94,25.008 -99.93,0"
     id="path1159" />
  <polyline
     class="BarLine"
     fill="none"
     stroke="#000000"
     stroke-width="4.46"
     stroke-linejoin="bevel"
     points="3971.15,632.834 3971.15,734.762"
     id="polyline1161"
     transform="translate(-336.598,-598.28462)" />
  <polyline
     class="BarLine"
     fill="none"
     stroke="#000000"
     stroke-width="13.64"
     stroke-linejoin="bevel"
     points="3989.38,632.834 3989.38,734.762"
     id="polyline1163"
     transform="translate(-336.598,-598.28462)" />
  <polyline
     class="BarLine"
     fill="none"
     stroke="#000000"
     stroke-width="4.46"
     stroke-linejoin="bevel"
     points="2694.86,632.834 2694.86,734.762"
     id="polyline1165"
     transform="translate(-336.598,-598.28462)" />
  <polyline
     class="BarLine"
     fill="none"
     stroke="#000000"
     stroke-width="4.46"
     stroke-linejoin="bevel"
     points="3571.94,632.834 3571.94,734.762"
     id="polyline1167"
     transform="translate(-336.598,-598.28462)" />
  <polyline
     class="BarLine"
     fill="none"
     stroke="#000000"
     stroke-width="4.46"
     stroke-linejoin="bevel"
     points="3113.19,632.834 3113.19,734.762"
     id="polyline1169"
     transform="translate(-336.598,-598.28462)" />
  <polyline
     class="BarLine"
     fill="none"
     stroke="#000000"
     stroke-width="4.46"
     stroke-linejoin="bevel"
     points="989.429,632.834 989.429,734.762"
     id="polyline1171"
     transform="translate(-336.598,-598.28462)" />
  <polyline
     class="BarLine"
     fill="none"
     stroke="#000000"
     stroke-width="4.46"
     stroke-linejoin="bevel"
     points="1420.85,632.834 1420.85,734.762"
     id="polyline1173"
     transform="translate(-336.598,-598.28462)" />
  <polyline
     class="BarLine"
     fill="none"
     stroke="#000000"
     stroke-width="4.46"
     stroke-linejoin="bevel"
     points="1840.48,632.834 1840.48,734.762"
     id="polyline1175"
     transform="translate(-336.598,-598.28462)" />
  <polyline
     class="BarLine"
     fill="none"
     stroke="#000000"
     stroke-width="4.46"
     stroke-linejoin="bevel"
     points="2293.18,632.834 2293.18,734.762"
     id="polyline1177"
     transform="translate(-336.598,-598.28462)" />
  <path
     class="Accidental"
     d="m 2818.0525,99.897376 c 0.6045,-0.09305 1.1005,-0.790525 1.1005,-1.39505 v -5.843475 c 0,-0.992 -0.6975,-1.39495 -1.5965,-1.39495 l -3.2705,0.697475 v -14.78705 h -2.7745 v 15.376 l -8.835,1.798 V 80.351901 h -2.7745 v 14.585475 l -3.875,0.790525 c -0.589,0.108425 -1.085,0.790425 -1.085,1.39495 v 5.750529 c 0,1.085 0.7905,1.395 1.6895,1.395 l 3.2705,-0.69751 v 16.36801 l -3.875,0.7905 c -0.589,0.093 -1.085,0.79052 -1.085,1.39505 v 5.75042 c 0,1.08505 0.7905,1.37958 1.6895,1.37958 l 3.2705,-0.682 v 14.77147 h 2.7745 v -15.376 l 8.835,-1.78252 v 13.99652 h 2.7745 v -14.58547 l 3.7665,-0.69758 c 0.6045,-0.10842 1.1005,-0.79042 1.1005,-1.39495 v -5.84352 c 0,-0.992 -0.6975,-1.395 -1.5965,-1.395 l -3.2705,0.6975 v -16.36801 l 3.7665,-0.697494 m -15.376,3.069004 8.835,-1.78251 v 16.36801 l -8.835,1.891 v -16.4765"
     id="path1179"
     style="stroke-width:0.992" />
  <path
     class="Accidental"
     d="m 573.88952,99.897376 c 0.60453,-0.09305 1.10053,-0.790525 1.10053,-1.39505 v -5.843475 c 0,-0.992 -0.69757,-1.39495 -1.59653,-1.39495 l -3.27052,0.697475 v -14.78705 h -2.77452 v 15.376 l -8.83498,1.798 V 80.351901 h -2.7745 v 14.585475 l -3.875,0.790525 c -0.589,0.108425 -1.085,0.790425 -1.085,1.39495 v 5.750529 c 0,1.085 0.7905,1.395 1.6895,1.395 l 3.2705,-0.69751 v 16.36801 l -3.875,0.7905 c -0.589,0.093 -1.085,0.79052 -1.085,1.39505 v 5.75042 c 0,1.08505 0.7905,1.37958 1.6895,1.37958 l 3.2705,-0.682 v 14.77147 h 2.7745 v -15.376 l 8.83498,-1.78252 v 13.99652 h 2.77452 v -14.58547 l 3.76652,-0.69758 c 0.60453,-0.10842 1.10053,-0.79042 1.10053,-1.39495 v -5.84352 c 0,-0.992 -0.69757,-1.395 -1.59653,-1.395 l -3.27052,0.6975 v -16.36801 l 3.76652,-0.697494 m -15.37602,3.069004 8.83498,-1.78251 v 16.36801 l -8.83498,1.891 v -16.4765"
     id="path1181"
     style="stroke-width:0.992" />
  <path
     class="Accidental"
     d="m 2183.733,42.562851 c -0.186,-0.201475 -0.496,-0.294525 -0.8835,-0.294525 l -0.2015,0.09305 c 0,0 -0.093,0 -0.093,0 l -12.5085,3.472 v -17.36 h -2.7745 v 49.104 c 0,1.08505 0.899,1.286525 1.7825,1.286525 l 12.5085,-3.472 v 17.36 h 2.666 c 0,-16.46105 0,-32.131525 0,-49.104 0,-0.387575 -0.186,-0.883575 -0.496,-1.08505 m -13.6865,27.77603 v -16.27501 l 11.5165,-3.270495 v 16.368 l -11.5165,3.177505"
     id="path1183"
     style="stroke-width:0.992" />
  <path
     class="Accidental"
     d="m 815.91305,79.762851 c -0.186,-0.201475 -0.496,-0.294525 -0.88357,-0.294525 l -0.20148,0.09305 c 0,0 -0.0929,0 -0.0929,0 l -12.50855,3.472 v -17.36 h -2.7745 v 49.104004 c 0,1.08505 0.899,1.28652 1.7825,1.28652 l 12.50855,-3.472 v 17.36 h 2.666 c 0,-16.46105 0,-32.131524 0,-49.103999 0,-0.387575 -0.186,-0.883575 -0.496,-1.08505 M 802.2265,107.53888 V 91.263871 l 11.51655,-3.270495 v 16.368004 l -11.51655,3.1775"
     id="path1185"
     style="stroke-width:0.992" />
  <path
     class="Accidental"
     d="m 1681.8925,87.497376 c 0.6045,-0.09305 1.1005,-0.790525 1.1005,-1.39505 v -5.843475 c 0,-0.992 -0.6975,-1.39495 -1.5965,-1.39495 l -3.2705,0.697475 v -14.78705 h -2.7745 v 15.376 l -8.835,1.798 V 67.951901 h -2.7745 v 14.585475 l -3.875,0.790525 c -0.589,0.108425 -1.085,0.790425 -1.085,1.39495 v 5.750525 c 0,1.085 0.7905,1.395 1.6895,1.395 l 3.2705,-0.697505 v 16.368009 l -3.875,0.7905 c -0.589,0.0931 -1.085,0.79052 -1.085,1.39505 v 5.75042 c 0,1.08505 0.7905,1.37958 1.6895,1.37958 l 3.2705,-0.682 v 14.77147 h 2.7745 v -15.376 l 8.835,-1.78252 v 13.99652 h 2.7745 v -14.58547 l 3.7665,-0.69758 c 0.6045,-0.10842 1.1005,-0.79042 1.1005,-1.39495 v -5.84352 c 0,-0.992 -0.6975,-1.395 -1.5965,-1.395 l -3.2705,0.6975 V 88.194871 l 3.7665,-0.697495 m -15.376,3.069 8.835,-1.782505 v 16.368009 l -8.835,1.891 V 90.566376"
     id="path1187"
     style="stroke-width:0.992" />
  <path
     class="Accidental"
     d="m 750.08252,87.497376 c 0.60453,-0.09305 1.10053,-0.790525 1.10053,-1.39505 v -5.843475 c 0,-0.992 -0.69757,-1.39495 -1.59653,-1.39495 l -3.27052,0.697475 v -14.78705 h -2.77452 v 15.376 l -8.83498,1.798 V 67.951901 h -2.7745 v 14.585475 l -3.875,0.790525 c -0.589,0.108425 -1.085,0.790425 -1.085,1.39495 v 5.750525 c 0,1.085 0.7905,1.395 1.6895,1.395 l 3.2705,-0.697505 v 16.368009 l -3.875,0.7905 c -0.589,0.0931 -1.085,0.79052 -1.085,1.39505 v 5.75042 c 0,1.08505 0.7905,1.37958 1.6895,1.37958 l 3.2705,-0.682 v 14.77147 h 2.7745 v -15.376 l 8.83498,-1.78252 v 13.99652 h 2.77452 v -14.58547 l 3.76652,-0.69758 c 0.60453,-0.10842 1.10053,-0.79042 1.10053,-1.39495 v -5.84352 c 0,-0.992 -0.69757,-1.395 -1.59653,-1.395 l -3.27052,0.6975 V 88.194871 l 3.76652,-0.697495 m -15.37602,3.069 8.83498,-1.782505 v 16.368009 l -8.83498,1.891 V 90.566376"
     id="path1189"
     style="stroke-width:0.992" />
  <path
     class="Accidental"
     d="m 2455.5025,137.09738 c 0.6045,-0.093 1.1005,-0.79053 1.1005,-1.39505 v -5.84348 c 0,-0.992 -0.6975,-1.39495 -1.5965,-1.39495 l -3.2705,0.69748 v -14.78705 h -2.7745 v 15.376 l -8.835,1.798 V 117.5519 h -2.7745 v 14.58548 l -3.875,0.79052 c -0.589,0.10843 -1.085,0.79043 -1.085,1.39495 v 5.75053 c 0,1.085 0.7905,1.395 1.6895,1.395 l 3.2705,-0.69751 v 16.36801 l -3.875,0.7905 c -0.589,0.0931 -1.085,0.79052 -1.085,1.39505 v 5.75042 c 0,1.08505 0.7905,1.37958 1.6895,1.37958 l 3.2705,-0.682 v 14.77147 h 2.7745 v -15.376 l 8.835,-1.78252 v 13.99652 h 2.7745 v -14.58547 l 3.7665,-0.69758 c 0.6045,-0.10842 1.1005,-0.79042 1.1005,-1.39495 v -5.84352 c 0,-0.992 -0.6975,-1.395 -1.5965,-1.395 l -3.2705,0.6975 v -16.36801 l 3.7665,-0.69749 m -15.376,3.069 8.835,-1.78251 v 16.36801 l -8.835,1.891 v -16.4765"
     id="path1191"
     style="stroke-width:0.992" />
  <path
     class="Accidental"
     d="m 2119.0825,50.297376 c 0.6045,-0.09305 1.1005,-0.790525 1.1005,-1.39505 v -5.843475 c 0,-0.992 -0.6975,-1.39495 -1.5965,-1.39495 l -3.2705,0.697475 v -14.78705 h -2.7745 v 15.376 l -8.835,1.798 V 30.751901 h -2.7745 v 14.585475 l -3.875,0.790525 c -0.589,0.108425 -1.085,0.790425 -1.085,1.39495 v 5.750525 c 0,1.085 0.7905,1.395 1.6895,1.395 l 3.2705,-0.697505 v 16.36801 l -3.875,0.790495 c -0.589,0.09305 -1.085,0.790525 -1.085,1.39505 v 5.750425 c 0,1.08505 0.7905,1.379575 1.6895,1.379575 l 3.2705,-0.682 v 14.771475 h 2.7745 v -15.376 l 8.835,-1.782525 v 13.996525 h 2.7745 V 75.996426 l 3.7665,-0.697575 c 0.6045,-0.108425 1.1005,-0.790425 1.1005,-1.39495 v -5.843525 c 0,-0.992 -0.6975,-1.395 -1.5965,-1.395 l -3.2705,0.697505 v -16.36801 l 3.7665,-0.697495 m -15.376,3.069 8.835,-1.782505 v 16.36801 l -8.835,1.891 V 53.366376"
     id="path1193"
     style="stroke-width:0.992" />
  <path
     class="Accidental"
     d="m 1246.153,42.562851 c -0.186,-0.201475 -0.496,-0.294525 -0.8835,-0.294525 l -0.2015,0.09305 c 0,0 -0.093,0 -0.093,0 l -12.5085,3.472 v -17.36 h -2.7745 v 49.104 c 0,1.08505 0.899,1.286525 1.7825,1.286525 l 12.5085,-3.472 v 17.36 h 2.666 c 0,-16.46105 0,-32.131525 0,-49.104 0,-0.387575 -0.186,-0.883575 -0.496,-1.08505 m -13.6865,27.77603 v -16.27501 l 11.5165,-3.270495 v 16.368 l -11.5165,3.177505"
     id="path1195"
     style="stroke-width:0.992" />
  <path
     class="Accidental"
     d="m 503.17905,92.162851 c -0.186,-0.201475 -0.496,-0.294525 -0.88357,-0.294525 l -0.20148,0.09305 c 0,0 -0.0929,0 -0.0929,0 l -12.50855,3.472 v -17.36 h -2.7745 v 49.104004 c 0,1.08505 0.899,1.28652 1.7825,1.28652 l 12.50855,-3.472 v 17.36 h 2.666 c 0,-16.46105 0,-32.13152 0,-49.103999 0,-0.387575 -0.186,-0.883575 -0.496,-1.08505 m -13.6866,27.776029 v -16.27501 l 11.51655,-3.27049 v 16.368 l -11.51655,3.1775"
     id="path1197"
     style="stroke-width:0.992" />
  <path
     class="Accidental"
     d="m 437.34152,99.897376 c 0.60453,-0.09305 1.10053,-0.790525 1.10053,-1.39505 v -5.843475 c 0,-0.992 -0.69757,-1.39495 -1.59653,-1.39495 l -3.27052,0.697475 v -14.78705 h -2.77452 v 15.376 l -8.83498,1.798 V 80.351901 h -2.7745 v 14.585475 l -3.875,0.790525 c -0.589,0.108425 -1.085,0.790425 -1.085,1.39495 v 5.750529 c 0,1.085 0.7905,1.395 1.6895,1.395 l 3.2705,-0.69751 v 16.36801 l -3.875,0.7905 c -0.589,0.093 -1.085,0.79052 -1.085,1.39505 v 5.75042 c 0,1.08505 0.7905,1.37958 1.6895,1.37958 l 3.2705,-0.682 v 14.77147 h 2.7745 v -15.376 l 8.83498,-1.78252 v 13.99652 h 2.77452 v -14.58547 l 3.76652,-0.69758 c 0.60453,-0.10842 1.10053,-0.79042 1.10053,-1.39495 v -5.84352 c 0,-0.992 -0.69757,-1.395 -1.59653,-1.395 l -3.27052,0.6975 v -16.36801 l 3.76652,-0.697494 m -15.37602,3.069004 8.83498,-1.78251 v 16.36801 l -8.83498,1.891 v -16.4765"
     id="path1199"
     style="stroke-width:0.992" />
  <path
     class="Accidental"
     d="m 1747.733,79.762851 c -0.186,-0.201475 -0.496,-0.294525 -0.8835,-0.294525 l -0.2015,0.09305 c 0,0 -0.093,0 -0.093,0 l -12.5085,3.472 v -17.36 h -2.7745 v 49.104004 c 0,1.08505 0.899,1.28652 1.7825,1.28652 l 12.5085,-3.472 v 17.36 h 2.666 c 0,-16.46105 0,-32.131524 0,-49.103999 0,-0.387575 -0.186,-0.883575 -0.496,-1.08505 m -13.6865,27.776029 V 91.263871 l 11.5165,-3.270495 v 16.368004 l -11.5165,3.1775"
     id="path1201"
     style="stroke-width:0.992" />
  <path
     class="Accidental"
     d="m 886.62252,99.897376 c 0.60453,-0.09305 1.10053,-0.790525 1.10053,-1.39505 v -5.843475 c 0,-0.992 -0.69757,-1.39495 -1.59653,-1.39495 l -3.27052,0.697475 v -14.78705 h -2.77452 v 15.376 l -8.83498,1.798 V 80.351901 h -2.7745 v 14.585475 l -3.875,0.790525 c -0.589,0.108425 -1.085,0.790425 -1.085,1.39495 v 5.750529 c 0,1.085 0.7905,1.395 1.6895,1.395 l 3.2705,-0.69751 v 16.36801 l -3.875,0.7905 c -0.589,0.093 -1.085,0.79052 -1.085,1.39505 v 5.75042 c 0,1.08505 0.7905,1.37958 1.6895,1.37958 l 3.2705,-0.682 v 14.77147 h 2.7745 v -15.376 l 8.83498,-1.78252 v 13.99652 h 2.77452 v -14.58547 l 3.76652,-0.69758 c 0.60453,-0.10842 1.10053,-0.79042 1.10053,-1.39495 v -5.84352 c 0,-0.992 -0.69757,-1.395 -1.59653,-1.395 l -3.27052,0.6975 v -16.36801 l 3.76652,-0.697494 m -15.37602,3.069004 8.83498,-1.78251 v 16.36801 l -8.83498,1.891 v -16.4765"
     id="path1203"
     style="stroke-width:0.992" />
  <path
     class="Accidental"
     d="m 366.63105,92.162851 c -0.186,-0.201475 -0.496,-0.294525 -0.88357,-0.294525 l -0.20148,0.09305 c 0,0 -0.0929,0 -0.0929,0 l -12.50855,3.472 v -17.36 H 350.17 v 49.104004 c 0,1.08505 0.899,1.28652 1.7825,1.28652 l 12.50855,-3.472 v 17.36 h 2.666 c 0,-16.46105 0,-32.13152 0,-49.103999 0,-0.387575 -0.186,-0.883575 -0.496,-1.08505 M 352.9445,119.93888 v -16.27501 l 11.51655,-3.27049 v 16.368 l -11.51655,3.1775"
     id="path1205"
     style="stroke-width:0.992" />
  <path
     class="Accidental"
     d="m 1878.233,92.162851 c -0.186,-0.201475 -0.496,-0.294525 -0.8835,-0.294525 l -0.2015,0.09305 c 0,0 -0.093,0 -0.093,0 l -12.5085,3.472 v -17.36 h -2.7745 v 49.104004 c 0,1.08505 0.899,1.28652 1.7825,1.28652 l 12.5085,-3.472 v 17.36 h 2.666 c 0,-16.46105 0,-32.13152 0,-49.103999 0,-0.387575 -0.186,-0.883575 -0.496,-1.08505 m -13.6865,27.776029 v -16.27501 l 11.5165,-3.27049 v 16.368 l -11.5165,3.1775"
     id="path1207"
     style="stroke-width:0.992" />
  <path
     class="Accidental"
     d="m 1545.3525,99.897376 c 0.6045,-0.09305 1.1005,-0.790525 1.1005,-1.39505 v -5.843475 c 0,-0.992 -0.6975,-1.39495 -1.5965,-1.39495 l -3.2705,0.697475 v -14.78705 h -2.7745 v 15.376 l -8.835,1.798 V 80.351901 h -2.7745 v 14.585475 l -3.875,0.790525 c -0.589,0.108425 -1.085,0.790425 -1.085,1.39495 v 5.750529 c 0,1.085 0.7905,1.395 1.6895,1.395 l 3.2705,-0.69751 v 16.36801 l -3.875,0.7905 c -0.589,0.093 -1.085,0.79052 -1.085,1.39505 v 5.75042 c 0,1.08505 0.7905,1.37958 1.6895,1.37958 l 3.2705,-0.682 v 14.77147 h 2.7745 v -15.376 l 8.835,-1.78252 v 13.99652 h 2.7745 v -14.58547 l 3.7665,-0.69758 c 0.6045,-0.10842 1.1005,-0.79042 1.1005,-1.39495 v -5.84352 c 0,-0.992 -0.6975,-1.395 -1.5965,-1.395 l -3.2705,0.6975 v -16.36801 l 3.7665,-0.697494 m -15.376,3.069004 8.835,-1.78251 v 16.36801 l -8.835,1.891 v -16.4765"
     id="path1209"
     style="stroke-width:0.992" />
  <path
     class="Accidental"
     d="m 2954.6025,87.497376 c 0.6045,-0.09305 1.1005,-0.790525 1.1005,-1.39505 v -5.843475 c 0,-0.992 -0.6975,-1.39495 -1.5965,-1.39495 l -3.2705,0.697475 v -14.78705 h -2.7745 v 15.376 l -8.835,1.798 V 67.951901 h -2.7745 v 14.585475 l -3.875,0.790525 c -0.589,0.108425 -1.085,0.790425 -1.085,1.39495 v 5.750525 c 0,1.085 0.7905,1.395 1.6895,1.395 l 3.2705,-0.697505 v 16.368009 l -3.875,0.7905 c -0.589,0.0931 -1.085,0.79052 -1.085,1.39505 v 5.75042 c 0,1.08505 0.7905,1.37958 1.6895,1.37958 l 3.2705,-0.682 v 14.77147 h 2.7745 v -15.376 l 8.835,-1.78252 v 13.99652 h 2.7745 v -14.58547 l 3.7665,-0.69758 c 0.6045,-0.10842 1.1005,-0.79042 1.1005,-1.39495 v -5.84352 c 0,-0.992 -0.6975,-1.395 -1.5965,-1.395 l -3.2705,0.6975 V 88.194871 l 3.7665,-0.697495 m -15.376,3.069 8.835,-1.782505 v 16.368009 l -8.835,1.891 V 90.566376"
     id="path1211"
     style="stroke-width:0.992" />
  <path
     class="Accidental"
     d="m 3020.443,79.762851 c -0.186,-0.201475 -0.496,-0.294525 -0.8835,-0.294525 l -0.2015,0.09305 c 0,0 -0.093,0 -0.093,0 l -12.5085,3.472 v -17.36 h -2.7745 v 49.104004 c 0,1.08505 0.899,1.28652 1.7825,1.28652 l 12.5085,-3.472 v 17.36 h 2.666 c 0,-16.46105 0,-32.131524 0,-49.103999 0,-0.387575 -0.186,-0.883575 -0.496,-1.08505 m -13.6865,27.776029 V 91.263871 l 11.5165,-3.270495 v 16.368004 l -11.5165,3.1775"
     id="path1213"
     style="stroke-width:0.992" />
  <path
     class="Accidental"
     d="m 1181.5025,50.297376 c 0.6045,-0.09305 1.1005,-0.790525 1.1005,-1.39505 v -5.843475 c 0,-0.992 -0.6975,-1.39495 -1.5965,-1.39495 l -3.2705,0.697475 v -14.78705 h -2.7745 v 15.376 l -8.835,1.798 V 30.751901 h -2.7745 v 14.585475 l -3.875,0.790525 c -0.589,0.108425 -1.085,0.790425 -1.085,1.39495 v 5.750525 c 0,1.085 0.7905,1.395 1.6895,1.395 l 3.2705,-0.697505 v 16.36801 l -3.875,0.790495 c -0.589,0.09305 -1.085,0.790525 -1.085,1.39505 v 5.750425 c 0,1.08505 0.7905,1.379575 1.6895,1.379575 l 3.2705,-0.682 v 14.771475 h 2.7745 v -15.376 l 8.835,-1.782525 v 13.996525 h 2.7745 V 75.996426 l 3.7665,-0.697575 c 0.6045,-0.108425 1.1005,-0.790425 1.1005,-1.39495 v -5.843525 c 0,-0.992 -0.6975,-1.395 -1.5965,-1.395 l -3.2705,0.697505 v -16.36801 l 3.7665,-0.697495 m -15.376,3.069 8.835,-1.782505 v 16.36801 l -8.835,1.891 V 53.366376"
     id="path1215"
     style="stroke-width:0.992" />
  <path
     class="Accidental"
     d="m 3156.993,92.162851 c -0.186,-0.201475 -0.496,-0.294525 -0.8835,-0.294525 l -0.2015,0.09305 c 0,0 -0.093,0 -0.093,0 l -12.5085,3.472 v -17.36 h -2.7745 v 49.104004 c 0,1.08505 0.899,1.28652 1.7825,1.28652 l 12.5085,-3.472 v 17.36 h 2.666 c 0,-16.46105 0,-32.13152 0,-49.103999 0,-0.387575 -0.186,-0.883575 -0.496,-1.08505 m -13.6865,27.776029 v -16.27501 l 11.5165,-3.27049 v 16.368 l -11.5165,3.1775"
     id="path1217"
     style="stroke-width:0.992" />
  <path
     class="Accidental"
     d="m 2521.343,129.36285 c -0.186,-0.20147 -0.496,-0.29452 -0.8835,-0.29452 l -0.2015,0.0931 c 0,0 -0.093,0 -0.093,0 l -12.5085,3.472 v -17.36 h -2.7745 v 49.104 c 0,1.08505 0.899,1.28652 1.7825,1.28652 l 12.5085,-3.472 v 17.36 h 2.666 c 0,-16.46105 0,-32.13152 0,-49.104 0,-0.38757 -0.186,-0.88357 -0.496,-1.08505 m -13.6865,27.77603 v -16.27501 l 11.5165,-3.27049 v 16.368 l -11.5165,3.1775"
     id="path1219"
     style="stroke-width:0.992" />
  <path
     class="Accidental"
     d="m 977.45305,92.162851 c -0.186,-0.201475 -0.496,-0.294525 -0.88357,-0.294525 l -0.20148,0.09305 c 0,0 -0.093,0 -0.093,0 l -12.50855,3.472 v -17.36 h -2.7745 v 49.104004 c 0,1.08505 0.899,1.28652 1.7825,1.28652 l 12.50855,-3.472 v 17.36 h 2.666 c 0,-16.46105 0,-32.13152 0,-49.103999 0,-0.387575 -0.186,-0.883575 -0.496,-1.08505 m -13.6865,27.776029 v -16.27501 l 11.51655,-3.27049 v 16.368 l -11.51655,3.1775"
     id="path1221"
     style="stroke-width:0.992" />
  <path
     class="Accidental"
     d="m 300.79352,99.897376 c 0.60453,-0.09305 1.10053,-0.790525 1.10053,-1.39505 v -5.843475 c 0,-0.992 -0.69757,-1.39495 -1.59653,-1.39495 l -3.27052,0.697475 v -14.78705 h -2.77452 v 15.376 l -8.83498,1.798 V 80.351901 h -2.7745 v 14.585475 l -3.875,0.790525 c -0.589,0.108425 -1.085,0.790425 -1.085,1.39495 v 5.750529 c 0,1.085 0.7905,1.395 1.6895,1.395 l 3.2705,-0.69751 v 16.36801 l -3.875,0.7905 c -0.589,0.093 -1.085,0.79052 -1.085,1.39505 v 5.75042 c 0,1.08505 0.7905,1.37958 1.6895,1.37958 l 3.2705,-0.682 v 14.77147 h 2.7745 v -15.376 l 8.83498,-1.78252 v 13.99652 h 2.77452 v -14.58547 l 3.76652,-0.69758 c 0.60453,-0.10842 1.10053,-0.79042 1.10053,-1.39495 v -5.84352 c 0,-0.992 -0.69757,-1.395 -1.59653,-1.395 l -3.27052,0.6975 v -16.36801 l 3.76652,-0.697494 m -15.37602,3.069004 8.83498,-1.78251 v 16.36801 l -8.83498,1.891 v -16.4765"
     id="path1223"
     style="stroke-width:0.992" />
  <path
     class="Accidental"
     d="m 3091.1525,99.897376 c 0.6045,-0.09305 1.1005,-0.790525 1.1005,-1.39505 v -5.843475 c 0,-0.992 -0.6975,-1.39495 -1.5965,-1.39495 l -3.2705,0.697475 v -14.78705 h -2.7745 v 15.376 l -8.835,1.798 V 80.351901 h -2.7745 v 14.585475 l -3.875,0.790525 c -0.589,0.108425 -1.085,0.790425 -1.085,1.39495 v 5.750529 c 0,1.085 0.7905,1.395 1.6895,1.395 l 3.2705,-0.69751 v 16.36801 l -3.875,0.7905 c -0.589,0.093 -1.085,0.79052 -1.085,1.39505 v 5.75042 c 0,1.08505 0.7905,1.37958 1.6895,1.37958 l 3.2705,-0.682 v 14.77147 h 2.7745 v -15.376 l 8.835,-1.78252 v 13.99652 h 2.7745 v -14.58547 l 3.7665,-0.69758 c 0.6045,-0.10842 1.1005,-0.79042 1.1005,-1.39495 v -5.84352 c 0,-0.992 -0.6975,-1.395 -1.5965,-1.395 l -3.2705,0.6975 v -16.36801 l 3.7665,-0.697494 m -15.376,3.069004 8.835,-1.78251 v 16.36801 l -8.835,1.891 v -16.4765"
     id="path1225"
     style="stroke-width:0.992" />
  <polyline
     class="Stem"
     fill="none"
     stroke="#000000"
     stroke-width="2.48"
     stroke-linejoin="bevel"
     points="604.361,704.63 604.361,634.198"
     id="polyline1227"
     transform="translate(-336.598,-598.28462)" />
  <polyline
     class="Stem"
     fill="none"
     stroke="#000000"
     stroke-width="2.48"
     stroke-linejoin="bevel"
     points="3058.74,704.63 3058.74,621.997"
     id="polyline1229"
     transform="translate(-336.598,-598.28462)" />
  <polyline
     class="Stem"
     fill="none"
     stroke="#000000"
     stroke-width="2.48"
     stroke-linejoin="bevel"
     points="1455.33,663.165 1455.33,733.398"
     id="polyline1231"
     transform="translate(-336.598,-598.28462)" />
  <polyline
     class="Stem"
     fill="none"
     stroke="#000000"
     stroke-width="2.48"
     stroke-linejoin="bevel"
     points="3466.02,704.63 3466.02,631.233"
     id="polyline1233"
     transform="translate(-336.598,-598.28462)" />
  <polyline
     class="Stem"
     fill="none"
     stroke="#000000"
     stroke-width="2.48"
     stroke-linejoin="bevel"
     points="2464.2,663.165 2464.2,752.164"
     id="polyline1235"
     transform="translate(-336.598,-598.28462)" />
  <polyline
     class="Stem"
     fill="none"
     stroke="#000000"
     stroke-width="2.48"
     stroke-linejoin="bevel"
     points="1526.63,663.165 1526.63,733.398"
     id="polyline1237"
     transform="translate(-336.598,-598.28462)" />
  <polyline
     class="Stem"
     fill="none"
     stroke="#000000"
     stroke-width="2.48"
     stroke-linejoin="bevel"
     points="2392.9,663.165 2392.9,761.703"
     id="polyline1239"
     transform="translate(-336.598,-598.28462)" />
  <polyline
     class="Stem"
     fill="none"
     stroke="#000000"
     stroke-width="2.48"
     stroke-linejoin="bevel"
     points="1351.73,704.63 1351.73,621.798"
     id="polyline1241"
     transform="translate(-336.598,-598.28462)" />
  <polyline
     class="Stem"
     fill="none"
     stroke="#000000"
     stroke-width="2.48"
     stroke-linejoin="bevel"
     points="1593.17,663.165 1593.17,733.398"
     id="polyline1243"
     transform="translate(-336.598,-598.28462)" />
  <polyline
     class="Stem"
     fill="none"
     stroke="#000000"
     stroke-width="2.48"
     stroke-linejoin="bevel"
     points="2327.65,712.765 2327.65,770.433"
     id="polyline1245"
     transform="translate(-336.598,-598.28462)" />
  <polyline
     class="Stem"
     fill="none"
     stroke="#000000"
     stroke-width="2.48"
     stroke-linejoin="bevel"
     points="675.661,704.63 675.661,634.198"
     id="polyline1247"
     transform="translate(-336.598,-598.28462)" />
  <polyline
     class="Stem"
     fill="none"
     stroke="#000000"
     stroke-width="2.48"
     stroke-linejoin="bevel"
     points="1688.16,704.63 1688.16,621.798"
     id="polyline1249"
     transform="translate(-336.598,-598.28462)" />
  <polyline
     class="Stem"
     fill="none"
     stroke="#000000"
     stroke-width="2.48"
     stroke-linejoin="bevel"
     points="2960.87,704.63 2960.87,621.798"
     id="polyline1251"
     transform="translate(-336.598,-598.28462)" />
  <polyline
     class="Stem"
     fill="none"
     stroke="#000000"
     stroke-width="2.48"
     stroke-linejoin="bevel"
     points="2122.01,692.23 2122.01,628.056"
     id="polyline1253"
     transform="translate(-336.598,-598.28462)" />
  <polyline
     class="Stem"
     fill="none"
     stroke="#000000"
     stroke-width="2.48"
     stroke-linejoin="bevel"
     points="1786.03,704.63 1786.03,621.997"
     id="polyline1255"
     transform="translate(-336.598,-598.28462)" />
  <polyline
     class="Stem"
     fill="none"
     stroke="#000000"
     stroke-width="2.48"
     stroke-linejoin="bevel"
     points="740.909,704.63 740.909,634.198"
     id="polyline1257"
     transform="translate(-336.598,-598.28462)" />
  <polyline
     class="Stem"
     fill="none"
     stroke="#000000"
     stroke-width="2.48"
     stroke-linejoin="bevel"
     points="812.209,704.63 812.209,634.198"
     id="polyline1259"
     transform="translate(-336.598,-598.28462)" />
  <polyline
     class="Stem"
     fill="none"
     stroke="#000000"
     stroke-width="2.48"
     stroke-linejoin="bevel"
     points="2895.62,741.83 2895.62,665.198"
     id="polyline1261"
     transform="translate(-336.598,-598.28462)" />
  <polyline
     class="Stem"
     fill="none"
     stroke="#000000"
     stroke-width="2.48"
     stroke-linejoin="bevel"
     points="877.457,704.63 877.457,634.198"
     id="polyline1263"
     transform="translate(-336.598,-598.28462)" />
  <polyline
     class="Stem"
     fill="none"
     stroke="#000000"
     stroke-width="2.48"
     stroke-linejoin="bevel"
     points="948.757,704.63 948.757,634.198"
     id="polyline1265"
     transform="translate(-336.598,-598.28462)" />
  <polyline
     class="Stem"
     fill="none"
     stroke="#000000"
     stroke-width="2.48"
     stroke-linejoin="bevel"
     points="2830.37,741.83 2830.37,665.198"
     id="polyline1267"
     transform="translate(-336.598,-598.28462)" />
  <polyline
     class="Stem"
     fill="none"
     stroke="#000000"
     stroke-width="2.48"
     stroke-linejoin="bevel"
     points="2252.51,704.63 2252.51,634.141"
     id="polyline1269"
     transform="translate(-336.598,-598.28462)" />
  <polyline
     class="Stem"
     fill="none"
     stroke="#000000"
     stroke-width="2.48"
     stroke-linejoin="bevel"
     points="1985.46,692.23 1985.46,631.233"
     id="polyline1271"
     transform="translate(-336.598,-598.28462)" />
  <polyline
     class="Stem"
     fill="none"
     stroke="#000000"
     stroke-width="2.48"
     stroke-linejoin="bevel"
     points="2187.26,704.63 2187.26,631.098"
     id="polyline1273"
     transform="translate(-336.598,-598.28462)" />
  <polyline
     class="Stem"
     fill="none"
     stroke="#000000"
     stroke-width="2.48"
     stroke-linejoin="bevel"
     points="2056.76,692.23 2056.76,628.054"
     id="polyline1275"
     transform="translate(-336.598,-598.28462)" />
  <polyline
     class="Stem"
     fill="none"
     stroke="#000000"
     stroke-width="2.48"
     stroke-linejoin="bevel"
     points="3258.17,692.23 3258.17,631.233"
     id="polyline1277"
     transform="translate(-336.598,-598.28462)" />
  <polyline
     class="Stem"
     fill="none"
     stroke="#000000"
     stroke-width="2.48"
     stroke-linejoin="bevel"
     points="3329.47,692.23 3329.47,628.054"
     id="polyline1279"
     transform="translate(-336.598,-598.28462)" />
  <polyline
     class="Stem"
     fill="none"
     stroke="#000000"
     stroke-width="2.48"
     stroke-linejoin="bevel"
     points="1053.65,692.23 1053.65,627.998"
     id="polyline1281"
     transform="translate(-336.598,-598.28462)" />
  <polyline
     class="Stem"
     fill="none"
     stroke="#000000"
     stroke-width="2.48"
     stroke-linejoin="bevel"
     points="1920.22,704.63 1920.22,634.143"
     id="polyline1283"
     transform="translate(-336.598,-598.28462)" />
  <polyline
     class="Stem"
     fill="none"
     stroke="#000000"
     stroke-width="2.48"
     stroke-linejoin="bevel"
     points="2759.07,741.83 2759.07,665.198"
     id="polyline1285"
     transform="translate(-336.598,-598.28462)" />
  <polyline
     class="Stem"
     fill="none"
     stroke="#000000"
     stroke-width="2.48"
     stroke-linejoin="bevel"
     points="1190.19,692.23 1190.19,627.998"
     id="polyline1287"
     transform="translate(-336.598,-598.28462)" />
  <polyline
     class="Stem"
     fill="none"
     stroke="#000000"
     stroke-width="2.48"
     stroke-linejoin="bevel"
     points="3531.27,704.63 3531.27,634.143"
     id="polyline1289"
     transform="translate(-336.598,-598.28462)" />
  <polyline
     class="Stem"
     fill="none"
     stroke="#000000"
     stroke-width="2.48"
     stroke-linejoin="bevel"
     points="2625.74,704.63 2625.74,621.798"
     id="polyline1291"
     transform="translate(-336.598,-598.28462)" />
  <polyline
     class="Stem"
     fill="none"
     stroke="#000000"
     stroke-width="2.48"
     stroke-linejoin="bevel"
     points="1261.49,704.63 1261.49,621.997"
     id="polyline1293"
     transform="translate(-336.598,-598.28462)" />
  <polyline
     class="Stem"
     fill="none"
     stroke="#000000"
     stroke-width="2.48"
     stroke-linejoin="bevel"
     points="1124.95,692.23 1124.95,627.998"
     id="polyline1295"
     transform="translate(-336.598,-598.28462)" />
  <polyline
     class="Stem"
     fill="none"
     stroke="#000000"
     stroke-width="2.48"
     stroke-linejoin="bevel"
     points="3636.16,704.63 3636.16,621.997"
     id="polyline1297"
     transform="translate(-336.598,-598.28462)" />
  <polyline
     class="Stem"
     fill="none"
     stroke="#000000"
     stroke-width="2.48"
     stroke-linejoin="bevel"
     points="2530.74,663.165 2530.74,745.699"
     id="polyline1299"
     transform="translate(-336.598,-598.28462)" />
  <polyline
     class="Stem"
     fill="none"
     stroke="#000000"
     stroke-width="2.48"
     stroke-linejoin="bevel"
     points="3192.92,704.63 3192.92,634.143"
     id="polyline1301"
     transform="translate(-336.598,-598.28462)" />
  <polyline
     class="Stem"
     fill="none"
     stroke="#000000"
     stroke-width="2.48"
     stroke-linejoin="bevel"
     points="3394.72,692.23 3394.72,628.054"
     id="polyline1303"
     transform="translate(-336.598,-598.28462)" />
  <path
     class="Hook"
     d="m 3298.322,46.034851 c 0,0.294525 0.093,0.883575 0.7905,1.08505 4.2625,1.39495 12.803,6.758 19.251,17.76295 1.7825,3.06905 4.6655,7.34705 4.6655,15.577575 0,7.145475 -1.798,14.47695 -4.464,21.622424 -0.2015,0.60453 -0.31,1.10053 -0.31,1.488 0,0.69758 0.403,0.992 1.1005,0.992 0.589,0 1.085,-0.38747 1.488,-1.08495 4.464,-7.935999 6.1535,-17.173999 6.1535,-26.195049 -0.496,-12.80295 -7.843,-22.22695 -7.843,-22.22695 0.2945,0 -9.1295,-12.198525 -11.811,-16.368 -3.658,-5.657525 -5.3475,-11.299525 -5.549,-11.702525 -0.093,-0.294495 -0.992,-3.875 -0.992,-3.875 -0.093,-0.3875 -0.589,-0.790505 -1.1935,-0.790505 -0.6975,0 -1.2865,0.604505 -1.2865,1.286505 v 22.428475"
     id="path1305"
     style="stroke-width:0.992" />
  <path
     class="Hook"
     d="m 1448.192,46.034851 c 0,0.294525 0.093,0.883575 0.7905,1.08505 4.2625,1.39495 12.803,6.758 19.251,17.76295 1.7825,3.06905 4.6655,7.34705 4.6655,15.577575 0,7.145475 -1.798,14.47695 -4.464,21.622424 -0.2015,0.60453 -0.31,1.10053 -0.31,1.488 0,0.69758 0.403,0.992 1.1005,0.992 0.589,0 1.085,-0.38747 1.488,-1.08495 4.464,-7.935999 6.1535,-17.173999 6.1535,-26.195049 -0.496,-12.80295 -7.843,-22.22695 -7.843,-22.22695 0.2945,0 -9.1295,-12.198525 -11.811,-16.368 -3.658,-5.657525 -5.3475,-11.299525 -5.549,-11.702525 -0.093,-0.294495 -0.992,-3.875 -0.992,-3.875 -0.093,-0.3875 -0.589,-0.790505 -1.1935,-0.790505 -0.6975,0 -1.2865,0.604505 -1.2865,1.286505 v 22.428475"
     id="path1307"
     style="stroke-width:0.992" />
  <path
     class="Hook"
     d="m 2720.902,46.034851 c 0,0.294525 0.093,0.883575 0.7905,1.08505 4.2625,1.39495 12.803,6.758 19.251,17.76295 1.7825,3.06905 4.6655,7.34705 4.6655,15.577575 0,7.145475 -1.798,14.47695 -4.464,21.622424 -0.2015,0.60453 -0.31,1.10053 -0.31,1.488 0,0.69758 0.403,0.992 1.1005,0.992 0.589,0 1.085,-0.38747 1.488,-1.08495 4.464,-7.935999 6.1535,-17.173999 6.1535,-26.195049 -0.496,-12.80295 -7.843,-22.22695 -7.843,-22.22695 0.2945,0 -9.1295,-12.198525 -11.811,-16.368 -3.658,-5.657525 -5.3475,-11.299525 -5.549,-11.702525 -0.093,-0.294495 -0.992,-3.875 -0.992,-3.875 -0.093,-0.3875 -0.589,-0.790505 -1.1935,-0.790505 -0.6975,0 -1.2865,0.604505 -1.2865,1.286505 v 22.428475"
     id="path1309"
     style="stroke-width:0.992" />
  <path
     class="Hook"
     d="m 2192.902,147.42038 c 0,0.682 0.589,1.2865 1.2865,1.2865 0.496,0 1.1005,-0.403 1.1935,-0.7905 0,-0.1085 0.899,-3.58051 0.992,-3.875 0.093,-0.403 0.992,-4.16951 4.557,-10.01305 3.875,-6.448 9.827,-11.11348 14.787,-18.05748 4.96,-6.944 7.843,-13.50052 7.843,-22.226949 0,-9.02105 -1.984,-16.569575 -7.347,-26.19505 -0.2945,-0.697475 -0.899,-1.08495 -1.488,-1.08495 -0.2015,0 -0.403,0 -0.496,0.09295 -0.496,0.201475 -0.6975,0.604525 -0.6975,1.193475 0,0.294525 0.1085,0.697575 0.2945,1.193575 3.968,9.222425 5.5645,14.47695 5.5645,21.622425 0,8.230525 -2.883,12.508524 -4.6655,15.577574 -6.448,11.00495 -16.864,16.368 -21.0335,17.76295 -0.6975,0.20148 -0.7905,0.79053 -0.7905,1.08505 v 22.42848"
     id="path1311"
     style="stroke-width:0.992" />
  <path
     class="Hook"
     d="m 923.652,46.034851 c 0,0.294525 0.093,0.883575 0.7905,1.08505 4.2625,1.39495 12.80298,6.758 19.25098,17.76295 1.78252,3.06905 4.66557,7.34705 4.66557,15.577575 0,7.145475 -1.798,14.47695 -4.464,21.622424 -0.20157,0.60453 -0.31,1.10053 -0.31,1.488 0,0.69758 0.40295,0.992 1.10043,0.992 0.58904,0 1.08504,-0.38747 1.488,-1.08495 4.464,-7.935999 6.15357,-17.173999 6.15357,-26.195049 -0.496,-12.80295 -7.84305,-22.22695 -7.84305,-22.22695 0.29452,0 -9.12948,-12.198525 -11.811,-16.368 -3.658,-5.657525 -5.3475,-11.299525 -5.549,-11.702525 -0.093,-0.294495 -0.992,-3.875 -0.992,-3.875 -0.093,-0.3875 -0.589,-0.790505 -1.1935,-0.790505 -0.6975,0 -1.2865,0.604505 -1.2865,1.286505 v 22.428475"
     id="path1313"
     style="stroke-width:0.992" />
  <path
     class="Note"
     d="m 2126.362,64.882881 c 0,4.262495 3.069,9.02102 11.1135,9.02102 10.3075,0 21.1265,-8.43202 21.1265,-17.158525 0,-5.859 -4.96,-9.129475 -11.1135,-9.129475 -9.6255,0 -21.1265,8.137475 -21.1265,17.26698"
     id="path1315"
     style="stroke-width:0.992" />
  <path
     class="Note"
     d="m 1117.492,64.882881 c 0,4.262495 3.069,9.02102 11.1135,9.02102 10.3075,0 21.1265,-8.43202 21.1265,-17.158525 0,-5.859 -4.96,-9.129475 -11.1135,-9.129475 -9.6255,0 -21.1265,8.137475 -21.1265,17.26698"
     id="path1317"
     style="stroke-width:0.992" />
  <path
     class="Note"
     d="m 1754.432,102.08288 c 0,4.2625 3.069,9.02102 11.1135,9.02102 10.3075,0 21.1265,-8.43202 21.1265,-17.158524 0,-5.859 -4.96,-9.129475 -11.1135,-9.129475 -9.6255,0 -21.1265,8.137475 -21.1265,17.266979"
     id="path1319"
     style="stroke-width:0.992" />
  <path
     class="Note"
     d="m 984.152,114.48288 c 0,4.2625 3.069,9.02102 11.11348,9.02102 10.30752,0 21.12652,-8.43202 21.12652,-17.15852 0,-5.859 -4.96,-9.129479 -11.1135,-9.129479 -9.62545,0 -21.1265,8.137479 -21.1265,17.266979"
     id="path1321"
     style="stroke-width:0.992" />
  <path
     class="Note"
     d="m 2192.902,64.882881 c 0,4.262495 3.069,9.02102 11.1135,9.02102 10.3075,0 21.1265,-8.43202 21.1265,-17.158525 0,-5.859 -4.96,-9.129475 -11.1135,-9.129475 -9.6255,0 -21.1265,8.137475 -21.1265,17.26698"
     id="path1323"
     style="stroke-width:0.992" />
  <path
     class="Note"
     d="m 893.912,114.48288 c 0,4.2625 3.069,9.02102 11.11348,9.02102 10.30757,0 21.12652,-8.43202 21.12652,-17.15852 0,-5.859 -4.96,-9.129479 -11.11348,-9.129479 -9.62547,0 -21.12652,8.137479 -21.12652,17.266979"
     id="path1325"
     style="stroke-width:0.992" />
  <path
     class="Note"
     d="m 822.612,102.08288 c 0,4.2625 3.069,9.02102 11.11348,9.02102 10.30757,0 21.12652,-8.43202 21.12652,-17.158524 0,-5.859 -4.96,-9.129475 -11.11348,-9.129475 -9.62547,0 -21.12652,8.137475 -21.12652,17.266979"
     id="path1327"
     style="stroke-width:0.992" />
  <path
     class="Note"
     d="m 2258.152,114.48288 c 0,4.2625 3.069,9.02102 11.1135,9.02102 10.3075,0 21.1265,-8.43202 21.1265,-17.15852 0,-5.859 -4.96,-9.129479 -11.1135,-9.129479 -9.6255,0 -21.1265,8.137479 -21.1265,17.266979"
     id="path1329"
     style="stroke-width:0.992" />
  <path
     class="Note"
     d="m 757.362,102.08288 c 0,4.2625 3.069,9.02102 11.11348,9.02102 10.30757,0 21.12652,-8.43202 21.12652,-17.158524 0,-5.859 -4.96,-9.129475 -11.11348,-9.129475 -9.62547,0 -21.12652,8.137475 -21.12652,17.266979"
     id="path1331"
     style="stroke-width:0.992" />
  <path
     class="Note"
     d="m 3163.682,114.48288 c 0,4.2625 3.069,9.02102 11.1135,9.02102 10.3075,0 21.1265,-8.43202 21.1265,-17.15852 0,-5.859 -4.96,-9.129479 -11.1135,-9.129479 -9.6255,0 -21.1265,8.137479 -21.1265,17.266979"
     id="path1333"
     style="stroke-width:0.992" />
  <path
     class="Note"
     d="m 686.062,102.08288 c 0,4.2625 3.069,9.02102 11.11348,9.02102 10.30757,0 21.12652,-8.43202 21.12652,-17.158524 0,-5.859 -4.96,-9.129475 -11.11348,-9.129475 -9.62547,0 -21.12652,8.137475 -21.12652,17.266979"
     id="path1335"
     style="stroke-width:0.992" />
  <path
     class="Note"
     d="m 2391.492,151.68288 c 0,4.2625 3.069,9.02102 11.1135,9.02102 10.3075,0 21.1265,-8.43202 21.1265,-17.15852 0,-5.859 -4.96,-9.12948 -11.1135,-9.12948 -9.6255,0 -21.1265,8.13748 -21.1265,17.26698"
     id="path1337"
     style="stroke-width:0.992" />
  <path
     class="Note"
     d="m 1418.452,114.48288 c 0,4.2625 3.069,9.02102 11.1135,9.02102 10.3075,0 21.1265,-8.43202 21.1265,-17.15852 0,-5.859 -4.96,-9.129479 -11.1135,-9.129479 -9.6255,0 -21.1265,8.137479 -21.1265,17.266979"
     id="path1339"
     style="stroke-width:0.992" />
  <path
     class="Note"
     d="m 581.175,114.48288 c 0,4.2625 3.069,9.02102 11.11348,9.02102 10.30757,0 21.12652,-8.43202 21.12652,-17.15852 0,-5.859 -4.96,-9.129479 -11.11348,-9.129479 -9.62547,0 -21.12652,8.137479 -21.12652,17.266979"
     id="path1341"
     style="stroke-width:0.992" />
  <path
     class="Note"
     d="m 2462.792,151.68288 c 0,4.2625 3.069,9.02102 11.1135,9.02102 10.3075,0 21.1265,-8.43202 21.1265,-17.15852 0,-5.859 -4.96,-9.12948 -11.1135,-9.12948 -9.6255,0 -21.1265,8.13748 -21.1265,17.26698"
     id="path1343"
     style="stroke-width:0.992" />
  <path
     class="Note"
     d="m 509.875,114.48288 c 0,4.2625 3.069,9.02102 11.11348,9.02102 10.30757,0 21.12652,-8.43202 21.12652,-17.15852 0,-5.859 -4.96,-9.129479 -11.11348,-9.129479 -9.62547,0 -21.12652,8.137479 -21.12652,17.266979"
     id="path1345"
     style="stroke-width:0.992" />
  <path
     class="Note"
     d="m 1320.582,114.48288 c 0,4.2625 3.069,9.02102 11.1135,9.02102 10.3075,0 21.1265,-8.43202 21.1265,-17.15852 0,-5.859 -4.96,-9.129479 -11.1135,-9.129479 -9.6255,0 -21.1265,8.137479 -21.1265,17.266979"
     id="path1347"
     style="stroke-width:0.992" />
  <path
     class="Note"
     d="m 2528.042,151.68288 c 0,4.2625 3.069,9.02102 11.1135,9.02102 10.3075,0 21.1265,-8.43202 21.1265,-17.15852 0,-5.859 -4.96,-9.12948 -11.1135,-9.12948 -9.6255,0 -21.1265,8.13748 -21.1265,17.26698"
     id="path1349"
     style="stroke-width:0.992" />
  <path
     class="Note"
     d="m 373.327,114.48288 c 0,4.2625 3.069,9.02102 11.11348,9.02102 10.30757,0 21.12652,-8.43202 21.12652,-17.15852 0,-5.859 -4.96,-9.129479 -11.11348,-9.129479 -9.62547,0 -21.12652,8.137479 -21.12652,17.266979"
     id="path1351"
     style="stroke-width:0.992" />
  <path
     class="Note"
     d="m 308.078,114.48288 c 0,4.2625 3.069,9.02102 11.11348,9.02102 10.30757,0 21.12652,-8.43202 21.12652,-17.15852 0,-5.859 -4.96,-9.129479 -11.11348,-9.129479 -9.62547,0 -21.12652,8.137479 -21.12652,17.266979"
     id="path1353"
     style="stroke-width:0.992" />
  <path
     class="Note"
     d="m 2593.282,114.48288 c 0,4.2625 3.069,9.02102 11.1135,9.02102 10.3075,0 21.1265,-8.43202 21.1265,-17.15852 0,-5.859 -4.96,-9.129479 -11.1135,-9.129479 -9.6255,0 -21.1265,8.137479 -21.1265,17.266979"
     id="path1355"
     style="stroke-width:0.992" />
  <path
     class="Note"
     d="m 1255.332,64.882881 c 0,4.262495 3.069,9.02102 11.1135,9.02102 10.3075,0 21.1265,-8.43202 21.1265,-17.158525 0,-5.859 -4.96,-9.129475 -11.1135,-9.129475 -9.6255,0 -21.1265,8.137475 -21.1265,17.26698"
     id="path1357"
     style="stroke-width:0.992" />
  <path
     class="Note"
     d="m 236.778,114.48288 c 0,4.2625 3.069,9.02102 11.11348,9.02102 10.30757,0 21.12652,-8.43202 21.12652,-17.15852 0,-5.859 -4.96,-9.129479 -11.11348,-9.129479 -9.62547,0 -21.12652,8.137479 -21.12652,17.266979"
     id="path1359"
     style="stroke-width:0.992" />
  <path
     class="Note"
     d="m 2691.162,114.48288 c 0,4.2625 3.069,9.02102 11.1135,9.02102 10.3075,0 21.1265,-8.43202 21.1265,-17.15852 0,-5.859 -4.96,-9.129479 -11.1135,-9.129479 -9.6255,0 -21.1265,8.137479 -21.1265,17.266979"
     id="path1361"
     style="stroke-width:0.992" />
  <path
     class="Note"
     d="m 1989.812,114.48288 c 0,4.2625 3.069,9.02102 11.1135,9.02102 10.3075,0 21.1265,-8.43202 21.1265,-17.15852 0,-5.859 -4.96,-9.129479 -11.1135,-9.129479 -9.6255,0 -21.1265,8.137479 -21.1265,17.266979"
     id="path1363"
     style="stroke-width:0.992" />
  <path
     class="Note"
     d="m 3268.572,114.48288 c 0,4.2625 3.069,9.02102 11.1135,9.02102 10.3075,0 21.1265,-8.43202 21.1265,-17.15852 0,-5.859 -4.96,-9.129479 -11.1135,-9.129479 -9.6255,0 -21.1265,8.137479 -21.1265,17.266979"
     id="path1365"
     style="stroke-width:0.992" />
  <path
     class="Note"
     d="m 1188.792,64.882881 c 0,4.262495 3.069,9.02102 11.1135,9.02102 10.3075,0 21.1265,-8.43202 21.1265,-17.158525 0,-5.859 -4.96,-9.129475 -11.1135,-9.129475 -9.6255,0 -21.1265,8.137475 -21.1265,17.26698"
     id="path1367"
     style="stroke-width:0.992" />
  <path
     class="Note"
     d="m 2825.342,114.48288 c 0,4.2625 3.069,9.02102 11.1135,9.02102 10.3075,0 21.1265,-8.43202 21.1265,-17.15852 0,-5.859 -4.96,-9.129479 -11.1135,-9.129479 -9.6255,0 -21.1265,8.137479 -21.1265,17.266979"
     id="path1369"
     style="stroke-width:0.992" />
  <path
     class="Note"
     d="m 2055.062,64.882881 c 0,4.262495 3.069,9.02102 11.1135,9.02102 10.3075,0 21.1265,-8.43202 21.1265,-17.158525 0,-5.859 -4.96,-9.129475 -11.1135,-9.129475 -9.6255,0 -21.1265,8.137475 -21.1265,17.26698"
     id="path1371"
     style="stroke-width:0.992" />
  <path
     class="Note"
     d="m 3027.142,102.08288 c 0,4.2625 3.069,9.02102 11.1135,9.02102 10.3075,0 21.1265,-8.43202 21.1265,-17.158524 0,-5.859 -4.96,-9.129475 -11.1135,-9.129475 -9.6255,0 -21.1265,8.137475 -21.1265,17.266979"
     id="path1373"
     style="stroke-width:0.992" />
  <path
     class="Note"
     d="m 1689.182,102.08288 c 0,4.2625 3.069,9.02102 11.1135,9.02102 10.3075,0 21.1265,-8.43202 21.1265,-17.158524 0,-5.859 -4.96,-9.129475 -11.1135,-9.129475 -9.6255,0 -21.1265,8.137475 -21.1265,17.266979"
     id="path1375"
     style="stroke-width:0.992" />
  <path
     class="Note"
     d="m 2890.592,102.08288 c 0,4.2625 3.069,9.02102 11.1135,9.02102 10.3075,0 21.1265,-8.43202 21.1265,-17.158524 0,-5.859 -4.96,-9.129475 -11.1135,-9.129475 -9.6255,0 -21.1265,8.137475 -21.1265,17.266979"
     id="path1377"
     style="stroke-width:0.992" />
  <path
     class="Note"
     d="m 2961.892,102.08288 c 0,4.2625 3.069,9.02102 11.1135,9.02102 10.3075,0 21.1265,-8.43202 21.1265,-17.158524 0,-5.859 -4.96,-9.129475 -11.1135,-9.129475 -9.6255,0 -21.1265,8.137475 -21.1265,17.266979"
     id="path1379"
     style="stroke-width:0.992" />
  <path
     class="Note"
     d="m 1617.882,102.08288 c 0,4.2625 3.069,9.02102 11.1135,9.02102 10.3075,0 21.1265,-8.43202 21.1265,-17.158524 0,-5.859 -4.96,-9.129475 -11.1135,-9.129475 -9.6255,0 -21.1265,8.137475 -21.1265,17.266979"
     id="path1381"
     style="stroke-width:0.992" />
  <path
     class="Note"
     d="m 1819.682,114.48288 c 0,4.2625 3.069,9.02102 11.1135,9.02102 10.3075,0 21.1265,-8.43202 21.1265,-17.15852 0,-5.859 -4.96,-9.129479 -11.1135,-9.129479 -9.6255,0 -21.1265,8.137479 -21.1265,17.266979"
     id="path1383"
     style="stroke-width:0.992" />
  <path
     class="Note"
     d="m 444.627,114.48288 c 0,4.2625 3.069,9.02102 11.11348,9.02102 10.30757,0 21.12652,-8.43202 21.12652,-17.15852 0,-5.859 -4.96,-9.129479 -11.11348,-9.129479 -9.62547,0 -21.12652,8.137479 -21.12652,17.266979"
     id="path1385"
     style="stroke-width:0.992" />
  <path
     class="Note"
     d="m 3098.442,114.48288 c 0,4.2625 3.069,9.02102 11.1135,9.02102 10.3075,0 21.1265,-8.43202 21.1265,-17.15852 0,-5.859 -4.96,-9.129479 -11.1135,-9.129479 -9.6255,0 -21.1265,8.137479 -21.1265,17.266979"
     id="path1387"
     style="stroke-width:0.992" />
  <path
     class="Note"
     d="m 1884.922,114.48288 c 0,4.2625 3.069,9.02102 11.1135,9.02102 10.3075,0 21.1265,-8.43202 21.1265,-17.15852 0,-5.859 -4.96,-9.129479 -11.1135,-9.129479 -9.6255,0 -21.1265,8.137479 -21.1265,17.266979"
     id="path1389"
     style="stroke-width:0.992" />
  <path
     class="Note"
     d="m 1552.632,114.48288 c 0,4.2625 3.069,9.02102 11.1135,9.02102 10.3075,0 21.1265,-8.43202 21.1265,-17.15852 0,-5.859 -4.96,-9.129479 -11.1135,-9.129479 -9.6255,0 -21.1265,8.137479 -21.1265,17.266979"
     id="path1391"
     style="stroke-width:0.992" />
  <path
     class="Clef"
     d="m 30.798525,161.1999 c 0,6.55653 4.96,15.19 18.352,15.19 4.665475,0 8.742,-1.19347 12.30695,-3.37905 C 66.820525,169.24443 68.2,162.6879 68.2,156.44138 c 0,-3.85948 -0.58895,-8.32348 -1.58095,-13.98095 -0.294525,-1.984 -0.89905,-4.96 -1.488,-8.83505 9.718425,-3.17748 16.95695,-13.29895 16.95695,-23.5135 0,-14.973029 -10.617475,-25.094504 -25.094525,-25.094504 -0.992,-5.952 -1.984,-11.81105 -2.774425,-17.36 10.416,-11.020525 17.654425,-23.420525 17.654425,-39.184 0,-9.036525 -2.774425,-16.368 -4.37095,-19.948128 C 65.13105,3.472 62.248,0 60.465475,0 59.768,0 56.69905,1.193376 53.428525,5.053248 c -6.35505,7.548128 -8.137475,20.242653 -8.137475,28.566128 0,5.36295 0.496,10.23 2.185475,21.343475 -0.108525,0.09305 -5.27,5.347475 -7.34705,7.03705 C 31.09305,70.338851 18.6,82.428851 18.6,102.28438 c 0,18.53805 16.166525,33.12352 34.62705,33.12352 2.867475,0 5.54895,-0.29452 7.827475,-0.69747 1.89095,9.53242 3.084525,16.47642 3.084525,21.73095 0,10.32305 -5.36305,15.77905 -15.376,15.77905 -2.38705,0 -4.464,-0.496 -4.665575,-0.496 -0.09295,-0.10853 -0.294425,-0.20158 -0.294425,-0.29453 0,-0.20147 0.201475,-0.31 0.496,-0.31 4.665475,-0.79052 9.315475,-4.75852 9.315475,-11.098 0,-5.36305 -4.06105,-11.02052 -11.50105,-11.02052 -6.944,0 -11.31495,5.65747 -11.31495,12.19852 M 51.537475,28.767901 c 0.89905,-3.968 5.456,-14.384 10.617575,-14.384 1.488,0 3.859475,4.758425 3.859475,11.702425 0,10.32305 -7.626,18.057575 -14.47705,24.8 -0.58895,-3.968 -1.08495,-7.827475 -1.08495,-11.99695 0,-3.673475 0.294525,-7.052525 1.08495,-10.121475 M 60.264,130.74243 c -1.984,0.40295 -3.859475,0.60442 -5.750525,0.60442 -14.182425,0 -26.28797,-9.92 -26.28797,-24.90847 0,-12.090054 8.52502,-22.909004 17.26702,-30.457529 1.674,-1.488 3.270525,-2.867475 4.758525,-4.355475 0.883475,5.347475 1.58095,10.01295 2.278425,14.089475 -9.036425,2.681475 -15.174425,12.198525 -15.174425,21.529529 0,6.944 5.456,16.461 13.392,16.461 0.790425,0 1.689475,-0.40295 1.689475,-1.28653 0,-0.89895 -0.992,-1.39495 -2.185475,-2.18547 -3.87505,-2.387 -6.060525,-4.96 -6.060525,-9.827 0,-6.045 4.572525,-10.912054 10.32295,-12.291529 L 60.264,130.74243 m 14.089475,-18.35205 c 0,7.0525 -2.88295,14.291 -9.92,17.17405 -2.07695,-11.90405 -4.758425,-27.68305 -5.456,-32.054104 8.928,0 15.376,6.060544 15.376,14.880054"
     id="path1393"
     style="stroke-width:0.992" />
  <path
     class="KeySig"
     d="m 123.78352,25.497376 c 0.60453,-0.09305 1.10053,-0.790525 1.10053,-1.39505 v -5.843475 c 0,-0.992 -0.69757,-1.39495 -1.59653,-1.39495 L 120.017,17.561376 V 2.7743264 h -2.77452 V 18.150326 l -8.83498,1.798 V 5.9519008 H 105.633 V 20.537376 l -3.875,0.790525 c -0.589,0.108425 -1.085,0.790425 -1.085,1.39495 v 5.750525 c 0,1.085 0.7905,1.395 1.6895,1.395 l 3.2705,-0.697505 v 16.36801 l -3.875,0.790495 c -0.589,0.09305 -1.085,0.790525 -1.085,1.39505 v 5.750425 c 0,1.08505 0.7905,1.379575 1.6895,1.379575 l 3.2705,-0.682 v 14.771475 h 2.7745 v -15.376 l 8.83498,-1.782525 V 65.781901 H 120.017 V 51.196426 l 3.76652,-0.697575 c 0.60453,-0.108425 1.10053,-0.790425 1.10053,-1.39495 v -5.843525 c 0,-0.992 -0.69757,-1.395 -1.59653,-1.395 l -3.27052,0.697505 v -16.36801 l 3.76652,-0.697495 m -15.37602,3.069 8.83498,-1.782505 v 16.36801 l -8.83498,1.891 V 28.566376"
     id="path1395"
     style="stroke-width:0.992" />
  <path
     class="TimeSig"
     d="m 172.99548,56.450871 c -6.06043,0 -8.23043,1.782505 -9.62548,3.270505 -0.29452,-2.077 -0.496,-3.673505 -0.496,-5.254505 0,-5.657495 1.984,-13.004545 8.928,-13.004545 2.48,0 3.968,0.806 4.96,1.89105 -2.07695,0.89895 -3.76652,3.56495 -3.76652,5.85895 0,3.56505 2.77452,6.339545 6.35504,6.339545 3.56496,0 6.448,-2.774495 6.448,-6.339545 v -0.31 c 0,-0.883475 -0.20147,-2.371475 -0.60452,-3.162 -1.28652,-3.580425 -5.456,-8.83495 -15.376,-8.83495 -8.928,0 -15.376,8.52495 -17.36,13.097475 -0.992,2.371525 -2.48,7.238525 -2.48,12.787525 0,6.060505 1.6895,12.89605 7.533,18.057525 5.76605,4.37095 9.42405,4.572525 12.89605,4.572525 3.48747,0 16.47643,-4.076525 16.47643,-15.577545 0,-9.718505 -7.64148,-13.39201 -13.888,-13.39201 m -3.67348,24.79998 c -3.27052,0 -5.952,-4.464 -5.952,-10.028425 0,-5.54905 2.68148,-10.10605 5.952,-10.10605 3.27052,0 6.06052,4.557 6.06052,10.10605 0,5.564425 -2.79,10.028425 -6.06052,10.028425"
     id="path1397"
     style="stroke-width:0.992" />
  <path
     class="TimeSig"
     d="m 180.34305,108.28287 c 3.27043,-2.48 5.54895,-5.65749 5.54895,-9.625494 0,-7.145475 -7.82748,-12.98905 -17.45295,-12.98905 -9.62557,0 -17.46855,5.843575 -17.46855,12.98905 0,3.968004 0.992,7.533004 5.6575,10.509004 -4.464,2.5885 -6.944,6.262 -6.944,11.02047 0,8.02905 8.432,14.47705 18.75505,14.47705 10.30747,0 18.73947,-6.448 18.73947,-14.47705 0,-4.75847 -1.674,-9.22247 -6.83547,-11.90398 m -5.56453,-2.68149 c -6.74252,-2.18551 -14.18252,-5.456 -14.18252,-9.920004 0,-3.87505 3.56505,-5.456 7.84305,-5.456 6.15347,0 10.30747,2.88295 10.30747,7.44 0,4.758494 -2.17,7.037004 -3.968,7.936004 m -6.33947,23.51347 c -6.35505,0 -11.81105,-3.472 -11.81105,-9.03642 0,-6.63405 5.16148,-8.23055 5.16148,-8.23055 6.74252,2.2785 16.368,5.6575 16.368,11.1135 0,2.68147 -3.37896,6.15347 -9.71843,6.15347"
     id="path1399"
     style="stroke-width:0.992" />
  <path
     class="Rest"
     d="m 3362.1515,65.378851 c -0.093,0 -0.2945,-0.108525 -0.403,-0.108525 -0.589,0 -1.085,0.31 -1.2865,0.806 -2.2785,4.55705 -7.037,10.710545 -12.4,11.702545 1.085,-1.286495 1.7825,-2.88297 1.7825,-4.758545 0,-3.87495 -3.1775,-7.052425 -7.037,-7.052425 -3.968,0 -7.1455,3.177475 -7.1455,7.052425 0,5.347545 5.2545,7.827545 9.92,7.827545 5.2545,0 8.7265,-2.48 12.1055,-6.153545 l -11.315,35.324524 2.6815,0.79053 13.888,-43.741054 c 0.1085,-0.108425 0.1085,-0.31 0.1085,-0.496 0,-0.496 -0.31,-0.89895 -0.899,-1.193475"
     id="path1401"
     style="stroke-width:0.992" />
  <path
     class="Rest"
     d="m 3427.3915,65.378851 c -0.093,0 -0.2945,-0.108525 -0.403,-0.108525 -0.589,0 -1.085,0.31 -1.2865,0.806 -2.2785,4.55705 -7.037,10.710545 -12.4,11.702545 1.085,-1.286495 1.7825,-2.88297 1.7825,-4.758545 0,-3.87495 -3.1775,-7.052425 -7.037,-7.052425 -3.968,0 -7.1455,3.177475 -7.1455,7.052425 0,5.347545 5.2545,7.827545 9.92,7.827545 5.2545,0 8.7265,-2.48 12.1055,-6.153545 l -11.315,35.324524 2.6815,0.79053 13.888,-43.741054 c 0.1085,-0.108425 0.1085,-0.31 0.1085,-0.496 0,-0.496 -0.31,-0.89895 -0.899,-1.193475"
     id="path1403"
     style="stroke-width:0.992" />
  <path
     class="Rest"
     d="m 3488.968,101.97443 c -0.093,-0.0931 -0.2945,-0.29453 -0.589,-0.682 l -11.408,-14.089549 c -0.1085,-0.108505 -0.2015,-0.403 -0.2015,-0.604505 0,-0.2945 0.093,-0.682 0.2015,-0.8835 l 10.106,-15.282975 c 0.1085,-0.201575 0.2015,-0.496 0.2015,-0.697575 v -0.883475 c 0,-0.294525 -0.093,-0.604525 -0.2945,-0.790525 l -16.0735,-21.73095 c 0,0 -0.3875,-0.604525 -0.992,-0.604525 -0.2945,0 -0.496,0 -0.7905,0.31 -0.403,0.294525 -0.496,0.682 -0.496,0.992 0,0.58905 0.2945,1.08505 0.2945,1.08505 l 7.5485,10.32295 c 0.186,0.294525 0.2945,0.682 0.2945,1.178 0,0.40305 -0.1085,0.89905 -0.2945,1.193475 l -10.0285,15.28305 c -0.093,0.201495 -0.2015,0.589 -0.2015,0.790495 v 0.899 c 0,0.294505 0.1085,0.589 0.31,0.790505 l 11.098,13.795 c -0.3875,-0.108495 -1.2865,-0.31 -2.48,-0.31 -5.053,0 -9.021,4.169525 -9.021,9.238054 0,1.37947 0.2945,2.77442 1.085,3.85947 2.0925,3.17748 9.5325,12.60148 9.5325,12.60148 0,0 0.496,0.60452 1.1935,0.60452 0.186,0 0.3875,0 0.589,-0.20147 0.496,-0.40305 0.6975,-0.79053 0.6975,-1.19358 0,-0.40295 -0.2015,-0.69747 -0.2945,-0.89895 -0.31,-0.496 -3.472,-6.24652 -3.472,-6.24652 0,0 -0.6975,-1.39495 -0.6975,-3.17748 0,-3.17747 2.3715,-5.75052 5.549,-5.75052 1.2865,0 2.387,0.40305 3.1775,0.89905 l 3.875,2.48 c 0,0 0.3875,0.186 0.7905,0.186 0.3875,0 0.6975,-0.0931 0.992,-0.496 0.2015,-0.29453 0.2945,-0.58905 0.2945,-0.88358 0,-0.29442 -0.093,-0.496 -0.2945,-0.79042 l -0.2015,-0.31"
     id="path1405"
     style="stroke-width:0.992" />
  <path
     class="Rest"
     d="m 3590.5215,65.378851 c -0.093,0 -0.2945,-0.108525 -0.403,-0.108525 -0.589,0 -1.085,0.31 -1.2865,0.806 -2.2785,4.55705 -7.037,10.710545 -12.4,11.702545 1.085,-1.286495 1.7825,-2.88297 1.7825,-4.758545 0,-3.87495 -3.1775,-7.052425 -7.037,-7.052425 -3.968,0 -7.1455,3.177475 -7.1455,7.052425 0,5.347545 5.2545,7.827545 9.92,7.827545 5.2545,0 8.7265,-2.48 12.1055,-6.153545 l -11.315,35.324524 2.6815,0.79053 13.888,-43.741054 c 0.1085,-0.108425 0.1085,-0.31 0.1085,-0.496 0,-0.496 -0.31,-0.89895 -0.899,-1.193475"
     id="path1407"
     style="stroke-width:0.992" />
  <path
     class="Beam"
     fill-rule="evenodd"
     d="m 715.812,23.513376 h 139.02 v 12.4 h -139.02 v -12.4"
     id="path1409" />
  <path
     class="Beam"
     fill-rule="evenodd"
     d="m 2421.232,60.713376 h 139.03 v 12.4 h -139.03 v -12.4"
     id="path1411" />
  <path
     class="Beam"
     fill-rule="evenodd"
     d="m 474.371,29.713376 h 139.028 v 12.4 H 474.371 v -12.4"
     id="path1413" />
  <path
     class="Beam"
     fill-rule="evenodd"
     d="m 266.523,29.713376 h 139.028 v 12.4 H 266.523 v -12.4"
     id="path1415" />
  <path
     class="Beam"
     fill-rule="evenodd"
     d="m 1784.172,23.507376 132.98,6.2 v 12.413 l -132.98,-6.2 v -12.413"
     id="path1417" />
  <path
     class="Beam"
     fill-rule="evenodd"
     d="m 1989.812,166.05838 139.03,-18.6 v 12.511 l -139.03,18.6 v -12.511"
     id="path1419" />
  <path
     class="Beam"
     fill-rule="evenodd"
     d="m 2855.082,29.707376 139.03,-6.2 v 12.413 l -139.03,6.2 v -12.413"
     id="path1421" />
  <path
     class="Beam"
     fill-rule="evenodd"
     d="m 1582.382,29.707376 139.02,-6.2 v 12.413 l -139.02,6.2 v -12.413"
     id="path1423" />
  <path
     class="Beam"
     fill-rule="evenodd"
     d="m 3056.882,23.507376 139.03,6.2 v 12.413 l -139.03,-6.2 v -12.413"
     id="path1425" />
  <path
     class="Beam"
     fill-rule="evenodd"
     d="m 1117.492,128.91338 h 140.32 v 12.4 h -140.32 v -12.4"
     id="path1427" />
</svg>
