<?xml version="1.0" encoding="UTF-8" standalone="no"?>
<svg
   xmlns:dc="http://purl.org/dc/elements/1.1/"
   xmlns:cc="http://creativecommons.org/ns#"
   xmlns:rdf="http://www.w3.org/1999/02/22-rdf-syntax-ns#"
   xmlns:svg="http://www.w3.org/2000/svg"
   xmlns="http://www.w3.org/2000/svg"
   xmlns:sodipodi="http://sodipodi.sourceforge.net/DTD/sodipodi-0.dtd"
   xmlns:inkscape="http://www.inkscape.org/namespaces/inkscape"
   width="266.95413mm"
   height="40.415993mm"
   viewBox="0 0 3783.6019 572.8251"
   version="1.2"
   id="svg3564"
   sodipodi:docname="Dossium Canto Tante Musica.svg"
   inkscape:version="1.0.2-2 (e86c870879, 2021-01-15)">
  <metadata
     id="metadata3570">
    <rdf:RDF>
      <cc:Work
         rdf:about="">
        <dc:format>image/svg+xml</dc:format>
        <dc:type
           rdf:resource="http://purl.org/dc/dcmitype/StillImage" />
      </cc:Work>
    </rdf:RDF>
  </metadata>
  <defs
     id="defs3568" />
  <sodipodi:namedview
     pagecolor="#ffffff"
     bordercolor="#666666"
     borderopacity="1"
     objecttolerance="10"
     gridtolerance="10"
     guidetolerance="10"
     inkscape:pageopacity="0"
     inkscape:pageshadow="2"
     inkscape:window-width="1920"
     inkscape:window-height="991"
     id="namedview3566"
     showgrid="false"
     inkscape:zoom="1.0328497"
     inkscape:cx="504.42719"
     inkscape:cy="249.9976"
     inkscape:window-x="-9"
     inkscape:window-y="-9"
     inkscape:window-maximized="1"
     inkscape:current-layer="svg3564" />
  <title
     id="title3196">Dossium Canto Tante Musica</title>
  <desc
     id="desc3198">Generated by MuseScore Studio 4.5.0</desc>
  <polyline
     class="StaffLines"
     fill="none"
     stroke="#000000"
     stroke-width="2.73"
     stroke-linejoin="bevel"
     points="336.599,634.198 3996.2,634.198"
     id="polyline3200"
     transform="translate(-212.598,-551.109)" />
  <polyline
     class="StaffLines"
     fill="none"
     stroke="#000000"
     stroke-width="2.73"
     stroke-linejoin="bevel"
     points="336.599,658.998 3996.2,658.998"
     id="polyline3202"
     transform="translate(-212.598,-551.109)" />
  <polyline
     class="StaffLines"
     fill="none"
     stroke="#000000"
     stroke-width="2.73"
     stroke-linejoin="bevel"
     points="336.599,683.798 3996.2,683.798"
     id="polyline3204"
     transform="translate(-212.598,-551.109)" />
  <polyline
     class="StaffLines"
     fill="none"
     stroke="#000000"
     stroke-width="2.73"
     stroke-linejoin="bevel"
     points="336.599,708.598 3996.2,708.598"
     id="polyline3206"
     transform="translate(-212.598,-551.109)" />
  <polyline
     class="StaffLines"
     fill="none"
     stroke="#000000"
     stroke-width="2.73"
     stroke-linejoin="bevel"
     points="336.599,733.398 3996.2,733.398"
     id="polyline3208"
     transform="translate(-212.598,-551.109)" />
  <polyline
     class="StaffLines"
     fill="none"
     stroke="#000000"
     stroke-width="2.73"
     stroke-linejoin="bevel"
     points="212.598,960.443 3996.2,960.443"
     id="polyline3210"
     transform="translate(-212.598,-551.109)" />
  <polyline
     class="StaffLines"
     fill="none"
     stroke="#000000"
     stroke-width="2.73"
     stroke-linejoin="bevel"
     points="212.598,985.243 3996.2,985.243"
     id="polyline3212"
     transform="translate(-212.598,-551.109)" />
  <polyline
     class="StaffLines"
     fill="none"
     stroke="#000000"
     stroke-width="2.73"
     stroke-linejoin="bevel"
     points="212.598,1010.04 3996.2,1010.04"
     id="polyline3214"
     transform="translate(-212.598,-551.109)" />
  <polyline
     class="StaffLines"
     fill="none"
     stroke="#000000"
     stroke-width="2.73"
     stroke-linejoin="bevel"
     points="212.598,1034.84 3996.2,1034.84"
     id="polyline3216"
     transform="translate(-212.598,-551.109)" />
  <polyline
     class="StaffLines"
     fill="none"
     stroke="#000000"
     stroke-width="2.73"
     stroke-linejoin="bevel"
     points="212.598,1059.64 3996.2,1059.64"
     id="polyline3218"
     transform="translate(-212.598,-551.109)" />
  <path
     class="MeasureNumber"
     d="m 17.36,331.421 h -1.157 c -2.203,1.641 -6.437,3.031 -9.328,3.031 l -0.468,1.766 h 2.75 c 2.437,0 2.718,0.078 2.718,0.797 0,0.359 0,0.359 -0.39,1.797 l -4.282,16 c -0.531,2 -0.562,2.125 -0.921,2.484 -0.407,0.391 -1.25,0.516 -3.36,0.563 H 1.203 L 1,359.734 h 14.797 l 0.235,-1.875 h -2.157 c -2.593,0 -3.156,-0.203 -3.156,-1.078 0,-0.282 0.156,-1.204 0.359,-1.969 l 6.282,-23.391 m 21.031,20.031 -1.031,1.844 c -1.61,2.766 -1.922,3 -3.969,3.031 h -9.266 c 0.953,-1.265 2.719,-2.75 5.907,-5 5.281,-3.625 5.64,-3.875 6.765,-4.75 3.203,-2.484 4.516,-4.843 4.516,-8 0,-4.203 -3.11,-7 -7.719,-7 -5.109,0 -9.547,3.766 -9.547,8.125 0,2.235 1.188,3.672 3.11,3.672 1.437,0 2.562,-1.078 2.562,-2.562 0,-1.031 -0.516,-1.719 -1.844,-2.438 -0.953,-0.484 -1.109,-0.672 -1.109,-1.156 0,-1.719 2.953,-3.641 5.672,-3.641 2.797,0 4.687,1.875 4.687,4.688 0,2.984 -1.328,5.187 -4.922,8.312 -10.64,9.235 -12.25,10.922 -12.609,13.157 H 36.75 l 3.094,-7.719 -1.453,-0.563"
     id="path3228" />
  <polyline
     class="BarLine"
     fill="none"
     stroke="#000000"
     stroke-width="4.46"
     stroke-linejoin="bevel"
     points="3993.97,632.834 3993.97,734.762"
     id="polyline3230"
     transform="translate(-212.598,-551.109)" />
  <polyline
     class="BarLine"
     fill="none"
     stroke="#000000"
     stroke-width="4.46"
     stroke-linejoin="bevel"
     points="1455.95,632.834 1455.95,734.762"
     id="polyline3232"
     transform="translate(-212.598,-551.109)" />
  <polyline
     class="BarLine"
     fill="none"
     stroke="#000000"
     stroke-width="4.46"
     stroke-linejoin="bevel"
     points="728.479,632.834 728.479,734.762"
     id="polyline3234"
     transform="translate(-212.598,-551.109)" />
  <path
     class="BarLine"
     d="m 3363.2451,446.534 c 0,-2.883 -2.2941,-5.25451 -5.1616,-5.25451 -2.883,0 -5.1615,2.37151 -5.1615,5.25451 0,2.883 2.2785,5.25451 5.1615,5.25451 2.8675,0 5.1616,-2.37151 5.1616,-5.25451"
     id="path3236"
     style="stroke-width:0.992001" />
  <path
     class="BarLine"
     d="m 3363.2451,471.331 c 0,-2.883 -2.2941,-5.25451 -5.1616,-5.25451 -2.883,0 -5.1615,2.37151 -5.1615,5.25451 0,2.883 2.2785,5.25451 5.1615,5.25451 2.8675,0 5.1616,-2.37151 5.1616,-5.25451"
     id="path3238"
     style="stroke-width:0.992001" />
  <polyline
     class="BarLine"
     fill="none"
     stroke="#000000"
     stroke-width="4.46"
     stroke-linejoin="bevel"
     points="3587.23,959.079 3587.23,1061.01"
     id="polyline3240"
     transform="translate(-212.598,-551.109)" />
  <polyline
     class="BarLine"
     fill="none"
     stroke="#000000"
     stroke-width="13.64"
     stroke-linejoin="bevel"
     points="3605.46,959.079 3605.46,1061.01"
     id="polyline3242"
     transform="translate(-212.598,-551.109)" />
  <polyline
     class="BarLine"
     fill="none"
     stroke="#000000"
     stroke-width="4.46"
     stroke-linejoin="bevel"
     points="1971.11,959.079 1971.11,1061.01"
     id="polyline3244"
     transform="translate(-212.598,-551.109)" />
  <polyline
     class="BarLine"
     fill="none"
     stroke="#000000"
     stroke-width="4.46"
     stroke-linejoin="bevel"
     points="1794.2,632.834 1794.2,734.762"
     id="polyline3246"
     transform="translate(-212.598,-551.109)" />
  <path
     class="BarLine"
     d="m 2892.6551,120.289 c 0,-2.883 -2.2941,-5.25451 -5.1616,-5.25451 -2.883,0 -5.1615,2.37151 -5.1615,5.25451 0,2.883 2.2785,5.25451 5.1615,5.25451 2.8675,0 5.1616,-2.37151 5.1616,-5.25451"
     id="path3248"
     style="stroke-width:0.992001" />
  <path
     class="BarLine"
     d="m 2892.6551,145.089 c 0,-2.883 -2.2941,-5.25451 -5.1616,-5.25451 -2.883,0 -5.1615,2.37151 -5.1615,5.25451 0,2.883 2.2785,5.25451 5.1615,5.25451 2.8675,0 5.1616,-2.37151 5.1616,-5.25451"
     id="path3250"
     style="stroke-width:0.992001" />
  <polyline
     class="BarLine"
     fill="none"
     stroke="#000000"
     stroke-width="4.46"
     stroke-linejoin="bevel"
     points="3116.65,632.834 3116.65,734.762"
     id="polyline3252"
     transform="translate(-212.598,-551.109)" />
  <polyline
     class="BarLine"
     fill="none"
     stroke="#000000"
     stroke-width="13.64"
     stroke-linejoin="bevel"
     points="3134.87,632.834 3134.87,734.762"
     id="polyline3254"
     transform="translate(-212.598,-551.109)" />
  <polyline
     class="BarLine"
     fill="none"
     stroke="#000000"
     stroke-width="4.46"
     stroke-linejoin="bevel"
     points="3655.72,632.834 3655.72,734.762"
     id="polyline3256"
     transform="translate(-212.598,-551.109)" />
  <polyline
     class="BarLine"
     fill="none"
     stroke="#000000"
     stroke-width="4.46"
     stroke-linejoin="bevel"
     points="844.12,959.079 844.12,1061.01"
     id="polyline3258"
     transform="translate(-212.598,-551.109)" />
  <polyline
     class="BarLine"
     fill="none"
     stroke="#000000"
     stroke-width="4.46"
     stroke-linejoin="bevel"
     points="1118.46,632.834 1118.46,734.762"
     id="polyline3260"
     transform="translate(-212.598,-551.109)" />
  <polyline
     class="BarLine"
     fill="none"
     stroke="#000000"
     stroke-width="4.46"
     stroke-linejoin="bevel"
     points="2493.91,632.834 2493.91,734.762"
     id="polyline3262"
     transform="translate(-212.598,-551.109)" />
  <polyline
     class="BarLine"
     fill="none"
     stroke="#000000"
     stroke-width="4.46"
     stroke-linejoin="bevel"
     points="3971.15,959.079 3971.15,1061.01"
     id="polyline3264"
     transform="translate(-212.598,-551.109)" />
  <polyline
     class="BarLine"
     fill="none"
     stroke="#000000"
     stroke-width="13.64"
     stroke-linejoin="bevel"
     points="3989.38,959.079 3989.38,1061.01"
     id="polyline3266"
     transform="translate(-212.598,-551.109)" />
  <polyline
     class="BarLine"
     fill="none"
     stroke="#000000"
     stroke-width="4.46"
     stroke-linejoin="bevel"
     points="2577.42,959.079 2577.42,1061.01"
     id="polyline3268"
     transform="translate(-212.598,-551.109)" />
  <polyline
     class="BarLine"
     fill="none"
     stroke="#000000"
     stroke-width="4.46"
     stroke-linejoin="bevel"
     points="1450.43,959.079 1450.43,1061.01"
     id="polyline3270"
     transform="translate(-212.598,-551.109)" />
  <polyline
     class="BarLine"
     fill="none"
     stroke="#000000"
     stroke-width="4.46"
     stroke-linejoin="bevel"
     points="2831.4,632.834 2831.4,734.762"
     id="polyline3272"
     transform="translate(-212.598,-551.109)" />
  <polyline
     class="BarLine"
     fill="none"
     stroke="#000000"
     stroke-width="4.46"
     stroke-linejoin="bevel"
     points="2103.93,632.834 2103.93,734.762"
     id="polyline3274"
     transform="translate(-212.598,-551.109)" />
  <polyline
     class="BarLine"
     fill="none"
     stroke="#000000"
     stroke-width="4.46"
     stroke-linejoin="bevel"
     points="3098.1,959.079 3098.1,1061.01"
     id="polyline3276"
     transform="translate(-212.598,-551.109)" />
  <polyline
     class="BarLine"
     fill="none"
     stroke="#000000"
     stroke-width="13.64"
     stroke-linejoin="bevel"
     points="3409.81,632.834 3409.81,734.762"
     id="polyline3278"
     transform="translate(-212.598,-551.109)" />
  <polyline
     class="BarLine"
     fill="none"
     stroke="#000000"
     stroke-width="4.46"
     stroke-linejoin="bevel"
     points="3428.04,632.834 3428.04,734.762"
     id="polyline3280"
     transform="translate(-212.598,-551.109)" />
  <path
     class="BarLine"
     d="m 3237.1751,120.289 c 0,-2.883 -2.2941,-5.25451 -5.1616,-5.25451 -2.883,0 -5.1615,2.37151 -5.1615,5.25451 0,2.883 2.2785,5.25451 5.1615,5.25451 2.8675,0 5.1616,-2.37151 5.1616,-5.25451"
     id="path3282"
     style="stroke-width:0.992001" />
  <path
     class="BarLine"
     d="m 3237.1751,145.089 c 0,-2.883 -2.2941,-5.25451 -5.1616,-5.25451 -2.883,0 -5.1615,2.37151 -5.1615,5.25451 0,2.883 2.2785,5.25451 5.1615,5.25451 2.8675,0 5.1616,-2.37151 5.1616,-5.25451"
     id="path3284"
     style="stroke-width:0.992001" />
  <path
     class="Accidental"
     d="m 333.63855,134.67299 c 0.60452,-0.0931 1.10052,-0.79053 1.10052,-1.39505 v -5.84348 c 0,-0.79053 -0.60452,-1.39495 -1.39505,-1.39495 -0.0929,0 -0.0929,0 -0.20147,0 l -3.27053,0.69747 v -14.78706 h -2.77453 v 15.37601 l -8.83498,1.798 v -13.99644 h -2.7745 v 14.58549 l -3.87501,0.79053 c -0.589,0.10843 -1.085,0.79043 -1.085,1.39495 v 0.20148 5.75055 -0.2015 c 0,0.7905 0.589,1.395 1.395,1.395 0.093,0 0.186,0 0.29451,0 l 3.2705,-0.6975 v 16.36802 l -3.87501,0.7905 c -0.589,0.0931 -1.085,0.79053 -1.085,1.39505 v 5.75043 c 0,0.79053 0.589,1.37958 1.395,1.37958 0.093,0 0.186,0 0.29451,0 l 3.2705,-0.682 v 14.77149 h 2.7745 v -15.37602 l 8.83498,-1.78252 v 13.99653 h 2.77453 v -14.58548 l 3.76653,-0.69758 c 0.60452,-0.10843 1.10052,-0.79043 1.10052,-1.39495 v -5.84353 c 0,-0.806 -0.60452,-1.395 -1.39505,-1.395 -0.0929,0 -0.0929,0 -0.20147,0 l -3.27053,0.6975 v -16.36802 l 3.76653,-0.6975 m -15.37604,3.069 8.83498,-1.7825 v 16.36802 l -8.83498,1.891 v -16.47652"
     id="path3286"
     style="stroke-width:0.992001" />
  <path
     class="Accidental"
     d="m 2181.5431,126.93846 c -0.186,-0.20148 -0.496,-0.29453 -0.7906,-0.29453 -0.093,0 -0.2945,0.0931 -0.3874,0.0931 l -12.5086,3.47201 v -17.36002 h -2.7745 v 49.10405 c 0,0.79052 0.589,1.28652 1.395,1.28652 0.093,0 0.2945,0 0.3875,0 l 12.5086,-3.472 v 17.36002 h 2.666 c 0,-16.46107 0,-32.13156 0,-49.10405 0,-0.38758 -0.186,-0.88358 -0.496,-1.08505 m -13.6866,27.77605 v -16.27502 l 11.5166,-3.2705 v 16.36802 l -11.5166,3.1775"
     id="path3288"
     style="stroke-width:0.992001" />
  <path
     class="Accidental"
     d="m 557.34355,134.67299 c 0.60452,-0.0931 1.10052,-0.79053 1.10052,-1.39505 v -5.84348 c 0,-0.79053 -0.60452,-1.39495 -1.39505,-1.39495 -0.093,0 -0.093,0 -0.20147,0 l -3.27053,0.69747 v -14.78706 h -2.77453 v 15.37601 l -8.83498,1.798 v -13.99644 h -2.7745 v 14.58549 l -3.87501,0.79053 c -0.589,0.10843 -1.085,0.79043 -1.085,1.39495 v 0.20148 5.75055 -0.2015 c 0,0.7905 0.589,1.395 1.395,1.395 0.093,0 0.186,0 0.29451,0 l 3.2705,-0.6975 v 16.36802 l -3.87501,0.7905 c -0.589,0.0931 -1.085,0.79053 -1.085,1.39505 v 5.75043 c 0,0.79053 0.589,1.37958 1.395,1.37958 0.093,0 0.186,0 0.29451,0 l 3.2705,-0.682 v 14.77149 h 2.7745 v -15.37602 l 8.83498,-1.78252 v 13.99653 h 2.77453 v -14.58548 l 3.76653,-0.69758 c 0.60452,-0.10843 1.10052,-0.79043 1.10052,-1.39495 v -5.84353 c 0,-0.806 -0.60452,-1.395 -1.39505,-1.395 -0.093,0 -0.093,0 -0.20147,0 l -3.27053,0.6975 v -16.36802 l 3.76653,-0.6975 m -15.37604,3.069 8.83498,-1.7825 v 16.36802 l -8.83498,1.891 v -16.47652"
     id="path3290"
     style="stroke-width:0.992001" />
  <path
     class="Accidental"
     d="m 1932.7925,134.67299 c 0.6046,-0.0931 1.1006,-0.79053 1.1006,-1.39505 v -5.84348 c 0,-0.79053 -0.6046,-1.39495 -1.3951,-1.39495 -0.093,0 -0.093,0 -0.2015,0 l -3.2705,0.69747 v -14.78706 h -2.7745 v 15.37601 l -8.835,1.798 v -13.99644 h -2.7745 v 14.58549 l -3.875,0.79053 c -0.589,0.10843 -1.085,0.79043 -1.085,1.39495 v 0.20148 5.75055 -0.2015 c 0,0.7905 0.589,1.395 1.395,1.395 0.093,0 0.186,0 0.2945,0 l 3.2705,-0.6975 v 16.36802 l -3.875,0.7905 c -0.589,0.0931 -1.085,0.79053 -1.085,1.39505 v 5.75043 c 0,0.79053 0.589,1.37958 1.395,1.37958 0.093,0 0.186,0 0.2945,0 l 3.2705,-0.682 v 14.77149 h 2.7745 v -15.37602 l 8.835,-1.78252 v 13.99653 h 2.7745 v -14.58548 l 3.7665,-0.69758 c 0.6046,-0.10843 1.1006,-0.79043 1.1006,-1.39495 v -5.84353 c 0,-0.806 -0.6046,-1.395 -1.3951,-1.395 -0.093,0 -0.093,0 -0.2015,0 l -3.2705,0.6975 v -16.36802 l 3.7665,-0.6975 m -15.376,3.069 8.835,-1.7825 v 16.36802 l -8.835,1.891 v -16.47652"
     id="path3292"
     style="stroke-width:0.992001" />
  <path
     class="Accidental"
     d="m 1677.2625,134.67299 c 0.6046,-0.0931 1.1006,-0.79053 1.1006,-1.39505 v -5.84348 c 0,-0.79053 -0.6046,-1.39495 -1.3951,-1.39495 -0.093,0 -0.093,0 -0.2015,0 l -3.2705,0.69747 v -14.78706 h -2.7745 v 15.37601 l -8.835,1.798 v -13.99644 h -2.7745 v 14.58549 l -3.875,0.79053 c -0.589,0.10843 -1.085,0.79043 -1.085,1.39495 v 0.20148 5.75055 -0.2015 c 0,0.7905 0.589,1.395 1.395,1.395 0.093,0 0.186,0 0.2945,0 l 3.2705,-0.6975 v 16.36802 l -3.875,0.7905 c -0.589,0.0931 -1.085,0.79053 -1.085,1.39505 v 5.75043 c 0,0.79053 0.589,1.37958 1.395,1.37958 0.093,0 0.186,0 0.2945,0 l 3.2705,-0.682 v 14.77149 h 2.7745 v -15.37602 l 8.835,-1.78252 v 13.99653 h 2.7745 v -14.58548 l 3.7665,-0.69758 c 0.6046,-0.10843 1.1006,-0.79043 1.1006,-1.39495 v -5.84353 c 0,-0.806 -0.6046,-1.395 -1.3951,-1.395 -0.093,0 -0.093,0 -0.2015,0 l -3.2705,0.6975 v -16.36802 l 3.7665,-0.6975 m -15.376,3.069 8.835,-1.7825 v 16.36802 l -8.835,1.891 v -16.47652"
     id="path3294"
     style="stroke-width:0.992001" />
  <path
     class="Accidental"
     d="m 2404.7325,134.67299 c 0.6046,-0.0931 1.1006,-0.79053 1.1006,-1.39505 v -5.84348 c 0,-0.79053 -0.6046,-1.39495 -1.3951,-1.39495 -0.093,0 -0.093,0 -0.2015,0 l -3.2705,0.69747 v -14.78706 h -2.7745 v 15.37601 l -8.835,1.798 v -13.99644 h -2.7745 v 14.58549 l -3.875,0.79053 c -0.589,0.10843 -1.085,0.79043 -1.085,1.39495 v 0.20148 5.75055 -0.2015 c 0,0.7905 0.589,1.395 1.395,1.395 0.093,0 0.186,0 0.2945,0 l 3.2705,-0.6975 v 16.36802 l -3.875,0.7905 c -0.589,0.0931 -1.085,0.79053 -1.085,1.39505 v 5.75043 c 0,0.79053 0.589,1.37958 1.395,1.37958 0.093,0 0.186,0 0.2945,0 l 3.2705,-0.682 v 14.77149 h 2.7745 v -15.37602 l 8.835,-1.78252 v 13.99653 h 2.7745 v -14.58548 l 3.7665,-0.69758 c 0.6046,-0.10843 1.1006,-0.79043 1.1006,-1.39495 v -5.84353 c 0,-0.806 -0.6046,-1.395 -1.3951,-1.395 -0.093,0 -0.093,0 -0.2015,0 l -3.2705,0.6975 v -16.36802 l 3.7665,-0.6975 m -15.376,3.069 8.835,-1.7825 v 16.36802 l -8.835,1.891 v -16.47652"
     id="path3296"
     style="stroke-width:0.992001" />
  <path
     class="Accidental"
     d="m 806.09307,126.93846 c -0.186,-0.20148 -0.496,-0.29453 -0.79053,-0.29453 -0.0931,0 -0.29452,0.0931 -0.38747,0.0931 l -12.50856,3.47201 V 112.84897 H 789.632 v 49.10405 c 0,0.79052 0.589,1.28652 1.395,1.28652 0.093,0 0.29451,0 0.38751,0 l 12.50855,-3.472 v 17.36002 h 2.66601 c 0,-16.46107 0,-32.13156 0,-49.10405 0,-0.38758 -0.186,-0.88358 -0.496,-1.08505 m -13.68656,27.77605 v -16.27502 l 11.51655,-3.2705 v 16.36802 l -11.51655,3.1775"
     id="path3298"
     style="stroke-width:0.992001" />
  <path
     class="Accidental"
     d="m 1029.2825,134.67299 c 0.6046,-0.0931 1.1006,-0.79053 1.1006,-1.39505 v -5.84348 c 0,-0.79053 -0.6046,-1.39495 -1.3951,-1.39495 -0.093,0 -0.093,0 -0.2015,0 l -3.2705,0.69747 v -14.78706 h -2.7745 v 15.37601 l -8.835,1.798 v -13.99644 h -2.7745 v 14.58549 l -3.875,0.79053 c -0.589,0.10843 -1.085,0.79043 -1.085,1.39495 v 0.20148 5.75055 -0.2015 c 0,0.7905 0.589,1.395 1.395,1.395 0.093,0 0.186,0 0.2945,0 l 3.2705,-0.6975 v 16.36802 l -3.875,0.7905 c -0.589,0.0931 -1.085,0.79053 -1.085,1.39505 v 5.75043 c 0,0.79053 0.589,1.37958 1.395,1.37958 0.093,0 0.186,0 0.2945,0 l 3.2705,-0.682 v 14.77149 h 2.7745 v -15.37602 l 8.835,-1.78252 v 13.99653 h 2.7745 v -14.58548 l 3.7665,-0.69758 c 0.6046,-0.10843 1.1006,-0.79043 1.1006,-1.39495 v -5.84353 c 0,-0.806 -0.6046,-1.395 -1.3951,-1.395 -0.093,0 -0.093,0 -0.2015,0 l -3.2705,0.6975 v -16.36802 l 3.7665,-0.6975 m -15.376,3.069 8.835,-1.7825 v 16.36802 l -8.835,1.891 v -16.47652"
     id="path3300"
     style="stroke-width:0.992001" />
  <polyline
     class="Stem"
     fill="none"
     stroke="#000000"
     stroke-width="2.48"
     stroke-linejoin="bevel"
     points="1490.42,663.165 1490.42,745.699"
     id="polyline3302"
     transform="translate(-212.598,-551.109)" />
  <polyline
     class="Stem"
     fill="none"
     stroke="#000000"
     stroke-width="2.48"
     stroke-linejoin="bevel"
     points="1550.98,675.565 1550.98,751.999"
     id="polyline3304"
     transform="translate(-212.598,-551.109)" />
  <polyline
     class="Stem"
     fill="none"
     stroke="#000000"
     stroke-width="2.48"
     stroke-linejoin="bevel"
     points="1641.81,675.565 1641.81,751.899"
     id="polyline3306"
     transform="translate(-212.598,-551.109)" />
  <polyline
     class="Stem"
     fill="none"
     stroke="#000000"
     stroke-width="2.48"
     stroke-linejoin="bevel"
     points="1702.37,663.165 1702.37,745.799"
     id="polyline3308"
     transform="translate(-212.598,-551.109)" />
  <polyline
     class="Stem"
     fill="none"
     stroke="#000000"
     stroke-width="2.48"
     stroke-linejoin="bevel"
     points="1828.67,663.165 1828.67,745.699"
     id="polyline3310"
     transform="translate(-212.598,-551.109)" />
  <polyline
     class="Stem"
     fill="none"
     stroke="#000000"
     stroke-width="2.48"
     stroke-linejoin="bevel"
     points="2895.61,704.63 2895.61,621.798"
     id="polyline3312"
     transform="translate(-212.598,-551.109)" />
  <polyline
     class="Stem"
     fill="none"
     stroke="#000000"
     stroke-width="2.48"
     stroke-linejoin="bevel"
     points="1928.13,692.23 1928.13,615.598"
     id="polyline3314"
     transform="translate(-212.598,-551.109)" />
  <polyline
     class="Stem"
     fill="none"
     stroke="#000000"
     stroke-width="2.48"
     stroke-linejoin="bevel"
     points="3482,650.765 3482,733.398"
     id="polyline3316"
     transform="translate(-212.598,-551.109)" />
  <polyline
     class="Stem"
     fill="none"
     stroke="#000000"
     stroke-width="2.48"
     stroke-linejoin="bevel"
     points="2183.66,692.23 2183.66,615.797"
     id="polyline3318"
     transform="translate(-212.598,-551.109)" />
  <polyline
     class="Stem"
     fill="none"
     stroke="#000000"
     stroke-width="2.48"
     stroke-linejoin="bevel"
     points="2250.74,704.63 2250.74,621.798"
     id="polyline3320"
     transform="translate(-212.598,-551.109)" />
  <polyline
     class="Stem"
     fill="none"
     stroke="#000000"
     stroke-width="2.48"
     stroke-linejoin="bevel"
     points="3010.76,692.23 3010.76,615.598"
     id="polyline3322"
     transform="translate(-212.598,-551.109)" />
  <polyline
     class="Stem"
     fill="none"
     stroke="#000000"
     stroke-width="2.48"
     stroke-linejoin="bevel"
     points="2341.58,704.63 2341.58,621.997"
     id="polyline3324"
     transform="translate(-212.598,-551.109)" />
  <polyline
     class="Stem"
     fill="none"
     stroke="#000000"
     stroke-width="2.48"
     stroke-linejoin="bevel"
     points="3173.93,675.565 3173.93,751.999"
     id="polyline3326"
     transform="translate(-212.598,-551.109)" />
  <polyline
     class="Stem"
     fill="none"
     stroke="#000000"
     stroke-width="2.48"
     stroke-linejoin="bevel"
     points="2431.82,692.23 2431.82,615.598"
     id="polyline3328"
     transform="translate(-212.598,-551.109)" />
  <polyline
     class="Stem"
     fill="none"
     stroke="#000000"
     stroke-width="2.48"
     stroke-linejoin="bevel"
     points="3841.58,625.965 3841.58,708.499"
     id="polyline3330"
     transform="translate(-212.598,-551.109)" />
  <polyline
     class="Stem"
     fill="none"
     stroke="#000000"
     stroke-width="2.48"
     stroke-linejoin="bevel"
     points="3902.14,650.765 3902.14,733.398"
     id="polyline3332"
     transform="translate(-212.598,-551.109)" />
  <polyline
     class="Stem"
     fill="none"
     stroke="#000000"
     stroke-width="2.48"
     stroke-linejoin="bevel"
     points="357.911,977.009 357.911,1059.54"
     id="polyline3334"
     transform="translate(-212.598,-551.109)" />
  <polyline
     class="Stem"
     fill="none"
     stroke="#000000"
     stroke-width="2.48"
     stroke-linejoin="bevel"
     points="472.08,1001.81 472.08,1078.24"
     id="polyline3336"
     transform="translate(-212.598,-551.109)" />
  <polyline
     class="Stem"
     fill="none"
     stroke="#000000"
     stroke-width="2.48"
     stroke-linejoin="bevel"
     points="3750.74,625.965 3750.74,708.598"
     id="polyline3338"
     transform="translate(-212.598,-551.109)" />
  <polyline
     class="Stem"
     fill="none"
     stroke="#000000"
     stroke-width="2.48"
     stroke-linejoin="bevel"
     points="3690.19,650.765 3690.19,733.299"
     id="polyline3340"
     transform="translate(-212.598,-551.109)" />
  <polyline
     class="Stem"
     fill="none"
     stroke="#000000"
     stroke-width="2.48"
     stroke-linejoin="bevel"
     points="878.592,1001.81 878.592,1078.14"
     id="polyline3342"
     transform="translate(-212.598,-551.109)" />
  <polyline
     class="Stem"
     fill="none"
     stroke="#000000"
     stroke-width="2.48"
     stroke-linejoin="bevel"
     points="992.761,977.009 992.761,1059.64"
     id="polyline3344"
     transform="translate(-212.598,-551.109)" />
  <polyline
     class="Stem"
     fill="none"
     stroke="#000000"
     stroke-width="2.48"
     stroke-linejoin="bevel"
     points="584.506,692.23 584.506,615.598"
     id="polyline3346"
     transform="translate(-212.598,-551.109)" />
  <polyline
     class="Stem"
     fill="none"
     stroke="#000000"
     stroke-width="2.48"
     stroke-linejoin="bevel"
     points="808.211,692.23 808.211,615.797"
     id="polyline3348"
     transform="translate(-212.598,-551.109)" />
  <polyline
     class="Stem"
     fill="none"
     stroke="#000000"
     stroke-width="2.48"
     stroke-linejoin="bevel"
     points="875.295,704.63 875.295,621.798"
     id="polyline3350"
     transform="translate(-212.598,-551.109)" />
  <polyline
     class="Stem"
     fill="none"
     stroke="#000000"
     stroke-width="2.48"
     stroke-linejoin="bevel"
     points="2558.12,692.23 2558.12,615.797"
     id="polyline3352"
     transform="translate(-212.598,-551.109)" />
  <polyline
     class="Stem"
     fill="none"
     stroke="#000000"
     stroke-width="2.48"
     stroke-linejoin="bevel"
     points="1484.9,1001.81 1484.9,1078.14"
     id="polyline3354"
     transform="translate(-212.598,-551.109)" />
  <polyline
     class="Stem"
     fill="none"
     stroke="#000000"
     stroke-width="2.48"
     stroke-linejoin="bevel"
     points="1628.81,1018.47 1628.81,941.843"
     id="polyline3356"
     transform="translate(-212.598,-551.109)" />
  <polyline
     class="Stem"
     fill="none"
     stroke="#000000"
     stroke-width="2.48"
     stroke-linejoin="bevel"
     points="966.131,704.63 966.131,621.997"
     id="polyline3358"
     transform="translate(-212.598,-551.109)" />
  <polyline
     class="Stem"
     fill="none"
     stroke="#000000"
     stroke-width="2.48"
     stroke-linejoin="bevel"
     points="1278.18,1001.81 1278.18,1078.24"
     id="polyline3360"
     transform="translate(-212.598,-551.109)" />
  <polyline
     class="Stem"
     fill="none"
     stroke="#000000"
     stroke-width="2.48"
     stroke-linejoin="bevel"
     points="2035.33,1018.47 2035.33,942.041"
     id="polyline3362"
     transform="translate(-212.598,-551.109)" />
  <polyline
     class="Stem"
     fill="none"
     stroke="#000000"
     stroke-width="2.48"
     stroke-linejoin="bevel"
     points="2119.75,1001.81 2119.75,1078.24"
     id="polyline3364"
     transform="translate(-212.598,-551.109)" />
  <polyline
     class="Stem"
     fill="none"
     stroke="#000000"
     stroke-width="2.48"
     stroke-linejoin="bevel"
     points="1164.01,977.009 1164.01,1059.54"
     id="polyline3366"
     transform="translate(-212.598,-551.109)" />
  <polyline
     class="Stem"
     fill="none"
     stroke="#000000"
     stroke-width="2.48"
     stroke-linejoin="bevel"
     points="2434.92,1018.47 2434.92,941.843"
     id="polyline3368"
     transform="translate(-212.598,-551.109)" />
  <polyline
     class="Stem"
     fill="none"
     stroke="#000000"
     stroke-width="2.48"
     stroke-linejoin="bevel"
     points="1056.37,692.23 1056.37,615.598"
     id="polyline3370"
     transform="translate(-212.598,-551.109)" />
  <polyline
     class="Stem"
     fill="none"
     stroke="#000000"
     stroke-width="2.48"
     stroke-linejoin="bevel"
     points="2641.63,1018.47 2641.63,942.041"
     id="polyline3372"
     transform="translate(-212.598,-551.109)" />
  <polyline
     class="Stem"
     fill="none"
     stroke="#000000"
     stroke-width="2.48"
     stroke-linejoin="bevel"
     points="2755.8,1043.27 2755.8,960.443"
     id="polyline3374"
     transform="translate(-212.598,-551.109)" />
  <polyline
     class="Stem"
     fill="none"
     stroke="#000000"
     stroke-width="2.48"
     stroke-linejoin="bevel"
     points="3289.08,663.165 3289.08,745.799"
     id="polyline3376"
     transform="translate(-212.598,-551.109)" />
  <polyline
     class="Stem"
     fill="none"
     stroke="#000000"
     stroke-width="2.48"
     stroke-linejoin="bevel"
     points="1182.67,692.23 1182.67,615.797"
     id="polyline3378"
     transform="translate(-212.598,-551.109)" />
  <polyline
     class="Stem"
     fill="none"
     stroke="#000000"
     stroke-width="2.48"
     stroke-linejoin="bevel"
     points="3162.31,1043.27 3162.31,960.443"
     id="polyline3380"
     transform="translate(-212.598,-551.109)" />
  <polyline
     class="Stem"
     fill="none"
     stroke="#000000"
     stroke-width="2.48"
     stroke-linejoin="bevel"
     points="3379.41,1030.87 3379.41,948.043"
     id="polyline3382"
     transform="translate(-212.598,-551.109)" />
  <polyline
     class="Stem"
     fill="none"
     stroke="#000000"
     stroke-width="2.48"
     stroke-linejoin="bevel"
     points="2655.6,692.23 2655.6,615.598"
     id="polyline3384"
     transform="translate(-212.598,-551.109)" />
  <polyline
     class="Stem"
     fill="none"
     stroke="#000000"
     stroke-width="2.48"
     stroke-linejoin="bevel"
     points="1280.15,692.23 1280.15,615.598"
     id="polyline3386"
     transform="translate(-212.598,-551.109)" />
  <polyline
     class="Stem"
     fill="none"
     stroke="#000000"
     stroke-width="2.48"
     stroke-linejoin="bevel"
     points="3644.52,1001.81 3644.52,1078.24"
     id="polyline3388"
     transform="translate(-212.598,-551.109)" />
  <polyline
     class="Stem"
     fill="none"
     stroke="#000000"
     stroke-width="2.48"
     stroke-linejoin="bevel"
     points="2291,1001.81 2291,1078.14"
     id="polyline3390"
     transform="translate(-212.598,-551.109)" />
  <path
     class="Hook"
     d="m 1821.492,413.2555 c 0,0.29452 0.093,0.79052 0.7905,1.08505 4.2625,1.39495 12.803,6.75801 19.251,17.76297 1.7825,3.06905 4.6656,7.34705 4.6656,15.57759 0,7.14548 -1.8911,14.47696 -4.464,21.62244 -0.2016,0.60453 -0.4031,1.10053 -0.31,1.48801 0,0.40305 0.1084,0.69757 0.496,0.89905 0.2014,0.093 0.4029,0.093 0.496,0.093 0.6974,0 1.1934,-0.38748 1.5964,-1.08495 4.6656,-8.24601 6.2465,-18.75507 6.1536,-25.0015 0,-0.49601 0,-0.79053 0,-1.19358 -0.496,-12.80296 -7.8431,-22.22697 -7.8431,-22.22697 0.2945,0 -9.1295,-12.19854 -11.811,-16.36802 -3.658,-5.65753 -5.3475,-11.29954 -5.549,-11.70254 -0.093,-0.29449 -0.992,-3.875 -0.992,-3.875 -0.093,-0.3875 -0.589,-0.79051 -1.1935,-0.79051 -0.6975,0 -1.2865,0.60451 -1.2865,1.28651 v 22.4285"
     id="path3392"
     style="stroke-width:0.992001" />
  <path
     class="Hook"
     d="m 968.832,87.010498 c 0,0.294525 0.093,0.790526 0.7905,1.085051 4.26251,1.394951 12.80299,6.758006 19.251,17.762971 1.78252,3.06905 4.66557,7.34705 4.66557,15.57759 0,7.14548 -1.89105,14.47696 -4.464,21.62244 -0.20157,0.60453 -0.40305,1.10053 -0.31,1.48801 0,0.40305 0.10843,0.69757 0.496,0.89905 0.20148,0.093 0.40295,0.093 0.496,0.093 0.69748,0 1.19348,-0.38748 1.59643,-1.08495 4.66558,-8.24601 6.24653,-18.75507 6.15358,-25.0015 0,-0.49601 0,-0.79053 0,-1.19358 -0.496,-12.80296 -7.84306,-22.226973 -7.84306,-22.226973 0.29453,0 -9.12948,-12.198537 -11.81101,-16.368017 -3.658,-5.65753 -5.3475,-11.299536 -5.54901,-11.702536 -0.093,-0.294496 -0.992,-3.875004 -0.992,-3.875004 -0.093,-0.387501 -0.589,-0.790506 -1.19349,-0.790506 -0.69751,0 -1.28651,0.604505 -1.28651,1.286506 v 22.428498"
     id="path3394"
     style="stroke-width:0.992001" />
  <path
     class="Hook"
     d="m 752.293,93.210498 c 0,0.294525 0.093,0.790526 0.7905,1.085051 4.26251,1.394951 12.80299,6.758011 19.251,17.762971 1.78252,3.06905 4.66557,7.34705 4.66557,15.57759 0,7.14548 -1.89105,14.47696 -4.464,21.62244 -0.20157,0.60453 -0.40305,1.10053 -0.31,1.48801 0,0.40305 0.10843,0.69757 0.496,0.89905 0.20148,0.093 0.40295,0.093 0.496,0.093 0.69748,0 1.19348,-0.38748 1.59643,-1.08495 4.66558,-8.24601 6.24653,-18.75507 6.15358,-25.0015 0,-0.49601 0,-0.79053 0,-1.19358 -0.496,-12.80296 -7.84306,-22.22697 -7.84306,-22.22697 0.29453,0 -9.12948,-12.19854 -11.81101,-16.36802 -3.658,-5.65753 -5.3475,-11.299536 -5.54901,-11.702536 -0.093,-0.294496 -0.992,-3.875004 -0.992,-3.875004 -0.093,-0.387501 -0.589,-0.790506 -1.19349,-0.790506 -0.69751,0 -1.28651,0.604505 -1.28651,1.286506 v 22.428498"
     id="path3396"
     style="stroke-width:0.992001" />
  <path
     class="Hook"
     d="m 2077.162,527.038 c 0,0.682 0.589,1.28651 1.2865,1.28651 0.496,0 1.1005,-0.40301 1.1935,-0.79051 0,-0.1085 0.899,-3.58051 0.992,-3.875 0.093,-0.403 0.992,-4.16951 4.557,-10.01306 3.875,-6.44801 9.827,-11.11349 14.787,-18.0575 4.8671,-6.944 7.8431,-13.50053 7.8431,-22.22697 0,-9.02106 -2.0925,-16.56959 -7.3471,-26.19508 -0.2945,-0.69747 -0.8989,-1.08495 -1.488,-1.08495 -0.2015,0 -0.4029,0 -0.496,0.093 -0.496,0.20148 -0.6975,0.60453 -0.6975,1.19348 0,0.29453 0.1086,0.79053 0.2946,1.19358 3.968,9.22243 5.5644,14.47696 5.5644,21.62244 0,8.23054 -2.883,12.50854 -4.6655,15.57759 -6.448,11.00496 -16.864,16.36802 -21.0335,17.76297 -0.6975,0.29453 -0.7905,0.79053 -0.7905,1.08505 v 22.4285"
     id="path3398"
     style="stroke-width:0.992001" />
  <path
     class="Hook"
     d="m 664.754,527.038 c 0,0.682 0.589,1.28651 1.28651,1.28651 0.496,0 1.10049,-0.40301 1.19349,-0.79051 0,-0.1085 0.899,-3.58051 0.992,-3.875 0.093,-0.403 0.992,-4.16951 4.55701,-10.01306 3.875,-6.44801 9.82701,-11.11349 14.78701,-18.0575 4.86706,-6.944 7.84306,-13.50053 7.84306,-22.22697 0,-9.02106 -2.09253,-16.56959 -7.34706,-26.19508 -0.29452,-0.69747 -0.89895,-1.08495 -1.488,-1.08495 -0.20147,0 -0.40295,0 -0.496,0.093 -0.496,0.20148 -0.69747,0.60453 -0.69747,1.19348 0,0.29453 0.10852,0.79053 0.29452,1.19358 3.968,9.22243 5.56443,14.47696 5.56443,21.62244 0,8.23054 -2.88295,12.50854 -4.66548,15.57759 -6.448,11.00496 -16.86401,16.36802 -21.03352,17.76297 -0.6975,0.29453 -0.7905,0.79053 -0.7905,1.08505 v 22.4285"
     id="path3400"
     style="stroke-width:0.992001" />
  <path
     class="Hook"
     d="m 1427.972,200.797 c 0,0.682 0.589,1.28651 1.2865,1.28651 0.496,0 1.1005,-0.40301 1.1935,-0.79051 0,-0.1085 0.899,-3.58051 0.992,-3.875 0.093,-0.403 0.992,-4.16951 4.557,-10.01306 3.875,-6.44801 9.827,-11.11349 14.787,-18.0575 4.8671,-6.944 7.8431,-13.50053 7.8431,-22.22697 0,-9.02106 -2.0925,-16.56959 -7.3471,-26.19508 -0.2945,-0.69747 -0.8989,-1.08495 -1.488,-1.08495 -0.2015,0 -0.4029,0 -0.496,0.093 -0.496,0.20148 -0.6975,0.60453 -0.6975,1.19348 0,0.29453 0.1086,0.79053 0.2946,1.19358 3.968,9.22243 5.5644,14.47696 5.5644,21.62244 0,8.23054 -2.883,12.50854 -4.6655,15.57759 -6.448,11.00496 -16.864,16.36802 -21.0335,17.76297 -0.6975,0.29453 -0.7905,0.79053 -0.7905,1.08505 v 22.4285"
     id="path3402"
     style="stroke-width:0.992001" />
  <path
     class="Hook"
     d="m 2344.282,87.010498 c 0,0.294525 0.093,0.790526 0.7905,1.085051 4.2625,1.394951 12.803,6.758006 19.251,17.762971 1.7825,3.06905 4.6656,7.34705 4.6656,15.57759 0,7.14548 -1.8911,14.47696 -4.464,21.62244 -0.2016,0.60453 -0.4031,1.10053 -0.31,1.48801 0,0.40305 0.1084,0.69757 0.496,0.89905 0.2014,0.093 0.4029,0.093 0.496,0.093 0.6974,0 1.1934,-0.38748 1.5964,-1.08495 4.6656,-8.24601 6.2465,-18.75507 6.1536,-25.0015 0,-0.49601 0,-0.79053 0,-1.19358 -0.496,-12.80296 -7.8431,-22.226973 -7.8431,-22.226973 0.2945,0 -9.1295,-12.198537 -11.811,-16.368017 -3.658,-5.65753 -5.3475,-11.299536 -5.549,-11.702536 -0.093,-0.294496 -0.992,-3.875004 -0.992,-3.875004 -0.093,-0.387501 -0.589,-0.790506 -1.1935,-0.790506 -0.6975,0 -1.2865,0.604505 -1.2865,1.286506 v 22.428498"
     id="path3404"
     style="stroke-width:0.992001" />
  <path
     class="Hook"
     d="m 2427.792,413.2555 c 0,0.29452 0.093,0.79052 0.7905,1.08505 4.2625,1.39495 12.803,6.75801 19.251,17.76297 1.7825,3.06905 4.6656,7.34705 4.6656,15.57759 0,7.14548 -1.8911,14.47696 -4.464,21.62244 -0.2016,0.60453 -0.4031,1.10053 -0.31,1.48801 0,0.40305 0.1084,0.69757 0.496,0.89905 0.2014,0.093 0.4029,0.093 0.496,0.093 0.6974,0 1.1934,-0.38748 1.5964,-1.08495 4.6656,-8.24601 6.2465,-18.75507 6.1536,-25.0015 0,-0.49601 0,-0.79053 0,-1.19358 -0.496,-12.80296 -7.8431,-22.22697 -7.8431,-22.22697 0.2945,0 -9.1295,-12.19854 -11.811,-16.36802 -3.658,-5.65753 -5.3475,-11.29954 -5.549,-11.70254 -0.093,-0.29449 -0.992,-3.875 -0.992,-3.875 -0.093,-0.3875 -0.589,-0.79051 -1.1935,-0.79051 -0.6975,0 -1.2865,0.60451 -1.2865,1.28651 v 22.4285"
     id="path3406"
     style="stroke-width:0.992001" />
  <path
     class="Hook"
     d="m 950.172,508.438 c 0,0.682 0.589,1.28651 1.28651,1.28651 0.496,0 1.10049,-0.40301 1.19349,-0.79051 0,-0.1085 0.899,-3.58051 0.992,-3.875 0.093,-0.403 0.992,-4.16951 4.55701,-10.01306 3.875,-6.44801 9.82701,-11.11349 14.78701,-18.0575 4.86706,-6.944 7.84306,-13.50053 7.84306,-22.22697 0,-9.02106 -2.09253,-16.56959 -7.34706,-26.19508 -0.29452,-0.69747 -0.89895,-1.08495 -1.488,-1.08495 -0.20147,0 -0.40295,0 -0.496,0.0929 -0.496,0.20148 -0.69747,0.60453 -0.69747,1.19348 0,0.29453 0.10852,0.79053 0.29452,1.19358 3.968,9.22243 5.56443,14.47696 5.56443,21.62244 0,8.23054 -2.88295,12.50854 -4.66548,15.57759 -6.448,11.00496 -16.86402,16.36802 -21.03352,17.76297 -0.6975,0.29453 -0.7905,0.79053 -0.7905,1.08505 v 22.4285"
     id="path3408"
     style="stroke-width:0.992001" />
  <path
     class="Hook"
     d="m 594.373,87.010498 c 0,0.294525 0.093,0.790526 0.7905,1.085051 4.26251,1.394951 12.80299,6.758006 19.251,17.762971 1.78252,3.06905 4.66557,7.34705 4.66557,15.57759 0,7.14548 -1.89105,14.47696 -4.464,21.62244 -0.20157,0.60453 -0.40305,1.10053 -0.31,1.48801 0,0.40305 0.10843,0.69757 0.496,0.89905 0.20148,0.093 0.40295,0.093 0.496,0.093 0.69748,0 1.19348,-0.38748 1.59643,-1.08495 4.66558,-8.24601 6.24653,-18.75507 6.15358,-25.0015 0,-0.49601 0,-0.79053 0,-1.19358 -0.496,-12.80296 -7.84306,-22.226973 -7.84306,-22.226973 0.29453,0 -9.12948,-12.198537 -11.81101,-16.368017 -3.658,-5.65753 -5.3475,-11.299536 -5.54901,-11.702536 -0.093,-0.294496 -0.992,-3.875004 -0.992,-3.875004 -0.093,-0.387501 -0.589,-0.790506 -1.19349,-0.790506 -0.69751,0 -1.28651,0.604505 -1.28651,1.286506 v 22.428498"
     id="path3410"
     style="stroke-width:0.992001" />
  <path
     class="Hook"
     d="m 1276.582,194.597 c 0,0.682 0.589,1.28651 1.2865,1.28651 0.496,0 1.1005,-0.40301 1.1935,-0.79051 0,-0.1085 0.899,-3.58051 0.992,-3.875 0.093,-0.403 0.992,-4.16951 4.557,-10.01306 3.875,-6.44801 9.827,-11.11349 14.787,-18.0575 4.8671,-6.944 7.8431,-13.50053 7.8431,-22.22697 0,-9.02106 -2.0925,-16.56959 -7.3471,-26.19508 -0.2945,-0.69747 -0.8989,-1.08495 -1.488,-1.08495 -0.2015,0 -0.4029,0 -0.496,0.093 -0.496,0.20148 -0.6975,0.60453 -0.6975,1.19348 0,0.29453 0.1086,0.79053 0.2946,1.19358 3.968,9.22243 5.5644,14.47696 5.5644,21.62244 0,8.23054 -2.883,12.50854 -4.6655,15.57759 -6.448,11.00496 -16.864,16.36802 -21.0335,17.76297 -0.6975,0.29453 -0.7905,0.79053 -0.7905,1.08505 v 22.4285"
     id="path3412"
     style="stroke-width:0.992001" />
  <path
     class="Hook"
     d="m 1969.822,87.010498 c 0,0.294525 0.093,0.790526 0.7905,1.085051 4.2625,1.394951 12.803,6.758006 19.251,17.762971 1.7825,3.06905 4.6656,7.34705 4.6656,15.57759 0,7.14548 -1.8911,14.47696 -4.464,21.62244 -0.2016,0.60453 -0.4031,1.10053 -0.31,1.48801 0,0.40305 0.1084,0.69757 0.496,0.89905 0.2014,0.093 0.4029,0.093 0.496,0.093 0.6974,0 1.1934,-0.38748 1.5964,-1.08495 4.6656,-8.24601 6.2465,-18.75507 6.1536,-25.0015 0,-0.49601 0,-0.79053 0,-1.19358 -0.496,-12.80296 -7.8431,-22.226973 -7.8431,-22.226973 0.2945,0 -9.1295,-12.198537 -11.811,-16.368017 -3.658,-5.65753 -5.3475,-11.299536 -5.549,-11.702536 -0.093,-0.294496 -0.992,-3.875004 -0.992,-3.875004 -0.093,-0.387501 -0.589,-0.790506 -1.1935,-0.790506 -0.6975,0 -1.2865,0.604505 -1.2865,1.286506 v 22.428498"
     id="path3414"
     style="stroke-width:0.992001" />
  <path
     class="Hook"
     d="m 3476.352,182.196 c 0,0.682 0.589,1.28651 1.2865,1.28651 0.496,0 1.1005,-0.40301 1.1935,-0.79051 0,-0.1085 0.899,-3.58051 0.992,-3.875 0.093,-0.403 0.992,-4.16951 4.557,-10.01306 3.875,-6.44801 9.827,-11.11349 14.787,-18.0575 4.8671,-6.944 7.8431,-13.50053 7.8431,-22.22697 0,-9.02106 -2.0925,-16.56959 -7.3471,-26.19508 -0.2945,-0.69747 -0.8989,-1.08495 -1.488,-1.08495 -0.2015,0 -0.4029,0 -0.496,0.093 -0.496,0.20148 -0.6975,0.60453 -0.6975,1.19348 0,0.29453 0.1086,0.79053 0.2946,1.19358 3.968,9.22243 5.5644,14.47696 5.5644,21.62244 0,8.23054 -2.883,12.50854 -4.6655,15.57759 -6.448,11.00496 -16.864,16.36802 -21.0335,17.76297 -0.6975,0.29453 -0.7905,0.79053 -0.7905,1.08505 v 22.4285"
     id="path3416"
     style="stroke-width:0.992001" />
  <path
     class="Hook"
     d="m 1271.062,527.038 c 0,0.682 0.589,1.28651 1.2865,1.28651 0.496,0 1.1005,-0.40301 1.1935,-0.79051 0,-0.1085 0.899,-3.58051 0.992,-3.875 0.093,-0.403 0.992,-4.16951 4.557,-10.01306 3.875,-6.44801 9.827,-11.11349 14.787,-18.0575 4.8671,-6.944 7.8431,-13.50053 7.8431,-22.22697 0,-9.02106 -2.0925,-16.56959 -7.3471,-26.19508 -0.2945,-0.69747 -0.8989,-1.08495 -1.488,-1.08495 -0.2015,0 -0.4029,0 -0.496,0.093 -0.496,0.20148 -0.6975,0.60453 -0.6975,1.19348 0,0.29453 0.1086,0.79053 0.2946,1.19358 3.968,9.22243 5.5644,14.47696 5.5644,21.62244 0,8.23054 -2.883,12.50854 -4.6655,15.57759 -6.448,11.00496 -16.864,16.36802 -21.0335,17.76297 -0.6975,0.29453 -0.7905,0.79053 -0.7905,1.08505 v 22.4285"
     id="path3418"
     style="stroke-width:0.992001" />
  <path
     class="Hook"
     d="m 3627.742,157.396 c 0,0.682 0.589,1.28651 1.2865,1.28651 0.496,0 1.1005,-0.40301 1.1935,-0.79051 0,-0.1085 0.899,-3.58051 0.992,-3.875 0.093,-0.403 0.992,-4.16951 4.557,-10.01306 3.875,-6.44801 9.827,-11.11349 14.787,-18.0575 4.8671,-6.944 7.8431,-13.50053 7.8431,-22.22697 0,-9.021058 -2.0925,-16.56959 -7.3471,-26.195075 -0.2945,-0.697476 -0.8989,-1.084952 -1.488,-1.084952 -0.2015,0 -0.4029,0 -0.496,0.09295 -0.496,0.201475 -0.6975,0.604525 -0.6975,1.193476 0,0.294525 0.1086,0.790526 0.2946,1.193576 3.968,9.222435 5.5644,14.476965 5.5644,21.622445 0,8.23054 -2.883,12.50854 -4.6655,15.57759 -6.448,11.00496 -16.864,16.36802 -21.0335,17.76297 -0.6975,0.29453 -0.7905,0.79053 -0.7905,1.08505 v 22.4285"
     id="path3420"
     style="stroke-width:0.992001" />
  <path
     class="Hook"
     d="m 144.073,508.438 c 0,0.682 0.589,1.28651 1.28651,1.28651 0.496,0 1.10049,-0.40301 1.19349,-0.79051 0,-0.1085 0.899,-3.58051 0.992,-3.875 0.093,-0.403 0.992,-4.16951 4.55701,-10.01306 3.875,-6.44801 9.82701,-11.11349 14.78701,-18.0575 4.86706,-6.944 7.84306,-13.50053 7.84306,-22.22697 0,-9.02106 -2.09253,-16.56959 -7.34706,-26.19508 -0.29452,-0.69747 -0.89895,-1.08495 -1.488,-1.08495 -0.20147,0 -0.40295,0 -0.496,0.0929 -0.496,0.20148 -0.69747,0.60453 -0.69747,1.19348 0,0.29453 0.10852,0.79053 0.29452,1.19358 3.968,9.22243 5.56443,14.47696 5.56443,21.62244 0,8.23054 -2.88295,12.50854 -4.66548,15.57759 -6.448,11.00496 -16.86402,16.36802 -21.03352,17.76297 -0.6975,0.29453 -0.7905,0.79053 -0.7905,1.08505 v 22.4285"
     id="path3422"
     style="stroke-width:0.992001" />
  <path
     class="Hook"
     d="m 2127.742,93.210498 c 0,0.294525 0.093,0.790526 0.7905,1.085051 4.2625,1.394951 12.803,6.758011 19.251,17.762971 1.7825,3.06905 4.6656,7.34705 4.6656,15.57759 0,7.14548 -1.8911,14.47696 -4.464,21.62244 -0.2016,0.60453 -0.4031,1.10053 -0.31,1.48801 0,0.40305 0.1084,0.69757 0.496,0.89905 0.2014,0.093 0.4029,0.093 0.496,0.093 0.6974,0 1.1934,-0.38748 1.5964,-1.08495 4.6656,-8.24601 6.2465,-18.75507 6.1536,-25.0015 0,-0.49601 0,-0.79053 0,-1.19358 -0.496,-12.80296 -7.8431,-22.22697 -7.8431,-22.22697 0.2945,0 -9.1295,-12.19854 -11.811,-16.36802 -3.658,-5.65753 -5.3475,-11.299536 -5.549,-11.702536 -0.093,-0.294496 -0.992,-3.875004 -0.992,-3.875004 -0.093,-0.387501 -0.589,-0.790506 -1.1935,-0.790506 -0.6975,0 -1.2865,0.604505 -1.2865,1.286506 v 22.428498"
     id="path3424"
     style="stroke-width:0.992001" />
  <path
     class="Hook"
     d="m 1614.832,194.597 c 0,0.682 0.589,1.28651 1.2865,1.28651 0.496,0 1.1005,-0.40301 1.1935,-0.79051 0,-0.1085 0.899,-3.58051 0.992,-3.875 0.093,-0.403 0.992,-4.16951 4.557,-10.01306 3.875,-6.44801 9.827,-11.11349 14.787,-18.0575 4.8671,-6.944 7.8431,-13.50053 7.8431,-22.22697 0,-9.02106 -2.0925,-16.56959 -7.3471,-26.19508 -0.2945,-0.69747 -0.8989,-1.08495 -1.488,-1.08495 -0.2015,0 -0.4029,0 -0.496,0.093 -0.496,0.20148 -0.6975,0.60453 -0.6975,1.19348 0,0.29453 0.1086,0.79053 0.2946,1.19358 3.968,9.22243 5.5644,14.47696 5.5644,21.62244 0,8.23054 -2.883,12.50854 -4.6655,15.57759 -6.448,11.00496 -16.864,16.36802 -21.0335,17.76297 -0.6975,0.29453 -0.7905,0.79053 -0.7905,1.08505 v 22.4285"
     id="path3426"
     style="stroke-width:0.992001" />
  <path
     class="Note"
     d="m 664.754,450.70351 c 0,4.2625 3.069,9.02103 11.11349,9.02103 10.30758,0 21.12654,-8.43203 21.12654,-17.15854 0,-5.85901 -4.96,-9.12949 -11.11348,-9.12949 -9.62549,0 -21.12655,8.13749 -21.12655,17.267"
     id="path3428"
     style="stroke-width:0.992001" />
  <path
     class="Note"
     d="m 1705.6785,131.99151 c -9.6254,0 -21.1265,8.04448 -21.1265,17.267 0,4.2625 3.069,9.02103 11.1135,9.02103 10.3076,0 21.1265,-8.43203 21.1265,-17.15854 0,-5.85901 -4.96,-9.12949 -11.1135,-9.12949 m -2.6814,17.46849 c -0.2946,0.186 -7.5331,4.15401 -11.0051,4.15401 -3.2705,0 -3.968,-2.666 -3.968,-3.565 0,-4.16951 9.92,-9.02101 10.3231,-9.22252 0.3874,-0.20149 7.44,-4.1695 11.0049,-4.1695 2.3871,0 3.968,1.395 3.968,3.56501 0,4.278 -10.0129,9.03651 -10.3229,9.238"
     id="path3430"
     style="stroke-width:0.992001" />
  <path
     class="Note"
     d="m 778.923,425.90351 c 0,4.2625 3.069,9.02103 11.11349,9.02103 10.30758,0 21.12654,-8.43203 21.12654,-17.15854 0,-5.85901 -4.96,-9.12949 -11.11348,-9.12949 -9.62549,0 -21.12655,8.13749 -21.12655,17.267"
     id="path3432"
     style="stroke-width:0.992001" />
  <path
     class="Note"
     d="m 1940.082,149.25851 c 0,4.2625 3.069,9.02103 11.1135,9.02103 10.3076,0 21.1265,-8.43203 21.1265,-17.15854 0,-5.85901 -4.96,-9.12949 -11.1135,-9.12949 -9.6254,0 -21.1265,8.13749 -21.1265,17.267"
     id="path3434"
     style="stroke-width:0.992001" />
  <path
     class="Note"
     d="m 2007.162,161.65851 c 0,4.2625 3.069,9.02103 11.1135,9.02103 10.3076,0 21.1265,-8.43203 21.1265,-17.15854 0,-5.85901 -4.96,-9.12949 -11.1135,-9.12949 -9.6254,0 -21.1265,8.13749 -21.1265,17.267"
     id="path3436"
     style="stroke-width:0.992001" />
  <path
     class="Note"
     d="m 950.172,425.90351 c 0,4.2625 3.069,9.02103 11.11349,9.02103 10.30758,0 21.12654,-8.43203 21.12654,-17.15854 0,-5.85901 -4.96,-9.12949 -11.11348,-9.12949 -9.62549,0 -21.12655,8.13749 -21.12655,17.267"
     id="path3438"
     style="stroke-width:0.992001" />
  <path
     class="Note"
     d="m 2098.002,161.65851 c 0,4.2625 3.069,9.02103 11.1135,9.02103 10.3076,0 21.1265,-8.43203 21.1265,-17.15854 0,-5.85901 -4.96,-9.12949 -11.1135,-9.12949 -9.6254,0 -21.1265,8.13749 -21.1265,17.267"
     id="path3440"
     style="stroke-width:0.992001" />
  <path
     class="Note"
     d="m 1064.342,450.70351 c 0,4.2625 3.069,9.02103 11.1135,9.02103 10.3076,0 21.1265,-8.43203 21.1265,-17.15854 0,-5.85901 -4.96,-9.12949 -11.1135,-9.12949 -9.6254,0 -21.1265,8.13749 -21.1265,17.267"
     id="path3442"
     style="stroke-width:0.992001" />
  <path
     class="Note"
     d="m 2314.542,149.25851 c 0,4.2625 3.069,9.02103 11.1135,9.02103 10.3076,0 21.1265,-8.43203 21.1265,-17.15854 0,-5.85901 -4.96,-9.12949 -11.1135,-9.12949 -9.6254,0 -21.1265,8.13749 -21.1265,17.267"
     id="path3444"
     style="stroke-width:0.992001" />
  <path
     class="Note"
     d="m 2433.1485,131.99151 c -9.6254,0 -21.1265,8.04448 -21.1265,17.267 0,4.2625 3.069,9.02103 11.1135,9.02103 10.3076,0 21.1265,-8.43203 21.1265,-17.15854 0,-5.85901 -4.96,-9.12949 -11.1135,-9.12949 m -2.6814,17.46849 c -0.2946,0.186 -7.5331,4.15401 -11.0051,4.15401 -3.2705,0 -3.968,-2.666 -3.968,-3.565 0,-4.16951 9.92,-9.02101 10.3231,-9.22252 0.3874,-0.20149 7.44,-4.1695 11.0049,-4.1695 2.3871,0 3.968,1.395 3.968,3.56501 0,4.278 -10.0129,9.03651 -10.3229,9.238"
     id="path3446"
     style="stroke-width:0.992001" />
  <path
     class="Note"
     d="m 2652.032,161.65851 c 0,4.2625 3.069,9.02103 11.1135,9.02103 10.3076,0 21.1265,-8.43203 21.1265,-17.15854 0,-5.85901 -4.96,-9.12949 -11.1135,-9.12949 -9.6254,0 -21.1265,8.13749 -21.1265,17.267"
     id="path3448"
     style="stroke-width:0.992001" />
  <path
     class="Note"
     d="m 2767.182,149.25851 c 0,4.2625 3.069,9.02103 11.1135,9.02103 10.3076,0 21.1265,-8.43203 21.1265,-17.15854 0,-5.85901 -4.96,-9.12949 -11.1135,-9.12949 -9.6254,0 -21.1265,8.13749 -21.1265,17.267"
     id="path3450"
     style="stroke-width:0.992001" />
  <path
     class="Note"
     d="m 1271.062,450.70351 c 0,4.2625 3.069,9.02103 11.1135,9.02103 10.3076,0 21.1265,-8.43203 21.1265,-17.15854 0,-5.85901 -4.96,-9.12949 -11.1135,-9.12949 -9.6254,0 -21.1265,8.13749 -21.1265,17.267"
     id="path3452"
     style="stroke-width:0.992001" />
  <path
     class="Note"
     d="m 722.549,161.65851 c 0,4.2625 3.069,9.02103 11.11349,9.02103 10.30758,0 21.12654,-8.43203 21.12654,-17.15854 0,-5.85901 -4.96,-9.12949 -11.11348,-9.12949 -9.62549,0 -21.12655,8.13749 -21.12655,17.267"
     id="path3454"
     style="stroke-width:0.992001" />
  <path
     class="Note"
     d="m 1406.3585,458.23351 c -9.6254,0 -21.1265,8.04448 -21.1265,17.267 0,4.2625 3.069,9.02103 11.1135,9.02103 10.3076,0 21.1265,-8.43203 21.1265,-17.15854 0,-5.85901 -4.96,-9.12949 -11.1135,-9.12949 m -2.6814,17.46849 c -0.2946,0.186 -7.5331,4.15401 -11.0051,4.15401 -3.2705,0 -3.968,-2.666 -3.968,-3.565 0,-4.16951 9.92,-9.02101 10.3231,-9.22252 0.3874,-0.20149 7.44,-4.1695 11.0049,-4.1695 2.3871,0 3.968,1.395 3.968,3.56501 0,4.278 -10.0129,9.03651 -10.3229,9.238"
     id="path3456"
     style="stroke-width:0.992001" />
  <path
     class="Note"
     d="m 3075.242,112.05851 c 0,4.2625 3.069,9.02103 11.1135,9.02103 10.3076,0 21.1265,-8.43203 21.1265,-17.15854 0,-5.85901 -4.96,-9.129488 -11.1135,-9.129488 -9.6254,0 -21.1265,8.137488 -21.1265,17.266998"
     id="path3458"
     style="stroke-width:0.992001" />
  <path
     class="Note"
     d="m 3289.2885,82.391512 c -9.6254,0 -21.1265,8.044483 -21.1265,17.266997 0,4.262501 3.069,9.021031 11.1135,9.021031 10.3076,0 21.1265,-8.43203 21.1265,-17.158544 0,-5.859006 -4.96,-9.129484 -11.1135,-9.129484 m -2.6814,17.468492 c -0.2946,0.185996 -7.5331,4.154006 -11.0051,4.154006 -3.2705,0 -3.968,-2.666 -3.968,-3.565 0,-4.169509 9.92,-9.021014 10.3231,-9.222519 0.3874,-0.201495 7.44,-4.169499 11.0049,-4.169499 2.3871,0 3.968,1.395001 3.968,3.565003 0,4.278004 -10.0129,9.036514 -10.3229,9.238009"
     id="path3460"
     style="stroke-width:0.992001" />
  <path
     class="Note"
     d="m 3476.352,99.658509 c 0,4.262501 3.069,9.021031 11.1135,9.021031 10.3076,0 21.1265,-8.43203 21.1265,-17.158544 0,-5.859006 -4.96,-9.129484 -11.1135,-9.129484 -9.6254,0 -21.1265,8.137483 -21.1265,17.266997"
     id="path3462"
     style="stroke-width:0.992001" />
  <path
     class="Note"
     d="m 3536.902,74.858509 c 0,4.2625 3.069,9.021029 11.1135,9.021029 10.3076,0 21.1265,-8.432028 21.1265,-17.158542 0,-5.859006 -4.96,-9.129484 -11.1135,-9.129484 -9.6254,0 -21.1265,8.137483 -21.1265,17.266997"
     id="path3464"
     style="stroke-width:0.992001" />
  <path
     class="Note"
     d="m 1791.742,475.50051 c 0,4.2625 3.069,9.02103 11.1135,9.02103 10.3076,0 21.1265,-8.43203 21.1265,-17.15854 0,-5.85901 -4.96,-9.12949 -11.1135,-9.12949 -9.6254,0 -21.1265,8.13749 -21.1265,17.267"
     id="path3466"
     style="stroke-width:0.992001" />
  <path
     class="Note"
     d="m 362.04955,131.99151 c -9.62549,0 -21.12655,8.04448 -21.12655,17.267 0,4.2625 3.069,9.02103 11.11349,9.02103 10.30758,0 21.12654,-8.43203 21.12654,-17.15854 0,-5.85901 -4.96,-9.12949 -11.11348,-9.12949 M 359.36807,149.46 c -0.29453,0.186 -7.53306,4.15401 -11.00506,4.15401 -3.2705,0 -3.96801,-2.666 -3.96801,-3.565 0,-4.16951 9.92001,-9.02101 10.32306,-9.22252 0.38748,-0.20149 7.44001,-4.1695 11.00496,-4.1695 2.38706,0 3.96801,1.395 3.96801,3.56501 0,4.278 -10.01296,9.03651 -10.32296,9.238"
     id="path3468"
     style="stroke-width:0.992001" />
  <path
     class="Note"
     d="m 1905.912,450.70351 c 0,4.2625 3.069,9.02103 11.1135,9.02103 10.3076,0 21.1265,-8.43203 21.1265,-17.15854 0,-5.85901 -4.96,-9.12949 -11.1135,-9.12949 -9.6254,0 -21.1265,8.13749 -21.1265,17.267"
     id="path3470"
     style="stroke-width:0.992001" />
  <path
     class="Note"
     d="m 3627.742,74.858509 c 0,4.2625 3.069,9.021029 11.1135,9.021029 10.3076,0 21.1265,-8.432028 21.1265,-17.158542 0,-5.859006 -4.96,-9.129484 -11.1135,-9.129484 -9.6254,0 -21.1265,8.137483 -21.1265,17.266997"
     id="path3472"
     style="stroke-width:0.992001" />
  <path
     class="Note"
     d="m 564.628,149.25851 c 0,4.2625 3.069,9.02103 11.11349,9.02103 10.30758,0 21.12654,-8.43203 21.12654,-17.15854 0,-5.85901 -4.96,-9.12949 -11.11348,-9.12949 -9.62549,0 -21.12655,8.13749 -21.12655,17.267"
     id="path3474"
     style="stroke-width:0.992001" />
  <path
     class="Note"
     d="m 2077.162,450.70351 c 0,4.2625 3.069,9.02103 11.1135,9.02103 10.3076,0 21.1265,-8.43203 21.1265,-17.15854 0,-5.85901 -4.96,-9.12949 -11.1135,-9.12949 -9.6254,0 -21.1265,8.13749 -21.1265,17.267"
     id="path3476"
     style="stroke-width:0.992001" />
  <path
     class="Note"
     d="m 3688.302,99.658509 c 0,4.262501 3.069,9.021031 11.1135,9.021031 10.3076,0 21.1265,-8.43203 21.1265,-17.158544 0,-5.859006 -4.96,-9.129484 -11.1135,-9.129484 -9.6254,0 -21.1265,8.137483 -21.1265,17.266997"
     id="path3478"
     style="stroke-width:0.992001" />
  <path
     class="Note"
     d="m 2191.332,475.50051 c 0,4.2625 3.069,9.02103 11.1135,9.02103 10.3076,0 21.1265,-8.43203 21.1265,-17.15854 0,-5.85901 -4.96,-9.12949 -11.1135,-9.12949 -9.6254,0 -21.1265,8.13749 -21.1265,17.267"
     id="path3480"
     style="stroke-width:0.992001" />
  <path
     class="Note"
     d="m 2188.242,149.25851 c 0,4.2625 3.069,9.02103 11.1135,9.02103 10.3076,0 21.1265,-8.43203 21.1265,-17.15854 0,-5.85901 -4.96,-9.12949 -11.1135,-9.12949 -9.6254,0 -21.1265,8.13749 -21.1265,17.267"
     id="path3482"
     style="stroke-width:0.992001" />
  <path
     class="Note"
     d="m 2960.092,124.45851 c 0,4.2625 3.069,9.02103 11.1135,9.02103 10.3076,0 21.1265,-8.43203 21.1265,-17.15854 0,-5.85901 -4.96,-9.12949 -11.1135,-9.12949 -9.6254,0 -21.1265,8.13749 -21.1265,17.267"
     id="path3484"
     style="stroke-width:0.992001" />
  <path
     class="Note"
     d="m 631.713,161.65851 c 0,4.2625 3.069,9.02103 11.11349,9.02103 10.30758,0 21.12654,-8.43203 21.12654,-17.15854 0,-5.85901 -4.96,-9.12949 -11.11348,-9.12949 -9.62549,0 -21.12655,8.13749 -21.12655,17.267"
     id="path3486"
     style="stroke-width:0.992001" />
  <path
     class="Note"
     d="m 812.792,149.25851 c 0,4.2625 3.069,9.02103 11.11349,9.02103 10.30758,0 21.12654,-8.43203 21.12654,-17.15854 0,-5.85901 -4.96,-9.12949 -11.11348,-9.12949 -9.62549,0 -21.12655,8.13749 -21.12655,17.267"
     id="path3488"
     style="stroke-width:0.992001" />
  <path
     class="Note"
     d="m 2398.052,475.50051 c 0,4.2625 3.069,9.02103 11.1135,9.02103 10.3076,0 21.1265,-8.43203 21.1265,-17.15854 0,-5.85901 -4.96,-9.12949 -11.1135,-9.12949 -9.6254,0 -21.1265,8.13749 -21.1265,17.267"
     id="path3490"
     style="stroke-width:0.992001" />
  <path
     class="Note"
     d="m 939.092,149.25851 c 0,4.2625 3.069,9.02103 11.11349,9.02103 10.30758,0 21.12654,-8.43203 21.12654,-17.15854 0,-5.85901 -4.96,-9.12949 -11.11348,-9.12949 -9.62549,0 -21.12655,8.13749 -21.12655,17.267"
     id="path3492"
     style="stroke-width:0.992001" />
  <path
     class="Note"
     d="m 2533.3485,483.03351 c -9.6254,0 -21.1265,8.04448 -21.1265,17.267 0,4.2625 3.069,9.02103 11.1135,9.02103 10.3076,0 21.1265,-8.43203 21.1265,-17.15854 0,-5.85901 -4.96,-9.12949 -11.1135,-9.12949 m -2.6814,17.46849 c -0.2946,0.186 -7.5331,4.15401 -11.0051,4.15401 -3.2705,0 -3.968,-2.666 -3.968,-3.565 0,-4.16951 9.92,-9.02101 10.3231,-9.22252 0.3874,-0.20149 7.44,-4.1695 11.0049,-4.1695 2.3871,0 3.968,1.395 3.968,3.56501 0,4.278 -10.0129,9.03651 -10.3229,9.238"
     id="path3494"
     style="stroke-width:0.992001" />
  <path
     class="Note"
     d="m 1057.6985,131.99151 c -9.6254,0 -21.1265,8.04448 -21.1265,17.267 0,4.2625 3.069,9.02103 11.1135,9.02103 10.3076,0 21.1265,-8.43203 21.1265,-17.15854 0,-5.85901 -4.96,-9.12949 -11.1135,-9.12949 m -2.6814,17.46849 c -0.2946,0.186 -7.5331,4.15401 -11.0051,4.15401 -3.2705,0 -3.968,-2.666 -3.968,-3.565 0,-4.16951 9.92,-9.02101 10.3231,-9.22252 0.3874,-0.20149 7.44,-4.1695 11.0049,-4.1695 2.3871,0 3.968,1.395 3.968,3.56501 0,4.278 -10.0129,9.03651 -10.3229,9.238"
     id="path3496"
     style="stroke-width:0.992001" />
  <path
     class="Note"
     d="m 144.073,425.90351 c 0,4.2625 3.069,9.02103 11.11349,9.02103 10.30758,0 21.12654,-8.43203 21.12654,-17.15854 0,-5.85901 -4.96,-9.12949 -11.11348,-9.12949 -9.62549,0 -21.12655,8.13749 -21.12655,17.267"
     id="path3498"
     style="stroke-width:0.992001" />
  <path
     class="Note"
     d="m 1276.582,112.05851 c 0,4.2625 3.069,9.02103 11.1135,9.02103 10.3076,0 21.1265,-8.43203 21.1265,-17.15854 0,-5.85901 -4.96,-9.129488 -11.1135,-9.129488 -9.6254,0 -21.1265,8.137488 -21.1265,17.266998"
     id="path3500"
     style="stroke-width:0.992001" />
  <path
     class="Note"
     d="m 2918.732,500.30051 c 0,4.2625 3.069,9.02103 11.1135,9.02103 10.3076,0 21.1265,-8.43203 21.1265,-17.15854 0,-5.85901 -4.96,-9.12949 -11.1135,-9.12949 -9.6254,0 -21.1265,8.13749 -21.1265,17.267"
     id="path3502"
     style="stroke-width:0.992001" />
  <path
     class="Note"
     d="m 279.36855,433.43651 c -9.62549,0 -21.12655,8.04448 -21.12655,17.267 0,4.2625 3.069,9.02103 11.11349,9.02103 10.30758,0 21.12654,-8.43203 21.12654,-17.15854 0,-5.85901 -4.96,-9.12949 -11.11348,-9.12949 m -2.68148,17.46849 c -0.29453,0.186 -7.53306,4.15401 -11.00506,4.15401 -3.2705,0 -3.96801,-2.666 -3.96801,-3.565 0,-4.16951 9.92001,-9.02101 10.32306,-9.22252 0.38748,-0.20149 7.44001,-4.1695 11.00496,-4.1695 2.38706,0 3.96801,1.395 3.96801,3.56501 0,4.278 -10.01296,9.03651 -10.32296,9.238"
     id="path3504"
     style="stroke-width:0.992001" />
  <path
     class="Note"
     d="m 3135.822,487.90051 c 0,4.2625 3.069,9.02103 11.1135,9.02103 10.3076,0 21.1265,-8.43203 21.1265,-17.15854 0,-5.85901 -4.96,-9.12949 -11.1135,-9.12949 -9.6254,0 -21.1265,8.13749 -21.1265,17.267"
     id="path3506"
     style="stroke-width:0.992001" />
  <path
     class="Note"
     d="m 1337.142,124.45851 c 0,4.2625 3.069,9.02103 11.1135,9.02103 10.3076,0 21.1265,-8.43203 21.1265,-17.15854 0,-5.85901 -4.96,-9.12949 -11.1135,-9.12949 -9.6254,0 -21.1265,8.13749 -21.1265,17.267"
     id="path3508"
     style="stroke-width:0.992001" />
  <path
     class="Note"
     d="m 1427.972,124.45851 c 0,4.2625 3.069,9.02103 11.1135,9.02103 10.3076,0 21.1265,-8.43203 21.1265,-17.15854 0,-5.85901 -4.96,-9.12949 -11.1135,-9.12949 -9.6254,0 -21.1265,8.13749 -21.1265,17.267"
     id="path3510"
     style="stroke-width:0.992001" />
  <path
     class="Note"
     d="m 1488.532,112.05851 c 0,4.2625 3.069,9.02103 11.1135,9.02103 10.3076,0 21.1265,-8.43203 21.1265,-17.15854 0,-5.85901 -4.96,-9.129488 -11.1135,-9.129488 -9.6254,0 -21.1265,8.137488 -21.1265,17.266998"
     id="path3512"
     style="stroke-width:0.992001" />
  <path
     class="Note"
     d="m 3451.8085,433.43651 c -9.6254,0 -21.1265,8.04448 -21.1265,17.267 0,4.2625 3.069,9.02103 11.1135,9.02103 10.3076,0 21.1265,-8.43203 21.1265,-17.15854 0,-5.85901 -4.96,-9.12949 -11.1135,-9.12949 m -2.6814,17.46849 c -0.2946,0.186 -7.5331,4.15401 -11.0051,4.15401 -3.2705,0 -3.968,-2.666 -3.968,-3.565 0,-4.16951 9.92,-9.02101 10.3231,-9.22252 0.3874,-0.20149 7.44,-4.1695 11.0049,-4.1695 2.3871,0 3.968,1.395 3.968,3.56501 0,4.278 -10.0129,9.03651 -10.3229,9.238"
     id="path3514"
     style="stroke-width:0.992001" />
  <path
     class="Note"
     d="m 1614.832,112.05851 c 0,4.2625 3.069,9.02103 11.1135,9.02103 10.3076,0 21.1265,-8.43203 21.1265,-17.15854 0,-5.85901 -4.96,-9.129488 -11.1135,-9.129488 -9.6254,0 -21.1265,8.137488 -21.1265,17.266998"
     id="path3516"
     style="stroke-width:0.992001" />
  <path
     class="Clef"
     d="m 184.55957,228.61855 c 0,-3.67348 -3.36348,-5.25443 -6.63401,-5.25443 -4.16948,0 -8.24601,2.57295 -8.24601,7.03695 0,1.89106 0.69748,3.28601 2.09253,4.66548 -2.58853,0.992 -5.16158,2.97601 -5.16158,6.06053 0,3.27053 2.976,5.45601 7.34706,5.45601 5.34748,0 9.11401,-2.976 9.11401,-7.25401 0,-2.27852 -0.99201,-4.154 -2.77453,-5.456 2.88305,-1.28653 4.26253,-2.86748 4.26253,-5.25453 m -9.92001,15.87201 c -2.17001,0 -3.65801,-1.37947 -3.65801,-3.472 0,-1.984 0.88348,-3.56495 2.57296,-4.55696 0.40305,0.20148 0.496,0.20148 0.79052,0.38748 1.19348,0.60453 1.19348,0.60453 1.39505,0.806 1.87548,1.08505 2.68148,2.07705 2.68148,3.472 0,1.87548 -1.59653,3.36348 -3.782,3.36348 m 3.782,-11.90401 c -1.488,-0.79043 -1.89105,-0.992 -2.18548,-1.19348 l -0.20157,-0.093 c -1.488,-0.89905 -1.984,-1.59652 -1.984,-2.77452 0,-1.79801 1.39505,-3.08453 3.37905,-3.08453 1.87548,0 3.06895,1.19347 3.06895,3.27053 0,1.59652 -0.58895,2.68147 -2.07695,3.87495 m 27.6675,-75.29905 c 0,-14.97304 -10.61748,-25.09453 -25.09455,-25.09453 -0.992,-5.952 -1.89095,-11.81106 -2.77442,-17.36001 10.41601,-11.02054 17.74749,-23.513502 17.74749,-39.184042 0,-9.036534 -2.77453,-16.368017 -4.46401,-19.948149 -2.37147,-5.053253 -5.25453,-8.525256 -6.944,-8.525256 -0.682,0 -3.85948,1.193377 -7.03706,5.053253 -6.44801,7.548136 -8.23043,20.134148 -8.23043,28.473107 0,5.363055 0.496,10.214535 2.18547,21.436547 -0.10852,0 -5.27,5.25453 -7.34705,7.03706 -9.03644,8.33895 -21.5295,20.42897 -21.5295,40.17601 0,18.64657 16.16654,33.23206 34.62708,33.23206 2.86748,0 5.54896,-0.29452 7.93601,-0.69748 1.78243,9.43949 2.97601,16.47645 2.97601,21.73098 0,10.32306 -5.36306,15.77906 -15.37602,15.77906 -2.38705,0 -4.464,-0.496 -4.66558,-0.60452 -0.093,0 -0.29442,-0.0931 -0.29442,-0.186 0,-0.20148 0.20147,-0.31 0.496,-0.40305 4.66548,-0.69748 9.31548,-4.75843 9.31548,-11.00497 0,-5.36305 -4.06105,-11.02053 -11.50106,-11.02053 -6.94401,0 -11.31496,5.65748 -11.31496,12.19854 0,6.55653 4.96,15.19001 18.35202,15.19001 12.80296,0 19.04949,-7.25401 19.04949,-19.94854 0,-3.85948 -0.58895,-8.32349 -1.58095,-13.98097 -0.29453,-1.984 -0.79053,-5.06853 -1.488,-8.83506 9.71843,-3.27052 16.95696,-13.29896 16.95696,-23.51352 M 175.53851,75.943443 c 0.992,-3.968004 5.456,-14.384015 10.61758,-14.384015 1.48801,0 3.96801,4.758431 3.96801,11.702438 0,10.214535 -7.73454,17.964542 -14.58559,24.800025 -0.58895,-3.968004 -1.08495,-7.936008 -1.08495,-11.996963 0,-3.766529 0.38747,-7.052532 1.08495,-10.121485 m 2.976,102.579057 c -14.18244,0 -26.288,-9.92001 -26.288,-24.9085 0,-12.09007 8.52503,-22.90903 17.26704,-30.55051 1.674,-1.39505 3.27053,-2.77453 4.75853,-4.26253 0.88348,5.34748 1.58095,9.92001 2.27843,14.08949 -9.03644,2.57305 -15.17444,12.19854 -15.17444,21.42104 0,7.05251 5.456,16.56952 13.39201,16.56952 0.79043,0 1.68948,-0.40295 1.68948,-1.39495 0,-0.79052 -0.89905,-1.37957 -2.18548,-2.17005 -3.87505,-2.294 -6.06053,-4.96001 -6.06053,-9.73401 0,-6.04501 4.57253,-10.91206 10.32296,-12.29154 l 5.75053,32.53456 c -1.984,0.40305 -3.76653,0.69748 -5.75053,0.69748 m 9.92001,-1.89096 c -2.07695,-11.79553 -4.75843,-27.57455 -5.456,-31.9456 10.01306,0 14.29106,6.94405 15.17454,11.71806 0.10852,0.7905 0.29452,1.8755 0.29452,3.069 0,7.14551 -2.976,14.29107 -10.01306,17.15854"
     id="path3518"
     style="stroke-width:0.992001" />
  <path
     class="Clef"
     d="m 60.558567,554.86055 c 0,-3.67348 -3.363478,-5.25443 -6.634007,-5.25443 -4.169479,0 -8.246008,2.57295 -8.246008,7.03695 0,1.89106 0.697476,3.28601 2.092527,4.66548 -2.588527,0.992 -5.16158,2.97601 -5.16158,6.06053 0,3.27053 2.976003,5.45601 7.347057,5.45601 5.347481,0 9.11401,-2.976 9.11401,-7.25401 0,-2.27852 -0.992001,-4.154 -2.774528,-5.456 2.883053,-1.28653 4.262529,-2.86748 4.262529,-5.25453 m -9.92001,15.87201 c -2.170002,0 -3.658004,-1.37947 -3.658004,-3.472 0,-1.984 0.883476,-3.56495 2.572953,-4.55696 0.40305,0.20148 0.496001,0.20148 0.790526,0.38748 1.193476,0.60453 1.193476,0.60453 1.395051,0.806 1.875477,1.08505 2.681478,2.07705 2.681478,3.472 0,1.87548 -1.596526,3.36348 -3.782004,3.36348 m 3.782004,-11.90401 c -1.488002,-0.79043 -1.891052,-0.992 -2.185477,-1.19348 l -0.201575,-0.093 c -1.488002,-0.89905 -1.984002,-1.59652 -1.984002,-2.77452 0,-1.79801 1.395051,-3.08453 3.379053,-3.08453 1.875477,0 3.068953,1.19347 3.068953,3.27053 0,1.59652 -0.588951,2.68147 -2.076952,3.87495 m 27.667503,-75.299 c 0,-14.97304 -10.617486,-25.09453 -25.09455,-25.09453 -0.992001,-5.952 -1.890952,-11.81106 -2.774428,-17.36001 10.41601,-11.02054 17.747493,-23.5135 17.747493,-39.18404 0,-9.03654 -2.774528,-16.36802 -4.464005,-19.94815 -2.371477,-5.05325 -5.25453,-8.52526 -6.944007,-8.52526 -0.682001,0 -3.859479,1.19338 -7.037057,5.05326 -6.448006,7.54813 -8.230433,20.13414 -8.230433,28.4731 0,5.36306 0.496,10.21454 2.185477,21.43655 -0.108525,0 -5.270005,5.25453 -7.347057,7.03706 C 31.093062,443.75643 18.6,455.84645 18.6,475.59349 c 0,18.64657 16.166541,33.23206 34.627085,33.23206 2.867478,0 5.548955,-0.29452 7.936008,-0.69748 1.782427,9.43949 2.976003,16.47645 2.976003,21.73098 0,10.32306 -5.363056,15.77906 -15.376016,15.77906 -2.387052,0 -4.464004,-0.496 -4.665579,-0.60452 -0.09295,0 -0.294426,-0.093 -0.294426,-0.186 0,-0.20148 0.201475,-0.31 0.496001,-0.40305 4.665479,-0.69748 9.315484,-4.75843 9.315484,-11.00497 0,-5.36305 -4.061054,-11.02053 -11.501061,-11.02053 -6.944007,0 -11.314962,5.65748 -11.314962,12.19854 0,6.55653 4.960005,15.19001 18.352019,15.19001 12.802963,0 19.049494,-7.25401 19.049494,-19.94854 0,-3.85948 -0.588951,-8.32349 -1.580952,-13.98097 -0.294525,-1.984 -0.790526,-5.06853 -1.488001,-8.83506 9.718435,-3.27052 16.956967,-13.29896 16.956967,-23.51352 M 51.537508,402.18544 c 0.992001,-3.968 5.456006,-14.38401 10.617586,-14.38401 1.488001,0 3.968004,4.75843 3.968004,11.70244 0,10.21453 -7.734533,17.96454 -14.58559,24.80002 -0.588951,-3.968 -1.084951,-7.93601 -1.084951,-11.99696 0,-3.76653 0.387475,-7.05253 1.084951,-10.12149 m 2.976003,102.57906 c -14.182439,0 -26.287996,-9.92001 -26.287996,-24.9085 0,-12.09007 8.525028,-22.90903 17.267037,-30.55051 1.674002,-1.39505 3.270528,-2.77453 4.75853,-4.26253 0.883476,5.34748 1.580952,9.92001 2.278427,14.08949 -9.036434,2.57305 -15.17444,12.19854 -15.17444,21.42104 0,7.05251 5.456005,16.56952 13.392013,16.56952 0.790426,0 1.689477,-0.40295 1.689477,-1.39495 0,-0.79052 -0.899051,-1.37957 -2.185477,-2.17005 -3.875054,-2.294 -6.060531,-4.96001 -6.060531,-9.73401 0,-6.04501 4.572529,-10.91206 10.32296,-12.29154 l 5.750531,32.53456 c -1.984002,0.40305 -3.766529,0.69748 -5.750531,0.69748 m 9.92001,-1.89096 c -2.076952,-11.79553 -4.75843,-27.57455 -5.456005,-31.9456 10.01306,0 14.291064,6.94405 15.17454,11.71806 0.108525,0.7905 0.294525,1.8755 0.294525,3.069 0,7.14551 -2.976003,14.29107 -10.01306,17.15854"
     id="path3520"
     style="stroke-width:0.992001" />
  <path
     class="TimeSig"
     d="m 260.3855,106.804 c 7.93601,-3.08451 8.43201,-8.24601 8.43201,-10.028487 0,-0.201574 0,-0.387575 0,-0.496 0,-0.883576 -0.29442,-12.105587 -17.36002,-12.105587 -17.06549,0 -16.56949,12.105587 -16.56949,12.105587 h 0.093 l -0.093,0.201475 c 0,3.565002 2.883,6.355002 6.44801,6.355002 3.56505,0 6.35505,-2.79 6.35505,-6.355002 0,-2.883052 -2.18557,-5.657481 -4.96005,-6.246531 0.093,-0.108525 0.186,-0.201475 0.2945,-0.294525 1.37955,-0.992001 3.2705,-1.488002 5.16155,-1.488002 4.15401,0 8.61801,2.480003 8.61801,7.827583 0,6.246477 -4.65,7.145487 -5.84358,7.346977 -1.19347,0.20151 -6.74243,0.589 -7.93598,0.589 -1.1935,0 -1.2865,1.395 -1.2865,1.395 v 1.98401 c 0,0 0.186,1.085 1.2865,1.1935 1.68955,0.093 3.96798,0.093 7.14556,0.589 4.35548,0.589 6.634,3.565 6.634,10.50906 0,6.64948 -4.464,8.43201 -8.61801,8.43201 -2.79,0 -5.36305,-0.79053 -6.44805,-1.58105 3.27048,-0.20148 5.95205,-3.06895 5.95205,-6.35496 0,-3.56505 -2.79,-6.44805 -6.35505,-6.44805 -3.56501,0 -6.44801,2.883 -6.44801,6.44805 0,0 0,0.20148 0,0.40295 0,1.28653 0.29451,4.86706 3.87501,8.13749 3.8595,3.56505 8.72648,3.67357 10.91206,3.67357 9.51696,0 19.84002,-3.286 19.84002,-14.08958 0,-7.23849 -4.96001,-10.32299 -9.33106,-11.70249 h 0.20147"
     id="path3522"
     style="stroke-width:0.992001" />
  <path
     class="TimeSig"
     d="m 250.12455,170.09049 v 7.33158 h -8.23054 c -0.69747,0 -1.39495,0.60443 -1.39495,1.39495 v 1.89105 c 0,0.79043 0.69748,1.37948 1.39495,1.37948 h 30.05456 c 0.806,0 1.39495,-0.58905 1.39495,-1.37948 v -1.89105 c 0,-0.79052 -0.58895,-1.39495 -1.39495,-1.39495 h -8.92801 v -7.33158 h 8.92801 c 0.806,0 1.39495,-0.69748 1.39495,-1.488 v -1.89098 c 0,-0.6975 -0.58895,-1.3795 -1.39495,-1.3795 h -8.92801 v -15.77902 c 0,-0.589 -0.29453,-1.085 -0.682,-1.2865 l -1.19348,-0.6045 c -0.20157,-0.093 -0.29452,-0.093 -0.496,-0.093 -0.10852,0 -0.10852,0 -0.20157,0 -0.29443,0 -0.69748,0.093 -0.89895,0.2945 l -9.02106,8.23051 c -0.29443,0.31 -0.40295,0.6975 -0.40295,1.1005 v 8.13751 h -11.50104 c 0,0 11.11356,-11.90401 22.816,-27.59008 0.40305,-0.496 0.496,-0.992 0.496,-1.37948 0,-0.496 -0.20148,-0.89895 -0.29443,-0.992 l -2.18557,-2.18547 c -0.29443,-0.20148 -0.58896,-0.40305 -0.99201,-0.40305 -0.58895,0 -13.99644,0 -14.78696,0 -0.69748,0 -1.19348,0.60452 -1.28653,1.19357 0,0 -0.496,7.34696 -3.069,15.37599 -2.5885,8.04451 -5.5645,13.00451 -8.1375,16.66252 0,0 -0.29451,0.496 -0.29451,1.1005 0,0.2015 0,0.38755 0.093,0.58903 0.29451,0.69747 0.992,1.78252 0.992,1.78252 0,0 0.20151,0.60443 1.085,0.60443 h 17.06555"
     id="path3524"
     style="stroke-width:0.992001" />
  <path
     class="Rest"
     d="m 541.6105,438.79645 c -0.0929,0 -0.29442,-0.10852 -0.40295,-0.10852 -0.58905,0 -1.08505,0.31 -1.28653,0.806 -0.40295,0.58905 -3.472,6.44801 -7.936,9.71856 -1.28653,0.992 -2.88296,1.6895 -4.46401,1.984 1.08505,-1.2865 1.78253,-2.88298 1.78253,-4.75855 0,-3.87496 -3.17748,-7.05243 -7.03703,-7.05243 -3.968,0 -7.14551,3.17747 -7.14551,7.05243 0,3.06905 1.891,5.54905 4.464,6.63405 1.48801,0.6975 3.47201,1.1935 5.45601,1.1935 2.88305,0 5.95201,-0.8835 8.63348,-2.8675 1.19358,-0.899 2.37158,-2.0925 3.47201,-3.28605 l -11.31496,35.32456 2.68147,0.79053 13.88802,-43.7411 c 0.10852,-0.10842 0.10852,-0.31 0.10852,-0.496 0,-0.496 -0.31,-0.89895 -0.89905,-1.19348"
     id="path3526"
     style="stroke-width:0.992001" />
  <path
     class="Rest"
     d="m 1668.6015,438.79645 c -0.093,0 -0.2944,-0.10852 -0.4029,-0.10852 -0.5891,0 -1.0851,0.31 -1.2866,0.806 -0.4029,0.58905 -3.472,6.44801 -7.936,9.71856 -1.2865,0.992 -2.8829,1.6895 -4.464,1.984 1.0851,-1.2865 1.7825,-2.88298 1.7825,-4.75855 0,-3.87496 -3.1774,-7.05243 -7.037,-7.05243 -3.968,0 -7.1455,3.17747 -7.1455,7.05243 0,3.06905 1.891,5.54905 4.464,6.63405 1.488,0.6975 3.472,1.1935 5.456,1.1935 2.8831,0 5.952,-0.8835 8.6335,-2.8675 1.1936,-0.899 2.3716,-2.0925 3.472,-3.28605 l -11.315,35.32456 2.6815,0.79053 13.888,-43.7411 c 0.1086,-0.10842 0.1086,-0.31 0.1086,-0.496 0,-0.496 -0.31,-0.89895 -0.8991,-1.19348"
     id="path3528"
     style="stroke-width:0.992001" />
  <path
     class="Rest"
     d="m 2795.5915,438.79645 c -0.093,0 -0.2944,-0.10852 -0.4029,-0.10852 -0.5891,0 -1.0851,0.31 -1.2866,0.806 -0.4029,0.58905 -3.472,6.44801 -7.936,9.71856 -1.2865,0.992 -2.8829,1.6895 -4.464,1.984 1.0851,-1.2865 1.7825,-2.88298 1.7825,-4.75855 0,-3.87496 -3.1774,-7.05243 -7.037,-7.05243 -3.968,0 -7.1455,3.17747 -7.1455,7.05243 0,3.06905 1.891,5.54905 4.464,6.63405 1.488,0.6975 3.472,1.1935 5.456,1.1935 2.8831,0 5.952,-0.8835 8.6335,-2.8675 1.1936,-0.899 2.3716,-2.0925 3.472,-3.28605 l -11.315,35.32456 2.6815,0.79053 13.888,-43.7411 c 0.1086,-0.10842 0.1086,-0.31 0.1086,-0.496 0,-0.496 -0.31,-0.89895 -0.8991,-1.19348"
     id="path3530"
     style="stroke-width:0.992001" />
  <path
     class="Rest"
     d="m 2574.7615,112.55445 c -0.093,0 -0.2944,-0.10852 -0.4029,-0.10852 -0.5891,0 -1.0851,0.31 -1.2866,0.806 -0.4029,0.58905 -3.472,6.44801 -7.936,9.71856 -1.2865,0.992 -2.8829,1.6895 -4.464,1.984 1.0851,-1.2865 1.7825,-2.88298 1.7825,-4.75855 0,-3.87496 -3.1774,-7.05243 -7.037,-7.05243 -3.968,0 -7.1455,3.17747 -7.1455,7.05243 0,3.06905 1.891,5.54905 4.464,6.63405 1.488,0.6975 3.472,1.1935 5.456,1.1935 2.8831,0 5.952,-0.8835 8.6335,-2.8675 1.1936,-0.899 2.3716,-2.0925 3.472,-3.28605 l -11.315,35.32456 2.6815,0.79053 13.888,-43.7411 c 0.1086,-0.10842 0.1086,-0.31 0.1086,-0.496 0,-0.496 -0.31,-0.89895 -0.8991,-1.19348"
     id="path3532"
     style="stroke-width:0.992001" />
  <path
     class="Rest"
     d="m 1847.2915,112.55445 c -0.093,0 -0.2944,-0.10852 -0.4029,-0.10852 -0.5891,0 -1.0851,0.31 -1.2866,0.806 -0.4029,0.58905 -3.472,6.44801 -7.936,9.71856 -1.2865,0.992 -2.8829,1.6895 -4.464,1.984 1.0851,-1.2865 1.7825,-2.88298 1.7825,-4.75855 0,-3.87496 -3.1774,-7.05243 -7.037,-7.05243 -3.968,0 -7.1455,3.17747 -7.1455,7.05243 0,3.06905 1.891,5.54905 4.464,6.63405 1.488,0.6975 3.472,1.1935 5.456,1.1935 2.8831,0 5.952,-0.8835 8.6335,-2.8675 1.1936,-0.899 2.3716,-2.0925 3.472,-3.28605 l -11.315,35.32456 2.6815,0.79053 13.888,-43.7411 c 0.1086,-0.10842 0.1086,-0.31 0.1086,-0.496 0,-0.496 -0.31,-0.89895 -0.8991,-1.19348"
     id="path3534"
     style="stroke-width:0.992001" />
  <path
     class="Rest"
     d="m 1199.3115,112.55445 c -0.093,0 -0.2944,-0.10852 -0.4029,-0.10852 -0.5891,0 -1.0851,0.31 -1.2866,0.806 -0.4029,0.58905 -3.472,6.44801 -7.936,9.71856 -1.2865,0.992 -2.8829,1.6895 -4.464,1.984 1.0851,-1.2865 1.7825,-2.88298 1.7825,-4.75855 0,-3.87496 -3.1774,-7.05243 -7.037,-7.05243 -3.968,0 -7.1455,3.17747 -7.1455,7.05243 0,3.06905 1.891,5.54905 4.464,6.63405 1.488,0.6975 3.472,1.1935 5.456,1.1935 2.8831,0 5.952,-0.8835 8.6335,-2.8675 1.1936,-0.899 2.3716,-2.0925 3.472,-3.28605 l -11.315,35.32456 2.6815,0.79053 13.888,-43.7411 c 0.1086,-0.10842 0.1086,-0.31 0.1086,-0.496 0,-0.496 -0.31,-0.89895 -0.8991,-1.19348"
     id="path3536"
     style="stroke-width:0.992001" />
  <path
     class="VoltaSegment"
     d="m 2650.952,16.988 h -1.92 c -3.47,2.594 -7.38,3.687 -13.92,3.797 v 3.078 h 2.31 c 4.89,0 4.95,0.109 4.89,4.625 v 19.515 c 0,3.407 0,3.579 -0.37,4.125 -0.5,0.61 -1.61,0.829 -4.58,0.829 h -1.75 v 2.968 h 21.93 v -2.968 h -1.76 c -2.91,0 -3.95,-0.219 -4.45,-0.829 -0.38,-0.546 -0.38,-0.765 -0.38,-4.125 V 16.988 m 19.24,29.422 c -2.86,0 -5.18,2.312 -5.18,5.172 0,2.796 2.32,5.171 5.13,5.171 2.9,0 5.22,-2.312 5.22,-5.171 0,-2.86 -2.32,-5.172 -5.17,-5.172"
     id="path3538" />
  <polyline
     class="VoltaSegment"
     fill="none"
     stroke="#000000"
     stroke-width="2.73"
     stroke-linejoin="miter"
     stroke-miterlimit="2"
     points="2832.26,607.034 2832.26,552.474 3115.78,552.474 3115.78,607.034"
     id="polyline3540"
     transform="translate(-212.598,-551.109)" />
  <path
     class="VoltaSegment"
     d="m 2967.842,41.3 -0.61,2.75 c -0.5,2.203 -0.82,2.907 -1.26,3.188 -0.55,0.39 -0.66,0.39 -4.13,0.437 h -10.61 c 1.93,-1.656 3.36,-2.687 5.5,-4.125 7.75,-5 9.35,-6.218 10.94,-8.25 1.88,-2.468 2.97,-5.39 2.97,-7.968 0,-5.891 -5.77,-10.344 -13.52,-10.344 -7.48,0 -13.26,4.844 -13.26,11.109 0,3.844 2.16,6.328 5.45,6.328 2.86,0 4.67,-1.812 4.67,-4.672 0,-2.375 -1.04,-3.75 -3.57,-4.953 -0.61,-0.281 -0.88,-0.609 -0.88,-1.047 0,-1.765 2.97,-3.625 5.72,-3.625 3.84,0 6.05,2.36 6.05,6.438 0,4.562 -1.77,7.797 -7.6,14.016 -6.15,6.546 -8.29,9.015 -11.04,12.984 v 2.578 c 1.42,-0.156 2.03,-0.219 2.86,-0.219 h 20.67 c 1.04,0 1.7,0.063 3.36,0.219 l 1.26,-14.844 h -2.97 m 13.41,5.11 c -2.86,0 -5.17,2.312 -5.17,5.172 0,2.796 2.31,5.171 5.12,5.171 2.91,0 5.22,-2.312 5.22,-5.171 0,-2.86 -2.31,-5.172 -5.17,-5.172"
     id="path3542" />
  <polyline
     class="VoltaSegment"
     fill="none"
     stroke="#000000"
     stroke-width="2.73"
     stroke-linejoin="miter"
     stroke-miterlimit="2"
     points="3140.33,607.034 3140.33,552.474 3404.36,552.474"
     id="polyline3544"
     transform="translate(-212.598,-551.109)" />
  <path
     class="NoteDot"
     d="m 3004.722,120.289 c 0,2.77451 2.1855,4.96001 4.96,4.96001 2.7745,0 4.96,-2.1855 4.96,-4.96001 0,-2.77451 -2.1855,-4.96 -4.96,-4.96 -2.7745,0 -4.96,2.18549 -4.96,4.96"
     id="path3546"
     style="stroke-width:0.992001" />
  <path
     class="NoteDot"
     d="m 3119.872,95.489 c 0,2.774508 2.1855,4.96001 4.96,4.96001 2.7745,0 4.96,-2.185502 4.96,-4.96001 0,-2.774508 -2.1855,-4.960005 -4.96,-4.960005 -2.7745,0 -4.96,2.185497 -4.96,4.960005"
     id="path3548"
     style="stroke-width:0.992001" />
  <path
     class="NoteDot"
     d="m 2696.652,145.089 c 0,2.77451 2.1855,4.96001 4.96,4.96001 2.7745,0 4.96,-2.1855 4.96,-4.96001 0,-2.77451 -2.1855,-4.96 -4.96,-4.96 -2.7745,0 -4.96,2.18549 -4.96,4.96"
     id="path3550"
     style="stroke-width:0.992001" />
  <path
     class="NoteDot"
     d="m 2811.802,145.089 c 0,2.77451 2.1855,4.96001 4.96,4.96001 2.7745,0 4.96,-2.1855 4.96,-4.96001 0,-2.77451 -2.1855,-4.96 -4.96,-4.96 -2.7745,0 -4.96,2.18549 -4.96,4.96"
     id="path3552"
     style="stroke-width:0.992001" />
  <path
     class="NoteDot"
     d="m 2963.352,496.131 c 0,2.77451 2.1855,4.96001 4.96,4.96001 2.7745,0 4.96,-2.1855 4.96,-4.96001 0,-2.77451 -2.1855,-4.96 -4.96,-4.96 -2.7745,0 -4.96,2.18549 -4.96,4.96"
     id="path3554"
     style="stroke-width:0.992001" />
  <path
     class="NoteDot"
     d="m 3312.782,95.489 c 0,2.774508 2.1855,4.96001 4.96,4.96001 2.7745,0 4.96,-2.185502 4.96,-4.96001 0,-2.774508 -2.1855,-4.960005 -4.96,-4.960005 -2.7745,0 -4.96,2.185497 -4.96,4.960005"
     id="path3556"
     style="stroke-width:0.992001" />
  <path
     class="NoteDot"
     d="m 3180.452,471.331 c 0,2.77451 2.1855,4.96001 4.96,4.96001 2.7745,0 4.96,-2.1855 4.96,-4.96001 0,-2.77451 -2.1855,-4.96 -4.96,-4.96 -2.7745,0 -4.96,2.18549 -4.96,4.96"
     id="path3558"
     style="stroke-width:0.992001" />
  <path
     class="NoteDot"
     d="m 385.548,145.089 c 0,2.77451 2.18551,4.96001 4.96001,4.96001 2.7745,0 4.96,-2.1855 4.96,-4.96001 0,-2.77451 -2.1855,-4.96 -4.96,-4.96 -2.7745,0 -4.96001,2.18549 -4.96001,4.96"
     id="path3560"
     style="stroke-width:0.992001" />
  <path
     class="NoteDot"
     d="m 3475.302,446.534 c 0,2.77451 2.1855,4.96001 4.96,4.96001 2.7745,0 4.96,-2.1855 4.96,-4.96001 0,-2.77451 -2.1855,-4.96 -4.96,-4.96 -2.7745,0 -4.96,2.18549 -4.96,4.96"
     id="path3562"
     style="stroke-width:0.992001" />
</svg>
