<?xml version="1.0" encoding="UTF-8" standalone="no"?>
<svg
   xmlns:dc="http://purl.org/dc/elements/1.1/"
   xmlns:cc="http://creativecommons.org/ns#"
   xmlns:rdf="http://www.w3.org/1999/02/22-rdf-syntax-ns#"
   xmlns:svg="http://www.w3.org/2000/svg"
   xmlns="http://www.w3.org/2000/svg"
   xmlns:sodipodi="http://sodipodi.sourceforge.net/DTD/sodipodi-0.dtd"
   xmlns:inkscape="http://www.inkscape.org/namespaces/inkscape"
   width="258.20526mm"
   height="17.34993mm"
   viewBox="0 0 3659.6022 245.90452"
   version="1.2"
   id="svg2145"
   sodipodi:docname="Dossium Canto Brief Musica.svg"
   inkscape:version="1.0.2-2 (e86c870879, 2021-01-15)">
  <metadata
     id="metadata2151">
    <rdf:RDF>
      <cc:Work
         rdf:about="">
        <dc:format>image/svg+xml</dc:format>
        <dc:type
           rdf:resource="http://purl.org/dc/dcmitype/StillImage" />
      </cc:Work>
    </rdf:RDF>
  </metadata>
  <defs
     id="defs2149" />
  <sodipodi:namedview
     pagecolor="#ffffff"
     bordercolor="#666666"
     borderopacity="1"
     objecttolerance="10"
     gridtolerance="10"
     guidetolerance="10"
     inkscape:pageopacity="0"
     inkscape:pageshadow="2"
     inkscape:window-width="1920"
     inkscape:window-height="991"
     id="namedview2147"
     showgrid="false"
     inkscape:zoom="1.0328497"
     inkscape:cx="471.36053"
     inkscape:cy="255.95467"
     inkscape:window-x="-9"
     inkscape:window-y="-9"
     inkscape:window-maximized="1"
     inkscape:current-layer="svg2145" />
  <title
     id="title1879">Dossium Canto Brief Musica</title>
  <desc
     id="desc1881">Generated by MuseScore Studio 4.5.2</desc>
  <polyline
     class="StaffLines"
     fill="none"
     stroke="#000000"
     stroke-width="2.73"
     stroke-linejoin="bevel"
     points="336.598,634.198 3996.2,634.198"
     id="polyline1883"
     transform="translate(-336.598,-528.77)" />
  <polyline
     class="StaffLines"
     fill="none"
     stroke="#000000"
     stroke-width="2.73"
     stroke-linejoin="bevel"
     points="336.598,658.998 3996.2,658.998"
     id="polyline1885"
     transform="translate(-336.598,-528.77)" />
  <polyline
     class="StaffLines"
     fill="none"
     stroke="#000000"
     stroke-width="2.73"
     stroke-linejoin="bevel"
     points="336.598,683.798 3996.2,683.798"
     id="polyline1887"
     transform="translate(-336.598,-528.77)" />
  <polyline
     class="StaffLines"
     fill="none"
     stroke="#000000"
     stroke-width="2.73"
     stroke-linejoin="bevel"
     points="336.598,708.598 3996.2,708.598"
     id="polyline1889"
     transform="translate(-336.598,-528.77)" />
  <polyline
     class="StaffLines"
     fill="none"
     stroke="#000000"
     stroke-width="2.73"
     stroke-linejoin="bevel"
     points="336.598,733.398 3996.2,733.398"
     id="polyline1891"
     transform="translate(-336.598,-528.77)" />
  <path
     class="TieSegment"
     stroke="#000000"
     stroke-width="1.24"
     stroke-linecap="round"
     stroke-linejoin="round"
     fill-rule="evenodd"
     d="m 3224.282,222.725 c 10.89,12.504 43.57,12.504 54.47,0 -10.9,18.65 -43.58,18.65 -54.47,0"
     id="path1899" />
  <path
     class="TieSegment"
     stroke="#000000"
     stroke-width="1.24"
     stroke-linecap="round"
     stroke-linejoin="round"
     fill-rule="evenodd"
     d="m 2483.062,185.525 c 10.9,12.504 43.58,12.504 54.47,0 -10.89,18.65 -43.57,18.65 -54.47,0"
     id="path1901" />
  <path
     class="TieSegment"
     stroke="#000000"
     stroke-width="1.24"
     stroke-linecap="round"
     stroke-linejoin="round"
     fill-rule="evenodd"
     d="m 1116.772,185.525 c 10.89,12.504 43.57,12.504 54.47,0 -10.9,18.65 -43.58,18.65 -54.47,0"
     id="path1903" />
  <polyline
     class="BarLine"
     fill="none"
     stroke="#000000"
     stroke-width="4.46"
     stroke-linejoin="bevel"
     points="1164.72,632.834 1164.72,734.762"
     id="polyline1905"
     transform="translate(-336.598,-528.77)" />
  <polyline
     class="BarLine"
     fill="none"
     stroke="#000000"
     stroke-width="4.46"
     stroke-linejoin="bevel"
     points="1863.64,632.834 1863.64,734.762"
     id="polyline1907"
     transform="translate(-336.598,-528.77)" />
  <path
     class="BarLine"
     d="m 2901.425,142.628 c 0,-2.883 -2.294,-5.2545 -5.1615,-5.2545 -2.883,0 -5.1615,2.3715 -5.1615,5.2545 0,2.883 2.2785,5.2545 5.1615,5.2545 2.8675,0 5.1615,-2.3715 5.1615,-5.2545"
     id="path1909"
     style="stroke-width:0.992" />
  <path
     class="BarLine"
     d="m 2901.425,167.428 c 0,-2.883 -2.294,-5.2545 -5.1615,-5.2545 -2.883,0 -5.1615,2.3715 -5.1615,5.2545 0,2.883 2.2785,5.2545 5.1615,5.2545 2.8675,0 5.1615,-2.3715 5.1615,-5.2545"
     id="path1911"
     style="stroke-width:0.992" />
  <polyline
     class="BarLine"
     fill="none"
     stroke="#000000"
     stroke-width="4.46"
     stroke-linejoin="bevel"
     points="3249.42,632.834 3249.42,734.762"
     id="polyline1913"
     transform="translate(-336.598,-528.77)" />
  <polyline
     class="BarLine"
     fill="none"
     stroke="#000000"
     stroke-width="13.64"
     stroke-linejoin="bevel"
     points="3267.65,632.834 3267.65,734.762"
     id="polyline1915"
     transform="translate(-336.598,-528.77)" />
  <polyline
     class="BarLine"
     fill="none"
     stroke="#000000"
     stroke-width="4.46"
     stroke-linejoin="bevel"
     points="2211.55,632.834 2211.55,734.762"
     id="polyline1917"
     transform="translate(-336.598,-528.77)" />
  <polyline
     class="BarLine"
     fill="none"
     stroke="#000000"
     stroke-width="4.46"
     stroke-linejoin="bevel"
     points="3674.26,632.834 3674.26,734.762"
     id="polyline1919"
     transform="translate(-336.598,-528.77)" />
  <polyline
     class="BarLine"
     fill="none"
     stroke="#000000"
     stroke-width="4.46"
     stroke-linejoin="bevel"
     points="845.262,632.834 845.262,734.762"
     id="polyline1921"
     transform="translate(-336.598,-528.77)" />
  <polyline
     class="BarLine"
     fill="none"
     stroke="#000000"
     stroke-width="4.46"
     stroke-linejoin="bevel"
     points="2933.04,632.834 2933.04,734.762"
     id="polyline1923"
     transform="translate(-336.598,-528.77)" />
  <polyline
     class="BarLine"
     fill="none"
     stroke="#000000"
     stroke-width="4.46"
     stroke-linejoin="bevel"
     points="1566.75,632.834 1566.75,734.762"
     id="polyline1925"
     transform="translate(-336.598,-528.77)" />
  <polyline
     class="BarLine"
     fill="none"
     stroke="#000000"
     stroke-width="4.46"
     stroke-linejoin="bevel"
     points="3971.15,632.834 3971.15,734.762"
     id="polyline1927"
     transform="translate(-336.598,-528.77)" />
  <polyline
     class="BarLine"
     fill="none"
     stroke="#000000"
     stroke-width="13.64"
     stroke-linejoin="bevel"
     points="3989.38,632.834 3989.38,734.762"
     id="polyline1929"
     transform="translate(-336.598,-528.77)" />
  <polyline
     class="BarLine"
     fill="none"
     stroke="#000000"
     stroke-width="4.46"
     stroke-linejoin="bevel"
     points="2531.02,632.834 2531.02,734.762"
     id="polyline1931"
     transform="translate(-336.598,-528.77)" />
  <polyline
     class="LedgerLine"
     fill="none"
     stroke="#000000"
     stroke-width="3.97"
     stroke-linejoin="bevel"
     points="3758.73,758.198 3807.32,758.198"
     id="polyline1933"
     transform="translate(-336.598,-528.77)" />
  <polyline
     class="Stem"
     fill="none"
     stroke="#000000"
     stroke-width="2.48"
     stroke-linejoin="bevel"
     points="1690.39,717.03 1690.39,634.198"
     id="polyline1935"
     transform="translate(-336.598,-528.77)" />
  <polyline
     class="Stem"
     fill="none"
     stroke="#000000"
     stroke-width="2.48"
     stroke-linejoin="bevel"
     points="2275.77,741.83 2275.77,659.197"
     id="polyline1937"
     transform="translate(-336.598,-528.77)" />
  <polyline
     class="Stem"
     fill="none"
     stroke="#000000"
     stroke-width="2.48"
     stroke-linejoin="bevel"
     points="2342.85,717.03 2342.85,634.198"
     id="polyline1939"
     transform="translate(-336.598,-528.77)" />
  <polyline
     class="Stem"
     fill="none"
     stroke="#000000"
     stroke-width="2.48"
     stroke-linejoin="bevel"
     points="2476.56,741.83 2476.56,659.197"
     id="polyline1941"
     transform="translate(-336.598,-528.77)" />
  <polyline
     class="Stem"
     fill="none"
     stroke="#000000"
     stroke-width="2.48"
     stroke-linejoin="bevel"
     points="2595.23,729.43 2595.23,640.335"
     id="polyline1943"
     transform="translate(-336.598,-528.77)" />
  <polyline
     class="Stem"
     fill="none"
     stroke="#000000"
     stroke-width="2.48"
     stroke-linejoin="bevel"
     points="561.565,729.43 561.565,646.797"
     id="polyline1945"
     transform="translate(-336.598,-528.77)" />
  <polyline
     class="Stem"
     fill="none"
     stroke="#000000"
     stroke-width="2.48"
     stroke-linejoin="bevel"
     points="2654.66,717.03 2654.66,637.298"
     id="polyline1947"
     transform="translate(-336.598,-528.77)" />
  <polyline
     class="Stem"
     fill="none"
     stroke="#000000"
     stroke-width="2.48"
     stroke-linejoin="bevel"
     points="2714.09,704.63 2714.09,634.262"
     id="polyline1949"
     transform="translate(-336.598,-528.77)" />
  <polyline
     class="Stem"
     fill="none"
     stroke="#000000"
     stroke-width="2.48"
     stroke-linejoin="bevel"
     points="628.649,704.63 628.649,621.798"
     id="polyline1951"
     transform="translate(-336.598,-528.77)" />
  <polyline
     class="Stem"
     fill="none"
     stroke="#000000"
     stroke-width="2.48"
     stroke-linejoin="bevel"
     points="2773.51,679.83 2773.51,615.662"
     id="polyline1953"
     transform="translate(-336.598,-528.77)" />
  <polyline
     class="Stem"
     fill="none"
     stroke="#000000"
     stroke-width="2.48"
     stroke-linejoin="bevel"
     points="2832.94,692.23 2832.94,618.698"
     id="polyline1955"
     transform="translate(-336.598,-528.77)" />
  <polyline
     class="Stem"
     fill="none"
     stroke="#000000"
     stroke-width="2.48"
     stroke-linejoin="bevel"
     points="717.79,729.43 717.79,646.797"
     id="polyline1957"
     transform="translate(-336.598,-528.77)" />
  <polyline
     class="Stem"
     fill="none"
     stroke="#000000"
     stroke-width="2.48"
     stroke-linejoin="bevel"
     points="784.874,704.63 784.874,621.798"
     id="polyline1959"
     transform="translate(-336.598,-528.77)" />
  <polyline
     class="Stem"
     fill="none"
     stroke="#000000"
     stroke-width="2.48"
     stroke-linejoin="bevel"
     points="2892.37,692.23 2892.37,621.735"
     id="polyline1961"
     transform="translate(-336.598,-528.77)" />
  <polyline
     class="Stem"
     fill="none"
     stroke="#000000"
     stroke-width="2.48"
     stroke-linejoin="bevel"
     points="2997.26,704.63 2997.26,621.997"
     id="polyline1963"
     transform="translate(-336.598,-528.77)" />
  <polyline
     class="Stem"
     fill="none"
     stroke="#000000"
     stroke-width="2.48"
     stroke-linejoin="bevel"
     points="909.478,729.43 909.478,646.797"
     id="polyline1965"
     transform="translate(-336.598,-528.77)" />
  <polyline
     class="Stem"
     fill="none"
     stroke="#000000"
     stroke-width="2.48"
     stroke-linejoin="bevel"
     points="3056.68,729.43 3056.68,646.598"
     id="polyline1967"
     transform="translate(-336.598,-528.77)" />
  <polyline
     class="Stem"
     fill="none"
     stroke="#000000"
     stroke-width="2.48"
     stroke-linejoin="bevel"
     points="976.562,704.63 976.562,621.798"
     id="polyline1969"
     transform="translate(-336.598,-528.77)" />
  <polyline
     class="Stem"
     fill="none"
     stroke="#000000"
     stroke-width="2.48"
     stroke-linejoin="bevel"
     points="3336.45,729.43 3336.45,640.335"
     id="polyline1971"
     transform="translate(-336.598,-528.77)" />
  <polyline
     class="Stem"
     fill="none"
     stroke="#000000"
     stroke-width="2.48"
     stroke-linejoin="bevel"
     points="3395.88,717.03 3395.88,637.298"
     id="polyline1973"
     transform="translate(-336.598,-528.77)" />
  <polyline
     class="Stem"
     fill="none"
     stroke="#000000"
     stroke-width="2.48"
     stroke-linejoin="bevel"
     points="1110.27,729.43 1110.27,646.797"
     id="polyline1975"
     transform="translate(-336.598,-528.77)" />
  <polyline
     class="Stem"
     fill="none"
     stroke="#000000"
     stroke-width="2.48"
     stroke-linejoin="bevel"
     points="3455.3,704.63 3455.3,634.262"
     id="polyline1977"
     transform="translate(-336.598,-528.77)" />
  <polyline
     class="Stem"
     fill="none"
     stroke="#000000"
     stroke-width="2.48"
     stroke-linejoin="bevel"
     points="1228.94,717.03 1228.94,615.472"
     id="polyline1979"
     transform="translate(-336.598,-528.77)" />
  <polyline
     class="Stem"
     fill="none"
     stroke="#000000"
     stroke-width="2.48"
     stroke-linejoin="bevel"
     points="3514.73,717.03 3514.73,652.862"
     id="polyline1981"
     transform="translate(-336.598,-528.77)" />
  <polyline
     class="Stem"
     fill="none"
     stroke="#000000"
     stroke-width="2.48"
     stroke-linejoin="bevel"
     points="3574.16,729.43 3574.16,655.898"
     id="polyline1983"
     transform="translate(-336.598,-528.77)" />
  <polyline
     class="Stem"
     fill="none"
     stroke="#000000"
     stroke-width="2.48"
     stroke-linejoin="bevel"
     points="1288.37,704.63 1288.37,609.398"
     id="polyline1985"
     transform="translate(-336.598,-528.77)" />
  <polyline
     class="Stem"
     fill="none"
     stroke="#000000"
     stroke-width="2.48"
     stroke-linejoin="bevel"
     points="3633.58,729.43 3633.58,658.935"
     id="polyline1987"
     transform="translate(-336.598,-528.77)" />
  <polyline
     class="Stem"
     fill="none"
     stroke="#000000"
     stroke-width="2.48"
     stroke-linejoin="bevel"
     points="1347.79,667.43 1347.79,603.325"
     id="polyline1989"
     transform="translate(-336.598,-528.77)" />
  <polyline
     class="Stem"
     fill="none"
     stroke="#000000"
     stroke-width="2.48"
     stroke-linejoin="bevel"
     points="3738.47,741.83 3738.47,659.197"
     id="polyline1991"
     transform="translate(-336.598,-528.77)" />
  <polyline
     class="Stem"
     fill="none"
     stroke="#000000"
     stroke-width="2.48"
     stroke-linejoin="bevel"
     points="1407.22,679.83 1407.22,615.662"
     id="polyline1993"
     transform="translate(-336.598,-528.77)" />
  <polyline
     class="Stem"
     fill="none"
     stroke="#000000"
     stroke-width="2.48"
     stroke-linejoin="bevel"
     points="3797.9,754.23 3797.9,671.398"
     id="polyline1995"
     transform="translate(-336.598,-528.77)" />
  <polyline
     class="Stem"
     fill="none"
     stroke="#000000"
     stroke-width="2.48"
     stroke-linejoin="bevel"
     points="1466.65,692.23 1466.65,618.698"
     id="polyline1997"
     transform="translate(-336.598,-528.77)" />
  <polyline
     class="Stem"
     fill="none"
     stroke="#000000"
     stroke-width="2.48"
     stroke-linejoin="bevel"
     points="1526.07,692.23 1526.07,621.735"
     id="polyline1999"
     transform="translate(-336.598,-528.77)" />
  <polyline
     class="Stem"
     fill="none"
     stroke="#000000"
     stroke-width="2.48"
     stroke-linejoin="bevel"
     points="1630.96,704.63 1630.96,621.997"
     id="polyline2001"
     transform="translate(-336.598,-528.77)" />
  <polyline
     class="Stem"
     fill="none"
     stroke="#000000"
     stroke-width="2.48"
     stroke-linejoin="bevel"
     points="1927.86,741.83 1927.86,659.197"
     id="polyline2003"
     transform="translate(-336.598,-528.77)" />
  <polyline
     class="Stem"
     fill="none"
     stroke="#000000"
     stroke-width="2.48"
     stroke-linejoin="bevel"
     points="1994.94,717.03 1994.94,634.198"
     id="polyline2005"
     transform="translate(-336.598,-528.77)" />
  <polyline
     class="Stem"
     fill="none"
     stroke="#000000"
     stroke-width="2.48"
     stroke-linejoin="bevel"
     points="2084.08,741.83 2084.08,659.197"
     id="polyline2007"
     transform="translate(-336.598,-528.77)" />
  <polyline
     class="Stem"
     fill="none"
     stroke="#000000"
     stroke-width="2.48"
     stroke-linejoin="bevel"
     points="2151.17,717.03 2151.17,634.198"
     id="polyline2009"
     transform="translate(-336.598,-528.77)" />
  <path
     class="Hook"
     d="m 379.952,140.34948 c 0,0.29452 0.093,0.79052 0.7905,1.08504 4.2625,1.39496 12.80298,6.758 19.25098,17.76296 1.78252,3.06904 4.66557,7.34704 4.66557,15.57757 0,7.14547 -1.89105,14.47695 -4.464,21.62243 -0.20157,0.60452 -0.40305,1.10052 -0.31,1.488 0,0.40304 0.10843,0.69757 0.496,0.89904 0.20147,0.093 0.40295,0.093 0.496,0.093 0.69747,0 1.19347,-0.38748 1.59643,-1.08496 4.66557,-8.246 6.24652,-18.75504 6.15357,-25.00147 0,-0.496 0,-0.79053 0,-1.19357 -0.496,-12.80296 -7.84305,-22.22696 -7.84305,-22.22696 0.29452,0 -9.12948,-12.19852 -11.811,-16.368 -3.658,-5.65752 -5.3475,-11.29952 -5.549,-11.70252 -0.093,-0.2945 -0.992,-3.875 -0.992,-3.875 -0.093,-0.3875 -0.589,-0.7905 -1.1935,-0.7905 -0.6975,0 -1.2865,0.6045 -1.2865,1.2865 v 22.42848"
     id="path2011"
     style="stroke-width:0.992" />
  <path
     class="Hook"
     d="m 2138.722,152.74948 c 0,0.29452 0.093,0.79052 0.7905,1.08504 4.2625,1.39496 12.803,6.758 19.251,17.76296 1.7825,3.06904 4.6655,7.34704 4.6655,15.57757 0,7.14547 -1.891,14.47695 -4.464,21.62243 -0.2015,0.60452 -0.403,1.10052 -0.31,1.488 0,0.40304 0.1085,0.69757 0.496,0.89904 0.2015,0.093 0.403,0.093 0.496,0.093 0.6975,0 1.1935,-0.38748 1.5965,-1.08496 4.6655,-8.246 6.2465,-18.75504 6.1535,-25.00147 0,-0.496 0,-0.79053 0,-1.19357 -0.496,-12.80296 -7.843,-22.22696 -7.843,-22.22696 0.2945,0 -9.1295,-12.19852 -11.811,-16.368 -3.658,-5.65752 -5.3475,-11.29952 -5.549,-11.70252 -0.093,-0.2945 -0.992,-3.875 -0.992,-3.875 -0.093,-0.3875 -0.589,-0.7905 -1.1935,-0.7905 -0.6975,0 -1.2865,0.6045 -1.2865,1.2865 v 22.42848"
     id="path2013"
     style="stroke-width:0.992" />
  <path
     class="Hook"
     d="m 1937.932,152.74948 c 0,0.29452 0.093,0.79052 0.7905,1.08504 4.2625,1.39496 12.803,6.758 19.251,17.76296 1.7825,3.06904 4.6655,7.34704 4.6655,15.57757 0,7.14547 -1.891,14.47695 -4.464,21.62243 -0.2015,0.60452 -0.403,1.10052 -0.31,1.488 0,0.40304 0.1085,0.69757 0.496,0.89904 0.2015,0.093 0.403,0.093 0.496,0.093 0.6975,0 1.1935,-0.38748 1.5965,-1.08496 4.6655,-8.246 6.2465,-18.75504 6.1535,-25.00147 0,-0.496 0,-0.79053 0,-1.19357 -0.496,-12.80296 -7.843,-22.22696 -7.843,-22.22696 0.2945,0 -9.1295,-12.19852 -11.811,-16.368 -3.658,-5.65752 -5.3475,-11.29952 -5.549,-11.70252 -0.093,-0.2945 -0.992,-3.875 -0.992,-3.875 -0.093,-0.3875 -0.589,-0.7905 -1.1935,-0.7905 -0.6975,0 -1.2865,0.6045 -1.2865,1.2865 v 22.42848"
     id="path2015"
     style="stroke-width:0.992" />
  <path
     class="Hook"
     d="m 2659.422,115.54948 c 0,0.29452 0.093,0.79052 0.7905,1.08504 4.2625,1.39496 12.803,6.758 19.251,17.76296 1.7825,3.06904 4.6655,7.34704 4.6655,15.57757 0,7.14547 -1.891,14.47695 -4.464,21.62243 -0.2015,0.60452 -0.403,1.10052 -0.31,1.488 0,0.40304 0.1085,0.69757 0.496,0.89904 0.2015,0.093 0.403,0.093 0.496,0.093 0.6975,0 1.1935,-0.38748 1.5965,-1.08496 4.6655,-8.246 6.2465,-18.75504 6.1535,-25.00147 0,-0.496 0,-0.79053 0,-1.19357 -0.496,-12.80296 -7.843,-22.22696 -7.843,-22.22696 0.2945,0 -9.1295,-12.19852 -11.811,-16.368 -3.658,-5.65752 -5.3475,-11.29952 -5.549,-11.70252 -0.093,-0.294495 -0.992,-3.875 -0.992,-3.875 -0.093,-0.3875 -0.589,-0.790505 -1.1935,-0.790505 -0.6975,0 -1.2865,0.604505 -1.2865,1.286505 v 22.42848"
     id="path2017"
     style="stroke-width:0.992" />
  <path
     class="Hook"
     d="m 223.727,140.34948 c 0,0.29452 0.093,0.79052 0.7905,1.08504 4.2625,1.39496 12.80298,6.758 19.25098,17.76296 1.78252,3.06904 4.66557,7.34704 4.66557,15.57757 0,7.14547 -1.89105,14.47695 -4.464,21.62243 -0.20157,0.60452 -0.40305,1.10052 -0.31,1.488 0,0.40304 0.10843,0.69757 0.496,0.89904 0.20147,0.093 0.40295,0.093 0.496,0.093 0.69747,0 1.19347,-0.38748 1.59643,-1.08496 4.66557,-8.246 6.24652,-18.75504 6.15357,-25.00147 0,-0.496 0,-0.79053 0,-1.19357 -0.496,-12.80296 -7.84305,-22.22696 -7.84305,-22.22696 0.29452,0 -9.12948,-12.19852 -11.811,-16.368 C 229.09,127.345 227.4005,121.703 227.199,121.3 c -0.093,-0.2945 -0.992,-3.875 -0.992,-3.875 -0.093,-0.3875 -0.589,-0.7905 -1.1935,-0.7905 -0.6975,0 -1.2865,0.6045 -1.2865,1.2865 v 22.42848"
     id="path2019"
     style="stroke-width:0.992" />
  <path
     class="Hook"
     d="m 772.432,140.34948 c 0,0.29452 0.093,0.79052 0.7905,1.08504 4.2625,1.39496 12.80298,6.758 19.25098,17.76296 1.78252,3.06904 4.66557,7.34704 4.66557,15.57757 0,7.14547 -1.89105,14.47695 -4.464,21.62243 -0.20157,0.60452 -0.40305,1.10052 -0.31,1.488 0,0.40304 0.10843,0.69757 0.496,0.89904 0.20147,0.093 0.40295,0.093 0.496,0.093 0.69747,0 1.19347,-0.38748 1.59643,-1.08496 4.66557,-8.246 6.24652,-18.75504 6.15357,-25.00147 0,-0.496 0,-0.79053 0,-1.19357 -0.496,-12.80296 -7.84305,-22.22696 -7.84305,-22.22696 0.29452,0 -9.12948,-12.19852 -11.811,-16.368 -3.658,-5.65752 -5.3475,-11.29952 -5.549,-11.70252 -0.093,-0.2945 -0.992,-3.875 -0.992,-3.875 -0.093,-0.3875 -0.589,-0.7905 -1.1935,-0.7905 -0.6975,0 -1.2865,0.6045 -1.2865,1.2865 v 22.42848"
     id="path2021"
     style="stroke-width:0.992" />
  <path
     class="Hook"
     d="m 571.64,140.34948 c 0,0.29452 0.093,0.79052 0.7905,1.08504 4.2625,1.39496 12.80298,6.758 19.25098,17.76296 1.78252,3.06904 4.66557,7.34704 4.66557,15.57757 0,7.14547 -1.89105,14.47695 -4.464,21.62243 -0.20157,0.60452 -0.40305,1.10052 -0.31,1.488 0,0.40304 0.10843,0.69757 0.496,0.89904 0.20147,0.093 0.40295,0.093 0.496,0.093 0.69747,0 1.19347,-0.38748 1.59643,-1.08496 4.66557,-8.246 6.24652,-18.75504 6.15357,-25.00147 0,-0.496 0,-0.79053 0,-1.19357 -0.496,-12.80296 -7.84305,-22.22696 -7.84305,-22.22696 0.29452,0 -9.12948,-12.19852 -11.811,-16.368 -3.658,-5.65752 -5.3475,-11.29952 -5.549,-11.70252 -0.093,-0.2945 -0.992,-3.875 -0.992,-3.875 -0.093,-0.3875 -0.589,-0.7905 -1.1935,-0.7905 -0.6975,0 -1.2865,0.6045 -1.2865,1.2865 v 22.42848"
     id="path2023"
     style="stroke-width:0.992" />
  <path
     class="Hook"
     d="m 1590.022,152.74948 c 0,0.29452 0.093,0.79052 0.7905,1.08504 4.2625,1.39496 12.803,6.758 19.251,17.76296 1.7825,3.06904 4.6655,7.34704 4.6655,15.57757 0,7.14547 -1.891,14.47695 -4.464,21.62243 -0.2015,0.60452 -0.403,1.10052 -0.31,1.488 0,0.40304 0.1085,0.69757 0.496,0.89904 0.2015,0.093 0.403,0.093 0.496,0.093 0.6975,0 1.1935,-0.38748 1.5965,-1.08496 4.6655,-8.246 6.2465,-18.75504 6.1535,-25.00147 0,-0.496 0,-0.79053 0,-1.19357 -0.496,-12.80296 -7.843,-22.22696 -7.843,-22.22696 0.2945,0 -9.1295,-12.19852 -11.811,-16.368 -3.658,-5.65752 -5.3475,-11.29952 -5.549,-11.70252 -0.093,-0.2945 -0.992,-3.875 -0.992,-3.875 -0.093,-0.3875 -0.589,-0.7905 -1.1935,-0.7905 -0.6975,0 -1.2865,0.6045 -1.2865,1.2865 v 22.42848"
     id="path2025"
     style="stroke-width:0.992" />
  <path
     class="Hook"
     d="m 1746.242,152.74948 c 0,0.29452 0.093,0.79052 0.7905,1.08504 4.2625,1.39496 12.803,6.758 19.251,17.76296 1.7825,3.06904 4.6655,7.34704 4.6655,15.57757 0,7.14547 -1.891,14.47695 -4.464,21.62243 -0.2015,0.60452 -0.403,1.10052 -0.31,1.488 0,0.40304 0.1085,0.69757 0.496,0.89904 0.2015,0.093 0.403,0.093 0.496,0.093 0.6975,0 1.1935,-0.38748 1.5965,-1.08496 4.6655,-8.246 6.2465,-18.75504 6.1535,-25.00147 0,-0.496 0,-0.79053 0,-1.19357 -0.496,-12.80296 -7.843,-22.22696 -7.843,-22.22696 0.2945,0 -9.1295,-12.19852 -11.811,-16.368 -3.658,-5.65752 -5.3475,-11.29952 -5.549,-11.70252 -0.093,-0.2945 -0.992,-3.875 -0.992,-3.875 -0.093,-0.3875 -0.589,-0.7905 -1.1935,-0.7905 -0.6975,0 -1.2865,0.6045 -1.2865,1.2865 v 22.42848"
     id="path2027"
     style="stroke-width:0.992" />
  <path
     class="Hook"
     d="m 3400.632,152.74948 c 0,0.29452 0.093,0.79052 0.7905,1.08504 4.2625,1.39496 12.803,6.758 19.251,17.76296 1.7825,3.06904 4.6655,7.34704 4.6655,15.57757 0,7.14547 -1.891,14.47695 -4.464,21.62243 -0.2015,0.60452 -0.403,1.10052 -0.31,1.488 0,0.40304 0.1085,0.69757 0.496,0.89904 0.2015,0.093 0.403,0.093 0.496,0.093 0.6975,0 1.1935,-0.38748 1.5965,-1.08496 4.6655,-8.246 6.2465,-18.75504 6.1535,-25.00147 0,-0.496 0,-0.79053 0,-1.19357 -0.496,-12.80296 -7.843,-22.22696 -7.843,-22.22696 0.2945,0 -9.1295,-12.19852 -11.811,-16.368 -3.658,-5.65752 -5.3475,-11.29952 -5.549,-11.70252 -0.093,-0.2945 -0.992,-3.875 -0.992,-3.875 -0.093,-0.3875 -0.589,-0.7905 -1.1935,-0.7905 -0.6975,0 -1.2865,0.6045 -1.2865,1.2865 v 22.42848"
     id="path2029"
     style="stroke-width:0.992" />
  <path
     class="Hook"
     d="m 1293.122,115.54948 c 0,0.29452 0.093,0.79052 0.7905,1.08504 4.2625,1.39496 12.803,6.758 19.251,17.76296 1.7825,3.06904 4.6655,7.34704 4.6655,15.57757 0,7.14547 -1.891,14.47695 -4.464,21.62243 -0.2015,0.60452 -0.403,1.10052 -0.31,1.488 0,0.40304 0.1085,0.69757 0.496,0.89904 0.2015,0.093 0.403,0.093 0.496,0.093 0.6975,0 1.1935,-0.38748 1.5965,-1.08496 4.6655,-8.246 6.2465,-18.75504 6.1535,-25.00147 0,-0.496 0,-0.79053 0,-1.19357 -0.496,-12.80296 -7.843,-22.22696 -7.843,-22.22696 0.2945,0 -9.1295,-12.19852 -11.811,-16.368 -3.658,-5.65752 -5.3475,-11.29952 -5.549,-11.70252 -0.093,-0.294495 -0.992,-3.875 -0.992,-3.875 -0.093,-0.3875 -0.589,-0.790505 -1.1935,-0.790505 -0.6975,0 -1.2865,0.604505 -1.2865,1.286505 v 22.42848"
     id="path2031"
     style="stroke-width:0.992" />
  <path
     class="Note"
     d="m 261.067,183.9975 c 0,4.2625 3.069,9.02102 11.11348,9.02102 10.30757,0 21.12652,-8.43202 21.12652,-17.15852 0,-5.859 -4.96,-9.12948 -11.11348,-9.12948 -9.62547,0 -21.12652,8.13748 -21.12652,17.26698"
     id="path2033"
     style="stroke-width:0.992" />
  <path
     class="Note"
     d="m 1560.272,221.1975 c 0,4.2625 3.069,9.02102 11.1135,9.02102 10.3075,0 21.1265,-8.43202 21.1265,-17.15852 0,-5.859 -4.96,-9.12948 -11.1135,-9.12948 -9.6255,0 -21.1265,8.13748 -21.1265,17.26698"
     id="path2035"
     style="stroke-width:0.992" />
  <path
     class="Note"
     d="m 417.291,183.9975 c 0,4.2625 3.069,9.02102 11.11348,9.02102 10.30757,0 21.12652,-8.43202 21.12652,-17.15852 0,-5.859 -4.96,-9.12948 -11.11348,-9.12948 -9.62547,0 -21.12652,8.13748 -21.12652,17.26698"
     id="path2037"
     style="stroke-width:0.992" />
  <path
     class="Note"
     d="m 541.896,208.7975 c 0,4.2625 3.069,9.02102 11.11348,9.02102 10.30757,0 21.12652,-8.43202 21.12652,-17.15852 0,-5.859 -4.96,-9.12948 -11.11348,-9.12948 -9.62547,0 -21.12652,8.13748 -21.12652,17.26698"
     id="path2039"
     style="stroke-width:0.992" />
  <path
     class="Note"
     d="m 630.10652,166.73052 c -9.62547,0 -21.12652,8.04448 -21.12652,17.26698 0,4.2625 3.069,9.02102 11.11348,9.02102 10.30757,0 21.12652,-8.43202 21.12652,-17.15852 0,-5.859 -4.96,-9.12948 -11.11348,-9.12948 m -2.68147,17.46848 c -0.29453,0.186 -7.53305,4.154 -11.00505,4.154 -3.2705,0 -3.968,-2.666 -3.968,-3.565 0,-4.1695 9.92,-9.021 10.32305,-9.2225 0.38747,-0.2015 7.44,-4.1695 11.00495,-4.1695 2.38705,0 3.968,1.395 3.968,3.565 0,4.278 -10.01295,9.0365 -10.32295,9.238"
     id="path2041"
     style="stroke-width:0.992" />
  <path
     class="Note"
     d="m 742.692,208.7975 c 0,4.2625 3.069,9.02102 11.11348,9.02102 10.30757,0 21.12652,-8.43202 21.12652,-17.15852 0,-5.859 -4.96,-9.12948 -11.11348,-9.12948 -9.62547,0 -21.12652,8.13748 -21.12652,17.26698"
     id="path2043"
     style="stroke-width:0.992" />
  <path
     class="Note"
     d="m 861.362,196.3975 c 0,4.2625 3.069,9.02102 11.11348,9.02102 10.30757,0 21.12652,-8.43202 21.12652,-17.15852 0,-5.859 -4.96,-9.12948 -11.11348,-9.12948 -9.62547,0 -21.12652,8.13748 -21.12652,17.26698"
     id="path2045"
     style="stroke-width:0.992" />
  <path
     class="Note"
     d="m 2227.652,208.7975 c 0,4.2625 3.069,9.02102 11.1135,9.02102 10.3075,0 21.1265,-8.43202 21.1265,-17.15852 0,-5.859 -4.96,-9.12948 -11.1135,-9.12948 -9.6255,0 -21.1265,8.13748 -21.1265,17.26698"
     id="path2047"
     style="stroke-width:0.992" />
  <path
     class="Note"
     d="m 920.782,183.9975 c 0,4.2625 3.069,9.02102 11.11348,9.02102 10.30757,0 21.12652,-8.43202 21.12652,-17.15852 0,-5.859 -4.96,-9.12948 -11.11348,-9.12948 -9.62547,0 -21.12652,8.13748 -21.12652,17.26698"
     id="path2049"
     style="stroke-width:0.992" />
  <path
     class="Note"
     d="m 980.212,146.7975 c 0,4.2625 3.069,9.02102 11.11348,9.02102 10.30752,0 21.12652,-8.43202 21.12652,-17.15852 0,-5.859 -4.96,-9.12948 -11.1135,-9.12948 -9.62545,0 -21.1265,8.13748 -21.1265,17.26698"
     id="path2051"
     style="stroke-width:0.992" />
  <path
     class="Note"
     d="m 1039.642,159.1975 c 0,4.2625 3.069,9.02102 11.1135,9.02102 10.3075,0 21.1265,-8.43202 21.1265,-17.15852 0,-5.859 -4.96,-9.12948 -11.1135,-9.12948 -9.6255,0 -21.1265,8.13748 -21.1265,17.26698"
     id="path2053"
     style="stroke-width:0.992" />
  <path
     class="Note"
     d="m 2108.982,221.1975 c 0,4.2625 3.069,9.02102 11.1135,9.02102 10.3075,0 21.1265,-8.43202 21.1265,-17.15852 0,-5.859 -4.96,-9.12948 -11.1135,-9.12948 -9.6255,0 -21.1265,8.13748 -21.1265,17.26698"
     id="path2055"
     style="stroke-width:0.992" />
  <path
     class="Note"
     d="m 2465.362,171.5975 c 0,4.2625 3.069,9.02102 11.1135,9.02102 10.3075,0 21.1265,-8.43202 21.1265,-17.15852 0,-5.859 -4.96,-9.12948 -11.1135,-9.12948 -9.6255,0 -21.1265,8.13748 -21.1265,17.26698"
     id="path2057"
     style="stroke-width:0.992" />
  <path
     class="Note"
     d="m 1783.582,196.3975 c 0,4.2625 3.069,9.02102 11.1135,9.02102 10.3075,0 21.1265,-8.43202 21.1265,-17.15852 0,-5.859 -4.96,-9.12948 -11.1135,-9.12948 -9.6255,0 -21.1265,8.13748 -21.1265,17.26698"
     id="path2059"
     style="stroke-width:0.992" />
  <path
     class="Note"
     d="m 2524.782,171.5975 c 0,4.2625 3.069,9.02102 11.1135,9.02102 10.3075,0 21.1265,-8.43202 21.1265,-17.15852 0,-5.859 -4.96,-9.12948 -11.1135,-9.12948 -9.6255,0 -21.1265,8.13748 -21.1265,17.26698"
     id="path2061"
     style="stroke-width:0.992" />
  <path
     class="Note"
     d="m 1627.362,196.3975 c 0,4.2625 3.069,9.02102 11.1135,9.02102 10.3075,0 21.1265,-8.43202 21.1265,-17.15852 0,-5.859 -4.96,-9.12948 -11.1135,-9.12948 -9.6255,0 -21.1265,8.13748 -21.1265,17.26698"
     id="path2063"
     style="stroke-width:0.992" />
  <path
     class="Note"
     d="m 1716.502,221.1975 c 0,4.2625 3.069,9.02102 11.1135,9.02102 10.3075,0 21.1265,-8.43202 21.1265,-17.15852 0,-5.859 -4.96,-9.12948 -11.1135,-9.12948 -9.6255,0 -21.1265,8.13748 -21.1265,17.26698"
     id="path2065"
     style="stroke-width:0.992" />
  <path
     class="Note"
     d="m 2629.672,183.9975 c 0,4.2625 3.069,9.02102 11.1135,9.02102 10.3075,0 21.1265,-8.43202 21.1265,-17.15852 0,-5.859 -4.96,-9.12948 -11.1135,-9.12948 -9.6255,0 -21.1265,8.13748 -21.1265,17.26698"
     id="path2067"
     style="stroke-width:0.992" />
  <path
     class="Note"
     d="m 2710.2285,191.53052 c -9.6255,0 -21.1265,8.04448 -21.1265,17.26698 0,4.2625 3.069,9.02102 11.1135,9.02102 10.3075,0 21.1265,-8.43202 21.1265,-17.15852 0,-5.859 -4.96,-9.12948 -11.1135,-9.12948 m -2.6815,17.46848 c -0.2945,0.186 -7.533,4.154 -11.005,4.154 -3.2705,0 -3.968,-2.666 -3.968,-3.565 0,-4.1695 9.92,-9.021 10.323,-9.2225 0.3875,-0.2015 7.44,-4.1695 11.005,-4.1695 2.387,0 3.968,1.395 3.968,3.565 0,4.278 -10.013,9.0365 -10.323,9.238"
     id="path2069"
     style="stroke-width:0.992" />
  <path
     class="Note"
     d="m 3028.292,196.3975 c 0,4.2625 3.069,9.02102 11.1135,9.02102 10.3075,0 21.1265,-8.43202 21.1265,-17.15852 0,-5.859 -4.96,-9.12948 -11.1135,-9.12948 -9.6255,0 -21.1265,8.13748 -21.1265,17.26698"
     id="path2071"
     style="stroke-width:0.992" />
  <path
     class="Note"
     d="m 1996.3985,179.13052 c -9.6255,0 -21.1265,8.04448 -21.1265,17.26698 0,4.2625 3.069,9.02102 11.1135,9.02102 10.3075,0 21.1265,-8.43202 21.1265,-17.15852 0,-5.859 -4.96,-9.12948 -11.1135,-9.12948 m -2.6815,17.46848 c -0.2945,0.186 -7.533,4.154 -11.005,4.154 -3.2705,0 -3.968,-2.666 -3.968,-3.565 0,-4.1695 9.92,-9.021 10.323,-9.2225 0.3875,-0.2015 7.44,-4.1695 11.005,-4.1695 2.387,0 3.968,1.395 3.968,3.565 0,4.278 -10.013,9.0365 -10.323,9.238"
     id="path2073"
     style="stroke-width:0.992" />
  <path
     class="Note"
     d="m 3087.722,183.9975 c 0,4.2625 3.069,9.02102 11.1135,9.02102 10.3075,0 21.1265,-8.43202 21.1265,-17.15852 0,-5.859 -4.96,-9.12948 -11.1135,-9.12948 -9.6255,0 -21.1265,8.13748 -21.1265,17.26698"
     id="path2075"
     style="stroke-width:0.992" />
  <path
     class="Note"
     d="m 2287.082,196.3975 c 0,4.2625 3.069,9.02102 11.1135,9.02102 10.3075,0 21.1265,-8.43202 21.1265,-17.15852 0,-5.859 -4.96,-9.12948 -11.1135,-9.12948 -9.6255,0 -21.1265,8.13748 -21.1265,17.26698"
     id="path2077"
     style="stroke-width:0.992" />
  <path
     class="Note"
     d="m 3147.152,196.3975 c 0,4.2625 3.069,9.02102 11.1135,9.02102 10.3075,0 21.1265,-8.43202 21.1265,-17.15852 0,-5.859 -4.96,-9.12948 -11.1135,-9.12948 -9.6255,0 -21.1265,8.13748 -21.1265,17.26698"
     id="path2079"
     style="stroke-width:0.992" />
  <path
     class="Note"
     d="m 3206.572,208.7975 c 0,4.2625 3.069,9.02102 11.1135,9.02102 10.3075,0 21.1265,-8.43202 21.1265,-17.15852 0,-5.859 -4.96,-9.12948 -11.1135,-9.12948 -9.6255,0 -21.1265,8.13748 -21.1265,17.26698"
     id="path2081"
     style="stroke-width:0.992" />
  <path
     class="Note"
     d="m 2346.502,183.9975 c 0,4.2625 3.069,9.02102 11.1135,9.02102 10.3075,0 21.1265,-8.43202 21.1265,-17.15852 0,-5.859 -4.96,-9.12948 -11.1135,-9.12948 -9.6255,0 -21.1265,8.13748 -21.1265,17.26698"
     id="path2083"
     style="stroke-width:0.992" />
  <path
     class="Note"
     d="m 3266.002,208.7975 c 0,4.2625 3.069,9.02102 11.1135,9.02102 10.3075,0 21.1265,-8.43202 21.1265,-17.15852 0,-5.859 -4.96,-9.12948 -11.1135,-9.12948 -9.6255,0 -21.1265,8.13748 -21.1265,17.26698"
     id="path2085"
     style="stroke-width:0.992" />
  <path
     class="Note"
     d="m 350.207,208.7975 c 0,4.2625 3.069,9.02102 11.11348,9.02102 10.30757,0 21.12652,-8.43202 21.12652,-17.15852 0,-5.859 -4.96,-9.12948 -11.11348,-9.12948 -9.62547,0 -21.12652,8.13748 -21.12652,17.26698"
     id="path2087"
     style="stroke-width:0.992" />
  <path
     class="Note"
     d="m 193.983,208.7975 c 0,4.2625 3.069,9.02102 11.11348,9.02102 10.30757,0 21.12652,-8.43202 21.12652,-17.15852 0,-5.859 -4.96,-9.12948 -11.11348,-9.12948 -9.62547,0 -21.12652,8.13748 -21.12652,17.26698"
     id="path2089"
     style="stroke-width:0.992" />
  <path
     class="Note"
     d="m 1908.192,221.1975 c 0,4.2625 3.069,9.02102 11.1135,9.02102 10.3075,0 21.1265,-8.43202 21.1265,-17.15852 0,-5.859 -4.96,-9.12948 -11.1135,-9.12948 -9.6255,0 -21.1265,8.13748 -21.1265,17.26698"
     id="path2091"
     style="stroke-width:0.992" />
  <path
     class="Note"
     d="m 3370.892,221.1975 c 0,4.2625 3.069,9.02102 11.1135,9.02102 10.3075,0 21.1265,-8.43202 21.1265,-17.15852 0,-5.859 -4.96,-9.12948 -11.1135,-9.12948 -9.6255,0 -21.1265,8.13748 -21.1265,17.26698"
     id="path2093"
     style="stroke-width:0.992" />
  <path
     class="Note"
     d="m 2405.932,159.1975 c 0,4.2625 3.069,9.02102 11.1135,9.02102 10.3075,0 21.1265,-8.43202 21.1265,-17.15852 0,-5.859 -4.96,-9.12948 -11.1135,-9.12948 -9.6255,0 -21.1265,8.13748 -21.1265,17.26698"
     id="path2095"
     style="stroke-width:0.992" />
  <path
     class="Note"
     d="m 1343.9385,179.13052 c -9.6255,0 -21.1265,8.04448 -21.1265,17.26698 0,4.2625 3.069,9.02102 11.1135,9.02102 10.3075,0 21.1265,-8.43202 21.1265,-17.15852 0,-5.859 -4.96,-9.12948 -11.1135,-9.12948 m -2.6815,17.46848 c -0.2945,0.186 -7.533,4.154 -11.005,4.154 -3.2705,0 -3.968,-2.666 -3.968,-3.565 0,-4.1695 9.92,-9.021 10.323,-9.2225 0.3875,-0.2015 7.44,-4.1695 11.005,-4.1695 2.387,0 3.968,1.395 3.968,3.565 0,4.278 -10.013,9.0365 -10.323,9.238"
     id="path2097"
     style="stroke-width:0.992" />
  <path
     class="Note"
     d="m 3451.4385,216.33052 c -9.6255,0 -21.1265,8.04448 -21.1265,17.26698 0,4.2625 3.069,9.02102 11.1135,9.02102 10.3075,0 21.1265,-8.43202 21.1265,-17.15852 0,-5.859 -4.96,-9.12948 -11.1135,-9.12948 m -2.6815,17.46848 c -0.2945,0.186 -7.533,4.154 -11.005,4.154 -3.2705,0 -3.968,-2.666 -3.968,-3.565 0,-4.1695 9.92,-9.021 10.323,-9.2225 0.3875,-0.2015 7.44,-4.1695 11.005,-4.1695 2.387,0 3.968,1.395 3.968,3.565 0,4.278 -10.013,9.0365 -10.323,9.238"
     id="path2099"
     style="stroke-width:0.992" />
  <path
     class="Note"
     d="m 1263.382,183.9975 c 0,4.2625 3.069,9.02102 11.1135,9.02102 10.3075,0 21.1265,-8.43202 21.1265,-17.15852 0,-5.859 -4.96,-9.12948 -11.1135,-9.12948 -9.6255,0 -21.1265,8.13748 -21.1265,17.26698"
     id="path2101"
     style="stroke-width:0.992" />
  <path
     class="Note"
     d="m 2968.872,208.7975 c 0,4.2625 3.069,9.02102 11.1135,9.02102 10.3075,0 21.1265,-8.43202 21.1265,-17.15852 0,-5.859 -4.96,-9.12948 -11.1135,-9.12948 -9.6255,0 -21.1265,8.13748 -21.1265,17.26698"
     id="path2103"
     style="stroke-width:0.992" />
  <path
     class="Note"
     d="m 1158.492,171.5975 c 0,4.2625 3.069,9.02102 11.1135,9.02102 10.3075,0 21.1265,-8.43202 21.1265,-17.15852 0,-5.859 -4.96,-9.12948 -11.1135,-9.12948 -9.6255,0 -21.1265,8.13748 -21.1265,17.26698"
     id="path2105"
     style="stroke-width:0.992" />
  <path
     class="Note"
     d="m 1099.062,171.5975 c 0,4.2625 3.069,9.02102 11.1135,9.02102 10.3075,0 21.1265,-8.43202 21.1265,-17.15852 0,-5.859 -4.96,-9.12948 -11.1135,-9.12948 -9.6255,0 -21.1265,8.13748 -21.1265,17.26698"
     id="path2107"
     style="stroke-width:0.992" />
  <path
     class="Clef"
     d="m 74.353475,181.905 c 0,7.0525 -2.88295,14.291 -9.92,17.17405 -2.07695,-11.90405 -4.758425,-27.68305 -5.456,-32.0541 8.928,0 15.376,6.06055 15.376,14.88005 M 60.264,200.25705 c -1.984,0.40295 -3.859475,0.60443 -5.750525,0.60443 -14.182425,0 -26.28797,-9.92 -26.28797,-24.90848 0,-12.09005 8.52502,-22.909 17.26702,-30.45752 1.674,-1.488 3.270525,-2.86748 4.758525,-4.35548 0.883475,5.34748 1.58095,10.01295 2.278425,14.08948 C 43.49305,157.91095 37.35505,167.428 37.35505,176.759 c 0,6.944 5.456,16.461 13.392,16.461 0.790425,0 1.689475,-0.40295 1.689475,-1.28652 0,-0.89896 -0.992,-1.39496 -2.185475,-2.18548 -3.87505,-2.387 -6.060525,-4.96 -6.060525,-9.827 0,-6.045 4.464,-10.91205 10.32295,-12.29152 L 60.264,200.25705 M 51.537475,98.282525 c 0.89905,-3.968 5.456,-14.384 10.617575,-14.384 1.488,0 3.859475,4.851475 3.859475,11.702425 0,10.32305 -7.626,18.05757 -14.47705,24.8 -0.58895,-3.968 -1.08495,-7.82747 -1.08495,-11.99695 0,-3.67348 0.294525,-7.05252 1.08495,-10.121475 m -20.832,132.431995 c 0,6.55653 5.05305,15.19 18.44505,15.19 4.665475,0 8.742,-1.19347 12.30695,-3.37904 C 66.820525,238.75905 68.2,232.20252 68.2,225.956 c 0,-3.85948 -0.58895,-8.32348 -1.58095,-13.98095 -0.294525,-1.984 -0.89905,-4.96 -1.488,-8.83505 9.718425,-3.17748 16.95695,-13.29895 16.95695,-23.5135 0,-14.97302 -10.617475,-25.0945 -25.094525,-25.0945 -0.992,-5.952 -1.984,-11.81105 -2.88295,-17.36 10.524525,-11.02052 17.76295,-23.42052 17.76295,-39.184 0,-9.036525 -2.774425,-16.368 -4.37095,-19.948128 -2.371475,-5.053248 -5.254525,-8.525248 -7.03705,-8.525248 -0.697475,0 -3.766425,1.193376 -7.03695,5.053248 C 47.073475,82.116 45.29105,94.810525 45.29105,103.134 c 0,5.36295 0.496,10.23 2.185475,21.34348 -0.108525,0.093 -5.27,5.34747 -7.34705,7.03704 C 31.09305,139.94652 18.6,151.94348 18.6,171.799 c 0,18.53805 16.166525,33.12352 34.62705,33.12352 2.867475,0 5.54895,-0.29452 7.827475,-0.69747 1.89095,9.53243 2.976,16.47643 2.976,21.73095 0,10.32305 -5.254525,15.77905 -15.267475,15.77905 -2.38705,0 -4.464,-0.496 -4.665575,-0.496 -0.09295,-0.10853 -0.294425,-0.20157 -0.294425,-0.29453 0,-0.20147 0.201475,-0.31 0.496,-0.40304 4.665475,-0.69748 9.315475,-4.66548 9.315475,-11.00496 0,-5.36304 -4.06105,-11.02052 -11.50105,-11.02052 -6.944,0 -11.408,5.65748 -11.408,12.19852"
     id="path2109"
     style="stroke-width:0.992" />
  <path
     class="TimeSig"
     d="m 130.20048,125.9655 c -6.06043,0 -8.23043,1.7825 -9.62548,3.2705 -0.29452,-2.077 -0.496,-3.6735 -0.496,-5.2545 0,-1.5965 0.20148,-2.976 0.496,-4.75855 0.58905,-3.67347 3.06905,-8.246 8.432,-8.246 2.48,0 3.968,0.806 4.96,1.89105 -2.07695,0.89895 -3.76652,3.56495 -3.76652,5.85895 0,3.56505 2.77452,6.33955 6.35504,6.33955 3.56496,0 6.448,-2.7745 6.448,-6.33955 v -0.20147 c 0,0 0,0 0,-0.10853 0,-0.88347 -0.20147,-2.37147 -0.60452,-3.162 -1.28652,-3.58043 -5.456,-8.83495 -15.376,-8.83495 -8.928,0 -15.376,8.52495 -17.36,13.09748 -0.992,2.37152 -2.48,7.23852 -2.48,12.78752 0,6.0605 1.6895,12.89605 7.533,18.05752 5.76605,4.37096 9.42405,4.57253 12.89605,4.57253 3.48747,0 16.47643,-4.07653 16.47643,-15.57755 0,-9.7185 -7.64148,-13.392 -13.888,-13.392 m -3.67348,24.79998 c -3.27052,0 -5.952,-4.464 -5.952,-10.02843 0,-5.54905 2.68148,-10.10605 5.952,-10.10605 3.27052,0 6.06052,4.557 6.06052,10.10605 0,5.56443 -2.79,10.02843 -6.06052,10.02843"
     id="path2111"
     style="stroke-width:0.992" />
  <path
     class="TimeSig"
     d="m 137.54705,177.7975 c 3.27043,-2.48 5.54895,-5.6575 5.54895,-9.6255 0,-7.14548 -7.82748,-12.98905 -17.45295,-12.98905 -9.62557,0 -17.46855,5.84357 -17.46855,12.98905 0,3.968 0.992,7.533 5.6575,10.509 -4.464,2.5885 -6.944,6.262 -6.944,11.02048 0,8.02904 8.432,14.47704 18.75505,14.47704 10.30747,0 18.73947,-6.448 18.73947,-14.47704 0,-4.75848 -1.674,-9.22248 -6.83547,-11.90398 m -11.904,20.83198 c -6.35505,0 -11.81105,-3.472 -11.81105,-9.03643 0,-6.63405 5.16148,-8.23055 5.16148,-8.23055 6.74252,2.2785 16.368,5.6575 16.368,11.1135 0,2.68148 -3.472,6.15348 -9.71843,6.15348 M 131.98252,175.116 C 125.24,172.9305 117.8,169.66 117.8,165.196 c 0,-3.87505 3.56505,-5.456 7.84305,-5.456 6.15347,0 10.30747,2.88295 10.30747,7.44 0,4.7585 -2.17,7.037 -3.968,7.936"
     id="path2113"
     style="stroke-width:0.992" />
  <path
     class="Rest"
     d="m 3590.5215,134.89348 c -0.093,0 -0.2945,-0.10853 -0.403,-0.10853 -0.589,0 -1.085,0.31 -1.2865,0.806 -0.403,0.58905 -3.472,6.448 -7.936,9.71855 -1.2865,0.992 -2.883,1.6895 -4.464,1.984 1.085,-1.2865 1.7825,-2.88298 1.7825,-4.75855 0,-3.87495 -3.1775,-7.05243 -7.037,-7.05243 -3.968,0 -7.1455,3.17748 -7.1455,7.05243 0,3.06905 1.891,5.54905 4.464,6.63405 1.488,0.6975 3.472,1.1935 5.456,1.1935 2.883,0 5.952,-0.8835 8.6335,-2.8675 1.1935,-0.899 2.3715,-2.0925 3.472,-3.28605 l -11.315,35.32453 2.6815,0.79052 13.888,-43.74105 c 0.1085,-0.10843 0.1085,-0.31 0.1085,-0.496 0,-0.496 -0.31,-0.89895 -0.899,-1.19347"
     id="path2115"
     style="stroke-width:0.992" />
  <path
     class="Rest"
     d="m 1483.0115,134.89348 c -0.093,0 -0.2945,-0.10853 -0.403,-0.10853 -0.589,0 -1.085,0.31 -1.2865,0.806 -0.403,0.58905 -3.472,6.448 -7.936,9.71855 -1.2865,0.992 -2.883,1.6895 -4.464,1.984 1.085,-1.2865 1.7825,-2.88298 1.7825,-4.75855 0,-3.87495 -3.1775,-7.05243 -7.037,-7.05243 -3.968,0 -7.1455,3.17748 -7.1455,7.05243 0,3.06905 1.891,5.54905 4.464,6.63405 1.488,0.6975 3.472,1.1935 5.456,1.1935 2.883,0 5.952,-0.8835 8.6335,-2.8675 1.1935,-0.899 2.3715,-2.0925 3.472,-3.28605 l -11.315,35.32453 2.6815,0.79052 13.888,-43.74105 c 0.1085,-0.10843 0.1085,-0.31 0.1085,-0.496 0,-0.496 -0.31,-0.89895 -0.899,-1.19347"
     id="path2117"
     style="stroke-width:0.992" />
  <path
     class="Rest"
     d="m 2849.3015,134.89348 c -0.093,0 -0.2945,-0.10853 -0.403,-0.10853 -0.589,0 -1.085,0.31 -1.2865,0.806 -0.403,0.58905 -3.472,6.448 -7.936,9.71855 -1.2865,0.992 -2.883,1.6895 -4.464,1.984 1.085,-1.2865 1.7825,-2.88298 1.7825,-4.75855 0,-3.87495 -3.1775,-7.05243 -7.037,-7.05243 -3.968,0 -7.1455,3.17748 -7.1455,7.05243 0,3.06905 1.891,5.54905 4.464,6.63405 1.488,0.6975 3.472,1.1935 5.456,1.1935 2.883,0 5.952,-0.8835 8.6335,-2.8675 1.1935,-0.899 2.3715,-2.0925 3.472,-3.28605 l -11.315,35.32453 2.6815,0.79052 13.888,-43.74105 c 0.1085,-0.10843 0.1085,-0.31 0.1085,-0.496 0,-0.496 -0.31,-0.89895 -0.899,-1.19347"
     id="path2119"
     style="stroke-width:0.992" />
  <path
     class="Beam"
     fill-rule="evenodd"
     d="m 2257.392,105.42 121.34,-6.2 v 12.417 l -121.34,6.2 V 105.42"
     id="path2121" />
  <path
     class="Beam"
     fill-rule="evenodd"
     d="m 3176.892,117.82 121.33,6.2 v 12.417 l -121.33,-6.2 V 117.82"
     id="path2123" />
  <path
     class="Beam"
     fill-rule="evenodd"
     d="m 891.102,80.596 121.33,-12.4 v 12.465 l -121.33,12.4 V 80.596"
     id="path2125" />
  <path
     class="Beam"
     fill-rule="evenodd"
     d="m 2435.672,80.62 121.34,6.2 v 12.417 l -121.34,-6.2 V 80.62"
     id="path2127" />
  <path
     class="Beam"
     fill-rule="evenodd"
     d="m 2998.612,105.42 121.33,-6.2 v 12.417 l -121.33,6.2 V 105.42"
     id="path2129" />
  <path
     class="Beam"
     fill-rule="evenodd"
     d="m 1069.382,80.62 121.33,6.2 v 12.417 l -121.33,-6.2 V 80.62"
     id="path2131" />
  <path
     class="Tempo"
     d="m 130.729,0 h -3.266 v 42.266 c -1.094,-0.688 -2.484,-1.094 -4.063,-1.281 -3.562,0 -6.437,0.39 -9.609,2.172 -3.953,2.078 -8.312,6.437 -8.312,11.281 0,1.094 0.203,2.187 0.796,3.172 1.282,2.468 4.36,3.859 7.813,3.859 6.937,0 16.641,-5.937 16.641,-13.469 V 0"
     id="path2133" />
  <path
     class="Tempo"
     d="m 152.463,37.953 h 30.234 v -6.906 h -30.234 v 6.906 m 0,12.36 h 30.234 v -6.906 h -30.234 v 6.906 m 74.109,-19.141 c 3.969,-1.5 7.094,-3.844 7.094,-8.578 0,-5.531 -5.234,-9.25 -13.031,-9.25 -9.297,0 -15.297,4.984 -15.297,12.781 0,4.75 2.219,8.219 6.969,10.75 -1.86,0.594 -2.641,0.828 -3.672,1.375 -3,1.563 -4.61,4.313 -4.61,7.797 0,6.485 5.813,10.625 14.938,10.625 9.656,0 16.203,-5.531 16.203,-13.75 0,-5.64 -2.766,-9.359 -8.594,-11.75 m -3.359,-1.265 c -2.516,-0.594 -4.375,-1.141 -5.516,-1.563 -2.75,-1.016 -4.562,-3.469 -4.562,-6.109 0,-3.313 2.765,-5.766 6.484,-5.766 4.016,0 6.547,2.641 6.547,6.844 0,2.703 -1.031,4.984 -2.953,6.594 m -7.672,8.578 c 2.453,0.672 5.453,1.562 6.953,2.047 3.781,1.312 5.219,2.937 5.219,6 0,4.078 -3.359,7.015 -8.094,7.015 -4.859,0 -7.797,-2.875 -7.797,-7.672 0,-3.187 1.016,-5.218 3.719,-7.39 m 38.078,-25.141 c -9,0 -15.594,9.188 -15.594,21.672 0,12.469 6.594,21.656 15.594,21.656 8.813,0 15.547,-9.187 15.547,-21.359 0,-7.078 -1.625,-12.297 -5.172,-16.75 -2.812,-3.406 -6.359,-5.219 -10.375,-5.219 m -0.062,3.125 c 1.797,0 3.25,1.078 3.906,3 0.781,1.984 1.25,8.281 1.25,15.719 0,6.187 -0.469,12.656 -1.016,14.703 -0.656,2.391 -2.093,3.656 -4.14,3.656 -1.86,0 -3.235,-1.015 -3.953,-3 -0.782,-1.984 -1.266,-8.344 -1.266,-15.531 0,-6.313 0.484,-12.844 1.016,-14.891 0.671,-2.39 2.109,-3.656 4.203,-3.656"
     id="path2135" />
  <path
     class="VoltaSegment"
     d="m 2226.572,39.327 h -1.92 c -3.47,2.594 -7.38,3.687 -13.92,3.797 v 3.078 h 2.31 c 4.89,0 4.95,0.109 4.89,4.625 v 19.516 c 0,3.406 0,3.578 -0.37,4.125 -0.5,0.609 -1.61,0.828 -4.58,0.828 h -1.75 v 2.968 h 21.93 v -2.968 h -1.76 c -2.91,0 -3.95,-0.219 -4.45,-0.828 -0.38,-0.547 -0.38,-0.766 -0.38,-4.125 V 39.327 m 19.24,29.422 c -2.86,0 -5.18,2.312 -5.18,5.172 0,2.797 2.32,5.172 5.13,5.172 2.9,0 5.22,-2.313 5.22,-5.172 0,-2.86 -2.32,-5.172 -5.17,-5.172"
     id="path2137" />
  <polyline
     class="VoltaSegment"
     fill="none"
     stroke="#000000"
     stroke-width="2.73"
     stroke-linejoin="miter"
     stroke-miterlimit="2"
     points="2531.88,607.034 2531.88,552.474 3248.55,552.474 3248.55,607.034"
     id="polyline2139"
     transform="translate(-336.598,-528.77)" />
  <path
     class="VoltaSegment"
     d="m 2976.622,63.639 -0.61,2.75 c -0.5,2.204 -0.83,2.907 -1.27,3.188 -0.55,0.391 -0.66,0.391 -4.12,0.437 h -10.61 c 1.92,-1.656 3.36,-2.687 5.5,-4.125 7.75,-5 9.34,-6.218 10.93,-8.25 1.88,-2.468 2.97,-5.39 2.97,-7.968 0,-5.891 -5.76,-10.344 -13.51,-10.344 -7.49,0 -13.27,4.844 -13.27,11.109 0,3.844 2.16,6.328 5.45,6.328 2.86,0 4.68,-1.812 4.68,-4.671 0,-2.375 -1.05,-3.75 -3.58,-4.954 -0.61,-0.281 -0.88,-0.609 -0.88,-1.046 0,-1.766 2.97,-3.625 5.72,-3.625 3.85,0 6.05,2.359 6.05,6.437 0,4.563 -1.77,7.797 -7.6,14.016 -6.15,6.547 -8.29,9.015 -11.04,12.984 v 2.578 c 1.42,-0.156 2.03,-0.219 2.86,-0.219 h 20.67 c 1.05,0 1.7,0.063 3.36,0.219 l 1.26,-14.844 h -2.96 m 13.4,5.11 c -2.86,0 -5.17,2.312 -5.17,5.172 0,2.797 2.31,5.172 5.12,5.172 2.91,0 5.22,-2.313 5.22,-5.172 0,-2.86 -2.31,-5.172 -5.17,-5.172"
     id="path2141" />
  <polyline
     class="VoltaSegment"
     fill="none"
     stroke="#000000"
     stroke-width="2.73"
     stroke-linejoin="miter"
     stroke-miterlimit="2"
     points="3273.1,607.034 3273.1,552.474 3994.83,552.474"
     id="polyline2143"
     transform="translate(-336.598,-528.77)" />
</svg>
