<?xml version="1.0" encoding="UTF-8" standalone="no"?>
<svg
   xmlns:dc="http://purl.org/dc/elements/1.1/"
   xmlns:cc="http://creativecommons.org/ns#"
   xmlns:rdf="http://www.w3.org/1999/02/22-rdf-syntax-ns#"
   xmlns:svg="http://www.w3.org/2000/svg"
   xmlns="http://www.w3.org/2000/svg"
   xmlns:sodipodi="http://sodipodi.sourceforge.net/DTD/sodipodi-0.dtd"
   xmlns:inkscape="http://www.inkscape.org/namespaces/inkscape"
   width="280.5571mm"
   height="17.93762mm"
   viewBox="0 0 3976.3999 254.23399"
   version="1.2"
   id="svg1597"
   sodipodi:docname="Dossium Canto Convocatie Musica.svg"
   inkscape:version="1.0.2-2 (e86c870879, 2021-01-15)">
  <metadata
     id="metadata1603">
    <rdf:RDF>
      <cc:Work
         rdf:about="">
        <dc:format>image/svg+xml</dc:format>
        <dc:type
           rdf:resource="http://purl.org/dc/dcmitype/StillImage" />
      </cc:Work>
    </rdf:RDF>
  </metadata>
  <defs
     id="defs1601" />
  <sodipodi:namedview
     pagecolor="#ffffff"
     bordercolor="#666666"
     borderopacity="1"
     objecttolerance="10"
     gridtolerance="10"
     guidetolerance="10"
     inkscape:pageopacity="0"
     inkscape:pageshadow="2"
     inkscape:window-width="1920"
     inkscape:window-height="991"
     id="namedview1599"
     showgrid="false"
     inkscape:zoom="0.94988596"
     inkscape:cx="513.65332"
     inkscape:cy="255.95467"
     inkscape:window-x="-9"
     inkscape:window-y="-9"
     inkscape:window-maximized="1"
     inkscape:current-layer="svg1597" />
  <title
     id="title1219">Dossium Canto Convocatie Musica</title>
  <desc
     id="desc1221">Generated by MuseScore Studio 4.5.2</desc>
  <polyline
     class="StaffLines"
     fill="none"
     stroke="#000000"
     stroke-width="2.73"
     stroke-linejoin="bevel"
     points="178,634.198 4154.4,634.198"
     id="polyline1223"
     transform="translate(-178,-528.77)" />
  <polyline
     class="StaffLines"
     fill="none"
     stroke="#000000"
     stroke-width="2.73"
     stroke-linejoin="bevel"
     points="178,658.998 4154.4,658.998"
     id="polyline1225"
     transform="translate(-178,-528.77)" />
  <polyline
     class="StaffLines"
     fill="none"
     stroke="#000000"
     stroke-width="2.73"
     stroke-linejoin="bevel"
     points="178,683.798 4154.4,683.798"
     id="polyline1227"
     transform="translate(-178,-528.77)" />
  <polyline
     class="StaffLines"
     fill="none"
     stroke="#000000"
     stroke-width="2.73"
     stroke-linejoin="bevel"
     points="178,708.598 4154.4,708.598"
     id="polyline1229"
     transform="translate(-178,-528.77)" />
  <polyline
     class="StaffLines"
     fill="none"
     stroke="#000000"
     stroke-width="2.73"
     stroke-linejoin="bevel"
     points="178,733.398 4154.4,733.398"
     id="polyline1231"
     transform="translate(-178,-528.77)" />
  <polyline
     class="BarLine"
     fill="none"
     stroke="#000000"
     stroke-width="13.64"
     stroke-linejoin="bevel"
     points="1478.5,632.834 1478.5,734.762"
     id="polyline1241"
     transform="translate(-178,-528.77)" />
  <polyline
     class="BarLine"
     fill="none"
     stroke="#000000"
     stroke-width="4.46"
     stroke-linejoin="bevel"
     points="1496.73,632.834 1496.73,734.762"
     id="polyline1243"
     transform="translate(-178,-528.77)" />
  <path
     class="BarLine"
     d="m 1340.463,142.628 c 0,-2.883 -2.294,-5.2545 -5.1615,-5.2545 -2.883,0 -5.1615,2.3715 -5.1615,5.2545 0,2.883 2.2785,5.2545 5.1615,5.2545 2.8675,0 5.1615,-2.3715 5.1615,-5.2545"
     id="path1245"
     style="stroke-width:0.992" />
  <path
     class="BarLine"
     d="m 1340.463,167.428 c 0,-2.883 -2.294,-5.2545 -5.1615,-5.2545 -2.883,0 -5.1615,2.3715 -5.1615,5.2545 0,2.883 2.2785,5.2545 5.1615,5.2545 2.8675,0 5.1615,-2.3715 5.1615,-5.2545"
     id="path1247"
     style="stroke-width:0.992" />
  <polyline
     class="BarLine"
     fill="none"
     stroke="#000000"
     stroke-width="4.46"
     stroke-linejoin="bevel"
     points="3285.5,632.834 3285.5,734.762"
     id="polyline1249"
     transform="translate(-178,-528.77)" />
  <polyline
     class="BarLine"
     fill="none"
     stroke="#000000"
     stroke-width="13.64"
     stroke-linejoin="bevel"
     points="3634.43,632.834 3634.43,734.762"
     id="polyline1251"
     transform="translate(-178,-528.77)" />
  <polyline
     class="BarLine"
     fill="none"
     stroke="#000000"
     stroke-width="4.46"
     stroke-linejoin="bevel"
     points="3652.66,632.834 3652.66,734.762"
     id="polyline1253"
     transform="translate(-178,-528.77)" />
  <path
     class="BarLine"
     d="m 3496.393,142.628 c 0,-2.883 -2.294,-5.2545 -5.1615,-5.2545 -2.883,0 -5.1615,2.3715 -5.1615,5.2545 0,2.883 2.2785,5.2545 5.1615,5.2545 2.8675,0 5.1615,-2.3715 5.1615,-5.2545"
     id="path1255"
     style="stroke-width:0.992" />
  <path
     class="BarLine"
     d="m 3496.393,167.428 c 0,-2.883 -2.294,-5.2545 -5.1615,-5.2545 -2.883,0 -5.1615,2.3715 -5.1615,5.2545 0,2.883 2.2785,5.2545 5.1615,5.2545 2.8675,0 5.1615,-2.3715 5.1615,-5.2545"
     id="path1257"
     style="stroke-width:0.992" />
  <path
     class="BarLine"
     d="m 2723.983,142.628 c 0,-2.883 -2.294,-5.2545 -5.1615,-5.2545 -2.883,0 -5.1615,2.3715 -5.1615,5.2545 0,2.883 2.2785,5.2545 5.1615,5.2545 2.8675,0 5.1615,-2.3715 5.1615,-5.2545"
     id="path1259"
     style="stroke-width:0.992" />
  <path
     class="BarLine"
     d="m 2723.983,167.428 c 0,-2.883 -2.294,-5.2545 -5.1615,-5.2545 -2.883,0 -5.1615,2.3715 -5.1615,5.2545 0,2.883 2.2785,5.2545 5.1615,5.2545 2.8675,0 5.1615,-2.3715 5.1615,-5.2545"
     id="path1261"
     style="stroke-width:0.992" />
  <polyline
     class="BarLine"
     fill="none"
     stroke="#000000"
     stroke-width="4.46"
     stroke-linejoin="bevel"
     points="2913.37,632.834 2913.37,734.762"
     id="polyline1263"
     transform="translate(-178,-528.77)" />
  <polyline
     class="BarLine"
     fill="none"
     stroke="#000000"
     stroke-width="13.64"
     stroke-linejoin="bevel"
     points="2931.6,632.834 2931.6,734.762"
     id="polyline1265"
     transform="translate(-178,-528.77)" />
  <path
     class="BarLine"
     d="m 542.68905,142.628 c 0,-2.883 -2.29405,-5.2545 -5.16155,-5.2545 -2.883,0 -5.1615,2.3715 -5.1615,5.2545 0,2.883 2.2785,5.2545 5.1615,5.2545 2.8675,0 5.16155,-2.3715 5.16155,-5.2545"
     id="path1267"
     style="stroke-width:0.992" />
  <path
     class="BarLine"
     d="m 542.68905,167.428 c 0,-2.883 -2.29405,-5.2545 -5.16155,-5.2545 -2.883,0 -5.1615,2.3715 -5.1615,5.2545 0,2.883 2.2785,5.2545 5.1615,5.2545 2.8675,0 5.16155,-2.3715 5.16155,-5.2545"
     id="path1269"
     style="stroke-width:0.992" />
  <polyline
     class="BarLine"
     fill="none"
     stroke="#000000"
     stroke-width="4.46"
     stroke-linejoin="bevel"
     points="732.082,632.834 732.082,734.762"
     id="polyline1271"
     transform="translate(-178,-528.77)" />
  <polyline
     class="BarLine"
     fill="none"
     stroke="#000000"
     stroke-width="13.64"
     stroke-linejoin="bevel"
     points="750.31,632.834 750.31,734.762"
     id="polyline1273"
     transform="translate(-178,-528.77)" />
  <polyline
     class="BarLine"
     fill="none"
     stroke="#000000"
     stroke-width="13.64"
     stroke-linejoin="bevel"
     points="2569.1,632.834 2569.1,734.762"
     id="polyline1275"
     transform="translate(-178,-528.77)" />
  <polyline
     class="BarLine"
     fill="none"
     stroke="#000000"
     stroke-width="4.46"
     stroke-linejoin="bevel"
     points="2587.33,632.834 2587.33,734.762"
     id="polyline1277"
     transform="translate(-178,-528.77)" />
  <path
     class="BarLine"
     d="m 2431.053,142.628 c 0,-2.883 -2.294,-5.2545 -5.1615,-5.2545 -2.883,0 -5.1615,2.3715 -5.1615,5.2545 0,2.883 2.2785,5.2545 5.1615,5.2545 2.8675,0 5.1615,-2.3715 5.1615,-5.2545"
     id="path1279"
     style="stroke-width:0.992" />
  <path
     class="BarLine"
     d="m 2431.053,167.428 c 0,-2.883 -2.294,-5.2545 -5.1615,-5.2545 -2.883,0 -5.1615,2.3715 -5.1615,5.2545 0,2.883 2.2785,5.2545 5.1615,5.2545 2.8675,0 5.1615,-2.3715 5.1615,-5.2545"
     id="path1281"
     style="stroke-width:0.992" />
  <polyline
     class="BarLine"
     fill="none"
     stroke="#000000"
     stroke-width="4.46"
     stroke-linejoin="bevel"
     points="2228.44,632.834 2228.44,734.762"
     id="polyline1283"
     transform="translate(-178,-528.77)" />
  <path
     class="BarLine"
     d="m 1651.383,142.628 c 0,-2.883 -2.294,-5.2545 -5.1615,-5.2545 -2.883,0 -5.1615,2.3715 -5.1615,5.2545 0,2.883 2.2785,5.2545 5.1615,5.2545 2.8675,0 5.1615,-2.3715 5.1615,-5.2545"
     id="path1285"
     style="stroke-width:0.992" />
  <path
     class="BarLine"
     d="m 1651.383,167.428 c 0,-2.883 -2.294,-5.2545 -5.1615,-5.2545 -2.883,0 -5.1615,2.3715 -5.1615,5.2545 0,2.883 2.2785,5.2545 5.1615,5.2545 2.8675,0 5.1615,-2.3715 5.1615,-5.2545"
     id="path1287"
     style="stroke-width:0.992" />
  <polyline
     class="BarLine"
     fill="none"
     stroke="#000000"
     stroke-width="4.46"
     stroke-linejoin="bevel"
     points="1840.77,632.834 1840.77,734.762"
     id="polyline1289"
     transform="translate(-178,-528.77)" />
  <polyline
     class="BarLine"
     fill="none"
     stroke="#000000"
     stroke-width="13.64"
     stroke-linejoin="bevel"
     points="1859,632.834 1859,734.762"
     id="polyline1291"
     transform="translate(-178,-528.77)" />
  <polyline
     class="BarLine"
     fill="none"
     stroke="#000000"
     stroke-width="4.46"
     stroke-linejoin="bevel"
     points="1129.57,632.834 1129.57,734.762"
     id="polyline1293"
     transform="translate(-178,-528.77)" />
  <path
     class="BarLine"
     d="m 3807.313,142.628 c 0,-2.883 -2.294,-5.2545 -5.1615,-5.2545 -2.883,0 -5.1615,2.3715 -5.1615,5.2545 0,2.883 2.2785,5.2545 5.1615,5.2545 2.8675,0 5.1615,-2.3715 5.1615,-5.2545"
     id="path1295"
     style="stroke-width:0.992" />
  <path
     class="BarLine"
     d="m 3807.313,167.428 c 0,-2.883 -2.294,-5.2545 -5.1615,-5.2545 -2.883,0 -5.1615,2.3715 -5.1615,5.2545 0,2.883 2.2785,5.2545 5.1615,5.2545 2.8675,0 5.1615,-2.3715 5.1615,-5.2545"
     id="path1297"
     style="stroke-width:0.992" />
  <polyline
     class="BarLine"
     fill="none"
     stroke="#000000"
     stroke-width="4.46"
     stroke-linejoin="bevel"
     points="3996.7,632.834 3996.7,734.762"
     id="polyline1299"
     transform="translate(-178,-528.77)" />
  <polyline
     class="BarLine"
     fill="none"
     stroke="#000000"
     stroke-width="13.64"
     stroke-linejoin="bevel"
     points="4014.93,632.834 4014.93,734.762"
     id="polyline1301"
     transform="translate(-178,-528.77)" />
  <polyline
     class="BarLine"
     fill="none"
     stroke="#000000"
     stroke-width="4.46"
     stroke-linejoin="bevel"
     points="4129.35,632.834 4129.35,734.762"
     id="polyline1303"
     transform="translate(-178,-528.77)" />
  <polyline
     class="BarLine"
     fill="none"
     stroke="#000000"
     stroke-width="13.64"
     stroke-linejoin="bevel"
     points="4147.58,632.834 4147.58,734.762"
     id="polyline1305"
     transform="translate(-178,-528.77)" />
  <path
     class="Accidental"
     d="m 1057.691,149.27748 c -0.186,-0.20148 -0.496,-0.29453 -0.7905,-0.29453 -0.093,0 -0.2945,0.0931 -0.3875,0.0931 l -12.5085,3.472 v -17.36 h -2.7745 v 49.104 c 0,0.79052 0.589,1.28652 1.395,1.28652 0.093,0 0.2945,0 0.3875,0 l 12.5085,-3.472 v 17.36 h 2.666 c 0,-16.46104 0,-32.13152 0,-49.104 0,-0.38757 -0.186,-0.88357 -0.496,-1.08504 m -13.6865,27.77602 v -16.275 l 11.5165,-3.2705 v 16.368 l -11.5165,3.1775"
     id="path1307"
     style="stroke-width:0.992" />
  <path
     class="Accidental"
     d="m 1847.491,149.27748 c -0.186,-0.20148 -0.496,-0.29453 -0.7905,-0.29453 -0.093,0 -0.2945,0.0931 -0.3875,0.0931 l -12.5085,3.472 v -17.36 h -2.7745 v 49.104 c 0,0.79052 0.589,1.28652 1.395,1.28652 0.093,0 0.2945,0 0.3875,0 l 12.5085,-3.472 v 17.36 h 2.666 c 0,-16.46104 0,-32.13152 0,-49.104 0,-0.38757 -0.186,-0.88357 -0.496,-1.08504 m -13.6865,27.77602 v -16.275 l 11.5165,-3.2705 v 16.368 l -11.5165,3.1775"
     id="path1309"
     style="stroke-width:0.992" />
  <path
     class="Accidental"
     d="m 1782.8405,157.012 c 0.6045,-0.0931 1.1005,-0.79052 1.1005,-1.39505 v -5.84347 c 0,-0.79053 -0.6045,-1.39496 -1.395,-1.39496 -0.093,0 -0.093,0 -0.2015,0 l -3.2705,0.69748 v -14.78705 h -2.7745 v 15.376 l -8.835,1.798 V 137.46652 H 1764.69 V 152.052 l -3.875,0.79052 c -0.589,0.10843 -1.085,0.79043 -1.085,1.39496 v 0.20147 5.75055 -0.2015 c 0,0.7905 0.589,1.395 1.395,1.395 0.093,0 0.186,0 0.2945,0 l 3.2705,-0.6975 v 16.368 l -3.875,0.7905 c -0.589,0.0931 -1.085,0.79052 -1.085,1.39505 v 5.75043 c 0,0.79052 0.589,1.37957 1.395,1.37957 0.093,0 0.186,0 0.2945,0 l 3.2705,-0.682 v 14.77147 h 2.7745 v -15.376 l 8.835,-1.78252 v 13.99652 h 2.7745 v -14.58547 l 3.7665,-0.69757 c 0.6045,-0.10843 1.1005,-0.79043 1.1005,-1.39496 V 174.775 c 0,-0.806 -0.6045,-1.395 -1.395,-1.395 -0.093,0 -0.093,0 -0.2015,0 l -3.2705,0.6975 v -16.368 l 3.7665,-0.6975 m -15.376,3.069 8.835,-1.7825 v 16.368 l -8.835,1.891 V 160.081"
     id="path1311"
     style="stroke-width:0.992" />
  <path
     class="Accidental"
     d="m 2200.9805,157.012 c 0.6045,-0.0931 1.1005,-0.79052 1.1005,-1.39505 v -5.84347 c 0,-0.79053 -0.6045,-1.39496 -1.395,-1.39496 -0.093,0 -0.093,0 -0.2015,0 l -3.2705,0.69748 v -14.78705 h -2.7745 v 15.376 l -8.835,1.798 V 137.46652 H 2182.83 V 152.052 l -3.875,0.79052 c -0.589,0.10843 -1.085,0.79043 -1.085,1.39496 v 0.20147 5.75055 -0.2015 c 0,0.7905 0.589,1.395 1.395,1.395 0.093,0 0.186,0 0.2945,0 l 3.2705,-0.6975 v 16.368 l -3.875,0.7905 c -0.589,0.0931 -1.085,0.79052 -1.085,1.39505 v 5.75043 c 0,0.79052 0.589,1.37957 1.395,1.37957 0.093,0 0.186,0 0.2945,0 l 3.2705,-0.682 v 14.77147 h 2.7745 v -15.376 l 8.835,-1.78252 v 13.99652 h 2.7745 v -14.58547 l 3.7665,-0.69757 c 0.6045,-0.10843 1.1005,-0.79043 1.1005,-1.39496 V 174.775 c 0,-0.806 -0.6045,-1.395 -1.395,-1.395 -0.093,0 -0.093,0 -0.2015,0 l -3.2705,0.6975 v -16.368 l 3.7665,-0.6975 m -15.376,3.069 8.835,-1.7825 v 16.368 l -8.835,1.891 V 160.081"
     id="path1313"
     style="stroke-width:0.992" />
  <path
     class="Accidental"
     d="m 727.43752,157.012 c 0.60453,-0.0931 1.10053,-0.79052 1.10053,-1.39505 v -5.84347 c 0,-0.79053 -0.60453,-1.39496 -1.39505,-1.39496 -0.0929,0 -0.0929,0 -0.20148,0 L 723.671,149.076 v -14.78705 h -2.77452 v 15.376 l -8.83498,1.798 V 137.46652 H 709.287 V 152.052 l -3.875,0.79052 c -0.589,0.10843 -1.085,0.79043 -1.085,1.39496 v 0.20147 5.75055 -0.2015 c 0,0.7905 0.589,1.395 1.395,1.395 0.093,0 0.186,0 0.2945,0 l 3.2705,-0.6975 v 16.368 l -3.875,0.7905 c -0.589,0.0931 -1.085,0.79052 -1.085,1.39505 v 5.75043 c 0,0.79052 0.589,1.37957 1.395,1.37957 0.093,0 0.186,0 0.2945,0 l 3.2705,-0.682 v 14.77147 h 2.7745 v -15.376 L 720.89648,183.3 v 13.99652 h 2.77452 v -14.58547 l 3.76652,-0.69757 c 0.60453,-0.10843 1.10053,-0.79043 1.10053,-1.39496 V 174.775 c 0,-0.806 -0.60453,-1.395 -1.39505,-1.395 -0.0929,0 -0.0929,0 -0.20148,0 l -3.27052,0.6975 v -16.368 l 3.76652,-0.6975 m -15.37602,3.069 8.83498,-1.7825 v 16.368 l -8.83498,1.891 V 160.081"
     id="path1315"
     style="stroke-width:0.992" />
  <path
     class="Accidental"
     d="m 2973.381,149.27748 c -0.186,-0.20148 -0.496,-0.29453 -0.7905,-0.29453 -0.093,0 -0.2945,0.0931 -0.3875,0.0931 l -12.5085,3.472 v -17.36 h -2.7745 v 49.104 c 0,0.79052 0.589,1.28652 1.395,1.28652 0.093,0 0.2945,0 0.3875,0 l 12.5085,-3.472 v 17.36 h 2.666 c 0,-16.46104 0,-32.13152 0,-49.104 0,-0.38757 -0.186,-0.88357 -0.496,-1.08504 m -13.6865,27.77602 v -16.275 l 11.5165,-3.2705 v 16.368 l -11.5165,3.1775"
     id="path1317"
     style="stroke-width:0.992" />
  <path
     class="Accidental"
     d="m 1488.7505,157.012 c 0.6045,-0.0931 1.1005,-0.79052 1.1005,-1.39505 v -5.84347 c 0,-0.79053 -0.6045,-1.39496 -1.395,-1.39496 -0.093,0 -0.093,0 -0.2015,0 l -3.2705,0.69748 v -14.78705 h -2.7745 v 15.376 l -8.835,1.798 V 137.46652 H 1470.6 V 152.052 l -3.875,0.79052 c -0.589,0.10843 -1.085,0.79043 -1.085,1.39496 v 0.20147 5.75055 -0.2015 c 0,0.7905 0.589,1.395 1.395,1.395 0.093,0 0.186,0 0.2945,0 l 3.2705,-0.6975 v 16.368 l -3.875,0.7905 c -0.589,0.0931 -1.085,0.79052 -1.085,1.39505 v 5.75043 c 0,0.79052 0.589,1.37957 1.395,1.37957 0.093,0 0.186,0 0.2945,0 l 3.2705,-0.682 v 14.77147 h 2.7745 v -15.376 l 8.835,-1.78252 v 13.99652 h 2.7745 v -14.58547 l 3.7665,-0.69757 c 0.6045,-0.10843 1.1005,-0.79043 1.1005,-1.39496 V 174.775 c 0,-0.806 -0.6045,-1.395 -1.395,-1.395 -0.093,0 -0.093,0 -0.2015,0 l -3.2705,0.6975 v -16.368 l 3.7665,-0.6975 m -15.376,3.069 8.835,-1.7825 v 16.368 l -8.835,1.891 V 160.081"
     id="path1319"
     style="stroke-width:0.992" />
  <path
     class="Accidental"
     d="m 792.08805,149.27748 c -0.186,-0.20148 -0.496,-0.29453 -0.79053,-0.29453 -0.093,0 -0.29452,0.0931 -0.38747,0.0931 l -12.50855,3.472 v -17.36 h -2.7745 v 49.104 c 0,0.79052 0.589,1.28652 1.395,1.28652 0.093,0 0.2945,0 0.3875,0 l 12.50855,-3.472 v 17.36 h 2.666 c 0,-16.46104 0,-32.13152 0,-49.104 0,-0.38757 -0.186,-0.88357 -0.496,-1.08504 M 778.4015,177.0535 v -16.275 l 11.51655,-3.2705 v 16.368 l -11.51655,3.1775"
     id="path1321"
     style="stroke-width:0.992" />
  <path
     class="Accidental"
     d="m 3148.9605,157.012 c 0.6045,-0.0931 1.1005,-0.79052 1.1005,-1.39505 v -5.84347 c 0,-0.79053 -0.6045,-1.39496 -1.395,-1.39496 -0.093,0 -0.093,0 -0.2015,0 l -3.2705,0.69748 v -14.78705 h -2.7745 v 15.376 l -8.835,1.798 V 137.46652 H 3130.81 V 152.052 l -3.875,0.79052 c -0.589,0.10843 -1.085,0.79043 -1.085,1.39496 v 0.20147 5.75055 -0.2015 c 0,0.7905 0.589,1.395 1.395,1.395 0.093,0 0.186,0 0.2945,0 l 3.2705,-0.6975 v 16.368 l -3.875,0.7905 c -0.589,0.0931 -1.085,0.79052 -1.085,1.39505 v 5.75043 c 0,0.79052 0.589,1.37957 1.395,1.37957 0.093,0 0.186,0 0.2945,0 l 3.2705,-0.682 v 14.77147 h 2.7745 v -15.376 l 8.835,-1.78252 v 13.99652 h 2.7745 v -14.58547 l 3.7665,-0.69757 c 0.6045,-0.10843 1.1005,-0.79043 1.1005,-1.39496 V 174.775 c 0,-0.806 -0.6045,-1.395 -1.395,-1.395 -0.093,0 -0.093,0 -0.2015,0 l -3.2705,0.6975 v -16.368 l 3.7665,-0.6975 m -15.376,3.069 8.835,-1.7825 v 16.368 l -8.835,1.891 V 160.081"
     id="path1323"
     style="stroke-width:0.992" />
  <path
     class="Accidental"
     d="m 1918.2005,157.012 c 0.6045,-0.0931 1.1005,-0.79052 1.1005,-1.39505 v -5.84347 c 0,-0.79053 -0.6045,-1.39496 -1.395,-1.39496 -0.093,0 -0.093,0 -0.2015,0 l -3.2705,0.69748 v -14.78705 h -2.7745 v 15.376 l -8.835,1.798 V 137.46652 H 1900.05 V 152.052 l -3.875,0.79052 c -0.589,0.10843 -1.085,0.79043 -1.085,1.39496 v 0.20147 5.75055 -0.2015 c 0,0.7905 0.589,1.395 1.395,1.395 0.093,0 0.186,0 0.2945,0 l 3.2705,-0.6975 v 16.368 l -3.875,0.7905 c -0.589,0.0931 -1.085,0.79052 -1.085,1.39505 v 5.75043 c 0,0.79052 0.589,1.37957 1.395,1.37957 0.093,0 0.186,0 0.2945,0 l 3.2705,-0.682 v 14.77147 h 2.7745 v -15.376 l 8.835,-1.78252 v 13.99652 h 2.7745 v -14.58547 l 3.7665,-0.69757 c 0.6045,-0.10843 1.1005,-0.79043 1.1005,-1.39496 V 174.775 c 0,-0.806 -0.6045,-1.395 -1.395,-1.395 -0.093,0 -0.093,0 -0.2015,0 l -3.2705,0.6975 v -16.368 l 3.7665,-0.6975 m -15.376,3.069 8.835,-1.7825 v 16.368 l -8.835,1.891 V 160.081"
     id="path1325"
     style="stroke-width:0.992" />
  <path
     class="Accidental"
     d="m 380.06352,157.012 c 0.60453,-0.0931 1.10053,-0.79052 1.10053,-1.39505 v -5.84347 c 0,-0.79053 -0.60453,-1.39496 -1.39505,-1.39496 -0.093,0 -0.093,0 -0.20148,0 L 376.297,149.076 v -14.78705 h -2.77452 v 15.376 l -8.83498,1.798 V 137.46652 H 361.913 V 152.052 l -3.875,0.79052 c -0.589,0.10843 -1.085,0.79043 -1.085,1.39496 v 0.20147 5.75055 -0.2015 c 0,0.7905 0.589,1.395 1.395,1.395 0.093,0 0.186,0 0.2945,0 l 3.2705,-0.6975 v 16.368 l -3.875,0.7905 c -0.589,0.0931 -1.085,0.79052 -1.085,1.39505 v 5.75043 c 0,0.79052 0.589,1.37957 1.395,1.37957 0.093,0 0.186,0 0.2945,0 l 3.2705,-0.682 v 14.77147 h 2.7745 v -15.376 L 373.52248,183.3 v 13.99652 h 2.77452 v -14.58547 l 3.76652,-0.69757 c 0.60453,-0.10843 1.10053,-0.79043 1.10053,-1.39496 V 174.775 c 0,-0.806 -0.60453,-1.395 -1.39505,-1.395 -0.093,0 -0.093,0 -0.20148,0 l -3.27052,0.6975 v -16.368 l 3.76652,-0.6975 m -15.37602,3.069 8.83498,-1.7825 v 16.368 l -8.83498,1.891 V 160.081"
     id="path1327"
     style="stroke-width:0.992" />
  <path
     class="Accidental"
     d="m 3213.611,149.27748 c -0.186,-0.20148 -0.496,-0.29453 -0.7905,-0.29453 -0.093,0 -0.2945,0.0931 -0.3875,0.0931 l -12.5085,3.472 v -17.36 h -2.7745 v 49.104 c 0,0.79052 0.589,1.28652 1.395,1.28652 0.093,0 0.2945,0 0.3875,0 l 12.5085,-3.472 v 17.36 h 2.666 c 0,-16.46104 0,-32.13152 0,-49.104 0,-0.38757 -0.186,-0.88357 -0.496,-1.08504 m -13.6865,27.77602 v -16.275 l 11.5165,-3.2705 v 16.368 l -11.5165,3.1775"
     id="path1329"
     style="stroke-width:0.992" />
  <path
     class="Accidental"
     d="m 3644.6805,157.012 c 0.6045,-0.0931 1.1005,-0.79052 1.1005,-1.39505 v -5.84347 c 0,-0.79053 -0.6045,-1.39496 -1.395,-1.39496 -0.093,0 -0.093,0 -0.2015,0 l -3.2705,0.69748 v -14.78705 h -2.7745 v 15.376 l -8.835,1.798 V 137.46652 H 3626.53 V 152.052 l -3.875,0.79052 c -0.589,0.10843 -1.085,0.79043 -1.085,1.39496 v 0.20147 5.75055 -0.2015 c 0,0.7905 0.589,1.395 1.395,1.395 0.093,0 0.186,0 0.2945,0 l 3.2705,-0.6975 v 16.368 l -3.875,0.7905 c -0.589,0.0931 -1.085,0.79052 -1.085,1.39505 v 5.75043 c 0,0.79052 0.589,1.37957 1.395,1.37957 0.093,0 0.186,0 0.2945,0 l 3.2705,-0.682 v 14.77147 h 2.7745 v -15.376 l 8.835,-1.78252 v 13.99652 h 2.7745 v -14.58547 l 3.7665,-0.69757 c 0.6045,-0.10843 1.1005,-0.79043 1.1005,-1.39496 V 174.775 c 0,-0.806 -0.6045,-1.395 -1.395,-1.395 -0.093,0 -0.093,0 -0.2015,0 l -3.2705,0.6975 v -16.368 l 3.7665,-0.6975 m -15.376,3.069 8.835,-1.7825 v 16.368 l -8.835,1.891 V 160.081"
     id="path1331"
     style="stroke-width:0.992" />
  <path
     class="Accidental"
     d="m 993.04052,157.012 c 0.60453,-0.0931 1.10053,-0.79052 1.10053,-1.39505 v -5.84347 c 0,-0.79053 -0.60453,-1.39496 -1.39505,-1.39496 -0.0929,0 -0.0929,0 -0.20148,0 L 989.274,149.076 v -14.78705 h -2.77452 v 15.376 l -8.83498,1.798 V 137.46652 H 974.89 V 152.052 l -3.875,0.79052 c -0.589,0.10843 -1.085,0.79043 -1.085,1.39496 v 0.20147 5.75055 -0.2015 c 0,0.7905 0.589,1.395 1.395,1.395 0.093,0 0.186,0 0.2945,0 l 3.2705,-0.6975 v 16.368 l -3.875,0.7905 c -0.589,0.0931 -1.085,0.79052 -1.085,1.39505 v 5.75043 c 0,0.79052 0.589,1.37957 1.395,1.37957 0.093,0 0.186,0 0.2945,0 l 3.2705,-0.682 v 14.77147 h 2.7745 v -15.376 L 986.49948,183.3 v 13.99652 h 2.77452 v -14.58547 l 3.76652,-0.69757 c 0.60453,-0.10843 1.10053,-0.79043 1.10053,-1.39496 V 174.775 c 0,-0.806 -0.60453,-1.395 -1.39505,-1.395 -0.0929,0 -0.0929,0 -0.20148,0 l -3.27052,0.6975 v -16.368 l 3.76652,-0.6975 m -15.37602,3.069 8.83498,-1.7825 v 16.368 l -8.83498,1.891 V 160.081"
     id="path1333"
     style="stroke-width:0.992" />
  <path
     class="Accidental"
     d="m 2908.7305,157.012 c 0.6045,-0.0931 1.1005,-0.79052 1.1005,-1.39505 v -5.84347 c 0,-0.79053 -0.6045,-1.39496 -1.395,-1.39496 -0.093,0 -0.093,0 -0.2015,0 l -3.2705,0.69748 v -14.78705 h -2.7745 v 15.376 l -8.835,1.798 V 137.46652 H 2890.58 V 152.052 l -3.875,0.79052 c -0.589,0.10843 -1.085,0.79043 -1.085,1.39496 v 0.20147 5.75055 -0.2015 c 0,0.7905 0.589,1.395 1.395,1.395 0.093,0 0.186,0 0.2945,0 l 3.2705,-0.6975 v 16.368 l -3.875,0.7905 c -0.589,0.0931 -1.085,0.79052 -1.085,1.39505 v 5.75043 c 0,0.79052 0.589,1.37957 1.395,1.37957 0.093,0 0.186,0 0.2945,0 l 3.2705,-0.682 v 14.77147 h 2.7745 v -15.376 l 8.835,-1.78252 v 13.99652 h 2.7745 v -14.58547 l 3.7665,-0.69757 c 0.6045,-0.10843 1.1005,-0.79043 1.1005,-1.39496 V 174.775 c 0,-0.806 -0.6045,-1.395 -1.395,-1.395 -0.093,0 -0.093,0 -0.2015,0 l -3.2705,0.6975 v -16.368 l 3.7665,-0.6975 m -15.376,3.069 8.835,-1.7825 v 16.368 l -8.835,1.891 V 160.081"
     id="path1335"
     style="stroke-width:0.992" />
  <polyline
     class="LedgerLine"
     fill="none"
     stroke="#000000"
     stroke-width="3.97"
     stroke-linejoin="bevel"
     points="432.572,758.198 481.164,758.198"
     id="polyline1337"
     transform="translate(-178,-528.77)" />
  <polyline
     class="LedgerLine"
     fill="none"
     stroke="#000000"
     stroke-width="3.97"
     stroke-linejoin="bevel"
     points="4044.57,758.198 4093.16,758.198"
     id="polyline1339"
     transform="translate(-178,-528.77)" />
  <polyline
     class="LedgerLine"
     fill="none"
     stroke="#000000"
     stroke-width="3.97"
     stroke-linejoin="bevel"
     points="1541.26,758.198 1589.86,758.198"
     id="polyline1341"
     transform="translate(-178,-528.77)" />
  <polyline
     class="LedgerLine"
     fill="none"
     stroke="#000000"
     stroke-width="3.97"
     stroke-linejoin="bevel"
     points="3697.19,758.198 3745.79,758.198"
     id="polyline1343"
     transform="translate(-178,-528.77)" />
  <polyline
     class="Stem"
     fill="none"
     stroke="#000000"
     stroke-width="2.48"
     stroke-linejoin="bevel"
     points="3023.95,675.565 3023.95,770.653"
     id="polyline1345"
     transform="translate(-178,-528.77)" />
  <polyline
     class="Stem"
     fill="none"
     stroke="#000000"
     stroke-width="2.48"
     stroke-linejoin="bevel"
     points="3095.25,700.365 3095.25,773.804"
     id="polyline1347"
     transform="translate(-178,-528.77)" />
  <polyline
     class="Stem"
     fill="none"
     stroke="#000000"
     stroke-width="2.48"
     stroke-linejoin="bevel"
     points="3161.79,700.365 3161.79,776.744"
     id="polyline1349"
     transform="translate(-178,-528.77)" />
  <polyline
     class="Stem"
     fill="none"
     stroke="#000000"
     stroke-width="2.48"
     stroke-linejoin="bevel"
     points="3244.83,704.63 3244.83,621.798"
     id="polyline1351"
     transform="translate(-178,-528.77)" />
  <polyline
     class="Stem"
     fill="none"
     stroke="#000000"
     stroke-width="2.48"
     stroke-linejoin="bevel"
     points="471.74,754.23 471.74,671.398"
     id="polyline1353"
     transform="translate(-178,-528.77)" />
  <polyline
     class="Stem"
     fill="none"
     stroke="#000000"
     stroke-width="2.48"
     stroke-linejoin="bevel"
     points="3365.23,692.23 3365.23,615.598"
     id="polyline1355"
     transform="translate(-178,-528.77)" />
  <polyline
     class="Stem"
     fill="none"
     stroke="#000000"
     stroke-width="2.48"
     stroke-linejoin="bevel"
     points="3429.3,692.23 3429.3,615.669"
     id="polyline1357"
     transform="translate(-178,-528.77)" />
  <polyline
     class="Stem"
     fill="none"
     stroke="#000000"
     stroke-width="2.48"
     stroke-linejoin="bevel"
     points="525.033,704.63 525.033,627.998"
     id="polyline1359"
     transform="translate(-178,-528.77)" />
  <polyline
     class="Stem"
     fill="none"
     stroke="#000000"
     stroke-width="2.48"
     stroke-linejoin="bevel"
     points="3482.59,704.63 3482.59,618.698"
     id="polyline1361"
     transform="translate(-178,-528.77)" />
  <polyline
     class="Stem"
     fill="none"
     stroke="#000000"
     stroke-width="2.48"
     stroke-linejoin="bevel"
     points="3535.88,717.03 3535.88,621.728"
     id="polyline1363"
     transform="translate(-178,-528.77)" />
  <polyline
     class="Stem"
     fill="none"
     stroke="#000000"
     stroke-width="2.48"
     stroke-linejoin="bevel"
     points="596.333,692.23 596.333,627.998"
     id="polyline1365"
     transform="translate(-178,-528.77)" />
  <polyline
     class="Stem"
     fill="none"
     stroke="#000000"
     stroke-width="2.48"
     stroke-linejoin="bevel"
     points="3589.17,729.43 3589.17,646.598"
     id="polyline1367"
     transform="translate(-178,-528.77)" />
  <polyline
     class="Stem"
     fill="none"
     stroke="#000000"
     stroke-width="2.48"
     stroke-linejoin="bevel"
     points="3789.65,704.63 3789.65,627.998"
     id="polyline1369"
     transform="translate(-178,-528.77)" />
  <polyline
     class="Stem"
     fill="none"
     stroke="#000000"
     stroke-width="2.48"
     stroke-linejoin="bevel"
     points="666.982,704.63 666.982,627.998"
     id="polyline1371"
     transform="translate(-178,-528.77)" />
  <polyline
     class="Stem"
     fill="none"
     stroke="#000000"
     stroke-width="2.48"
     stroke-linejoin="bevel"
     points="2694.59,675.565 2694.59,739.598"
     id="polyline1373"
     transform="translate(-178,-528.77)" />
  <polyline
     class="Stem"
     fill="none"
     stroke="#000000"
     stroke-width="2.48"
     stroke-linejoin="bevel"
     points="3860.95,692.23 3860.95,627.998"
     id="polyline1375"
     transform="translate(-178,-528.77)" />
  <polyline
     class="Stem"
     fill="none"
     stroke="#000000"
     stroke-width="2.48"
     stroke-linejoin="bevel"
     points="789.37,663.165 789.37,745.798"
     id="polyline1377"
     transform="translate(-178,-528.77)" />
  <polyline
     class="Stem"
     fill="none"
     stroke="#000000"
     stroke-width="2.48"
     stroke-linejoin="bevel"
     points="3931.6,704.63 3931.6,627.998"
     id="polyline1379"
     transform="translate(-178,-528.77)" />
  <polyline
     class="Stem"
     fill="none"
     stroke="#000000"
     stroke-width="2.48"
     stroke-linejoin="bevel"
     points="842.662,675.565 842.662,770.653"
     id="polyline1381"
     transform="translate(-178,-528.77)" />
  <polyline
     class="Stem"
     fill="none"
     stroke="#000000"
     stroke-width="2.48"
     stroke-linejoin="bevel"
     points="4083.74,754.23 4083.74,671.398"
     id="polyline1383"
     transform="translate(-178,-528.77)" />
  <polyline
     class="Stem"
     fill="none"
     stroke="#000000"
     stroke-width="2.48"
     stroke-linejoin="bevel"
     points="913.962,700.365 913.962,773.804"
     id="polyline1385"
     transform="translate(-178,-528.77)" />
  <polyline
     class="Stem"
     fill="none"
     stroke="#000000"
     stroke-width="2.48"
     stroke-linejoin="bevel"
     points="980.504,700.365 980.504,776.744"
     id="polyline1387"
     transform="translate(-178,-528.77)" />
  <polyline
     class="Stem"
     fill="none"
     stroke="#000000"
     stroke-width="2.48"
     stroke-linejoin="bevel"
     points="1088.9,704.63 1088.9,621.798"
     id="polyline1389"
     transform="translate(-178,-528.77)" />
  <polyline
     class="Stem"
     fill="none"
     stroke="#000000"
     stroke-width="2.48"
     stroke-linejoin="bevel"
     points="1209.31,692.23 1209.31,615.598"
     id="polyline1391"
     transform="translate(-178,-528.77)" />
  <polyline
     class="Stem"
     fill="none"
     stroke="#000000"
     stroke-width="2.48"
     stroke-linejoin="bevel"
     points="1273.37,692.23 1273.37,615.669"
     id="polyline1393"
     transform="translate(-178,-528.77)" />
  <polyline
     class="Stem"
     fill="none"
     stroke="#000000"
     stroke-width="2.48"
     stroke-linejoin="bevel"
     points="1326.66,704.63 1326.66,618.698"
     id="polyline1395"
     transform="translate(-178,-528.77)" />
  <polyline
     class="Stem"
     fill="none"
     stroke="#000000"
     stroke-width="2.48"
     stroke-linejoin="bevel"
     points="1379.95,717.03 1379.95,621.728"
     id="polyline1397"
     transform="translate(-178,-528.77)" />
  <polyline
     class="Stem"
     fill="none"
     stroke="#000000"
     stroke-width="2.48"
     stroke-linejoin="bevel"
     points="1433.24,729.43 1433.24,646.598"
     id="polyline1399"
     transform="translate(-178,-528.77)" />
  <polyline
     class="Stem"
     fill="none"
     stroke="#000000"
     stroke-width="2.48"
     stroke-linejoin="bevel"
     points="1580.43,754.23 1580.43,671.398"
     id="polyline1401"
     transform="translate(-178,-528.77)" />
  <polyline
     class="Stem"
     fill="none"
     stroke="#000000"
     stroke-width="2.48"
     stroke-linejoin="bevel"
     points="1633.72,704.63 1633.72,627.998"
     id="polyline1403"
     transform="translate(-178,-528.77)" />
  <polyline
     class="Stem"
     fill="none"
     stroke="#000000"
     stroke-width="2.48"
     stroke-linejoin="bevel"
     points="1705.02,692.23 1705.02,627.998"
     id="polyline1405"
     transform="translate(-178,-528.77)" />
  <polyline
     class="Stem"
     fill="none"
     stroke="#000000"
     stroke-width="2.48"
     stroke-linejoin="bevel"
     points="2158.03,675.565 2158.03,751.998"
     id="polyline1407"
     transform="translate(-178,-528.77)" />
  <polyline
     class="Stem"
     fill="none"
     stroke="#000000"
     stroke-width="2.48"
     stroke-linejoin="bevel"
     points="1775.67,704.63 1775.67,627.998"
     id="polyline1409"
     transform="translate(-178,-528.77)" />
  <polyline
     class="Stem"
     fill="none"
     stroke="#000000"
     stroke-width="2.48"
     stroke-linejoin="bevel"
     points="1898.06,675.565 1898.06,751.998"
     id="polyline1411"
     transform="translate(-178,-528.77)" />
  <polyline
     class="Stem"
     fill="none"
     stroke="#000000"
     stroke-width="2.48"
     stroke-linejoin="bevel"
     points="1999.11,692.23 1999.11,615.598"
     id="polyline1413"
     transform="translate(-178,-528.77)" />
  <polyline
     class="Stem"
     fill="none"
     stroke="#000000"
     stroke-width="2.48"
     stroke-linejoin="bevel"
     points="2063.17,692.23 2063.17,615.598"
     id="polyline1415"
     transform="translate(-178,-528.77)" />
  <polyline
     class="Stem"
     fill="none"
     stroke="#000000"
     stroke-width="2.48"
     stroke-linejoin="bevel"
     points="2134.47,692.23 2134.47,615.598"
     id="polyline1417"
     transform="translate(-178,-528.77)" />
  <polyline
     class="Stem"
     fill="none"
     stroke="#000000"
     stroke-width="2.48"
     stroke-linejoin="bevel"
     points="3736.36,754.23 3736.36,671.398"
     id="polyline1419"
     transform="translate(-178,-528.77)" />
  <polyline
     class="Stem"
     fill="none"
     stroke="#000000"
     stroke-width="2.48"
     stroke-linejoin="bevel"
     points="2262.92,663.165 2262.92,745.798"
     id="polyline1421"
     transform="translate(-178,-528.77)" />
  <polyline
     class="Stem"
     fill="none"
     stroke="#000000"
     stroke-width="2.48"
     stroke-linejoin="bevel"
     points="2316.21,675.565 2316.21,770.598"
     id="polyline1423"
     transform="translate(-178,-528.77)" />
  <polyline
     class="Stem"
     fill="none"
     stroke="#000000"
     stroke-width="2.48"
     stroke-linejoin="bevel"
     points="2387.51,700.365 2387.51,770.598"
     id="polyline1425"
     transform="translate(-178,-528.77)" />
  <polyline
     class="Stem"
     fill="none"
     stroke="#000000"
     stroke-width="2.48"
     stroke-linejoin="bevel"
     points="2440.8,675.565 2440.8,770.598"
     id="polyline1427"
     transform="translate(-178,-528.77)" />
  <polyline
     class="Stem"
     fill="none"
     stroke="#000000"
     stroke-width="2.48"
     stroke-linejoin="bevel"
     points="2494.09,663.165 2494.09,745.798"
     id="polyline1429"
     transform="translate(-178,-528.77)" />
  <polyline
     class="Stem"
     fill="none"
     stroke="#000000"
     stroke-width="2.48"
     stroke-linejoin="bevel"
     points="2671.03,717.03 2671.03,634.198"
     id="polyline1431"
     transform="translate(-178,-528.77)" />
  <polyline
     class="Stem"
     fill="none"
     stroke="#000000"
     stroke-width="2.48"
     stroke-linejoin="bevel"
     points="2747.88,663.165 2747.88,739.598"
     id="polyline1433"
     transform="translate(-178,-528.77)" />
  <polyline
     class="Stem"
     fill="none"
     stroke="#000000"
     stroke-width="2.48"
     stroke-linejoin="bevel"
     points="2818.53,675.565 2818.53,739.598"
     id="polyline1435"
     transform="translate(-178,-528.77)" />
  <polyline
     class="Stem"
     fill="none"
     stroke="#000000"
     stroke-width="2.48"
     stroke-linejoin="bevel"
     points="2970.66,663.165 2970.66,745.798"
     id="polyline1437"
     transform="translate(-178,-528.77)" />
  <path
     class="Note"
     d="m 3380.19,208.7975 c 0,4.2625 3.069,9.02102 11.1135,9.02102 10.3075,0 21.1265,-8.43202 21.1265,-17.15852 0,-5.859 -4.96,-9.12948 -11.1135,-9.12948 -9.6255,0 -21.1265,8.13748 -21.1265,17.26698"
     id="path1439"
     style="stroke-width:0.992" />
  <path
     class="Note"
     d="m 1117.68,183.9975 c 0,4.2625 3.069,9.02102 11.1135,9.02102 10.3075,0 21.1265,-8.43202 21.1265,-17.15852 0,-5.859 -4.96,-9.12948 -11.1135,-9.12948 -9.6255,0 -21.1265,8.13748 -21.1265,17.26698"
     id="path1441"
     style="stroke-width:0.992" />
  <path
     class="Note"
     d="m 457.997,183.9975 c 0,4.2625 3.069,9.02102 11.11348,9.02102 10.30757,0 21.12652,-8.43202 21.12652,-17.15852 0,-5.859 -4.96,-9.12948 -11.11348,-9.12948 -9.62547,0 -21.12652,8.13748 -21.12652,17.26698"
     id="path1443"
     style="stroke-width:0.992" />
  <path
     class="Note"
     d="m 1064.38,171.5975 c 0,4.2625 3.069,9.02102 11.1135,9.02102 10.3075,0 21.1265,-8.43202 21.1265,-17.15852 0,-5.859 -4.96,-9.12948 -11.1135,-9.12948 -9.6255,0 -21.1265,8.13748 -21.1265,17.26698"
     id="path1445"
     style="stroke-width:0.992" />
  <path
     class="Note"
     d="m 262.756,233.5975 c 0,4.2625 3.069,9.02102 11.11348,9.02102 10.30757,0 21.12652,-8.43202 21.12652,-17.15852 0,-5.859 -4.96,-9.12948 -11.11348,-9.12948 -9.62547,0 -21.12652,8.13748 -21.12652,17.26698"
     id="path1447"
     style="stroke-width:0.992" />
  <path
     class="Note"
     d="m 3527.38,233.5975 c 0,4.2625 3.069,9.02102 11.1135,9.02102 10.3075,0 21.1265,-8.43202 21.1265,-17.15852 0,-5.859 -4.96,-9.12948 -11.1135,-9.12948 -9.6255,0 -21.1265,8.13748 -21.1265,17.26698"
     id="path1449"
     style="stroke-width:0.992" />
  <path
     class="Note"
     d="m 316.048,183.9975 c 0,4.2625 3.069,9.02102 11.11348,9.02102 10.30757,0 21.12652,-8.43202 21.12652,-17.15852 0,-5.859 -4.96,-9.12948 -11.11348,-9.12948 -9.62547,0 -21.12652,8.13748 -21.12652,17.26698"
     id="path1451"
     style="stroke-width:0.992" />
  <path
     class="Note"
     d="m 2462.04,196.3975 c 0,4.2625 3.069,9.02102 11.1135,9.02102 10.3075,0 21.1265,-8.43202 21.1265,-17.15852 0,-5.859 -4.96,-9.12948 -11.1135,-9.12948 -9.6255,0 -21.1265,8.13748 -21.1265,17.26698"
     id="path1453"
     style="stroke-width:0.992" />
  <path
     class="Note"
     d="m 387.348,171.5975 c 0,4.2625 3.069,9.02102 11.11348,9.02102 10.30757,0 21.12652,-8.43202 21.12652,-17.15852 0,-5.859 -4.96,-9.12948 -11.11348,-9.12948 -9.62547,0 -21.12652,8.13748 -21.12652,17.26698"
     id="path1455"
     style="stroke-width:0.992" />
  <path
     class="Note"
     d="m 2083.68,134.3975 c 0,4.2625 3.069,9.02102 11.1135,9.02102 10.3075,0 21.1265,-8.43202 21.1265,-17.15852 0,-5.859 -4.96,-9.12948 -11.1135,-9.12948 -9.6255,0 -21.1265,8.13748 -21.1265,17.26698"
     id="path1457"
     style="stroke-width:0.992" />
  <path
     class="Note"
     d="m 3580.67,183.9975 c 0,4.2625 3.069,9.02102 11.1135,9.02102 10.3075,0 21.1265,-8.43202 21.1265,-17.15852 0,-5.859 -4.96,-9.12948 -11.1135,-9.12948 -9.6255,0 -21.1265,8.13748 -21.1265,17.26698"
     id="path1459"
     style="stroke-width:0.992" />
  <path
     class="Note"
     d="m 610.13,134.3975 c 0,4.2625 3.069,9.02102 11.11348,9.02102 10.30757,0 21.12652,-8.43202 21.12652,-17.15852 0,-5.859 -4.96,-9.12948 -11.11348,-9.12948 -9.62547,0 -21.12652,8.13748 -21.12652,17.26698"
     id="path1461"
     style="stroke-width:0.992" />
  <path
     class="Note"
     d="m 663.422,146.7975 c 0,4.2625 3.069,9.02102 11.11348,9.02102 10.30757,0 21.12652,-8.43202 21.12652,-17.15852 0,-5.859 -4.96,-9.12948 -11.11348,-9.12948 -9.62547,0 -21.12652,8.13748 -21.12652,17.26698"
     id="path1463"
     style="stroke-width:0.992" />
  <path
     class="Note"
     d="m 2136.97,146.7975 c 0,4.2625 3.069,9.02102 11.1135,9.02102 10.3075,0 21.1265,-8.43202 21.1265,-17.15852 0,-5.859 -4.96,-9.12948 -11.1135,-9.12948 -9.6255,0 -21.1265,8.13748 -21.1265,17.26698"
     id="path1465"
     style="stroke-width:0.992" />
  <path
     class="Note"
     d="m 2568.64,134.3975 c 0,4.2625 3.069,9.02102 11.1135,9.02102 10.3075,0 21.1265,-8.43202 21.1265,-17.15852 0,-5.859 -4.96,-9.12948 -11.1135,-9.12948 -9.6255,0 -21.1265,8.13748 -21.1265,17.26698"
     id="path1467"
     style="stroke-width:0.992" />
  <path
     class="Note"
     d="m 1496.04,171.5975 c 0,4.2625 3.069,9.02102 11.1135,9.02102 10.3075,0 21.1265,-8.43202 21.1265,-17.15852 0,-5.859 -4.96,-9.12948 -11.1135,-9.12948 -9.6255,0 -21.1265,8.13748 -21.1265,17.26698"
     id="path1469"
     style="stroke-width:0.992" />
  <path
     class="Note"
     d="m 3651.97,171.5975 c 0,4.2625 3.069,9.02102 11.1135,9.02102 10.3075,0 21.1265,-8.43202 21.1265,-17.15852 0,-5.859 -4.96,-9.12948 -11.1135,-9.12948 -9.6255,0 -21.1265,8.13748 -21.1265,17.26698"
     id="path1471"
     style="stroke-width:0.992" />
  <path
     class="Note"
     d="m 2639.29,146.7975 c 0,4.2625 3.069,9.02102 11.1135,9.02102 10.3075,0 21.1265,-8.43202 21.1265,-17.15852 0,-5.859 -4.96,-9.12948 -11.1135,-9.12948 -9.6255,0 -21.1265,8.13748 -21.1265,17.26698"
     id="path1473"
     style="stroke-width:0.992" />
  <path
     class="Note"
     d="m 1000.32,171.5975 c 0,4.2625 3.069,9.02102 11.1135,9.02102 10.3075,0 21.1265,-8.43202 21.1265,-17.15852 0,-5.859 -4.96,-9.12948 -11.1135,-9.12948 -9.6255,0 -21.1265,8.13748 -21.1265,17.26698"
     id="path1475"
     style="stroke-width:0.992" />
  <path
     class="Note"
     d="m 2515.35,146.7975 c 0,4.2625 3.069,9.02102 11.1135,9.02102 10.3075,0 21.1265,-8.43202 21.1265,-17.15852 0,-5.859 -4.96,-9.12948 -11.1135,-9.12948 -9.6255,0 -21.1265,8.13748 -21.1265,17.26698"
     id="path1477"
     style="stroke-width:0.992" />
  <path
     class="Note"
     d="m 1566.69,183.9975 c 0,4.2625 3.069,9.02102 11.1135,9.02102 10.3075,0 21.1265,-8.43202 21.1265,-17.15852 0,-5.859 -4.96,-9.12948 -11.1135,-9.12948 -9.6255,0 -21.1265,8.13748 -21.1265,17.26698"
     id="path1479"
     style="stroke-width:0.992" />
  <path
     class="Note"
     d="m 1854.18,171.5975 c 0,4.2625 3.069,9.02102 11.1135,9.02102 10.3075,0 21.1265,-8.43202 21.1265,-17.15852 0,-5.859 -4.96,-9.12948 -11.1135,-9.12948 -9.6255,0 -21.1265,8.13748 -21.1265,17.26698"
     id="path1481"
     style="stroke-width:0.992" />
  <path
     class="Note"
     d="m 2791.42,134.3975 c 0,4.2625 3.069,9.02102 11.1135,9.02102 10.3075,0 21.1265,-8.43202 21.1265,-17.15852 0,-5.859 -4.96,-9.12948 -11.1135,-9.12948 -9.6255,0 -21.1265,8.13748 -21.1265,17.26698"
     id="path1483"
     style="stroke-width:0.992" />
  <path
     class="Note"
     d="m 2208.27,171.5975 c 0,4.2625 3.069,9.02102 11.1135,9.02102 10.3075,0 21.1265,-8.43202 21.1265,-17.15852 0,-5.859 -4.96,-9.12948 -11.1135,-9.12948 -9.6255,0 -21.1265,8.13748 -21.1265,17.26698"
     id="path1485"
     style="stroke-width:0.992" />
  <path
     class="Note"
     d="m 2844.71,146.7975 c 0,4.2625 3.069,9.02102 11.1135,9.02102 10.3075,0 21.1265,-8.43202 21.1265,-17.15852 0,-5.859 -4.96,-9.12948 -11.1135,-9.12948 -9.6255,0 -21.1265,8.13748 -21.1265,17.26698"
     id="path1487"
     style="stroke-width:0.992" />
  <path
     class="Note"
     d="m 879.92,183.9975 c 0,4.2625 3.069,9.02102 11.11348,9.02102 10.30757,0 21.12652,-8.43202 21.12652,-17.15852 0,-5.859 -4.96,-9.12948 -11.11348,-9.12948 -9.62547,0 -21.12652,8.13748 -21.12652,17.26698"
     id="path1489"
     style="stroke-width:0.992" />
  <path
     class="Note"
     d="m 801.264,171.5975 c 0,4.2625 3.069,9.02102 11.11348,9.02102 10.30757,0 21.12652,-8.43202 21.12652,-17.15852 0,-5.859 -4.96,-9.12948 -11.11348,-9.12948 -9.62547,0 -21.12652,8.13748 -21.12652,17.26698"
     id="path1491"
     style="stroke-width:0.992" />
  <path
     class="Note"
     d="m 2916.01,171.5975 c 0,4.2625 3.069,9.02102 11.1135,9.02102 10.3075,0 21.1265,-8.43202 21.1265,-17.15852 0,-5.859 -4.96,-9.12948 -11.1135,-9.12948 -9.6255,0 -21.1265,8.13748 -21.1265,17.26698"
     id="path1493"
     style="stroke-width:0.992" />
  <path
     class="Note"
     d="m 734.722,171.5975 c 0,4.2625 3.069,9.02102 11.11348,9.02102 10.30757,0 21.12652,-8.43202 21.12652,-17.15852 0,-5.859 -4.96,-9.12948 -11.11348,-9.12948 -9.62547,0 -21.12652,8.13748 -21.12652,17.26698"
     id="path1495"
     style="stroke-width:0.992" />
  <path
     class="Note"
     d="m 1978.79,146.7975 c 0,4.2625 3.069,9.02102 11.1135,9.02102 10.3075,0 21.1265,-8.43202 21.1265,-17.15852 0,-5.859 -4.96,-9.12948 -11.1135,-9.12948 -9.6255,0 -21.1265,8.13748 -21.1265,17.26698"
     id="path1497"
     style="stroke-width:0.992" />
  <path
     class="Note"
     d="m 2982.55,171.5975 c 0,4.2625 3.069,9.02102 11.1135,9.02102 10.3075,0 21.1265,-8.43202 21.1265,-17.15852 0,-5.859 -4.96,-9.12948 -11.1135,-9.12948 -9.6255,0 -21.1265,8.13748 -21.1265,17.26698"
     id="path1499"
     style="stroke-width:0.992" />
  <path
     class="Note"
     d="m 3895.8765,216.33052 c -9.6255,0 -21.1265,8.04448 -21.1265,17.26698 0,4.2625 3.069,9.02102 11.1135,9.02102 10.3075,0 21.1265,-8.43202 21.1265,-17.15852 0,-5.859 -4.96,-9.12948 -11.1135,-9.12948 m -2.6815,17.46848 c -0.2945,0.186 -7.533,4.154 -11.005,4.154 -3.2705,0 -3.968,-2.666 -3.968,-3.565 0,-4.1695 9.92,-9.021 10.323,-9.2225 0.3875,-0.2015 7.44,-4.1695 11.005,-4.1695 2.387,0 3.968,1.395 3.968,3.565 0,4.278 -10.013,9.0365 -10.323,9.238"
     id="path1501"
     style="stroke-width:0.992" />
  <path
     class="Note"
     d="m 2261.56,146.7975 c 0,4.2625 3.069,9.02102 11.1135,9.02102 10.3075,0 21.1265,-8.43202 21.1265,-17.15852 0,-5.859 -4.96,-9.12948 -11.1135,-9.12948 -9.6255,0 -21.1265,8.13748 -21.1265,17.26698"
     id="path1503"
     style="stroke-width:0.992" />
  <path
     class="Note"
     d="m 3035.85,183.9975 c 0,4.2625 3.069,9.02102 11.1135,9.02102 10.3075,0 21.1265,-8.43202 21.1265,-17.15852 0,-5.859 -4.96,-9.12948 -11.1135,-9.12948 -9.6255,0 -21.1265,8.13748 -21.1265,17.26698"
     id="path1505"
     style="stroke-width:0.992" />
  <path
     class="Note"
     d="m 1424.74,183.9975 c 0,4.2625 3.069,9.02102 11.1135,9.02102 10.3075,0 21.1265,-8.43202 21.1265,-17.15852 0,-5.859 -4.96,-9.12948 -11.1135,-9.12948 -9.6255,0 -21.1265,8.13748 -21.1265,17.26698"
     id="path1507"
     style="stroke-width:0.992" />
  <path
     class="Note"
     d="m 1371.45,233.5975 c 0,4.2625 3.069,9.02102 11.1135,9.02102 10.3075,0 21.1265,-8.43202 21.1265,-17.15852 0,-5.859 -4.96,-9.12948 -11.1135,-9.12948 -9.6255,0 -21.1265,8.13748 -21.1265,17.26698"
     id="path1509"
     style="stroke-width:0.992" />
  <path
     class="Note"
     d="m 3722.62,183.9975 c 0,4.2625 3.069,9.02102 11.1135,9.02102 10.3075,0 21.1265,-8.43202 21.1265,-17.15852 0,-5.859 -4.96,-9.12948 -11.1135,-9.12948 -9.6255,0 -21.1265,8.13748 -21.1265,17.26698"
     id="path1511"
     style="stroke-width:0.992" />
  <path
     class="Note"
     d="m 3156.25,171.5975 c 0,4.2625 3.069,9.02102 11.1135,9.02102 10.3075,0 21.1265,-8.43202 21.1265,-17.15852 0,-5.859 -4.96,-9.12948 -11.1135,-9.12948 -9.6255,0 -21.1265,8.13748 -21.1265,17.26698"
     id="path1513"
     style="stroke-width:0.992" />
  <path
     class="Note"
     d="m 1224.26,208.7975 c 0,4.2625 3.069,9.02102 11.1135,9.02102 10.3075,0 21.1265,-8.43202 21.1265,-17.15852 0,-5.859 -4.96,-9.12948 -11.1135,-9.12948 -9.6255,0 -21.1265,8.13748 -21.1265,17.26698"
     id="path1515"
     style="stroke-width:0.992" />
  <path
     class="Note"
     d="m 2314.85,134.3975 c 0,4.2625 3.069,9.02102 11.1135,9.02102 10.3075,0 21.1265,-8.43202 21.1265,-17.15852 0,-5.859 -4.96,-9.12948 -11.1135,-9.12948 -9.6255,0 -21.1265,8.13748 -21.1265,17.26698"
     id="path1517"
     style="stroke-width:0.992" />
  <path
     class="Note"
     d="m 3220.31,171.5975 c 0,4.2625 3.069,9.02102 11.1135,9.02102 10.3075,0 21.1265,-8.43202 21.1265,-17.15852 0,-5.859 -4.96,-9.12948 -11.1135,-9.12948 -9.6255,0 -21.1265,8.13748 -21.1265,17.26698"
     id="path1519"
     style="stroke-width:0.992" />
  <path
     class="Note"
     d="m 1170.97,196.3975 c 0,4.2625 3.069,9.02102 11.1135,9.02102 10.3075,0 21.1265,-8.43202 21.1265,-17.15852 0,-5.859 -4.96,-9.12948 -11.1135,-9.12948 -9.6255,0 -21.1265,8.13748 -21.1265,17.26698"
     id="path1521"
     style="stroke-width:0.992" />
  <path
     class="Note"
     d="m 1790.12,171.5975 c 0,4.2625 3.069,9.02102 11.1135,9.02102 10.3075,0 21.1265,-8.43202 21.1265,-17.15852 0,-5.859 -4.96,-9.12948 -11.1135,-9.12948 -9.6255,0 -21.1265,8.13748 -21.1265,17.26698"
     id="path1523"
     style="stroke-width:0.992" />
  <path
     class="Note"
     d="m 3273.6,183.9975 c 0,4.2625 3.069,9.02102 11.1135,9.02102 10.3075,0 21.1265,-8.43202 21.1265,-17.15852 0,-5.859 -4.96,-9.12948 -11.1135,-9.12948 -9.6255,0 -21.1265,8.13748 -21.1265,17.26698"
     id="path1525"
     style="stroke-width:0.992" />
  <path
     class="Note"
     d="m 1718.82,146.7975 c 0,4.2625 3.069,9.02102 11.1135,9.02102 10.3075,0 21.1265,-8.43202 21.1265,-17.15852 0,-5.859 -4.96,-9.12948 -11.1135,-9.12948 -9.6255,0 -21.1265,8.13748 -21.1265,17.26698"
     id="path1527"
     style="stroke-width:0.992" />
  <path
     class="Note"
     d="m 3326.9,196.3975 c 0,4.2625 3.069,9.02102 11.1135,9.02102 10.3075,0 21.1265,-8.43202 21.1265,-17.15852 0,-5.859 -4.96,-9.12948 -11.1135,-9.12948 -9.6255,0 -21.1265,8.13748 -21.1265,17.26698"
     id="path1529"
     style="stroke-width:0.992" />
  <path
     class="Note"
     d="m 1925.48,171.5975 c 0,4.2625 3.069,9.02102 11.1135,9.02102 10.3075,0 21.1265,-8.43202 21.1265,-17.15852 0,-5.859 -4.96,-9.12948 -11.1135,-9.12948 -9.6255,0 -21.1265,8.13748 -21.1265,17.26698"
     id="path1531"
     style="stroke-width:0.992" />
  <path
     class="Clef"
     d="m 74.353475,181.905 c 0,7.0525 -2.88295,14.291 -9.92,17.17405 -2.07695,-11.90405 -4.758425,-27.68305 -5.456,-32.0541 8.928,0 15.376,6.06055 15.376,14.88005 M 60.264,200.25705 c -1.984,0.40295 -3.859475,0.60443 -5.750525,0.60443 -14.182425,0 -26.28797,-9.92 -26.28797,-24.90848 0,-12.09005 8.52502,-22.909 17.26702,-30.45752 1.674,-1.488 3.270525,-2.86748 4.758525,-4.35548 0.883475,5.34748 1.58095,10.01295 2.278425,14.08948 C 43.49305,157.91095 37.35505,167.428 37.35505,176.759 c 0,6.944 5.456,16.461 13.392,16.461 0.790425,0 1.689475,-0.40295 1.689475,-1.28652 0,-0.89896 -0.992,-1.39496 -2.185475,-2.18548 -3.87505,-2.387 -6.060525,-4.96 -6.060525,-9.827 0,-6.045 4.464,-10.91205 10.32295,-12.29152 L 60.264,200.25705 M 51.537475,98.282525 c 0.89905,-3.968 5.456,-14.384 10.617575,-14.384 1.488,0 3.859475,4.851475 3.859475,11.702425 0,10.32305 -7.626,18.05757 -14.47705,24.8 -0.58895,-3.968 -1.08495,-7.82747 -1.08495,-11.99695 0,-3.67348 0.294525,-7.05252 1.08495,-10.121475 m -20.832,132.431995 c 0,6.55653 5.05305,15.19 18.44505,15.19 4.665475,0 8.742,-1.19347 12.30695,-3.37904 C 66.820525,238.75905 68.2,232.20252 68.2,225.956 c 0,-3.85948 -0.58895,-8.32348 -1.58095,-13.98095 -0.294525,-1.984 -0.89905,-4.96 -1.488,-8.83505 9.718425,-3.17748 16.95695,-13.29895 16.95695,-23.5135 0,-14.97302 -10.617475,-25.0945 -25.094525,-25.0945 -0.992,-5.952 -1.984,-11.81105 -2.88295,-17.36 10.524525,-11.02052 17.76295,-23.42052 17.76295,-39.184 0,-9.036525 -2.774425,-16.368 -4.37095,-19.948128 -2.371475,-5.053248 -5.254525,-8.525248 -7.03705,-8.525248 -0.697475,0 -3.766425,1.193376 -7.03695,5.053248 C 47.073475,82.116 45.29105,94.810525 45.29105,103.134 c 0,5.36295 0.496,10.23 2.185475,21.34348 -0.108525,0.093 -5.27,5.34747 -7.34705,7.03704 C 31.09305,139.94652 18.6,151.94348 18.6,171.799 c 0,18.53805 16.166525,33.12352 34.62705,33.12352 2.867475,0 5.54895,-0.29452 7.827475,-0.69747 1.89095,9.53243 2.976,16.47643 2.976,21.73095 0,10.32305 -5.254525,15.77905 -15.267475,15.77905 -2.38705,0 -4.464,-0.496 -4.665575,-0.496 -0.09295,-0.10853 -0.294425,-0.20157 -0.294425,-0.29453 0,-0.20147 0.201475,-0.31 0.496,-0.40304 4.665475,-0.69748 9.315475,-4.66548 9.315475,-11.00496 0,-5.36304 -4.06105,-11.02052 -11.50105,-11.02052 -6.944,0 -11.408,5.65748 -11.408,12.19852"
     id="path1533"
     style="stroke-width:0.992" />
  <path
     class="KeySig"
     d="m 118.12505,147.185 c -0.58905,-3.85952 -2.976,-7.533 -8.02905,-7.533 -4.96,0 -7.843,3.06895 -8.339,3.67348 l 0.403,-31.85253 c 0,-0.79043 -0.589,-1.37947 -1.395,-1.37947 h -1.178 c -0.806,0 -1.395,0.58904 -1.395,1.37947 l 0.496,59.62853 c 0,0.79052 0.589,1.37957 1.395,1.37957 0.186,0 0.589,-0.0931 0.7905,-0.186 0.3875,-0.20157 6.8355,-3.37905 12.1985,-9.42405 3.76652,-4.278 5.25452,-9.1295 5.25452,-13.206 0,-0.8835 -0.093,-1.674 -0.20147,-2.48 m -6.83557,3.875 c 0,1.488 -0.40296,6.045 -2.88296,9.827 -1.68952,2.573 -5.05302,5.25448 -6.94402,6.74248 l 0.2945,-19.34398 c 0.2015,-0.899 1.6895,-3.76655 5.6575,-3.76655 3.58055,0 3.87498,3.36355 3.87498,5.45605 0,0.496 0,0.7905 0,1.085"
     id="path1535"
     style="stroke-width:0.992" />
  <path
     class="KeySig"
     d="m 145.70005,109.985 c -0.58905,-3.85952 -2.976,-7.533 -8.02905,-7.533 -4.96,0 -7.843,3.06895 -8.339,3.67348 l 0.403,-31.85253 c 0,-0.790425 -0.589,-1.379475 -1.395,-1.379475 h -1.178 c -0.806,0 -1.395,0.58905 -1.395,1.379475 l 0.496,59.62853 c 0,0.79052 0.589,1.37957 1.395,1.37957 0.186,0 0.589,-0.0931 0.7905,-0.186 0.3875,-0.20157 6.8355,-3.37905 12.1985,-9.42405 3.76652,-4.278 5.25452,-9.1295 5.25452,-13.206 0,-0.8835 -0.093,-1.674 -0.20147,-2.48 m -6.83557,3.875 c 0,1.488 -0.40296,6.045 -2.88296,9.827 -1.68952,2.573 -5.05302,5.25448 -6.94402,6.74248 l 0.2945,-19.34398 c 0.2015,-0.899 1.6895,-3.76655 5.6575,-3.76655 3.58055,0 3.87498,3.36355 3.87498,5.45605 0,0.496 0,0.7905 0,1.085"
     id="path1537"
     style="stroke-width:0.992" />
  <path
     class="TimeSig"
     d="m 200.21348,129.143 c 7.936,-3.0845 8.432,-8.246 8.432,-10.02848 0,-0.20157 0,-0.38757 0,-0.496 0,-0.88357 -0.29443,-12.10557 -17.36,-12.10557 -17.06548,0 -16.56948,12.10557 -16.56948,12.10557 h 0.093 l -0.093,0.20148 c 0,3.565 2.883,6.355 6.448,6.355 3.56505,0 6.35505,-2.79 6.35505,-6.355 0,-2.88305 -2.18557,-5.65748 -4.96005,-6.24652 0.093,-0.10853 0.186,-0.20148 0.2945,-0.29453 1.37955,-0.992 3.2705,-1.488 5.16155,-1.488 4.154,0 8.618,2.48 8.618,7.82757 0,6.24648 -4.65,7.14548 -5.84357,7.34698 -1.19348,0.2015 -6.74243,0.589 -7.93598,0.589 -1.1935,0 -1.2865,1.395 -1.2865,1.395 v 1.984 c 0,0 0.186,1.085 1.2865,1.1935 1.68955,0.093 3.96798,0.093 7.14555,0.589 4.35547,0.589 6.634,3.565 6.634,10.50905 0,6.64947 -4.464,8.432 -8.618,8.432 -2.79,0 -5.36305,-0.79053 -6.44805,-1.58105 3.27048,-0.20148 5.95205,-3.06895 5.95205,-6.35495 0,-3.56505 -2.79,-6.44805 -6.35505,-6.44805 -3.565,0 -6.448,2.883 -6.448,6.44805 0,0 0,0.20147 0,0.40295 0,1.28652 0.2945,4.86705 3.875,8.13748 3.8595,3.56504 8.72648,3.67357 10.91205,3.67357 9.51695,0 19.84,-3.286 19.84,-14.08957 0,-7.23848 -4.96,-10.32298 -9.33105,-11.70248 h 0.20148"
     id="path1539"
     style="stroke-width:0.992" />
  <path
     class="TimeSig"
     d="m 189.95252,192.42948 v 7.33157 H 181.722 c -0.69748,0 -1.39495,0.60443 -1.39495,1.39495 v 1.89105 c 0,0.79043 0.69747,1.37947 1.39495,1.37947 h 30.05452 c 0.806,0 1.39496,-0.58904 1.39496,-1.37947 V 201.156 c 0,-0.79052 -0.58896,-1.39495 -1.39496,-1.39495 h -8.928 v -7.33157 h 8.928 c 0.806,0 1.39496,-0.69748 1.39496,-1.488 v -1.89098 c 0,-0.6975 -0.58896,-1.3795 -1.39496,-1.3795 h -8.928 v -15.779 c 0,-0.589 -0.29452,-1.085 -0.682,-1.2865 l -1.19347,-0.6045 c -0.20157,-0.093 -0.29453,-0.093 -0.496,-0.093 -0.10853,0 -0.10853,0 -0.20157,0 -0.29443,0 -0.69748,0.093 -0.89896,0.2945 l -9.02104,8.2305 c -0.29443,0.31 -0.40296,0.6975 -0.40296,1.1005 v 8.1375 H 178.4515 c 0,0 11.11355,-11.904 22.81598,-27.59005 0.40304,-0.496 0.496,-0.992 0.496,-1.37947 0,-0.496 -0.20148,-0.89896 -0.29443,-0.992 l -2.18557,-2.18548 c -0.29443,-0.20148 -0.58896,-0.40305 -0.992,-0.40305 -0.58896,0 -13.99643,0 -14.78696,0 -0.69747,0 -1.19347,0.60453 -1.28652,1.19357 0,0 -0.496,7.34696 -3.069,15.37598 -2.5885,8.0445 -5.5645,13.0045 -8.1375,16.6625 0,0 -0.2945,0.496 -0.2945,1.1005 0,0.2015 0,0.38755 0.093,0.58902 0.2945,0.69748 0.992,1.78253 0.992,1.78253 0,0 0.2015,0.60443 1.085,0.60443 h 17.06552"
     id="path1541"
     style="stroke-width:0.992" />
  <path
     class="Beam"
     fill-rule="evenodd"
     d="m 345.793,93.028 h 144.429 v 12.4 H 345.793 v -12.4"
     id="path1543" />
  <path
     class="Beam"
     fill-rule="evenodd"
     d="m 2136.97,235.628 h 127.07 v 12.4 h -127.07 v -12.4"
     id="path1545" />
  <path
     class="Beam"
     fill-rule="evenodd"
     d="m 2136.97,217.028 h 73.78 v 12.4 h -73.78 v -12.4"
     id="path1547" />
  <path
     class="Beam"
     fill-rule="evenodd"
     d="m 2844.71,235.622 140.32,6.2 v 12.412 l -140.32,-6.2 v -12.412"
     id="path1549" />
  <path
     class="Beam"
     fill-rule="evenodd"
     d="m 2844.71,217.022 73.78,3.26 v 12.412 l -73.78,-3.26 v -12.412"
     id="path1551" />
  <path
     class="Beam"
     fill-rule="evenodd"
     d="m 1819.87,80.628 h 137.84 v 12.4 h -137.84 v -12.4"
     id="path1553" />
  <path
     class="Beam"
     fill-rule="evenodd"
     d="m 1819.87,99.228 h 66.54 v 12.4 h -66.54 v -12.4"
     id="path1555" />
  <path
     class="Beam"
     fill-rule="evenodd"
     d="m 1454.48,93.028 h 144.43 v 12.4 h -144.43 v -12.4"
     id="path1557" />
  <path
     class="Beam"
     fill-rule="evenodd"
     d="m 3250.06,80.618 109.06,6.2 v 12.42 l -109.06,-6.2 v -12.42"
     id="path1559" />
  <path
     class="Beam"
     fill-rule="evenodd"
     d="m 3250.06,99.218 55.77,3.171 v 12.42 l -55.77,-3.171 v -12.42"
     id="path1561" />
  <path
     class="Beam"
     fill-rule="evenodd"
     d="m 3610.41,93.028 h 144.43 v 12.4 h -144.43 v -12.4"
     id="path1563" />
  <path
     class="Beam"
     fill-rule="evenodd"
     d="m 2515.35,204.628 h 126.42 v 12.4 h -126.42 v -12.4"
     id="path1565" />
  <path
     class="Beam"
     fill-rule="evenodd"
     d="m 1094.13,80.618 109.06,6.2 v 12.42 l -109.06,-6.2 v -12.42"
     id="path1567" />
  <path
     class="Beam"
     fill-rule="evenodd"
     d="m 1094.13,99.218 55.77,3.171 v 12.42 l -55.77,-3.171 v -12.42"
     id="path1569" />
  <path
     class="Beam"
     fill-rule="evenodd"
     d="m 663.422,235.622 140.322,6.2 v 12.412 l -140.322,-6.2 v -12.412"
     id="path1571" />
  <path
     class="Beam"
     fill-rule="evenodd"
     d="m 663.422,217.022 73.78,3.26 v 12.412 l -73.78,-3.26 v -12.412"
     id="path1573" />
  <path
     class="Tempo"
     d="m 194.65,0 h -3.265 v 42.266 c -1.094,-0.688 -2.485,-1.094 -4.063,-1.281 -3.562,0 -6.437,0.39 -9.609,2.172 -3.953,2.078 -8.313,6.437 -8.313,11.281 0,1.094 0.203,2.187 0.797,3.172 1.281,2.468 4.359,3.859 7.813,3.859 6.937,0 16.64,-5.937 16.64,-13.469 V 0"
     id="path1575" />
  <path
     class="Tempo"
     d="m 216.385,37.953 h 30.234 v -6.906 h -30.234 v 6.906 m 0,12.36 h 30.234 v -6.906 h -30.234 v 6.906 m 74.109,-19.141 c 3.969,-1.5 7.094,-3.844 7.094,-8.578 0,-5.531 -5.235,-9.25 -13.032,-9.25 -9.296,0 -15.296,4.984 -15.296,12.781 0,4.75 2.218,8.219 6.968,10.75 -1.859,0.594 -2.64,0.828 -3.672,1.375 -3,1.563 -4.609,4.313 -4.609,7.797 0,6.485 5.813,10.625 14.938,10.625 9.656,0 16.203,-5.531 16.203,-13.75 0,-5.64 -2.766,-9.359 -8.594,-11.75 m -3.359,-1.265 c -2.516,-0.594 -4.375,-1.141 -5.516,-1.563 -2.75,-1.016 -4.563,-3.469 -4.563,-6.109 0,-3.313 2.766,-5.766 6.485,-5.766 4.015,0 6.547,2.641 6.547,6.844 0,2.703 -1.032,4.984 -2.953,6.594 m -7.672,8.578 c 2.453,0.672 5.453,1.562 6.953,2.047 3.781,1.312 5.219,2.937 5.219,6 0,4.078 -3.36,7.015 -8.094,7.015 -4.86,0 -7.797,-2.875 -7.797,-7.672 0,-3.187 1.016,-5.218 3.719,-7.39 m 38.078,-25.141 c -9,0 -15.594,9.188 -15.594,21.672 0,12.469 6.594,21.656 15.594,21.656 8.812,0 15.547,-9.187 15.547,-21.359 0,-7.078 -1.625,-12.297 -5.172,-16.75 -2.813,-3.406 -6.36,-5.219 -10.375,-5.219 m -0.063,3.125 c 1.797,0 3.25,1.078 3.907,3 0.781,1.984 1.25,8.281 1.25,15.719 0,6.187 -0.469,12.656 -1.016,14.703 -0.656,2.391 -2.094,3.656 -4.141,3.656 -1.859,0 -3.234,-1.015 -3.953,-3 -0.781,-1.984 -1.265,-8.344 -1.265,-15.531 0,-6.313 0.484,-12.844 1.015,-14.891 0.672,-2.39 2.11,-3.656 4.203,-3.656"
     id="path1577" />
  <path
     class="NoteDot"
     d="m 431.973,167.428 c 0,2.7745 2.1855,4.96 4.96,4.96 2.7745,0 4.96,-2.1855 4.96,-4.96 0,-2.7745 -2.1855,-4.96 -4.96,-4.96 -2.7745,0 -4.96,2.1855 -4.96,4.96"
     id="path1579"
     style="stroke-width:0.992" />
  <path
     class="NoteDot"
     d="m 502.622,167.428 c 0,2.7745 2.1855,4.96 4.96,4.96 2.7745,0 4.96,-2.1855 4.96,-4.96 0,-2.7745 -2.1855,-4.96 -4.96,-4.96 -2.7745,0 -4.96,2.1855 -4.96,4.96"
     id="path1581"
     style="stroke-width:0.992" />
  <path
     class="NoteDot"
     d="m 2613.26,117.828 c 0,2.7745 2.1855,4.96 4.96,4.96 2.7745,0 4.96,-2.1855 4.96,-4.96 0,-2.7745 -2.1855,-4.96 -4.96,-4.96 -2.7745,0 -4.96,2.1855 -4.96,4.96"
     id="path1583"
     style="stroke-width:0.992" />
  <path
     class="NoteDot"
     d="m 1611.31,167.428 c 0,2.7745 2.1855,4.96 4.96,4.96 2.7745,0 4.96,-2.1855 4.96,-4.96 0,-2.7745 -2.1855,-4.96 -4.96,-4.96 -2.7745,0 -4.96,2.1855 -4.96,4.96"
     id="path1585"
     style="stroke-width:0.992" />
  <path
     class="NoteDot"
     d="m 1540.66,167.428 c 0,2.7745 2.1855,4.96 4.96,4.96 2.7745,0 4.96,-2.1855 4.96,-4.96 0,-2.7745 -2.1855,-4.96 -4.96,-4.96 -2.7745,0 -4.96,2.1855 -4.96,4.96"
     id="path1587"
     style="stroke-width:0.992" />
  <path
     class="NoteDot"
     d="m 2683.91,142.628 c 0,2.7745 2.1855,4.96 4.96,4.96 2.7745,0 4.96,-2.1855 4.96,-4.96 0,-2.7745 -2.1855,-4.96 -4.96,-4.96 -2.7745,0 -4.96,2.1855 -4.96,4.96"
     id="path1589"
     style="stroke-width:0.992" />
  <path
     class="NoteDot"
     d="m 3767.24,167.428 c 0,2.7745 2.1855,4.96 4.96,4.96 2.7745,0 4.96,-2.1855 4.96,-4.96 0,-2.7745 -2.1855,-4.96 -4.96,-4.96 -2.7745,0 -4.96,2.1855 -4.96,4.96"
     id="path1591"
     style="stroke-width:0.992" />
  <path
     class="NoteDot"
     d="m 3696.59,167.428 c 0,2.7745 2.1855,4.96 4.96,4.96 2.7745,0 4.96,-2.1855 4.96,-4.96 0,-2.7745 -2.1855,-4.96 -4.96,-4.96 -2.7745,0 -4.96,2.1855 -4.96,4.96"
     id="path1593"
     style="stroke-width:0.992" />
  <path
     class="NoteDot"
     d="m 3919.38,217.028 c 0,2.7745 2.1855,4.96 4.96,4.96 2.7745,0 4.96,-2.1855 4.96,-4.96 0,-2.7745 -2.1855,-4.96 -4.96,-4.96 -2.7745,0 -4.96,2.1855 -4.96,4.96"
     id="path1595"
     style="stroke-width:0.992" />
</svg>
