<?xml version="1.0" encoding="UTF-8" standalone="no"?>
<svg
   xmlns:dc="http://purl.org/dc/elements/1.1/"
   xmlns:cc="http://creativecommons.org/ns#"
   xmlns:rdf="http://www.w3.org/1999/02/22-rdf-syntax-ns#"
   xmlns:svg="http://www.w3.org/2000/svg"
   xmlns="http://www.w3.org/2000/svg"
   xmlns:sodipodi="http://sodipodi.sourceforge.net/DTD/sodipodi-0.dtd"
   xmlns:inkscape="http://www.inkscape.org/namespaces/inkscape"
   width="288.17709mm"
   height="14.069298mm"
   viewBox="0 0 4084.3998 199.40737"
   version="1.2"
   id="svg1609"
   sodipodi:docname="Dossium Canto Lesbis Musica.svg"
   inkscape:version="1.0.2-2 (e86c870879, 2021-01-15)">
  <metadata
     id="metadata1615">
    <rdf:RDF>
      <cc:Work
         rdf:about="">
        <dc:format>image/svg+xml</dc:format>
        <dc:type
           rdf:resource="http://purl.org/dc/dcmitype/StillImage" />
      </cc:Work>
    </rdf:RDF>
  </metadata>
  <defs
     id="defs1613" />
  <sodipodi:namedview
     pagecolor="#ffffff"
     bordercolor="#666666"
     borderopacity="1"
     objecttolerance="10"
     gridtolerance="10"
     guidetolerance="10"
     inkscape:pageopacity="0"
     inkscape:pageshadow="2"
     inkscape:window-width="1920"
     inkscape:window-height="991"
     id="namedview1611"
     showgrid="false"
     inkscape:zoom="0.94988596"
     inkscape:cx="528.05332"
     inkscape:cy="237.41743"
     inkscape:window-x="-9"
     inkscape:window-y="-9"
     inkscape:window-maximized="1"
     inkscape:current-layer="svg1609" />
  <title
     id="title1225">Dossium Canto Lesbis Musica</title>
  <desc
     id="desc1227">Generated by MuseScore Studio 4.5.2</desc>
  <polyline
     class="StaffLines"
     fill="none"
     stroke="#000000"
     stroke-width="2.73"
     stroke-linejoin="bevel"
     points="124,634.198 4208.4,634.198"
     id="polyline1229"
     transform="translate(-124,-598.28462)" />
  <polyline
     class="StaffLines"
     fill="none"
     stroke="#000000"
     stroke-width="2.73"
     stroke-linejoin="bevel"
     points="124,658.998 4208.4,658.998"
     id="polyline1231"
     transform="translate(-124,-598.28462)" />
  <polyline
     class="StaffLines"
     fill="none"
     stroke="#000000"
     stroke-width="2.73"
     stroke-linejoin="bevel"
     points="124,683.798 4208.4,683.798"
     id="polyline1233"
     transform="translate(-124,-598.28462)" />
  <polyline
     class="StaffLines"
     fill="none"
     stroke="#000000"
     stroke-width="2.73"
     stroke-linejoin="bevel"
     points="124,708.598 4208.4,708.598"
     id="polyline1235"
     transform="translate(-124,-598.28462)" />
  <polyline
     class="StaffLines"
     fill="none"
     stroke="#000000"
     stroke-width="2.73"
     stroke-linejoin="bevel"
     points="124,733.398 4208.4,733.398"
     id="polyline1237"
     transform="translate(-124,-598.28462)" />
  <polyline
     class="BarLine"
     fill="none"
     stroke="#000000"
     stroke-width="4.46"
     stroke-linejoin="bevel"
     points="3386.1,632.834 3386.1,734.762"
     id="polyline1247"
     transform="translate(-124,-598.28462)" />
  <polyline
     class="BarLine"
     fill="none"
     stroke="#000000"
     stroke-width="4.46"
     stroke-linejoin="bevel"
     points="1450.79,632.834 1450.79,734.762"
     id="polyline1249"
     transform="translate(-124,-598.28462)" />
  <polyline
     class="BarLine"
     fill="none"
     stroke="#000000"
     stroke-width="4.46"
     stroke-linejoin="bevel"
     points="987.586,632.834 987.586,734.762"
     id="polyline1251"
     transform="translate(-124,-598.28462)" />
  <polyline
     class="BarLine"
     fill="none"
     stroke="#000000"
     stroke-width="4.46"
     stroke-linejoin="bevel"
     points="2514.45,632.834 2514.45,734.762"
     id="polyline1253"
     transform="translate(-124,-598.28462)" />
  <polyline
     class="BarLine"
     fill="none"
     stroke="#000000"
     stroke-width="4.46"
     stroke-linejoin="bevel"
     points="2071.97,632.834 2071.97,734.762"
     id="polyline1255"
     transform="translate(-124,-598.28462)" />
  <polyline
     class="BarLine"
     fill="none"
     stroke="#000000"
     stroke-width="4.46"
     stroke-linejoin="bevel"
     points="4183.35,632.834 4183.35,734.762"
     id="polyline1257"
     transform="translate(-124,-598.28462)" />
  <polyline
     class="BarLine"
     fill="none"
     stroke="#000000"
     stroke-width="13.64"
     stroke-linejoin="bevel"
     points="4201.58,632.834 4201.58,734.762"
     id="polyline1259"
     transform="translate(-124,-598.28462)" />
  <path
     class="Accidental"
     d="m 3023.931,92.162851 c -0.186,-0.201475 -0.496,-0.294525 -0.7905,-0.294525 -0.093,0 -0.2945,0.09305 -0.3875,0.09305 l -12.5085,3.472 v -17.36 h -2.7745 v 49.104004 c 0,0.79052 0.589,1.28652 1.395,1.28652 0.093,0 0.2945,0 0.3875,0 l 12.5085,-3.472 v 17.36 h 2.666 c 0,-16.46105 0,-32.13152 0,-49.103999 0,-0.387575 -0.186,-0.883575 -0.496,-1.08505 m -13.6865,27.776029 v -16.27501 l 11.5165,-3.27049 v 16.368 l -11.5165,3.1775"
     id="path1261"
     style="stroke-width:0.992" />
  <path
     class="Accidental"
     d="m 1248.733,102.47038 c -0.589,-3.859529 -2.976,-7.533004 -8.029,-7.533004 -4.96,0 -7.843,3.06895 -8.339,3.673475 l 0.403,-31.852525 c 0,-0.790425 -0.589,-1.379475 -1.395,-1.379475 h -1.178 c -0.806,0 -1.395,0.58905 -1.395,1.379475 l 0.496,59.628524 c 0,0.79053 0.589,1.37958 1.395,1.37958 0.186,0 0.589,-0.0931 0.7905,-0.186 0.3875,-0.20158 6.8355,-3.37905 12.1985,-9.42405 3.7665,-4.278 5.2545,-9.12951 5.2545,-13.206 0,-0.88351 -0.093,-1.674 -0.2015,-2.48 m -6.8355,3.875 c 0,1.488 -0.403,6.045 -2.883,9.827 -1.6895,2.573 -5.053,5.25447 -6.944,6.74247 l 0.2945,-19.34398 c 0.2015,-0.899 1.6895,-3.766544 5.6575,-3.766544 3.5805,0 3.875,3.363544 3.875,5.456054 0,0.496 0,0.79049 0,1.085"
     id="path1263"
     style="stroke-width:0.992" />
  <path
     class="Accidental"
     d="m 2960.163,102.47038 c -0.589,-3.859529 -2.976,-7.533004 -8.029,-7.533004 -4.96,0 -7.843,3.06895 -8.339,3.673475 l 0.403,-31.852525 c 0,-0.790425 -0.589,-1.379475 -1.395,-1.379475 h -1.178 c -0.806,0 -1.395,0.58905 -1.395,1.379475 l 0.496,59.628524 c 0,0.79053 0.589,1.37958 1.395,1.37958 0.186,0 0.589,-0.0931 0.7905,-0.186 0.3875,-0.20158 6.8355,-3.37905 12.1985,-9.42405 3.7665,-4.278 5.2545,-9.12951 5.2545,-13.206 0,-0.88351 -0.093,-1.674 -0.2015,-2.48 m -6.8355,3.875 c 0,1.488 -0.403,6.045 -2.883,9.827 -1.6895,2.573 -5.053,5.25447 -6.944,6.74247 l 0.2945,-19.34398 c 0.2015,-0.899 1.6895,-3.766544 5.6575,-3.766544 3.5805,0 3.875,3.363544 3.875,5.456054 0,0.496 0,0.79049 0,1.085"
     id="path1265"
     style="stroke-width:0.992" />
  <path
     class="Accidental"
     d="m 2786.111,92.162851 c -0.186,-0.201475 -0.496,-0.294525 -0.7905,-0.294525 -0.093,0 -0.2945,0.09305 -0.3875,0.09305 l -12.5085,3.472 v -17.36 h -2.7745 v 49.104004 c 0,0.79052 0.589,1.28652 1.395,1.28652 0.093,0 0.2945,0 0.3875,0 l 12.5085,-3.472 v 17.36 h 2.666 c 0,-16.46105 0,-32.13152 0,-49.103999 0,-0.387575 -0.186,-0.883575 -0.496,-1.08505 m -13.6865,27.776029 v -16.27501 l 11.5165,-3.27049 v 16.368 l -11.5165,3.1775"
     id="path1267"
     style="stroke-width:0.992" />
  <path
     class="Accidental"
     d="m 2722.343,102.47038 c -0.589,-3.859529 -2.976,-7.533004 -8.029,-7.533004 -4.96,0 -7.843,3.06895 -8.339,3.673475 l 0.403,-31.852525 c 0,-0.790425 -0.589,-1.379475 -1.395,-1.379475 h -1.178 c -0.806,0 -1.395,0.58905 -1.395,1.379475 l 0.496,59.628524 c 0,0.79053 0.589,1.37958 1.395,1.37958 0.186,0 0.589,-0.0931 0.7905,-0.186 0.3875,-0.20158 6.8355,-3.37905 12.1985,-9.42405 3.7665,-4.278 5.2545,-9.12951 5.2545,-13.206 0,-0.88351 -0.093,-1.674 -0.2015,-2.48 m -6.8355,3.875 c 0,1.488 -0.403,6.045 -2.883,9.827 -1.6895,2.573 -5.053,5.25447 -6.944,6.74247 l 0.2945,-19.34398 c 0.2015,-0.899 1.6895,-3.766544 5.6575,-3.766544 3.5805,0 3.875,3.363544 3.875,5.456054 0,0.496 0,0.79049 0,1.085"
     id="path1269"
     style="stroke-width:0.992" />
  <path
     class="Accidental"
     d="m 2548.291,92.162851 c -0.186,-0.201475 -0.496,-0.294525 -0.7905,-0.294525 -0.093,0 -0.2945,0.09305 -0.3875,0.09305 l -12.5085,3.472 v -17.36 h -2.7745 v 49.104004 c 0,0.79052 0.589,1.28652 1.395,1.28652 0.093,0 0.2945,0 0.3875,0 l 12.5085,-3.472 v 17.36 h 2.666 c 0,-16.46105 0,-32.13152 0,-49.103999 0,-0.387575 -0.186,-0.883575 -0.496,-1.08505 m -13.6865,27.776029 v -16.27501 l 11.5165,-3.27049 v 16.368 l -11.5165,3.1775"
     id="path1271"
     style="stroke-width:0.992" />
  <path
     class="Accidental"
     d="m 489.50705,102.47038 c -0.58905,-3.859529 -2.976,-7.533004 -8.02905,-7.533004 -4.96,0 -7.843,3.06895 -8.339,3.673475 l 0.403,-31.852525 c 0,-0.790425 -0.589,-1.379475 -1.395,-1.379475 h -1.178 c -0.806,0 -1.395,0.58905 -1.395,1.379475 l 0.496,59.628524 c 0,0.79053 0.589,1.37958 1.395,1.37958 0.186,0 0.589,-0.0931 0.7905,-0.186 0.3875,-0.20158 6.8355,-3.37905 12.1985,-9.42405 3.76652,-4.278 5.25452,-9.12951 5.25452,-13.206 0,-0.88351 -0.093,-1.674 -0.20147,-2.48 m -6.83557,3.875 c 0,1.488 -0.40296,6.045 -2.88296,9.827 -1.68952,2.573 -5.05302,5.25447 -6.94402,6.74247 l 0.2945,-19.34398 c 0.2015,-0.899 1.6895,-3.766544 5.6575,-3.766544 3.58055,0 3.87498,3.363544 3.87498,5.456054 0,0.496 0,0.79049 0,1.085"
     id="path1273"
     style="stroke-width:0.992" />
  <path
     class="Accidental"
     d="m 2484.523,102.47038 c -0.589,-3.859529 -2.976,-7.533004 -8.029,-7.533004 -4.96,0 -7.843,3.06895 -8.339,3.673475 l 0.403,-31.852525 c 0,-0.790425 -0.589,-1.379475 -1.395,-1.379475 h -1.178 c -0.806,0 -1.395,0.58905 -1.395,1.379475 l 0.496,59.628524 c 0,0.79053 0.589,1.37958 1.395,1.37958 0.186,0 0.589,-0.0931 0.7905,-0.186 0.3875,-0.20158 6.8355,-3.37905 12.1985,-9.42405 3.7665,-4.278 5.2545,-9.12951 5.2545,-13.206 0,-0.88351 -0.093,-1.674 -0.2015,-2.48 m -6.8355,3.875 c 0,1.488 -0.403,6.045 -2.883,9.827 -1.6895,2.573 -5.053,5.25447 -6.944,6.74247 l 0.2945,-19.34398 c 0.2015,-0.899 1.6895,-3.766544 5.6575,-3.766544 3.5805,0 3.875,3.363544 3.875,5.456054 0,0.496 0,0.79049 0,1.085"
     id="path1275"
     style="stroke-width:0.992" />
  <path
     class="Accidental"
     d="m 1064.173,102.47038 c -0.589,-3.859529 -2.976,-7.533004 -8.029,-7.533004 -4.96,0 -7.843,3.06895 -8.339,3.673475 l 0.403,-31.852525 c 0,-0.790425 -0.589,-1.379475 -1.395,-1.379475 h -1.178 c -0.806,0 -1.395,0.58905 -1.395,1.379475 l 0.496,59.628524 c 0,0.79053 0.589,1.37958 1.395,1.37958 0.186,0 0.589,-0.0931 0.7905,-0.186 0.3875,-0.20158 6.8355,-3.37905 12.1985,-9.42405 3.7665,-4.278 5.2545,-9.12951 5.2545,-13.206 0,-0.88351 -0.093,-1.674 -0.2015,-2.48 m -6.8355,3.875 c 0,1.488 -0.403,6.045 -2.883,9.827 -1.6895,2.573 -5.053,5.25447 -6.944,6.74247 l 0.2945,-19.34398 c 0.2015,-0.899 1.6895,-3.766544 5.6575,-3.766544 3.5805,0 3.875,3.363544 3.875,5.456054 0,0.496 0,0.79049 0,1.085"
     id="path1277"
     style="stroke-width:0.992" />
  <path
     class="Accidental"
     d="m 553.27405,92.162851 c -0.186,-0.201475 -0.496,-0.294525 -0.79053,-0.294525 -0.093,0 -0.29452,0.09305 -0.38747,0.09305 l -12.50855,3.472 v -17.36 h -2.7745 v 49.104004 c 0,0.79052 0.589,1.28652 1.395,1.28652 0.093,0 0.2945,0 0.3875,0 l 12.50855,-3.472 v 17.36 h 2.666 c 0,-16.46105 0,-32.13152 0,-49.103999 0,-0.387575 -0.186,-0.883575 -0.496,-1.08505 M 539.5875,119.93888 v -16.27501 l 11.51655,-3.27049 v 16.368 l -11.51655,3.1775"
     id="path1279"
     style="stroke-width:0.992" />
  <path
     class="Accidental"
     d="m 1527.373,102.47038 c -0.589,-3.859529 -2.976,-7.533004 -8.029,-7.533004 -4.96,0 -7.843,3.06895 -8.339,3.673475 l 0.403,-31.852525 c 0,-0.790425 -0.589,-1.379475 -1.395,-1.379475 h -1.178 c -0.806,0 -1.395,0.58905 -1.395,1.379475 l 0.496,59.628524 c 0,0.79053 0.589,1.37958 1.395,1.37958 0.186,0 0.589,-0.0931 0.7905,-0.186 0.3875,-0.20158 6.8355,-3.37905 12.1985,-9.42405 3.7665,-4.278 5.2545,-9.12951 5.2545,-13.206 0,-0.88351 -0.093,-1.674 -0.2015,-2.48 m -6.8355,3.875 c 0,1.488 -0.403,6.045 -2.883,9.827 -1.6895,2.573 -5.053,5.25447 -6.944,6.74247 l 0.2945,-19.34398 c 0.2015,-0.899 1.6895,-3.766544 5.6575,-3.766544 3.5805,0 3.875,3.363544 3.875,5.456054 0,0.496 0,0.79049 0,1.085"
     id="path1281"
     style="stroke-width:0.992" />
  <path
     class="Accidental"
     d="m 2151.7405,99.897376 c 0.6045,-0.09305 1.1005,-0.790525 1.1005,-1.39505 v -5.843475 c 0,-0.790525 -0.6045,-1.39495 -1.395,-1.39495 -0.093,0 -0.093,0 -0.2015,0 l -3.2705,0.697475 v -14.78705 h -2.7745 v 15.376 l -8.835,1.798 V 80.351901 h -2.7745 v 14.585475 l -3.875,0.790525 c -0.589,0.108425 -1.085,0.790425 -1.085,1.39495 v 0.201475 5.750544 -0.20149 c 0,0.79049 0.589,1.395 1.395,1.395 0.093,0 0.186,0 0.2945,0 l 3.2705,-0.69751 v 16.36801 l -3.875,0.7905 c -0.589,0.093 -1.085,0.79052 -1.085,1.39505 v 5.75042 c 0,0.79053 0.589,1.37958 1.395,1.37958 0.093,0 0.186,0 0.2945,0 l 3.2705,-0.682 v 14.77147 h 2.7745 v -15.376 l 8.835,-1.78252 v 13.99652 h 2.7745 v -14.58547 l 3.7665,-0.69758 c 0.6045,-0.10842 1.1005,-0.79042 1.1005,-1.39495 v -5.84352 c 0,-0.806 -0.6045,-1.395 -1.395,-1.395 -0.093,0 -0.093,0 -0.2015,0 l -3.2705,0.6975 v -16.36801 l 3.7665,-0.697494 m -15.376,3.069004 8.835,-1.78251 v 16.36801 l -8.835,1.891 v -16.4765"
     id="path1283"
     style="stroke-width:0.992" />
  <path
     class="Accidental"
     d="m 1127.941,92.162851 c -0.186,-0.201475 -0.496,-0.294525 -0.7905,-0.294525 -0.093,0 -0.2945,0.09305 -0.3875,0.09305 l -12.5085,3.472 v -17.36 h -2.7745 v 49.104004 c 0,0.79052 0.589,1.28652 1.395,1.28652 0.093,0 0.2945,0 0.3875,0 l 12.5085,-3.472 v 17.36 h 2.666 c 0,-16.46105 0,-32.13152 0,-49.103999 0,-0.387575 -0.186,-0.883575 -0.496,-1.08505 m -13.6865,27.776029 v -16.27501 l 11.5165,-3.27049 v 16.368 l -11.5165,3.1775"
     id="path1285"
     style="stroke-width:0.992" />
  <path
     class="Accidental"
     d="m 1597.7905,99.897376 c 0.6045,-0.09305 1.1005,-0.790525 1.1005,-1.39505 v -5.843475 c 0,-0.790525 -0.6045,-1.39495 -1.395,-1.39495 -0.093,0 -0.093,0 -0.2015,0 l -3.2705,0.697475 v -14.78705 h -2.7745 v 15.376 l -8.835,1.798 V 80.351901 h -2.7745 v 14.585475 l -3.875,0.790525 c -0.589,0.108425 -1.085,0.790425 -1.085,1.39495 v 0.201475 5.750544 -0.20149 c 0,0.79049 0.589,1.395 1.395,1.395 0.093,0 0.186,0 0.2945,0 l 3.2705,-0.69751 v 16.36801 l -3.875,0.7905 c -0.589,0.093 -1.085,0.79052 -1.085,1.39505 v 5.75042 c 0,0.79053 0.589,1.37958 1.395,1.37958 0.093,0 0.186,0 0.2945,0 l 3.2705,-0.682 v 14.77147 h 2.7745 v -15.376 l 8.835,-1.78252 v 13.99652 h 2.7745 v -14.58547 l 3.7665,-0.69758 c 0.6045,-0.10842 1.1005,-0.79042 1.1005,-1.39495 v -5.84352 c 0,-0.806 -0.6045,-1.395 -1.395,-1.395 -0.093,0 -0.093,0 -0.2015,0 l -3.2705,0.6975 v -16.36801 l 3.7665,-0.697494 m -15.376,3.069004 8.835,-1.78251 v 16.36801 l -8.835,1.891 v -16.4765"
     id="path1287"
     style="stroke-width:0.992" />
  <path
     class="Accidental"
     d="m 674.06705,102.47038 c -0.58905,-3.859529 -2.976,-7.533004 -8.02905,-7.533004 -4.96,0 -7.843,3.06895 -8.339,3.673475 l 0.403,-31.852525 c 0,-0.790425 -0.589,-1.379475 -1.395,-1.379475 h -1.178 c -0.806,0 -1.395,0.58905 -1.395,1.379475 l 0.496,59.628524 c 0,0.79053 0.589,1.37958 1.395,1.37958 0.186,0 0.589,-0.0931 0.7905,-0.186 0.3875,-0.20158 6.8355,-3.37905 12.1985,-9.42405 3.76652,-4.278 5.25452,-9.12951 5.25452,-13.206 0,-0.88351 -0.093,-1.674 -0.20147,-2.48 m -6.83557,3.875 c 0,1.488 -0.40296,6.045 -2.88296,9.827 -1.68952,2.573 -5.05302,5.25447 -6.94402,6.74247 l 0.2945,-19.34398 c 0.2015,-0.899 1.6895,-3.766544 5.6575,-3.766544 3.58055,0 3.87498,3.363544 3.87498,5.456054 0,0.496 0,0.79049 0,1.085"
     id="path1289"
     style="stroke-width:0.992" />
  <polyline
     class="Stem"
     fill="none"
     stroke="#000000"
     stroke-width="2.48"
     stroke-linejoin="bevel"
     points="2420.52,692.23 2420.52,627.998"
     id="polyline1291"
     transform="translate(-124,-598.28462)" />
  <polyline
     class="Stem"
     fill="none"
     stroke="#000000"
     stroke-width="2.48"
     stroke-linejoin="bevel"
     points="2473.78,704.63 2473.78,621.798"
     id="polyline1293"
     transform="translate(-124,-598.28462)" />
  <polyline
     class="Stem"
     fill="none"
     stroke="#000000"
     stroke-width="2.48"
     stroke-linejoin="bevel"
     points="2578.67,679.83 2578.67,609.44"
     id="polyline1295"
     transform="translate(-124,-598.28462)" />
  <polyline
     class="Stem"
     fill="none"
     stroke="#000000"
     stroke-width="2.48"
     stroke-linejoin="bevel"
     points="2645.91,704.63 2645.91,611.668"
     id="polyline1297"
     transform="translate(-124,-598.28462)" />
  <polyline
     class="Stem"
     fill="none"
     stroke="#000000"
     stroke-width="2.48"
     stroke-linejoin="bevel"
     points="423.878,704.63 423.878,621.798"
     id="polyline1299"
     transform="translate(-124,-598.28462)" />
  <polyline
     class="Stem"
     fill="none"
     stroke="#000000"
     stroke-width="2.48"
     stroke-linejoin="bevel"
     points="2709.97,704.63 2709.97,613.792"
     id="polyline1301"
     transform="translate(-124,-598.28462)" />
  <polyline
     class="Stem"
     fill="none"
     stroke="#000000"
     stroke-width="2.48"
     stroke-linejoin="bevel"
     points="477.137,704.63 477.137,621.798"
     id="polyline1303"
     transform="translate(-124,-598.28462)" />
  <polyline
     class="Stem"
     fill="none"
     stroke="#000000"
     stroke-width="2.48"
     stroke-linejoin="bevel"
     points="2763.23,692.23 2763.23,615.557"
     id="polyline1305"
     transform="translate(-124,-598.28462)" />
  <polyline
     class="Stem"
     fill="none"
     stroke="#000000"
     stroke-width="2.48"
     stroke-linejoin="bevel"
     points="530.396,741.83 530.396,640.336"
     id="polyline1307"
     transform="translate(-124,-598.28462)" />
  <polyline
     class="Stem"
     fill="none"
     stroke="#000000"
     stroke-width="2.48"
     stroke-linejoin="bevel"
     points="2816.49,679.83 2816.49,609.44"
     id="polyline1309"
     transform="translate(-124,-598.28462)" />
  <polyline
     class="Stem"
     fill="none"
     stroke="#000000"
     stroke-width="2.48"
     stroke-linejoin="bevel"
     points="2883.73,704.63 2883.73,611.668"
     id="polyline1311"
     transform="translate(-124,-598.28462)" />
  <polyline
     class="Stem"
     fill="none"
     stroke="#000000"
     stroke-width="2.48"
     stroke-linejoin="bevel"
     points="583.654,729.43 583.654,637.651"
     id="polyline1313"
     transform="translate(-124,-598.28462)" />
  <polyline
     class="Stem"
     fill="none"
     stroke="#000000"
     stroke-width="2.48"
     stroke-linejoin="bevel"
     points="2947.79,704.63 2947.79,613.792"
     id="polyline1315"
     transform="translate(-124,-598.28462)" />
  <polyline
     class="Stem"
     fill="none"
     stroke="#000000"
     stroke-width="2.48"
     stroke-linejoin="bevel"
     points="650.893,704.63 650.893,634.261"
     id="polyline1317"
     transform="translate(-124,-598.28462)" />
  <polyline
     class="Stem"
     fill="none"
     stroke="#000000"
     stroke-width="2.48"
     stroke-linejoin="bevel"
     points="3001.05,692.23 3001.05,615.557"
     id="polyline1319"
     transform="translate(-124,-598.28462)" />
  <polyline
     class="Stem"
     fill="none"
     stroke="#000000"
     stroke-width="2.48"
     stroke-linejoin="bevel"
     points="714.955,704.63 714.955,634.198"
     id="polyline1321"
     transform="translate(-124,-598.28462)" />
  <polyline
     class="Stem"
     fill="none"
     stroke="#000000"
     stroke-width="2.48"
     stroke-linejoin="bevel"
     points="3054.31,679.83 3054.31,609.44"
     id="polyline1323"
     transform="translate(-124,-598.28462)" />
  <polyline
     class="Stem"
     fill="none"
     stroke="#000000"
     stroke-width="2.48"
     stroke-linejoin="bevel"
     points="3121.55,704.63 3121.55,611.668"
     id="polyline1325"
     transform="translate(-124,-598.28462)" />
  <polyline
     class="Stem"
     fill="none"
     stroke="#000000"
     stroke-width="2.48"
     stroke-linejoin="bevel"
     points="768.214,704.63 768.214,634.198"
     id="polyline1327"
     transform="translate(-124,-598.28462)" />
  <polyline
     class="Stem"
     fill="none"
     stroke="#000000"
     stroke-width="2.48"
     stroke-linejoin="bevel"
     points="3185.61,704.63 3185.61,613.792"
     id="polyline1329"
     transform="translate(-124,-598.28462)" />
  <polyline
     class="Stem"
     fill="none"
     stroke="#000000"
     stroke-width="2.48"
     stroke-linejoin="bevel"
     points="835.453,704.63 835.453,634.336"
     id="polyline1331"
     transform="translate(-124,-598.28462)" />
  <polyline
     class="Stem"
     fill="none"
     stroke="#000000"
     stroke-width="2.48"
     stroke-linejoin="bevel"
     points="3238.87,692.23 3238.87,615.557"
     id="polyline1333"
     transform="translate(-124,-598.28462)" />
  <polyline
     class="Stem"
     fill="none"
     stroke="#000000"
     stroke-width="2.48"
     stroke-linejoin="bevel"
     points="3262.43,687.965 3262.43,758.198"
     id="polyline1335"
     transform="translate(-124,-598.28462)" />
  <polyline
     class="Stem"
     fill="none"
     stroke="#000000"
     stroke-width="2.48"
     stroke-linejoin="bevel"
     points="888.711,729.43 888.711,640.26"
     id="polyline1337"
     transform="translate(-124,-598.28462)" />
  <polyline
     class="Stem"
     fill="none"
     stroke="#000000"
     stroke-width="2.48"
     stroke-linejoin="bevel"
     points="3315.68,687.965 3315.68,758.198"
     id="polyline1339"
     transform="translate(-124,-598.28462)" />
  <polyline
     class="Stem"
     fill="none"
     stroke="#000000"
     stroke-width="2.48"
     stroke-linejoin="bevel"
     points="941.97,741.83 941.97,658.998"
     id="polyline1341"
     transform="translate(-124,-598.28462)" />
  <polyline
     class="Stem"
     fill="none"
     stroke="#000000"
     stroke-width="2.48"
     stroke-linejoin="bevel"
     points="3420.57,663.165 3420.57,770.598"
     id="polyline1343"
     transform="translate(-124,-598.28462)" />
  <polyline
     class="Stem"
     fill="none"
     stroke="#000000"
     stroke-width="2.48"
     stroke-linejoin="bevel"
     points="3473.83,700.365 3473.83,770.598"
     id="polyline1345"
     transform="translate(-124,-598.28462)" />
  <polyline
     class="Stem"
     fill="none"
     stroke="#000000"
     stroke-width="2.48"
     stroke-linejoin="bevel"
     points="1051.8,704.63 1051.8,621.798"
     id="polyline1347"
     transform="translate(-124,-598.28462)" />
  <polyline
     class="Stem"
     fill="none"
     stroke="#000000"
     stroke-width="2.48"
     stroke-linejoin="bevel"
     points="3527.09,687.965 3527.09,770.598"
     id="polyline1349"
     transform="translate(-124,-598.28462)" />
  <polyline
     class="Stem"
     fill="none"
     stroke="#000000"
     stroke-width="2.48"
     stroke-linejoin="bevel"
     points="1105.06,741.83 1105.06,640.336"
     id="polyline1351"
     transform="translate(-124,-598.28462)" />
  <polyline
     class="Stem"
     fill="none"
     stroke="#000000"
     stroke-width="2.48"
     stroke-linejoin="bevel"
     points="3580.35,675.565 3580.35,770.598"
     id="polyline1353"
     transform="translate(-124,-598.28462)" />
  <polyline
     class="Stem"
     fill="none"
     stroke="#000000"
     stroke-width="2.48"
     stroke-linejoin="bevel"
     points="3633.61,663.165 3633.61,770.598"
     id="polyline1355"
     transform="translate(-124,-598.28462)" />
  <polyline
     class="Stem"
     fill="none"
     stroke="#000000"
     stroke-width="2.48"
     stroke-linejoin="bevel"
     points="1158.32,729.43 1158.32,637.651"
     id="polyline1357"
     transform="translate(-124,-598.28462)" />
  <polyline
     class="Stem"
     fill="none"
     stroke="#000000"
     stroke-width="2.48"
     stroke-linejoin="bevel"
     points="3686.87,700.365 3686.87,770.598"
     id="polyline1359"
     transform="translate(-124,-598.28462)" />
  <polyline
     class="Stem"
     fill="none"
     stroke="#000000"
     stroke-width="2.48"
     stroke-linejoin="bevel"
     points="1225.56,704.63 1225.56,634.261"
     id="polyline1361"
     transform="translate(-124,-598.28462)" />
  <polyline
     class="Stem"
     fill="none"
     stroke="#000000"
     stroke-width="2.48"
     stroke-linejoin="bevel"
     points="3740.12,687.965 3740.12,770.598"
     id="polyline1363"
     transform="translate(-124,-598.28462)" />
  <polyline
     class="Stem"
     fill="none"
     stroke="#000000"
     stroke-width="2.48"
     stroke-linejoin="bevel"
     points="1289.62,704.63 1289.62,634.198"
     id="polyline1365"
     transform="translate(-124,-598.28462)" />
  <polyline
     class="Stem"
     fill="none"
     stroke="#000000"
     stroke-width="2.48"
     stroke-linejoin="bevel"
     points="3793.38,675.565 3793.38,770.598"
     id="polyline1367"
     transform="translate(-124,-598.28462)" />
  <polyline
     class="Stem"
     fill="none"
     stroke="#000000"
     stroke-width="2.48"
     stroke-linejoin="bevel"
     points="3846.64,663.165 3846.64,770.598"
     id="polyline1369"
     transform="translate(-124,-598.28462)" />
  <polyline
     class="Stem"
     fill="none"
     stroke="#000000"
     stroke-width="2.48"
     stroke-linejoin="bevel"
     points="1342.88,704.63 1342.88,634.198"
     id="polyline1371"
     transform="translate(-124,-598.28462)" />
  <polyline
     class="Stem"
     fill="none"
     stroke="#000000"
     stroke-width="2.48"
     stroke-linejoin="bevel"
     points="3899.9,700.365 3899.9,770.598"
     id="polyline1373"
     transform="translate(-124,-598.28462)" />
  <polyline
     class="Stem"
     fill="none"
     stroke="#000000"
     stroke-width="2.48"
     stroke-linejoin="bevel"
     points="1410.12,704.63 1410.12,621.798"
     id="polyline1375"
     transform="translate(-124,-598.28462)" />
  <polyline
     class="Stem"
     fill="none"
     stroke="#000000"
     stroke-width="2.48"
     stroke-linejoin="bevel"
     points="3953.16,687.965 3953.16,770.598"
     id="polyline1377"
     transform="translate(-124,-598.28462)" />
  <polyline
     class="Stem"
     fill="none"
     stroke="#000000"
     stroke-width="2.48"
     stroke-linejoin="bevel"
     points="1515.01,692.23 1515.01,615.598"
     id="polyline1379"
     transform="translate(-124,-598.28462)" />
  <polyline
     class="Stem"
     fill="none"
     stroke="#000000"
     stroke-width="2.48"
     stroke-linejoin="bevel"
     points="4006.42,675.565 4006.42,770.598"
     id="polyline1381"
     transform="translate(-124,-598.28462)" />
  <polyline
     class="Stem"
     fill="none"
     stroke="#000000"
     stroke-width="2.48"
     stroke-linejoin="bevel"
     points="1568.27,692.23 1568.27,615.598"
     id="polyline1383"
     transform="translate(-124,-598.28462)" />
  <polyline
     class="Stem"
     fill="none"
     stroke="#000000"
     stroke-width="2.48"
     stroke-linejoin="bevel"
     points="4059.68,663.165 4059.68,745.798"
     id="polyline1385"
     transform="translate(-124,-598.28462)" />
  <polyline
     class="Stem"
     fill="none"
     stroke="#000000"
     stroke-width="2.48"
     stroke-linejoin="bevel"
     points="1621.52,729.43 1621.52,640.344"
     id="polyline1387"
     transform="translate(-124,-598.28462)" />
  <polyline
     class="Stem"
     fill="none"
     stroke="#000000"
     stroke-width="2.48"
     stroke-linejoin="bevel"
     points="4112.94,663.165 4112.94,745.798"
     id="polyline1389"
     transform="translate(-124,-598.28462)" />
  <polyline
     class="Stem"
     fill="none"
     stroke="#000000"
     stroke-width="2.48"
     stroke-linejoin="bevel"
     points="1688.76,704.63 1688.76,637.388"
     id="polyline1391"
     transform="translate(-124,-598.28462)" />
  <polyline
     class="Stem"
     fill="none"
     stroke="#000000"
     stroke-width="2.48"
     stroke-linejoin="bevel"
     points="1760.06,704.63 1760.06,634.253"
     id="polyline1393"
     transform="translate(-124,-598.28462)" />
  <polyline
     class="Stem"
     fill="none"
     stroke="#000000"
     stroke-width="2.48"
     stroke-linejoin="bevel"
     points="1813.32,692.23 1813.32,627.998"
     id="polyline1395"
     transform="translate(-124,-598.28462)" />
  <polyline
     class="Stem"
     fill="none"
     stroke="#000000"
     stroke-width="2.48"
     stroke-linejoin="bevel"
     points="1866.58,692.23 1866.58,627.998"
     id="polyline1397"
     transform="translate(-124,-598.28462)" />
  <polyline
     class="Stem"
     fill="none"
     stroke="#000000"
     stroke-width="2.48"
     stroke-linejoin="bevel"
     points="1919.84,704.63 1919.84,634.336"
     id="polyline1399"
     transform="translate(-124,-598.28462)" />
  <polyline
     class="Stem"
     fill="none"
     stroke="#000000"
     stroke-width="2.48"
     stroke-linejoin="bevel"
     points="1973.1,717.03 1973.1,640.26"
     id="polyline1401"
     transform="translate(-124,-598.28462)" />
  <polyline
     class="Stem"
     fill="none"
     stroke="#000000"
     stroke-width="2.48"
     stroke-linejoin="bevel"
     points="2026.36,729.43 2026.36,646.598"
     id="polyline1403"
     transform="translate(-124,-598.28462)" />
  <polyline
     class="Stem"
     fill="none"
     stroke="#000000"
     stroke-width="2.48"
     stroke-linejoin="bevel"
     points="2136.19,692.23 2136.19,615.598"
     id="polyline1405"
     transform="translate(-124,-598.28462)" />
  <polyline
     class="Stem"
     fill="none"
     stroke="#000000"
     stroke-width="2.48"
     stroke-linejoin="bevel"
     points="2189.45,729.43 2189.45,640.338"
     id="polyline1407"
     transform="translate(-124,-598.28462)" />
  <polyline
     class="Stem"
     fill="none"
     stroke="#000000"
     stroke-width="2.48"
     stroke-linejoin="bevel"
     points="2242.71,717.03 2242.71,637.739"
     id="polyline1409"
     transform="translate(-124,-598.28462)" />
  <polyline
     class="Stem"
     fill="none"
     stroke="#000000"
     stroke-width="2.48"
     stroke-linejoin="bevel"
     points="2314.01,704.63 2314.01,634.259"
     id="polyline1411"
     transform="translate(-124,-598.28462)" />
  <polyline
     class="Stem"
     fill="none"
     stroke="#000000"
     stroke-width="2.48"
     stroke-linejoin="bevel"
     points="2367.27,692.23 2367.27,627.998"
     id="polyline1413"
     transform="translate(-124,-598.28462)" />
  <path
     class="Note"
     d="m 559.97,114.48288 c 0,4.2625 3.069,9.02102 11.11348,9.02102 10.30757,0 21.12652,-8.43202 21.12652,-17.15852 0,-5.859 -4.96,-9.129479 -11.11348,-9.129479 -9.62547,0 -21.12652,8.137479 -21.12652,17.266979"
     id="path1415"
     style="stroke-width:0.992" />
  <path
     class="Note"
     d="m 2212.28,102.08288 c 0,4.2625 3.069,9.02102 11.1135,9.02102 10.3075,0 21.1265,-8.43202 21.1265,-17.158524 0,-5.859 -4.96,-9.129475 -11.1135,-9.129475 -9.6255,0 -21.1265,8.137475 -21.1265,17.266979"
     id="path1417"
     style="stroke-width:0.992" />
  <path
     class="Note"
     d="m 3614.88,89.682881 c 0,4.262495 3.069,9.02102 11.1135,9.02102 10.3075,0 21.1265,-8.43202 21.1265,-17.158525 0,-5.859 -4.96,-9.129475 -11.1135,-9.129475 -9.6255,0 -21.1265,8.137475 -21.1265,17.26698"
     id="path1419"
     style="stroke-width:0.992" />
  <path
     class="Note"
     d="m 2608.25,102.08288 c 0,4.2625 3.069,9.02102 11.1135,9.02102 10.3075,0 21.1265,-8.43202 21.1265,-17.158524 0,-5.859 -4.96,-9.129475 -11.1135,-9.129475 -9.6255,0 -21.1265,8.137475 -21.1265,17.266979"
     id="path1421"
     style="stroke-width:0.992" />
  <path
     class="Note"
     d="m 268.894,114.48288 c 0,4.2625 3.069,9.02102 11.11348,9.02102 10.30757,0 21.12652,-8.43202 21.12652,-17.15852 0,-5.859 -4.96,-9.129479 -11.11348,-9.129479 -9.62547,0 -21.12652,8.137479 -21.12652,17.266979"
     id="path1423"
     style="stroke-width:0.992" />
  <path
     class="Note"
     d="m 322.153,114.48288 c 0,4.2625 3.069,9.02102 11.11348,9.02102 10.30757,0 21.12652,-8.43202 21.12652,-17.15852 0,-5.859 -4.96,-9.129479 -11.11348,-9.129479 -9.62547,0 -21.12652,8.137479 -21.12652,17.266979"
     id="path1425"
     style="stroke-width:0.992" />
  <path
     class="Note"
     d="m 375.411,151.68288 c 0,4.2625 3.069,9.02102 11.11348,9.02102 10.30757,0 21.12652,-8.43202 21.12652,-17.15852 0,-5.859 -4.96,-9.12948 -11.11348,-9.12948 -9.62547,0 -21.12652,8.13748 -21.12652,17.26698"
     id="path1427"
     style="stroke-width:0.992" />
  <path
     class="Note"
     d="m 3668.14,77.282881 c 0,4.262495 3.069,9.02102 11.1135,9.02102 10.3075,0 21.1265,-8.43202 21.1265,-17.158525 0,-5.859 -4.96,-9.129475 -11.1135,-9.129475 -9.6255,0 -21.1265,8.137475 -21.1265,17.26698"
     id="path1429"
     style="stroke-width:0.992" />
  <path
     class="Note"
     d="m 428.67,139.28288 c 0,4.2625 3.069,9.02102 11.11348,9.02102 10.30757,0 21.12652,-8.43202 21.12652,-17.15852 0,-5.859 -4.96,-9.12948 -11.11348,-9.12948 -9.62547,0 -21.12652,8.13748 -21.12652,17.26698"
     id="path1431"
     style="stroke-width:0.992" />
  <path
     class="Note"
     d="m 495.909,114.48288 c 0,4.2625 3.069,9.02102 11.11348,9.02102 10.30757,0 21.12652,-8.43202 21.12652,-17.15852 0,-5.859 -4.96,-9.129479 -11.11348,-9.129479 -9.62547,0 -21.12652,8.137479 -21.12652,17.266979"
     id="path1433"
     style="stroke-width:0.992" />
  <path
     class="Note"
     d="m 3030.62,114.48288 c 0,4.2625 3.069,9.02102 11.1135,9.02102 10.3075,0 21.1265,-8.43202 21.1265,-17.15852 0,-5.859 -4.96,-9.129479 -11.1135,-9.129479 -9.6255,0 -21.1265,8.137479 -21.1265,17.266979"
     id="path1435"
     style="stroke-width:0.992" />
  <path
     class="Note"
     d="m 3721.4,64.882881 c 0,4.262495 3.069,9.02102 11.1135,9.02102 10.3075,0 21.1265,-8.43202 21.1265,-17.158525 0,-5.859 -4.96,-9.129475 -11.1135,-9.129475 -9.6255,0 -21.1265,8.137475 -21.1265,17.26698"
     id="path1437"
     style="stroke-width:0.992" />
  <path
     class="Note"
     d="m 613.229,114.48288 c 0,4.2625 3.069,9.02102 11.11348,9.02102 10.30757,0 21.12652,-8.43202 21.12652,-17.15852 0,-5.859 -4.96,-9.129479 -11.11348,-9.129479 -9.62547,0 -21.12652,8.137479 -21.12652,17.266979"
     id="path1439"
     style="stroke-width:0.992" />
  <path
     class="Note"
     d="m 680.468,114.48288 c 0,4.2625 3.069,9.02102 11.11348,9.02102 10.30757,0 21.12652,-8.43202 21.12652,-17.15852 0,-5.859 -4.96,-9.129479 -11.11348,-9.129479 -9.62547,0 -21.12652,8.137479 -21.12652,17.266979"
     id="path1441"
     style="stroke-width:0.992" />
  <path
     class="Note"
     d="m 2661.5,89.682881 c 0,4.262495 3.069,9.02102 11.1135,9.02102 10.3075,0 21.1265,-8.43202 21.1265,-17.158525 0,-5.859 -4.96,-9.129475 -11.1135,-9.129475 -9.6255,0 -21.1265,8.137475 -21.1265,17.26698"
     id="path1443"
     style="stroke-width:0.992" />
  <path
     class="Note"
     d="m 733.727,139.28288 c 0,4.2625 3.069,9.02102 11.11348,9.02102 10.30757,0 21.12652,-8.43202 21.12652,-17.15852 0,-5.859 -4.96,-9.12948 -11.11348,-9.12948 -9.62547,0 -21.12652,8.13748 -21.12652,17.26698"
     id="path1445"
     style="stroke-width:0.992" />
  <path
     class="Note"
     d="m 786.985,151.68288 c 0,4.2625 3.069,9.02102 11.11348,9.02102 10.30757,0 21.12652,-8.43202 21.12652,-17.15852 0,-5.859 -4.96,-9.12948 -11.11348,-9.12948 -9.62547,0 -21.12652,8.13748 -21.12652,17.26698"
     id="path1447"
     style="stroke-width:0.992" />
  <path
     class="Note"
     d="m 3827.92,89.682881 c 0,4.262495 3.069,9.02102 11.1135,9.02102 10.3075,0 21.1265,-8.43202 21.1265,-17.158525 0,-5.859 -4.96,-9.129475 -11.1135,-9.129475 -9.6255,0 -21.1265,8.137475 -21.1265,17.26698"
     id="path1449"
     style="stroke-width:0.992" />
  <path
     class="Note"
     d="m 917.94652,97.215901 c -9.62547,0 -21.12652,8.044479 -21.12652,17.266979 0,4.2625 3.069,9.02102 11.11348,9.02102 10.30757,0 21.12652,-8.43202 21.12652,-17.15852 0,-5.859 -4.96,-9.129479 -11.11348,-9.129479 m -2.68147,17.468479 c -0.29453,0.186 -7.53305,4.154 -11.00505,4.154 -3.2705,0 -3.968,-2.666 -3.968,-3.565 0,-4.1695 9.92,-9.021 10.32305,-9.22251 0.38747,-0.20149 7.44,-4.16949 11.00495,-4.16949 2.38705,0 3.968,1.395 3.968,3.565 0,4.278 -10.01295,9.0365 -10.32295,9.238"
     id="path1451"
     style="stroke-width:0.992" />
  <path
     class="Note"
     d="m 950.08,151.68288 c 0,4.2625 3.069,9.02102 11.11348,9.02102 10.30757,0 21.12652,-8.43202 21.12652,-17.15852 0,-5.859 -4.96,-9.12948 -11.11348,-9.12948 -9.62547,0 -21.12652,8.13748 -21.12652,17.26698"
     id="path1453"
     style="stroke-width:0.992" />
  <path
     class="Note"
     d="m 2087.72,126.88288 c 0,4.2625 3.069,9.02102 11.1135,9.02102 10.3075,0 21.1265,-8.43202 21.1265,-17.15852 0,-5.859 -4.96,-9.12948 -11.1135,-9.12948 -9.6255,0 -21.1265,8.13748 -21.1265,17.26698"
     id="path1455"
     style="stroke-width:0.992" />
  <path
     class="Note"
     d="m 1003.34,139.28288 c 0,4.2625 3.069,9.02102 11.1135,9.02102 10.3075,0 21.1265,-8.43202 21.1265,-17.15852 0,-5.859 -4.96,-9.12948 -11.1135,-9.12948 -9.6255,0 -21.1265,8.13748 -21.1265,17.26698"
     id="path1457"
     style="stroke-width:0.992" />
  <path
     class="Note"
     d="m 1070.57,114.48288 c 0,4.2625 3.069,9.02102 11.1135,9.02102 10.3075,0 21.1265,-8.43202 21.1265,-17.15852 0,-5.859 -4.96,-9.129479 -11.1135,-9.129479 -9.6255,0 -21.1265,8.137479 -21.1265,17.266979"
     id="path1459"
     style="stroke-width:0.992" />
  <path
     class="Note"
     d="m 1134.64,114.48288 c 0,4.2625 3.069,9.02102 11.1135,9.02102 10.3075,0 21.1265,-8.43202 21.1265,-17.15852 0,-5.859 -4.96,-9.129479 -11.1135,-9.129479 -9.6255,0 -21.1265,8.137479 -21.1265,17.266979"
     id="path1461"
     style="stroke-width:0.992" />
  <path
     class="Note"
     d="m 3881.18,77.282881 c 0,4.262495 3.069,9.02102 11.1135,9.02102 10.3075,0 21.1265,-8.43202 21.1265,-17.158525 0,-5.859 -4.96,-9.129475 -11.1135,-9.129475 -9.6255,0 -21.1265,8.137475 -21.1265,17.26698"
     id="path1463"
     style="stroke-width:0.992" />
  <path
     class="Note"
     d="m 1187.89,114.48288 c 0,4.2625 3.069,9.02102 11.1135,9.02102 10.3075,0 21.1265,-8.43202 21.1265,-17.15852 0,-5.859 -4.96,-9.129479 -11.1135,-9.129479 -9.6255,0 -21.1265,8.137479 -21.1265,17.266979"
     id="path1465"
     style="stroke-width:0.992" />
  <path
     class="Note"
     d="m 1276.2565,97.215901 c -9.6255,0 -21.1265,8.044479 -21.1265,17.266979 0,4.2625 3.069,9.02102 11.1135,9.02102 10.3075,0 21.1265,-8.43202 21.1265,-17.15852 0,-5.859 -4.96,-9.129479 -11.1135,-9.129479 m -2.6815,17.468479 c -0.2945,0.186 -7.533,4.154 -11.005,4.154 -3.2705,0 -3.968,-2.666 -3.968,-3.565 0,-4.1695 9.92,-9.021 10.323,-9.22251 0.3875,-0.20149 7.44,-4.16949 11.005,-4.16949 2.387,0 3.968,1.395 3.968,3.565 0,4.278 -10.013,9.0365 -10.323,9.238"
     id="path1467"
     style="stroke-width:0.992" />
  <path
     class="Note"
     d="m 1360.02,102.08288 c 0,4.2625 3.069,9.02102 11.1135,9.02102 10.3075,0 21.1265,-8.43202 21.1265,-17.158524 0,-5.859 -4.96,-9.129475 -11.1135,-9.129475 -9.6255,0 -21.1265,8.137475 -21.1265,17.266979"
     id="path1469"
     style="stroke-width:0.992" />
  <path
     class="Note"
     d="m 1413.28,102.08288 c 0,4.2625 3.069,9.02102 11.1135,9.02102 10.3075,0 21.1265,-8.43202 21.1265,-17.158524 0,-5.859 -4.96,-9.129475 -11.1135,-9.129475 -9.6255,0 -21.1265,8.137475 -21.1265,17.266979"
     id="path1471"
     style="stroke-width:0.992" />
  <path
     class="Note"
     d="m 1466.54,139.28288 c 0,4.2625 3.069,9.02102 11.1135,9.02102 10.3075,0 21.1265,-8.43202 21.1265,-17.15852 0,-5.859 -4.96,-9.12948 -11.1135,-9.12948 -9.6255,0 -21.1265,8.13748 -21.1265,17.26698"
     id="path1473"
     style="stroke-width:0.992" />
  <path
     class="Note"
     d="m 2265.54,102.08288 c 0,4.2625 3.069,9.02102 11.1135,9.02102 10.3075,0 21.1265,-8.43202 21.1265,-17.158524 0,-5.859 -4.96,-9.129475 -11.1135,-9.129475 -9.6255,0 -21.1265,8.137475 -21.1265,17.266979"
     id="path1475"
     style="stroke-width:0.992" />
  <path
     class="Note"
     d="m 2792.8,114.48288 c 0,4.2625 3.069,9.02102 11.1135,9.02102 10.3075,0 21.1265,-8.43202 21.1265,-17.15852 0,-5.859 -4.96,-9.129479 -11.1135,-9.129479 -9.6255,0 -21.1265,8.137479 -21.1265,17.266979"
     id="path1477"
     style="stroke-width:0.992" />
  <path
     class="Note"
     d="m 1764.85,114.48288 c 0,4.2625 3.069,9.02102 11.1135,9.02102 10.3075,0 21.1265,-8.43202 21.1265,-17.15852 0,-5.859 -4.96,-9.129479 -11.1135,-9.129479 -9.6255,0 -21.1265,8.137479 -21.1265,17.266979"
     id="path1479"
     style="stroke-width:0.992" />
  <path
     class="Note"
     d="m 2728.74,114.48288 c 0,4.2625 3.069,9.02102 11.1135,9.02102 10.3075,0 21.1265,-8.43202 21.1265,-17.15852 0,-5.859 -4.96,-9.129479 -11.1135,-9.129479 -9.6255,0 -21.1265,8.137479 -21.1265,17.266979"
     id="path1481"
     style="stroke-width:0.992" />
  <path
     class="Note"
     d="m 2846.06,102.08288 c 0,4.2625 3.069,9.02102 11.1135,9.02102 10.3075,0 21.1265,-8.43202 21.1265,-17.158524 0,-5.859 -4.96,-9.129475 -11.1135,-9.129475 -9.6255,0 -21.1265,8.137475 -21.1265,17.266979"
     id="path1483"
     style="stroke-width:0.992" />
  <path
     class="Note"
     d="m 2339.9265,97.215901 c -9.6255,0 -21.1265,8.044479 -21.1265,17.266979 0,4.2625 3.069,9.02102 11.1135,9.02102 10.3075,0 21.1265,-8.43202 21.1265,-17.15852 0,-5.859 -4.96,-9.129479 -11.1135,-9.129479 m -2.6815,17.468479 c -0.2945,0.186 -7.533,4.154 -11.005,4.154 -3.2705,0 -3.968,-2.666 -3.968,-3.565 0,-4.1695 9.92,-9.021 10.323,-9.22251 0.3875,-0.20149 7.44,-4.16949 11.005,-4.16949 2.387,0 3.968,1.395 3.968,3.565 0,4.278 -10.013,9.0365 -10.323,9.238"
     id="path1485"
     style="stroke-width:0.992" />
  <path
     class="Note"
     d="m 2899.32,89.682881 c 0,4.262495 3.069,9.02102 11.1135,9.02102 10.3075,0 21.1265,-8.43202 21.1265,-17.158525 0,-5.859 -4.96,-9.129475 -11.1135,-9.129475 -9.6255,0 -21.1265,8.137475 -21.1265,17.26698"
     id="path1487"
     style="stroke-width:0.992" />
  <path
     class="Note"
     d="m 3934.44,64.882881 c 0,4.262495 3.069,9.02102 11.1135,9.02102 10.3075,0 21.1265,-8.43202 21.1265,-17.158525 0,-5.859 -4.96,-9.129475 -11.1135,-9.129475 -9.6255,0 -21.1265,8.137475 -21.1265,17.26698"
     id="path1489"
     style="stroke-width:0.992" />
  <path
     class="Note"
     d="m 4008.8265,47.615901 c -9.6255,0 -21.1265,8.044475 -21.1265,17.26698 0,4.262495 3.069,9.02102 11.1135,9.02102 10.3075,0 21.1265,-8.43202 21.1265,-17.158525 0,-5.859 -4.96,-9.129475 -11.1135,-9.129475 m -2.6815,17.468475 c -0.2945,0.186 -7.533,4.154 -11.005,4.154 -3.2705,0 -3.968,-2.666 -3.968,-3.565 0,-4.1695 9.92,-9.021 10.323,-9.222505 0.3875,-0.201495 7.44,-4.169495 11.005,-4.169495 2.387,0 3.968,1.395 3.968,3.565 0,4.278 -10.013,9.036505 -10.323,9.238"
     id="path1491"
     style="stroke-width:0.992" />
  <path
     class="Note"
     d="m 2966.56,114.48288 c 0,4.2625 3.069,9.02102 11.1135,9.02102 10.3075,0 21.1265,-8.43202 21.1265,-17.15852 0,-5.859 -4.96,-9.129479 -11.1135,-9.129479 -9.6255,0 -21.1265,8.137479 -21.1265,17.266979"
     id="path1493"
     style="stroke-width:0.992" />
  <path
     class="Note"
     d="m 1711.6,102.08288 c 0,4.2625 3.069,9.02102 11.1135,9.02102 10.3075,0 21.1265,-8.43202 21.1265,-17.158524 0,-5.859 -4.96,-9.129475 -11.1135,-9.129475 -9.6255,0 -21.1265,8.137475 -21.1265,17.266979"
     id="path1495"
     style="stroke-width:0.992" />
  <path
     class="Note"
     d="m 1871.37,139.28288 c 0,4.2625 3.069,9.02102 11.1135,9.02102 10.3075,0 21.1265,-8.43202 21.1265,-17.15852 0,-5.859 -4.96,-9.12948 -11.1135,-9.12948 -9.6255,0 -21.1265,8.13748 -21.1265,17.26698"
     id="path1497"
     style="stroke-width:0.992" />
  <path
     class="Note"
     d="m 3774.66,102.08288 c 0,4.2625 3.069,9.02102 11.1135,9.02102 10.3075,0 21.1265,-8.43202 21.1265,-17.158524 0,-5.859 -4.96,-9.129475 -11.1135,-9.129475 -9.6255,0 -21.1265,8.137475 -21.1265,17.266979"
     id="path1499"
     style="stroke-width:0.992" />
  <path
     class="Note"
     d="m 2159.02,114.48288 c 0,4.2625 3.069,9.02102 11.1135,9.02102 10.3075,0 21.1265,-8.43202 21.1265,-17.15852 0,-5.859 -4.96,-9.129479 -11.1135,-9.129479 -9.6255,0 -21.1265,8.137479 -21.1265,17.266979"
     id="path1501"
     style="stroke-width:0.992" />
  <path
     class="Note"
     d="m 3083.88,102.08288 c 0,4.2625 3.069,9.02102 11.1135,9.02102 10.3075,0 21.1265,-8.43202 21.1265,-17.158524 0,-5.859 -4.96,-9.129475 -11.1135,-9.129475 -9.6255,0 -21.1265,8.137475 -21.1265,17.266979"
     id="path1503"
     style="stroke-width:0.992" />
  <path
     class="Note"
     d="m 2423.69,89.682881 c 0,4.262495 3.069,9.02102 11.1135,9.02102 10.3075,0 21.1265,-8.43202 21.1265,-17.158525 0,-5.859 -4.96,-9.129475 -11.1135,-9.129475 -9.6255,0 -21.1265,8.137475 -21.1265,17.26698"
     id="path1505"
     style="stroke-width:0.992" />
  <path
     class="Note"
     d="m 3137.19,89.682881 c 0,4.262495 3.069,9.02102 11.1135,9.02102 10.3075,0 21.1265,-8.43202 21.1265,-17.158525 0,-5.859 -4.96,-9.129475 -11.1135,-9.129475 -9.6255,0 -21.1265,8.137475 -21.1265,17.26698"
     id="path1507"
     style="stroke-width:0.992" />
  <path
     class="Note"
     d="m 3211.5665,72.415901 c -9.6255,0 -21.1265,8.044475 -21.1265,17.26698 0,4.262495 3.069,9.02102 11.1135,9.02102 10.3075,0 21.1265,-8.43202 21.1265,-17.158525 0,-5.859 -4.96,-9.129475 -11.1135,-9.129475 m -2.6815,17.468475 c -0.2945,0.186 -7.533,4.154 -11.005,4.154 -3.2705,0 -3.968,-2.666 -3.968,-3.565 0,-4.1695 9.92,-9.021 10.323,-9.222505 0.3875,-0.201495 7.44,-4.169495 11.005,-4.169495 2.387,0 3.968,1.395 3.968,3.565 0,4.278 -10.013,9.036505 -10.323,9.238"
     id="path1509"
     style="stroke-width:0.992" />
  <path
     class="Note"
     d="m 1658.34,102.08288 c 0,4.2625 3.069,9.02102 11.1135,9.02102 10.3075,0 21.1265,-8.43202 21.1265,-17.158524 0,-5.859 -4.96,-9.129475 -11.1135,-9.129475 -9.6255,0 -21.1265,8.137475 -21.1265,17.266979"
     id="path1511"
     style="stroke-width:0.992" />
  <path
     class="Note"
     d="m 1605.08,114.48288 c 0,4.2625 3.069,9.02102 11.1135,9.02102 10.3075,0 21.1265,-8.43202 21.1265,-17.15852 0,-5.859 -4.96,-9.129479 -11.1135,-9.129479 -9.6255,0 -21.1265,8.137479 -21.1265,17.266979"
     id="path1513"
     style="stroke-width:0.992" />
  <path
     class="Note"
     d="m 2002.3265,84.815901 c -9.6255,0 -21.1265,8.044475 -21.1265,17.266979 0,4.2625 3.069,9.02102 11.1135,9.02102 10.3075,0 21.1265,-8.43202 21.1265,-17.158524 0,-5.859 -4.96,-9.129475 -11.1135,-9.129475 m -2.6815,17.468479 c -0.2945,0.186 -7.533,4.154 -11.005,4.154 -3.2705,0 -3.968,-2.666 -3.968,-3.565 0,-4.169504 9.92,-9.021004 10.323,-9.222509 0.3875,-0.201495 7.44,-4.169495 11.005,-4.169495 2.387,0 3.968,1.395 3.968,3.565 0,4.278 -10.013,9.036504 -10.323,9.238004"
     id="path1515"
     style="stroke-width:0.992" />
  <path
     class="Note"
     d="m 3295.33,64.882881 c 0,4.262495 3.069,9.02102 11.1135,9.02102 10.3075,0 21.1265,-8.43202 21.1265,-17.158525 0,-5.859 -4.96,-9.129475 -11.1135,-9.129475 -9.6255,0 -21.1265,8.137475 -21.1265,17.26698"
     id="path1517"
     style="stroke-width:0.992" />
  <path
     class="Note"
     d="m 2490.93,114.48288 c 0,4.2625 3.069,9.02102 11.1135,9.02102 10.3075,0 21.1265,-8.43202 21.1265,-17.15852 0,-5.859 -4.96,-9.129479 -11.1135,-9.129479 -9.6255,0 -21.1265,8.137479 -21.1265,17.266979"
     id="path1519"
     style="stroke-width:0.992" />
  <path
     class="Note"
     d="m 3348.59,102.08288 c 0,4.2625 3.069,9.02102 11.1135,9.02102 10.3075,0 21.1265,-8.43202 21.1265,-17.158524 0,-5.859 -4.96,-9.129475 -11.1135,-9.129475 -9.6255,0 -21.1265,8.137475 -21.1265,17.266979"
     id="path1521"
     style="stroke-width:0.992" />
  <path
     class="Note"
     d="m 1533.78,114.48288 c 0,4.2625 3.069,9.02102 11.1135,9.02102 10.3075,0 21.1265,-8.43202 21.1265,-17.15852 0,-5.859 -4.96,-9.129479 -11.1135,-9.129479 -9.6255,0 -21.1265,8.137479 -21.1265,17.266979"
     id="path1523"
     style="stroke-width:0.992" />
  <path
     class="Note"
     d="m 3401.85,89.682881 c 0,4.262495 3.069,9.02102 11.1135,9.02102 10.3075,0 21.1265,-8.43202 21.1265,-17.158525 0,-5.859 -4.96,-9.129475 -11.1135,-9.129475 -9.6255,0 -21.1265,8.137475 -21.1265,17.26698"
     id="path1525"
     style="stroke-width:0.992" />
  <path
     class="Note"
     d="m 2034.46,139.28288 c 0,4.2625 3.069,9.02102 11.1135,9.02102 10.3075,0 21.1265,-8.43202 21.1265,-17.15852 0,-5.859 -4.96,-9.12948 -11.1135,-9.12948 -9.6255,0 -21.1265,8.13748 -21.1265,17.26698"
     id="path1527"
     style="stroke-width:0.992" />
  <path
     class="Note"
     d="m 3455.11,77.282881 c 0,4.262495 3.069,9.02102 11.1135,9.02102 10.3075,0 21.1265,-8.43202 21.1265,-17.158525 0,-5.859 -4.96,-9.129475 -11.1135,-9.129475 -9.6255,0 -21.1265,8.137475 -21.1265,17.26698"
     id="path1529"
     style="stroke-width:0.992" />
  <path
     class="Note"
     d="m 2554.99,114.48288 c 0,4.2625 3.069,9.02102 11.1135,9.02102 10.3075,0 21.1265,-8.43202 21.1265,-17.15852 0,-5.859 -4.96,-9.129479 -11.1135,-9.129479 -9.6255,0 -21.1265,8.137479 -21.1265,17.266979"
     id="path1531"
     style="stroke-width:0.992" />
  <path
     class="Note"
     d="m 3508.37,64.882881 c 0,4.262495 3.069,9.02102 11.1135,9.02102 10.3075,0 21.1265,-8.43202 21.1265,-17.158525 0,-5.859 -4.96,-9.129475 -11.1135,-9.129475 -9.6255,0 -21.1265,8.137475 -21.1265,17.26698"
     id="path1533"
     style="stroke-width:0.992" />
  <path
     class="Note"
     d="m 1818.11,126.88288 c 0,4.2625 3.069,9.02102 11.1135,9.02102 10.3075,0 21.1265,-8.43202 21.1265,-17.15852 0,-5.859 -4.96,-9.12948 -11.1135,-9.12948 -9.6255,0 -21.1265,8.13748 -21.1265,17.26698"
     id="path1535"
     style="stroke-width:0.992" />
  <path
     class="Note"
     d="m 3561.63,102.08288 c 0,4.2625 3.069,9.02102 11.1135,9.02102 10.3075,0 21.1265,-8.43202 21.1265,-17.158524 0,-5.859 -4.96,-9.129475 -11.1135,-9.129475 -9.6255,0 -21.1265,8.137475 -21.1265,17.266979"
     id="path1537"
     style="stroke-width:0.992" />
  <path
     class="Clef"
     d="m 60.558525,181.44285 c 0,-3.67347 -3.363475,-5.25442 -6.634,-5.25442 -4.169475,0 -8.246,2.57295 -8.246,7.03695 0,1.89105 0.697475,3.286 2.092525,4.66547 -2.588525,0.992 -5.161575,2.976 -5.161575,6.06053 0,3.27052 2.976,5.456 7.34705,5.456 5.347475,0 9.114,-2.976 9.114,-7.254 0,-2.27853 -0.992,-4.154 -2.774525,-5.456 2.88305,-1.28653 4.262525,-2.86748 4.262525,-5.25453 m -9.92,15.872 c -2.17,0 -3.658,-1.37947 -3.658,-3.472 0,-1.984 0.883475,-3.56495 2.57295,-4.55695 0.40305,0.20148 0.496,0.20148 0.790525,0.38748 1.193475,0.60452 1.193475,0.60452 1.39505,0.806 1.875475,1.08505 2.681475,2.07705 2.681475,3.472 0,1.87547 -1.596525,3.36347 -3.782,3.36347 m 3.782,-11.904 c -1.488,-0.79042 -1.89105,-0.992 -2.185475,-1.19347 l -0.201575,-0.093 c -1.488,-0.89905 -1.984,-1.59653 -1.984,-2.77453 0,-1.798 1.39505,-3.08452 3.37905,-3.08452 1.875475,0 3.06895,1.19347 3.06895,3.27052 0,1.59653 -0.58895,2.68148 -2.07695,3.87495 M 82.088,110.11188 c 0,-14.973029 -10.617475,-25.094504 -25.094525,-25.094504 -0.992,-5.952 -1.89095,-11.81105 -2.774425,-17.36 10.416,-11.020525 17.747475,-23.513475 17.747475,-39.184 0,-9.036525 -2.774525,-16.368 -4.464,-19.948128 C 65.13105,3.472 62.248,0 60.558525,0 c -0.682,0 -3.859475,1.193376 -7.03705,5.053248 -6.448,7.548128 -8.230425,20.134128 -8.230425,28.473078 0,5.36305 0.496,10.214525 2.185475,21.436525 -0.108525,0 -5.27,5.254525 -7.34705,7.03705 C 31.09305,70.338851 18.6,82.428851 18.6,102.17587 c 0,18.64656 16.166525,33.23203 34.62705,33.23203 2.867475,0 5.54895,-0.29452 7.936,-0.69747 1.782425,9.43947 2.976,16.47642 2.976,21.73095 0,10.32305 -5.36305,15.77905 -15.376,15.77905 -2.38705,0 -4.464,-0.496 -4.665575,-0.60453 -0.09295,0 -0.294425,-0.0931 -0.294425,-0.186 0,-0.20147 0.201475,-0.31 0.496,-0.40305 4.665475,-0.69747 9.315475,-4.75842 9.315475,-11.00495 0,-5.36305 -4.06105,-11.02052 -11.50105,-11.02052 -6.944,0 -11.31495,5.65747 -11.31495,12.19852 0,6.55653 4.96,15.19 18.352,15.19 12.80295,0 19.049475,-7.254 19.049475,-19.94852 0,-3.85948 -0.58895,-8.32348 -1.58095,-13.98095 -0.294525,-1.984 -0.790525,-5.06853 -1.488,-8.83505 9.718425,-3.27053 16.95695,-13.29895 16.95695,-23.5135 M 51.537475,28.767901 c 0.992,-3.968 5.456,-14.384 10.617575,-14.384 1.488,0 3.968,4.758425 3.968,11.702425 0,10.214525 -7.734525,17.964525 -14.585575,24.8 -0.58895,-3.968 -1.08495,-7.936 -1.08495,-11.99695 0,-3.766525 0.387475,-7.052525 1.08495,-10.121475 m 2.976,102.578949 c -14.182425,0 -26.28797,-9.92 -26.28797,-24.90847 0,-12.090054 8.52502,-22.909004 17.26702,-30.550479 1.674,-1.39505 3.270525,-2.774525 4.758525,-4.262525 0.883475,5.347475 1.58095,9.92 2.278425,14.089475 -9.036425,2.57305 -15.174425,12.198525 -15.174425,21.421019 0,7.05251 5.456,16.56951 13.392,16.56951 0.790425,0 1.689475,-0.40295 1.689475,-1.39495 0,-0.79053 -0.89905,-1.37958 -2.185475,-2.17005 -3.87505,-2.294 -6.060525,-4.96 -6.060525,-9.734 0,-6.045 4.572525,-10.912054 10.32295,-12.291529 L 60.264,130.64938 c -1.984,0.40305 -3.766525,0.69747 -5.750525,0.69747 m 9.92,-1.89095 c -2.07695,-11.79552 -4.758425,-27.57452 -5.456,-31.945574 10.01305,0 14.29105,6.944054 15.174525,11.718054 0.108525,0.7905 0.294525,1.8755 0.294525,3.069 0,7.1455 -2.976,14.29105 -10.01305,17.15852"
     id="path1539"
     style="stroke-width:0.992" />
  <path
     class="KeySig"
     d="m 123.78252,25.497376 c 0.60453,-0.09305 1.10053,-0.790525 1.10053,-1.39505 v -5.843475 c 0,-0.790525 -0.60453,-1.39495 -1.39505,-1.39495 -0.093,0 -0.093,0 -0.20148,0 L 120.016,17.561376 V 2.7743264 h -2.77452 V 18.150326 l -8.83498,1.798 V 5.9519008 H 105.632 V 20.537376 l -3.875,0.790525 c -0.589,0.108425 -1.085,0.790425 -1.085,1.39495 v 0.201475 5.750545 -0.201495 c 0,0.790495 0.589,1.395 1.395,1.395 0.093,0 0.186,0 0.2945,0 l 3.2705,-0.697505 v 16.36801 l -3.875,0.790495 c -0.589,0.09305 -1.085,0.790525 -1.085,1.39505 v 5.750425 c 0,0.790525 0.589,1.379575 1.395,1.379575 0.093,0 0.186,0 0.2945,0 l 3.2705,-0.682 v 14.771475 h 2.7745 v -15.376 l 8.83498,-1.782525 V 65.781901 H 120.016 V 51.196426 l 3.76652,-0.697575 c 0.60453,-0.108425 1.10053,-0.790425 1.10053,-1.39495 v -5.843525 c 0,-0.806 -0.60453,-1.395 -1.39505,-1.395 -0.093,0 -0.093,0 -0.20148,0 l -3.27052,0.697505 v -16.36801 l 3.76652,-0.697495 m -15.37602,3.069 8.83498,-1.782505 v 16.36801 l -8.83498,1.891 V 28.566376"
     id="path1541"
     style="stroke-width:0.992" />
  <path
     class="KeySig"
     d="m 150.95452,62.697376 c 0.60453,-0.09305 1.10053,-0.790525 1.10053,-1.39505 v -5.843475 c 0,-0.790525 -0.60453,-1.39495 -1.39505,-1.39495 -0.093,0 -0.093,0 -0.20148,0 l -3.27052,0.697475 v -14.78705 h -2.77452 v 15.376 l -8.83498,1.798 V 43.151901 h -2.7745 v 14.585475 l -3.875,0.790525 c -0.589,0.108425 -1.085,0.790425 -1.085,1.39495 v 0.201475 5.750545 -0.201495 c 0,0.790495 0.589,1.395 1.395,1.395 0.093,0 0.186,0 0.2945,0 l 3.2705,-0.697505 v 16.36801 l -3.875,0.790495 c -0.589,0.09305 -1.085,0.790525 -1.085,1.39505 v 5.750425 c 0,0.790525 0.589,1.379575 1.395,1.379575 0.093,0 0.186,0 0.2945,0 l 3.2705,-0.682 V 106.1439 h 2.7745 V 90.767901 l 8.83498,-1.782525 V 102.9819 H 147.188 V 88.396426 l 3.76652,-0.697575 c 0.60453,-0.108425 1.10053,-0.790425 1.10053,-1.39495 v -5.843525 c 0,-0.806 -0.60453,-1.395 -1.39505,-1.395 -0.093,0 -0.093,0 -0.20148,0 l -3.27052,0.697505 v -16.36801 l 3.76652,-0.697495 m -15.37602,3.069 8.83498,-1.782505 v 16.36801 l -8.83498,1.891 V 65.766376"
     id="path1543"
     style="stroke-width:0.992" />
  <path
     class="TimeSig"
     d="m 202.73948,56.450871 c -6.06043,0 -8.23043,1.782505 -9.62548,3.270505 -0.29452,-2.077 -0.496,-3.673505 -0.496,-5.254505 0,-1.596495 0.20148,-2.976 0.496,-4.758545 0.58905,-3.673475 3.06905,-8.246 8.432,-8.246 2.48,0 3.968,0.806 4.96,1.89105 -2.07695,0.89895 -3.76652,3.56495 -3.76652,5.85895 0,3.56505 2.77452,6.339545 6.35504,6.339545 3.56496,0 6.448,-2.774495 6.448,-6.339545 v -0.201475 c 0,0 0,0 0,-0.108525 0,-0.883475 -0.20147,-2.371475 -0.60452,-3.162 -1.28652,-3.580425 -5.456,-8.83495 -15.376,-8.83495 -8.928,0 -15.376,8.52495 -17.36,13.097475 -0.992,2.371525 -2.48,7.238525 -2.48,12.787525 0,6.060505 1.6895,12.89605 7.533,18.057525 5.76605,4.37095 9.42405,4.572525 12.89605,4.572525 3.48747,0 16.47643,-4.076525 16.47643,-15.577545 0,-9.718505 -7.64148,-13.39201 -13.888,-13.39201 m -3.67348,24.79998 c -3.27052,0 -5.952,-4.464 -5.952,-10.028425 0,-5.54905 2.68148,-10.10605 5.952,-10.10605 3.27052,0 6.06052,4.557 6.06052,10.10605 0,5.564425 -2.79,10.028425 -6.06052,10.028425"
     id="path1545"
     style="stroke-width:0.992" />
  <path
     class="TimeSig"
     d="m 196.09052,122.91485 v 7.33158 H 187.86 c -0.69748,0 -1.39495,0.60442 -1.39495,1.39495 v 1.89105 c 0,0.79042 0.69747,1.37947 1.39495,1.37947 h 30.05452 c 0.806,0 1.39496,-0.58905 1.39496,-1.37947 v -1.89105 c 0,-0.79053 -0.58896,-1.39495 -1.39496,-1.39495 h -8.928 v -7.33158 h 8.928 c 0.806,0 1.39496,-0.69747 1.39496,-1.488 v -1.89097 c 0,-0.6975 -0.58896,-1.3795 -1.39496,-1.3795 h -8.928 v -15.779 c 0,-0.589 -0.29452,-1.085 -0.682,-1.28651 l -1.19347,-0.60449 c -0.20157,-0.093 -0.29453,-0.093 -0.496,-0.093 -0.10853,0 -0.10853,0 -0.20157,0 -0.29443,0 -0.69748,0.093 -0.89896,0.29449 l -9.02104,8.23051 c -0.29443,0.31 -0.40296,0.6975 -0.40296,1.1005 v 8.1375 H 184.5895 c 0,0 11.11355,-11.904 22.81598,-27.590054 0.40304,-0.496 0.496,-0.992 0.496,-1.379475 0,-0.496 -0.20148,-0.89895 -0.29443,-0.992 l -2.18557,-2.185475 c -0.29443,-0.201475 -0.58896,-0.40305 -0.992,-0.40305 -0.58896,0 -13.99643,0 -14.78696,0 -0.69747,0 -1.19347,0.604525 -1.28652,1.193575 0,0 -0.496,7.34695 -3.069,15.375969 -2.5885,8.04451 -5.5645,13.00451 -8.1375,16.66251 0,0 -0.2945,0.496 -0.2945,1.1005 0,0.2015 0,0.38755 0.093,0.58902 0.2945,0.69748 0.992,1.78253 0.992,1.78253 0,0 0.2015,0.60442 1.085,0.60442 h 17.06552"
     id="path1547"
     style="stroke-width:0.992" />
  <path
     class="Beam"
     fill-rule="evenodd"
     d="m 405.156,35.906376 122.977,-6.2 v 12.415 l -122.977,6.2 v -12.415"
     id="path1549" />
  <path
     class="Beam"
     fill-rule="evenodd"
     d="m 405.156,54.506376 55.738,-2.811 v 12.416 l -55.738,2.81 v -12.415"
     id="path1551" />
  <path
     class="Beam"
     fill-rule="evenodd"
     d="m 589.715,29.713376 h 55.739 v 12.4 h -55.739 v -12.4"
     id="path1553" />
  <path
     class="Beam"
     fill-rule="evenodd"
     d="m 710.213,29.675376 55.738,6.2 v 12.477 l -55.738,-6.2 v -12.477"
     id="path1555" />
  <path
     class="Beam"
     fill-rule="evenodd"
     d="m 710.213,48.275376 55.738,6.2 v 12.477 l -55.738,-6.2 v -12.477"
     id="path1557" />
  <path
     class="Beam"
     fill-rule="evenodd"
     d="m 1164.38,29.713376 h 55.74 v 12.4 h -55.74 v -12.4"
     id="path1559" />
  <path
     class="Beam"
     fill-rule="evenodd"
     d="m 2064.21,35.906376 127.04,-6.2 v 12.415 l -127.04,6.2 v -12.415"
     id="path1561" />
  <path
     class="Beam"
     fill-rule="evenodd"
     d="m 2064.21,54.506376 55.74,-2.72 v 12.415 l -55.74,2.72 v -12.415"
     id="path1563" />
  <path
     class="Beam"
     fill-rule="evenodd"
     d="m 2929.07,4.910376 187.04,6.2 v 12.407 l -187.04,-6.2 v -12.407"
     id="path1565" />
  <path
     class="Beam"
     fill-rule="evenodd"
     d="m 2929.07,23.510376 187.04,6.2 v 12.407 l -187.04,-6.2 v -12.407"
     id="path1567" />
  <path
     class="Beam"
     fill-rule="evenodd"
     d="m 979.82,35.906376 122.98,-6.2 v 12.415 l -122.98,6.2 v -12.415"
     id="path1569" />
  <path
     class="Beam"
     fill-rule="evenodd"
     d="m 979.82,54.506376 55.74,-2.811 v 12.416 l -55.74,2.81 v -12.415"
     id="path1571" />
  <path
     class="Beam"
     fill-rule="evenodd"
     d="m 2691.25,4.910376 187.04,6.2 v 12.407 l -187.04,-6.2 v -12.407"
     id="path1573" />
  <path
     class="Beam"
     fill-rule="evenodd"
     d="m 2691.25,23.510376 187.04,6.2 v 12.407 l -187.04,-6.2 v -12.407"
     id="path1575" />
  <path
     class="Beam"
     fill-rule="evenodd"
     d="m 3295.33,166.11338 h 162.26 v 12.4 h -162.26 v -12.4"
     id="path1577" />
  <path
     class="Beam"
     fill-rule="evenodd"
     d="m 3295.33,147.51338 h 162.26 v 12.4 h -162.26 v -12.4"
     id="path1579" />
  <path
     class="Beam"
     fill-rule="evenodd"
     d="m 2453.43,4.910376 187.04,6.2 v 12.407 l -187.04,-6.2 v -12.407"
     id="path1581" />
  <path
     class="Beam"
     fill-rule="evenodd"
     d="m 2453.43,23.510376 187.04,6.2 v 12.407 l -187.04,-6.2 v -12.407"
     id="path1583" />
  <path
     class="Beam"
     fill-rule="evenodd"
     d="m 2242.03,23.513376 h 55.73 v 12.4 h -55.73 v -12.4"
     id="path1585" />
  <path
     class="Beam"
     fill-rule="evenodd"
     d="m 1688.08,23.513376 h 55.74 v 12.4 h -55.74 v -12.4"
     id="path1587" />
  <path
     class="Beam"
     fill-rule="evenodd"
     d="m 3721.4,166.11338 h 162.26 v 12.4 H 3721.4 v -12.4"
     id="path1589" />
  <path
     class="Beam"
     fill-rule="evenodd"
     d="m 3721.4,147.51338 h 162.26 v 12.4 H 3721.4 v -12.4"
     id="path1591" />
  <path
     class="Beam"
     fill-rule="evenodd"
     d="m 1794.6,29.675376 55.74,6.2 v 12.477 l -55.74,-6.2 v -12.477"
     id="path1593" />
  <path
     class="Beam"
     fill-rule="evenodd"
     d="m 1794.6,48.275376 55.74,6.2 v 12.477 l -55.74,-6.2 v -12.477"
     id="path1595" />
  <path
     class="Beam"
     fill-rule="evenodd"
     d="m 3508.37,166.11338 h 162.25 v 12.4 h -162.25 v -12.4"
     id="path1597" />
  <path
     class="Beam"
     fill-rule="evenodd"
     d="m 3508.37,147.51338 h 162.25 v 12.4 h -162.25 v -12.4"
     id="path1599" />
  <path
     class="Beam"
     fill-rule="evenodd"
     d="m 1496.28,35.907376 141.02,-6.2 v 12.412 l -141.02,6.2 v -12.412"
     id="path1601" />
  <path
     class="Beam"
     fill-rule="evenodd"
     d="m 1496.28,54.507376 69.72,-3.065 v 12.412 l -69.72,3.065 v -12.412"
     id="path1603" />
  <path
     class="NoteDot"
     d="m 831.61,147.51338 c 0,2.7745 2.1855,4.96 4.96,4.96 2.7745,0 4.96,-2.1855 4.96,-4.96 0,-2.77451 -2.1855,-4.96 -4.96,-4.96 -2.7745,0 -4.96,2.18549 -4.96,4.96"
     id="path1605"
     style="stroke-width:0.992" />
  <path
     class="NoteDot"
     d="m 1916,122.71338 c 0,2.7745 2.1855,4.96 4.96,4.96 2.7745,0 4.96,-2.1855 4.96,-4.96 0,-2.77451 -2.1855,-4.96 -4.96,-4.96 -2.7745,0 -4.96,2.18549 -4.96,4.96"
     id="path1607"
     style="stroke-width:0.992" />
</svg>
