<?xml version="1.0" encoding="UTF-8" standalone="no"?>
<svg
   xmlns:dc="http://purl.org/dc/elements/1.1/"
   xmlns:cc="http://creativecommons.org/ns#"
   xmlns:rdf="http://www.w3.org/1999/02/22-rdf-syntax-ns#"
   xmlns:svg="http://www.w3.org/2000/svg"
   xmlns="http://www.w3.org/2000/svg"
   xmlns:sodipodi="http://sodipodi.sourceforge.net/DTD/sodipodi-0.dtd"
   xmlns:inkscape="http://www.inkscape.org/namespaces/inkscape"
   width="3659.6021"
   height="202.26027"
   viewBox="0 0 3659.6021 202.26027"
   version="1.2"
   id="svg2609"
   sodipodi:docname="Dossium Canto IJsbad Musica.svg"
   inkscape:version="1.0.2-2 (e86c870879, 2021-01-15)">
  <metadata
     id="metadata2615">
    <rdf:RDF>
      <cc:Work
         rdf:about="">
        <dc:format>image/svg+xml</dc:format>
        <dc:type
           rdf:resource="http://purl.org/dc/dcmitype/StillImage" />
      </cc:Work>
    </rdf:RDF>
  </metadata>
  <defs
     id="defs2613" />
  <sodipodi:namedview
     pagecolor="#ffffff"
     bordercolor="#666666"
     borderopacity="1"
     objecttolerance="10"
     gridtolerance="10"
     guidetolerance="10"
     inkscape:pageopacity="0"
     inkscape:pageshadow="2"
     inkscape:window-width="1920"
     inkscape:window-height="991"
     id="namedview2611"
     showgrid="false"
     inkscape:zoom="0.26568588"
     inkscape:cx="1767.602"
     inkscape:cy="916.18573"
     inkscape:window-x="-9"
     inkscape:window-y="-9"
     inkscape:window-maximized="1"
     inkscape:current-layer="svg2609" />
  <title
     id="title2359">Dossium Canto IJsbad Musica</title>
  <desc
     id="desc2361">Generated by MuseScore Studio 4.4.4</desc>
  <polyline
     class="StaffLines"
     fill="none"
     stroke="#000000"
     stroke-width="2.73"
     stroke-linejoin="bevel"
     points="336.598,634.198 3996.2,634.198"
     id="polyline2363"
     transform="translate(-336.598,-572.41425)" />
  <polyline
     class="StaffLines"
     fill="none"
     stroke="#000000"
     stroke-width="2.73"
     stroke-linejoin="bevel"
     points="336.598,658.998 3996.2,658.998"
     id="polyline2365"
     transform="translate(-336.598,-572.41425)" />
  <polyline
     class="StaffLines"
     fill="none"
     stroke="#000000"
     stroke-width="2.73"
     stroke-linejoin="bevel"
     points="336.598,683.798 3996.2,683.798"
     id="polyline2367"
     transform="translate(-336.598,-572.41425)" />
  <polyline
     class="StaffLines"
     fill="none"
     stroke="#000000"
     stroke-width="2.73"
     stroke-linejoin="bevel"
     points="336.598,708.598 3996.2,708.598"
     id="polyline2369"
     transform="translate(-336.598,-572.41425)" />
  <polyline
     class="StaffLines"
     fill="none"
     stroke="#000000"
     stroke-width="2.73"
     stroke-linejoin="bevel"
     points="336.598,733.398 3996.2,733.398"
     id="polyline2371"
     transform="translate(-336.598,-572.41425)" />
  <path
     class="TieSegment"
     stroke="#000000"
     stroke-width="1.24"
     stroke-linecap="round"
     stroke-linejoin="round"
     fill-rule="evenodd"
     d="m 789.362,18.88775 c 19.98,-24.357 79.94,-24.357 99.92,0 -19.98,-16.421 -79.94,-16.421 -99.92,0"
     id="path2381" />
  <path
     class="TieSegment"
     stroke="#000000"
     stroke-width="1.24"
     stroke-linecap="round"
     stroke-linejoin="round"
     fill-rule="evenodd"
     d="m 2904.862,68.48775 c 19.99,-25.008 79.94,-25.008 99.93,0 -19.99,-17.072 -79.94,-17.072 -99.93,0"
     id="path2383" />
  <path
     class="TieSegment"
     stroke="#000000"
     stroke-width="1.24"
     stroke-linecap="round"
     stroke-linejoin="round"
     fill-rule="evenodd"
     d="m 2526.922,18.88775 c 19.99,-24.357 79.95,-24.357 99.93,0 -19.98,-16.421 -79.94,-16.421 -99.93,0"
     id="path2385" />
  <polyline
     class="BarLine"
     fill="none"
     stroke="#000000"
     stroke-width="4.46"
     stroke-linejoin="bevel"
     points="3628.51,632.834 3628.51,734.762"
     id="polyline2387"
     transform="translate(-336.598,-572.41425)" />
  <polyline
     class="BarLine"
     fill="none"
     stroke="#000000"
     stroke-width="4.46"
     stroke-linejoin="bevel"
     points="3971.15,632.834 3971.15,734.762"
     id="polyline2389"
     transform="translate(-336.598,-572.41425)" />
  <polyline
     class="BarLine"
     fill="none"
     stroke="#000000"
     stroke-width="13.64"
     stroke-linejoin="bevel"
     points="3989.38,632.834 3989.38,734.762"
     id="polyline2391"
     transform="translate(-336.598,-572.41425)" />
  <polyline
     class="BarLine"
     fill="none"
     stroke="#000000"
     stroke-width="4.46"
     stroke-linejoin="bevel"
     points="839.994,632.834 839.994,734.762"
     id="polyline2393"
     transform="translate(-336.598,-572.41425)" />
  <polyline
     class="BarLine"
     fill="none"
     stroke="#000000"
     stroke-width="4.46"
     stroke-linejoin="bevel"
     points="2234.92,632.834 2234.92,734.762"
     id="polyline2395"
     transform="translate(-336.598,-572.41425)" />
  <polyline
     class="BarLine"
     fill="none"
     stroke="#000000"
     stroke-width="4.46"
     stroke-linejoin="bevel"
     points="1384.36,632.834 1384.36,734.762"
     id="polyline2397"
     transform="translate(-336.598,-572.41425)" />
  <polyline
     class="BarLine"
     fill="none"
     stroke="#000000"
     stroke-width="4.46"
     stroke-linejoin="bevel"
     points="1177.08,632.834 1177.08,734.762"
     id="polyline2399"
     transform="translate(-336.598,-572.41425)" />
  <polyline
     class="BarLine"
     fill="none"
     stroke="#000000"
     stroke-width="4.46"
     stroke-linejoin="bevel"
     points="2577.56,632.834 2577.56,734.762"
     id="polyline2401"
     transform="translate(-336.598,-572.41425)" />
  <polyline
     class="BarLine"
     fill="none"
     stroke="#000000"
     stroke-width="4.46"
     stroke-linejoin="bevel"
     points="1727.01,632.834 1727.01,734.762"
     id="polyline2403"
     transform="translate(-336.598,-572.41425)" />
  <polyline
     class="BarLine"
     fill="none"
     stroke="#000000"
     stroke-width="4.46"
     stroke-linejoin="bevel"
     points="2914.65,632.834 2914.65,734.762"
     id="polyline2405"
     transform="translate(-336.598,-572.41425)" />
  <polyline
     class="BarLine"
     fill="none"
     stroke="#000000"
     stroke-width="4.46"
     stroke-linejoin="bevel"
     points="1994.66,632.834 1994.66,734.762"
     id="polyline2407"
     transform="translate(-336.598,-572.41425)" />
  <polyline
     class="BarLine"
     fill="none"
     stroke="#000000"
     stroke-width="4.46"
     stroke-linejoin="bevel"
     points="3292.58,632.834 3292.58,734.762"
     id="polyline2409"
     transform="translate(-336.598,-572.41425)" />
  <polyline
     class="LedgerLine"
     fill="none"
     stroke="#000000"
     stroke-width="3.97"
     stroke-linejoin="bevel"
     points="1881.85,609.398 1930.45,609.398"
     id="polyline2411"
     transform="translate(-336.598,-572.41425)" />
  <polyline
     class="LedgerLine"
     fill="none"
     stroke="#000000"
     stroke-width="3.97"
     stroke-linejoin="bevel"
     points="1202.13,609.398 1250.72,609.398"
     id="polyline2413"
     transform="translate(-336.598,-572.41425)" />
  <polyline
     class="LedgerLine"
     fill="none"
     stroke="#000000"
     stroke-width="3.97"
     stroke-linejoin="bevel"
     points="1409.41,609.398 1458,609.398"
     id="polyline2415"
     transform="translate(-336.598,-572.41425)" />
  <polyline
     class="LedgerLine"
     fill="none"
     stroke="#000000"
     stroke-width="3.97"
     stroke-linejoin="bevel"
     points="727.184,609.398 775.777,609.398"
     id="polyline2417"
     transform="translate(-336.598,-572.41425)" />
  <polyline
     class="LedgerLine"
     fill="none"
     stroke="#000000"
     stroke-width="3.97"
     stroke-linejoin="bevel"
     points="2464.75,609.398 2513.34,609.398"
     id="polyline2419"
     transform="translate(-336.598,-572.41425)" />
  <polyline
     class="LedgerLine"
     fill="none"
     stroke="#000000"
     stroke-width="3.97"
     stroke-linejoin="bevel"
     points="865.042,609.398 913.635,609.398"
     id="polyline2421"
     transform="translate(-336.598,-572.41425)" />
  <polyline
     class="LedgerLine"
     fill="none"
     stroke="#000000"
     stroke-width="3.97"
     stroke-linejoin="bevel"
     points="1752.05,609.398 1800.65,609.398"
     id="polyline2423"
     transform="translate(-336.598,-572.41425)" />
  <polyline
     class="LedgerLine"
     fill="none"
     stroke="#000000"
     stroke-width="3.97"
     stroke-linejoin="bevel"
     points="1614.2,609.398 1662.79,609.398"
     id="polyline2425"
     transform="translate(-336.598,-572.41425)" />
  <polyline
     class="LedgerLine"
     fill="none"
     stroke="#000000"
     stroke-width="3.97"
     stroke-linejoin="bevel"
     points="994.844,609.398 1043.44,609.398"
     id="polyline2427"
     transform="translate(-336.598,-572.41425)" />
  <polyline
     class="LedgerLine"
     fill="none"
     stroke="#000000"
     stroke-width="3.97"
     stroke-linejoin="bevel"
     points="2732.41,609.398 2781,609.398"
     id="polyline2429"
     transform="translate(-336.598,-572.41425)" />
  <polyline
     class="LedgerLine"
     fill="none"
     stroke="#000000"
     stroke-width="3.97"
     stroke-linejoin="bevel"
     points="2019.71,609.398 2068.31,609.398"
     id="polyline2431"
     transform="translate(-336.598,-572.41425)" />
  <polyline
     class="LedgerLine"
     fill="none"
     stroke="#000000"
     stroke-width="3.97"
     stroke-linejoin="bevel"
     points="1304.52,609.398 1353.11,609.398"
     id="polyline2433"
     transform="translate(-336.598,-572.41425)" />
  <polyline
     class="LedgerLine"
     fill="none"
     stroke="#000000"
     stroke-width="3.97"
     stroke-linejoin="bevel"
     points="2834.8,609.398 2883.4,609.398"
     id="polyline2435"
     transform="translate(-336.598,-572.41425)" />
  <polyline
     class="LedgerLine"
     fill="none"
     stroke="#000000"
     stroke-width="3.97"
     stroke-linejoin="bevel"
     points="2602.61,609.398 2651.2,609.398"
     id="polyline2437"
     transform="translate(-336.598,-572.41425)" />
  <polyline
     class="LedgerLine"
     fill="none"
     stroke="#000000"
     stroke-width="3.97"
     stroke-linejoin="bevel"
     points="2939.69,609.398 2988.29,609.398"
     id="polyline2439"
     transform="translate(-336.598,-572.41425)" />
  <polyline
     class="LedgerLine"
     fill="none"
     stroke="#000000"
     stroke-width="3.97"
     stroke-linejoin="bevel"
     points="3042.09,609.398 3090.68,609.398"
     id="polyline2441"
     transform="translate(-336.598,-572.41425)" />
  <polyline
     class="LedgerLine"
     fill="none"
     stroke="#000000"
     stroke-width="3.97"
     stroke-linejoin="bevel"
     points="3110.35,609.398 3158.94,609.398"
     id="polyline2443"
     transform="translate(-336.598,-572.41425)" />
  <polyline
     class="LedgerLine"
     fill="none"
     stroke="#000000"
     stroke-width="3.97"
     stroke-linejoin="bevel"
     points="2259.96,609.398 2308.56,609.398"
     id="polyline2445"
     transform="translate(-336.598,-572.41425)" />
  <polyline
     class="LedgerLine"
     fill="none"
     stroke="#000000"
     stroke-width="3.97"
     stroke-linejoin="bevel"
     points="1097.24,609.398 1145.83,609.398"
     id="polyline2447"
     transform="translate(-336.598,-572.41425)" />
  <polyline
     class="LedgerLine"
     fill="none"
     stroke="#000000"
     stroke-width="3.97"
     stroke-linejoin="bevel"
     points="3385.89,609.398 3434.49,609.398"
     id="polyline2449"
     transform="translate(-336.598,-572.41425)" />
  <polyline
     class="LedgerLine"
     fill="none"
     stroke="#000000"
     stroke-width="3.97"
     stroke-linejoin="bevel"
     points="3488.29,609.398 3536.88,609.398"
     id="polyline2451"
     transform="translate(-336.598,-572.41425)" />
  <polyline
     class="LedgerLine"
     fill="none"
     stroke="#000000"
     stroke-width="3.97"
     stroke-linejoin="bevel"
     points="522.397,609.398 570.989,609.398"
     id="polyline2453"
     transform="translate(-336.598,-572.41425)" />
  <polyline
     class="LedgerLine"
     fill="none"
     stroke="#000000"
     stroke-width="3.97"
     stroke-linejoin="bevel"
     points="3653.55,609.398 3702.15,609.398"
     id="polyline2455"
     transform="translate(-336.598,-572.41425)" />
  <polyline
     class="LedgerLine"
     fill="none"
     stroke="#000000"
     stroke-width="3.97"
     stroke-linejoin="bevel"
     points="3755.95,609.398 3804.54,609.398"
     id="polyline2457"
     transform="translate(-336.598,-572.41425)" />
  <polyline
     class="Stem"
     fill="none"
     stroke="#000000"
     stroke-width="2.48"
     stroke-linejoin="bevel"
     points="1418.83,613.565 1418.83,696.198"
     id="polyline2459"
     transform="translate(-336.598,-572.41425)" />
  <polyline
     class="Stem"
     fill="none"
     stroke="#000000"
     stroke-width="2.48"
     stroke-linejoin="bevel"
     points="874.466,613.565 874.466,696.198"
     id="polyline2461"
     transform="translate(-336.598,-572.41425)" />
  <polyline
     class="Stem"
     fill="none"
     stroke="#000000"
     stroke-width="2.48"
     stroke-linejoin="bevel"
     points="1521.23,663.165 1521.23,745.798"
     id="polyline2463"
     transform="translate(-336.598,-572.41425)" />
  <polyline
     class="Stem"
     fill="none"
     stroke="#000000"
     stroke-width="2.48"
     stroke-linejoin="bevel"
     points="2029.14,613.565 2029.14,696.198"
     id="polyline2465"
     transform="translate(-336.598,-572.41425)" />
  <polyline
     class="Stem"
     fill="none"
     stroke="#000000"
     stroke-width="2.48"
     stroke-linejoin="bevel"
     points="1623.62,613.565 1623.62,696.198"
     id="polyline2467"
     transform="translate(-336.598,-572.41425)" />
  <polyline
     class="Stem"
     fill="none"
     stroke="#000000"
     stroke-width="2.48"
     stroke-linejoin="bevel"
     points="2741.83,601.165 2741.83,683.798"
     id="polyline2469"
     transform="translate(-336.598,-572.41425)" />
  <polyline
     class="Stem"
     fill="none"
     stroke="#000000"
     stroke-width="2.48"
     stroke-linejoin="bevel"
     points="2844.23,613.565 2844.23,696.099"
     id="polyline2471"
     transform="translate(-336.598,-572.41425)" />
  <polyline
     class="Stem"
     fill="none"
     stroke="#000000"
     stroke-width="2.48"
     stroke-linejoin="bevel"
     points="531.821,613.565 531.821,696.198"
     id="polyline2473"
     transform="translate(-336.598,-572.41425)" />
  <polyline
     class="Stem"
     fill="none"
     stroke="#000000"
     stroke-width="2.48"
     stroke-linejoin="bevel"
     points="1761.48,613.565 1761.48,696.198"
     id="polyline2475"
     transform="translate(-336.598,-572.41425)" />
  <polyline
     class="Stem"
     fill="none"
     stroke="#000000"
     stroke-width="2.48"
     stroke-linejoin="bevel"
     points="2949.12,613.565 2949.12,696.198"
     id="polyline2477"
     transform="translate(-336.598,-572.41425)" />
  <polyline
     class="Stem"
     fill="none"
     stroke="#000000"
     stroke-width="2.48"
     stroke-linejoin="bevel"
     points="634.215,663.165 634.215,745.798"
     id="polyline2479"
     transform="translate(-336.598,-572.41425)" />
  <polyline
     class="Stem"
     fill="none"
     stroke="#000000"
     stroke-width="2.48"
     stroke-linejoin="bevel"
     points="3051.51,613.565 3051.51,696.099"
     id="polyline2481"
     transform="translate(-336.598,-572.41425)" />
  <polyline
     class="Stem"
     fill="none"
     stroke="#000000"
     stroke-width="2.48"
     stroke-linejoin="bevel"
     points="736.608,613.565 736.608,696.198"
     id="polyline2483"
     transform="translate(-336.598,-572.41425)" />
  <polyline
     class="Stem"
     fill="none"
     stroke="#000000"
     stroke-width="2.48"
     stroke-linejoin="bevel"
     points="3119.77,613.565 3119.77,696.198"
     id="polyline2485"
     transform="translate(-336.598,-572.41425)" />
  <polyline
     class="Stem"
     fill="none"
     stroke="#000000"
     stroke-width="2.48"
     stroke-linejoin="bevel"
     points="2269.39,613.565 2269.39,696.198"
     id="polyline2487"
     transform="translate(-336.598,-572.41425)" />
  <polyline
     class="Stem"
     fill="none"
     stroke="#000000"
     stroke-width="2.48"
     stroke-linejoin="bevel"
     points="3222.17,663.165 3222.17,745.699"
     id="polyline2489"
     transform="translate(-336.598,-572.41425)" />
  <polyline
     class="Stem"
     fill="none"
     stroke="#000000"
     stroke-width="2.48"
     stroke-linejoin="bevel"
     points="2612.03,613.565 2612.03,696.198"
     id="polyline2491"
     transform="translate(-336.598,-572.41425)" />
  <polyline
     class="Stem"
     fill="none"
     stroke="#000000"
     stroke-width="2.48"
     stroke-linejoin="bevel"
     points="1004.27,601.165 1004.27,683.798"
     id="polyline2493"
     transform="translate(-336.598,-572.41425)" />
  <polyline
     class="Stem"
     fill="none"
     stroke="#000000"
     stroke-width="2.48"
     stroke-linejoin="bevel"
     points="3327.06,663.165 3327.06,745.699"
     id="polyline2495"
     transform="translate(-336.598,-572.41425)" />
  <polyline
     class="Stem"
     fill="none"
     stroke="#000000"
     stroke-width="2.48"
     stroke-linejoin="bevel"
     points="3395.32,613.565 3395.32,696.198"
     id="polyline2497"
     transform="translate(-336.598,-572.41425)" />
  <polyline
     class="Stem"
     fill="none"
     stroke="#000000"
     stroke-width="2.48"
     stroke-linejoin="bevel"
     points="1891.28,601.165 1891.28,683.798"
     id="polyline2499"
     transform="translate(-336.598,-572.41425)" />
  <polyline
     class="Stem"
     fill="none"
     stroke="#000000"
     stroke-width="2.48"
     stroke-linejoin="bevel"
     points="3497.71,613.565 3497.71,696.198"
     id="polyline2501"
     transform="translate(-336.598,-572.41425)" />
  <polyline
     class="Stem"
     fill="none"
     stroke="#000000"
     stroke-width="2.48"
     stroke-linejoin="bevel"
     points="1106.66,613.565 1106.66,696.099"
     id="polyline2503"
     transform="translate(-336.598,-572.41425)" />
  <polyline
     class="Stem"
     fill="none"
     stroke="#000000"
     stroke-width="2.48"
     stroke-linejoin="bevel"
     points="1211.55,613.565 1211.55,696.198"
     id="polyline2505"
     transform="translate(-336.598,-572.41425)" />
  <polyline
     class="Stem"
     fill="none"
     stroke="#000000"
     stroke-width="2.48"
     stroke-linejoin="bevel"
     points="3662.98,601.165 3662.98,683.798"
     id="polyline2507"
     transform="translate(-336.598,-572.41425)" />
  <polyline
     class="Stem"
     fill="none"
     stroke="#000000"
     stroke-width="2.48"
     stroke-linejoin="bevel"
     points="1313.94,613.565 1313.94,696.099"
     id="polyline2509"
     transform="translate(-336.598,-572.41425)" />
  <polyline
     class="Stem"
     fill="none"
     stroke="#000000"
     stroke-width="2.48"
     stroke-linejoin="bevel"
     points="3765.37,613.565 3765.37,696.198"
     id="polyline2511"
     transform="translate(-336.598,-572.41425)" />
  <polyline
     class="Stem"
     fill="none"
     stroke="#000000"
     stroke-width="2.48"
     stroke-linejoin="bevel"
     points="2474.18,613.565 2474.18,696.198"
     id="polyline2513"
     transform="translate(-336.598,-572.41425)" />
  <polyline
     class="Stem"
     fill="none"
     stroke="#000000"
     stroke-width="2.48"
     stroke-linejoin="bevel"
     points="3867.76,625.965 3867.76,708.598"
     id="polyline2515"
     transform="translate(-336.598,-572.41425)" />
  <polyline
     class="Stem"
     fill="none"
     stroke="#000000"
     stroke-width="2.48"
     stroke-linejoin="bevel"
     points="2371.78,663.165 2371.78,745.798"
     id="polyline2517"
     transform="translate(-336.598,-572.41425)" />
  <polyline
     class="Stem"
     fill="none"
     stroke="#000000"
     stroke-width="2.48"
     stroke-linejoin="bevel"
     points="2131.53,625.965 2131.53,708.598"
     id="polyline2519"
     transform="translate(-336.598,-572.41425)" />
  <path
     class="Hook"
     d="m 2884.332,173.29075 c 0,0.682 0.589,1.2865 1.2865,1.2865 0.496,0 1.1005,-0.403 1.1935,-0.7905 0,-0.1085 0.899,-3.5805 0.992,-3.875 0.093,-0.403 0.992,-4.1695 4.557,-10.01305 3.875,-6.448 9.827,-11.11347 14.787,-18.05747 4.96,-6.944 7.843,-13.50053 7.843,-22.22696 0,-9.02104 -1.984,-16.56957 -7.347,-26.195045 -0.2945,-0.697475 -0.899,-1.08495 -1.488,-1.08495 -0.2015,0 -0.403,0 -0.496,0.09295 -0.496,0.201475 -0.6975,0.604525 -0.6975,1.193475 0,0.294525 0.1085,0.697575 0.2945,1.193575 3.968,9.222425 5.5645,14.476955 5.5645,21.622425 0,8.23053 -2.883,12.50853 -4.6655,15.57757 -6.448,11.00496 -16.864,16.368 -21.0335,17.76296 -0.6975,0.20147 -0.7905,0.79052 -0.7905,1.08504 v 22.42848"
     id="path2521"
     style="stroke-width:0.992" />
  <path
     class="Hook"
     d="m 2506.392,123.69075 c 0,0.682 0.589,1.2865 1.2865,1.2865 0.496,0 1.1005,-0.403 1.1935,-0.7905 0,-0.1085 0.899,-3.5805 0.992,-3.875 0.093,-0.403 0.992,-4.1695 4.557,-10.01305 3.875,-6.448 9.827,-11.113475 14.787,-18.057475 4.96,-6.944 7.843,-13.500525 7.843,-22.22695 0,-9.02105 -1.984,-16.569575 -7.347,-26.19505 -0.2945,-0.697475 -0.899,-1.08495 -1.488,-1.08495 -0.2015,0 -0.403,0 -0.496,0.09295 -0.496,0.201475 -0.6975,0.604525 -0.6975,1.193475 0,0.294525 0.1085,0.697575 0.2945,1.193575 3.968,9.222425 5.5645,14.47695 5.5645,21.622425 0,8.230525 -2.883,12.508525 -4.6655,15.577575 -6.448,11.00495 -16.864,16.368 -21.0335,17.762955 -0.6975,0.20147 -0.7905,0.79052 -0.7905,1.08504 v 22.42848"
     id="path2523"
     style="stroke-width:0.992" />
  <path
     class="Hook"
     d="m 768.822,123.69075 c 0,0.682 0.589,1.2865 1.2865,1.2865 0.496,0 1.1005,-0.403 1.1935,-0.7905 0,-0.1085 0.899,-3.5805 0.992,-3.875 0.093,-0.403 0.992,-4.1695 4.557,-10.01305 3.875,-6.448 9.827,-11.113475 14.787,-18.057475 4.96,-6.944 7.84305,-13.500525 7.84305,-22.22695 0,-9.02105 -1.984,-16.569575 -7.34705,-26.19505 -0.29452,-0.697475 -0.89895,-1.08495 -1.488,-1.08495 -0.20148,0 -0.40295,0 -0.496,0.09295 -0.496,0.201475 -0.69748,0.604525 -0.69748,1.193475 0,0.294525 0.10853,0.697575 0.29453,1.193575 3.968,9.222425 5.56443,14.47695 5.56443,21.622425 0,8.230525 -2.88296,12.508525 -4.66548,15.577575 -6.448,11.00495 -16.864,16.368 -21.0335,17.762955 -0.6975,0.20147 -0.7905,0.79052 -0.7905,1.08504 v 22.42848"
     id="path2525"
     style="stroke-width:0.992" />
  <path
     class="Hook"
     d="m 976.102,123.69075 c 0,0.682 0.589,1.2865 1.2865,1.2865 0.496,0 1.1005,-0.403 1.1935,-0.7905 0,-0.1085 0.899,-3.5805 0.992,-3.875 0.093,-0.403 0.992,-4.1695 4.557,-10.01305 3.875,-6.448 9.827,-11.113475 14.787,-18.057475 4.96,-6.944 7.843,-13.500525 7.843,-22.22695 0,-9.02105 -1.984,-16.569575 -7.347,-26.19505 -0.29452,-0.697475 -0.89895,-1.08495 -1.488,-1.08495 -0.20148,0 -0.40295,0 -0.496,0.09295 -0.496,0.201475 -0.69748,0.604525 -0.69748,1.193475 0,0.294525 0.10853,0.697575 0.29453,1.193575 3.96795,9.222425 5.56445,14.47695 5.56445,21.622425 0,8.230525 -2.88298,12.508525 -4.6655,15.577575 -6.448,11.00495 -16.864,16.368 -21.0335,17.762955 -0.6975,0.20147 -0.7905,0.79052 -0.7905,1.08504 v 22.42848"
     id="path2527"
     style="stroke-width:0.992" />
  <path
     class="Hook"
     d="m 2989.222,173.29075 c 0,0.682 0.589,1.2865 1.2865,1.2865 0.496,0 1.1005,-0.403 1.1935,-0.7905 0,-0.1085 0.899,-3.5805 0.992,-3.875 0.093,-0.403 0.992,-4.1695 4.557,-10.01305 3.875,-6.448 9.827,-11.11347 14.787,-18.05747 4.96,-6.944 7.843,-13.50053 7.843,-22.22696 0,-9.02104 -1.984,-16.56957 -7.347,-26.195045 -0.2945,-0.697475 -0.899,-1.08495 -1.488,-1.08495 -0.2015,0 -0.403,0 -0.496,0.09295 -0.496,0.201475 -0.6975,0.604525 -0.6975,1.193475 0,0.294525 0.1085,0.697575 0.2945,1.193575 3.968,9.222425 5.5645,14.476955 5.5645,21.622425 0,8.23053 -2.883,12.50853 -4.6655,15.57757 -6.448,11.00496 -16.864,16.368 -21.0335,17.76296 -0.6975,0.20147 -0.7905,0.79052 -0.7905,1.08504 v 22.42848"
     id="path2529"
     style="stroke-width:0.992" />
  <path
     class="Hook"
     d="m 2713.672,123.69075 c 0,0.682 0.589,1.2865 1.2865,1.2865 0.496,0 1.1005,-0.403 1.1935,-0.7905 0,-0.1085 0.899,-3.5805 0.992,-3.875 0.093,-0.403 0.992,-4.1695 4.557,-10.01305 3.875,-6.448 9.827,-11.113475 14.787,-18.057475 4.96,-6.944 7.843,-13.500525 7.843,-22.22695 0,-9.02105 -1.984,-16.569575 -7.347,-26.19505 -0.2945,-0.697475 -0.899,-1.08495 -1.488,-1.08495 -0.2015,0 -0.403,0 -0.496,0.09295 -0.496,0.201475 -0.6975,0.604525 -0.6975,1.193475 0,0.294525 0.1085,0.697575 0.2945,1.193575 3.968,9.222425 5.5645,14.47695 5.5645,21.622425 0,8.230525 -2.883,12.508525 -4.6655,15.577575 -6.448,11.00495 -16.864,16.368 -21.0335,17.762955 -0.6975,0.20147 -0.7905,0.79052 -0.7905,1.08504 v 22.42848"
     id="path2531"
     style="stroke-width:0.992" />
  <path
     class="Note"
     d="m 1285.782,41.153255 c 0,4.262495 3.069,9.02102 11.1135,9.02102 10.3075,0 21.1265,-8.43202 21.1265,-17.158525 0,-5.859 -4.96,-9.129475 -11.1135,-9.129475 -9.6255,0 -21.1265,8.137475 -21.1265,17.26698"
     id="path2533"
     style="stroke-width:0.992" />
  <path
     class="Note"
     d="m 1423.642,41.153255 c 0,4.262495 3.069,9.02102 11.1135,9.02102 10.3075,0 21.1265,-8.43202 21.1265,-17.158525 0,-5.859 -4.96,-9.129475 -11.1135,-9.129475 -9.6255,0 -21.1265,8.137475 -21.1265,17.26698"
     id="path2535"
     style="stroke-width:0.992" />
  <path
     class="Note"
     d="m 2781.932,41.153255 c 0,4.262495 3.069,9.02102 11.1135,9.02102 10.3075,0 21.1265,-8.43202 21.1265,-17.158525 0,-5.859 -4.96,-9.129475 -11.1135,-9.129475 -9.6255,0 -21.1265,8.137475 -21.1265,17.26698"
     id="path2537"
     style="stroke-width:0.992" />
  <path
     class="Note"
     d="m 1553.442,28.753255 c 0,4.262495 3.069,9.02102 11.1135,9.02102 10.3075,0 21.1265,-8.43202 21.1265,-17.158525 0,-5.859 -4.96,-9.129475 -11.1135,-9.129475 -9.6255,0 -21.1265,8.137475 -21.1265,17.26698"
     id="path2539"
     style="stroke-width:0.992" />
  <path
     class="Note"
     d="m 2033.942,90.753255 c 0,4.262495 3.069,9.02102 11.1135,9.02102 10.3075,0 21.1265,-8.43202 21.1265,-17.158525 0,-5.859 -4.96,-9.129475 -11.1135,-9.129475 -9.6255,0 -21.1265,8.137475 -21.1265,17.26698"
     id="path2541"
     style="stroke-width:0.992" />
  <path
     class="Note"
     d="m 2884.332,90.753255 c 0,4.262495 3.069,9.02102 11.1135,9.02102 10.3075,0 21.1265,-8.43202 21.1265,-17.158525 0,-5.859 -4.96,-9.129475 -11.1135,-9.129475 -9.6255,0 -21.1265,8.137475 -21.1265,17.26698"
     id="path2543"
     style="stroke-width:0.992" />
  <path
     class="Note"
     d="m 873.712,41.153255 c 0,4.262495 3.069,9.02102 11.11348,9.02102 10.30757,0 21.12652,-8.43202 21.12652,-17.158525 0,-5.859 -4.96,-9.129475 -11.11348,-9.129475 -9.62547,0 -21.12652,8.137475 -21.12652,17.26698"
     id="path2545"
     style="stroke-width:0.992" />
  <path
     class="Note"
     d="m 2274.192,41.153255 c 0,4.262495 3.069,9.02102 11.1135,9.02102 10.3075,0 21.1265,-8.43202 21.1265,-17.158525 0,-5.859 -4.96,-9.129475 -11.1135,-9.129475 -9.6255,0 -21.1265,8.137475 -21.1265,17.26698"
     id="path2547"
     style="stroke-width:0.992" />
  <path
     class="Note"
     d="m 2403.992,28.753255 c 0,4.262495 3.069,9.02102 11.1135,9.02102 10.3075,0 21.1265,-8.43202 21.1265,-17.158525 0,-5.859 -4.96,-9.129475 -11.1135,-9.129475 -9.6255,0 -21.1265,8.137475 -21.1265,17.26698"
     id="path2549"
     style="stroke-width:0.992" />
  <path
     class="Note"
     d="m 193.983,41.153255 c 0,4.262495 3.069,9.02102 11.11348,9.02102 10.30757,0 21.12652,-8.43202 21.12652,-17.158525 0,-5.859 -4.96,-9.129475 -11.11348,-9.129475 -9.62547,0 -21.12652,8.137475 -21.12652,17.26698"
     id="path2551"
     style="stroke-width:0.992" />
  <path
     class="Note"
     d="m 2989.222,90.753255 c 0,4.262495 3.069,9.02102 11.1135,9.02102 10.3075,0 21.1265,-8.43202 21.1265,-17.158525 0,-5.859 -4.96,-9.129475 -11.1135,-9.129475 -9.6255,0 -21.1265,8.137475 -21.1265,17.26698"
     id="path2553"
     style="stroke-width:0.992" />
  <path
     class="Note"
     d="m 296.377,90.753255 c 0,4.262495 3.069,9.02102 11.11348,9.02102 10.30757,0 21.12652,-8.43202 21.12652,-17.158525 0,-5.859 -4.96,-9.129475 -11.11348,-9.129475 -9.62547,0 -21.12652,8.137475 -21.12652,17.26698"
     id="path2555"
     style="stroke-width:0.992" />
  <path
     class="Note"
     d="m 398.77,41.153255 c 0,4.262495 3.069,9.02102 11.11348,9.02102 10.30757,0 21.12652,-8.43202 21.12652,-17.158525 0,-5.859 -4.96,-9.129475 -11.11348,-9.129475 -9.62547,0 -21.12652,8.137475 -21.12652,17.26698"
     id="path2557"
     style="stroke-width:0.992" />
  <path
     class="Note"
     d="m 3057.482,41.153255 c 0,4.262495 3.069,9.02102 11.1135,9.02102 10.3075,0 21.1265,-8.43202 21.1265,-17.158525 0,-5.859 -4.96,-9.129475 -11.1135,-9.129475 -9.6255,0 -21.1265,8.137475 -21.1265,17.26698"
     id="path2559"
     style="stroke-width:0.992" />
  <path
     class="Note"
     d="m 2506.392,41.153255 c 0,4.262495 3.069,9.02102 11.1135,9.02102 10.3075,0 21.1265,-8.43202 21.1265,-17.158525 0,-5.859 -4.96,-9.129475 -11.1135,-9.129475 -9.6255,0 -21.1265,8.137475 -21.1265,17.26698"
     id="path2561"
     style="stroke-width:0.992" />
  <path
     class="Note"
     d="m 2136.342,41.153255 c 0,4.262495 3.069,9.02102 11.1135,9.02102 10.3075,0 21.1265,-8.43202 21.1265,-17.158525 0,-5.859 -4.96,-9.129475 -11.1135,-9.129475 -9.6255,0 -21.1265,8.137475 -21.1265,17.26698"
     id="path2563"
     style="stroke-width:0.992" />
  <path
     class="Note"
     d="m 3159.872,41.153255 c 0,4.262495 3.069,9.02102 11.1135,9.02102 10.3075,0 21.1265,-8.43202 21.1265,-17.158525 0,-5.859 -4.96,-9.129475 -11.1135,-9.129475 -9.6255,0 -21.1265,8.137475 -21.1265,17.26698"
     id="path2565"
     style="stroke-width:0.992" />
  <path
     class="Note"
     d="m 1931.552,41.153255 c 0,4.262495 3.069,9.02102 11.1135,9.02102 10.3075,0 21.1265,-8.43202 21.1265,-17.158525 0,-5.859 -4.96,-9.129475 -11.1135,-9.129475 -9.6255,0 -21.1265,8.137475 -21.1265,17.26698"
     id="path2567"
     style="stroke-width:0.992" />
  <path
     class="Note"
     d="m 536.628,41.153255 c 0,4.262495 3.069,9.02102 11.11348,9.02102 10.30757,0 21.12652,-8.43202 21.12652,-17.158525 0,-5.859 -4.96,-9.129475 -11.11348,-9.129475 -9.62547,0 -21.12652,8.137475 -21.12652,17.26698"
     id="path2569"
     style="stroke-width:0.992" />
  <path
     class="Note"
     d="m 666.432,28.753255 c 0,4.262495 3.069,9.02102 11.11348,9.02102 10.30757,0 21.12652,-8.43202 21.12652,-17.158525 0,-5.859 -4.96,-9.129475 -11.11348,-9.129475 -9.62547,0 -21.12652,8.137475 -21.12652,17.26698"
     id="path2571"
     style="stroke-width:0.992" />
  <path
     class="Note"
     d="m 768.822,41.153255 c 0,4.262495 3.069,9.02102 11.11348,9.02102 10.30757,0 21.12652,-8.43202 21.12652,-17.158525 0,-5.859 -4.96,-9.129475 -11.11348,-9.129475 -9.62547,0 -21.12652,8.137475 -21.12652,17.26698"
     id="path2573"
     style="stroke-width:0.992" />
  <path
     class="Note"
     d="m 3325.142,28.753255 c 0,4.262495 3.069,9.02102 11.1135,9.02102 10.3075,0 21.1265,-8.43202 21.1265,-17.158525 0,-5.859 -4.96,-9.129475 -11.1135,-9.129475 -9.6255,0 -21.1265,8.137475 -21.1265,17.26698"
     id="path2575"
     style="stroke-width:0.992" />
  <path
     class="Note"
     d="m 2611.282,41.153255 c 0,4.262495 3.069,9.02102 11.1135,9.02102 10.3075,0 21.1265,-8.43202 21.1265,-17.158525 0,-5.859 -4.96,-9.129475 -11.1135,-9.129475 -9.6255,0 -21.1265,8.137475 -21.1265,17.26698"
     id="path2577"
     style="stroke-width:0.992" />
  <path
     class="Note"
     d="m 976.102,41.153255 c 0,4.262495 3.069,9.02102 11.11348,9.02102 10.30757,0 21.12652,-8.43202 21.12652,-17.158525 0,-5.859 -4.96,-9.129475 -11.11348,-9.129475 -9.62547,0 -21.12652,8.137475 -21.12652,17.26698"
     id="path2579"
     style="stroke-width:0.992" />
  <path
     class="Note"
     d="m 3427.532,41.153255 c 0,4.262495 3.069,9.02102 11.1135,9.02102 10.3075,0 21.1265,-8.43202 21.1265,-17.158525 0,-5.859 -4.96,-9.129475 -11.1135,-9.129475 -9.6255,0 -21.1265,8.137475 -21.1265,17.26698"
     id="path2581"
     style="stroke-width:0.992" />
  <path
     class="Note"
     d="m 1080.992,41.153255 c 0,4.262495 3.069,9.02102 11.1135,9.02102 10.3075,0 21.1265,-8.43202 21.1265,-17.158525 0,-5.859 -4.96,-9.129475 -11.1135,-9.129475 -9.6255,0 -21.1265,8.137475 -21.1265,17.26698"
     id="path2583"
     style="stroke-width:0.992" />
  <path
     class="Note"
     d="m 3529.922,53.553255 c 0,4.262495 3.069,9.02102 11.1135,9.02102 10.3075,0 21.1265,-8.43202 21.1265,-17.158525 0,-5.859 -4.96,-9.129475 -11.1135,-9.129475 -9.6255,0 -21.1265,8.137475 -21.1265,17.26698"
     id="path2585"
     style="stroke-width:0.992" />
  <path
     class="Note"
     d="m 1183.392,90.753255 c 0,4.262495 3.069,9.02102 11.1135,9.02102 10.3075,0 21.1265,-8.43202 21.1265,-17.158525 0,-5.859 -4.96,-9.129475 -11.1135,-9.129475 -9.6255,0 -21.1265,8.137475 -21.1265,17.26698"
     id="path2587"
     style="stroke-width:0.992" />
  <path
     class="Note"
     d="m 1793.692,53.553255 c 0,4.262495 3.069,9.02102 11.1135,9.02102 10.3075,0 21.1265,-8.43202 21.1265,-17.158525 0,-5.859 -4.96,-9.129475 -11.1135,-9.129475 -9.6255,0 -21.1265,8.137475 -21.1265,17.26698"
     id="path2589"
     style="stroke-width:0.992" />
  <path
     class="Note"
     d="m 2713.672,41.153255 c 0,4.262495 3.069,9.02102 11.1135,9.02102 10.3075,0 21.1265,-8.43202 21.1265,-17.158525 0,-5.859 -4.96,-9.129475 -11.1135,-9.129475 -9.6255,0 -21.1265,8.137475 -21.1265,17.26698"
     id="path2591"
     style="stroke-width:0.992" />
  <path
     class="Note"
     d="m 1691.302,41.153255 c 0,4.262495 3.069,9.02102 11.1135,9.02102 10.3075,0 21.1265,-8.43202 21.1265,-17.158525 0,-5.859 -4.96,-9.129475 -11.1135,-9.129475 -9.6255,0 -21.1265,8.137475 -21.1265,17.26698"
     id="path2593"
     style="stroke-width:0.992" />
  <path
     class="Clef"
     d="m 30.798525,187.07027 c 0,6.55653 4.96,15.19 18.352,15.19 4.665475,0 8.742,-1.19347 12.30695,-3.37904 C 66.820525,195.1148 68.2,188.55827 68.2,182.31175 c 0,-3.85948 -0.58895,-8.32348 -1.58095,-13.98095 -0.294525,-1.984 -0.89905,-4.96 -1.488,-8.83505 9.718425,-3.17748 16.95695,-13.29895 16.95695,-23.5135 0,-14.97302 -10.617475,-25.0945 -25.094525,-25.0945 -0.992,-5.952 -1.984,-11.81105 -2.774425,-17.36 10.416,-11.020525 17.654425,-23.420525 17.654425,-39.184 0,-9.036525 -2.774425,-16.368 -4.37095,-19.948128 -2.371475,-5.053248 -5.254525,-8.525248 -7.03705,-8.525248 -0.697475,0 -3.766425,1.193376 -7.03695,5.053248 -6.35505,7.548128 -8.137475,20.242653 -8.137475,28.566128 0,5.36295 0.496,10.23 2.185475,21.343475 -0.108525,0.09305 -5.27,5.347475 -7.34705,7.03705 C 31.09305,96.209225 18.6,108.29923 18.6,128.15475 c 0,18.53805 16.166525,33.12352 34.62705,33.12352 2.867475,0 5.54895,-0.29452 7.827475,-0.69747 1.89095,9.53243 3.084525,16.47643 3.084525,21.73095 0,10.32305 -5.36305,15.77905 -15.376,15.77905 -2.38705,0 -4.464,-0.496 -4.665575,-0.496 -0.09295,-0.10853 -0.294425,-0.20157 -0.294425,-0.29453 0,-0.20147 0.201475,-0.31 0.496,-0.31 4.665475,-0.79052 9.315475,-4.75852 9.315475,-11.098 0,-5.36304 -4.06105,-11.02052 -11.50105,-11.02052 -6.944,0 -11.31495,5.65748 -11.31495,12.19852 M 51.537475,54.638275 c 0.89905,-3.968 5.456,-14.384 10.617575,-14.384 1.488,0 3.859475,4.758425 3.859475,11.702425 0,10.32305 -7.626,18.057575 -14.47705,24.8 -0.58895,-3.968 -1.08495,-7.827475 -1.08495,-11.99695 0,-3.673475 0.294525,-7.052525 1.08495,-10.121475 M 60.264,156.6128 c -1.984,0.40295 -3.859475,0.60443 -5.750525,0.60443 -14.182425,0 -26.28797,-9.92 -26.28797,-24.90848 0,-12.09005 8.52502,-22.909 17.26702,-30.45752 1.674,-1.488 3.270525,-2.86748 4.758525,-4.35548 0.883475,5.34748 1.58095,10.01295 2.278425,14.08948 -9.036425,2.68147 -15.174425,12.19852 -15.174425,21.52952 0,6.944 5.456,16.461 13.392,16.461 0.790425,0 1.689475,-0.40295 1.689475,-1.28652 0,-0.89896 -0.992,-1.39496 -2.185475,-2.18548 -3.87505,-2.387 -6.060525,-4.96 -6.060525,-9.827 0,-6.045 4.572525,-10.91205 10.32295,-12.29152 L 60.264,156.6128 m 14.089475,-18.35205 c 0,7.0525 -2.88295,14.291 -9.92,17.17405 -2.07695,-11.90405 -4.758425,-27.68305 -5.456,-32.0541 8.928,0 15.376,6.06055 15.376,14.88005"
     id="path2595"
     style="stroke-width:0.992" />
  <path
     class="TimeSig"
     d="m 130.20048,82.321245 c -6.06043,0 -8.23043,1.782505 -9.62548,3.270505 -0.29452,-2.077 -0.496,-3.673505 -0.496,-5.254505 0,-5.657495 1.984,-13.004545 8.928,-13.004545 2.48,0 3.968,0.806 4.96,1.89105 -2.07695,0.89895 -3.76652,3.56495 -3.76652,5.85895 0,3.56505 2.77452,6.339545 6.35504,6.339545 3.56496,0 6.448,-2.774495 6.448,-6.339545 v -0.31 c 0,-0.883475 -0.20147,-2.371475 -0.60452,-3.162 -1.28652,-3.580425 -5.456,-8.83495 -15.376,-8.83495 -8.928,0 -15.376,8.52495 -17.36,13.097475 -0.992,2.371525 -2.48,7.238525 -2.48,12.787525 0,6.060505 1.6895,12.89605 7.533,18.05752 5.76605,4.37096 9.42405,4.57253 12.89605,4.57253 3.48747,0 16.47643,-4.07653 16.47643,-15.577545 0,-9.718505 -7.64148,-13.39201 -13.888,-13.39201 M 126.527,107.12123 c -3.27052,0 -5.952,-4.464 -5.952,-10.02843 0,-5.54905 2.68148,-10.10605 5.952,-10.10605 3.27052,0 6.06052,4.557 6.06052,10.10605 0,5.56443 -2.79,10.02843 -6.06052,10.02843"
     id="path2597"
     style="stroke-width:0.992" />
  <path
     class="TimeSig"
     d="m 137.54705,134.15325 c 3.27043,-2.48 5.54895,-5.6575 5.54895,-9.6255 0,-7.14548 -7.82748,-12.98905 -17.45295,-12.98905 -9.62557,0 -17.46855,5.84357 -17.46855,12.98905 0,3.968 0.992,7.533 5.6575,10.509 -4.464,2.5885 -6.944,6.262 -6.944,11.02048 0,8.02904 8.432,14.47704 18.75505,14.47704 10.30747,0 18.73947,-6.448 18.73947,-14.47704 0,-4.75848 -1.674,-9.22248 -6.83547,-11.90398 m -5.56453,-2.6815 c -6.74252,-2.1855 -14.18252,-5.456 -14.18252,-9.92 0,-3.87505 3.56505,-5.456 7.84305,-5.456 6.15347,0 10.30747,2.88295 10.30747,7.44 0,4.7585 -2.17,7.037 -3.968,7.936 m -6.33947,23.51348 c -6.35505,0 -11.81105,-3.472 -11.81105,-9.03643 0,-6.63405 5.16148,-8.23055 5.16148,-8.23055 6.74252,2.2785 16.368,5.6575 16.368,11.1135 0,2.68148 -3.37896,6.15348 -9.71843,6.15348"
     id="path2599"
     style="stroke-width:0.992" />
  <path
     class="NoteDot"
     d="m 3204.502,24.58375 c 0,2.774505 2.1855,4.96 4.96,4.96 2.7745,0 4.96,-2.185495 4.96,-4.96 0,-2.774505 -2.1855,-4.96 -4.96,-4.96 -2.7745,0 -4.96,2.185495 -4.96,4.96"
     id="path2601"
     style="stroke-width:0.992" />
  <path
     class="NoteDot"
     d="m 1468.262,24.58375 c 0,2.774505 2.1855,4.96 4.96,4.96 2.7745,0 4.96,-2.185495 4.96,-4.96 0,-2.774505 -2.1855,-4.96 -4.96,-4.96 -2.7745,0 -4.96,2.185495 -4.96,4.96"
     id="path2603"
     style="stroke-width:0.992" />
  <path
     class="NoteDot"
     d="m 2318.822,24.58375 c 0,2.774505 2.1855,4.96 4.96,4.96 2.7745,0 4.96,-2.185495 4.96,-4.96 0,-2.774505 -2.1855,-4.96 -4.96,-4.96 -2.7745,0 -4.96,2.185495 -4.96,4.96"
     id="path2605"
     style="stroke-width:0.992" />
  <path
     class="NoteDot"
     d="m 581.253,24.58375 c 0,2.774505 2.1855,4.96 4.96,4.96 2.7745,0 4.96,-2.185495 4.96,-4.96 0,-2.774505 -2.1855,-4.96 -4.96,-4.96 -2.7745,0 -4.96,2.185495 -4.96,4.96"
     id="path2607"
     style="stroke-width:0.992" />
</svg>
