<?xml version="1.0" encoding="UTF-8" standalone="no"?>
<svg
   xmlns:dc="http://purl.org/dc/elements/1.1/"
   xmlns:cc="http://creativecommons.org/ns#"
   xmlns:rdf="http://www.w3.org/1999/02/22-rdf-syntax-ns#"
   xmlns:svg="http://www.w3.org/2000/svg"
   xmlns="http://www.w3.org/2000/svg"
   xmlns:sodipodi="http://sodipodi.sourceforge.net/DTD/sodipodi-0.dtd"
   xmlns:inkscape="http://www.inkscape.org/namespaces/inkscape"
   width="266.95413mm"
   height="43.986702mm"
   viewBox="0 0 3783.6019 623.43358"
   version="1.2"
   id="svg5542"
   sodipodi:docname="Dossium Canto Beschuldigfraude Musica.svg"
   inkscape:version="1.0.2-2 (e86c870879, 2021-01-15)"
   inkscape:export-filename="C:\Users\slagt\Music\Dossia\Dossium Canto Beschuldigfraude\Dossium Canto Beschuldigfraude Musica.png"
   inkscape:export-xdpi="176"
   inkscape:export-ydpi="176">
  <metadata
     id="metadata5548">
    <rdf:RDF>
      <cc:Work
         rdf:about="">
        <dc:format>image/svg+xml</dc:format>
        <dc:type
           rdf:resource="http://purl.org/dc/dcmitype/StillImage" />
      </cc:Work>
    </rdf:RDF>
  </metadata>
  <defs
     id="defs5546" />
  <sodipodi:namedview
     pagecolor="#ffffff"
     bordercolor="#666666"
     borderopacity="1"
     objecttolerance="10"
     gridtolerance="10"
     guidetolerance="10"
     inkscape:pageopacity="0"
     inkscape:pageshadow="2"
     inkscape:window-width="1920"
     inkscape:window-height="991"
     id="namedview5544"
     showgrid="false"
     inkscape:zoom="1.0328497"
     inkscape:cx="504.42719"
     inkscape:cy="236.5112"
     inkscape:window-x="-9"
     inkscape:window-y="-9"
     inkscape:window-maximized="1"
     inkscape:current-layer="svg5542" />
  <title
     id="title5162">Dossium Canto Beschuldigfraude Musica</title>
  <desc
     id="desc5164">Generated by MuseScore Studio 4.5.1</desc>
  <polyline
     class="StaffLines"
     fill="none"
     stroke="#000000"
     stroke-width="2.73"
     stroke-linejoin="bevel"
     points="336.599,707.111 3996.2,707.111"
     id="polyline5168"
     transform="translate(-212.598,-601.683)" />
  <polyline
     class="StaffLines"
     fill="none"
     stroke="#000000"
     stroke-width="2.73"
     stroke-linejoin="bevel"
     points="336.599,731.911 3996.2,731.911"
     id="polyline5170"
     transform="translate(-212.598,-601.683)" />
  <polyline
     class="StaffLines"
     fill="none"
     stroke="#000000"
     stroke-width="2.73"
     stroke-linejoin="bevel"
     points="336.599,756.711 3996.2,756.711"
     id="polyline5172"
     transform="translate(-212.598,-601.683)" />
  <polyline
     class="StaffLines"
     fill="none"
     stroke="#000000"
     stroke-width="2.73"
     stroke-linejoin="bevel"
     points="336.599,781.511 3996.2,781.511"
     id="polyline5174"
     transform="translate(-212.598,-601.683)" />
  <polyline
     class="StaffLines"
     fill="none"
     stroke="#000000"
     stroke-width="2.73"
     stroke-linejoin="bevel"
     points="336.599,806.311 3996.2,806.311"
     id="polyline5176"
     transform="translate(-212.598,-601.683)" />
  <polyline
     class="StaffLines"
     fill="none"
     stroke="#000000"
     stroke-width="2.73"
     stroke-linejoin="bevel"
     points="212.598,1084.64 3996.2,1084.64"
     id="polyline5178"
     transform="translate(-212.598,-601.683)" />
  <polyline
     class="StaffLines"
     fill="none"
     stroke="#000000"
     stroke-width="2.73"
     stroke-linejoin="bevel"
     points="212.598,1109.44 3996.2,1109.44"
     id="polyline5180"
     transform="translate(-212.598,-601.683)" />
  <polyline
     class="StaffLines"
     fill="none"
     stroke="#000000"
     stroke-width="2.73"
     stroke-linejoin="bevel"
     points="212.598,1134.24 3996.2,1134.24"
     id="polyline5182"
     transform="translate(-212.598,-601.683)" />
  <polyline
     class="StaffLines"
     fill="none"
     stroke="#000000"
     stroke-width="2.73"
     stroke-linejoin="bevel"
     points="212.598,1159.04 3996.2,1159.04"
     id="polyline5184"
     transform="translate(-212.598,-601.683)" />
  <polyline
     class="StaffLines"
     fill="none"
     stroke="#000000"
     stroke-width="2.73"
     stroke-linejoin="bevel"
     points="212.598,1183.84 3996.2,1183.84"
     id="polyline5186"
     transform="translate(-212.598,-601.683)" />
  <path
     class="MeasureNumber"
     d="m 17.36,405.047 h -1.157 c -2.203,1.64 -6.437,3.03 -9.328,3.03 l -0.468,1.77 h 2.75 c 2.437,0 2.718,0.08 2.718,0.8 0,0.36 0,0.36 -0.39,1.79 l -4.282,16 c -0.531,2 -0.562,2.13 -0.921,2.49 -0.407,0.39 -1.25,0.51 -3.36,0.56 H 1.203 L 1,433.357 h 14.797 l 0.235,-1.87 h -2.157 c -2.593,0 -3.156,-0.2 -3.156,-1.08 0,-0.28 0.156,-1.2 0.359,-1.97 l 6.282,-23.39 m 22,0 h -1.157 c -2.203,1.64 -6.437,3.03 -9.328,3.03 l -0.468,1.77 h 2.75 c 2.437,0 2.718,0.08 2.718,0.8 0,0.36 0,0.36 -0.39,1.79 l -4.282,16 c -0.531,2 -0.562,2.13 -0.921,2.49 -0.407,0.39 -1.25,0.51 -3.36,0.56 H 23.203 L 23,433.357 h 14.797 l 0.235,-1.87 h -2.157 c -2.593,0 -3.156,-0.2 -3.156,-1.08 0,-0.28 0.156,-1.2 0.359,-1.97 l 6.282,-23.39"
     id="path5196" />
  <path
     class="TieSegment"
     stroke="#000000"
     stroke-width="1.24"
     stroke-linecap="round"
     stroke-linejoin="round"
     fill-rule="evenodd"
     d="m 2636.712,185.625 c 26.33,11.992 105.32,11.992 131.65,0 -26.33,19.928 -105.32,19.928 -131.65,0"
     id="path5198" />
  <path
     class="TieSegment"
     stroke="#000000"
     stroke-width="1.24"
     stroke-linecap="round"
     stroke-linejoin="round"
     fill-rule="evenodd"
     d="m 2297.812,185.524 c 26.33,12.093 105.32,12.093 131.65,0 -26.33,20.029 -105.32,20.029 -131.65,0"
     id="path5200" />
  <path
     class="TieSegment"
     stroke="#000000"
     stroke-width="1.24"
     stroke-linecap="round"
     stroke-linejoin="round"
     fill-rule="evenodd"
     d="m 1961.742,124.532 c 26.33,-20.03 105.32,-20.03 131.65,0 -26.33,-12.094 -105.32,-12.094 -131.65,0"
     id="path5202" />
  <path
     class="TieSegment"
     stroke="#000000"
     stroke-width="1.24"
     stroke-linecap="round"
     stroke-linejoin="round"
     fill-rule="evenodd"
     d="m 1283.952,112.132 c 26.33,-26.851 105.31,-26.851 131.64,0 -26.33,-18.915 -105.31,-18.915 -131.64,0"
     id="path5204" />
  <path
     class="TieSegment"
     stroke="#000000"
     stroke-width="1.24"
     stroke-linecap="round"
     stroke-linejoin="round"
     fill-rule="evenodd"
     d="m 353.124,563.157 c 25.235,11.92 100.94,11.92 126.176,0 -25.236,19.86 -100.941,19.86 -126.176,0"
     id="path5206" />
  <path
     class="TieSegment"
     stroke="#000000"
     stroke-width="1.24"
     stroke-linecap="round"
     stroke-linejoin="round"
     fill-rule="evenodd"
     d="m 606.154,124.532 c 26.33,-20.03 105.319,-20.03 131.649,0 -26.33,-12.094 -105.319,-12.094 -131.649,0"
     id="path5208" />
  <polyline
     class="BarLine"
     fill="none"
     stroke="#000000"
     stroke-width="4.46"
     stroke-linejoin="bevel"
     points="2257.18,705.747 2257.18,807.675"
     id="polyline5210"
     transform="translate(-212.598,-601.683)" />
  <polyline
     class="BarLine"
     fill="none"
     stroke="#000000"
     stroke-width="13.64"
     stroke-linejoin="bevel"
     points="977.371,1083.28 977.371,1185.21"
     id="polyline5212"
     transform="translate(-212.598,-601.683)" />
  <polyline
     class="BarLine"
     fill="none"
     stroke="#000000"
     stroke-width="4.46"
     stroke-linejoin="bevel"
     points="995.599,1083.28 995.599,1185.21"
     id="polyline5214"
     transform="translate(-212.598,-601.683)" />
  <path
     class="BarLine"
     d="m 804.73506,520.157 c 0,-2.883 -2.29405,-5.25451 -5.16155,-5.25451 -2.883,0 -5.16151,2.37151 -5.16151,5.25451 0,2.883 2.27851,5.25451 5.16151,5.25451 2.8675,0 5.16155,-2.37151 5.16155,-5.25451"
     id="path5216"
     style="stroke-width:0.992001" />
  <path
     class="BarLine"
     d="m 804.73506,544.957 c 0,-2.883 -2.29405,-5.25451 -5.16155,-5.25451 -2.883,0 -5.16151,2.37151 -5.16151,5.25451 0,2.883 2.27851,5.25451 5.16151,5.25451 2.8675,0 5.16155,-2.37151 5.16155,-5.25451"
     id="path5218"
     style="stroke-width:0.992001" />
  <polyline
     class="BarLine"
     fill="none"
     stroke="#000000"
     stroke-width="4.46"
     stroke-linejoin="bevel"
     points="2934.98,705.747 2934.98,807.675"
     id="polyline5220"
     transform="translate(-212.598,-601.683)" />
  <polyline
     class="BarLine"
     fill="none"
     stroke="#000000"
     stroke-width="4.46"
     stroke-linejoin="bevel"
     points="1337.56,1083.28 1337.56,1185.21"
     id="polyline5222"
     transform="translate(-212.598,-601.683)" />
  <polyline
     class="BarLine"
     fill="none"
     stroke="#000000"
     stroke-width="4.46"
     stroke-linejoin="bevel"
     points="1579.39,705.747 1579.39,807.675"
     id="polyline5224"
     transform="translate(-212.598,-601.683)" />
  <polyline
     class="BarLine"
     fill="none"
     stroke="#000000"
     stroke-width="13.64"
     stroke-linejoin="bevel"
     points="524.986,705.747 524.986,807.675"
     id="polyline5226"
     transform="translate(-212.598,-601.683)" />
  <polyline
     class="BarLine"
     fill="none"
     stroke="#000000"
     stroke-width="4.46"
     stroke-linejoin="bevel"
     points="543.214,705.747 543.214,807.675"
     id="polyline5228"
     transform="translate(-212.598,-601.683)" />
  <path
     class="BarLine"
     d="m 352.34706,142.628 c 0,-2.883 -2.29405,-5.25451 -5.16155,-5.25451 -2.883,0 -5.16151,2.37151 -5.16151,5.25451 0,2.883 2.27851,5.25451 5.16151,5.25451 2.8675,0 5.16155,-2.37151 5.16155,-5.25451"
     id="path5230"
     style="stroke-width:0.992001" />
  <path
     class="BarLine"
     d="m 352.34706,167.428 c 0,-2.883 -2.29405,-5.25451 -5.16155,-5.25451 -2.883,0 -5.16151,2.37151 -5.16151,5.25451 0,2.883 2.27851,5.25451 5.16151,5.25451 2.8675,0 5.16155,-2.37151 5.16155,-5.25451"
     id="path5232"
     style="stroke-width:0.992001" />
  <polyline
     class="BarLine"
     fill="none"
     stroke="#000000"
     stroke-width="4.46"
     stroke-linejoin="bevel"
     points="1660.04,1083.28 1660.04,1185.21"
     id="polyline5234"
     transform="translate(-212.598,-601.683)" />
  <polyline
     class="BarLine"
     fill="none"
     stroke="#000000"
     stroke-width="4.46"
     stroke-linejoin="bevel"
     points="1982.52,1083.28 1982.52,1185.21"
     id="polyline5236"
     transform="translate(-212.598,-601.683)" />
  <polyline
     class="BarLine"
     fill="none"
     stroke="#000000"
     stroke-width="4.46"
     stroke-linejoin="bevel"
     points="2305,1083.28 2305,1185.21"
     id="polyline5238"
     transform="translate(-212.598,-601.683)" />
  <path
     class="BarLine"
     d="m 3069.3651,142.628 c 0,-2.883 -2.2941,-5.25451 -5.1616,-5.25451 -2.883,0 -5.1615,2.37151 -5.1615,5.25451 0,2.883 2.2785,5.25451 5.1615,5.25451 2.8675,0 5.1616,-2.37151 5.1616,-5.25451"
     id="path5240"
     style="stroke-width:0.992001" />
  <path
     class="BarLine"
     d="m 3069.3651,167.428 c 0,-2.883 -2.2941,-5.25451 -5.1616,-5.25451 -2.883,0 -5.1615,2.37151 -5.1615,5.25451 0,2.883 2.2785,5.25451 5.1615,5.25451 2.8675,0 5.1616,-2.37151 5.1616,-5.25451"
     id="path5242"
     style="stroke-width:0.992001" />
  <polyline
     class="BarLine"
     fill="none"
     stroke="#000000"
     stroke-width="4.46"
     stroke-linejoin="bevel"
     points="3293.36,705.747 3293.36,807.675"
     id="polyline5244"
     transform="translate(-212.598,-601.683)" />
  <polyline
     class="BarLine"
     fill="none"
     stroke="#000000"
     stroke-width="13.64"
     stroke-linejoin="bevel"
     points="3311.58,705.747 3311.58,807.675"
     id="polyline5246"
     transform="translate(-212.598,-601.683)" />
  <polyline
     class="BarLine"
     fill="none"
     stroke="#000000"
     stroke-width="4.46"
     stroke-linejoin="bevel"
     points="2638.93,1083.28 2638.93,1185.21"
     id="polyline5248"
     transform="translate(-212.598,-601.683)" />
  <polyline
     class="BarLine"
     fill="none"
     stroke="#000000"
     stroke-width="4.46"
     stroke-linejoin="bevel"
     points="1918.29,705.747 1918.29,807.675"
     id="polyline5250"
     transform="translate(-212.598,-601.683)" />
  <polyline
     class="BarLine"
     fill="none"
     stroke="#000000"
     stroke-width="4.46"
     stroke-linejoin="bevel"
     points="2596.08,705.747 2596.08,807.675"
     id="polyline5252"
     transform="translate(-212.598,-601.683)" />
  <polyline
     class="BarLine"
     fill="none"
     stroke="#000000"
     stroke-width="4.46"
     stroke-linejoin="bevel"
     points="901.594,705.747 901.594,807.675"
     id="polyline5254"
     transform="translate(-212.598,-601.683)" />
  <polyline
     class="BarLine"
     fill="none"
     stroke="#000000"
     stroke-width="4.46"
     stroke-linejoin="bevel"
     points="3283.89,1083.28 3283.89,1185.21"
     id="polyline5256"
     transform="translate(-212.598,-601.683)" />
  <path
     class="BarLine"
     d="m 3401.8651,520.157 c 0,-2.883 -2.2941,-5.25451 -5.1616,-5.25451 -2.883,0 -5.1615,2.37151 -5.1615,5.25451 0,2.883 2.2785,5.25451 5.1615,5.25451 2.8675,0 5.1616,-2.37151 5.1616,-5.25451"
     id="path5258"
     style="stroke-width:0.992001" />
  <path
     class="BarLine"
     d="m 3401.8651,544.957 c 0,-2.883 -2.2941,-5.25451 -5.1616,-5.25451 -2.883,0 -5.1615,2.37151 -5.1615,5.25451 0,2.883 2.2785,5.25451 5.1615,5.25451 2.8675,0 5.1616,-2.37151 5.1616,-5.25451"
     id="path5260"
     style="stroke-width:0.992001" />
  <polyline
     class="BarLine"
     fill="none"
     stroke="#000000"
     stroke-width="4.46"
     stroke-linejoin="bevel"
     points="3625.85,1083.28 3625.85,1185.21"
     id="polyline5262"
     transform="translate(-212.598,-601.683)" />
  <polyline
     class="BarLine"
     fill="none"
     stroke="#000000"
     stroke-width="13.64"
     stroke-linejoin="bevel"
     points="3644.08,1083.28 3644.08,1185.21"
     id="polyline5264"
     transform="translate(-212.598,-601.683)" />
  <polyline
     class="BarLine"
     fill="none"
     stroke="#000000"
     stroke-width="4.46"
     stroke-linejoin="bevel"
     points="3971.15,1083.28 3971.15,1185.21"
     id="polyline5266"
     transform="translate(-212.598,-601.683)" />
  <polyline
     class="BarLine"
     fill="none"
     stroke="#000000"
     stroke-width="13.64"
     stroke-linejoin="bevel"
     points="3989.38,1083.28 3989.38,1185.21"
     id="polyline5268"
     transform="translate(-212.598,-601.683)" />
  <polyline
     class="BarLine"
     fill="none"
     stroke="#000000"
     stroke-width="4.46"
     stroke-linejoin="bevel"
     points="3655.07,705.747 3655.07,807.675"
     id="polyline5270"
     transform="translate(-212.598,-601.683)" />
  <polyline
     class="BarLine"
     fill="none"
     stroke="#000000"
     stroke-width="4.46"
     stroke-linejoin="bevel"
     points="2961.41,1083.28 2961.41,1185.21"
     id="polyline5272"
     transform="translate(-212.598,-601.683)" />
  <polyline
     class="BarLine"
     fill="none"
     stroke="#000000"
     stroke-width="4.46"
     stroke-linejoin="bevel"
     points="1240.49,705.747 1240.49,807.675"
     id="polyline5274"
     transform="translate(-212.598,-601.683)" />
  <polyline
     class="BarLine"
     fill="none"
     stroke="#000000"
     stroke-width="4.46"
     stroke-linejoin="bevel"
     points="3993.97,705.747 3993.97,807.675"
     id="polyline5276"
     transform="translate(-212.598,-601.683)" />
  <polyline
     class="BarLine"
     fill="none"
     stroke="#000000"
     stroke-width="4.46"
     stroke-linejoin="bevel"
     points="645.918,1083.28 645.918,1185.21"
     id="polyline5278"
     transform="translate(-212.598,-601.683)" />
  <path
     class="Accidental"
     d="m 2612.3031,149.27746 c -0.186,-0.20148 -0.496,-0.29453 -0.7906,-0.29453 -0.093,0 -0.2945,0.093 -0.3874,0.093 l -12.5086,3.472 v -17.36001 h -2.7745 v 49.10405 c 0,0.79052 0.589,1.28652 1.395,1.28652 0.093,0 0.2945,0 0.3875,0 l 12.5086,-3.472 v 17.36002 h 2.666 c 0,-16.46107 0,-32.13156 0,-49.10405 0,-0.38758 -0.186,-0.88358 -0.496,-1.08505 m -13.6866,27.77605 v -16.27502 l 11.5166,-3.2705 v 16.36802 l -11.5166,3.1775"
     id="path5280"
     style="stroke-width:0.992001" />
  <path
     class="Accidental"
     d="m 1665.6151,549.51399 c -0.5891,-3.85953 -2.976,-7.53301 -8.0291,-7.53301 -4.96,0 -7.843,3.06896 -8.339,3.67348 l 0.403,-31.85255 c 0,-0.79043 -0.589,-1.37948 -1.395,-1.37948 h -1.178 c -0.806,0 -1.395,0.58905 -1.395,1.37948 l 0.496,59.62858 c 0,0.79053 0.589,1.37958 1.395,1.37958 0.186,0 0.589,-0.093 0.7905,-0.186 0.3875,-0.20158 6.8355,-3.37906 12.1985,-9.42406 3.7665,-4.27801 5.2545,-9.12952 5.2545,-13.20602 0,-0.8835 -0.093,-1.674 -0.2014,-2.48 m -6.8356,3.87501 c 0,1.488 -0.403,6.045 -2.883,9.82701 -1.6895,2.573 -5.053,5.25448 -6.944,6.74248 l 0.2945,-19.344 c 0.2015,-0.899 1.6895,-3.76655 5.6575,-3.76655 3.5806,0 3.875,3.36355 3.875,5.45605 0,0.49601 0,0.7905 0,1.08501"
     id="path5282"
     style="stroke-width:0.992001" />
  <path
     class="Accidental"
     d="m 2321.7331,526.80646 c -0.186,-0.20148 -0.496,-0.29453 -0.7906,-0.29453 -0.093,0 -0.2945,0.093 -0.3874,0.093 l -12.5086,3.47201 v -17.36002 h -2.7745 v 49.10405 c 0,0.79052 0.589,1.28652 1.395,1.28652 0.093,0 0.2945,0 0.3875,0 l 12.5086,-3.472 v 17.36002 h 2.666 c 0,-16.46107 0,-32.13156 0,-49.10405 0,-0.38758 -0.186,-0.88358 -0.496,-1.08505 m -13.6866,27.77605 v -16.27502 l 11.5166,-3.2705 v 16.36802 l -11.5166,3.1775"
     id="path5284"
     style="stroke-width:0.992001" />
  <path
     class="Accidental"
     d="m 2130.6851,537.11399 c -0.5891,-3.85953 -2.976,-7.53301 -8.0291,-7.53301 -4.96,0 -7.843,3.06896 -8.339,3.67348 l 0.403,-31.85255 c 0,-0.79043 -0.589,-1.37948 -1.395,-1.37948 h -1.178 c -0.806,0 -1.395,0.58905 -1.395,1.37948 l 0.496,59.62858 c 0,0.79053 0.589,1.37958 1.395,1.37958 0.186,0 0.589,-0.0931 0.7905,-0.186 0.3875,-0.20158 6.8355,-3.37906 12.1985,-9.42406 3.7665,-4.27801 5.2545,-9.12952 5.2545,-13.20602 0,-0.8835 -0.093,-1.674 -0.2014,-2.48 m -6.8356,3.87501 c 0,1.488 -0.403,6.045 -2.883,9.82701 -1.6895,2.573 -5.053,5.25448 -6.944,6.74248 l 0.2945,-19.344 c 0.2015,-0.899 1.6895,-3.76655 5.6575,-3.76655 3.5806,0 3.875,3.36355 3.875,5.45605 0,0.49601 0,0.7905 0,1.08501"
     id="path5286"
     style="stroke-width:0.992001" />
  <path
     class="Accidental"
     d="m 2273.7051,159.58499 c -0.5891,-3.85953 -2.976,-7.53301 -8.0291,-7.53301 -4.96,0 -7.843,3.06896 -8.339,3.67348 l 0.403,-31.85255 c 0,-0.79043 -0.589,-1.37948 -1.395,-1.37948 h -1.178 c -0.806,0 -1.395,0.58905 -1.395,1.37948 l 0.496,59.62858 c 0,0.79053 0.589,1.37958 1.395,1.37958 0.186,0 0.589,-0.0931 0.7905,-0.186 0.3875,-0.20158 6.8355,-3.37906 12.1985,-9.42406 3.7665,-4.27801 5.2545,-9.12952 5.2545,-13.20602 0,-0.8835 -0.093,-1.674 -0.2014,-2.48 m -6.8356,3.87501 c 0,1.488 -0.403,6.045 -2.883,9.82701 -1.6895,2.573 -5.053,5.25448 -6.944,6.74248 l 0.2945,-19.344 c 0.2015,-0.899 1.6895,-3.76655 5.6575,-3.76655 3.5806,0 3.875,3.36355 3.875,5.45605 0,0.49601 0,0.7905 0,1.08501"
     id="path5288"
     style="stroke-width:0.992001" />
  <path
     class="Accidental"
     d="m 1892.4251,537.11399 c -0.5891,-3.85953 -2.976,-7.53301 -8.0291,-7.53301 -4.96,0 -7.843,3.06896 -8.339,3.67348 l 0.403,-31.85255 c 0,-0.79043 -0.589,-1.37948 -1.395,-1.37948 h -1.178 c -0.806,0 -1.395,0.58905 -1.395,1.37948 l 0.496,59.62858 c 0,0.79053 0.589,1.37958 1.395,1.37958 0.186,0 0.589,-0.0931 0.7905,-0.186 0.3875,-0.20158 6.8355,-3.37906 12.1985,-9.42406 3.7665,-4.27801 5.2545,-9.12952 5.2545,-13.20602 0,-0.8835 -0.093,-1.674 -0.2014,-2.48 m -6.8356,3.87501 c 0,1.488 -0.403,6.045 -2.883,9.82701 -1.6895,2.573 -5.053,5.25448 -6.944,6.74248 l 0.2945,-19.344 c 0.2015,-0.899 1.6895,-3.76655 5.6575,-3.76655 3.5806,0 3.875,3.36355 3.875,5.45605 0,0.49601 0,0.7905 0,1.08501"
     id="path5290"
     style="stroke-width:0.992001" />
  <path
     class="Accidental"
     d="m 1343.1351,537.11399 c -0.5891,-3.85953 -2.976,-7.53301 -8.0291,-7.53301 -4.96,0 -7.843,3.06896 -8.339,3.67348 l 0.403,-31.85255 c 0,-0.79043 -0.589,-1.37948 -1.395,-1.37948 h -1.178 c -0.806,0 -1.395,0.58905 -1.395,1.37948 l 0.496,59.62858 c 0,0.79053 0.589,1.37958 1.395,1.37958 0.186,0 0.589,-0.0931 0.7905,-0.186 0.3875,-0.20158 6.8355,-3.37906 12.1985,-9.42406 3.7665,-4.27801 5.2545,-9.12952 5.2545,-13.20602 0,-0.8835 -0.093,-1.674 -0.2014,-2.48 m -6.8356,3.87501 c 0,1.488 -0.403,6.045 -2.883,9.82701 -1.6895,2.573 -5.053,5.25448 -6.944,6.74248 l 0.2945,-19.344 c 0.2015,-0.899 1.6895,-3.76655 5.6575,-3.76655 3.5806,0 3.875,3.36355 3.875,5.45605 0,0.49601 0,0.7905 0,1.08501"
     id="path5292"
     style="stroke-width:0.992001" />
  <polyline
     class="Stem"
     fill="none"
     stroke="#000000"
     stroke-width="2.48"
     stroke-linejoin="bevel"
     points="1593.12,1142.68 1593.12,1066.04"
     id="polyline5294"
     transform="translate(-212.598,-601.683)" />
  <polyline
     class="Stem"
     fill="none"
     stroke="#000000"
     stroke-width="2.48"
     stroke-linejoin="bevel"
     points="1694.51,1126.01 1694.51,1202.44"
     id="polyline5296"
     transform="translate(-212.598,-601.683)" />
  <polyline
     class="Stem"
     fill="none"
     stroke="#000000"
     stroke-width="2.48"
     stroke-linejoin="bevel"
     points="1819.93,1142.68 1819.93,1066.04"
     id="polyline5298"
     transform="translate(-212.598,-601.683)" />
  <polyline
     class="Stem"
     fill="none"
     stroke="#000000"
     stroke-width="2.48"
     stroke-linejoin="bevel"
     points="597.169,748.477 597.169,824.911"
     id="polyline5300"
     transform="translate(-212.598,-601.683)" />
  <polyline
     class="Stem"
     fill="none"
     stroke="#000000"
     stroke-width="2.48"
     stroke-linejoin="bevel"
     points="1915.6,1155.08 1915.6,1072.24"
     id="polyline5302"
     transform="translate(-212.598,-601.683)" />
  <polyline
     class="Stem"
     fill="none"
     stroke="#000000"
     stroke-width="2.48"
     stroke-linejoin="bevel"
     points="3689.54,723.677 3689.54,806.311"
     id="polyline5304"
     transform="translate(-212.598,-601.683)" />
  <polyline
     class="Stem"
     fill="none"
     stroke="#000000"
     stroke-width="2.48"
     stroke-linejoin="bevel"
     points="698.314,748.477 698.314,824.911"
     id="polyline5306"
     transform="translate(-212.598,-601.683)" />
  <polyline
     class="Stem"
     fill="none"
     stroke="#000000"
     stroke-width="2.48"
     stroke-linejoin="bevel"
     points="2016.99,1138.41 2016.99,1208.64"
     id="polyline5308"
     transform="translate(-212.598,-601.683)" />
  <polyline
     class="Stem"
     fill="none"
     stroke="#000000"
     stroke-width="2.48"
     stroke-linejoin="bevel"
     points="799.458,748.477 799.458,824.911"
     id="polyline5310"
     transform="translate(-212.598,-601.683)" />
  <polyline
     class="Stem"
     fill="none"
     stroke="#000000"
     stroke-width="2.48"
     stroke-linejoin="bevel"
     points="2142.41,1142.68 2142.41,1066.04"
     id="polyline5312"
     transform="translate(-212.598,-601.683)" />
  <polyline
     class="Stem"
     fill="none"
     stroke="#000000"
     stroke-width="2.48"
     stroke-linejoin="bevel"
     points="936.066,748.477 936.066,824.911"
     id="polyline5314"
     transform="translate(-212.598,-601.683)" />
  <polyline
     class="Stem"
     fill="none"
     stroke="#000000"
     stroke-width="2.48"
     stroke-linejoin="bevel"
     points="2380.67,1142.68 2380.67,1066.04"
     id="polyline5316"
     transform="translate(-212.598,-601.683)" />
  <polyline
     class="Stem"
     fill="none"
     stroke="#000000"
     stroke-width="2.48"
     stroke-linejoin="bevel"
     points="1037.21,760.877 1037.21,831.111"
     id="polyline5318"
     transform="translate(-212.598,-601.683)" />
  <polyline
     class="Stem"
     fill="none"
     stroke="#000000"
     stroke-width="2.48"
     stroke-linejoin="bevel"
     points="2446.6,1138.41 2446.6,1208.64"
     id="polyline5320"
     transform="translate(-212.598,-601.683)" />
  <polyline
     class="Stem"
     fill="none"
     stroke="#000000"
     stroke-width="2.48"
     stroke-linejoin="bevel"
     points="1274.96,736.077 1274.96,818.711"
     id="polyline5322"
     transform="translate(-212.598,-601.683)" />
  <polyline
     class="Stem"
     fill="none"
     stroke="#000000"
     stroke-width="2.48"
     stroke-linejoin="bevel"
     points="1376.11,736.077 1376.11,818.711"
     id="polyline5324"
     transform="translate(-212.598,-601.683)" />
  <polyline
     class="Stem"
     fill="none"
     stroke="#000000"
     stroke-width="2.48"
     stroke-linejoin="bevel"
     points="2572.01,1142.68 2572.01,1066.04"
     id="polyline5326"
     transform="translate(-212.598,-601.683)" />
  <polyline
     class="Stem"
     fill="none"
     stroke="#000000"
     stroke-width="2.48"
     stroke-linejoin="bevel"
     points="1477.25,736.077 1477.25,818.711"
     id="polyline5328"
     transform="translate(-212.598,-601.683)" />
  <polyline
     class="Stem"
     fill="none"
     stroke="#000000"
     stroke-width="2.48"
     stroke-linejoin="bevel"
     points="2703.15,1142.68 2703.15,1066.04"
     id="polyline5330"
     transform="translate(-212.598,-601.683)" />
  <polyline
     class="Stem"
     fill="none"
     stroke="#000000"
     stroke-width="2.48"
     stroke-linejoin="bevel"
     points="1613.86,736.077 1613.86,818.711"
     id="polyline5332"
     transform="translate(-212.598,-601.683)" />
  <polyline
     class="Stem"
     fill="none"
     stroke="#000000"
     stroke-width="2.48"
     stroke-linejoin="bevel"
     points="2769.08,1126.01 2769.08,1202.44"
     id="polyline5334"
     transform="translate(-212.598,-601.683)" />
  <polyline
     class="Stem"
     fill="none"
     stroke="#000000"
     stroke-width="2.48"
     stroke-linejoin="bevel"
     points="1715,748.477 1715,824.911"
     id="polyline5336"
     transform="translate(-212.598,-601.683)" />
  <polyline
     class="Stem"
     fill="none"
     stroke="#000000"
     stroke-width="2.48"
     stroke-linejoin="bevel"
     points="2864.75,1138.41 2864.75,1208.64"
     id="polyline5338"
     transform="translate(-212.598,-601.683)" />
  <polyline
     class="Stem"
     fill="none"
     stroke="#000000"
     stroke-width="2.48"
     stroke-linejoin="bevel"
     points="1952.76,748.477 1952.76,824.911"
     id="polyline5340"
     transform="translate(-212.598,-601.683)" />
  <polyline
     class="Stem"
     fill="none"
     stroke="#000000"
     stroke-width="2.48"
     stroke-linejoin="bevel"
     points="2995.88,1138.41 2995.88,1208.64"
     id="polyline5342"
     transform="translate(-212.598,-601.683)" />
  <polyline
     class="Stem"
     fill="none"
     stroke="#000000"
     stroke-width="2.48"
     stroke-linejoin="bevel"
     points="2053.9,748.477 2053.9,824.911"
     id="polyline5344"
     transform="translate(-212.598,-601.683)" />
  <polyline
     class="Stem"
     fill="none"
     stroke="#000000"
     stroke-width="2.48"
     stroke-linejoin="bevel"
     points="3091.56,1113.61 3091.56,1196.24"
     id="polyline5346"
     transform="translate(-212.598,-601.683)" />
  <polyline
     class="Stem"
     fill="none"
     stroke="#000000"
     stroke-width="2.48"
     stroke-linejoin="bevel"
     points="2155.05,748.477 2155.05,824.911"
     id="polyline5348"
     transform="translate(-212.598,-601.683)" />
  <polyline
     class="Stem"
     fill="none"
     stroke="#000000"
     stroke-width="2.48"
     stroke-linejoin="bevel"
     points="3187.23,1126.01 3187.23,1202.44"
     id="polyline5350"
     transform="translate(-212.598,-601.683)" />
  <polyline
     class="Stem"
     fill="none"
     stroke="#000000"
     stroke-width="2.48"
     stroke-linejoin="bevel"
     points="3318.36,1126.01 3318.36,1202.44"
     id="polyline5352"
     transform="translate(-212.598,-601.683)" />
  <polyline
     class="Stem"
     fill="none"
     stroke="#000000"
     stroke-width="2.48"
     stroke-linejoin="bevel"
     points="3414.04,1138.41 3414.04,1208.64"
     id="polyline5354"
     transform="translate(-212.598,-601.683)" />
  <polyline
     class="Stem"
     fill="none"
     stroke="#000000"
     stroke-width="2.48"
     stroke-linejoin="bevel"
     points="2291.65,748.477 2291.65,824.911"
     id="polyline5356"
     transform="translate(-212.598,-601.683)" />
  <polyline
     class="Stem"
     fill="none"
     stroke="#000000"
     stroke-width="2.48"
     stroke-linejoin="bevel"
     points="3712.89,1142.68 3712.89,1066.04"
     id="polyline5358"
     transform="translate(-212.598,-601.683)" />
  <polyline
     class="Stem"
     fill="none"
     stroke="#000000"
     stroke-width="2.48"
     stroke-linejoin="bevel"
     points="2392.8,760.877 2392.8,831.111"
     id="polyline5360"
     transform="translate(-212.598,-601.683)" />
  <polyline
     class="Stem"
     fill="none"
     stroke="#000000"
     stroke-width="2.48"
     stroke-linejoin="bevel"
     points="3552.93,736.077 3552.93,818.711"
     id="polyline5362"
     transform="translate(-212.598,-601.683)" />
  <polyline
     class="Stem"
     fill="none"
     stroke="#000000"
     stroke-width="2.48"
     stroke-linejoin="bevel"
     points="2523.69,765.143 2523.69,688.511"
     id="polyline5364"
     transform="translate(-212.598,-601.683)" />
  <polyline
     class="Stem"
     fill="none"
     stroke="#000000"
     stroke-width="2.48"
     stroke-linejoin="bevel"
     points="2660.3,765.143 2660.3,688.511"
     id="polyline5366"
     transform="translate(-212.598,-601.683)" />
  <polyline
     class="Stem"
     fill="none"
     stroke="#000000"
     stroke-width="2.48"
     stroke-linejoin="bevel"
     points="2731.7,760.877 2731.7,831.111"
     id="polyline5368"
     transform="translate(-212.598,-601.683)" />
  <polyline
     class="Stem"
     fill="none"
     stroke="#000000"
     stroke-width="2.48"
     stroke-linejoin="bevel"
     points="2862.58,765.143 2862.58,688.511"
     id="polyline5370"
     transform="translate(-212.598,-601.683)" />
  <polyline
     class="Stem"
     fill="none"
     stroke="#000000"
     stroke-width="2.48"
     stroke-linejoin="bevel"
     points="2999.19,765.143 2999.19,688.511"
     id="polyline5372"
     transform="translate(-212.598,-601.683)" />
  <polyline
     class="Stem"
     fill="none"
     stroke="#000000"
     stroke-width="2.48"
     stroke-linejoin="bevel"
     points="3350.64,736.077 3350.64,818.711"
     id="polyline5374"
     transform="translate(-212.598,-601.683)" />
  <polyline
     class="Stem"
     fill="none"
     stroke="#000000"
     stroke-width="2.48"
     stroke-linejoin="bevel"
     points="3451.79,736.077 3451.79,818.711"
     id="polyline5376"
     transform="translate(-212.598,-601.683)" />
  <polyline
     class="Stem"
     fill="none"
     stroke="#000000"
     stroke-width="2.48"
     stroke-linejoin="bevel"
     points="357.911,1126.01 357.911,1202.44"
     id="polyline5378"
     transform="translate(-212.598,-601.683)" />
  <polyline
     class="Stem"
     fill="none"
     stroke="#000000"
     stroke-width="2.48"
     stroke-linejoin="bevel"
     points="453.583,1138.41 453.583,1208.64"
     id="polyline5380"
     transform="translate(-212.598,-601.683)" />
  <polyline
     class="Stem"
     fill="none"
     stroke="#000000"
     stroke-width="2.48"
     stroke-linejoin="bevel"
     points="578.999,1142.68 578.999,1066.04"
     id="polyline5382"
     transform="translate(-212.598,-601.683)" />
  <polyline
     class="Stem"
     fill="none"
     stroke="#000000"
     stroke-width="2.48"
     stroke-linejoin="bevel"
     points="710.135,1142.68 710.135,1066.04"
     id="polyline5384"
     transform="translate(-212.598,-601.683)" />
  <polyline
     class="Stem"
     fill="none"
     stroke="#000000"
     stroke-width="2.48"
     stroke-linejoin="bevel"
     points="3891.83,723.677 3891.83,806.311"
     id="polyline5386"
     transform="translate(-212.598,-601.683)" />
  <polyline
     class="Stem"
     fill="none"
     stroke="#000000"
     stroke-width="2.48"
     stroke-linejoin="bevel"
     points="1049.55,1101.21 1049.55,1183.84"
     id="polyline5388"
     transform="translate(-212.598,-601.683)" />
  <polyline
     class="Stem"
     fill="none"
     stroke="#000000"
     stroke-width="2.48"
     stroke-linejoin="bevel"
     points="1145.23,1126.01 1145.23,1202.44"
     id="polyline5390"
     transform="translate(-212.598,-601.683)" />
  <polyline
     class="Stem"
     fill="none"
     stroke="#000000"
     stroke-width="2.48"
     stroke-linejoin="bevel"
     points="1270.64,1142.68 1270.64,1066.04"
     id="polyline5392"
     transform="translate(-212.598,-601.683)" />
  <polyline
     class="Stem"
     fill="none"
     stroke="#000000"
     stroke-width="2.48"
     stroke-linejoin="bevel"
     points="3790.69,711.277 3790.69,793.911"
     id="polyline5394"
     transform="translate(-212.598,-601.683)" />
  <polyline
     class="Stem"
     fill="none"
     stroke="#000000"
     stroke-width="2.48"
     stroke-linejoin="bevel"
     points="1372.03,1113.61 1372.03,1196.24"
     id="polyline5396"
     transform="translate(-212.598,-601.683)" />
  <polyline
     class="Stem"
     fill="none"
     stroke="#000000"
     stroke-width="2.48"
     stroke-linejoin="bevel"
     points="1467.71,1138.41 1467.71,1208.64"
     id="polyline5398"
     transform="translate(-212.598,-601.683)" />
  <path
     class="Note"
     d="m 844.49855,141.93051 c -9.62549,0 -21.12655,8.04448 -21.12655,17.267 0,4.2625 3.069,9.02103 11.11349,9.02103 10.30758,0 21.12654,-8.43203 21.12654,-17.15854 0,-5.85901 -4.96,-9.12949 -11.11348,-9.12949 m -2.68148,17.46849 c -0.29453,0.186 -7.53306,4.15401 -11.00506,4.15401 -3.2705,0 -3.96801,-2.666 -3.96801,-3.56501 0,-4.1695 9.92001,-9.021 10.32306,-9.22251 0.38748,-0.20149 7.44001,-4.1695 11.00496,-4.1695 2.38706,0 3.96801,1.395 3.96801,3.56501 0,4.278 -10.01296,9.03651 -10.32296,9.238"
     id="path5400"
     style="stroke-width:0.992001" />
  <path
     class="Note"
     d="m 2416.712,171.59751 c 0,4.2625 3.069,9.02103 11.1135,9.02103 10.3076,0 21.1265,-8.43203 21.1265,-17.15854 0,-5.85901 -4.96,-9.12949 -11.1135,-9.12949 -9.6254,0 -21.1265,8.13748 -21.1265,17.267"
     id="path5402"
     style="stroke-width:0.992001" />
  <path
     class="Note"
     d="m 2280.102,171.59751 c 0,4.2625 3.069,9.02103 11.1135,9.02103 10.3076,0 21.1265,-8.43203 21.1265,-17.15854 0,-5.85901 -4.96,-9.12949 -11.1135,-9.12949 -9.6254,0 -21.1265,8.13748 -21.1265,17.267"
     id="path5404"
     style="stroke-width:0.992001" />
  <path
     class="Note"
     d="m 383.331,146.79751 c 0,4.2625 3.069,9.02103 11.11349,9.02103 10.30758,0 21.12654,-8.43203 21.12654,-17.15854 0,-5.85901 -4.96,-9.12949 -11.11348,-9.12949 -9.62549,0 -21.12655,8.13748 -21.12655,17.267"
     id="path5406"
     style="stroke-width:0.992001" />
  <path
     class="Note"
     d="m 1027.062,549.12651 c 0,4.2625 3.069,9.02103 11.1135,9.02103 10.3076,0 21.1265,-8.43203 21.1265,-17.15854 0,-5.85901 -4.96,-9.12949 -11.1135,-9.12949 -9.6254,0 -21.1265,8.13748 -21.1265,17.267"
     id="path5408"
     style="stroke-width:0.992001" />
  <path
     class="Note"
     d="m 484.476,146.79751 c 0,4.2625 3.069,9.02103 11.11349,9.02103 10.30758,0 21.12654,-8.43203 21.12654,-17.15854 0,-5.85901 -4.96,-9.12949 -11.11348,-9.12949 -9.62549,0 -21.12655,8.13748 -21.12655,17.267"
     id="path5410"
     style="stroke-width:0.992001" />
  <path
     class="Note"
     d="m 585.62,146.79751 c 0,4.2625 3.069,9.02103 11.11349,9.02103 10.30758,0 21.12654,-8.43203 21.12654,-17.15854 0,-5.85901 -4.96,-9.12949 -11.11348,-9.12949 -9.62549,0 -21.12655,8.13748 -21.12655,17.267"
     id="path5412"
     style="stroke-width:0.992001" />
  <path
     class="Note"
     d="m 722.228,146.79751 c 0,4.2625 3.069,9.02103 11.11349,9.02103 10.30758,0 21.12654,-8.43203 21.12654,-17.15854 0,-5.85901 -4.96,-9.12949 -11.11348,-9.12949 -9.62549,0 -21.12655,8.13748 -21.12655,17.267"
     id="path5414"
     style="stroke-width:0.992001" />
  <path
     class="Note"
     d="m 1061.122,134.39751 c 0,4.2625 3.069,9.02103 11.1135,9.02103 10.3076,0 21.1265,-8.43203 21.1265,-17.15854 0,-5.85901 -4.96,-9.12949 -11.1135,-9.12949 -9.6254,0 -21.1265,8.13748 -21.1265,17.267"
     id="path5416"
     style="stroke-width:0.992001" />
  <path
     class="Note"
     d="m 1162.272,134.39751 c 0,4.2625 3.069,9.02103 11.1135,9.02103 10.3076,0 21.1265,-8.43203 21.1265,-17.15854 0,-5.85901 -4.96,-9.12949 -11.1135,-9.12949 -9.6254,0 -21.1265,8.13748 -21.1265,17.267"
     id="path5418"
     style="stroke-width:0.992001" />
  <path
     class="Note"
     d="m 1263.412,134.39751 c 0,4.2625 3.069,9.02103 11.1135,9.02103 10.3076,0 21.1265,-8.43203 21.1265,-17.15854 0,-5.85901 -4.96,-9.12949 -11.1135,-9.12949 -9.6254,0 -21.1265,8.13748 -21.1265,17.267"
     id="path5420"
     style="stroke-width:0.992001" />
  <path
     class="Note"
     d="m 1400.022,134.39751 c 0,4.2625 3.069,9.02103 11.1135,9.02103 10.3076,0 21.1265,-8.43203 21.1265,-17.15854 0,-5.85901 -4.96,-9.12949 -11.1135,-9.12949 -9.6254,0 -21.1265,8.13748 -21.1265,17.267"
     id="path5422"
     style="stroke-width:0.992001" />
  <path
     class="Note"
     d="m 1522.2885,129.53051 c -9.6254,0 -21.1265,8.04448 -21.1265,17.267 0,4.2625 3.069,9.02103 11.1135,9.02103 10.3076,0 21.1265,-8.43203 21.1265,-17.15854 0,-5.85901 -4.96,-9.12949 -11.1135,-9.12949 m -2.6814,17.46849 c -0.2946,0.186 -7.5331,4.15401 -11.0051,4.15401 -3.2705,0 -3.968,-2.666 -3.968,-3.56501 0,-4.1695 9.92,-9.021 10.3231,-9.22251 0.3874,-0.20149 7.44,-4.1695 11.0049,-4.1695 2.3871,0 3.968,1.395 3.968,3.56501 0,4.278 -10.0129,9.03651 -10.3229,9.238"
     id="path5424"
     style="stroke-width:0.992001" />
  <path
     class="Note"
     d="m 1738.922,146.79751 c 0,4.2625 3.069,9.02103 11.1135,9.02103 10.3076,0 21.1265,-8.43203 21.1265,-17.15854 0,-5.85901 -4.96,-9.12949 -11.1135,-9.12949 -9.6254,0 -21.1265,8.13748 -21.1265,17.267"
     id="path5426"
     style="stroke-width:0.992001" />
  <path
     class="Note"
     d="m 1840.062,146.79751 c 0,4.2625 3.069,9.02103 11.1135,9.02103 10.3076,0 21.1265,-8.43203 21.1265,-17.15854 0,-5.85901 -4.96,-9.12949 -11.1135,-9.12949 -9.6254,0 -21.1265,8.13748 -21.1265,17.267"
     id="path5428"
     style="stroke-width:0.992001" />
  <path
     class="Note"
     d="m 1941.212,146.79751 c 0,4.2625 3.069,9.02103 11.1135,9.02103 10.3076,0 21.1265,-8.43203 21.1265,-17.15854 0,-5.85901 -4.96,-9.12949 -11.1135,-9.12949 -9.6254,0 -21.1265,8.13748 -21.1265,17.267"
     id="path5430"
     style="stroke-width:0.992001" />
  <path
     class="Note"
     d="m 3490.4285,531.85951 c -9.6254,0 -21.1265,8.04448 -21.1265,17.267 0,4.2625 3.069,9.02103 11.1135,9.02103 10.3076,0 21.1265,-8.43203 21.1265,-17.15854 0,-5.85901 -4.96,-9.12949 -11.1135,-9.12949 m -2.6814,17.46849 c -0.2946,0.186 -7.5331,4.15401 -11.0051,4.15401 -3.2705,0 -3.968,-2.666 -3.968,-3.565 0,-4.16951 9.92,-9.02101 10.3231,-9.22252 0.3874,-0.20149 7.44,-4.1695 11.0049,-4.1695 2.3871,0 3.968,1.395 3.968,3.56501 0,4.278 -10.0129,9.03651 -10.3229,9.238"
     id="path5432"
     style="stroke-width:0.992001" />
  <path
     class="Note"
     d="m 335.417,549.12651 c 0,4.2625 3.069,9.02103 11.11349,9.02103 10.30758,0 21.12654,-8.43203 21.12654,-17.15854 0,-5.85901 -4.96,-9.12949 -11.11348,-9.12949 -9.62549,0 -21.12655,8.13748 -21.12655,17.267"
     id="path5434"
     style="stroke-width:0.992001" />
  <path
     class="Note"
     d="m 2077.812,146.79751 c 0,4.2625 3.069,9.02103 11.1135,9.02103 10.3076,0 21.1265,-8.43203 21.1265,-17.15854 0,-5.85901 -4.96,-9.12949 -11.1135,-9.12949 -9.6254,0 -21.1265,8.13748 -21.1265,17.267"
     id="path5436"
     style="stroke-width:0.992001" />
  <path
     class="Note"
     d="m 2178.962,159.19751 c 0,4.2625 3.069,9.02103 11.1135,9.02103 10.3076,0 21.1265,-8.43203 21.1265,-17.15854 0,-5.85901 -4.96,-9.12949 -11.1135,-9.12949 -9.6254,0 -21.1265,8.13748 -21.1265,17.267"
     id="path5438"
     style="stroke-width:0.992001" />
  <path
     class="Note"
     d="m 1253.872,536.72651 c 0,4.2625 3.069,9.02103 11.1135,9.02103 10.3076,0 21.1265,-8.43203 21.1265,-17.15854 0,-5.85901 -4.96,-9.12949 -11.1135,-9.12949 -9.6254,0 -21.1265,8.13748 -21.1265,17.267"
     id="path5440"
     style="stroke-width:0.992001" />
  <path
     class="Note"
     d="m 1803.152,536.72651 c 0,4.2625 3.069,9.02103 11.1135,9.02103 10.3076,0 21.1265,-8.43203 21.1265,-17.15854 0,-5.85901 -4.96,-9.12949 -11.1135,-9.12949 -9.6254,0 -21.1265,8.13748 -21.1265,17.267"
     id="path5442"
     style="stroke-width:0.992001" />
  <path
     class="Note"
     d="m 931.392,524.32651 c 0,4.2625 3.069,9.02103 11.11349,9.02103 10.30758,0 21.12654,-8.43203 21.12654,-17.15854 0,-5.85901 -4.96,-9.12949 -11.11348,-9.12949 -9.62549,0 -21.12655,8.13748 -21.12655,17.267"
     id="path5444"
     style="stroke-width:0.992001" />
  <path
     class="Note"
     d="m 1919.9485,531.85951 c -9.6254,0 -21.1265,8.04448 -21.1265,17.267 0,4.2625 3.069,9.02103 11.1135,9.02103 10.3076,0 21.1265,-8.43203 21.1265,-17.15854 0,-5.85901 -4.96,-9.12949 -11.1135,-9.12949 m -2.6814,17.46849 c -0.2946,0.186 -7.5331,4.15401 -11.0051,4.15401 -3.2705,0 -3.968,-2.666 -3.968,-3.565 0,-4.16951 9.92,-9.02101 10.3231,-9.22252 0.3874,-0.20149 7.44,-4.1695 11.0049,-4.1695 2.3871,0 3.968,1.395 3.968,3.56501 0,4.278 -10.0129,9.03651 -10.3229,9.238"
     id="path5446"
     style="stroke-width:0.992001" />
  <path
     class="Note"
     d="m 239.745,536.72651 c 0,4.2625 3.069,9.02103 11.11349,9.02103 10.30758,0 21.12654,-8.43203 21.12654,-17.15854 0,-5.85901 -4.96,-9.12949 -11.11348,-9.12949 -9.62549,0 -21.12655,8.13748 -21.12655,17.267"
     id="path5448"
     style="stroke-width:0.992001" />
  <path
     class="Note"
     d="m 144.073,524.32651 c 0,4.2625 3.069,9.02103 11.11349,9.02103 10.30758,0 21.12654,-8.43203 21.12654,-17.15854 0,-5.85901 -4.96,-9.12949 -11.11348,-9.12949 -9.62549,0 -21.12655,8.13748 -21.12655,17.267"
     id="path5450"
     style="stroke-width:0.992001" />
  <path
     class="Note"
     d="m 3136.802,134.39751 c 0,4.2625 3.069,9.02103 11.1135,9.02103 10.3076,0 21.1265,-8.43203 21.1265,-17.15854 0,-5.85901 -4.96,-9.12949 -11.1135,-9.12949 -9.6254,0 -21.1265,8.13748 -21.1265,17.267"
     id="path5452"
     style="stroke-width:0.992001" />
  <path
     class="Note"
     d="m 1349.542,549.12651 c 0,4.2625 3.069,9.02103 11.1135,9.02103 10.3076,0 21.1265,-8.43203 21.1265,-17.15854 0,-5.85901 -4.96,-9.12949 -11.1135,-9.12949 -9.6254,0 -21.1265,8.13748 -21.1265,17.267"
     id="path5454"
     style="stroke-width:0.992001" />
  <path
     class="Note"
     d="m 2137.092,549.12651 c 0,4.2625 3.069,9.02103 11.1135,9.02103 10.3076,0 21.1265,-8.43203 21.1265,-17.15854 0,-5.85901 -4.96,-9.12949 -11.1135,-9.12949 -9.6254,0 -21.1265,8.13748 -21.1265,17.267"
     id="path5456"
     style="stroke-width:0.992001" />
  <path
     class="Note"
     d="m 3339.092,134.39751 c 0,4.2625 3.069,9.02103 11.1135,9.02103 10.3076,0 21.1265,-8.43203 21.1265,-17.15854 0,-5.85901 -4.96,-9.12949 -11.1135,-9.12949 -9.6254,0 -21.1265,8.13748 -21.1265,17.267"
     id="path5458"
     style="stroke-width:0.992001" />
  <path
     class="Note"
     d="m 3237.952,134.39751 c 0,4.2625 3.069,9.02103 11.1135,9.02103 10.3076,0 21.1265,-8.43203 21.1265,-17.15854 0,-5.85901 -4.96,-9.12949 -11.1135,-9.12949 -9.6254,0 -21.1265,8.13748 -21.1265,17.267"
     id="path5460"
     style="stroke-width:0.992001" />
  <path
     class="Note"
     d="m 2232.762,536.72651 c 0,4.2625 3.069,9.02103 11.1135,9.02103 10.3076,0 21.1265,-8.43203 21.1265,-17.15854 0,-5.85901 -4.96,-9.12949 -11.1135,-9.12949 -9.6254,0 -21.1265,8.13748 -21.1265,17.267"
     id="path5462"
     style="stroke-width:0.992001" />
  <path
     class="Note"
     d="m 3475.702,121.99751 c 0,4.2625 3.069,9.02103 11.1135,9.02103 10.3076,0 21.1265,-8.43203 21.1265,-17.15854 0,-5.85901 -4.96,-9.12949 -11.1135,-9.12949 -9.6254,0 -21.1265,8.13748 -21.1265,17.267"
     id="path5464"
     style="stroke-width:0.992001" />
  <path
     class="Note"
     d="m 2328.432,549.12651 c 0,4.2625 3.069,9.02103 11.1135,9.02103 10.3076,0 21.1265,-8.43203 21.1265,-17.15854 0,-5.85901 -4.96,-9.12949 -11.1135,-9.12949 -9.6254,0 -21.1265,8.13748 -21.1265,17.267"
     id="path5466"
     style="stroke-width:0.992001" />
  <path
     class="Note"
     d="m 2650.912,536.72651 c 0,4.2625 3.069,9.02103 11.1135,9.02103 10.3076,0 21.1265,-8.43203 21.1265,-17.15854 0,-5.85901 -4.96,-9.12949 -11.1135,-9.12949 -9.6254,0 -21.1265,8.13748 -21.1265,17.267"
     id="path5468"
     style="stroke-width:0.992001" />
  <path
     class="Note"
     d="m 487.67855,531.85951 c -9.62549,0 -21.12655,8.04448 -21.12655,17.267 0,4.2625 3.069,9.02103 11.11349,9.02103 10.30758,0 21.12654,-8.43203 21.12654,-17.15854 0,-5.85901 -4.96,-9.12949 -11.11348,-9.12949 m -2.68148,17.46849 c -0.29453,0.186 -7.53306,4.15401 -11.00506,4.15401 -3.2705,0 -3.96801,-2.666 -3.96801,-3.565 0,-4.16951 9.92001,-9.02101 10.32306,-9.22252 0.38748,-0.20149 7.44001,-4.1695 11.00496,-4.1695 2.38706,0 3.96801,1.395 3.96801,3.56501 0,4.278 -10.01296,9.03651 -10.32296,9.238"
     id="path5470"
     style="stroke-width:0.992001" />
  <path
     class="Note"
     d="m 2459.572,549.12651 c 0,4.2625 3.069,9.02103 11.1135,9.02103 10.3076,0 21.1265,-8.43203 21.1265,-17.15854 0,-5.85901 -4.96,-9.12949 -11.1135,-9.12949 -9.6254,0 -21.1265,8.13748 -21.1265,17.267"
     id="path5472"
     style="stroke-width:0.992001" />
  <path
     class="Note"
     d="m 3576.852,109.59751 c 0,4.2625 3.069,9.02103 11.1135,9.02103 10.3076,0 21.1265,-8.43203 21.1265,-17.15854 0,-5.85901 -4.96,-9.129488 -11.1135,-9.129488 -9.6254,0 -21.1265,8.137478 -21.1265,17.266998"
     id="path5474"
     style="stroke-width:0.992001" />
  <path
     class="Note"
     d="m 2555.242,524.32651 c 0,4.2625 3.069,9.02103 11.1135,9.02103 10.3076,0 21.1265,-8.43203 21.1265,-17.15854 0,-5.85901 -4.96,-9.12949 -11.1135,-9.12949 -9.6254,0 -21.1265,8.13748 -21.1265,17.267"
     id="path5476"
     style="stroke-width:0.992001" />
  <path
     class="Note"
     d="m 1480.672,524.32651 c 0,4.2625 3.069,9.02103 11.1135,9.02103 10.3076,0 21.1265,-8.43203 21.1265,-17.15854 0,-5.85901 -4.96,-9.12949 -11.1135,-9.12949 -9.6254,0 -21.1265,8.13748 -21.1265,17.267"
     id="path5478"
     style="stroke-width:0.992001" />
  <path
     class="Note"
     d="m 2776.7385,154.33051 c -9.6254,0 -21.1265,8.04448 -21.1265,17.267 0,4.2625 3.069,9.02103 11.1135,9.02103 10.3076,0 21.1265,-8.43203 21.1265,-17.15854 0,-5.85901 -4.96,-9.12949 -11.1135,-9.12949 m -2.6814,17.46849 c -0.2946,0.186 -7.5331,4.15401 -11.0051,4.15401 -3.2705,0 -3.968,-2.666 -3.968,-3.56501 0,-4.1695 9.92,-9.021 10.3231,-9.22251 0.3874,-0.20149 7.44,-4.1695 11.0049,-4.1695 2.3871,0 3.968,1.395 3.968,3.56501 0,4.278 -10.0129,9.03651 -10.3229,9.238"
     id="path5480"
     style="stroke-width:0.992001" />
  <path
     class="Note"
     d="m 2619.002,171.59751 c 0,4.2625 3.069,9.02103 11.1135,9.02103 10.3076,0 21.1265,-8.43203 21.1265,-17.15854 0,-5.85901 -4.96,-9.12949 -11.1135,-9.12949 -9.6254,0 -21.1265,8.13748 -21.1265,17.267"
     id="path5482"
     style="stroke-width:0.992001" />
  <path
     class="Note"
     d="m 835.712,499.52651 c 0,4.2625 3.069,9.02103 11.11349,9.02103 10.30758,0 21.12654,-8.43203 21.12654,-17.15854 0,-5.85901 -4.96,-9.12949 -11.11348,-9.12949 -9.62549,0 -21.12655,8.13748 -21.12655,17.267"
     id="path5484"
     style="stroke-width:0.992001" />
  <path
     class="Note"
     d="m 2782.042,536.72651 c 0,4.2625 3.069,9.02103 11.1135,9.02103 10.3076,0 21.1265,-8.43203 21.1265,-17.15854 0,-5.85901 -4.96,-9.12949 -11.1135,-9.12949 -9.6254,0 -21.1265,8.13748 -21.1265,17.267"
     id="path5486"
     style="stroke-width:0.992001" />
  <path
     class="Note"
     d="m 1576.342,549.12651 c 0,4.2625 3.069,9.02103 11.1135,9.02103 10.3076,0 21.1265,-8.43203 21.1265,-17.15854 0,-5.85901 -4.96,-9.12949 -11.1135,-9.12949 -9.6254,0 -21.1265,8.13748 -21.1265,17.267"
     id="path5488"
     style="stroke-width:0.992001" />
  <path
     class="Note"
     d="m 2877.722,511.92651 c 0,4.2625 3.069,9.02103 11.1135,9.02103 10.3076,0 21.1265,-8.43203 21.1265,-17.15854 0,-5.85901 -4.96,-9.12949 -11.1135,-9.12949 -9.6254,0 -21.1265,8.13748 -21.1265,17.267"
     id="path5490"
     style="stroke-width:0.992001" />
  <path
     class="Note"
     d="m 1158.192,511.92651 c 0,4.2625 3.069,9.02103 11.1135,9.02103 10.3076,0 21.1265,-8.43203 21.1265,-17.15854 0,-5.85901 -4.96,-9.12949 -11.1135,-9.12949 -9.6254,0 -21.1265,8.13748 -21.1265,17.267"
     id="path5492"
     style="stroke-width:0.992001" />
  <path
     class="Note"
     d="m 2973.392,524.32651 c 0,4.2625 3.069,9.02103 11.1135,9.02103 10.3076,0 21.1265,-8.43203 21.1265,-17.15854 0,-5.85901 -4.96,-9.12949 -11.1135,-9.12949 -9.6254,0 -21.1265,8.13748 -21.1265,17.267"
     id="path5494"
     style="stroke-width:0.992001" />
  <path
     class="Note"
     d="m 2517.862,159.19751 c 0,4.2625 3.069,9.02103 11.1135,9.02103 10.3076,0 21.1265,-8.43203 21.1265,-17.15854 0,-5.85901 -4.96,-9.12949 -11.1135,-9.12949 -9.6254,0 -21.1265,8.13748 -21.1265,17.267"
     id="path5496"
     style="stroke-width:0.992001" />
  <path
     class="Note"
     d="m 1672.022,561.52651 c 0,4.2625 3.069,9.02103 11.1135,9.02103 10.3076,0 21.1265,-8.43203 21.1265,-17.15854 0,-5.85901 -4.96,-9.12949 -11.1135,-9.12949 -9.6254,0 -21.1265,8.13748 -21.1265,17.267"
     id="path5498"
     style="stroke-width:0.992001" />
  <path
     class="Note"
     d="m 3104.522,524.32651 c 0,4.2625 3.069,9.02103 11.1135,9.02103 10.3076,0 21.1265,-8.43203 21.1265,-17.15854 0,-5.85901 -4.96,-9.12949 -11.1135,-9.12949 -9.6254,0 -21.1265,8.13748 -21.1265,17.267"
     id="path5500"
     style="stroke-width:0.992001" />
  <path
     class="Note"
     d="m 3677.992,121.99751 c 0,4.2625 3.069,9.02103 11.1135,9.02103 10.3076,0 21.1265,-8.43203 21.1265,-17.15854 0,-5.85901 -4.96,-9.12949 -11.1135,-9.12949 -9.6254,0 -21.1265,8.13748 -21.1265,17.267"
     id="path5502"
     style="stroke-width:0.992001" />
  <path
     class="Note"
     d="m 3221.3285,519.45951 c -9.6254,0 -21.1265,8.04448 -21.1265,17.267 0,4.2625 3.069,9.02103 11.1135,9.02103 10.3076,0 21.1265,-8.43203 21.1265,-17.15854 0,-5.85901 -4.96,-9.12949 -11.1135,-9.12949 m -2.6814,17.46849 c -0.2946,0.186 -7.5331,4.15401 -11.0051,4.15401 -3.2705,0 -3.968,-2.666 -3.968,-3.56501 0,-4.1695 9.92,-9.021 10.3231,-9.22251 0.3874,-0.20149 7.44,-4.1695 11.0049,-4.1695 2.3871,0 3.968,1.395 3.968,3.56501 0,4.278 -10.0129,9.03651 -10.3229,9.238"
     id="path5504"
     style="stroke-width:0.992001" />
  <path
     class="Clef"
     d="m 198.35453,181.905 c 0,7.05251 -2.88295,14.29102 -9.92001,17.17407 -2.07695,-11.90406 -4.75843,-27.68308 -5.456,-32.05413 8.928,0 15.37601,6.06055 15.37601,14.88006 m -14.08949,18.35207 c -1.984,0.40295 -3.85948,0.60443 -5.75053,0.60443 -14.18244,0 -26.288,-9.92001 -26.288,-24.9085 0,-12.09007 8.52503,-22.90903 17.26704,-30.45756 1.674,-1.488 3.27053,-2.86748 4.75853,-4.35548 0.88348,5.34748 1.58095,10.01296 2.27843,14.08949 -9.03644,2.68148 -15.17444,12.19854 -15.17444,21.52955 0,6.944 5.456,16.46101 13.39201,16.46101 0.79043,0 1.68948,-0.40295 1.68948,-1.28652 0,-0.89895 -0.992,-1.39495 -2.18548,-2.18548 -3.87505,-2.387 -6.06053,-4.96001 -6.06053,-9.82701 0,-6.04501 4.46401,-10.91206 10.32296,-12.29154 l 5.75053,32.62761 M 175.53851,98.282443 c 0.89905,-3.968004 5.456,-14.384015 10.61758,-14.384015 1.48801,0 3.85948,4.85148 3.85948,11.702437 0,10.323065 -7.62601,18.057595 -14.47706,24.800025 -0.58895,-3.968 -1.08495,-7.82748 -1.08495,-11.99696 0,-3.67348 0.29452,-7.05253 1.08495,-10.121487 M 154.70649,230.71458 c 0,6.55653 5.05305,15.19001 18.44507,15.19001 4.66548,0 8.742,-1.19347 12.30696,-3.37905 5.36305,-3.76643 6.74253,-10.32296 6.74253,-16.56949 0,-3.85948 -0.58895,-8.32349 -1.58095,-13.98097 -0.29453,-1.984 -0.89905,-4.96 -1.488,-8.83506 9.71843,-3.17747 16.95696,-13.29896 16.95696,-23.51352 0,-14.97304 -10.61748,-25.09453 -25.09455,-25.09453 -0.992,-5.952 -1.984,-11.81106 -2.88295,-17.36001 10.52454,-11.02054 17.76297,-23.42055 17.76297,-39.184043 0,-9.036533 -2.77443,-16.368016 -4.37096,-19.948148 -2.37147,-5.053253 -5.25453,-8.525256 -7.03705,-8.525256 -0.69748,0 -3.76643,1.193377 -7.03696,5.053253 -6.35506,7.548135 -8.13748,20.242673 -8.13748,28.566154 0,5.36296 0.496,10.23001 2.18547,21.3435 -0.10852,0.0931 -5.27,5.34748 -7.34705,7.03706 -9.03644,8.432 -21.5295,20.42897 -21.5295,40.28451 0,18.53807 16.16654,33.12356 34.62708,33.12356 2.86748,0 5.54896,-0.29453 7.82749,-0.69748 1.89095,9.53244 2.976,16.47645 2.976,21.73098 0,10.32306 -5.25453,15.77906 -15.26749,15.77906 -2.38705,0 -4.464,-0.496 -4.66558,-0.496 -0.093,-0.10852 -0.29442,-0.20157 -0.29442,-0.29452 0,-0.20148 0.20147,-0.31 0.496,-0.40305 4.66548,-0.69748 9.31548,-4.66548 9.31548,-11.00497 0,-5.36305 -4.06105,-11.02053 -11.50106,-11.02053 -6.94401,0 -11.40801,5.65748 -11.40801,12.19854"
     id="path5506"
     style="stroke-width:0.992001" />
  <path
     class="Clef"
     d="m 74.353531,559.434 c 0,7.05251 -2.882953,14.29102 -9.92001,17.17407 -2.076952,-11.90406 -4.75843,-27.68308 -5.456005,-32.05413 8.928009,0 15.376015,6.06055 15.376015,14.88006 m -14.089489,18.35207 c -1.984002,0.40295 -3.859479,0.60443 -5.750531,0.60443 -14.182439,0 -26.287996,-9.92001 -26.287996,-24.9085 0,-12.09007 8.525028,-22.90903 17.267037,-30.45756 1.674002,-1.488 3.270528,-2.86748 4.75853,-4.35548 0.883476,5.34748 1.580952,10.01296 2.278427,14.08949 -9.036434,2.68148 -15.17444,12.19854 -15.17444,21.52955 0,6.944 5.456005,16.46101 13.392013,16.46101 0.790426,0 1.689477,-0.40295 1.689477,-1.28652 0,-0.89895 -0.992001,-1.39495 -2.185477,-2.18548 -3.875054,-2.387 -6.060531,-4.96001 -6.060531,-9.82701 0,-6.04501 4.464004,-10.91206 10.32296,-12.29154 l 5.750531,32.62761 M 51.537508,475.81144 c 0.899051,-3.968 5.456006,-14.38401 10.617586,-14.38401 1.488001,0 3.859479,4.85148 3.859479,11.70244 0,10.32306 -7.626008,18.05759 -14.477065,24.80002 -0.588951,-3.968 -1.084951,-7.82748 -1.084951,-11.99696 0,-3.67348 0.294525,-7.05253 1.084951,-10.12149 M 30.705487,608.24358 c 0,6.55653 5.053055,15.19001 18.445069,15.19001 4.66548,0 8.742008,-1.19347 12.306962,-3.37905 5.363055,-3.76643 6.742532,-10.32296 6.742532,-16.56949 0,-3.85948 -0.588951,-8.32349 -1.580952,-13.98097 -0.294525,-1.984 -0.899051,-4.96 -1.488001,-8.83506 9.718435,-3.17747 16.956967,-13.29896 16.956967,-23.51352 0,-14.97304 -10.617486,-25.09453 -25.09455,-25.09453 -0.992001,-5.952 -1.984002,-11.81106 -2.882953,-17.36001 10.524535,-11.02054 17.762968,-23.42055 17.762968,-39.18404 0,-9.03654 -2.774428,-16.36802 -4.370955,-19.94815 -2.371477,-5.05325 -5.25453,-8.52526 -7.037057,-8.52526 -0.697475,0 -3.766429,1.19338 -7.036957,5.05326 -6.355056,7.54813 -8.137483,20.24267 -8.137483,28.56615 0,5.36296 0.496,10.23001 2.185477,21.3435 -0.108525,0.0931 -5.270005,5.34748 -7.347057,7.03706 C 31.093062,517.47548 18.6,529.47245 18.6,549.32799 c 0,18.53807 16.166541,33.12356 34.627085,33.12356 2.867478,0 5.548955,-0.29453 7.827483,-0.69748 1.890952,9.53244 2.976003,16.47645 2.976003,21.73098 0,10.32306 -5.254531,15.77906 -15.267491,15.77906 -2.387052,0 -4.464004,-0.496 -4.665579,-0.496 -0.09295,-0.10852 -0.294426,-0.20157 -0.294426,-0.29452 0,-0.20148 0.201475,-0.31 0.496001,-0.40305 4.665479,-0.69748 9.315484,-4.66548 9.315484,-11.00497 0,-5.36305 -4.061054,-11.02053 -11.501061,-11.02053 -6.944007,0 -11.408012,5.65748 -11.408012,12.19854"
     id="path5508"
     style="stroke-width:0.992001" />
  <path
     class="TimeSig"
     d="m 255.4255,129.143 c 7.93601,-3.08451 8.43201,-8.24601 8.43201,-10.02849 0,-0.20157 0,-0.38757 0,-0.496 0,-0.88357 -0.29442,-12.10558 -17.36002,-12.10558 -17.06549,0 -16.56949,12.10558 -16.56949,12.10558 h 0.093 l -0.093,0.20148 c 0,3.565 2.883,6.355 6.44801,6.355 3.56505,0 6.35505,-2.79 6.35505,-6.355 0,-2.88305 -2.18557,-5.65748 -4.96005,-6.24653 0.093,-0.10853 0.186,-0.20148 0.2945,-0.29453 1.37955,-0.992 3.2705,-1.488 5.16155,-1.488 4.15401,0 8.61801,2.48 8.61801,7.82758 0,6.24648 -4.65,7.14549 -5.84358,7.34698 -1.19347,0.20151 -6.74243,0.589 -7.93598,0.589 -1.1935,0 -1.2865,1.395 -1.2865,1.395 v 1.98401 c 0,0 0.186,1.085 1.2865,1.1935 1.68955,0.093 3.96798,0.093 7.14556,0.589 4.35548,0.589 6.634,3.565 6.634,10.50906 0,6.64948 -4.464,8.43201 -8.61801,8.43201 -2.79,0 -5.36305,-0.79053 -6.44805,-1.58105 3.27048,-0.20148 5.95205,-3.06895 5.95205,-6.35496 0,-3.56505 -2.79,-6.44805 -6.35505,-6.44805 -3.56501,0 -6.44801,2.883 -6.44801,6.44805 0,0 0,0.20148 0,0.40295 0,1.28653 0.29451,4.86706 3.87501,8.13749 3.8595,3.56505 8.72648,3.67357 10.91206,3.67357 9.51696,0 19.84002,-3.286 19.84002,-14.08958 0,-7.23849 -4.96001,-10.32299 -9.33106,-11.70249 h 0.20147"
     id="path5510"
     style="stroke-width:0.992001" />
  <path
     class="TimeSig"
     d="m 245.16455,192.42949 v 7.33158 h -8.23054 c -0.69747,0 -1.39495,0.60443 -1.39495,1.39495 v 1.89105 c 0,0.79043 0.69748,1.37948 1.39495,1.37948 h 30.05456 c 0.806,0 1.39495,-0.58905 1.39495,-1.37948 v -1.89105 c 0,-0.79052 -0.58895,-1.39495 -1.39495,-1.39495 h -8.92801 v -7.33158 h 8.92801 c 0.806,0 1.39495,-0.69748 1.39495,-1.488 v -1.89098 c 0,-0.6975 -0.58895,-1.3795 -1.39495,-1.3795 h -8.92801 v -15.77902 c 0,-0.589 -0.29453,-1.085 -0.682,-1.2865 l -1.19348,-0.6045 c -0.20157,-0.093 -0.29452,-0.093 -0.496,-0.093 -0.10852,0 -0.10852,0 -0.20157,0 -0.29443,0 -0.69748,0.093 -0.89895,0.2945 l -9.02106,8.23051 c -0.29443,0.31 -0.40295,0.6975 -0.40295,1.1005 v 8.13751 h -11.50104 c 0,0 11.11356,-11.90401 22.816,-27.59008 0.40305,-0.496 0.496,-0.992 0.496,-1.37948 0,-0.496 -0.20148,-0.89895 -0.29443,-0.992 l -2.18557,-2.18547 c -0.29443,-0.20148 -0.58896,-0.40305 -0.99201,-0.40305 -0.58895,0 -13.99644,0 -14.78696,0 -0.69748,0 -1.19348,0.60452 -1.28653,1.19357 0,0 -0.496,7.34696 -3.069,15.37599 -2.5885,8.04451 -5.5645,13.00451 -8.1375,16.66252 0,0 -0.29451,0.496 -0.29451,1.1005 0,0.2015 0,0.38755 0.093,0.58903 0.29451,0.69747 0.992,1.78252 0.992,1.78252 0,0 0.20151,0.60443 1.085,0.60443 h 17.06555"
     id="path5512"
     style="stroke-width:0.992001" />
  <path
     class="Tempo"
     d="m 243.737,44.437 c 0.594,-0.094 0.984,-0.187 1.375,-0.187 1,0 1.984,0.484 2.578,1.484 0.203,0.391 0.297,0.891 0.297,1.375 0,1 -0.5,1.984 -1.188,2.687 -2.765,2.969 -10.203,7.125 -14.156,8.204 -0.391,0.203 -0.797,0.203 -1.187,0.203 -1.188,0 -2.188,-0.5 -2.782,-1.391 -0.187,-0.391 -0.297,-0.891 -0.297,-1.375 0,-0.891 0.407,-1.781 1.188,-2.672 2.984,-3.172 10,-6.937 14.172,-8.328 M 250.752,0 h -3.156 v 42.265 c -1.187,-0.594 -2.484,-0.984 -3.969,-1.187 -3.656,0 -6.437,0.5 -9.703,2.172 -5.14,2.781 -8.406,7.437 -8.406,11.296 0,4.157 3.359,6.422 7.219,6.922 3.672,0 6.437,-0.5 9.703,-2.281 5.047,-2.672 8.312,-7.125 8.312,-11.078 V 0"
     id="path5514" />
  <path
     class="Tempo"
     d="m 272.596,37.953 h 30.235 v -6.907 h -30.235 v 6.907 m 0,12.359 h 30.235 v -6.906 h -30.235 v 6.906 m 74.11,-19.141 c 3.968,-1.5 7.093,-3.843 7.093,-8.578 0,-5.531 -5.234,-9.25 -13.031,-9.25 -9.297,0 -15.297,4.985 -15.297,12.782 0,4.75 2.219,8.218 6.969,10.75 -1.859,0.593 -2.641,0.828 -3.672,1.375 -3,1.562 -4.609,4.312 -4.609,7.796 0,6.485 5.812,10.625 14.937,10.625 9.656,0 16.203,-5.531 16.203,-13.75 0,-5.64 -2.765,-9.359 -8.593,-11.75 m -3.36,-1.265 c -2.515,-0.594 -4.375,-1.141 -5.515,-1.563 -2.75,-1.015 -4.563,-3.468 -4.563,-6.109 0,-3.313 2.766,-5.766 6.484,-5.766 4.016,0 6.547,2.641 6.547,6.844 0,2.703 -1.031,4.984 -2.953,6.594 m -7.672,8.578 c 2.453,0.672 5.453,1.562 6.953,2.047 3.782,1.312 5.219,2.937 5.219,6 0,4.078 -3.359,7.015 -8.094,7.015 -4.859,0 -7.796,-2.875 -7.796,-7.671 0,-3.188 1.015,-5.219 3.718,-7.391 m 38.078,-25.141 c -9,0 -15.593,9.188 -15.593,21.672 0,12.469 6.593,21.656 15.593,21.656 8.813,0 15.547,-9.187 15.547,-21.359 0,-7.078 -1.625,-12.297 -5.172,-16.75 -2.812,-3.406 -6.359,-5.219 -10.375,-5.219 m -0.062,3.125 c 1.797,0 3.25,1.078 3.906,3 0.781,1.985 1.25,8.282 1.25,15.719 0,6.188 -0.469,12.656 -1.015,14.703 -0.657,2.391 -2.094,3.656 -4.141,3.656 -1.859,0 -3.234,-1.015 -3.953,-3 -0.781,-1.984 -1.266,-8.343 -1.266,-15.531 0,-6.312 0.485,-12.844 1.016,-14.89 0.672,-2.391 2.109,-3.657 4.203,-3.657"
     id="path5516" />
  <path
     class="VoltaSegment"
     d="m 1737.842,39.326 h -1.92 c -3.47,2.594 -7.38,3.688 -13.92,3.797 v 3.078 h 2.31 c 4.89,0 4.95,0.11 4.89,4.625 v 19.516 c 0,3.406 0,3.578 -0.38,4.125 -0.5,0.609 -1.61,0.828 -4.57,0.828 h -1.75 v 2.969 h 21.93 v -2.969 h -1.76 c -2.91,0 -3.96,-0.219 -4.46,-0.828 -0.37,-0.547 -0.37,-0.766 -0.37,-4.125 V 39.326 m 19.23,29.422 c -2.86,0 -5.17,2.313 -5.17,5.172 0,2.797 2.31,5.172 5.13,5.172 2.9,0 5.22,-2.313 5.22,-5.172 0,-2.859 -2.32,-5.172 -5.18,-5.172"
     id="path5518" />
  <polyline
     class="VoltaSegment"
     fill="none"
     stroke="#000000"
     stroke-width="2.73"
     stroke-linejoin="miter"
     stroke-miterlimit="2"
     points="1919.15,679.947 1919.15,625.387 3292.49,625.387 3292.49,679.947"
     id="polyline5520"
     transform="translate(-212.598,-601.683)" />
  <polyline
     class="VoltaSegment"
     fill="none"
     stroke="#000000"
     stroke-width="2.73"
     stroke-linejoin="miter"
     stroke-miterlimit="2"
     points="319.471,1010.24 971.915,1010.24"
     id="polyline5522"
     transform="translate(-212.598,-601.683)" />
  <path
     class="VoltaSegment"
     d="m 3103.452,416.857 h -1.93 c -3.46,2.6 -7.37,3.69 -13.92,3.8 v 3.08 h 2.32 c 4.89,0 4.95,0.11 4.89,4.62 v 19.52 c 0,3.41 0,3.58 -0.38,4.12 -0.5,0.61 -1.61,0.83 -4.58,0.83 h -1.75 v 2.97 h 21.94 v -2.97 h -1.77 c -2.9,0 -3.95,-0.22 -4.45,-0.83 -0.37,-0.54 -0.37,-0.76 -0.37,-4.12 v -31.02 m 19.23,29.43 c -2.86,0 -5.17,2.31 -5.17,5.17 0,2.79 2.31,5.17 5.12,5.17 2.91,0 5.22,-2.31 5.22,-5.17 0,-2.86 -2.31,-5.17 -5.17,-5.17"
     id="path5524" />
  <polyline
     class="VoltaSegment"
     fill="none"
     stroke="#000000"
     stroke-width="2.73"
     stroke-linejoin="miter"
     stroke-miterlimit="2"
     points="3284.76,1057.48 3284.76,1002.92 3624.99,1002.92 3624.99,1057.48"
     id="polyline5526"
     transform="translate(-212.598,-601.683)" />
  <path
     class="VoltaSegment"
     d="m 3477.052,441.177 -0.61,2.75 c -0.5,2.2 -0.82,2.9 -1.26,3.18 -0.55,0.39 -0.66,0.39 -4.13,0.44 h -10.61 c 1.93,-1.66 3.36,-2.69 5.5,-4.12 7.75,-5 9.35,-6.22 10.94,-8.25 1.88,-2.47 2.97,-5.39 2.97,-7.97 0,-5.89 -5.77,-10.35 -13.52,-10.35 -7.48,0 -13.26,4.85 -13.26,11.11 0,3.85 2.16,6.33 5.45,6.33 2.86,0 4.67,-1.81 4.67,-4.67 0,-2.38 -1.04,-3.75 -3.57,-4.95 -0.61,-0.29 -0.88,-0.61 -0.88,-1.05 0,-1.77 2.97,-3.63 5.72,-3.63 3.84,0 6.05,2.36 6.05,6.44 0,4.56 -1.77,7.8 -7.6,14.02 -6.15,6.54 -8.29,9.01 -11.04,12.98 v 2.58 c 1.42,-0.16 2.03,-0.22 2.86,-0.22 h 20.67 c 1.04,0 1.7,0.06 3.36,0.22 l 1.26,-14.84 h -2.97 m 13.41,5.11 c -2.86,0 -5.17,2.31 -5.17,5.17 0,2.79 2.31,5.17 5.12,5.17 2.91,0 5.22,-2.31 5.22,-5.17 0,-2.86 -2.31,-5.17 -5.17,-5.17"
     id="path5528" />
  <polyline
     class="VoltaSegment"
     fill="none"
     stroke="#000000"
     stroke-width="2.73"
     stroke-linejoin="miter"
     stroke-miterlimit="2"
     points="3649.54,1057.48 3649.54,1002.92 3994.83,1002.92"
     id="polyline5530"
     transform="translate(-212.598,-601.683)" />
  <path
     class="VoltaSegment"
     d="m 3144.552,63.639 -0.6,2.75 c -0.5,2.203 -0.83,2.906 -1.27,3.187 -0.55,0.391 -0.66,0.391 -4.13,0.438 h -10.6 c 1.92,-1.656 3.35,-2.688 5.5,-4.125 7.75,-5 9.34,-6.219 10.93,-8.25 1.88,-2.469 2.97,-5.391 2.97,-7.969 0,-5.891 -5.76,-10.344 -13.51,-10.344 -7.49,0 -13.27,4.844 -13.27,11.11 0,3.843 2.16,6.328 5.45,6.328 2.86,0 4.68,-1.813 4.68,-4.672 0,-2.375 -1.05,-3.75 -3.58,-4.953 -0.61,-0.281 -0.88,-0.61 -0.88,-1.047 0,-1.766 2.97,-3.625 5.72,-3.625 3.84,0 6.05,2.359 6.05,6.437 0,4.563 -1.77,7.797 -7.6,14.016 -6.15,6.547 -8.29,9.016 -11.04,12.984 v 2.579 c 1.42,-0.157 2.03,-0.219 2.86,-0.219 h 20.67 c 1.05,0 1.7,0.062 3.36,0.219 l 1.26,-14.844 h -2.97 m 13.41,5.109 c -2.86,0 -5.17,2.313 -5.17,5.172 0,2.797 2.31,5.172 5.12,5.172 2.91,0 5.22,-2.313 5.22,-5.172 0,-2.859 -2.31,-5.172 -5.17,-5.172"
     id="path5532" />
  <polyline
     class="VoltaSegment"
     fill="none"
     stroke="#000000"
     stroke-width="2.73"
     stroke-linejoin="miter"
     stroke-miterlimit="2"
     points="3317.04,679.947 3317.04,625.387 3985.53,625.387"
     id="polyline5534"
     transform="translate(-212.598,-601.683)" />
  <path
     class="NoteDot"
     d="m 511.177,544.957 c 0,2.77451 2.18551,4.96001 4.96,4.96001 2.77451,0 4.96001,-2.1855 4.96001,-4.96001 0,-2.77451 -2.1855,-4.96001 -4.96001,-4.96001 -2.77449,0 -4.96,2.1855 -4.96,4.96001"
     id="path5536"
     style="stroke-width:0.992001" />
  <path
     class="NoteDot"
     d="m 3513.932,544.957 c 0,2.77451 2.1855,4.96001 4.96,4.96001 2.7745,0 4.96,-2.1855 4.96,-4.96001 0,-2.77451 -2.1855,-4.96001 -4.96,-4.96001 -2.7745,0 -4.96,2.1855 -4.96,4.96001"
     id="path5538"
     style="stroke-width:0.992001" />
  <path
     class="NoteDot"
     d="m 2800.232,167.428 c 0,2.77451 2.1855,4.96 4.96,4.96 2.7745,0 4.96,-2.18549 4.96,-4.96 0,-2.77451 -2.1855,-4.96001 -4.96,-4.96001 -2.7745,0 -4.96,2.1855 -4.96,4.96001"
     id="path5540"
     style="stroke-width:0.992001" />
</svg>
