<?xml version="1.0" encoding="UTF-8" standalone="no"?>
<svg
   xmlns:dc="http://purl.org/dc/elements/1.1/"
   xmlns:cc="http://creativecommons.org/ns#"
   xmlns:rdf="http://www.w3.org/1999/02/22-rdf-syntax-ns#"
   xmlns:svg="http://www.w3.org/2000/svg"
   xmlns="http://www.w3.org/2000/svg"
   xmlns:sodipodi="http://sodipodi.sourceforge.net/DTD/sodipodi-0.dtd"
   xmlns:inkscape="http://www.inkscape.org/namespaces/inkscape"
   width="258.20526mm"
   height="14.069298mm"
   viewBox="0 0 3659.6022 199.40737"
   version="1.2"
   id="svg9001"
   sodipodi:docname="Dossium Canto Wantrouwen Musica.svg"
   inkscape:version="1.0.2-2 (e86c870879, 2021-01-15)"
   inkscape:export-filename="C:\Users\slagt\Music\Dossia\Dossium Canto Wantrouwen\Dossium Canto Wantrouwen Musica.png"
   inkscape:export-xdpi="176"
   inkscape:export-ydpi="176">
  <metadata
     id="metadata9007">
    <rdf:RDF>
      <cc:Work
         rdf:about="">
        <dc:format>image/svg+xml</dc:format>
        <dc:type
           rdf:resource="http://purl.org/dc/dcmitype/StillImage" />
      </cc:Work>
    </rdf:RDF>
  </metadata>
  <defs
     id="defs9005" />
  <sodipodi:namedview
     pagecolor="#ffffff"
     bordercolor="#666666"
     borderopacity="1"
     objecttolerance="10"
     gridtolerance="10"
     guidetolerance="10"
     inkscape:pageopacity="0"
     inkscape:pageshadow="2"
     inkscape:window-width="1920"
     inkscape:window-height="991"
     id="namedview9003"
     showgrid="false"
     inkscape:zoom="1.0328497"
     inkscape:cx="471.36053"
     inkscape:cy="237.41743"
     inkscape:window-x="-9"
     inkscape:window-y="-9"
     inkscape:window-maximized="1"
     inkscape:current-layer="svg9001" />
  <title
     id="title8693">Dossium Canto Wantrouwen Musica</title>
  <desc
     id="desc8695">Generated by MuseScore Studio 4.5.2</desc>
  <polyline
     class="StaffLines"
     fill="none"
     stroke="#000000"
     stroke-width="2.73"
     stroke-linejoin="bevel"
     points="336.598,634.198 3996.2,634.198"
     id="polyline8699"
     transform="translate(-336.598,-598.28462)" />
  <polyline
     class="StaffLines"
     fill="none"
     stroke="#000000"
     stroke-width="2.73"
     stroke-linejoin="bevel"
     points="336.598,658.998 3996.2,658.998"
     id="polyline8701"
     transform="translate(-336.598,-598.28462)" />
  <polyline
     class="StaffLines"
     fill="none"
     stroke="#000000"
     stroke-width="2.73"
     stroke-linejoin="bevel"
     points="336.598,683.798 3996.2,683.798"
     id="polyline8703"
     transform="translate(-336.598,-598.28462)" />
  <polyline
     class="StaffLines"
     fill="none"
     stroke="#000000"
     stroke-width="2.73"
     stroke-linejoin="bevel"
     points="336.598,708.598 3996.2,708.598"
     id="polyline8705"
     transform="translate(-336.598,-598.28462)" />
  <polyline
     class="StaffLines"
     fill="none"
     stroke="#000000"
     stroke-width="2.73"
     stroke-linejoin="bevel"
     points="336.598,733.398 3996.2,733.398"
     id="polyline8707"
     transform="translate(-336.598,-598.28462)" />
  <path
     class="TieSegment"
     stroke="#000000"
     stroke-width="1.24"
     stroke-linecap="round"
     stroke-linejoin="round"
     fill-rule="evenodd"
     d="m 3234.232,165.61038 c 22.74,17.559 90.96,17.559 113.71,0 -22.75,25.495 -90.97,25.495 -113.71,0"
     id="path8717" />
  <path
     class="TieSegment"
     stroke="#000000"
     stroke-width="1.24"
     stroke-linecap="round"
     stroke-linejoin="round"
     fill-rule="evenodd"
     d="m 2858.672,165.61038 c 22.74,17.559 90.96,17.559 113.7,0 -22.74,25.495 -90.96,25.495 -113.7,0"
     id="path8719" />
  <polyline
     class="BarLine"
     fill="none"
     stroke="#000000"
     stroke-width="4.46"
     stroke-linejoin="bevel"
     points="3638.56,632.834 3638.56,734.762"
     id="polyline8721"
     transform="translate(-336.598,-598.28462)" />
  <polyline
     class="BarLine"
     fill="none"
     stroke="#000000"
     stroke-width="4.46"
     stroke-linejoin="bevel"
     points="3262.99,632.834 3262.99,734.762"
     id="polyline8723"
     transform="translate(-336.598,-598.28462)" />
  <polyline
     class="BarLine"
     fill="none"
     stroke="#000000"
     stroke-width="4.46"
     stroke-linejoin="bevel"
     points="1234.54,632.834 1234.54,734.762"
     id="polyline8725"
     transform="translate(-336.598,-598.28462)" />
  <polyline
     class="BarLine"
     fill="none"
     stroke="#000000"
     stroke-width="4.46"
     stroke-linejoin="bevel"
     points="1942.84,632.834 1942.84,734.762"
     id="polyline8727"
     transform="translate(-336.598,-598.28462)" />
  <polyline
     class="BarLine"
     fill="none"
     stroke="#000000"
     stroke-width="4.46"
     stroke-linejoin="bevel"
     points="1576.29,632.834 1576.29,734.762"
     id="polyline8729"
     transform="translate(-336.598,-598.28462)" />
  <polyline
     class="BarLine"
     fill="none"
     stroke="#000000"
     stroke-width="13.64"
     stroke-linejoin="bevel"
     points="2310.55,632.834 2310.55,734.762"
     id="polyline8731"
     transform="translate(-336.598,-598.28462)" />
  <polyline
     class="BarLine"
     fill="none"
     stroke="#000000"
     stroke-width="4.46"
     stroke-linejoin="bevel"
     points="2328.78,632.834 2328.78,734.762"
     id="polyline8733"
     transform="translate(-336.598,-598.28462)" />
  <path
     class="BarLine"
     d="m 2013.905,73.113376 c 0,-2.883 -2.294,-5.254505 -5.1615,-5.254505 -2.883,0 -5.1615,2.371505 -5.1615,5.254505 0,2.883 2.2785,5.254505 5.1615,5.254505 2.8675,0 5.1615,-2.371505 5.1615,-5.254505"
     id="path8735"
     style="stroke-width:0.992" />
  <path
     class="BarLine"
     d="m 2013.905,97.913376 c 0,-2.883 -2.294,-5.254505 -5.1615,-5.254505 -2.883,0 -5.1615,2.371505 -5.1615,5.254505 0,2.883004 2.2785,5.254504 5.1615,5.254504 2.8675,0 5.1615,-2.3715 5.1615,-5.254504"
     id="path8737"
     style="stroke-width:0.992" />
  <path
     class="BarLine"
     d="m 1944.325,73.113376 c 0,-2.883 -2.294,-5.254505 -5.1615,-5.254505 -2.883,0 -5.1615,2.371505 -5.1615,5.254505 0,2.883 2.2785,5.254505 5.1615,5.254505 2.8675,0 5.1615,-2.371505 5.1615,-5.254505"
     id="path8739"
     style="stroke-width:0.992" />
  <path
     class="BarLine"
     d="m 1944.325,97.913376 c 0,-2.883 -2.294,-5.254505 -5.1615,-5.254505 -2.883,0 -5.1615,2.371505 -5.1615,5.254505 0,2.883004 2.2785,5.254504 5.1615,5.254504 2.8675,0 5.1615,-2.3715 5.1615,-5.254504"
     id="path8741"
     style="stroke-width:0.992" />
  <polyline
     class="BarLine"
     fill="none"
     stroke="#000000"
     stroke-width="4.46"
     stroke-linejoin="bevel"
     points="2292.32,632.834 2292.32,734.762"
     id="polyline8743"
     transform="translate(-336.598,-598.28462)" />
  <polyline
     class="BarLine"
     fill="none"
     stroke="#000000"
     stroke-width="13.64"
     stroke-linejoin="bevel"
     points="2310.55,632.834 2310.55,734.762"
     id="polyline8745"
     transform="translate(-336.598,-598.28462)" />
  <polyline
     class="BarLine"
     fill="none"
     stroke="#000000"
     stroke-width="4.46"
     stroke-linejoin="bevel"
     points="2673.53,632.834 2673.53,734.762"
     id="polyline8747"
     transform="translate(-336.598,-598.28462)" />
  <path
     class="BarLine"
     d="m 3623.155,73.113376 c 0,-2.883 -2.294,-5.254505 -5.1615,-5.254505 -2.883,0 -5.1615,2.371505 -5.1615,5.254505 0,2.883 2.2785,5.254505 5.1615,5.254505 2.8675,0 5.1615,-2.371505 5.1615,-5.254505"
     id="path8749"
     style="stroke-width:0.992" />
  <path
     class="BarLine"
     d="m 3623.155,97.913376 c 0,-2.883 -2.294,-5.254505 -5.1615,-5.254505 -2.883,0 -5.1615,2.371505 -5.1615,5.254505 0,2.883004 2.2785,5.254504 5.1615,5.254504 2.8675,0 5.1615,-2.3715 5.1615,-5.254504"
     id="path8751"
     style="stroke-width:0.992" />
  <polyline
     class="BarLine"
     fill="none"
     stroke="#000000"
     stroke-width="4.46"
     stroke-linejoin="bevel"
     points="3971.15,632.834 3971.15,734.762"
     id="polyline8753"
     transform="translate(-336.598,-598.28462)" />
  <polyline
     class="BarLine"
     fill="none"
     stroke="#000000"
     stroke-width="13.64"
     stroke-linejoin="bevel"
     points="3989.38,632.834 3989.38,734.762"
     id="polyline8755"
     transform="translate(-336.598,-598.28462)" />
  <polyline
     class="BarLine"
     fill="none"
     stroke="#000000"
     stroke-width="4.46"
     stroke-linejoin="bevel"
     points="2956.92,632.834 2956.92,734.762"
     id="polyline8757"
     transform="translate(-336.598,-598.28462)" />
  <polyline
     class="BarLine"
     fill="none"
     stroke="#000000"
     stroke-width="4.46"
     stroke-linejoin="bevel"
     points="869.733,632.834 869.733,734.762"
     id="polyline8759"
     transform="translate(-336.598,-598.28462)" />
  <path
     class="Accidental"
     d="m 3418.733,129.36285 c -0.186,-0.20147 -0.496,-0.29452 -0.7905,-0.29452 -0.093,0 -0.2945,0.0931 -0.3875,0.0931 l -12.5085,3.472 v -17.36 h -2.7745 v 49.104 c 0,0.79052 0.589,1.28652 1.395,1.28652 0.093,0 0.2945,0 0.3875,0 l 12.5085,-3.472 v 17.36 h 2.666 c 0,-16.46105 0,-32.13152 0,-49.104 0,-0.38757 -0.186,-0.88357 -0.496,-1.08505 m -13.6865,27.77603 v -16.27501 l 11.5165,-3.27049 v 16.368 l -11.5165,3.1775"
     id="path8761"
     style="stroke-width:0.992" />
  <path
     class="Accidental"
     d="m 2833.6725,137.09738 c 0.6045,-0.093 1.1005,-0.79053 1.1005,-1.39505 v -5.84348 c 0,-0.79052 -0.6045,-1.39495 -1.395,-1.39495 -0.093,0 -0.093,0 -0.2015,0 l -3.2705,0.69748 v -14.78705 h -2.7745 v 15.376 l -8.835,1.798 V 117.5519 h -2.7745 v 14.58548 l -3.875,0.79052 c -0.589,0.10843 -1.085,0.79043 -1.085,1.39495 v 0.20148 5.75054 -0.20149 c 0,0.79049 0.589,1.395 1.395,1.395 0.093,0 0.186,0 0.2945,0 l 3.2705,-0.69751 v 16.36801 l -3.875,0.7905 c -0.589,0.0931 -1.085,0.79052 -1.085,1.39505 v 5.75042 c 0,0.79053 0.589,1.37958 1.395,1.37958 0.093,0 0.186,0 0.2945,0 l 3.2705,-0.682 v 14.77147 h 2.7745 v -15.376 l 8.835,-1.78252 v 13.99652 h 2.7745 v -14.58547 l 3.7665,-0.69758 c 0.6045,-0.10842 1.1005,-0.79042 1.1005,-1.39495 v -5.84352 c 0,-0.806 -0.6045,-1.395 -1.395,-1.395 -0.093,0 -0.093,0 -0.2015,0 l -3.2705,0.6975 v -16.36801 l 3.7665,-0.69749 m -15.376,3.069 8.835,-1.78251 v 16.36801 l -8.835,1.891 v -16.4765"
     id="path8763"
     style="stroke-width:0.992" />
  <path
     class="Accidental"
     d="m 2528.1625,137.09738 c 0.6045,-0.093 1.1005,-0.79053 1.1005,-1.39505 v -5.84348 c 0,-0.79052 -0.6045,-1.39495 -1.395,-1.39495 -0.093,0 -0.093,0 -0.2015,0 l -3.2705,0.69748 v -14.78705 h -2.7745 v 15.376 l -8.835,1.798 V 117.5519 h -2.7745 v 14.58548 l -3.875,0.79052 c -0.589,0.10843 -1.085,0.79043 -1.085,1.39495 v 0.20148 5.75054 -0.20149 c 0,0.79049 0.589,1.395 1.395,1.395 0.093,0 0.186,0 0.2945,0 l 3.2705,-0.69751 v 16.36801 l -3.875,0.7905 c -0.589,0.0931 -1.085,0.79052 -1.085,1.39505 v 5.75042 c 0,0.79053 0.589,1.37958 1.395,1.37958 0.093,0 0.186,0 0.2945,0 l 3.2705,-0.682 v 14.77147 h 2.7745 v -15.376 l 8.835,-1.78252 v 13.99652 h 2.7745 v -14.58547 l 3.7665,-0.69758 c 0.6045,-0.10842 1.1005,-0.79042 1.1005,-1.39495 v -5.84352 c 0,-0.806 -0.6045,-1.395 -1.395,-1.395 -0.093,0 -0.093,0 -0.2015,0 l -3.2705,0.6975 v -16.36801 l 3.7665,-0.69749 m -15.376,3.069 8.835,-1.78251 v 16.36801 l -8.835,1.891 v -16.4765"
     id="path8765"
     style="stroke-width:0.992" />
  <path
     class="Accidental"
     d="m 1647.7025,137.09738 c 0.6045,-0.093 1.1005,-0.79053 1.1005,-1.39505 v -5.84348 c 0,-0.79052 -0.6045,-1.39495 -1.395,-1.39495 -0.093,0 -0.093,0 -0.2015,0 l -3.2705,0.69748 v -14.78705 h -2.7745 v 15.376 l -8.835,1.798 V 117.5519 h -2.7745 v 14.58548 l -3.875,0.79052 c -0.589,0.10843 -1.085,0.79043 -1.085,1.39495 v 0.20148 5.75054 -0.20149 c 0,0.79049 0.589,1.395 1.395,1.395 0.093,0 0.186,0 0.2945,0 l 3.2705,-0.69751 v 16.36801 l -3.875,0.7905 c -0.589,0.0931 -1.085,0.79052 -1.085,1.39505 v 5.75042 c 0,0.79053 0.589,1.37958 1.395,1.37958 0.093,0 0.186,0 0.2945,0 l 3.2705,-0.682 v 14.77147 h 2.7745 v -15.376 l 8.835,-1.78252 v 13.99652 h 2.7745 v -14.58547 l 3.7665,-0.69758 c 0.6045,-0.10842 1.1005,-0.79042 1.1005,-1.39495 v -5.84352 c 0,-0.806 -0.6045,-1.395 -1.395,-1.395 -0.093,0 -0.093,0 -0.2015,0 l -3.2705,0.6975 v -16.36801 l 3.7665,-0.69749 m -15.376,3.069 8.835,-1.78251 v 16.36801 l -8.835,1.891 v -16.4765"
     id="path8767"
     style="stroke-width:0.992" />
  <path
     class="Accidental"
     d="m 641.72452,137.09738 c 0.60453,-0.093 1.10053,-0.79053 1.10053,-1.39505 v -5.84348 c 0,-0.79052 -0.60453,-1.39495 -1.39505,-1.39495 -0.0929,0 -0.0929,0 -0.20148,0 l -3.27052,0.69748 v -14.78705 h -2.77452 v 15.376 l -8.83498,1.798 V 117.5519 h -2.7745 v 14.58548 l -3.875,0.79052 c -0.589,0.10843 -1.085,0.79043 -1.085,1.39495 v 0.20148 5.75054 -0.20149 c 0,0.79049 0.589,1.395 1.395,1.395 0.093,0 0.186,0 0.2945,0 l 3.2705,-0.69751 v 16.36801 l -3.875,0.7905 c -0.589,0.0931 -1.085,0.79052 -1.085,1.39505 v 5.75042 c 0,0.79053 0.589,1.37958 1.395,1.37958 0.093,0 0.186,0 0.2945,0 l 3.2705,-0.682 v 14.77147 h 2.7745 v -15.376 l 8.83498,-1.78252 v 13.99652 h 2.77452 v -14.58547 l 3.76652,-0.69758 c 0.60453,-0.10842 1.10053,-0.79042 1.10053,-1.39495 v -5.84352 c 0,-0.806 -0.60453,-1.395 -1.39505,-1.395 -0.0929,0 -0.0929,0 -0.20148,0 l -3.27052,0.6975 v -16.36801 l 3.76652,-0.69749 m -15.37602,3.069 8.83498,-1.78251 v 16.36801 l -8.83498,1.891 v -16.4765"
     id="path8769"
     style="stroke-width:0.992" />
  <path
     class="Accidental"
     d="m 1160.7525,137.09738 c 0.6045,-0.093 1.1005,-0.79053 1.1005,-1.39505 v -5.84348 c 0,-0.79052 -0.6045,-1.39495 -1.395,-1.39495 -0.093,0 -0.093,0 -0.2015,0 l -3.2705,0.69748 v -14.78705 h -2.7745 v 15.376 l -8.835,1.798 V 117.5519 h -2.7745 v 14.58548 l -3.875,0.79052 c -0.589,0.10843 -1.085,0.79043 -1.085,1.39495 v 0.20148 5.75054 -0.20149 c 0,0.79049 0.589,1.395 1.395,1.395 0.093,0 0.186,0 0.2945,0 l 3.2705,-0.69751 v 16.36801 l -3.875,0.7905 c -0.589,0.0931 -1.085,0.79052 -1.085,1.39505 v 5.75042 c 0,0.79053 0.589,1.37958 1.395,1.37958 0.093,0 0.186,0 0.2945,0 l 3.2705,-0.682 v 14.77147 h 2.7745 v -15.376 l 8.835,-1.78252 v 13.99652 h 2.7745 v -14.58547 l 3.7665,-0.69758 c 0.6045,-0.10842 1.1005,-0.79042 1.1005,-1.39495 v -5.84352 c 0,-0.806 -0.6045,-1.395 -1.395,-1.395 -0.093,0 -0.093,0 -0.2015,0 l -3.2705,0.6975 v -16.36801 l 3.7665,-0.69749 m -15.376,3.069 8.835,-1.78251 v 16.36801 l -8.835,1.891 v -16.4765"
     id="path8771"
     style="stroke-width:0.992" />
  <path
     class="Accidental"
     d="m 3209.2325,137.09738 c 0.6045,-0.093 1.1005,-0.79053 1.1005,-1.39505 v -5.84348 c 0,-0.79052 -0.6045,-1.39495 -1.395,-1.39495 -0.093,0 -0.093,0 -0.2015,0 l -3.2705,0.69748 v -14.78705 h -2.7745 v 15.376 l -8.835,1.798 V 117.5519 h -2.7745 v 14.58548 l -3.875,0.79052 c -0.589,0.10843 -1.085,0.79043 -1.085,1.39495 v 0.20148 5.75054 -0.20149 c 0,0.79049 0.589,1.395 1.395,1.395 0.093,0 0.186,0 0.2945,0 l 3.2705,-0.69751 v 16.36801 l -3.875,0.7905 c -0.589,0.0931 -1.085,0.79052 -1.085,1.39505 v 5.75042 c 0,0.79053 0.589,1.37958 1.395,1.37958 0.093,0 0.186,0 0.2945,0 l 3.2705,-0.682 v 14.77147 h 2.7745 v -15.376 l 8.835,-1.78252 v 13.99652 h 2.7745 v -14.58547 l 3.7665,-0.69758 c 0.6045,-0.10842 1.1005,-0.79042 1.1005,-1.39495 v -5.84352 c 0,-0.806 -0.6045,-1.395 -1.395,-1.395 -0.093,0 -0.093,0 -0.2015,0 l -3.2705,0.6975 v -16.36801 l 3.7665,-0.69749 m -15.376,3.069 8.835,-1.78251 v 16.36801 l -8.835,1.891 v -16.4765"
     id="path8773"
     style="stroke-width:0.992" />
  <path
     class="Accidental"
     d="m 2120.2525,137.09738 c 0.6045,-0.093 1.1005,-0.79053 1.1005,-1.39505 v -5.84348 c 0,-0.79052 -0.6045,-1.39495 -1.395,-1.39495 -0.093,0 -0.093,0 -0.2015,0 l -3.2705,0.69748 v -14.78705 h -2.7745 v 15.376 l -8.835,1.798 V 117.5519 h -2.7745 v 14.58548 l -3.875,0.79052 c -0.589,0.10843 -1.085,0.79043 -1.085,1.39495 v 0.20148 5.75054 -0.20149 c 0,0.79049 0.589,1.395 1.395,1.395 0.093,0 0.186,0 0.2945,0 l 3.2705,-0.69751 v 16.36801 l -3.875,0.7905 c -0.589,0.0931 -1.085,0.79052 -1.085,1.39505 v 5.75042 c 0,0.79053 0.589,1.37958 1.395,1.37958 0.093,0 0.186,0 0.2945,0 l 3.2705,-0.682 v 14.77147 h 2.7745 v -15.376 l 8.835,-1.78252 v 13.99652 h 2.7745 v -14.58547 l 3.7665,-0.69758 c 0.6045,-0.10842 1.1005,-0.79042 1.1005,-1.39495 v -5.84352 c 0,-0.806 -0.6045,-1.395 -1.395,-1.395 -0.093,0 -0.093,0 -0.2015,0 l -3.2705,0.6975 v -16.36801 l 3.7665,-0.69749 m -15.376,3.069 8.835,-1.78251 v 16.36801 l -8.835,1.891 v -16.4765"
     id="path8775"
     style="stroke-width:0.992" />
  <path
     class="Accidental"
     d="m 1281.1525,137.09738 c 0.6045,-0.093 1.1005,-0.79053 1.1005,-1.39505 v -5.84348 c 0,-0.79052 -0.6045,-1.39495 -1.395,-1.39495 -0.093,0 -0.093,0 -0.2015,0 l -3.2705,0.69748 v -14.78705 h -2.7745 v 15.376 l -8.835,1.798 V 117.5519 h -2.7745 v 14.58548 l -3.875,0.79052 c -0.589,0.10843 -1.085,0.79043 -1.085,1.39495 v 0.20148 5.75054 -0.20149 c 0,0.79049 0.589,1.395 1.395,1.395 0.093,0 0.186,0 0.2945,0 l 3.2705,-0.69751 v 16.36801 l -3.875,0.7905 c -0.589,0.0931 -1.085,0.79052 -1.085,1.39505 v 5.75042 c 0,0.79053 0.589,1.37958 1.395,1.37958 0.093,0 0.186,0 0.2945,0 l 3.2705,-0.682 v 14.77147 h 2.7745 v -15.376 l 8.835,-1.78252 v 13.99652 h 2.7745 v -14.58547 l 3.7665,-0.69758 c 0.6045,-0.10842 1.1005,-0.79042 1.1005,-1.39495 v -5.84352 c 0,-0.806 -0.6045,-1.395 -1.395,-1.395 -0.093,0 -0.093,0 -0.2015,0 l -3.2705,0.6975 v -16.36801 l 3.7665,-0.69749 m -15.376,3.069 8.835,-1.78251 v 16.36801 l -8.835,1.891 v -16.4765"
     id="path8777"
     style="stroke-width:0.992" />
  <path
     class="Accidental"
     d="m 3127.183,129.36285 c -0.186,-0.20147 -0.496,-0.29452 -0.7905,-0.29452 -0.093,0 -0.2945,0.0931 -0.3875,0.0931 l -12.5085,3.472 v -17.36 h -2.7745 v 49.104 c 0,0.79052 0.589,1.28652 1.395,1.28652 0.093,0 0.2945,0 0.3875,0 l 12.5085,-3.472 v 17.36 h 2.666 c 0,-16.46105 0,-32.13152 0,-49.104 0,-0.38757 -0.186,-0.88357 -0.496,-1.08505 m -13.6865,27.77603 v -16.27501 l 11.5165,-3.27049 v 16.368 l -11.5165,3.1775"
     id="path8779"
     style="stroke-width:0.992" />
  <path
     class="Accidental"
     d="m 318.79652,137.09738 c 0.60453,-0.093 1.10053,-0.79053 1.10053,-1.39505 v -5.84348 c 0,-0.79052 -0.60453,-1.39495 -1.39505,-1.39495 -0.093,0 -0.093,0 -0.20148,0 l -3.27052,0.69748 v -14.78705 h -2.77452 v 15.376 l -8.83498,1.798 V 117.5519 h -2.7745 v 14.58548 l -3.875,0.79052 c -0.589,0.10843 -1.085,0.79043 -1.085,1.39495 v 0.20148 5.75054 -0.20149 c 0,0.79049 0.589,1.395 1.395,1.395 0.093,0 0.186,0 0.2945,0 l 3.2705,-0.69751 v 16.36801 l -3.875,0.7905 c -0.589,0.0931 -1.085,0.79052 -1.085,1.39505 v 5.75042 c 0,0.79053 0.589,1.37958 1.395,1.37958 0.093,0 0.186,0 0.2945,0 l 3.2705,-0.682 v 14.77147 h 2.7745 v -15.376 l 8.83498,-1.78252 V 177.3819 H 315.03 v -14.58547 l 3.76652,-0.69758 c 0.60453,-0.10842 1.10053,-0.79042 1.10053,-1.39495 v -5.84352 c 0,-0.806 -0.60453,-1.395 -1.39505,-1.395 -0.093,0 -0.093,0 -0.20148,0 l -3.27052,0.6975 v -16.36801 l 3.76652,-0.69749 m -15.37602,3.069 8.83498,-1.78251 v 16.36801 l -8.83498,1.891 v -16.4765"
     id="path8781"
     style="stroke-width:0.992" />
  <path
     class="Accidental"
     d="m 1767.453,129.36285 c -0.186,-0.20147 -0.496,-0.29452 -0.7905,-0.29452 -0.093,0 -0.2945,0.0931 -0.3875,0.0931 l -12.5085,3.472 v -17.36 h -2.7745 v 49.104 c 0,0.79052 0.589,1.28652 1.395,1.28652 0.093,0 0.2945,0 0.3875,0 l 12.5085,-3.472 v 17.36 h 2.666 c 0,-16.46105 0,-32.13152 0,-49.104 0,-0.38757 -0.186,-0.88357 -0.496,-1.08505 m -13.6865,27.77603 v -16.27501 l 11.5165,-3.27049 v 16.368 l -11.5165,3.1775"
     id="path8783"
     style="stroke-width:0.992" />
  <polyline
     class="LedgerLine"
     fill="none"
     stroke="#000000"
     stroke-width="3.97"
     stroke-linejoin="bevel"
     points="1419.45,758.198 1468.04,758.198"
     id="polyline8785"
     transform="translate(-336.598,-598.28462)" />
  <polyline
     class="LedgerLine"
     fill="none"
     stroke="#000000"
     stroke-width="3.97"
     stroke-linejoin="bevel"
     points="577.492,758.198 626.084,758.198"
     id="polyline8787"
     transform="translate(-336.598,-598.28462)" />
  <polyline
     class="LedgerLine"
     fill="none"
     stroke="#000000"
     stroke-width="3.97"
     stroke-linejoin="bevel"
     points="522.397,758.198 570.989,758.198"
     id="polyline8789"
     transform="translate(-336.598,-598.28462)" />
  <polyline
     class="LedgerLine"
     fill="none"
     stroke="#000000"
     stroke-width="3.97"
     stroke-linejoin="bevel"
     points="1364.35,758.198 1412.94,758.198"
     id="polyline8791"
     transform="translate(-336.598,-598.28462)" />
  <polyline
     class="LedgerLine"
     fill="none"
     stroke="#000000"
     stroke-width="3.97"
     stroke-linejoin="bevel"
     points="1766.58,758.198 1815.17,758.198"
     id="polyline8793"
     transform="translate(-336.598,-598.28462)" />
  <polyline
     class="LedgerLine"
     fill="none"
     stroke="#000000"
     stroke-width="3.97"
     stroke-linejoin="bevel"
     points="2157.66,758.198 2206.25,758.198"
     id="polyline8795"
     transform="translate(-336.598,-598.28462)" />
  <polyline
     class="LedgerLine"
     fill="none"
     stroke="#000000"
     stroke-width="3.97"
     stroke-linejoin="bevel"
     points="894.781,758.198 943.374,758.198"
     id="polyline8797"
     transform="translate(-336.598,-598.28462)" />
  <polyline
     class="LedgerLine"
     fill="none"
     stroke="#000000"
     stroke-width="3.97"
     stroke-linejoin="bevel"
     points="3836.49,758.198 3885.08,758.198"
     id="polyline8799"
     transform="translate(-336.598,-598.28462)" />
  <polyline
     class="Stem"
     fill="none"
     stroke="#000000"
     stroke-width="2.48"
     stroke-linejoin="bevel"
     points="3125.9,704.63 3125.9,621.798"
     id="polyline8801"
     transform="translate(-336.598,-598.28462)" />
  <polyline
     class="Stem"
     fill="none"
     stroke="#000000"
     stroke-width="2.48"
     stroke-linejoin="bevel"
     points="693.664,741.83 693.664,677.656"
     id="polyline8803"
     transform="translate(-336.598,-598.28462)" />
  <polyline
     class="Stem"
     fill="none"
     stroke="#000000"
     stroke-width="2.48"
     stroke-linejoin="bevel"
     points="3021.14,717.03 3021.14,634.198"
     id="polyline8805"
     transform="translate(-336.598,-598.28462)" />
  <polyline
     class="Stem"
     fill="none"
     stroke="#000000"
     stroke-width="2.48"
     stroke-linejoin="bevel"
     points="748.759,741.83 748.759,659.197"
     id="polyline8807"
     transform="translate(-336.598,-598.28462)" />
  <polyline
     class="Stem"
     fill="none"
     stroke="#000000"
     stroke-width="2.48"
     stroke-linejoin="bevel"
     points="1458.61,754.23 1458.61,681.203"
     id="polyline8809"
     transform="translate(-336.598,-598.28462)" />
  <polyline
     class="Stem"
     fill="none"
     stroke="#000000"
     stroke-width="2.48"
     stroke-linejoin="bevel"
     points="2412.48,704.63 2412.48,621.798"
     id="polyline8811"
     transform="translate(-336.598,-598.28462)" />
  <polyline
     class="Stem"
     fill="none"
     stroke="#000000"
     stroke-width="2.48"
     stroke-linejoin="bevel"
     points="1535.62,741.83 1535.62,677.656"
     id="polyline8813"
     transform="translate(-336.598,-598.28462)" />
  <polyline
     class="Stem"
     fill="none"
     stroke="#000000"
     stroke-width="2.48"
     stroke-linejoin="bevel"
     points="2632.86,717.03 2632.86,640.398"
     id="polyline8815"
     transform="translate(-336.598,-598.28462)" />
  <polyline
     class="Stem"
     fill="none"
     stroke="#000000"
     stroke-width="2.48"
     stroke-linejoin="bevel"
     points="2577.76,717.03 2577.76,640.398"
     id="polyline8817"
     transform="translate(-336.598,-598.28462)" />
  <polyline
     class="Stem"
     fill="none"
     stroke="#000000"
     stroke-width="2.48"
     stroke-linejoin="bevel"
     points="1298.75,717.03 1298.75,634.198"
     id="polyline8819"
     transform="translate(-336.598,-598.28462)" />
  <polyline
     class="Stem"
     fill="none"
     stroke="#000000"
     stroke-width="2.48"
     stroke-linejoin="bevel"
     points="1193.87,704.63 1193.87,634.267"
     id="polyline8821"
     transform="translate(-336.598,-598.28462)" />
  <polyline
     class="Stem"
     fill="none"
     stroke="#000000"
     stroke-width="2.48"
     stroke-linejoin="bevel"
     points="2077.67,741.83 2077.67,665.198"
     id="polyline8823"
     transform="translate(-336.598,-598.28462)" />
  <polyline
     class="Stem"
     fill="none"
     stroke="#000000"
     stroke-width="2.48"
     stroke-linejoin="bevel"
     points="1656.02,741.83 1656.02,659.197"
     id="polyline8825"
     transform="translate(-336.598,-598.28462)" />
  <polyline
     class="Stem"
     fill="none"
     stroke="#000000"
     stroke-width="2.48"
     stroke-linejoin="bevel"
     points="1138.77,704.63 1138.77,637.298"
     id="polyline8827"
     transform="translate(-336.598,-598.28462)" />
  <polyline
     class="Stem"
     fill="none"
     stroke="#000000"
     stroke-width="2.48"
     stroke-linejoin="bevel"
     points="1723.11,717.03 1723.11,634.198"
     id="polyline8829"
     transform="translate(-336.598,-598.28462)" />
  <polyline
     class="Stem"
     fill="none"
     stroke="#000000"
     stroke-width="2.48"
     stroke-linejoin="bevel"
     points="2737.74,741.83 2737.74,658.998"
     id="polyline8831"
     transform="translate(-336.598,-598.28462)" />
  <polyline
     class="Stem"
     fill="none"
     stroke="#000000"
     stroke-width="2.48"
     stroke-linejoin="bevel"
     points="1805.75,754.23 1805.75,671.398"
     id="polyline8833"
     transform="translate(-336.598,-598.28462)" />
  <polyline
     class="Stem"
     fill="none"
     stroke="#000000"
     stroke-width="2.48"
     stroke-linejoin="bevel"
     points="3327.21,741.83 3327.21,640.33"
     id="polyline8835"
     transform="translate(-336.598,-598.28462)" />
  <polyline
     class="Stem"
     fill="none"
     stroke="#000000"
     stroke-width="2.48"
     stroke-linejoin="bevel"
     points="561.565,754.23 561.565,683.741"
     id="polyline8837"
     transform="translate(-336.598,-598.28462)" />
  <polyline
     class="Stem"
     fill="none"
     stroke="#000000"
     stroke-width="2.48"
     stroke-linejoin="bevel"
     points="1083.68,741.83 1083.68,640.33"
     id="polyline8839"
     transform="translate(-336.598,-598.28462)" />
  <polyline
     class="Stem"
     fill="none"
     stroke="#000000"
     stroke-width="2.48"
     stroke-linejoin="bevel"
     points="1888.39,741.83 1888.39,659.197"
     id="polyline8841"
     transform="translate(-336.598,-598.28462)" />
  <polyline
     class="Stem"
     fill="none"
     stroke="#000000"
     stroke-width="2.48"
     stroke-linejoin="bevel"
     points="2196.83,754.23 2196.83,671.398"
     id="polyline8843"
     transform="translate(-336.598,-598.28462)" />
  <polyline
     class="Stem"
     fill="none"
     stroke="#000000"
     stroke-width="2.48"
     stroke-linejoin="bevel"
     points="2903.03,741.83 2903.03,658.998"
     id="polyline8845"
     transform="translate(-336.598,-598.28462)" />
  <polyline
     class="Stem"
     fill="none"
     stroke="#000000"
     stroke-width="2.48"
     stroke-linejoin="bevel"
     points="1016.59,741.83 1016.59,659.197"
     id="polyline8847"
     transform="translate(-336.598,-598.28462)" />
  <polyline
     class="Stem"
     fill="none"
     stroke="#000000"
     stroke-width="2.48"
     stroke-linejoin="bevel"
     points="2022.57,741.83 2022.57,665.198"
     id="polyline8849"
     transform="translate(-336.598,-598.28462)" />
  <polyline
     class="Stem"
     fill="none"
     stroke="#000000"
     stroke-width="2.48"
     stroke-linejoin="bevel"
     points="3382.31,717.03 3382.31,637.298"
     id="polyline8851"
     transform="translate(-336.598,-598.28462)" />
  <polyline
     class="Stem"
     fill="none"
     stroke="#000000"
     stroke-width="2.48"
     stroke-linejoin="bevel"
     points="3437.4,717.03 3437.4,634.267"
     id="polyline8853"
     transform="translate(-336.598,-598.28462)" />
  <polyline
     class="Stem"
     fill="none"
     stroke="#000000"
     stroke-width="2.48"
     stroke-linejoin="bevel"
     points="3501.46,741.83 3501.46,658.998"
     id="polyline8855"
     transform="translate(-336.598,-598.28462)" />
  <polyline
     class="Stem"
     fill="none"
     stroke="#000000"
     stroke-width="2.48"
     stroke-linejoin="bevel"
     points="1403.52,754.23 1403.52,683.741"
     id="polyline8857"
     transform="translate(-336.598,-598.28462)" />
  <polyline
     class="Stem"
     fill="none"
     stroke="#000000"
     stroke-width="2.48"
     stroke-linejoin="bevel"
     points="2820.39,704.63 2820.39,621.798"
     id="polyline8859"
     transform="translate(-336.598,-598.28462)" />
  <polyline
     class="Stem"
     fill="none"
     stroke="#000000"
     stroke-width="2.48"
     stroke-linejoin="bevel"
     points="3584.1,741.83 3584.1,659.197"
     id="polyline8861"
     transform="translate(-336.598,-598.28462)" />
  <polyline
     class="Stem"
     fill="none"
     stroke="#000000"
     stroke-width="2.48"
     stroke-linejoin="bevel"
     points="933.95,754.23 933.95,671.398"
     id="polyline8863"
     transform="translate(-336.598,-598.28462)" />
  <polyline
     class="Stem"
     fill="none"
     stroke="#000000"
     stroke-width="2.48"
     stroke-linejoin="bevel"
     points="3702.77,741.83 3702.77,659.197"
     id="polyline8865"
     transform="translate(-336.598,-598.28462)" />
  <polyline
     class="Stem"
     fill="none"
     stroke="#000000"
     stroke-width="2.48"
     stroke-linejoin="bevel"
     points="3793.01,741.83 3793.01,658.998"
     id="polyline8867"
     transform="translate(-336.598,-598.28462)" />
  <polyline
     class="Stem"
     fill="none"
     stroke="#000000"
     stroke-width="2.48"
     stroke-linejoin="bevel"
     points="2495.12,741.83 2495.12,658.998"
     id="polyline8869"
     transform="translate(-336.598,-598.28462)" />
  <polyline
     class="Stem"
     fill="none"
     stroke="#000000"
     stroke-width="2.48"
     stroke-linejoin="bevel"
     points="3875.66,754.23 3875.66,671.398"
     id="polyline8871"
     transform="translate(-336.598,-598.28462)" />
  <polyline
     class="Stem"
     fill="none"
     stroke="#000000"
     stroke-width="2.48"
     stroke-linejoin="bevel"
     points="616.66,754.23 616.66,681.203"
     id="polyline8873"
     transform="translate(-336.598,-598.28462)" />
  <polyline
     class="Stem"
     fill="none"
     stroke="#000000"
     stroke-width="2.48"
     stroke-linejoin="bevel"
     points="815.843,717.03 815.843,634.198"
     id="polyline8875"
     transform="translate(-336.598,-598.28462)" />
  <polyline
     class="Stem"
     fill="none"
     stroke="#000000"
     stroke-width="2.48"
     stroke-linejoin="bevel"
     points="3208.54,741.83 3208.54,659.197"
     id="polyline8877"
     transform="translate(-336.598,-598.28462)" />
  <polyline
     class="Stem"
     fill="none"
     stroke="#000000"
     stroke-width="2.48"
     stroke-linejoin="bevel"
     points="2141.73,741.83 2141.73,665.198"
     id="polyline8879"
     transform="translate(-336.598,-598.28462)" />
  <path
     class="Hook"
     d="m 1318.182,83.234851 c 0,0.294525 0.093,0.790525 0.7905,1.08505 4.2625,1.39495 12.803,6.758 19.251,17.762949 1.7825,3.06905 4.6655,7.34705 4.6655,15.57758 0,7.14547 -1.891,14.47695 -4.464,21.62242 -0.2015,0.60453 -0.403,1.10053 -0.31,1.488 0,0.40305 0.1085,0.69758 0.496,0.89905 0.2015,0.0929 0.403,0.0929 0.496,0.0929 0.6975,0 1.1935,-0.38747 1.5965,-1.08495 4.6655,-8.246 6.2465,-18.75505 6.1535,-25.00147 0,-0.496 0,-0.79053 0,-1.19358 -0.496,-12.80295 -7.843,-22.226949 -7.843,-22.226949 0.2945,0 -9.1295,-12.198525 -11.811,-16.368 -3.658,-5.657525 -5.3475,-11.299525 -5.549,-11.702525 -0.093,-0.294495 -0.992,-3.875 -0.992,-3.875 -0.093,-0.3875 -0.589,-0.790505 -1.1935,-0.790505 -0.6975,0 -1.2865,0.604505 -1.2865,1.286505 v 22.428475"
     id="path8881"
     style="stroke-width:0.992" />
  <path
     class="Hook"
     d="m 3246.262,83.234851 c 0,0.294525 0.093,0.790525 0.7905,1.08505 4.2625,1.39495 12.803,6.758 19.251,17.762949 1.7825,3.06905 4.6655,7.34705 4.6655,15.57758 0,7.14547 -1.891,14.47695 -4.464,21.62242 -0.2015,0.60453 -0.403,1.10053 -0.31,1.488 0,0.40305 0.1085,0.69758 0.496,0.89905 0.2015,0.0929 0.403,0.0929 0.496,0.0929 0.6975,0 1.1935,-0.38747 1.5965,-1.08495 4.6655,-8.246 6.2465,-18.75505 6.1535,-25.00147 0,-0.496 0,-0.79053 0,-1.19358 -0.496,-12.80295 -7.843,-22.226949 -7.843,-22.226949 0.2945,0 -9.1295,-12.198525 -11.811,-16.368 -3.658,-5.657525 -5.3475,-11.299525 -5.549,-11.702525 -0.093,-0.294495 -0.992,-3.875 -0.992,-3.875 -0.093,-0.3875 -0.589,-0.790505 -1.1935,-0.790505 -0.6975,0 -1.2865,0.604505 -1.2865,1.286505 v 22.428475"
     id="path8883"
     style="stroke-width:0.992" />
  <path
     class="Hook"
     d="m 2870.702,83.234851 c 0,0.294525 0.093,0.790525 0.7905,1.08505 4.2625,1.39495 12.803,6.758 19.251,17.762949 1.7825,3.06905 4.6655,7.34705 4.6655,15.57758 0,7.14547 -1.891,14.47695 -4.464,21.62242 -0.2015,0.60453 -0.403,1.10053 -0.31,1.488 0,0.40305 0.1085,0.69758 0.496,0.89905 0.2015,0.0929 0.403,0.0929 0.496,0.0929 0.6975,0 1.1935,-0.38747 1.5965,-1.08495 4.6655,-8.246 6.2465,-18.75505 6.1535,-25.00147 0,-0.496 0,-0.79053 0,-1.19358 -0.496,-12.80295 -7.843,-22.226949 -7.843,-22.226949 0.2945,0 -9.1295,-12.198525 -11.811,-16.368 -3.658,-5.657525 -5.3475,-11.299525 -5.549,-11.702525 -0.093,-0.294495 -0.992,-3.875 -0.992,-3.875 -0.093,-0.3875 -0.589,-0.790505 -1.1935,-0.790505 -0.6975,0 -1.2865,0.604505 -1.2865,1.286505 v 22.428475"
     id="path8885"
     style="stroke-width:0.992" />
  <path
     class="Hook"
     d="m 410.921,83.234851 c 0,0.294525 0.093,0.790525 0.7905,1.08505 4.2625,1.39495 12.80298,6.758 19.25098,17.762949 1.78252,3.06905 4.66557,7.34705 4.66557,15.57758 0,7.14547 -1.89105,14.47695 -4.464,21.62242 -0.20157,0.60453 -0.40305,1.10053 -0.31,1.488 0,0.40305 0.10843,0.69758 0.496,0.89905 0.20147,0.0929 0.40295,0.0929 0.496,0.0929 0.69747,0 1.19347,-0.38747 1.59643,-1.08495 4.66557,-8.246 6.24652,-18.75505 6.15357,-25.00147 0,-0.496 0,-0.79053 0,-1.19358 -0.496,-12.80295 -7.84305,-22.226949 -7.84305,-22.226949 0.29452,0 -9.12948,-12.198525 -11.811,-16.368 -3.658,-5.657525 -5.3475,-11.299525 -5.549,-11.702525 -0.093,-0.294495 -0.992,-3.875 -0.992,-3.875 -0.093,-0.3875 -0.589,-0.790505 -1.1935,-0.790505 -0.6975,0 -1.2865,0.604505 -1.2865,1.286505 v 22.428475"
     id="path8887"
     style="stroke-width:0.992" />
  <path
     class="Hook"
     d="m 678.752,83.234851 c 0,0.294525 0.093,0.790525 0.7905,1.08505 4.2625,1.39495 12.80298,6.758 19.25098,17.762949 1.78252,3.06905 4.66557,7.34705 4.66557,15.57758 0,7.14547 -1.89105,14.47695 -4.464,21.62242 -0.20157,0.60453 -0.40305,1.10053 -0.31,1.488 0,0.40305 0.10843,0.69758 0.496,0.89905 0.20147,0.0929 0.40295,0.0929 0.496,0.0929 0.69747,0 1.19347,-0.38747 1.59643,-1.08495 4.66557,-8.246 6.24652,-18.75505 6.15357,-25.00147 0,-0.496 0,-0.79053 0,-1.19358 -0.496,-12.80295 -7.84305,-22.226949 -7.84305,-22.226949 0.29452,0 -9.12948,-12.198525 -11.811,-16.368 -3.658,-5.657525 -5.3475,-11.299525 -5.549,-11.702525 -0.093,-0.294495 -0.992,-3.875 -0.992,-3.875 -0.093,-0.3875 -0.589,-0.790505 -1.1935,-0.790505 -0.6975,0 -1.2865,0.604505 -1.2865,1.286505 v 22.428475"
     id="path8889"
     style="stroke-width:0.992" />
  <path
     class="Hook"
     d="m 3364.932,83.234851 c 0,0.294525 0.093,0.790525 0.7905,1.08505 4.2625,1.39495 12.803,6.758 19.251,17.762949 1.7825,3.06905 4.6655,7.34705 4.6655,15.57758 0,7.14547 -1.891,14.47695 -4.464,21.62242 -0.2015,0.60453 -0.403,1.10053 -0.31,1.488 0,0.40305 0.1085,0.69758 0.496,0.89905 0.2015,0.0929 0.403,0.0929 0.496,0.0929 0.6975,0 1.1935,-0.38747 1.5965,-1.08495 4.6655,-8.246 6.2465,-18.75505 6.1535,-25.00147 0,-0.496 0,-0.79053 0,-1.19358 -0.496,-12.80295 -7.843,-22.226949 -7.843,-22.226949 0.2945,0 -9.1295,-12.198525 -11.811,-16.368 -3.658,-5.657525 -5.3475,-11.299525 -5.549,-11.702525 -0.093,-0.294495 -0.992,-3.875 -0.992,-3.875 -0.093,-0.3875 -0.589,-0.790505 -1.1935,-0.790505 -0.6975,0 -1.2865,0.604505 -1.2865,1.286505 v 22.428475"
     id="path8891"
     style="stroke-width:0.992" />
  <path
     class="Hook"
     d="m 1550.552,83.234851 c 0,0.294525 0.093,0.790525 0.7905,1.08505 4.2625,1.39495 12.803,6.758 19.251,17.762949 1.7825,3.06905 4.6655,7.34705 4.6655,15.57758 0,7.14547 -1.891,14.47695 -4.464,21.62242 -0.2015,0.60453 -0.403,1.10053 -0.31,1.488 0,0.40305 0.1085,0.69758 0.496,0.89905 0.2015,0.0929 0.403,0.0929 0.496,0.0929 0.6975,0 1.1935,-0.38747 1.5965,-1.08495 4.6655,-8.246 6.2465,-18.75505 6.1535,-25.00147 0,-0.496 0,-0.79053 0,-1.19358 -0.496,-12.80295 -7.843,-22.226949 -7.843,-22.226949 0.2945,0 -9.1295,-12.198525 -11.811,-16.368 -3.658,-5.657525 -5.3475,-11.299525 -5.549,-11.702525 -0.093,-0.294495 -0.992,-3.875 -0.992,-3.875 -0.093,-0.3875 -0.589,-0.790505 -1.1935,-0.790505 -0.6975,0 -1.2865,0.604505 -1.2865,1.286505 v 22.428475"
     id="path8893"
     style="stroke-width:0.992" />
  <path
     class="Note"
     d="m 2370.162,151.68288 c 0,4.2625 3.069,9.02102 11.1135,9.02102 10.3075,0 21.1265,-8.43202 21.1265,-17.15852 0,-5.859 -4.96,-9.12948 -11.1135,-9.12948 -9.6255,0 -21.1265,8.13748 -21.1265,17.26698"
     id="path8895"
     style="stroke-width:0.992" />
  <path
     class="Note"
     d="m 931.172,126.88288 c 0,4.2625 3.069,9.02102 11.11348,9.02102 10.30757,0 21.12652,-8.43202 21.12652,-17.15852 0,-5.859 -4.96,-9.12948 -11.11348,-9.12948 -9.62547,0 -21.12652,8.13748 -21.12652,17.26698"
     id="path8897"
     style="stroke-width:0.992" />
  <path
     class="Note"
     d="m 2265.272,126.88288 c 0,4.2625 3.069,9.02102 11.1135,9.02102 10.3075,0 21.1265,-8.43202 21.1265,-17.15852 0,-5.859 -4.96,-9.12948 -11.1135,-9.12948 -9.6255,0 -21.1265,8.13748 -21.1265,17.26698"
     id="path8899"
     style="stroke-width:0.992" />
  <path
     class="Note"
     d="m 826.282,114.48288 c 0,4.2625 3.069,9.02102 11.11348,9.02102 10.30757,0 21.12652,-8.43202 21.12652,-17.15852 0,-5.859 -4.96,-9.129479 -11.11348,-9.129479 -9.62547,0 -21.12652,8.137479 -21.12652,17.266979"
     id="path8901"
     style="stroke-width:0.992" />
  <path
     class="Note"
     d="m 771.192,114.48288 c 0,4.2625 3.069,9.02102 11.11348,9.02102 10.30757,0 21.12652,-8.43202 21.12652,-17.15852 0,-5.859 -4.96,-9.129479 -11.11348,-9.129479 -9.62547,0 -21.12652,8.137479 -21.12652,17.266979"
     id="path8903"
     style="stroke-width:0.992" />
  <path
     class="Note"
     d="m 3335.192,151.68288 c 0,4.2625 3.069,9.02102 11.1135,9.02102 10.3075,0 21.1265,-8.43202 21.1265,-17.15852 0,-5.859 -4.96,-9.12948 -11.1135,-9.12948 -9.6255,0 -21.1265,8.13748 -21.1265,17.26698"
     id="path8905"
     style="stroke-width:0.992" />
  <path
     class="Note"
     d="m 448.261,126.88288 c 0,4.2625 3.069,9.02102 11.11348,9.02102 10.30757,0 21.12652,-8.43202 21.12652,-17.15852 0,-5.859 -4.96,-9.12948 -11.11348,-9.12948 -9.62547,0 -21.12652,8.13748 -21.12652,17.26698"
     id="path8907"
     style="stroke-width:0.992" />
  <path
     class="Note"
     d="m 716.092,151.68288 c 0,4.2625 3.069,9.02102 11.11348,9.02102 10.30757,0 21.12652,-8.43202 21.12652,-17.15852 0,-5.859 -4.96,-9.12948 -11.11348,-9.12948 -9.62547,0 -21.12652,8.13748 -21.12652,17.26698"
     id="path8909"
     style="stroke-width:0.992" />
  <path
     class="Note"
     d="m 2452.802,114.48288 c 0,4.2625 3.069,9.02102 11.1135,9.02102 10.3075,0 21.1265,-8.43202 21.1265,-17.15852 0,-5.859 -4.96,-9.129479 -11.1135,-9.129479 -9.6255,0 -21.1265,8.137479 -21.1265,17.266979"
     id="path8911"
     style="stroke-width:0.992" />
  <path
     class="Note"
     d="m 649.01,151.68288 c 0,4.2625 3.069,9.02102 11.11348,9.02102 10.30757,0 21.12652,-8.43202 21.12652,-17.15852 0,-5.859 -4.96,-9.12948 -11.11348,-9.12948 -9.62547,0 -21.12652,8.13748 -21.12652,17.26698"
     id="path8913"
     style="stroke-width:0.992" />
  <path
     class="Note"
     d="m 2535.452,151.68288 c 0,4.2625 3.069,9.02102 11.1135,9.02102 10.3075,0 21.1265,-8.43202 21.1265,-17.15852 0,-5.859 -4.96,-9.12948 -11.1135,-9.12948 -9.6255,0 -21.1265,8.13748 -21.1265,17.26698"
     id="path8915"
     style="stroke-width:0.992" />
  <path
     class="Note"
     d="m 566.367,164.08288 c 0,4.2625 3.069,9.02102 11.11348,9.02102 10.30757,0 21.12652,-8.43202 21.12652,-17.15852 0,-5.859 -4.96,-9.12948 -11.11348,-9.12948 -9.62547,0 -21.12652,8.13748 -21.12652,17.26698"
     id="path8917"
     style="stroke-width:0.992" />
  <path
     class="Note"
     d="m 1091.032,164.08288 c 0,4.2625 3.069,9.02102 11.1135,9.02102 10.3075,0 21.1265,-8.43202 21.1265,-17.15852 0,-5.859 -4.96,-9.12948 -11.1135,-9.12948 -9.6255,0 -21.1265,8.13748 -21.1265,17.26698"
     id="path8919"
     style="stroke-width:0.992" />
  <path
     class="Note"
     d="m 381.177,151.68288 c 0,4.2625 3.069,9.02102 11.11348,9.02102 10.30757,0 21.12652,-8.43202 21.12652,-17.15852 0,-5.859 -4.96,-9.12948 -11.11348,-9.12948 -9.62547,0 -21.12652,8.13748 -21.12652,17.26698"
     id="path8921"
     style="stroke-width:0.992" />
  <path
     class="Note"
     d="m 326.082,151.68288 c 0,4.2625 3.069,9.02102 11.11348,9.02102 10.30757,0 21.12652,-8.43202 21.12652,-17.15852 0,-5.859 -4.96,-9.12948 -11.11348,-9.12948 -9.62547,0 -21.12652,8.13748 -21.12652,17.26698"
     id="path8923"
     style="stroke-width:0.992" />
  <path
     class="Note"
     d="m 2653.552,126.88288 c 0,4.2625 3.069,9.02102 11.1135,9.02102 10.3075,0 21.1265,-8.43202 21.1265,-17.15852 0,-5.859 -4.96,-9.12948 -11.1135,-9.12948 -9.6255,0 -21.1265,8.13748 -21.1265,17.26698"
     id="path8925"
     style="stroke-width:0.992" />
  <path
     class="Note"
     d="m 3425.432,151.68288 c 0,4.2625 3.069,9.02102 11.1135,9.02102 10.3075,0 21.1265,-8.43202 21.1265,-17.15852 0,-5.859 -4.96,-9.12948 -11.1135,-9.12948 -9.6255,0 -21.1265,8.13748 -21.1265,17.26698"
     id="path8927"
     style="stroke-width:0.992" />
  <path
     class="Note"
     d="m 249.078,164.08288 c 0,4.2625 3.069,9.02102 11.11348,9.02102 10.30757,0 21.12652,-8.43202 21.12652,-17.15852 0,-5.859 -4.96,-9.12948 -11.11348,-9.12948 -9.62547,0 -21.12652,8.13748 -21.12652,17.26698"
     id="path8929"
     style="stroke-width:0.992" />
  <path
     class="Note"
     d="m 2044.892,114.48288 c 0,4.2625 3.069,9.02102 11.1135,9.02102 10.3075,0 21.1265,-8.43202 21.1265,-17.15852 0,-5.859 -4.96,-9.129479 -11.1135,-9.129479 -9.6255,0 -21.1265,8.137479 -21.1265,17.266979"
     id="path8931"
     style="stroke-width:0.992" />
  <path
     class="Note"
     d="m 1710.082,151.68288 c 0,4.2625 3.069,9.02102 11.1135,9.02102 10.3075,0 21.1265,-8.43202 21.1265,-17.15852 0,-5.859 -4.96,-9.12948 -11.1135,-9.12948 -9.6255,0 -21.1265,8.13748 -21.1265,17.26698"
     id="path8933"
     style="stroke-width:0.992" />
  <path
     class="Note"
     d="m 193.983,164.08288 c 0,4.2625 3.069,9.02102 11.11348,9.02102 10.30757,0 21.12652,-8.43202 21.12652,-17.15852 0,-5.859 -4.96,-9.12948 -11.11348,-9.12948 -9.62547,0 -21.12652,8.13748 -21.12652,17.26698"
     id="path8935"
     style="stroke-width:0.992" />
  <path
     class="Note"
     d="m 2840.962,151.68288 c 0,4.2625 3.069,9.02102 11.1135,9.02102 10.3075,0 21.1265,-8.43202 21.1265,-17.15852 0,-5.859 -4.96,-9.12948 -11.1135,-9.12948 -9.6255,0 -21.1265,8.13748 -21.1265,17.26698"
     id="path8937"
     style="stroke-width:0.992" />
  <path
     class="Note"
     d="m 2127.532,151.68288 c 0,4.2625 3.069,9.02102 11.1135,9.02102 10.3075,0 21.1265,-8.43202 21.1265,-17.15852 0,-5.859 -4.96,-9.12948 -11.1135,-9.12948 -9.6255,0 -21.1265,8.13748 -21.1265,17.26698"
     id="path8939"
     style="stroke-width:0.992" />
  <path
     class="Note"
     d="m 3508.072,164.08288 c 0,4.2625 3.069,9.02102 11.1135,9.02102 10.3075,0 21.1265,-8.43202 21.1265,-17.15852 0,-5.859 -4.96,-9.12948 -11.1135,-9.12948 -9.6255,0 -21.1265,8.13748 -21.1265,17.26698"
     id="path8941"
     style="stroke-width:0.992" />
  <path
     class="Note"
     d="m 1035.932,164.08288 c 0,4.2625 3.069,9.02102 11.1135,9.02102 10.3075,0 21.1265,-8.43202 21.1265,-17.15852 0,-5.859 -4.96,-9.12948 -11.1135,-9.12948 -9.6255,0 -21.1265,8.13748 -21.1265,17.26698"
     id="path8943"
     style="stroke-width:0.992" />
  <path
     class="Note"
     d="m 2210.182,126.88288 c 0,4.2625 3.069,9.02102 11.1135,9.02102 10.3075,0 21.1265,-8.43202 21.1265,-17.15852 0,-5.859 -4.96,-9.12948 -11.1135,-9.12948 -9.6255,0 -21.1265,8.13748 -21.1265,17.26698"
     id="path8945"
     style="stroke-width:0.992" />
  <path
     class="Note"
     d="m 2959.632,151.68288 c 0,4.2625 3.069,9.02102 11.1135,9.02102 10.3075,0 21.1265,-8.43202 21.1265,-17.15852 0,-5.859 -4.96,-9.12948 -11.1135,-9.12948 -9.6255,0 -21.1265,8.13748 -21.1265,17.26698"
     id="path8947"
     style="stroke-width:0.992" />
  <path
     class="Note"
     d="m 3133.882,151.68288 c 0,4.2625 3.069,9.02102 11.1135,9.02102 10.3075,0 21.1265,-8.43202 21.1265,-17.15852 0,-5.859 -4.96,-9.12948 -11.1135,-9.12948 -9.6255,0 -21.1265,8.13748 -21.1265,17.26698"
     id="path8949"
     style="stroke-width:0.992" />
  <path
     class="Note"
     d="m 3014.722,126.88288 c 0,4.2625 3.069,9.02102 11.1135,9.02102 10.3075,0 21.1265,-8.43202 21.1265,-17.15852 0,-5.859 -4.96,-9.12948 -11.1135,-9.12948 -9.6255,0 -21.1265,8.13748 -21.1265,17.26698"
     id="path8951"
     style="stroke-width:0.992" />
  <path
     class="Note"
     d="m 1774.152,151.68288 c 0,4.2625 3.069,9.02102 11.1135,9.02102 10.3075,0 21.1265,-8.43202 21.1265,-17.15852 0,-5.859 -4.96,-9.12948 -11.1135,-9.12948 -9.6255,0 -21.1265,8.13748 -21.1265,17.26698"
     id="path8953"
     style="stroke-width:0.992" />
  <path
     class="Note"
     d="m 3069.822,126.88288 c 0,4.2625 3.069,9.02102 11.1135,9.02102 10.3075,0 21.1265,-8.43202 21.1265,-17.15852 0,-5.859 -4.96,-9.12948 -11.1135,-9.12948 -9.6255,0 -21.1265,8.13748 -21.1265,17.26698"
     id="path8955"
     style="stroke-width:0.992" />
  <path
     class="Note"
     d="m 1654.992,151.68288 c 0,4.2625 3.069,9.02102 11.1135,9.02102 10.3075,0 21.1265,-8.43202 21.1265,-17.15852 0,-5.859 -4.96,-9.12948 -11.1135,-9.12948 -9.6255,0 -21.1265,8.13748 -21.1265,17.26698"
     id="path8957"
     style="stroke-width:0.992" />
  <path
     class="Note"
     d="m 1520.812,151.68288 c 0,4.2625 3.069,9.02102 11.1135,9.02102 10.3075,0 21.1265,-8.43202 21.1265,-17.15852 0,-5.859 -4.96,-9.12948 -11.1135,-9.12948 -9.6255,0 -21.1265,8.13748 -21.1265,17.26698"
     id="path8959"
     style="stroke-width:0.992" />
  <path
     class="Note"
     d="m 1438.162,164.08288 c 0,4.2625 3.069,9.02102 11.1135,9.02102 10.3075,0 21.1265,-8.43202 21.1265,-17.15852 0,-5.859 -4.96,-9.12948 -11.1135,-9.12948 -9.6255,0 -21.1265,8.13748 -21.1265,17.26698"
     id="path8961"
     style="stroke-width:0.992" />
  <path
     class="Note"
     d="m 2758.322,114.48288 c 0,4.2625 3.069,9.02102 11.1135,9.02102 10.3075,0 21.1265,-8.43202 21.1265,-17.15852 0,-5.859 -4.96,-9.129479 -11.1135,-9.129479 -9.6255,0 -21.1265,8.137479 -21.1265,17.266979"
     id="path8963"
     style="stroke-width:0.992" />
  <path
     class="Note"
     d="m 3216.522,151.68288 c 0,4.2625 3.069,9.02102 11.1135,9.02102 10.3075,0 21.1265,-8.43202 21.1265,-17.15852 0,-5.859 -4.96,-9.12948 -11.1135,-9.12948 -9.6255,0 -21.1265,8.13748 -21.1265,17.26698"
     id="path8965"
     style="stroke-width:0.992" />
  <path
     class="Note"
     d="m 1829.242,164.08288 c 0,4.2625 3.069,9.02102 11.1135,9.02102 10.3075,0 21.1265,-8.43202 21.1265,-17.15852 0,-5.859 -4.96,-9.12948 -11.1135,-9.12948 -9.6255,0 -21.1265,8.13748 -21.1265,17.26698"
     id="path8967"
     style="stroke-width:0.992" />
  <path
     class="Note"
     d="m 1355.522,126.88288 c 0,4.2625 3.069,9.02102 11.1135,9.02102 10.3075,0 21.1265,-8.43202 21.1265,-17.15852 0,-5.859 -4.96,-9.12948 -11.1135,-9.12948 -9.6255,0 -21.1265,8.13748 -21.1265,17.26698"
     id="path8969"
     style="stroke-width:0.992" />
  <path
     class="Note"
     d="m 1288.442,151.68288 c 0,4.2625 3.069,9.02102 11.1135,9.02102 10.3075,0 21.1265,-8.43202 21.1265,-17.15852 0,-5.859 -4.96,-9.12948 -11.1135,-9.12948 -9.6255,0 -21.1265,8.13748 -21.1265,17.26698"
     id="path8971"
     style="stroke-width:0.992" />
  <path
     class="Note"
     d="m 1168.032,151.68288 c 0,4.2625 3.069,9.02102 11.1135,9.02102 10.3075,0 21.1265,-8.43202 21.1265,-17.15852 0,-5.859 -4.96,-9.12948 -11.1135,-9.12948 -9.6255,0 -21.1265,8.13748 -21.1265,17.26698"
     id="path8973"
     style="stroke-width:0.992" />
  <path
     class="Clef"
     d="m 60.558525,181.44285 c 0,-3.67347 -3.363475,-5.25442 -6.634,-5.25442 -4.169475,0 -8.246,2.57295 -8.246,7.03695 0,1.89105 0.697475,3.286 2.092525,4.66547 -2.588525,0.992 -5.161575,2.976 -5.161575,6.06053 0,3.27052 2.976,5.456 7.34705,5.456 5.347475,0 9.114,-2.976 9.114,-7.254 0,-2.27853 -0.992,-4.154 -2.774525,-5.456 2.88305,-1.28653 4.262525,-2.86748 4.262525,-5.25453 m -9.92,15.872 c -2.17,0 -3.658,-1.37947 -3.658,-3.472 0,-1.984 0.883475,-3.56495 2.57295,-4.55695 0.40305,0.20148 0.496,0.20148 0.790525,0.38748 1.193475,0.60452 1.193475,0.60452 1.39505,0.806 1.875475,1.08505 2.681475,2.07705 2.681475,3.472 0,1.87547 -1.596525,3.36347 -3.782,3.36347 m 3.782,-11.904 c -1.488,-0.79042 -1.89105,-0.992 -2.185475,-1.19347 l -0.201575,-0.093 c -1.488,-0.89905 -1.984,-1.59653 -1.984,-2.77453 0,-1.798 1.39505,-3.08452 3.37905,-3.08452 1.875475,0 3.06895,1.19347 3.06895,3.27052 0,1.59653 -0.58895,2.68148 -2.07695,3.87495 M 82.088,110.11188 c 0,-14.973029 -10.617475,-25.094504 -25.094525,-25.094504 -0.992,-5.952 -1.89095,-11.81105 -2.774425,-17.36 10.416,-11.020525 17.747475,-23.513475 17.747475,-39.184 0,-9.036525 -2.774525,-16.368 -4.464,-19.948128 C 65.13105,3.472 62.248,0 60.558525,0 c -0.682,0 -3.859475,1.193376 -7.03705,5.053248 -6.448,7.548128 -8.230425,20.134128 -8.230425,28.473078 0,5.36305 0.496,10.214525 2.185475,21.436525 -0.108525,0 -5.27,5.254525 -7.34705,7.03705 C 31.09305,70.338851 18.6,82.428851 18.6,102.17587 c 0,18.64656 16.166525,33.23203 34.62705,33.23203 2.867475,0 5.54895,-0.29452 7.936,-0.69747 1.782425,9.43947 2.976,16.47642 2.976,21.73095 0,10.32305 -5.36305,15.77905 -15.376,15.77905 -2.38705,0 -4.464,-0.496 -4.665575,-0.60453 -0.09295,0 -0.294425,-0.0931 -0.294425,-0.186 0,-0.20147 0.201475,-0.31 0.496,-0.40305 4.665475,-0.69747 9.315475,-4.75842 9.315475,-11.00495 0,-5.36305 -4.06105,-11.02052 -11.50105,-11.02052 -6.944,0 -11.31495,5.65747 -11.31495,12.19852 0,6.55653 4.96,15.19 18.352,15.19 12.80295,0 19.049475,-7.254 19.049475,-19.94852 0,-3.85948 -0.58895,-8.32348 -1.58095,-13.98095 -0.294525,-1.984 -0.790525,-5.06853 -1.488,-8.83505 9.718425,-3.27053 16.95695,-13.29895 16.95695,-23.5135 M 51.537475,28.767901 c 0.992,-3.968 5.456,-14.384 10.617575,-14.384 1.488,0 3.968,4.758425 3.968,11.702425 0,10.214525 -7.734525,17.964525 -14.585575,24.8 -0.58895,-3.968 -1.08495,-7.936 -1.08495,-11.99695 0,-3.766525 0.387475,-7.052525 1.08495,-10.121475 m 2.976,102.578949 c -14.182425,0 -26.28797,-9.92 -26.28797,-24.90847 0,-12.090054 8.52502,-22.909004 17.26702,-30.550479 1.674,-1.39505 3.270525,-2.774525 4.758525,-4.262525 0.883475,5.347475 1.58095,9.92 2.278425,14.089475 -9.036425,2.57305 -15.174425,12.198525 -15.174425,21.421019 0,7.05251 5.456,16.56951 13.392,16.56951 0.790425,0 1.689475,-0.40295 1.689475,-1.39495 0,-0.79053 -0.89905,-1.37958 -2.185475,-2.17005 -3.87505,-2.294 -6.060525,-4.96 -6.060525,-9.734 0,-6.045 4.572525,-10.912054 10.32295,-12.291529 L 60.264,130.64938 c -1.984,0.40305 -3.766525,0.69747 -5.750525,0.69747 m 9.92,-1.89095 c -2.07695,-11.79552 -4.758425,-27.57452 -5.456,-31.945574 10.01305,0 14.29105,6.944054 15.174525,11.718054 0.108525,0.7905 0.294525,1.8755 0.294525,3.069 0,7.1455 -2.976,14.29105 -10.01305,17.15852"
     id="path8975"
     style="stroke-width:0.992" />
  <path
     class="TimeSig"
     d="m 130.20048,56.450871 c -6.06043,0 -8.23043,1.782505 -9.62548,3.270505 -0.29452,-2.077 -0.496,-3.673505 -0.496,-5.254505 0,-1.596495 0.20148,-2.976 0.496,-4.758545 0.58905,-3.673475 3.06905,-8.246 8.432,-8.246 2.48,0 3.968,0.806 4.96,1.89105 -2.07695,0.89895 -3.76652,3.56495 -3.76652,5.85895 0,3.56505 2.77452,6.339545 6.35504,6.339545 3.56496,0 6.448,-2.774495 6.448,-6.339545 v -0.201475 c 0,0 0,0 0,-0.108525 0,-0.883475 -0.20147,-2.371475 -0.60452,-3.162 -1.28652,-3.580425 -5.456,-8.83495 -15.376,-8.83495 -8.928,0 -15.376,8.52495 -17.36,13.097475 -0.992,2.371525 -2.48,7.238525 -2.48,12.787525 0,6.060505 1.6895,12.89605 7.533,18.057525 5.76605,4.37095 9.42405,4.572525 12.89605,4.572525 3.48747,0 16.47643,-4.076525 16.47643,-15.577545 0,-9.718505 -7.64148,-13.39201 -13.888,-13.39201 m -3.67348,24.79998 c -3.27052,0 -5.952,-4.464 -5.952,-10.028425 0,-5.54905 2.68148,-10.10605 5.952,-10.10605 3.27052,0 6.06052,4.557 6.06052,10.10605 0,5.564425 -2.79,10.028425 -6.06052,10.028425"
     id="path8977"
     style="stroke-width:0.992" />
  <path
     class="TimeSig"
     d="m 137.54705,108.28287 c 3.27043,-2.48 5.54895,-5.65749 5.54895,-9.625494 0,-7.145475 -7.82748,-12.98905 -17.45295,-12.98905 -9.62557,0 -17.46855,5.843575 -17.46855,12.98905 0,3.968004 0.992,7.533004 5.6575,10.509004 -4.464,2.5885 -6.944,6.262 -6.944,11.02047 0,8.02905 8.432,14.47705 18.75505,14.47705 10.30747,0 18.73947,-6.448 18.73947,-14.47705 0,-4.75847 -1.674,-9.22247 -6.83547,-11.90398 m -11.904,20.83198 c -6.35505,0 -11.81105,-3.472 -11.81105,-9.03642 0,-6.63405 5.16148,-8.23055 5.16148,-8.23055 6.74252,2.2785 16.368,5.6575 16.368,11.1135 0,2.68147 -3.472,6.15347 -9.71843,6.15347 m 6.33947,-23.51347 C 125.24,103.41587 117.8,100.14538 117.8,95.681376 c 0,-3.87505 3.56505,-5.456 7.84305,-5.456 6.15347,0 10.30747,2.88295 10.30747,7.44 0,4.758494 -2.17,7.037004 -3.968,7.936004"
     id="path8979"
     style="stroke-width:0.992" />
  <path
     class="Beam"
     fill-rule="evenodd"
     d="m 745.842,35.904376 112.67,-6.2 v 12.419 l -112.67,6.2 v -12.419"
     id="path8981" />
  <path
     class="Beam"
     fill-rule="evenodd"
     d="m 2239.922,35.913376 h 57.58 v 12.4 h -57.58 v -12.4"
     id="path8983" />
  <path
     class="Beam"
     fill-rule="evenodd"
     d="m 223.727,79.307376 134.579,-6.2 v 12.413 l -134.579,6.2 v -12.413"
     id="path8985" />
  <path
     class="Beam"
     fill-rule="evenodd"
     d="m 1684.732,60.713376 h 121.64 v 12.4 h -121.64 v -12.4"
     id="path8987" />
  <path
     class="Beam"
     fill-rule="evenodd"
     d="m 2989.372,35.904376 112.67,-6.2 v 12.419 l -112.67,6.2 v -12.419"
     id="path8989" />
  <path
     class="Beam"
     fill-rule="evenodd"
     d="m 1065.682,79.307376 134.58,-6.2 v 12.413 l -134.58,6.2 v -12.413"
     id="path8991" />
  <path
     class="NoteDot"
     d="m 2698.182,122.71338 c 0,2.7745 2.1855,4.96 4.96,4.96 2.7745,0 4.96,-2.1855 4.96,-4.96 0,-2.77451 -2.1855,-4.96 -4.96,-4.96 -2.7745,0 -4.96,2.18549 -4.96,4.96"
     id="path8993"
     style="stroke-width:0.992" />
  <path
     class="NoteDot"
     d="m 1873.872,147.51338 c 0,2.7745 2.1855,4.96 4.96,4.96 2.7745,0 4.96,-2.1855 4.96,-4.96 0,-2.77451 -2.1855,-4.96 -4.96,-4.96 -2.7745,0 -4.96,2.18549 -4.96,4.96"
     id="path8995"
     style="stroke-width:0.992" />
  <path
     class="NoteDot"
     d="m 3552.702,147.51338 c 0,2.7745 2.1855,4.96 4.96,4.96 2.7745,0 4.96,-2.1855 4.96,-4.96 0,-2.77451 -2.1855,-4.96 -4.96,-4.96 -2.7745,0 -4.96,2.18549 -4.96,4.96"
     id="path8997"
     style="stroke-width:0.992" />
  <path
     class="NoteDot"
     d="m 975.792,122.71338 c 0,2.7745 2.1855,4.96 4.96,4.96 2.7745,0 4.96,-2.1855 4.96,-4.96 0,-2.77451 -2.1855,-4.96 -4.96,-4.96 -2.7745,0 -4.96,2.18549 -4.96,4.96"
     id="path8999"
     style="stroke-width:0.992" />
</svg>
