<?xml version="1.0" encoding="UTF-8" standalone="no"?>
<svg
   xmlns:dc="http://purl.org/dc/elements/1.1/"
   xmlns:cc="http://creativecommons.org/ns#"
   xmlns:rdf="http://www.w3.org/1999/02/22-rdf-syntax-ns#"
   xmlns:svg="http://www.w3.org/2000/svg"
   xmlns="http://www.w3.org/2000/svg"
   xmlns:sodipodi="http://sodipodi.sourceforge.net/DTD/sodipodi-0.dtd"
   xmlns:inkscape="http://www.inkscape.org/namespaces/inkscape"
   width="258.20517mm"
   height="13.08841mm"
   viewBox="0 0 3659.6009 185.50503"
   version="1.2"
   id="svg6694"
   sodipodi:docname="Dossium Canto Weemoed Musica.svg"
   inkscape:version="1.0.2-2 (e86c870879, 2021-01-15)">
  <metadata
     id="metadata6700">
    <rdf:RDF>
      <cc:Work
         rdf:about="">
        <dc:format>image/svg+xml</dc:format>
        <dc:type
           rdf:resource="http://purl.org/dc/dcmitype/StillImage" />
      </cc:Work>
    </rdf:RDF>
  </metadata>
  <defs
     id="defs6698" />
  <sodipodi:namedview
     pagecolor="#ffffff"
     bordercolor="#666666"
     borderopacity="1"
     objecttolerance="10"
     gridtolerance="10"
     guidetolerance="10"
     inkscape:pageopacity="0"
     inkscape:pageshadow="2"
     inkscape:window-width="1920"
     inkscape:window-height="991"
     id="namedview6696"
     showgrid="false"
     inkscape:zoom="1.0328497"
     inkscape:cx="471.36026"
     inkscape:cy="237.41746"
     inkscape:window-x="-9"
     inkscape:window-y="-9"
     inkscape:window-maximized="1"
     inkscape:current-layer="svg6694" />
  <title
     id="title6468">Dossium Canto Weemoed Musica</title>
  <desc
     id="desc6470">Generated by MuseScore Studio 4.5.1</desc>
  <polyline
     class="StaffLines"
     fill="none"
     stroke="#000000"
     stroke-width="2.73"
     stroke-linejoin="bevel"
     points="336.599,634.198 3996.2,634.198"
     id="polyline6472"
     transform="translate(-336.599,-598.28451)" />
  <polyline
     class="StaffLines"
     fill="none"
     stroke="#000000"
     stroke-width="2.73"
     stroke-linejoin="bevel"
     points="336.599,658.998 3996.2,658.998"
     id="polyline6474"
     transform="translate(-336.599,-598.28451)" />
  <polyline
     class="StaffLines"
     fill="none"
     stroke="#000000"
     stroke-width="2.73"
     stroke-linejoin="bevel"
     points="336.599,683.798 3996.2,683.798"
     id="polyline6476"
     transform="translate(-336.599,-598.28451)" />
  <polyline
     class="StaffLines"
     fill="none"
     stroke="#000000"
     stroke-width="2.73"
     stroke-linejoin="bevel"
     points="336.599,708.598 3996.2,708.598"
     id="polyline6478"
     transform="translate(-336.599,-598.28451)" />
  <polyline
     class="StaffLines"
     fill="none"
     stroke="#000000"
     stroke-width="2.73"
     stroke-linejoin="bevel"
     points="336.599,733.398 3996.2,733.398"
     id="polyline6480"
     transform="translate(-336.599,-598.28451)" />
  <polyline
     class="BarLine"
     fill="none"
     stroke="#000000"
     stroke-width="4.46"
     stroke-linejoin="bevel"
     points="2912.87,632.834 2912.87,734.762"
     id="polyline6488"
     transform="translate(-336.599,-598.28451)" />
  <polyline
     class="BarLine"
     fill="none"
     stroke="#000000"
     stroke-width="13.64"
     stroke-linejoin="bevel"
     points="2197.84,632.834 2197.84,734.762"
     id="polyline6490"
     transform="translate(-336.599,-598.28451)" />
  <polyline
     class="BarLine"
     fill="none"
     stroke="#000000"
     stroke-width="4.46"
     stroke-linejoin="bevel"
     points="2216.07,632.834 2216.07,734.762"
     id="polyline6492"
     transform="translate(-336.599,-598.28451)" />
  <path
     class="BarLine"
     d="m 1901.2041,73.113487 c 0,-2.883003 -2.2941,-5.25451 -5.1616,-5.25451 -2.883,0 -5.1615,2.371507 -5.1615,5.25451 0,2.883003 2.2785,5.25451 5.1615,5.25451 2.8675,0 5.1616,-2.371507 5.1616,-5.25451"
     id="path6494"
     style="stroke-width:0.992001" />
  <path
     class="BarLine"
     d="m 1901.2041,97.913487 c 0,-2.883003 -2.2941,-5.25451 -5.1616,-5.25451 -2.883,0 -5.1615,2.371507 -5.1615,5.25451 0,2.883003 2.2785,5.254513 5.1615,5.254513 2.8675,0 5.1616,-2.37151 5.1616,-5.254513"
     id="path6496"
     style="stroke-width:0.992001" />
  <path
     class="BarLine"
     d="m 1831.6241,73.113487 c 0,-2.883003 -2.2941,-5.25451 -5.1616,-5.25451 -2.883,0 -5.1615,2.371507 -5.1615,5.25451 0,2.883003 2.2785,5.25451 5.1615,5.25451 2.8675,0 5.1616,-2.371507 5.1616,-5.25451"
     id="path6498"
     style="stroke-width:0.992001" />
  <path
     class="BarLine"
     d="m 1831.6241,97.913487 c 0,-2.883003 -2.2941,-5.25451 -5.1616,-5.25451 -2.883,0 -5.1615,2.371507 -5.1615,5.25451 0,2.883003 2.2785,5.254513 5.1615,5.254513 2.8675,0 5.1616,-2.37151 5.1616,-5.254513"
     id="path6500"
     style="stroke-width:0.992001" />
  <polyline
     class="BarLine"
     fill="none"
     stroke="#000000"
     stroke-width="4.46"
     stroke-linejoin="bevel"
     points="2179.61,632.834 2179.61,734.762"
     id="polyline6502"
     transform="translate(-336.599,-598.28451)" />
  <polyline
     class="BarLine"
     fill="none"
     stroke="#000000"
     stroke-width="13.64"
     stroke-linejoin="bevel"
     points="2197.84,632.834 2197.84,734.762"
     id="polyline6504"
     transform="translate(-336.599,-598.28451)" />
  <polyline
     class="BarLine"
     fill="none"
     stroke="#000000"
     stroke-width="4.46"
     stroke-linejoin="bevel"
     points="3971.15,632.834 3971.15,734.762"
     id="polyline6506"
     transform="translate(-336.599,-598.28451)" />
  <polyline
     class="BarLine"
     fill="none"
     stroke="#000000"
     stroke-width="13.64"
     stroke-linejoin="bevel"
     points="3989.38,632.834 3989.38,734.762"
     id="polyline6508"
     transform="translate(-336.599,-598.28451)" />
  <polyline
     class="BarLine"
     fill="none"
     stroke="#000000"
     stroke-width="4.46"
     stroke-linejoin="bevel"
     points="3251.53,632.834 3251.53,734.762"
     id="polyline6510"
     transform="translate(-336.599,-598.28451)" />
  <polyline
     class="BarLine"
     fill="none"
     stroke="#000000"
     stroke-width="4.46"
     stroke-linejoin="bevel"
     points="2574.21,632.834 2574.21,734.762"
     id="polyline6512"
     transform="translate(-336.599,-598.28451)" />
  <path
     class="BarLine"
     d="m 3261.6841,73.113487 c 0,-2.883003 -2.2941,-5.25451 -5.1616,-5.25451 -2.883,0 -5.1615,2.371507 -5.1615,5.25451 0,2.883003 2.2785,5.25451 5.1615,5.25451 2.8675,0 5.1616,-2.371507 5.1616,-5.25451"
     id="path6514"
     style="stroke-width:0.992001" />
  <path
     class="BarLine"
     d="m 3261.6841,97.913487 c 0,-2.883003 -2.2941,-5.25451 -5.1616,-5.25451 -2.883,0 -5.1615,2.371507 -5.1615,5.25451 0,2.883003 2.2785,5.254513 5.1615,5.254513 2.8675,0 5.1616,-2.37151 5.1616,-5.254513"
     id="path6516"
     style="stroke-width:0.992001" />
  <polyline
     class="BarLine"
     fill="none"
     stroke="#000000"
     stroke-width="4.46"
     stroke-linejoin="bevel"
     points="3609.67,632.834 3609.67,734.762"
     id="polyline6518"
     transform="translate(-336.599,-598.28451)" />
  <polyline
     class="BarLine"
     fill="none"
     stroke="#000000"
     stroke-width="13.64"
     stroke-linejoin="bevel"
     points="3627.9,632.834 3627.9,734.762"
     id="polyline6520"
     transform="translate(-336.599,-598.28451)" />
  <polyline
     class="BarLine"
     fill="none"
     stroke="#000000"
     stroke-width="4.46"
     stroke-linejoin="bevel"
     points="1381.74,632.834 1381.74,734.762"
     id="polyline6522"
     transform="translate(-336.599,-598.28451)" />
  <polyline
     class="BarLine"
     fill="none"
     stroke="#000000"
     stroke-width="4.46"
     stroke-linejoin="bevel"
     points="1821.47,632.834 1821.47,734.762"
     id="polyline6524"
     transform="translate(-336.599,-598.28451)" />
  <polyline
     class="BarLine"
     fill="none"
     stroke="#000000"
     stroke-width="4.46"
     stroke-linejoin="bevel"
     points="942.019,632.834 942.019,734.762"
     id="polyline6526"
     transform="translate(-336.599,-598.28451)" />
  <polyline
     class="LedgerLine"
     fill="none"
     stroke="#000000"
     stroke-width="3.97"
     stroke-linejoin="bevel"
     points="2048.65,758.199 2097.24,758.199"
     id="polyline6528"
     transform="translate(-336.599,-598.28451)" />
  <polyline
     class="LedgerLine"
     fill="none"
     stroke="#000000"
     stroke-width="3.97"
     stroke-linejoin="bevel"
     points="1507.86,758.199 1556.45,758.199"
     id="polyline6530"
     transform="translate(-336.599,-598.28451)" />
  <polyline
     class="LedgerLine"
     fill="none"
     stroke="#000000"
     stroke-width="3.97"
     stroke-linejoin="bevel"
     points="527.342,758.199 575.934,758.199"
     id="polyline6532"
     transform="translate(-336.599,-598.28451)" />
  <polyline
     class="LedgerLine"
     fill="none"
     stroke="#000000"
     stroke-width="3.97"
     stroke-linejoin="bevel"
     points="1709.99,758.199 1758.58,758.199"
     id="polyline6534"
     transform="translate(-336.599,-598.28451)" />
  <polyline
     class="LedgerLine"
     fill="none"
     stroke="#000000"
     stroke-width="3.97"
     stroke-linejoin="bevel"
     points="2260.6,758.199 2309.19,758.199"
     id="polyline6536"
     transform="translate(-336.599,-598.28451)" />
  <polyline
     class="LedgerLine"
     fill="none"
     stroke="#000000"
     stroke-width="3.97"
     stroke-linejoin="bevel"
     points="729.472,758.199 778.065,758.199"
     id="polyline6538"
     transform="translate(-336.599,-598.28451)" />
  <polyline
     class="LedgerLine"
     fill="none"
     stroke="#000000"
     stroke-width="3.97"
     stroke-linejoin="bevel"
     points="1608.92,758.199 1657.51,758.199"
     id="polyline6540"
     transform="translate(-336.599,-598.28451)" />
  <polyline
     class="LedgerLine"
     fill="none"
     stroke="#000000"
     stroke-width="3.97"
     stroke-linejoin="bevel"
     points="1846.52,758.199 1895.11,758.199"
     id="polyline6542"
     transform="translate(-336.599,-598.28451)" />
  <polyline
     class="LedgerLine"
     fill="none"
     stroke="#000000"
     stroke-width="3.97"
     stroke-linejoin="bevel"
     points="3038.98,758.199 3087.58,758.199"
     id="polyline6544"
     transform="translate(-336.599,-598.28451)" />
  <polyline
     class="LedgerLine"
     fill="none"
     stroke="#000000"
     stroke-width="3.97"
     stroke-linejoin="bevel"
     points="1947.58,758.199 1996.17,758.199"
     id="polyline6546"
     transform="translate(-336.599,-598.28451)" />
  <polyline
     class="LedgerLine"
     fill="none"
     stroke="#000000"
     stroke-width="3.97"
     stroke-linejoin="bevel"
     points="3276.58,758.199 3325.17,758.199"
     id="polyline6548"
     transform="translate(-336.599,-598.28451)" />
  <polyline
     class="LedgerLine"
     fill="none"
     stroke="#000000"
     stroke-width="3.97"
     stroke-linejoin="bevel"
     points="3377.64,758.199 3426.24,758.199"
     id="polyline6550"
     transform="translate(-336.599,-598.28451)" />
  <polyline
     class="LedgerLine"
     fill="none"
     stroke="#000000"
     stroke-width="3.97"
     stroke-linejoin="bevel"
     points="3478.71,758.199 3527.3,758.199"
     id="polyline6552"
     transform="translate(-336.599,-598.28451)" />
  <polyline
     class="LedgerLine"
     fill="none"
     stroke="#000000"
     stroke-width="3.97"
     stroke-linejoin="bevel"
     points="3657.54,758.199 3706.13,758.199"
     id="polyline6554"
     transform="translate(-336.599,-598.28451)" />
  <polyline
     class="Stem"
     fill="none"
     stroke="#000000"
     stroke-width="2.48"
     stroke-linejoin="bevel"
     points="2400.83,741.83 2400.83,658.998"
     id="polyline6556"
     transform="translate(-336.599,-598.28451)" />
  <polyline
     class="Stem"
     fill="none"
     stroke="#000000"
     stroke-width="2.48"
     stroke-linejoin="bevel"
     points="1547.03,754.231 1547.03,671.398"
     id="polyline6558"
     transform="translate(-336.599,-598.28451)" />
  <polyline
     class="Stem"
     fill="none"
     stroke="#000000"
     stroke-width="2.48"
     stroke-linejoin="bevel"
     points="1885.69,754.231 1885.69,671.398"
     id="polyline6560"
     transform="translate(-336.599,-598.28451)" />
  <polyline
     class="Stem"
     fill="none"
     stroke="#000000"
     stroke-width="2.48"
     stroke-linejoin="bevel"
     points="2299.77,754.231 2299.77,671.597"
     id="polyline6562"
     transform="translate(-336.599,-598.28451)" />
  <polyline
     class="Stem"
     fill="none"
     stroke="#000000"
     stroke-width="2.48"
     stroke-linejoin="bevel"
     points="2087.82,754.231 2087.82,671.398"
     id="polyline6564"
     transform="translate(-336.599,-598.28451)" />
  <polyline
     class="Stem"
     fill="none"
     stroke="#000000"
     stroke-width="2.48"
     stroke-linejoin="bevel"
     points="2638.43,741.83 2638.43,659.197"
     id="polyline6566"
     transform="translate(-336.599,-598.28451)" />
  <polyline
     class="Stem"
     fill="none"
     stroke="#000000"
     stroke-width="2.48"
     stroke-linejoin="bevel"
     points="2739.49,717.03 2739.49,634.198"
     id="polyline6568"
     transform="translate(-336.599,-598.28451)" />
  <polyline
     class="Stem"
     fill="none"
     stroke="#000000"
     stroke-width="2.48"
     stroke-linejoin="bevel"
     points="566.51,754.231 566.51,671.597"
     id="polyline6570"
     transform="translate(-336.599,-598.28451)" />
  <polyline
     class="Stem"
     fill="none"
     stroke="#000000"
     stroke-width="2.48"
     stroke-linejoin="bevel"
     points="1648.09,766.631 1648.09,683.997"
     id="polyline6572"
     transform="translate(-336.599,-598.28451)" />
  <polyline
     class="Stem"
     fill="none"
     stroke="#000000"
     stroke-width="2.48"
     stroke-linejoin="bevel"
     points="667.576,741.83 667.576,658.998"
     id="polyline6574"
     transform="translate(-336.599,-598.28451)" />
  <polyline
     class="Stem"
     fill="none"
     stroke="#000000"
     stroke-width="2.48"
     stroke-linejoin="bevel"
     points="2977.09,717.03 2977.09,634.397"
     id="polyline6576"
     transform="translate(-336.599,-598.28451)" />
  <polyline
     class="Stem"
     fill="none"
     stroke="#000000"
     stroke-width="2.48"
     stroke-linejoin="bevel"
     points="3517.88,754.231 3517.88,671.398"
     id="polyline6578"
     transform="translate(-336.599,-598.28451)" />
  <polyline
     class="Stem"
     fill="none"
     stroke="#000000"
     stroke-width="2.48"
     stroke-linejoin="bevel"
     points="3078.15,754.231 3078.15,671.398"
     id="polyline6580"
     transform="translate(-336.599,-598.28451)" />
  <polyline
     class="Stem"
     fill="none"
     stroke="#000000"
     stroke-width="2.48"
     stroke-linejoin="bevel"
     points="768.641,754.231 768.641,671.597"
     id="polyline6582"
     transform="translate(-336.599,-598.28451)" />
  <polyline
     class="Stem"
     fill="none"
     stroke="#000000"
     stroke-width="2.48"
     stroke-linejoin="bevel"
     points="869.706,741.83 869.706,658.998"
     id="polyline6584"
     transform="translate(-336.599,-598.28451)" />
  <polyline
     class="Stem"
     fill="none"
     stroke="#000000"
     stroke-width="2.48"
     stroke-linejoin="bevel"
     points="1006.24,741.83 1006.24,659.197"
     id="polyline6586"
     transform="translate(-336.599,-598.28451)" />
  <polyline
     class="Stem"
     fill="none"
     stroke="#000000"
     stroke-width="2.48"
     stroke-linejoin="bevel"
     points="3315.75,754.231 3315.75,671.398"
     id="polyline6588"
     transform="translate(-336.599,-598.28451)" />
  <polyline
     class="Stem"
     fill="none"
     stroke="#000000"
     stroke-width="2.48"
     stroke-linejoin="bevel"
     points="1749.16,754.231 1749.16,671.398"
     id="polyline6590"
     transform="translate(-336.599,-598.28451)" />
  <polyline
     class="Stem"
     fill="none"
     stroke="#000000"
     stroke-width="2.48"
     stroke-linejoin="bevel"
     points="3416.81,754.231 3416.81,671.398"
     id="polyline6592"
     transform="translate(-336.599,-598.28451)" />
  <polyline
     class="Stem"
     fill="none"
     stroke="#000000"
     stroke-width="2.48"
     stroke-linejoin="bevel"
     points="1107.3,717.03 1107.3,634.198"
     id="polyline6594"
     transform="translate(-336.599,-598.28451)" />
  <polyline
     class="Stem"
     fill="none"
     stroke="#000000"
     stroke-width="2.48"
     stroke-linejoin="bevel"
     points="1208.37,729.43 1208.37,646.797"
     id="polyline6596"
     transform="translate(-336.599,-598.28451)" />
  <polyline
     class="Stem"
     fill="none"
     stroke="#000000"
     stroke-width="2.48"
     stroke-linejoin="bevel"
     points="1986.75,754.231 1986.75,671.398"
     id="polyline6598"
     transform="translate(-336.599,-598.28451)" />
  <polyline
     class="Stem"
     fill="none"
     stroke="#000000"
     stroke-width="2.48"
     stroke-linejoin="bevel"
     points="1309.43,717.03 1309.43,634.198"
     id="polyline6600"
     transform="translate(-336.599,-598.28451)" />
  <polyline
     class="Stem"
     fill="none"
     stroke="#000000"
     stroke-width="2.48"
     stroke-linejoin="bevel"
     points="3696.71,754.231 3696.71,671.597"
     id="polyline6602"
     transform="translate(-336.599,-598.28451)" />
  <polyline
     class="Stem"
     fill="none"
     stroke="#000000"
     stroke-width="2.48"
     stroke-linejoin="bevel"
     points="1445.96,717.03 1445.96,634.397"
     id="polyline6604"
     transform="translate(-336.599,-598.28451)" />
  <polyline
     class="Stem"
     fill="none"
     stroke="#000000"
     stroke-width="2.48"
     stroke-linejoin="bevel"
     points="3797.77,741.83 3797.77,658.998"
     id="polyline6606"
     transform="translate(-336.599,-598.28451)" />
  <path
     class="Hook"
     d="m 228.671,95.634985 c 0,0.294525 0.093,0.790526 0.7905,1.085051 4.26251,1.394952 12.80299,6.758004 19.251,17.762964 1.78252,3.06906 4.66557,7.34706 4.66557,15.57759 0,7.14549 -1.89105,14.47697 -4.464,21.62245 -0.20157,0.60453 -0.40305,1.10053 -0.31,1.488 0,0.40305 0.10843,0.69758 0.496,0.89905 0.20148,0.093 0.40295,0.093 0.496,0.093 0.69748,0 1.19348,-0.38747 1.59643,-1.08495 4.66558,-8.24601 6.24653,-18.75507 6.15358,-25.0015 0,-0.496 0,-0.79052 0,-1.19357 -0.496,-12.80297 -7.84306,-22.22698 -7.84306,-22.22698 0.29453,0 -9.12948,-12.198533 -11.81101,-16.368013 -3.658,-5.65753 -5.3475,-11.299536 -5.54901,-11.702536 -0.093,-0.294496 -0.992,-3.875004 -0.992,-3.875004 -0.093,-0.387501 -0.589,-0.790506 -1.19349,-0.790506 -0.69751,0 -1.28651,0.604506 -1.28651,1.286506 v 22.428498"
     id="path6608"
     style="stroke-width:0.992001" />
  <path
     class="Hook"
     d="m 668.401,83.234985 c 0,0.294525 0.093,0.790526 0.7905,1.085051 4.26251,1.394952 12.80299,6.758007 19.251,17.762964 1.78252,3.06906 4.66557,7.34706 4.66557,15.57759 0,7.14549 -1.89105,14.47697 -4.464,21.62245 -0.20157,0.60453 -0.40305,1.10053 -0.31,1.488 0,0.40305 0.10843,0.69758 0.496,0.89905 0.20148,0.093 0.40295,0.093 0.496,0.093 0.69748,0 1.19348,-0.38747 1.59643,-1.08495 4.66558,-8.24601 6.24653,-18.75507 6.15358,-25.0015 0,-0.496 0,-0.79052 0,-1.19357 -0.496,-12.80297 -7.84306,-22.226976 -7.84306,-22.226976 0.29453,0 -9.12948,-12.198537 -11.81101,-16.368017 -3.658,-5.65753 -5.3475,-11.299536 -5.54901,-11.702536 -0.093,-0.294496 -0.992,-3.875004 -0.992,-3.875004 -0.093,-0.387501 -0.589,-0.790506 -1.19349,-0.790506 -0.69751,0 -1.28651,0.604506 -1.28651,1.286506 v 22.428498"
     id="path6610"
     style="stroke-width:0.992001" />
  <path
     class="Hook"
     d="m 2300.591,83.234985 c 0,0.294525 0.093,0.790526 0.7905,1.085051 4.2625,1.394952 12.803,6.758007 19.251,17.762964 1.7825,3.06906 4.6656,7.34706 4.6656,15.57759 0,7.14549 -1.8911,14.47697 -4.464,21.62245 -0.2016,0.60453 -0.4031,1.10053 -0.31,1.488 0,0.40305 0.1084,0.69758 0.496,0.89905 0.2014,0.093 0.4029,0.093 0.496,0.093 0.6974,0 1.1934,-0.38747 1.5964,-1.08495 4.6656,-8.24601 6.2465,-18.75507 6.1536,-25.0015 0,-0.496 0,-0.79052 0,-1.19357 -0.496,-12.80297 -7.8431,-22.226976 -7.8431,-22.226976 0.2945,0 -9.1295,-12.198537 -11.811,-16.368017 -3.658,-5.65753 -5.3475,-11.299536 -5.549,-11.702536 -0.093,-0.294496 -0.992,-3.875004 -0.992,-3.875004 -0.093,-0.387501 -0.589,-0.790506 -1.1935,-0.790506 -0.6975,0 -1.2865,0.604506 -1.2865,1.286506 v 22.428498"
     id="path6612"
     style="stroke-width:0.992001" />
  <path
     class="Hook"
     d="m 430.802,95.634985 c 0,0.294525 0.093,0.790526 0.7905,1.085051 4.26251,1.394952 12.80299,6.758004 19.251,17.762964 1.78252,3.06906 4.66557,7.34706 4.66557,15.57759 0,7.14549 -1.89105,14.47697 -4.464,21.62245 -0.20157,0.60453 -0.40305,1.10053 -0.31,1.488 0,0.40305 0.10843,0.69758 0.496,0.89905 0.20148,0.093 0.40295,0.093 0.496,0.093 0.69748,0 1.19348,-0.38747 1.59643,-1.08495 4.66558,-8.24601 6.24653,-18.75507 6.15358,-25.0015 0,-0.496 0,-0.79052 0,-1.19357 -0.496,-12.80297 -7.84306,-22.22698 -7.84306,-22.22698 0.29453,0 -9.12948,-12.198533 -11.81101,-16.368013 -3.658,-5.65753 -5.3475,-11.299536 -5.54901,-11.702536 -0.093,-0.294496 -0.992,-3.875004 -0.992,-3.875004 -0.093,-0.387501 -0.589,-0.790506 -1.19349,-0.790506 -0.69751,0 -1.28651,0.604506 -1.28651,1.286506 v 22.428498"
     id="path6614"
     style="stroke-width:0.992001" />
  <path
     class="Hook"
     d="m 1961.931,95.634985 c 0,0.294525 0.093,0.790526 0.7905,1.085051 4.2625,1.394952 12.803,6.758004 19.251,17.762964 1.7825,3.06906 4.6656,7.34706 4.6656,15.57759 0,7.14549 -1.8911,14.47697 -4.464,21.62245 -0.2016,0.60453 -0.4031,1.10053 -0.31,1.488 0,0.40305 0.1084,0.69758 0.496,0.89905 0.2014,0.093 0.4029,0.093 0.496,0.093 0.6974,0 1.1934,-0.38747 1.5964,-1.08495 4.6656,-8.24601 6.2465,-18.75507 6.1536,-25.0015 0,-0.496 0,-0.79052 0,-1.19357 -0.496,-12.80297 -7.8431,-22.22698 -7.8431,-22.22698 0.2945,0 -9.1295,-12.198533 -11.811,-16.368013 -3.658,-5.65753 -5.3475,-11.299536 -5.549,-11.702536 -0.093,-0.294496 -0.992,-3.875004 -0.992,-3.875004 -0.093,-0.387501 -0.589,-0.790506 -1.1935,-0.790506 -0.6975,0 -1.2865,0.604506 -1.2865,1.286506 v 22.428498"
     id="path6616"
     style="stroke-width:0.992001" />
  <path
     class="Hook"
     d="m 3358.871,95.634985 c 0,0.294525 0.093,0.790526 0.7905,1.085051 4.2625,1.394952 12.803,6.758004 19.251,17.762964 1.7825,3.06906 4.6656,7.34706 4.6656,15.57759 0,7.14549 -1.8911,14.47697 -4.464,21.62245 -0.2016,0.60453 -0.4031,1.10053 -0.31,1.488 0,0.40305 0.1084,0.69758 0.496,0.89905 0.2014,0.093 0.4029,0.093 0.496,0.093 0.6974,0 1.1934,-0.38747 1.5964,-1.08495 4.6656,-8.24601 6.2465,-18.75507 6.1536,-25.0015 0,-0.496 0,-0.79052 0,-1.19357 -0.496,-12.80297 -7.8431,-22.22698 -7.8431,-22.22698 0.2945,0 -9.1295,-12.198533 -11.811,-16.368013 -3.658,-5.65753 -5.3475,-11.299536 -5.549,-11.702536 -0.093,-0.294496 -0.992,-3.875004 -0.992,-3.875004 -0.093,-0.387501 -0.589,-0.790506 -1.1935,-0.790506 -0.6975,0 -1.2865,0.604506 -1.2865,1.286506 v 22.428498"
     id="path6618"
     style="stroke-width:0.992001" />
  <path
     class="Hook"
     d="m 1108.121,58.434985 c 0,0.294525 0.093,0.790526 0.7905,1.085051 4.2625,1.394952 12.803,6.758007 19.251,17.762968 1.7825,3.069053 4.6656,7.347057 4.6656,15.57759 0,7.145486 -1.8911,14.476966 -4.464,21.622446 -0.2016,0.60453 -0.4031,1.10053 -0.31,1.488 0,0.40305 0.1084,0.69758 0.496,0.89905 0.2014,0.093 0.4029,0.093 0.496,0.093 0.6974,0 1.1934,-0.38747 1.5964,-1.08495 4.6656,-8.24601 6.2465,-18.755066 6.1536,-25.001498 0,-0.496 0,-0.790525 0,-1.193575 -0.496,-12.802964 -7.8431,-22.226973 -7.8431,-22.226973 0.2945,0 -9.1295,-12.198537 -11.811,-16.368017 -3.658,-5.65753 -5.3475,-11.299536 -5.549,-11.702536 -0.093,-0.294496 -0.992,-3.875004 -0.992,-3.875004 -0.093,-0.387501 -0.589,-0.790506 -1.1935,-0.790506 -0.6975,0 -1.2865,0.604506 -1.2865,1.286506 v 22.428498"
     id="path6620"
     style="stroke-width:0.992001" />
  <path
     class="Hook"
     d="m 1310.251,108.03499 c 0,0.29452 0.093,0.79052 0.7905,1.08505 4.2625,1.39495 12.803,6.758 19.251,17.76296 1.7825,3.06906 4.6656,7.34706 4.6656,15.57759 0,7.14549 -1.8911,14.47697 -4.464,21.62245 -0.2016,0.60453 -0.4031,1.10053 -0.31,1.488 0,0.40305 0.1084,0.69758 0.496,0.89905 0.2014,0.093 0.4029,0.093 0.496,0.093 0.6974,0 1.1934,-0.38747 1.5964,-1.08495 4.6656,-8.24601 6.2465,-18.75507 6.1536,-25.0015 0,-0.496 0,-0.79052 0,-1.19357 -0.496,-12.80297 -7.8431,-22.22698 -7.8431,-22.22698 0.2945,0 -9.1295,-12.19853 -11.811,-16.36801 -3.658,-5.657533 -5.3475,-11.299539 -5.549,-11.702539 -0.093,-0.294496 -0.992,-3.875004 -0.992,-3.875004 -0.093,-0.387501 -0.589,-0.790506 -1.1935,-0.790506 -0.6975,0 -1.2865,0.604506 -1.2865,1.286506 v 22.428503"
     id="path6622"
     style="stroke-width:0.992001" />
  <path
     class="Hook"
     d="m 870.531,70.834985 c 0,0.294525 0.093,0.790526 0.7905,1.085051 4.26251,1.394952 12.80299,6.758007 19.251,17.762968 1.78252,3.069053 4.66557,7.347057 4.66557,15.577586 0,7.14549 -1.89105,14.47697 -4.464,21.62245 -0.20157,0.60453 -0.40305,1.10053 -0.31,1.488 0,0.40305 0.10843,0.69758 0.496,0.89905 0.20148,0.093 0.40295,0.093 0.496,0.093 0.69748,0 1.19348,-0.38747 1.59643,-1.08495 4.66558,-8.24601 6.24653,-18.75507 6.15358,-25.0015 0,-0.496 0,-0.79052 0,-1.19357 -0.496,-12.802967 -7.84306,-22.226976 -7.84306,-22.226976 0.29453,0 -9.12948,-12.198537 -11.81101,-16.368017 -3.658,-5.65753 -5.3475,-11.299536 -5.54901,-11.702536 -0.093,-0.294496 -0.992,-3.875004 -0.992,-3.875004 -0.093,-0.387501 -0.589,-0.790506 -1.19349,-0.790506 -0.69751,0 -1.28651,0.604506 -1.28651,1.286506 v 22.428498"
     id="path6624"
     style="stroke-width:0.992001" />
  <path
     class="Hook"
     d="m 2639.251,58.434985 c 0,0.294525 0.093,0.790526 0.7905,1.085051 4.2625,1.394952 12.803,6.758007 19.251,17.762968 1.7825,3.069053 4.6656,7.347057 4.6656,15.57759 0,7.145486 -1.8911,14.476966 -4.464,21.622446 -0.2016,0.60453 -0.4031,1.10053 -0.31,1.488 0,0.40305 0.1084,0.69758 0.496,0.89905 0.2014,0.093 0.4029,0.093 0.496,0.093 0.6974,0 1.1934,-0.38747 1.5964,-1.08495 4.6656,-8.24601 6.2465,-18.755066 6.1536,-25.001498 0,-0.496 0,-0.790525 0,-1.193575 -0.496,-12.802964 -7.8431,-22.226973 -7.8431,-22.226973 0.2945,0 -9.1295,-12.198537 -11.811,-16.368017 -3.658,-5.65753 -5.3475,-11.299536 -5.549,-11.702536 -0.093,-0.294496 -0.992,-3.875004 -0.992,-3.875004 -0.093,-0.387501 -0.589,-0.790506 -1.1935,-0.790506 -0.6975,0 -1.2865,0.604506 -1.2865,1.286506 v 22.428498"
     id="path6626"
     style="stroke-width:0.992001" />
  <path
     class="Note"
     d="m 299.992,151.684 c 0,4.2625 3.069,9.02103 11.11349,9.02103 10.30758,0 21.12654,-8.43203 21.12654,-17.15855 0,-5.859 -4.96,-9.12948 -11.11348,-9.12948 -9.62549,0 -21.12655,8.13748 -21.12655,17.267"
     id="path6628"
     style="stroke-width:0.992001" />
  <path
     class="Note"
     d="m 1619.171,164.084 c 0,4.2625 3.069,9.02103 11.1135,9.02103 10.3076,0 21.1265,-8.43203 21.1265,-17.15855 0,-5.859 -4.96,-9.12948 -11.1135,-9.12948 -9.6254,0 -21.1265,8.13748 -21.1265,17.267"
     id="path6630"
     style="stroke-width:0.992001" />
  <path
     class="Note"
     d="m 1720.231,164.084 c 0,4.2625 3.069,9.02103 11.1135,9.02103 10.3076,0 21.1265,-8.43203 21.1265,-17.15855 0,-5.859 -4.96,-9.12948 -11.1135,-9.12948 -9.6254,0 -21.1265,8.13748 -21.1265,17.267"
     id="path6632"
     style="stroke-width:0.992001" />
  <path
     class="Note"
     d="m 198.927,164.084 c 0,4.2625 3.069,9.02103 11.11349,9.02103 10.30758,0 21.12654,-8.43203 21.12654,-17.15855 0,-5.859 -4.96,-9.12948 -11.11348,-9.12948 -9.62549,0 -21.12655,8.13748 -21.12655,17.267"
     id="path6634"
     style="stroke-width:0.992001" />
  <path
     class="Note"
     d="m 401.057,164.084 c 0,4.2625 3.069,9.02103 11.11349,9.02103 10.30758,0 21.12654,-8.43203 21.12654,-17.15855 0,-5.859 -4.96,-9.12948 -11.11348,-9.12948 -9.62549,0 -21.12655,8.13748 -21.12655,17.267"
     id="path6636"
     style="stroke-width:0.992001" />
  <path
     class="Note"
     d="m 2731.6975,146.817 c -9.6254,0 -21.1265,8.04448 -21.1265,17.267 0,4.2625 3.069,9.02103 11.1135,9.02103 10.3076,0 21.1265,-8.43203 21.1265,-17.15855 0,-5.859 -4.96,-9.12948 -11.1135,-9.12948 m -2.6814,17.46849 c -0.2946,0.186 -7.5331,4.15401 -11.0051,4.15401 -3.2705,0 -3.968,-2.66601 -3.968,-3.56501 0,-4.1695 9.92,-9.02101 10.3231,-9.22251 0.3874,-0.2015 7.44,-4.1695 11.0049,-4.1695 2.3871,0 3.968,1.395 3.968,3.565 0,4.27801 -10.0129,9.03652 -10.3229,9.23801"
     id="path6638"
     style="stroke-width:0.992001" />
  <path
     class="Note"
     d="m 502.123,151.684 c 0,4.2625 3.069,9.02103 11.11349,9.02103 10.30758,0 21.12654,-8.43203 21.12654,-17.15855 0,-5.859 -4.96,-9.12948 -11.11348,-9.12948 -9.62549,0 -21.12655,8.13748 -21.12655,17.267"
     id="path6640"
     style="stroke-width:0.992001" />
  <path
     class="Note"
     d="m 638.652,151.684 c 0,4.2625 3.069,9.02103 11.11349,9.02103 10.30758,0 21.12654,-8.43203 21.12654,-17.15855 0,-5.859 -4.96,-9.12948 -11.11348,-9.12948 -9.62549,0 -21.12655,8.13748 -21.12655,17.267"
     id="path6642"
     style="stroke-width:0.992001" />
  <path
     class="Note"
     d="m 1932.181,164.084 c 0,4.2625 3.069,9.02103 11.1135,9.02103 10.3076,0 21.1265,-8.43203 21.1265,-17.15855 0,-5.859 -4.96,-9.12948 -11.1135,-9.12948 -9.6254,0 -21.1265,8.13748 -21.1265,17.267"
     id="path6644"
     style="stroke-width:0.992001" />
  <path
     class="Note"
     d="m 739.721,126.883 c 0,4.2625 3.069,9.02103 11.11349,9.02103 10.30758,0 21.12654,-8.43203 21.12654,-17.15855 0,-5.859 -4.96,-9.12948 -11.11348,-9.12948 -9.62549,0 -21.12655,8.13748 -21.12655,17.267"
     id="path6646"
     style="stroke-width:0.992001" />
  <path
     class="Note"
     d="m 2948.161,164.084 c 0,4.2625 3.069,9.02103 11.1135,9.02103 10.3076,0 21.1265,-8.43203 21.1265,-17.15855 0,-5.859 -4.96,-9.12948 -11.1135,-9.12948 -9.6254,0 -21.1265,8.13748 -21.1265,17.267"
     id="path6648"
     style="stroke-width:0.992001" />
  <path
     class="Note"
     d="m 2054.3775,134.417 c -9.6254,0 -21.1265,8.04448 -21.1265,17.267 0,4.2625 3.069,9.02103 11.1135,9.02103 10.3076,0 21.1265,-8.43203 21.1265,-17.15855 0,-5.859 -4.96,-9.12948 -11.1135,-9.12948 m -2.6814,17.46849 c -0.2946,0.186 -7.5331,4.15401 -11.0051,4.15401 -3.2705,0 -3.968,-2.66601 -3.968,-3.56501 0,-4.1695 9.92,-9.02101 10.3231,-9.22251 0.3874,-0.2015 7.44,-4.1695 11.0049,-4.1695 2.3871,0 3.968,1.395 3.968,3.565 0,4.27801 -10.0129,9.03652 -10.3229,9.23801"
     id="path6650"
     style="stroke-width:0.992001" />
  <path
     class="Note"
     d="m 840.781,139.283 c 0,4.2625 3.069,9.02103 11.11349,9.02103 10.30758,0 21.12654,-8.43203 21.12654,-17.15855 0,-5.859 -4.96,-9.12948 -11.11348,-9.12948 -9.62549,0 -21.12655,8.13748 -21.12655,17.267"
     id="path6652"
     style="stroke-width:0.992001" />
  <path
     class="Note"
     d="m 3049.231,164.084 c 0,4.2625 3.069,9.02103 11.1135,9.02103 10.3076,0 21.1265,-8.43203 21.1265,-17.15855 0,-5.859 -4.96,-9.12948 -11.1135,-9.12948 -9.6254,0 -21.1265,8.13748 -21.1265,17.267"
     id="path6654"
     style="stroke-width:0.992001" />
  <path
     class="Note"
     d="m 2609.501,126.883 c 0,4.2625 3.069,9.02103 11.1135,9.02103 10.3076,0 21.1265,-8.43203 21.1265,-17.15855 0,-5.859 -4.96,-9.12948 -11.1135,-9.12948 -9.6254,0 -21.1265,8.13748 -21.1265,17.267"
     id="path6656"
     style="stroke-width:0.992001" />
  <path
     class="Note"
     d="m 941.851,126.883 c 0,4.2625 3.069,9.02103 11.11349,9.02103 10.30758,0 21.12654,-8.43203 21.12654,-17.15855 0,-5.859 -4.96,-9.12948 -11.11348,-9.12948 -9.62549,0 -21.12655,8.13748 -21.12655,17.267"
     id="path6658"
     style="stroke-width:0.992001" />
  <path
     class="Note"
     d="m 3150.291,164.084 c 0,4.2625 3.069,9.02103 11.1135,9.02103 10.3076,0 21.1265,-8.43203 21.1265,-17.15855 0,-5.859 -4.96,-9.12948 -11.1135,-9.12948 -9.6254,0 -21.1265,8.13748 -21.1265,17.267"
     id="path6660"
     style="stroke-width:0.992001" />
  <path
     class="Note"
     d="m 1078.381,126.883 c 0,4.2625 3.069,9.02103 11.1135,9.02103 10.3076,0 21.1265,-8.43203 21.1265,-17.15855 0,-5.859 -4.96,-9.12948 -11.1135,-9.12948 -9.6254,0 -21.1265,8.13748 -21.1265,17.267"
     id="path6662"
     style="stroke-width:0.992001" />
  <path
     class="Note"
     d="m 1179.441,164.084 c 0,4.2625 3.069,9.02103 11.1135,9.02103 10.3076,0 21.1265,-8.43203 21.1265,-17.15855 0,-5.859 -4.96,-9.12948 -11.1135,-9.12948 -9.6254,0 -21.1265,8.13748 -21.1265,17.267"
     id="path6664"
     style="stroke-width:0.992001" />
  <path
     class="Note"
     d="m 2270.841,151.684 c 0,4.2625 3.069,9.02103 11.1135,9.02103 10.3076,0 21.1265,-8.43203 21.1265,-17.15855 0,-5.859 -4.96,-9.12948 -11.1135,-9.12948 -9.6254,0 -21.1265,8.13748 -21.1265,17.267"
     id="path6666"
     style="stroke-width:0.992001" />
  <path
     class="Note"
     d="m 1280.511,176.484 c 0,4.2625 3.069,9.02103 11.1135,9.02103 10.3076,0 21.1265,-8.43203 21.1265,-17.15855 0,-5.859 -4.96,-9.12948 -11.1135,-9.12948 -9.6254,0 -21.1265,8.13748 -21.1265,17.267"
     id="path6668"
     style="stroke-width:0.992001" />
  <path
     class="Note"
     d="m 2393.0375,109.616 c -9.6254,0 -21.1265,8.04448 -21.1265,17.267 0,4.2625 3.069,9.02103 11.1135,9.02103 10.3076,0 21.1265,-8.43203 21.1265,-17.15855 0,-5.859 -4.96,-9.12948 -11.1135,-9.12948 m -2.6814,17.46849 c -0.2946,0.186 -7.5331,4.15401 -11.0051,4.15401 -3.2705,0 -3.968,-2.66601 -3.968,-3.56501 0,-4.1695 9.92,-9.02101 10.3231,-9.22251 0.3874,-0.2015 7.44,-4.1695 11.0049,-4.1695 2.3871,0 3.968,1.395 3.968,3.565 0,4.27801 -10.0129,9.03652 -10.3229,9.23801"
     id="path6670"
     style="stroke-width:0.992001" />
  <path
     class="Note"
     d="m 3329.121,164.084 c 0,4.2625 3.069,9.02103 11.1135,9.02103 10.3076,0 21.1265,-8.43203 21.1265,-17.15855 0,-5.859 -4.96,-9.12948 -11.1135,-9.12948 -9.6254,0 -21.1265,8.13748 -21.1265,17.267"
     id="path6672"
     style="stroke-width:0.992001" />
  <path
     class="Note"
     d="m 1381.571,164.084 c 0,4.2625 3.069,9.02103 11.1135,9.02103 10.3076,0 21.1265,-8.43203 21.1265,-17.15855 0,-5.859 -4.96,-9.12948 -11.1135,-9.12948 -9.6254,0 -21.1265,8.13748 -21.1265,17.267"
     id="path6674"
     style="stroke-width:0.992001" />
  <path
     class="Note"
     d="m 3451.3175,134.417 c -9.6254,0 -21.1265,8.04448 -21.1265,17.267 0,4.2625 3.069,9.02103 11.1135,9.02103 10.3076,0 21.1265,-8.43203 21.1265,-17.15855 0,-5.859 -4.96,-9.12948 -11.1135,-9.12948 m -2.6814,17.46849 c -0.2946,0.186 -7.5331,4.15401 -11.0051,4.15401 -3.2705,0 -3.968,-2.66601 -3.968,-3.56501 0,-4.1695 9.92,-9.02101 10.3231,-9.22251 0.3874,-0.2015 7.44,-4.1695 11.0049,-4.1695 2.3871,0 3.968,1.395 3.968,3.565 0,4.27801 -10.0129,9.03652 -10.3229,9.23801"
     id="path6676"
     style="stroke-width:0.992001" />
  <path
     class="Note"
     d="m 1518.101,164.084 c 0,4.2625 3.069,9.02103 11.1135,9.02103 10.3076,0 21.1265,-8.43203 21.1265,-17.15855 0,-5.859 -4.96,-9.12948 -11.1135,-9.12948 -9.6254,0 -21.1265,8.13748 -21.1265,17.267"
     id="path6678"
     style="stroke-width:0.992001" />
  <path
     class="Clef"
     d="m 74.353531,112.39049 c 0,7.05251 -2.882953,14.29101 -9.92001,17.17407 -2.076952,-11.90407 -4.75843,-27.68308 -5.456005,-32.054135 8.928009,0 15.376015,6.060555 15.376015,14.880065 m -14.089489,18.35207 c -1.984002,0.40295 -3.859479,0.60442 -5.750531,0.60442 -14.182439,0 -26.287996,-9.92001 -26.287996,-24.9085 0,-12.090058 8.525028,-22.90902 17.267037,-30.457552 1.674002,-1.488002 3.270528,-2.867478 4.75853,-4.35548 0.883476,5.347481 1.580952,10.012961 2.278427,14.08949 -9.036434,2.681478 -15.17444,12.198537 -15.17444,21.529542 0,6.94401 5.456005,16.46102 13.392013,16.46102 0.790426,0 1.689477,-0.40295 1.689477,-1.28653 0,-0.89895 -0.992001,-1.39495 -2.185477,-2.18547 -3.875054,-2.38701 -6.060531,-4.96001 -6.060531,-9.82701 0,-6.04501 4.464004,-10.912063 10.32296,-12.29154 l 5.750531,32.62761 M 51.537508,28.76793 c 0.899051,-3.968004 5.456006,-14.384015 10.617586,-14.384015 1.488001,0 3.859479,4.85148 3.859479,11.702438 0,10.32306 -7.626008,18.057592 -14.477065,24.800025 -0.588951,-3.968004 -1.084951,-7.827483 -1.084951,-11.996963 0,-3.673479 0.294525,-7.052532 1.084951,-10.121485 M 30.705487,161.20006 c 0,6.55653 5.053055,15.19002 18.445069,15.19002 4.66548,0 8.742008,-1.19348 12.306962,-3.37905 5.363055,-3.76643 6.742532,-10.32297 6.742532,-16.5695 0,-3.85948 -0.588951,-8.32348 -1.580952,-13.98096 -0.294525,-1.984 -0.89905,-4.96001 -1.488001,-8.83506 9.718435,-3.17748 16.956967,-13.29896 16.956967,-23.51352 0,-14.973043 -10.617486,-25.094528 -25.09455,-25.094528 C 56.001513,79.065456 55.009512,73.2064 54.110561,67.657444 64.635096,56.636908 71.873529,44.236896 71.873529,28.473405 c 0,-9.036534 -2.774428,-16.368017 -4.370955,-19.9481484 C 65.131097,3.4720035 62.248044,0 60.465517,0 59.768042,0 56.699088,1.1933772 53.42856,5.0532531 47.073504,12.601389 45.291077,25.295926 45.291077,33.61941 c 0,5.362956 0.496,10.23001 2.185477,21.343497 -0.108525,0.09305 -5.270005,5.34748 -7.347057,7.037056 C 31.093062,70.431972 18.6,82.428934 18.6,102.28448 c 0,18.53807 16.166541,33.12356 34.627085,33.12356 2.867478,0 5.548956,-0.29453 7.827483,-0.69748 1.890952,9.53244 2.976003,16.47644 2.976003,21.73097 0,10.32306 -5.25453,15.77907 -15.267491,15.77907 -2.387052,0 -4.464004,-0.496 -4.665579,-0.496 -0.09295,-0.10853 -0.294426,-0.20158 -0.294426,-0.29453 0,-0.20147 0.201475,-0.31 0.496001,-0.40305 4.665479,-0.69747 9.315484,-4.66548 9.315484,-11.00496 0,-5.36305 -4.061054,-11.02053 -11.501061,-11.02053 -6.944007,0 -11.408012,5.65748 -11.408012,12.19853"
     id="path6680"
     style="stroke-width:0.992001" />
  <path
     class="TimeSig"
     d="m 136.3845,59.628486 c 7.93601,-3.084508 8.43201,-8.246009 8.43201,-10.028486 0,-0.201574 0,-0.387574 0,-0.496 0,-0.883575 -0.29442,-12.105587 -17.36002,-12.105587 C 110.391,36.998413 110.887,49.104 110.887,49.104 h 0.093 l -0.093,0.201475 c 0,3.565004 2.883,6.355007 6.44801,6.355007 3.56505,0 6.35505,-2.790003 6.35505,-6.355007 0,-2.883052 -2.18557,-5.657481 -4.96005,-6.246531 0.093,-0.108525 0.186,-0.201475 0.2945,-0.294525 1.37955,-0.992001 3.2705,-1.488001 5.16155,-1.488001 4.15401,0 8.61801,2.480002 8.61801,7.827582 0,6.246481 -4.65,7.145482 -5.84358,7.346977 -1.19347,0.201506 -6.74243,0.589001 -7.93598,0.589001 -1.1935,0 -1.2865,1.395001 -1.2865,1.395001 v 1.984007 c 0,0 0.186,1.085001 1.2865,1.193502 1.68955,0.093 3.96798,0.093 7.14556,0.589 4.35548,0.589001 6.634,3.565004 6.634,10.50906 0,6.649482 -4.464,8.432009 -8.61801,8.432009 -2.79,0 -5.36305,-0.790526 -6.44805,-1.581051 3.27048,-0.201476 5.95205,-3.068954 5.95205,-6.354957 0,-3.565053 -2.79,-6.448056 -6.35505,-6.448056 -3.56501,0 -6.44801,2.883003 -6.44801,6.448056 0,0 0,0.201475 0,0.402951 0,1.286526 0.29451,4.867054 3.87501,8.137483 3.8595,3.565053 8.72648,3.673578 10.91206,3.673578 9.51696,0 19.84002,-3.286003 19.84002,-14.089588 0,-7.238483 -4.96001,-10.322986 -9.33106,-11.702487 h 0.20147"
     id="path6682"
     style="stroke-width:0.992001" />
  <path
     class="TimeSig"
     d="m 126.12355,122.91498 v 7.33158 h -8.23054 c -0.69747,0 -1.39495,0.60442 -1.39495,1.39495 v 1.89105 c 0,0.79043 0.69748,1.37948 1.39495,1.37948 h 30.05456 c 0.806,0 1.39495,-0.58905 1.39495,-1.37948 v -1.89105 c 0,-0.79053 -0.58895,-1.39495 -1.39495,-1.39495 h -8.92801 v -7.33158 h 8.92801 c 0.806,0 1.39495,-0.69748 1.39495,-1.48801 V 119.536 c 0,-0.6975 -0.58895,-1.3795 -1.39495,-1.3795 h -8.92801 v -15.77902 c 0,-0.589 -0.29453,-1.085 -0.682,-1.28651 l -1.19348,-0.60449 c -0.20157,-0.093 -0.29452,-0.093 -0.496,-0.093 -0.10852,0 -0.10852,0 -0.20157,0 -0.29443,0 -0.69748,0.093 -0.89895,0.29449 l -9.02106,8.23052 c -0.29443,0.31 -0.40295,0.6975 -0.40295,1.1005 v 8.13751 h -11.50104 c 0,0 11.11356,-11.90402 22.816,-27.590082 0.40305,-0.496001 0.496,-0.992001 0.496,-1.379477 0,-0.496 -0.20148,-0.898951 -0.29443,-0.992001 l -2.18557,-2.185477 c -0.29443,-0.201476 -0.58896,-0.40305 -0.99201,-0.40305 -0.58895,0 -13.99644,0 -14.78696,0 -0.69748,0 -1.19348,0.604525 -1.28653,1.193575 0,0 -0.496,7.346958 -3.069,15.375982 -2.5885,8.04452 -5.5645,13.00452 -8.1375,16.66253 0,0 -0.29451,0.496 -0.29451,1.1005 0,0.2015 0,0.38755 0.093,0.58902 0.29451,0.69748 0.992,1.78253 0.992,1.78253 0,0 0.20151,0.60443 1.085,0.60443 h 17.06555"
     id="path6684"
     style="stroke-width:0.992001" />
  <path
     class="Rest"
     d="m 2838.1205,65.378942 c -0.093,0 -0.2944,-0.108525 -0.4029,-0.108525 -0.5891,0 -1.0851,0.310001 -1.2866,0.806001 -0.4029,0.58905 -3.472,6.448007 -7.936,9.718554 -1.2865,0.992001 -2.8829,1.689507 -4.464,1.984002 1.0851,-1.286496 1.7825,-2.882973 1.7825,-4.758549 0,-3.874954 -3.1774,-7.052433 -7.037,-7.052433 -3.968,0 -7.1455,3.177479 -7.1455,7.052433 0,3.069053 1.891,5.549055 4.464,6.634056 1.488,0.697496 3.472,1.193497 5.456,1.193497 2.8831,0 5.952,-0.883496 8.6335,-2.867498 1.1936,-0.899001 2.3716,-2.092507 3.472,-3.286053 l -11.315,35.324563 2.6815,0.79052 13.888,-43.741091 c 0.1086,-0.108426 0.1086,-0.31 0.1086,-0.496 0,-0.496001 -0.31,-0.898952 -0.8991,-1.193477"
     id="path6686"
     style="stroke-width:0.992001" />
  <path
     class="Rest"
     d="m 2160.8005,65.378942 c -0.093,0 -0.2944,-0.108525 -0.4029,-0.108525 -0.5891,0 -1.0851,0.310001 -1.2866,0.806001 -0.4029,0.58905 -3.472,6.448007 -7.936,9.718554 -1.2865,0.992001 -2.8829,1.689507 -4.464,1.984002 1.0851,-1.286496 1.7825,-2.882973 1.7825,-4.758549 0,-3.874954 -3.1774,-7.052433 -7.037,-7.052433 -3.968,0 -7.1455,3.177479 -7.1455,7.052433 0,3.069053 1.891,5.549055 4.464,6.634056 1.488,0.697496 3.472,1.193497 5.456,1.193497 2.8831,0 5.952,-0.883496 8.6335,-2.867498 1.1936,-0.899001 2.3716,-2.092507 3.472,-3.286053 l -11.315,35.324563 2.6815,0.79052 13.888,-43.741091 c 0.1086,-0.108426 0.1086,-0.31 0.1086,-0.496 0,-0.496001 -0.31,-0.898952 -0.8991,-1.193477"
     id="path6688"
     style="stroke-width:0.992001" />
  <path
     class="Rest"
     d="m 2499.4605,65.378942 c -0.093,0 -0.2944,-0.108525 -0.4029,-0.108525 -0.5891,0 -1.0851,0.310001 -1.2866,0.806001 -0.4029,0.58905 -3.472,6.448007 -7.936,9.718554 -1.2865,0.992001 -2.8829,1.689507 -4.464,1.984002 1.0851,-1.286496 1.7825,-2.882973 1.7825,-4.758549 0,-3.874954 -3.1774,-7.052433 -7.037,-7.052433 -3.968,0 -7.1455,3.177479 -7.1455,7.052433 0,3.069053 1.891,5.549055 4.464,6.634056 1.488,0.697496 3.472,1.193497 5.456,1.193497 2.8831,0 5.952,-0.883496 8.6335,-2.867498 1.1936,-0.899001 2.3716,-2.092507 3.472,-3.286053 l -11.315,35.324563 2.6815,0.79052 13.888,-43.741091 c 0.1086,-0.108426 0.1086,-0.31 0.1086,-0.496 0,-0.496001 -0.31,-0.898952 -0.8991,-1.193477"
     id="path6690"
     style="stroke-width:0.992001" />
  <path
     class="Rest"
     d="m 3557.7405,65.378942 c -0.093,0 -0.2944,-0.108525 -0.4029,-0.108525 -0.5891,0 -1.0851,0.310001 -1.2866,0.806001 -0.4029,0.58905 -3.472,6.448007 -7.936,9.718554 -1.2865,0.992001 -2.8829,1.689507 -4.464,1.984002 1.0851,-1.286496 1.7825,-2.882973 1.7825,-4.758549 0,-3.874954 -3.1774,-7.052433 -7.037,-7.052433 -3.968,0 -7.1455,3.177479 -7.1455,7.052433 0,3.069053 1.891,5.549055 4.464,6.634056 1.488,0.697496 3.472,1.193497 5.456,1.193497 2.8831,0 5.952,-0.883496 8.6335,-2.867498 1.1936,-0.899001 2.3716,-2.092507 3.472,-3.286053 l -11.315,35.324563 2.6815,0.79052 13.888,-43.741091 c 0.1086,-0.108426 0.1086,-0.31 0.1086,-0.496 0,-0.496001 -0.31,-0.898952 -0.8991,-1.193477"
     id="path6692"
     style="stroke-width:0.992001" />
</svg>
