<?xml version="1.0" encoding="UTF-8" standalone="no"?>
<svg
   xmlns:dc="http://purl.org/dc/elements/1.1/"
   xmlns:cc="http://creativecommons.org/ns#"
   xmlns:rdf="http://www.w3.org/1999/02/22-rdf-syntax-ns#"
   xmlns:svg="http://www.w3.org/2000/svg"
   xmlns="http://www.w3.org/2000/svg"
   xmlns:sodipodi="http://sodipodi.sourceforge.net/DTD/sodipodi-0.dtd"
   xmlns:inkscape="http://www.inkscape.org/namespaces/inkscape"
   width="266.95413mm"
   height="48.944458mm"
   viewBox="0 0 3783.6019 693.70098"
   version="1.2"
   id="svg2251"
   sodipodi:docname="Dossium Canto Landheer Musica.svg"
   inkscape:version="1.0.2-2 (e86c870879, 2021-01-15)">
  <metadata
     id="metadata2257">
    <rdf:RDF>
      <cc:Work
         rdf:about="">
        <dc:format>image/svg+xml</dc:format>
        <dc:type
           rdf:resource="http://purl.org/dc/dcmitype/StillImage" />
      </cc:Work>
    </rdf:RDF>
  </metadata>
  <defs
     id="defs2255" />
  <sodipodi:namedview
     pagecolor="#ffffff"
     bordercolor="#666666"
     borderopacity="1"
     objecttolerance="10"
     gridtolerance="10"
     guidetolerance="10"
     inkscape:pageopacity="0"
     inkscape:pageshadow="2"
     inkscape:window-width="1920"
     inkscape:window-height="991"
     id="namedview2253"
     showgrid="false"
     inkscape:zoom="1.0328497"
     inkscape:cx="504.42719"
     inkscape:cy="256.3752"
     inkscape:window-x="-9"
     inkscape:window-y="-9"
     inkscape:window-maximized="1"
     inkscape:current-layer="svg2251" />
  <title
     id="title1765">Dossium Canto Landheer Musica</title>
  <desc
     id="desc1767">Generated by MuseScore Studio 4.5.0</desc>
  <polyline
     class="StaffLines"
     fill="none"
     stroke="#000000"
     stroke-width="2.73"
     stroke-linejoin="bevel"
     points="336.598,634.198 3996.2,634.198"
     id="polyline1769"
     transform="translate(-212.598,-527.193)" />
  <polyline
     class="StaffLines"
     fill="none"
     stroke="#000000"
     stroke-width="2.73"
     stroke-linejoin="bevel"
     points="336.598,658.998 3996.2,658.998"
     id="polyline1771"
     transform="translate(-212.598,-527.193)" />
  <polyline
     class="StaffLines"
     fill="none"
     stroke="#000000"
     stroke-width="2.73"
     stroke-linejoin="bevel"
     points="336.598,683.798 3996.2,683.798"
     id="polyline1773"
     transform="translate(-212.598,-527.193)" />
  <polyline
     class="StaffLines"
     fill="none"
     stroke="#000000"
     stroke-width="2.73"
     stroke-linejoin="bevel"
     points="336.598,708.598 3996.2,708.598"
     id="polyline1775"
     transform="translate(-212.598,-527.193)" />
  <polyline
     class="StaffLines"
     fill="none"
     stroke="#000000"
     stroke-width="2.73"
     stroke-linejoin="bevel"
     points="336.598,733.398 3996.2,733.398"
     id="polyline1777"
     transform="translate(-212.598,-527.193)" />
  <polyline
     class="StaffLines"
     fill="none"
     stroke="#000000"
     stroke-width="2.73"
     stroke-linejoin="bevel"
     points="212.598,1057.4 3996.2,1057.4"
     id="polyline1779"
     transform="translate(-212.598,-527.193)" />
  <polyline
     class="StaffLines"
     fill="none"
     stroke="#000000"
     stroke-width="2.73"
     stroke-linejoin="bevel"
     points="212.598,1082.2 3996.2,1082.2"
     id="polyline1781"
     transform="translate(-212.598,-527.193)" />
  <polyline
     class="StaffLines"
     fill="none"
     stroke="#000000"
     stroke-width="2.73"
     stroke-linejoin="bevel"
     points="212.598,1107 3996.2,1107"
     id="polyline1783"
     transform="translate(-212.598,-527.193)" />
  <polyline
     class="StaffLines"
     fill="none"
     stroke="#000000"
     stroke-width="2.73"
     stroke-linejoin="bevel"
     points="212.598,1131.8 3996.2,1131.8"
     id="polyline1785"
     transform="translate(-212.598,-527.193)" />
  <polyline
     class="StaffLines"
     fill="none"
     stroke="#000000"
     stroke-width="2.73"
     stroke-linejoin="bevel"
     points="212.598,1156.6 3996.2,1156.6"
     id="polyline1787"
     transform="translate(-212.598,-527.193)" />
  <path
     class="MeasureNumber"
     d="m 15.719,466.938 c -1,4.641 -3.687,12.589 -9.406,12.589 -1.156,0 -1.906,-0.48 -1.906,-1.2 0,-0.28 0.078,-0.39 0.39,-0.87 0.407,-0.52 0.61,-1 0.61,-1.57 0,-1.31 -1.047,-2.31 -2.407,-2.31 -1.593,0 -2.718,1.19 -2.718,2.95 0,2.72 2.562,4.68 6.125,4.68 8.75,0 14.343,-11.191 14.343,-18.8 0,-6.235 -3,-9.953 -7.953,-9.953 -5.953,0 -10.39,5.484 -10.39,11.203 0,3.797 2.906,6.672 6.797,6.672 2.64,0 4.671,-1.078 6.515,-3.391 m -2.953,-12.797 c 2.547,0 4.188,2.031 4.188,5.235 0,4.953 -2.719,8.593 -6.391,8.593 -2.531,0 -3.922,-1.718 -3.922,-4.718 0,-3.594 1.719,-9.11 6.125,-9.11"
     id="path1795" />
  <path
     class="TieSegment"
     stroke="#000000"
     stroke-width="1.24"
     stroke-linecap="round"
     stroke-linejoin="round"
     fill-rule="evenodd"
     d="m 3210.502,187.102 c 11.41,12.796 45.62,12.796 57.03,0 -11.41,19.045 -45.62,19.045 -57.03,0"
     id="path1797" />
  <polyline
     class="BarLine"
     fill="none"
     stroke="#000000"
     stroke-width="4.46"
     stroke-linejoin="bevel"
     points="1030.17,632.834 1030.17,734.762"
     id="polyline1799"
     transform="translate(-212.598,-527.193)" />
  <polyline
     class="BarLine"
     fill="none"
     stroke="#000000"
     stroke-width="4.46"
     stroke-linejoin="bevel"
     points="1380.9,632.834 1380.9,734.762"
     id="polyline1801"
     transform="translate(-212.598,-527.193)" />
  <path
     class="BarLine"
     d="m 1993.645,144.205 c 0,-2.883 -2.294,-5.2545 -5.1615,-5.2545 -2.883,0 -5.1615,2.3715 -5.1615,5.2545 0,2.883 2.2785,5.2545 5.1615,5.2545 2.8675,0 5.1615,-2.3715 5.1615,-5.2545"
     id="path1803"
     style="stroke-width:0.992" />
  <path
     class="BarLine"
     d="m 1993.645,169.005 c 0,-2.883 -2.294,-5.2545 -5.1615,-5.2545 -2.883,0 -5.1615,2.3715 -5.1615,5.2545 0,2.883 2.2785,5.2545 5.1615,5.2545 2.8675,0 5.1615,-2.3715 5.1615,-5.2545"
     id="path1805"
     style="stroke-width:0.992" />
  <polyline
     class="BarLine"
     fill="none"
     stroke="#000000"
     stroke-width="4.46"
     stroke-linejoin="bevel"
     points="2217.63,632.834 2217.63,734.762"
     id="polyline1807"
     transform="translate(-212.598,-527.193)" />
  <polyline
     class="BarLine"
     fill="none"
     stroke="#000000"
     stroke-width="13.64"
     stroke-linejoin="bevel"
     points="2235.86,632.834 2235.86,734.762"
     id="polyline1809"
     transform="translate(-212.598,-527.193)" />
  <polyline
     class="BarLine"
     fill="none"
     stroke="#000000"
     stroke-width="4.46"
     stroke-linejoin="bevel"
     points="3993.97,632.834 3993.97,734.762"
     id="polyline1811"
     transform="translate(-212.598,-527.193)" />
  <polyline
     class="BarLine"
     fill="none"
     stroke="#000000"
     stroke-width="4.46"
     stroke-linejoin="bevel"
     points="1357.82,1056.04 1357.82,1157.97"
     id="polyline1813"
     transform="translate(-212.598,-527.193)" />
  <path
     class="BarLine"
     d="m 3370.195,144.205 c 0,-2.883 -2.294,-5.2545 -5.1615,-5.2545 -2.883,0 -5.1615,2.3715 -5.1615,5.2545 0,2.883 2.2785,5.2545 5.1615,5.2545 2.8675,0 5.1615,-2.3715 5.1615,-5.2545"
     id="path1815"
     style="stroke-width:0.992" />
  <path
     class="BarLine"
     d="m 3370.195,169.005 c 0,-2.883 -2.294,-5.2545 -5.1615,-5.2545 -2.883,0 -5.1615,2.3715 -5.1615,5.2545 0,2.883 2.2785,5.2545 5.1615,5.2545 2.8675,0 5.1615,-2.3715 5.1615,-5.2545"
     id="path1817"
     style="stroke-width:0.992" />
  <polyline
     class="BarLine"
     fill="none"
     stroke="#000000"
     stroke-width="4.46"
     stroke-linejoin="bevel"
     points="3594.19,632.834 3594.19,734.762"
     id="polyline1819"
     transform="translate(-212.598,-527.193)" />
  <polyline
     class="BarLine"
     fill="none"
     stroke="#000000"
     stroke-width="13.64"
     stroke-linejoin="bevel"
     points="3612.42,632.834 3612.42,734.762"
     id="polyline1821"
     transform="translate(-212.598,-527.193)" />
  <polyline
     class="BarLine"
     fill="none"
     stroke="#000000"
     stroke-width="4.46"
     stroke-linejoin="bevel"
     points="921.453,1056.04 921.453,1157.97"
     id="polyline1823"
     transform="translate(-212.598,-527.193)" />
  <path
     class="BarLine"
     d="m 2756.275,567.407 c 0,-2.883 -2.294,-5.2545 -5.1615,-5.2545 -2.883,0 -5.1615,2.3715 -5.1615,5.2545 0,2.883 2.2785,5.2545 5.1615,5.2545 2.8675,0 5.1615,-2.3715 5.1615,-5.2545"
     id="path1825"
     style="stroke-width:0.992" />
  <path
     class="BarLine"
     d="m 2756.275,592.207 c 0,-2.883 -2.294,-5.2545 -5.1615,-5.2545 -2.883,0 -5.1615,2.3715 -5.1615,5.2545 0,2.883 2.2785,5.2545 5.1615,5.2545 2.8675,0 5.1615,-2.3715 5.1615,-5.2545"
     id="path1827"
     style="stroke-width:0.992" />
  <polyline
     class="BarLine"
     fill="none"
     stroke="#000000"
     stroke-width="4.46"
     stroke-linejoin="bevel"
     points="2980.26,1056.04 2980.26,1157.97"
     id="polyline1829"
     transform="translate(-212.598,-527.193)" />
  <polyline
     class="BarLine"
     fill="none"
     stroke="#000000"
     stroke-width="13.64"
     stroke-linejoin="bevel"
     points="2998.49,1056.04 2998.49,1157.97"
     id="polyline1831"
     transform="translate(-212.598,-527.193)" />
  <polyline
     class="BarLine"
     fill="none"
     stroke="#000000"
     stroke-width="4.46"
     stroke-linejoin="bevel"
     points="2396.19,1056.04 2396.19,1157.97"
     id="polyline1833"
     transform="translate(-212.598,-527.193)" />
  <polyline
     class="BarLine"
     fill="none"
     stroke="#000000"
     stroke-width="4.46"
     stroke-linejoin="bevel"
     points="1847.41,632.834 1847.41,734.762"
     id="polyline1835"
     transform="translate(-212.598,-527.193)" />
  <polyline
     class="BarLine"
     fill="none"
     stroke="#000000"
     stroke-width="13.64"
     stroke-linejoin="bevel"
     points="2595.78,632.834 2595.78,734.762"
     id="polyline1837"
     transform="translate(-212.598,-527.193)" />
  <polyline
     class="BarLine"
     fill="none"
     stroke="#000000"
     stroke-width="4.46"
     stroke-linejoin="bevel"
     points="2614.01,632.834 2614.01,734.762"
     id="polyline1839"
     transform="translate(-212.598,-527.193)" />
  <path
     class="BarLine"
     d="m 2423.135,144.205 c 0,-2.883 -2.294,-5.2545 -5.1615,-5.2545 -2.883,0 -5.1615,2.3715 -5.1615,5.2545 0,2.883 2.2785,5.2545 5.1615,5.2545 2.8675,0 5.1615,-2.3715 5.1615,-5.2545"
     id="path1841"
     style="stroke-width:0.992" />
  <path
     class="BarLine"
     d="m 2423.135,169.005 c 0,-2.883 -2.294,-5.2545 -5.1615,-5.2545 -2.883,0 -5.1615,2.3715 -5.1615,5.2545 0,2.883 2.2785,5.2545 5.1615,5.2545 2.8675,0 5.1615,-2.3715 5.1615,-5.2545"
     id="path1843"
     style="stroke-width:0.992" />
  <polyline
     class="BarLine"
     fill="none"
     stroke="#000000"
     stroke-width="4.46"
     stroke-linejoin="bevel"
     points="3971.15,1056.04 3971.15,1157.97"
     id="polyline1845"
     transform="translate(-212.598,-527.193)" />
  <polyline
     class="BarLine"
     fill="none"
     stroke="#000000"
     stroke-width="13.64"
     stroke-linejoin="bevel"
     points="3989.38,1056.04 3989.38,1157.97"
     id="polyline1847"
     transform="translate(-212.598,-527.193)" />
  <polyline
     class="BarLine"
     fill="none"
     stroke="#000000"
     stroke-width="4.46"
     stroke-linejoin="bevel"
     points="3100,632.834 3100,734.762"
     id="polyline1849"
     transform="translate(-212.598,-527.193)" />
  <path
     class="BarLine"
     d="m 1704.045,567.407 c 0,-2.883 -2.294,-5.2545 -5.1615,-5.2545 -2.883,0 -5.1615,2.3715 -5.1615,5.2545 0,2.883 2.2785,5.2545 5.1615,5.2545 2.8675,0 5.1615,-2.3715 5.1615,-5.2545"
     id="path1851"
     style="stroke-width:0.992" />
  <path
     class="BarLine"
     d="m 1704.045,592.207 c 0,-2.883 -2.294,-5.2545 -5.1615,-5.2545 -2.883,0 -5.1615,2.3715 -5.1615,5.2545 0,2.883 2.2785,5.2545 5.1615,5.2545 2.8675,0 5.1615,-2.3715 5.1615,-5.2545"
     id="path1853"
     style="stroke-width:0.992" />
  <polyline
     class="BarLine"
     fill="none"
     stroke="#000000"
     stroke-width="4.46"
     stroke-linejoin="bevel"
     points="1928.03,1056.04 1928.03,1157.97"
     id="polyline1855"
     transform="translate(-212.598,-527.193)" />
  <polyline
     class="BarLine"
     fill="none"
     stroke="#000000"
     stroke-width="13.64"
     stroke-linejoin="bevel"
     points="1946.26,1056.04 1946.26,1157.97"
     id="polyline1857"
     transform="translate(-212.598,-527.193)" />
  <polyline
     class="BarLine"
     fill="none"
     stroke="#000000"
     stroke-width="4.46"
     stroke-linejoin="bevel"
     points="3439.45,1056.04 3439.45,1157.97"
     id="polyline1859"
     transform="translate(-212.598,-527.193)" />
  <polyline
     class="BarLine"
     fill="none"
     stroke="#000000"
     stroke-width="13.64"
     stroke-linejoin="bevel"
     points="3612.42,632.834 3612.42,734.762"
     id="polyline1861"
     transform="translate(-212.598,-527.193)" />
  <polyline
     class="BarLine"
     fill="none"
     stroke="#000000"
     stroke-width="4.46"
     stroke-linejoin="bevel"
     points="3630.64,632.834 3630.64,734.762"
     id="polyline1863"
     transform="translate(-212.598,-527.193)" />
  <path
     class="BarLine"
     d="m 3439.775,144.205 c 0,-2.883 -2.294,-5.2545 -5.1615,-5.2545 -2.883,0 -5.1615,2.3715 -5.1615,5.2545 0,2.883 2.2785,5.2545 5.1615,5.2545 2.8675,0 5.1615,-2.3715 5.1615,-5.2545"
     id="path1865"
     style="stroke-width:0.992" />
  <path
     class="BarLine"
     d="m 3439.775,169.005 c 0,-2.883 -2.294,-5.2545 -5.1615,-5.2545 -2.883,0 -5.1615,2.3715 -5.1615,5.2545 0,2.883 2.2785,5.2545 5.1615,5.2545 2.8675,0 5.1615,-2.3715 5.1615,-5.2545"
     id="path1867"
     style="stroke-width:0.992" />
  <polyline
     class="LedgerLine"
     fill="none"
     stroke="#000000"
     stroke-width="3.97"
     stroke-linejoin="bevel"
     points="1975.89,1032.6 2024.49,1032.6"
     id="polyline1869"
     transform="translate(-212.598,-527.193)" />
  <polyline
     class="Stem"
     fill="none"
     stroke="#000000"
     stroke-width="2.48"
     stroke-linejoin="bevel"
     points="1985.32,1024.37 1985.32,1107"
     id="polyline1871"
     transform="translate(-212.598,-527.193)" />
  <polyline
     class="Stem"
     fill="none"
     stroke="#000000"
     stroke-width="2.48"
     stroke-linejoin="bevel"
     points="2121.94,1061.57 2121.94,1144.2"
     id="polyline1873"
     transform="translate(-212.598,-527.193)" />
  <polyline
     class="Stem"
     fill="none"
     stroke="#000000"
     stroke-width="2.48"
     stroke-linejoin="bevel"
     points="2258.57,1086.37 2258.57,1169"
     id="polyline1875"
     transform="translate(-212.598,-527.193)" />
  <polyline
     class="Stem"
     fill="none"
     stroke="#000000"
     stroke-width="2.48"
     stroke-linejoin="bevel"
     points="2430.66,1111.17 2430.66,1181.4"
     id="polyline1877"
     transform="translate(-212.598,-527.193)" />
  <polyline
     class="Stem"
     fill="none"
     stroke="#000000"
     stroke-width="2.48"
     stroke-linejoin="bevel"
     points="598.13,687.965 598.13,751.998"
     id="polyline1879"
     transform="translate(-212.598,-527.193)" />
  <polyline
     class="Stem"
     fill="none"
     stroke="#000000"
     stroke-width="2.48"
     stroke-linejoin="bevel"
     points="2567.28,1098.77 2567.28,1175.08"
     id="polyline1881"
     transform="translate(-212.598,-527.193)" />
  <polyline
     class="Stem"
     fill="none"
     stroke="#000000"
     stroke-width="2.48"
     stroke-linejoin="bevel"
     points="2629.27,1086.37 2629.27,1169.12"
     id="polyline1883"
     transform="translate(-212.598,-527.193)" />
  <polyline
     class="Stem"
     fill="none"
     stroke="#000000"
     stroke-width="2.48"
     stroke-linejoin="bevel"
     points="2691.25,1098.77 2691.25,1169.05"
     id="polyline1885"
     transform="translate(-212.598,-527.193)" />
  <polyline
     class="Stem"
     fill="none"
     stroke="#000000"
     stroke-width="2.48"
     stroke-linejoin="bevel"
     points="668.191,687.965 668.191,751.998"
     id="polyline1887"
     transform="translate(-212.598,-527.193)" />
  <polyline
     class="Stem"
     fill="none"
     stroke="#000000"
     stroke-width="2.48"
     stroke-linejoin="bevel"
     points="2753.24,1111.17 2753.24,1171.52"
     id="polyline1889"
     transform="translate(-212.598,-527.193)" />
  <polyline
     class="Stem"
     fill="none"
     stroke="#000000"
     stroke-width="2.48"
     stroke-linejoin="bevel"
     points="738.252,687.965 738.252,751.998"
     id="polyline1891"
     transform="translate(-212.598,-527.193)" />
  <polyline
     class="Stem"
     fill="none"
     stroke="#000000"
     stroke-width="2.48"
     stroke-linejoin="bevel"
     points="3037.55,1111.17 3037.55,1181.4"
     id="polyline1893"
     transform="translate(-212.598,-527.193)" />
  <polyline
     class="Stem"
     fill="none"
     stroke="#000000"
     stroke-width="2.48"
     stroke-linejoin="bevel"
     points="808.313,687.965 808.313,758.198"
     id="polyline1895"
     transform="translate(-212.598,-527.193)" />
  <polyline
     class="Stem"
     fill="none"
     stroke="#000000"
     stroke-width="2.48"
     stroke-linejoin="bevel"
     points="3210.74,1111.17 3210.74,1187.5"
     id="polyline1897"
     transform="translate(-212.598,-527.193)" />
  <polyline
     class="Stem"
     fill="none"
     stroke="#000000"
     stroke-width="2.48"
     stroke-linejoin="bevel"
     points="3301.83,1111.17 3301.83,1181.4"
     id="polyline1899"
     transform="translate(-212.598,-527.193)" />
  <polyline
     class="Stem"
     fill="none"
     stroke="#000000"
     stroke-width="2.48"
     stroke-linejoin="bevel"
     points="870.298,663.165 870.298,758.198"
     id="polyline1901"
     transform="translate(-212.598,-527.193)" />
  <polyline
     class="Stem"
     fill="none"
     stroke="#000000"
     stroke-width="2.48"
     stroke-linejoin="bevel"
     points="3473.92,1111.17 3473.92,1187.5"
     id="polyline1903"
     transform="translate(-212.598,-527.193)" />
  <polyline
     class="Stem"
     fill="none"
     stroke="#000000"
     stroke-width="2.48"
     stroke-linejoin="bevel"
     points="940.359,687.965 940.359,758.198"
     id="polyline1905"
     transform="translate(-212.598,-527.193)" />
  <polyline
     class="Stem"
     fill="none"
     stroke="#000000"
     stroke-width="2.48"
     stroke-linejoin="bevel"
     points="3565,1098.77 3565,1175.2"
     id="polyline1907"
     transform="translate(-212.598,-527.193)" />
  <polyline
     class="Stem"
     fill="none"
     stroke="#000000"
     stroke-width="2.48"
     stroke-linejoin="bevel"
     points="1094.38,704.63 1094.38,621.798"
     id="polyline1909"
     transform="translate(-212.598,-527.193)" />
  <polyline
     class="Stem"
     fill="none"
     stroke="#000000"
     stroke-width="2.48"
     stroke-linejoin="bevel"
     points="3701.63,1111.17 3701.63,1181.4"
     id="polyline1911"
     transform="translate(-212.598,-527.193)" />
  <polyline
     class="Stem"
     fill="none"
     stroke="#000000"
     stroke-width="2.48"
     stroke-linejoin="bevel"
     points="1199.47,704.63 1199.47,621.798"
     id="polyline1913"
     transform="translate(-212.598,-527.193)" />
  <polyline
     class="Stem"
     fill="none"
     stroke="#000000"
     stroke-width="2.48"
     stroke-linejoin="bevel"
     points="3763.61,1098.77 3763.61,1181.4"
     id="polyline1915"
     transform="translate(-212.598,-527.193)" />
  <polyline
     class="Stem"
     fill="none"
     stroke="#000000"
     stroke-width="2.48"
     stroke-linejoin="bevel"
     points="1304.57,717.03 1304.57,634.198"
     id="polyline1917"
     transform="translate(-212.598,-527.193)" />
  <polyline
     class="Stem"
     fill="none"
     stroke="#000000"
     stroke-width="2.48"
     stroke-linejoin="bevel"
     points="3854.69,1111.17 3854.69,1181.4"
     id="polyline1919"
     transform="translate(-212.598,-527.193)" />
  <polyline
     class="Stem"
     fill="none"
     stroke="#000000"
     stroke-width="2.48"
     stroke-linejoin="bevel"
     points="1415.38,687.965 1415.38,751.998"
     id="polyline1921"
     transform="translate(-212.598,-527.193)" />
  <polyline
     class="Stem"
     fill="none"
     stroke="#000000"
     stroke-width="2.48"
     stroke-linejoin="bevel"
     points="1485.44,687.965 1485.44,751.998"
     id="polyline1923"
     transform="translate(-212.598,-527.193)" />
  <polyline
     class="Stem"
     fill="none"
     stroke="#000000"
     stroke-width="2.48"
     stroke-linejoin="bevel"
     points="1555.5,687.965 1555.5,751.998"
     id="polyline1925"
     transform="translate(-212.598,-527.193)" />
  <polyline
     class="Stem"
     fill="none"
     stroke="#000000"
     stroke-width="2.48"
     stroke-linejoin="bevel"
     points="1625.56,687.965 1625.56,758.198"
     id="polyline1927"
     transform="translate(-212.598,-527.193)" />
  <polyline
     class="Stem"
     fill="none"
     stroke="#000000"
     stroke-width="2.48"
     stroke-linejoin="bevel"
     points="1687.54,663.165 1687.54,758.198"
     id="polyline1929"
     transform="translate(-212.598,-527.193)" />
  <polyline
     class="Stem"
     fill="none"
     stroke="#000000"
     stroke-width="2.48"
     stroke-linejoin="bevel"
     points="1757.61,687.965 1757.61,758.198"
     id="polyline1931"
     transform="translate(-212.598,-527.193)" />
  <polyline
     class="Stem"
     fill="none"
     stroke="#000000"
     stroke-width="2.48"
     stroke-linejoin="bevel"
     points="1881.88,625.965 1881.88,708.598"
     id="polyline1933"
     transform="translate(-212.598,-527.193)" />
  <polyline
     class="Stem"
     fill="none"
     stroke="#000000"
     stroke-width="2.48"
     stroke-linejoin="bevel"
     points="1986.98,625.965 1986.98,708.598"
     id="polyline1935"
     transform="translate(-212.598,-527.193)" />
  <polyline
     class="Stem"
     fill="none"
     stroke="#000000"
     stroke-width="2.48"
     stroke-linejoin="bevel"
     points="2092.07,638.365 2092.07,720.998"
     id="polyline1937"
     transform="translate(-212.598,-527.193)" />
  <polyline
     class="Stem"
     fill="none"
     stroke="#000000"
     stroke-width="2.48"
     stroke-linejoin="bevel"
     points="2274.92,663.165 2274.92,745.798"
     id="polyline1939"
     transform="translate(-212.598,-527.193)" />
  <polyline
     class="Stem"
     fill="none"
     stroke="#000000"
     stroke-width="2.48"
     stroke-linejoin="bevel"
     points="2380.01,675.565 2380.01,751.998"
     id="polyline1941"
     transform="translate(-212.598,-527.193)" />
  <polyline
     class="Stem"
     fill="none"
     stroke="#000000"
     stroke-width="2.48"
     stroke-linejoin="bevel"
     points="2485.11,687.965 2485.11,758.198"
     id="polyline1943"
     transform="translate(-212.598,-527.193)" />
  <polyline
     class="Stem"
     fill="none"
     stroke="#000000"
     stroke-width="2.48"
     stroke-linejoin="bevel"
     points="2697.71,679.83 2697.71,615.652"
     id="polyline1945"
     transform="translate(-212.598,-527.193)" />
  <polyline
     class="Stem"
     fill="none"
     stroke="#000000"
     stroke-width="2.48"
     stroke-linejoin="bevel"
     points="2767.77,717.03 2767.77,618.698"
     id="polyline1947"
     transform="translate(-212.598,-527.193)" />
  <polyline
     class="Stem"
     fill="none"
     stroke="#000000"
     stroke-width="2.48"
     stroke-linejoin="bevel"
     points="2837.83,704.63 2837.83,621.745"
     id="polyline1949"
     transform="translate(-212.598,-527.193)" />
  <polyline
     class="Stem"
     fill="none"
     stroke="#000000"
     stroke-width="2.48"
     stroke-linejoin="bevel"
     points="2907.89,679.83 2907.89,609.513"
     id="polyline1951"
     transform="translate(-212.598,-527.193)" />
  <polyline
     class="Stem"
     fill="none"
     stroke="#000000"
     stroke-width="2.48"
     stroke-linejoin="bevel"
     points="2969.87,692.23 2969.87,615.226"
     id="polyline1953"
     transform="translate(-212.598,-527.193)" />
  <polyline
     class="Stem"
     fill="none"
     stroke="#000000"
     stroke-width="2.48"
     stroke-linejoin="bevel"
     points="3039.93,704.63 3039.93,621.684"
     id="polyline1955"
     transform="translate(-212.598,-527.193)" />
  <polyline
     class="Stem"
     fill="none"
     stroke="#000000"
     stroke-width="2.48"
     stroke-linejoin="bevel"
     points="3164.21,679.83 3164.21,615.652"
     id="polyline1957"
     transform="translate(-212.598,-527.193)" />
  <polyline
     class="Stem"
     fill="none"
     stroke="#000000"
     stroke-width="2.48"
     stroke-linejoin="bevel"
     points="3234.27,717.03 3234.27,618.698"
     id="polyline1959"
     transform="translate(-212.598,-527.193)" />
  <polyline
     class="Stem"
     fill="none"
     stroke="#000000"
     stroke-width="2.48"
     stroke-linejoin="bevel"
     points="3304.34,704.63 3304.34,621.745"
     id="polyline1961"
     transform="translate(-212.598,-527.193)" />
  <polyline
     class="Stem"
     fill="none"
     stroke="#000000"
     stroke-width="2.48"
     stroke-linejoin="bevel"
     points="3374.4,679.83 3374.4,609.518"
     id="polyline1963"
     transform="translate(-212.598,-527.193)" />
  <polyline
     class="Stem"
     fill="none"
     stroke="#000000"
     stroke-width="2.48"
     stroke-linejoin="bevel"
     points="3436.38,692.23 3436.38,615.479"
     id="polyline1965"
     transform="translate(-212.598,-527.193)" />
  <polyline
     class="Stem"
     fill="none"
     stroke="#000000"
     stroke-width="2.48"
     stroke-linejoin="bevel"
     points="3498.37,692.23 3498.37,615.598"
     id="polyline1967"
     transform="translate(-212.598,-527.193)" />
  <polyline
     class="Stem"
     fill="none"
     stroke="#000000"
     stroke-width="2.48"
     stroke-linejoin="bevel"
     points="3684.6,687.965 3684.6,758.198"
     id="polyline1969"
     transform="translate(-212.598,-527.193)" />
  <polyline
     class="Stem"
     fill="none"
     stroke="#000000"
     stroke-width="2.48"
     stroke-linejoin="bevel"
     points="3817.82,687.965 3817.82,764.299"
     id="polyline1971"
     transform="translate(-212.598,-527.193)" />
  <polyline
     class="Stem"
     fill="none"
     stroke="#000000"
     stroke-width="2.48"
     stroke-linejoin="bevel"
     points="3887.88,687.965 3887.88,758.198"
     id="polyline1973"
     transform="translate(-212.598,-527.193)" />
  <polyline
     class="Stem"
     fill="none"
     stroke="#000000"
     stroke-width="2.48"
     stroke-linejoin="bevel"
     points="424.22,1111.17 424.22,1187.5"
     id="polyline1975"
     transform="translate(-212.598,-527.193)" />
  <polyline
     class="Stem"
     fill="none"
     stroke="#000000"
     stroke-width="2.48"
     stroke-linejoin="bevel"
     points="515.303,1049.17 515.303,1131.8"
     id="polyline1977"
     transform="translate(-212.598,-527.193)" />
  <polyline
     class="Stem"
     fill="none"
     stroke="#000000"
     stroke-width="2.48"
     stroke-linejoin="bevel"
     points="651.929,1061.57 651.929,1131.8"
     id="polyline1979"
     transform="translate(-212.598,-527.193)" />
  <polyline
     class="Stem"
     fill="none"
     stroke="#000000"
     stroke-width="2.48"
     stroke-linejoin="bevel"
     points="713.913,1049.17 713.913,1131.8"
     id="polyline1981"
     transform="translate(-212.598,-527.193)" />
  <polyline
     class="Stem"
     fill="none"
     stroke="#000000"
     stroke-width="2.48"
     stroke-linejoin="bevel"
     points="804.997,1061.57 804.997,1131.8"
     id="polyline1983"
     transform="translate(-212.598,-527.193)" />
  <polyline
     class="Stem"
     fill="none"
     stroke="#000000"
     stroke-width="2.48"
     stroke-linejoin="bevel"
     points="955.925,1111.17 955.925,1181.4"
     id="polyline1985"
     transform="translate(-212.598,-527.193)" />
  <polyline
     class="Stem"
     fill="none"
     stroke="#000000"
     stroke-width="2.48"
     stroke-linejoin="bevel"
     points="1129.12,1111.17 1129.12,1187.5"
     id="polyline1987"
     transform="translate(-212.598,-527.193)" />
  <polyline
     class="Stem"
     fill="none"
     stroke="#000000"
     stroke-width="2.48"
     stroke-linejoin="bevel"
     points="1220.2,1111.17 1220.2,1181.4"
     id="polyline1989"
     transform="translate(-212.598,-527.193)" />
  <polyline
     class="Stem"
     fill="none"
     stroke="#000000"
     stroke-width="2.48"
     stroke-linejoin="bevel"
     points="1392.29,1111.17 1392.29,1187.5"
     id="polyline1991"
     transform="translate(-212.598,-527.193)" />
  <polyline
     class="Stem"
     fill="none"
     stroke="#000000"
     stroke-width="2.48"
     stroke-linejoin="bevel"
     points="1532.14,1127.83 1532.14,1045"
     id="polyline1993"
     transform="translate(-212.598,-527.193)" />
  <polyline
     class="Stem"
     fill="none"
     stroke="#000000"
     stroke-width="2.48"
     stroke-linejoin="bevel"
     points="2844.32,1111.17 2844.32,1175.15"
     id="polyline1995"
     transform="translate(-212.598,-527.193)" />
  <polyline
     class="Stem"
     fill="none"
     stroke="#000000"
     stroke-width="2.48"
     stroke-linejoin="bevel"
     points="1668.77,1140.23 1668.77,1057.4"
     id="polyline1997"
     transform="translate(-212.598,-527.193)" />
  <polyline
     class="Stem"
     fill="none"
     stroke="#000000"
     stroke-width="2.48"
     stroke-linejoin="bevel"
     points="1730.75,1127.83 1730.75,1057.4"
     id="polyline1999"
     transform="translate(-212.598,-527.193)" />
  <polyline
     class="Stem"
     fill="none"
     stroke="#000000"
     stroke-width="2.48"
     stroke-linejoin="bevel"
     points="1821.84,1140.23 1821.84,1057.4"
     id="polyline2001"
     transform="translate(-212.598,-527.193)" />
  <path
     class="Hook"
     d="m 3603.982,237.112 c 0,0.682 0.589,1.2865 1.2865,1.2865 0.496,0 1.1005,-0.403 1.1935,-0.7905 0,-0.1085 0.899,-3.5805 0.992,-3.875 0.093,-0.403 0.992,-4.1695 4.557,-10.01305 3.875,-6.448 9.827,-11.11347 14.787,-18.05747 4.867,-6.944 7.843,-13.50053 7.843,-22.22696 0,-9.02104 -2.0925,-16.56957 -7.347,-26.19504 -0.2945,-0.69748 -0.899,-1.08496 -1.488,-1.08496 -0.2015,0 -0.403,0 -0.496,0.093 -0.496,0.20147 -0.6975,0.60452 -0.6975,1.19347 0,0.29453 0.1085,0.79053 0.2945,1.19357 3.968,9.22243 5.5645,14.47696 5.5645,21.62243 0,8.23053 -2.883,12.50853 -4.6655,15.57757 -6.448,11.00496 -16.864,16.368 -21.0335,17.76296 -0.6975,0.29452 -0.7905,0.79052 -0.7905,1.08504 V 237.112"
     id="path2003"
     style="stroke-width:0.992" />
  <path
     class="Hook"
     d="m 3260.082,660.314 c 0,0.682 0.589,1.2865 1.2865,1.2865 0.496,0 1.1005,-0.403 1.1935,-0.7905 0,-0.1085 0.899,-3.5805 0.992,-3.875 0.093,-0.403 0.992,-4.1695 4.557,-10.01305 3.875,-6.448 9.827,-11.11347 14.787,-18.05747 4.867,-6.944 7.843,-13.50053 7.843,-22.22696 0,-9.02104 -2.0925,-16.56957 -7.347,-26.19504 -0.2945,-0.69748 -0.899,-1.08496 -1.488,-1.08496 -0.2015,0 -0.403,0 -0.496,0.093 -0.496,0.20147 -0.6975,0.60452 -0.6975,1.19347 0,0.29453 0.1085,0.79053 0.2945,1.19357 3.968,9.22243 5.5645,14.47696 5.5645,21.62243 0,8.23053 -2.883,12.50853 -4.6655,15.57757 -6.448,11.00496 -16.864,16.368 -21.0335,17.76296 -0.6975,0.29452 -0.7905,0.79052 -0.7905,1.08504 V 660.314"
     id="path2005"
     style="stroke-width:0.992" />
  <path
     class="Hook"
     d="m 2996.902,660.314 c 0,0.682 0.589,1.2865 1.2865,1.2865 0.496,0 1.1005,-0.403 1.1935,-0.7905 0,-0.1085 0.899,-3.5805 0.992,-3.875 0.093,-0.403 0.992,-4.1695 4.557,-10.01305 3.875,-6.448 9.827,-11.11347 14.787,-18.05747 4.867,-6.944 7.843,-13.50053 7.843,-22.22696 0,-9.02104 -2.0925,-16.56957 -7.347,-26.19504 -0.2945,-0.69748 -0.899,-1.08496 -1.488,-1.08496 -0.2015,0 -0.403,0 -0.496,0.093 -0.496,0.20147 -0.6975,0.60452 -0.6975,1.19347 0,0.29453 0.1085,0.79053 0.2945,1.19357 3.968,9.22243 5.5645,14.47696 5.5645,21.62243 0,8.23053 -2.883,12.50853 -4.6655,15.57757 -6.448,11.00496 -16.864,16.368 -21.0335,17.76296 -0.6975,0.29452 -0.7905,0.79052 -0.7905,1.08504 V 660.314"
     id="path2007"
     style="stroke-width:0.992" />
  <path
     class="Hook"
     d="m 1178.452,660.314 c 0,0.682 0.589,1.2865 1.2865,1.2865 0.496,0 1.1005,-0.403 1.1935,-0.7905 0,-0.1085 0.899,-3.5805 0.992,-3.875 0.093,-0.403 0.992,-4.1695 4.557,-10.01305 3.875,-6.448 9.827,-11.11347 14.787,-18.05747 4.867,-6.944 7.843,-13.50053 7.843,-22.22696 0,-9.02104 -2.0925,-16.56957 -7.347,-26.19504 -0.2945,-0.69748 -0.899,-1.08496 -1.488,-1.08496 -0.2015,0 -0.403,0 -0.496,0.093 -0.496,0.20147 -0.6975,0.60452 -0.6975,1.19347 0,0.29453 0.1085,0.79053 0.2945,1.19357 3.968,9.22243 5.5645,14.47696 5.5645,21.62243 0,8.23053 -2.883,12.50853 -4.6655,15.57757 -6.448,11.00496 -16.864,16.368 -21.0335,17.76296 -0.6975,0.29452 -0.7905,0.79052 -0.7905,1.08504 V 660.314"
     id="path2009"
     style="stroke-width:0.992" />
  <path
     class="Hook"
     d="m 915.282,660.314 c 0,0.682 0.589,1.2865 1.2865,1.2865 0.496,0 1.1005,-0.403 1.1935,-0.7905 0,-0.1085 0.899,-3.5805 0.992,-3.875 0.093,-0.403 0.992,-4.1695 4.557,-10.01305 3.875,-6.448 9.827,-11.11347 14.787,-18.05747 4.86705,-6.944 7.84305,-13.50053 7.84305,-22.22696 0,-9.02104 -2.09253,-16.56957 -7.34705,-26.19504 -0.29452,-0.69748 -0.89895,-1.08496 -1.488,-1.08496 -0.20148,0 -0.40295,0 -0.496,0.093 -0.496,0.20147 -0.69748,0.60452 -0.69748,1.19347 0,0.29453 0.10853,0.79053 0.29453,1.19357 3.968,9.22243 5.56443,14.47696 5.56443,21.62243 0,8.23053 -2.88296,12.50853 -4.66548,15.57757 -6.448,11.00496 -16.864,16.368 -21.0335,17.76296 -0.6975,0.29452 -0.7905,0.79052 -0.7905,1.08504 V 660.314"
     id="path2011"
     style="stroke-width:0.992" />
  <path
     class="Hook"
     d="m 210.382,660.314 c 0,0.682 0.589,1.2865 1.2865,1.2865 0.496,0 1.1005,-0.403 1.1935,-0.7905 0,-0.1085 0.899,-3.5805 0.992,-3.875 0.093,-0.403 0.992,-4.1695 4.557,-10.01305 3.875,-6.448 9.827,-11.11347 14.787,-18.05747 4.86705,-6.944 7.84305,-13.50053 7.84305,-22.22696 0,-9.02104 -2.09253,-16.56957 -7.34705,-26.19504 -0.29452,-0.69748 -0.89895,-1.08496 -1.488,-1.08496 -0.20148,0 -0.40295,0 -0.496,0.093 -0.496,0.20147 -0.69748,0.60452 -0.69748,1.19347 0,0.29453 0.10853,0.79053 0.29453,1.19357 3.968,9.22243 5.56443,14.47696 5.56443,21.62243 0,8.23053 -2.88296,12.50853 -4.66548,15.57757 -6.448,11.00496 -16.864,16.368 -21.0335,17.76296 -0.6975,0.29452 -0.7905,0.79052 -0.7905,1.08504 V 660.314"
     id="path2013"
     style="stroke-width:0.992" />
  <path
     class="Note"
     d="m 384.292,160.7745 c 0,4.2625 3.069,9.02102 11.11348,9.02102 10.30757,0 21.12652,-8.43202 21.12652,-17.15852 0,-5.859 -4.96,-9.12948 -11.11348,-9.12948 -9.62547,0 -21.12652,8.13748 -21.12652,17.26698"
     id="path2015"
     style="stroke-width:0.992" />
  <path
     class="Note"
     d="m 1543.772,160.7745 c 0,4.2625 3.069,9.02102 11.1135,9.02102 10.3075,0 21.1265,-8.43202 21.1265,-17.15852 0,-5.859 -4.96,-9.12948 -11.1135,-9.12948 -9.6255,0 -21.1265,8.13748 -21.1265,17.26698"
     id="path2017"
     style="stroke-width:0.992" />
  <path
     class="Note"
     d="m 1411.722,160.7745 c 0,4.2625 3.069,9.02102 11.1135,9.02102 10.3075,0 21.1265,-8.43202 21.1265,-17.15852 0,-5.859 -4.96,-9.12948 -11.1135,-9.12948 -9.6255,0 -21.1265,8.13748 -21.1265,17.26698"
     id="path2019"
     style="stroke-width:0.992" />
  <path
     class="Note"
     d="m 454.353,160.7745 c 0,4.2625 3.069,9.02102 11.11348,9.02102 10.30757,0 21.12652,-8.43202 21.12652,-17.15852 0,-5.859 -4.96,-9.12948 -11.11348,-9.12948 -9.62547,0 -21.12652,8.13748 -21.12652,17.26698"
     id="path2021"
     style="stroke-width:0.992" />
  <path
     class="Note"
     d="m 524.414,160.7745 c 0,4.2625 3.069,9.02102 11.11348,9.02102 10.30757,0 21.12652,-8.43202 21.12652,-17.15852 0,-5.859 -4.96,-9.12948 -11.11348,-9.12948 -9.62547,0 -21.12652,8.13748 -21.12652,17.26698"
     id="path2023"
     style="stroke-width:0.992" />
  <path
     class="Note"
     d="m 594.475,160.7745 c 0,4.2625 3.069,9.02102 11.11348,9.02102 10.30757,0 21.12652,-8.43202 21.12652,-17.15852 0,-5.859 -4.96,-9.12948 -11.11348,-9.12948 -9.62547,0 -21.12652,8.13748 -21.12652,17.26698"
     id="path2025"
     style="stroke-width:0.992" />
  <path
     class="Note"
     d="m 1487.172,608.7765 c 0,4.2625 3.069,9.02102 11.1135,9.02102 10.3075,0 21.1265,-8.43202 21.1265,-17.15852 0,-5.859 -4.96,-9.12948 -11.1135,-9.12948 -9.6255,0 -21.1265,8.13748 -21.1265,17.26698"
     id="path2027"
     style="stroke-width:0.992" />
  <path
     class="Note"
     d="m 656.46,135.9745 c 0,4.2625 3.069,9.02102 11.11348,9.02102 10.30757,0 21.12652,-8.43202 21.12652,-17.15852 0,-5.859 -4.96,-9.12948 -11.11348,-9.12948 -9.62547,0 -21.12652,8.13748 -21.12652,17.26698"
     id="path2029"
     style="stroke-width:0.992" />
  <path
     class="Note"
     d="m 2044.732,559.1765 c 0,4.2625 3.069,9.02102 11.1135,9.02102 10.3075,0 21.1265,-8.43202 21.1265,-17.15852 0,-5.859 -4.96,-9.12948 -11.1135,-9.12948 -9.6255,0 -21.1265,8.13748 -21.1265,17.26698"
     id="path2031"
     style="stroke-width:0.992" />
  <path
     class="Note"
     d="m 3351.162,571.5765 c 0,4.2625 3.069,9.02102 11.1135,9.02102 10.3075,0 21.1265,-8.43202 21.1265,-17.15852 0,-5.859 -4.96,-9.12948 -11.1135,-9.12948 -9.6255,0 -21.1265,8.13748 -21.1265,17.26698"
     id="path2033"
     style="stroke-width:0.992" />
  <path
     class="Note"
     d="m 955.892,185.5745 c 0,4.2625 3.069,9.02102 11.11348,9.02102 10.30757,0 21.12652,-8.43202 21.12652,-17.15852 0,-5.859 -4.96,-9.12948 -11.11348,-9.12948 -9.62547,0 -21.12652,8.13748 -21.12652,17.26698"
     id="path2035"
     style="stroke-width:0.992" />
  <path
     class="Note"
     d="m 1060.982,197.9745 c 0,4.2625 3.069,9.02102 11.1135,9.02102 10.3075,0 21.1265,-8.43202 21.1265,-17.15852 0,-5.859 -4.96,-9.12948 -11.1135,-9.12948 -9.6255,0 -21.1265,8.13748 -21.1265,17.26698"
     id="path2037"
     style="stroke-width:0.992" />
  <path
     class="Note"
     d="m 210.382,583.9765 c 0,4.2625 3.069,9.02102 11.11348,9.02102 10.30757,0 21.12652,-8.43202 21.12652,-17.15852 0,-5.859 -4.96,-9.12948 -11.11348,-9.12948 -9.62547,0 -21.12652,8.13748 -21.12652,17.26698"
     id="path2039"
     style="stroke-width:0.992" />
  <path
     class="Note"
     d="m 3060.752,185.5745 c 0,4.2625 3.069,9.02102 11.1135,9.02102 10.3075,0 21.1265,-8.43202 21.1265,-17.15852 0,-5.859 -4.96,-9.12948 -11.1135,-9.12948 -9.6255,0 -21.1265,8.13748 -21.1265,17.26698"
     id="path2041"
     style="stroke-width:0.992" />
  <path
     class="Note"
     d="m 301.465,521.9765 c 0,4.2625 3.069,9.02102 11.11348,9.02102 10.30757,0 21.12652,-8.43202 21.12652,-17.15852 0,-5.859 -4.96,-9.12948 -11.11348,-9.12948 -9.62547,0 -21.12652,8.13748 -21.12652,17.26698"
     id="path2043"
     style="stroke-width:0.992" />
  <path
     class="Note"
     d="m 3470.762,160.7745 c 0,4.2625 3.069,9.02102 11.1135,9.02102 10.3075,0 21.1265,-8.43202 21.1265,-17.15852 0,-5.859 -4.96,-9.12948 -11.1135,-9.12948 -9.6255,0 -21.1265,8.13748 -21.1265,17.26698"
     id="path2045"
     style="stroke-width:0.992" />
  <path
     class="Note"
     d="m 438.091,534.3765 c 0,4.2625 3.069,9.02102 11.11348,9.02102 10.30757,0 21.12652,-8.43202 21.12652,-17.15852 0,-5.859 -4.96,-9.12948 -11.11348,-9.12948 -9.62547,0 -21.12652,8.13748 -21.12652,17.26698"
     id="path2047"
     style="stroke-width:0.992" />
  <path
     class="Note"
     d="m 1578.252,621.1765 c 0,4.2625 3.069,9.02102 11.1135,9.02102 10.3075,0 21.1265,-8.43202 21.1265,-17.15852 0,-5.859 -4.96,-9.12948 -11.1135,-9.12948 -9.6255,0 -21.1265,8.13748 -21.1265,17.26698"
     id="path2049"
     style="stroke-width:0.992" />
  <path
     class="Note"
     d="m 3130.812,160.7745 c 0,4.2625 3.069,9.02102 11.1135,9.02102 10.3075,0 21.1265,-8.43202 21.1265,-17.15852 0,-5.859 -4.96,-9.12948 -11.1135,-9.12948 -9.6255,0 -21.1265,8.13748 -21.1265,17.26698"
     id="path2051"
     style="stroke-width:0.992" />
  <path
     class="Note"
     d="m 500.075,521.9765 c 0,4.2625 3.069,9.02102 11.11348,9.02102 10.30757,0 21.12652,-8.43202 21.12652,-17.15852 0,-5.859 -4.96,-9.12948 -11.11348,-9.12948 -9.62547,0 -21.12652,8.13748 -21.12652,17.26698"
     id="path2053"
     style="stroke-width:0.992" />
  <path
     class="Note"
     d="m 1771.482,497.1765 c 0,4.2625 3.069,9.02102 11.1135,9.02102 10.3075,0 21.1265,-8.43202 21.1265,-17.15852 0,-5.859 -4.96,-9.12948 -11.1135,-9.12948 -9.6255,0 -21.1265,8.13748 -21.1265,17.26698"
     id="path2055"
     style="stroke-width:0.992" />
  <path
     class="Note"
     d="m 591.159,534.3765 c 0,4.2625 3.069,9.02102 11.11348,9.02102 10.30757,0 21.12652,-8.43202 21.12652,-17.15852 0,-5.859 -4.96,-9.12948 -11.11348,-9.12948 -9.62547,0 -21.12652,8.13748 -21.12652,17.26698"
     id="path2057"
     style="stroke-width:0.992" />
  <path
     class="Note"
     d="m 1908.102,534.3765 c 0,4.2625 3.069,9.02102 11.1135,9.02102 10.3075,0 21.1265,-8.43202 21.1265,-17.15852 0,-5.859 -4.96,-9.12948 -11.1135,-9.12948 -9.6255,0 -21.1265,8.13748 -21.1265,17.26698"
     id="path2059"
     style="stroke-width:0.992" />
  <path
     class="Note"
     d="m 2061.082,135.9745 c 0,4.2625 3.069,9.02102 11.1135,9.02102 10.3075,0 21.1265,-8.43202 21.1265,-17.15852 0,-5.859 -4.96,-9.12948 -11.1135,-9.12948 -9.6255,0 -21.1265,8.13748 -21.1265,17.26698"
     id="path2061"
     style="stroke-width:0.992" />
  <path
     class="Note"
     d="m 1878.232,111.1745 c 0,4.2625 3.069,9.02102 11.1135,9.02102 10.3075,0 21.1265,-8.43202 21.1265,-17.15852 0,-5.859 -4.96,-9.129475 -11.1135,-9.129475 -9.6255,0 -21.1265,8.137475 -21.1265,17.266975"
     id="path2063"
     style="stroke-width:0.992" />
  <path
     class="Note"
     d="m 2796.352,185.5745 c 0,4.2625 3.069,9.02102 11.1135,9.02102 10.3075,0 21.1265,-8.43202 21.1265,-17.15852 0,-5.859 -4.96,-9.12948 -11.1135,-9.12948 -9.6255,0 -21.1265,8.13748 -21.1265,17.26698"
     id="path2065"
     style="stroke-width:0.992" />
  <path
     class="Note"
     d="m 742.087,583.9765 c 0,4.2625 3.069,9.02102 11.11348,9.02102 10.30757,0 21.12652,-8.43202 21.12652,-17.15852 0,-5.859 -4.96,-9.12948 -11.11348,-9.12948 -9.62547,0 -21.12652,8.13748 -21.12652,17.26698"
     id="path2067"
     style="stroke-width:0.992" />
  <path
     class="Note"
     d="m 3192.802,173.1745 c 0,4.2625 3.069,9.02102 11.1135,9.02102 10.3075,0 21.1265,-8.43202 21.1265,-17.15852 0,-5.859 -4.96,-9.12948 -11.1135,-9.12948 -9.6255,0 -21.1265,8.13748 -21.1265,17.26698"
     id="path2069"
     style="stroke-width:0.992" />
  <path
     class="Note"
     d="m 915.282,583.9765 c 0,4.2625 3.069,9.02102 11.11348,9.02102 10.30757,0 21.12652,-8.43202 21.12652,-17.15852 0,-5.859 -4.96,-9.12948 -11.11348,-9.12948 -9.62547,0 -21.12652,8.13748 -21.12652,17.26698"
     id="path2071"
     style="stroke-width:0.992" />
  <path
     class="Note"
     d="m 2920.632,160.7745 c 0,4.2625 3.069,9.02102 11.1135,9.02102 10.3075,0 21.1265,-8.43202 21.1265,-17.15852 0,-5.859 -4.96,-9.12948 -11.1135,-9.12948 -9.6255,0 -21.1265,8.13748 -21.1265,17.26698"
     id="path2073"
     style="stroke-width:0.992" />
  <path
     class="Note"
     d="m 1006.362,583.9765 c 0,4.2625 3.069,9.02102 11.1135,9.02102 10.3075,0 21.1265,-8.43202 21.1265,-17.15852 0,-5.859 -4.96,-9.12948 -11.1135,-9.12948 -9.6255,0 -21.1265,8.13748 -21.1265,17.26698"
     id="path2075"
     style="stroke-width:0.992" />
  <path
     class="Note"
     d="m 1773.142,98.774505 c 0,4.262495 3.069,9.021015 11.1135,9.021015 10.3075,0 21.1265,-8.432015 21.1265,-17.15852 0,-5.859 -4.96,-9.129475 -11.1135,-9.129475 -9.6255,0 -21.1265,8.137475 -21.1265,17.26698"
     id="path2077"
     style="stroke-width:0.992" />
  <path
     class="Note"
     d="m 1668.042,98.774505 c 0,4.262495 3.069,9.021015 11.1135,9.021015 10.3075,0 21.1265,-8.432015 21.1265,-17.15852 0,-5.859 -4.96,-9.129475 -11.1135,-9.129475 -9.6255,0 -21.1265,8.137475 -21.1265,17.26698"
     id="path2079"
     style="stroke-width:0.992" />
  <path
     class="Note"
     d="m 3254.782,173.1745 c 0,4.2625 3.069,9.02102 11.1135,9.02102 10.3075,0 21.1265,-8.43202 21.1265,-17.15852 0,-5.859 -4.96,-9.12948 -11.1135,-9.12948 -9.6255,0 -21.1265,8.13748 -21.1265,17.26698"
     id="path2081"
     style="stroke-width:0.992" />
  <path
     class="Note"
     d="m 1178.452,583.9765 c 0,4.2625 3.069,9.02102 11.1135,9.02102 10.3075,0 21.1265,-8.43202 21.1265,-17.15852 0,-5.859 -4.96,-9.12948 -11.1135,-9.12948 -9.6255,0 -21.1265,8.13748 -21.1265,17.26698"
     id="path2083"
     style="stroke-width:0.992" />
  <path
     class="Note"
     d="m 2664.302,160.7745 c 0,4.2625 3.069,9.02102 11.1135,9.02102 10.3075,0 21.1265,-8.43202 21.1265,-17.15852 0,-5.859 -4.96,-9.12948 -11.1135,-9.12948 -9.6255,0 -21.1265,8.13748 -21.1265,17.26698"
     id="path2085"
     style="stroke-width:0.992" />
  <path
     class="Note"
     d="m 2594.242,185.5745 c 0,4.2625 3.069,9.02102 11.1135,9.02102 10.3075,0 21.1265,-8.43202 21.1265,-17.15852 0,-5.859 -4.96,-9.12948 -11.1135,-9.12948 -9.6255,0 -21.1265,8.13748 -21.1265,17.26698"
     id="path2087"
     style="stroke-width:0.992" />
  <path
     class="Note"
     d="m 2524.182,197.9745 c 0,4.2625 3.069,9.02102 11.1135,9.02102 10.3075,0 21.1265,-8.43202 21.1265,-17.15852 0,-5.859 -4.96,-9.12948 -11.1135,-9.12948 -9.6255,0 -21.1265,8.13748 -21.1265,17.26698"
     id="path2089"
     style="stroke-width:0.992" />
  <path
     class="Note"
     d="m 1425.182,621.1765 c 0,4.2625 3.069,9.02102 11.1135,9.02102 10.3075,0 21.1265,-8.43202 21.1265,-17.15852 0,-5.859 -4.96,-9.12948 -11.1135,-9.12948 -9.6255,0 -21.1265,8.13748 -21.1265,17.26698"
     id="path2091"
     style="stroke-width:0.992" />
  <path
     class="Note"
     d="m 1473.702,135.9745 c 0,4.2625 3.069,9.02102 11.1135,9.02102 10.3075,0 21.1265,-8.43202 21.1265,-17.15852 0,-5.859 -4.96,-9.12948 -11.1135,-9.12948 -9.6255,0 -21.1265,8.13748 -21.1265,17.26698"
     id="path2093"
     style="stroke-width:0.992" />
  <path
     class="Note"
     d="m 3603.982,160.7745 c 0,4.2625 3.069,9.02102 11.1135,9.02102 10.3075,0 21.1265,-8.43202 21.1265,-17.15852 0,-5.859 -4.96,-9.12948 -11.1135,-9.12948 -9.6255,0 -21.1265,8.13748 -21.1265,17.26698"
     id="path2095"
     style="stroke-width:0.992" />
  <path
     class="Note"
     d="m 2216.822,583.9765 c 0,4.2625 3.069,9.02102 11.1135,9.02102 10.3075,0 21.1265,-8.43202 21.1265,-17.15852 0,-5.859 -4.96,-9.12948 -11.1135,-9.12948 -9.6255,0 -21.1265,8.13748 -21.1265,17.26698"
     id="path2097"
     style="stroke-width:0.992" />
  <path
     class="Note"
     d="m 2990.692,197.9745 c 0,4.2625 3.069,9.02102 11.1135,9.02102 10.3075,0 21.1265,-8.43202 21.1265,-17.15852 0,-5.859 -4.96,-9.12948 -11.1135,-9.12948 -9.6255,0 -21.1265,8.13748 -21.1265,17.26698"
     id="path2099"
     style="stroke-width:0.992" />
  <path
     class="Note"
     d="m 2353.442,571.5765 c 0,4.2625 3.069,9.02102 11.1135,9.02102 10.3075,0 21.1265,-8.43202 21.1265,-17.15852 0,-5.859 -4.96,-9.12948 -11.1135,-9.12948 -9.6255,0 -21.1265,8.13748 -21.1265,17.26698"
     id="path2101"
     style="stroke-width:0.992" />
  <path
     class="Note"
     d="m 3674.042,160.7745 c 0,4.2625 3.069,9.02102 11.1135,9.02102 10.3075,0 21.1265,-8.43202 21.1265,-17.15852 0,-5.859 -4.96,-9.12948 -11.1135,-9.12948 -9.6255,0 -21.1265,8.13748 -21.1265,17.26698"
     id="path2103"
     style="stroke-width:0.992" />
  <path
     class="Note"
     d="m 2415.432,559.1765 c 0,4.2625 3.069,9.02102 11.1135,9.02102 10.3075,0 21.1265,-8.43202 21.1265,-17.15852 0,-5.859 -4.96,-9.12948 -11.1135,-9.12948 -9.6255,0 -21.1265,8.13748 -21.1265,17.26698"
     id="path2105"
     style="stroke-width:0.992" />
  <path
     class="Note"
     d="m 2477.412,571.5765 c 0,4.2625 3.069,9.02102 11.1135,9.02102 10.3075,0 21.1265,-8.43202 21.1265,-17.15852 0,-5.859 -4.96,-9.12948 -11.1135,-9.12948 -9.6255,0 -21.1265,8.13748 -21.1265,17.26698"
     id="path2107"
     style="stroke-width:0.992" />
  <path
     class="Note"
     d="m 2454.122,160.7745 c 0,4.2625 3.069,9.02102 11.1135,9.02102 10.3075,0 21.1265,-8.43202 21.1265,-17.15852 0,-5.859 -4.96,-9.12948 -11.1135,-9.12948 -9.6255,0 -21.1265,8.13748 -21.1265,17.26698"
     id="path2109"
     style="stroke-width:0.992" />
  <path
     class="Note"
     d="m 2539.402,583.9765 c 0,4.2625 3.069,9.02102 11.1135,9.02102 10.3075,0 21.1265,-8.43202 21.1265,-17.15852 0,-5.859 -4.96,-9.12948 -11.1135,-9.12948 -9.6255,0 -21.1265,8.13748 -21.1265,17.26698"
     id="path2111"
     style="stroke-width:0.992" />
  <path
     class="Note"
     d="m 1288.562,608.7765 c 0,4.2625 3.069,9.02102 11.1135,9.02102 10.3075,0 21.1265,-8.43202 21.1265,-17.15852 0,-5.859 -4.96,-9.12948 -11.1135,-9.12948 -9.6255,0 -21.1265,8.13748 -21.1265,17.26698"
     id="path2113"
     style="stroke-width:0.992" />
  <path
     class="Note"
     d="m 2630.482,583.9765 c 0,4.2625 3.069,9.02102 11.1135,9.02102 10.3075,0 21.1265,-8.43202 21.1265,-17.15852 0,-5.859 -4.96,-9.12948 -11.1135,-9.12948 -9.6255,0 -21.1265,8.13748 -21.1265,17.26698"
     id="path2115"
     style="stroke-width:0.992" />
  <path
     class="Note"
     d="m 1341.662,160.7745 c 0,4.2625 3.069,9.02102 11.1135,9.02102 10.3075,0 21.1265,-8.43202 21.1265,-17.15852 0,-5.859 -4.96,-9.12948 -11.1135,-9.12948 -9.6255,0 -21.1265,8.13748 -21.1265,17.26698"
     id="path2117"
     style="stroke-width:0.992" />
  <path
     class="Note"
     d="m 1271.602,160.7745 c 0,4.2625 3.069,9.02102 11.1135,9.02102 10.3075,0 21.1265,-8.43202 21.1265,-17.15852 0,-5.859 -4.96,-9.12948 -11.1135,-9.12948 -9.6255,0 -21.1265,8.13748 -21.1265,17.26698"
     id="path2119"
     style="stroke-width:0.992" />
  <path
     class="Note"
     d="m 2823.712,583.9765 c 0,4.2625 3.069,9.02102 11.1135,9.02102 10.3075,0 21.1265,-8.43202 21.1265,-17.15852 0,-5.859 -4.96,-9.12948 -11.1135,-9.12948 -9.6255,0 -21.1265,8.13748 -21.1265,17.26698"
     id="path2121"
     style="stroke-width:0.992" />
  <path
     class="Note"
     d="m 2996.902,583.9765 c 0,4.2625 3.069,9.02102 11.1135,9.02102 10.3075,0 21.1265,-8.43202 21.1265,-17.15852 0,-5.859 -4.96,-9.12948 -11.1135,-9.12948 -9.6255,0 -21.1265,8.13748 -21.1265,17.26698"
     id="path2123"
     style="stroke-width:0.992" />
  <path
     class="Note"
     d="m 2271.272,160.7745 c 0,4.2625 3.069,9.02102 11.1135,9.02102 10.3075,0 21.1265,-8.43202 21.1265,-17.15852 0,-5.859 -4.96,-9.12948 -11.1135,-9.12948 -9.6255,0 -21.1265,8.13748 -21.1265,17.26698"
     id="path2125"
     style="stroke-width:0.992" />
  <path
     class="Note"
     d="m 3087.992,583.9765 c 0,4.2625 3.069,9.02102 11.1135,9.02102 10.3075,0 21.1265,-8.43202 21.1265,-17.15852 0,-5.859 -4.96,-9.12948 -11.1135,-9.12948 -9.6255,0 -21.1265,8.13748 -21.1265,17.26698"
     id="path2127"
     style="stroke-width:0.992" />
  <path
     class="Note"
     d="m 726.521,160.7745 c 0,4.2625 3.069,9.02102 11.11348,9.02102 10.30757,0 21.12652,-8.43202 21.12652,-17.15852 0,-5.859 -4.96,-9.12948 -11.11348,-9.12948 -9.62547,0 -21.12652,8.13748 -21.12652,17.26698"
     id="path2129"
     style="stroke-width:0.992" />
  <path
     class="Note"
     d="m 2166.172,148.3745 c 0,4.2625 3.069,9.02102 11.1135,9.02102 10.3075,0 21.1265,-8.43202 21.1265,-17.15852 0,-5.859 -4.96,-9.12948 -11.1135,-9.12948 -9.6255,0 -21.1265,8.13748 -21.1265,17.26698"
     id="path2131"
     style="stroke-width:0.992" />
  <path
     class="Note"
     d="m 3260.082,583.9765 c 0,4.2625 3.069,9.02102 11.1135,9.02102 10.3075,0 21.1265,-8.43202 21.1265,-17.15852 0,-5.859 -4.96,-9.12948 -11.1135,-9.12948 -9.6255,0 -21.1265,8.13748 -21.1265,17.26698"
     id="path2133"
     style="stroke-width:0.992" />
  <path
     class="Note"
     d="m 3487.792,583.9765 c 0,4.2625 3.069,9.02102 11.1135,9.02102 10.3075,0 21.1265,-8.43202 21.1265,-17.15852 0,-5.859 -4.96,-9.12948 -11.1135,-9.12948 -9.6255,0 -21.1265,8.13748 -21.1265,17.26698"
     id="path2135"
     style="stroke-width:0.992" />
  <path
     class="Note"
     d="m 850.802,185.5745 c 0,4.2625 3.069,9.02102 11.11348,9.02102 10.30757,0 21.12652,-8.43202 21.12652,-17.15852 0,-5.859 -4.96,-9.12948 -11.11348,-9.12948 -9.62547,0 -21.12652,8.13748 -21.12652,17.26698"
     id="path2137"
     style="stroke-width:0.992" />
  <path
     class="Note"
     d="m 3549.772,571.5765 c 0,4.2625 3.069,9.02102 11.1135,9.02102 10.3075,0 21.1265,-8.43202 21.1265,-17.15852 0,-5.859 -4.96,-9.12948 -11.1135,-9.12948 -9.6255,0 -21.1265,8.13748 -21.1265,17.26698"
     id="path2139"
     style="stroke-width:0.992" />
  <path
     class="Note"
     d="m 2726.292,173.1745 c 0,4.2625 3.069,9.02102 11.1135,9.02102 10.3075,0 21.1265,-8.43202 21.1265,-17.15852 0,-5.859 -4.96,-9.12948 -11.1135,-9.12948 -9.6255,0 -21.1265,8.13748 -21.1265,17.26698"
     id="path2141"
     style="stroke-width:0.992" />
  <path
     class="Note"
     d="m 3640.852,583.9765 c 0,4.2625 3.069,9.02102 11.1135,9.02102 10.3075,0 21.1265,-8.43202 21.1265,-17.15852 0,-5.859 -4.96,-9.12948 -11.1135,-9.12948 -9.6255,0 -21.1265,8.13748 -21.1265,17.26698"
     id="path2143"
     style="stroke-width:0.992" />
  <path
     class="Note"
     d="m 1201.542,160.7745 c 0,4.2625 3.069,9.02102 11.1135,9.02102 10.3075,0 21.1265,-8.43202 21.1265,-17.15852 0,-5.859 -4.96,-9.12948 -11.1135,-9.12948 -9.6255,0 -21.1265,8.13748 -21.1265,17.26698"
     id="path2145"
     style="stroke-width:0.992" />
  <path
     class="Clef"
     d="m 60.558525,675.73648 c 0,-3.67348 -3.363475,-5.25443 -6.634,-5.25443 -4.169475,0 -8.246,2.57295 -8.246,7.03695 0,1.89105 0.697475,3.286 2.092525,4.66548 -2.588525,0.992 -5.161575,2.976 -5.161575,6.06052 0,3.27052 2.976,5.456 7.34705,5.456 5.347475,0 9.114,-2.976 9.114,-7.254 0,-2.27852 -0.992,-4.154 -2.774525,-5.456 2.88305,-1.28652 4.262525,-2.86748 4.262525,-5.25452 m -9.92,15.872 c -2.17,0 -3.658,-1.37948 -3.658,-3.472 0,-1.984 0.883475,-3.56496 2.57295,-4.55696 0.40305,0.20148 0.496,0.20148 0.790525,0.38748 1.193475,0.60452 1.193475,0.60452 1.39505,0.806 1.875475,1.08505 2.681475,2.07705 2.681475,3.472 0,1.87548 -1.596525,3.36348 -3.782,3.36348 m 3.782,-11.904 c -1.488,-0.79043 -1.89105,-0.992 -2.185475,-1.19348 l -0.201575,-0.0929 c -1.488,-0.89905 -1.984,-1.59653 -1.984,-2.77453 0,-1.798 1.39505,-3.08452 3.37905,-3.08452 1.875475,0 3.06895,1.19348 3.06895,3.27052 0,1.59653 -0.58895,2.68148 -2.07695,3.87496 M 82.088,604.4055 c 0,-14.97302 -10.617475,-25.0945 -25.094525,-25.0945 -0.992,-5.952 -1.89095,-11.81105 -2.774425,-17.36 10.416,-11.02052 17.747475,-23.51348 17.747475,-39.184 0,-9.03652 -2.774525,-16.368 -4.464,-19.94813 -2.371475,-5.05325 -5.254525,-8.52525 -6.944,-8.52525 -0.682,0 -3.859475,1.19338 -7.03705,5.05325 -6.448,7.54813 -8.230425,20.13413 -8.230425,28.47308 0,5.36305 0.496,10.21453 2.185475,21.43653 -0.108525,0 -5.27,5.25452 -7.34705,7.03704 C 31.09305,564.63248 18.6,576.72248 18.6,596.4695 c 0,18.64655 16.166525,33.23202 34.62705,33.23202 2.867475,0 5.54895,-0.29452 7.936,-0.69747 1.782425,9.43947 2.976,16.47643 2.976,21.73095 0,10.32305 -5.36305,15.77905 -15.376,15.77905 -2.38705,0 -4.464,-0.496 -4.665575,-0.60453 -0.09295,0 -0.294425,-0.093 -0.294425,-0.186 0,-0.20147 0.201475,-0.31 0.496,-0.40304 4.665475,-0.69748 9.315475,-4.75843 9.315475,-11.00496 0,-5.36304 -4.06105,-11.02052 -11.50105,-11.02052 -6.944,0 -11.31495,5.65748 -11.31495,12.19852 0,6.55653 4.96,15.19 18.352,15.19 12.80295,0 19.049475,-7.254 19.049475,-19.94852 0,-3.85948 -0.58895,-8.32348 -1.58095,-13.98095 -0.294525,-1.984 -0.790525,-5.06853 -1.488,-8.83505 C 74.849475,624.64848 82.088,614.62005 82.088,604.4055 M 51.537475,523.06152 c 0.992,-3.968 5.456,-14.384 10.617575,-14.384 1.488,0 3.968,4.75843 3.968,11.70243 0,10.21453 -7.734525,17.96453 -14.585575,24.8 -0.58895,-3.968 -1.08495,-7.936 -1.08495,-11.99695 0,-3.76652 0.387475,-7.05252 1.08495,-10.12148 m 2.976,102.57896 c -14.182425,0 -26.28797,-9.92 -26.28797,-24.90848 0,-12.09005 8.52502,-22.909 17.26702,-30.55048 1.674,-1.39504 3.270525,-2.77452 4.758525,-4.26252 0.883475,5.34748 1.58095,9.92 2.278425,14.08948 -9.036425,2.57304 -15.174425,12.19852 -15.174425,21.42102 0,7.0525 5.456,16.5695 13.392,16.5695 0.790425,0 1.689475,-0.40295 1.689475,-1.39495 0,-0.79053 -0.89905,-1.37957 -2.185475,-2.17005 -3.87505,-2.294 -6.060525,-4.96 -6.060525,-9.734 0,-6.045 4.572525,-10.91205 10.32295,-12.29152 L 60.264,624.943 c -1.984,0.40305 -3.766525,0.69748 -5.750525,0.69748 m 9.92,-1.89096 c -2.07695,-11.79552 -4.758425,-27.57452 -5.456,-31.94557 10.01305,0 14.29105,6.94405 15.174525,11.71805 0.108525,0.7905 0.294525,1.8755 0.294525,3.069 0,7.1455 -2.976,14.29105 -10.01305,17.15852"
     id="path2147"
     style="stroke-width:0.992" />
  <path
     class="Clef"
     d="m 184.55852,252.53448 c 0,-3.67348 -3.36347,-5.25443 -6.634,-5.25443 -4.16947,0 -8.246,2.57295 -8.246,7.03695 0,1.89105 0.69748,3.286 2.09253,4.66548 -2.58853,0.992 -5.16157,2.976 -5.16157,6.06052 0,3.27052 2.976,5.456 7.34704,5.456 5.34748,0 9.114,-2.976 9.114,-7.254 0,-2.27852 -0.992,-4.154 -2.77452,-5.456 2.88305,-1.28652 4.26252,-2.86748 4.26252,-5.25452 m -9.92,15.872 c -2.17,0 -3.658,-1.37948 -3.658,-3.472 0,-1.984 0.88348,-3.56496 2.57296,-4.55696 0.40304,0.20148 0.496,0.20148 0.79052,0.38748 1.19348,0.60452 1.19348,0.60452 1.39505,0.806 1.87547,1.08505 2.68147,2.07705 2.68147,3.472 0,1.87548 -1.59652,3.36348 -3.782,3.36348 m 3.782,-11.904 c -1.488,-0.79043 -1.89104,-0.992 -2.18547,-1.19348 l -0.20157,-0.093 c -1.488,-0.89905 -1.984,-1.59653 -1.984,-2.77453 0,-1.798 1.39504,-3.08452 3.37904,-3.08452 1.87548,0 3.06896,1.19348 3.06896,3.27052 0,1.59653 -0.58896,2.68148 -2.07696,3.87496 M 206.088,181.2035 c 0,-14.97302 -10.61748,-25.0945 -25.09452,-25.0945 -0.992,-5.952 -1.89096,-11.81105 -2.77443,-17.36 10.416,-11.02052 17.74747,-23.51348 17.74747,-39.184 0,-9.036525 -2.77452,-16.368 -4.464,-19.948128 -2.37147,-5.053248 -5.25452,-8.525248 -6.944,-8.525248 -0.682,0 -3.85947,1.193376 -7.03704,5.053248 -6.448,7.548128 -8.23043,20.134128 -8.23043,28.473078 0,5.36305 0.496,10.21453 2.18547,21.43653 -0.10852,0 -5.27,5.25452 -7.34704,7.03704 -9.03643,8.33896 -21.52948,20.42896 -21.52948,40.17598 0,18.64655 16.16652,33.23202 34.62705,33.23202 2.86747,0 5.54895,-0.29452 7.936,-0.69747 1.78243,9.43947 2.976,16.47643 2.976,21.73095 0,10.32305 -5.36305,15.77905 -15.376,15.77905 -2.38705,0 -4.464,-0.496 -4.66557,-0.60453 -0.093,0 -0.29443,-0.093 -0.29443,-0.186 0,-0.20147 0.20147,-0.31 0.496,-0.40304 4.66547,-0.69748 9.31547,-4.75843 9.31547,-11.00496 0,-5.36304 -4.06104,-11.02052 -11.50104,-11.02052 -6.944,0 -11.31496,5.65748 -11.31496,12.19852 0,6.55653 4.96,15.19 18.352,15.19 12.80296,0 19.04948,-7.254 19.04948,-19.94852 0,-3.85948 -0.58895,-8.32348 -1.58095,-13.98095 -0.29453,-1.984 -0.79053,-5.06853 -1.488,-8.83505 9.71843,-3.27052 16.95695,-13.29895 16.95695,-23.5135 M 175.53748,99.859525 c 0.992,-3.968 5.456,-14.384 10.61757,-14.384 1.488,0 3.968,4.758425 3.968,11.702425 0,10.21453 -7.73453,17.96453 -14.58557,24.8 -0.58896,-3.968 -1.08496,-7.936 -1.08496,-11.99695 0,-3.76652 0.38748,-7.05252 1.08496,-10.121475 m 2.976,102.578955 c -14.18243,0 -26.28798,-9.92 -26.28798,-24.90848 0,-12.09005 8.52502,-22.909 17.26702,-30.55048 1.674,-1.39504 3.27053,-2.77452 4.75853,-4.26252 0.88347,5.34748 1.58095,9.92 2.27843,14.08948 -9.03643,2.57304 -15.17443,12.19852 -15.17443,21.42102 0,7.0525 5.456,16.5695 13.392,16.5695 0.79043,0 1.68947,-0.40295 1.68947,-1.39495 0,-0.79053 -0.89904,-1.37957 -2.18547,-2.17005 -3.87505,-2.294 -6.06053,-4.96 -6.06053,-9.734 0,-6.045 4.57253,-10.91205 10.32296,-12.29152 L 184.264,201.741 c -1.984,0.40305 -3.76652,0.69748 -5.75052,0.69748 m 9.92,-1.89096 c -2.07696,-11.79552 -4.75843,-27.57452 -5.456,-31.94557 10.01304,0 14.29104,6.94405 15.17452,11.71805 0.10852,0.7905 0.29452,1.8755 0.29452,3.069 0,7.1455 -2.976,14.29105 -10.01304,17.15852"
     id="path2149"
     style="stroke-width:0.992" />
  <path
     class="KeySig"
     d="m 244.60605,148.762 c -0.58905,-3.85952 -2.976,-7.533 -8.02905,-7.533 -4.96,0 -7.843,3.06895 -8.339,3.67348 l 0.403,-31.85253 c 0,-0.79043 -0.589,-1.37947 -1.395,-1.37947 h -1.178 c -0.806,0 -1.395,0.58904 -1.395,1.37947 l 0.496,59.62853 c 0,0.79052 0.589,1.37957 1.395,1.37957 0.186,0 0.589,-0.0931 0.7905,-0.186 0.3875,-0.20157 6.8355,-3.37905 12.1985,-9.42405 3.76652,-4.278 5.25452,-9.1295 5.25452,-13.206 0,-0.8835 -0.093,-1.674 -0.20147,-2.48 m -6.83557,3.875 c 0,1.488 -0.40296,6.045 -2.88296,9.827 -1.68952,2.573 -5.05302,5.25448 -6.94402,6.74248 l 0.2945,-19.34398 c 0.2015,-0.899 1.6895,-3.76655 5.6575,-3.76655 3.58055,0 3.87498,3.36355 3.87498,5.45605 0,0.496 0,0.7905 0,1.085"
     id="path2151"
     style="stroke-width:0.992" />
  <path
     class="KeySig"
     d="m 272.18005,111.562 c -0.58905,-3.85952 -2.976,-7.533 -8.02905,-7.533 -4.96,0 -7.843,3.06895 -8.339,3.67348 l 0.403,-31.85253 c 0,-0.790425 -0.589,-1.379475 -1.395,-1.379475 h -1.178 c -0.806,0 -1.395,0.58905 -1.395,1.379475 l 0.496,59.62853 c 0,0.79052 0.589,1.37957 1.395,1.37957 0.186,0 0.589,-0.0931 0.7905,-0.186 0.3875,-0.20157 6.8355,-3.37905 12.1985,-9.42405 3.76652,-4.278 5.25452,-9.1295 5.25452,-13.206 0,-0.8835 -0.093,-1.674 -0.20147,-2.48 m -6.83557,3.875 c 0,1.488 -0.40296,6.045 -2.88296,9.827 -1.68952,2.573 -5.05302,5.25448 -6.94402,6.74248 l 0.2945,-19.34398 c 0.2015,-0.899 1.6895,-3.76655 5.6575,-3.76655 3.58055,0 3.87498,3.36355 3.87498,5.45605 0,0.496 0,0.7905 0,1.085"
     id="path2153"
     style="stroke-width:0.992" />
  <path
     class="KeySig"
     d="m 120.60605,571.964 c -0.58905,-3.85952 -2.976,-7.533 -8.02905,-7.533 -4.96,0 -7.843,3.06895 -8.339,3.67348 l 0.403,-31.85253 c 0,-0.79043 -0.589,-1.37947 -1.395,-1.37947 h -1.178 c -0.806,0 -1.395,0.58904 -1.395,1.37947 l 0.496,59.62853 c 0,0.79052 0.589,1.37957 1.395,1.37957 0.186,0 0.589,-0.093 0.7905,-0.186 0.3875,-0.20157 6.8355,-3.37905 12.1985,-9.42405 3.76652,-4.278 5.25452,-9.1295 5.25452,-13.206 0,-0.8835 -0.093,-1.674 -0.20147,-2.48 m -6.83557,3.875 c 0,1.488 -0.40296,6.045 -2.88296,9.827 -1.68952,2.573 -5.05302,5.25448 -6.94402,6.74248 l 0.2945,-19.34398 c 0.2015,-0.899 1.6895,-3.76655 5.6575,-3.76655 3.58055,0 3.87498,3.36355 3.87498,5.45605 0,0.496 0,0.7905 0,1.085"
     id="path2155"
     style="stroke-width:0.992" />
  <path
     class="KeySig"
     d="m 148.18005,534.764 c -0.58905,-3.85952 -2.976,-7.533 -8.02905,-7.533 -4.96,0 -7.843,3.06895 -8.339,3.67348 l 0.403,-31.85253 c 0,-0.79043 -0.589,-1.37947 -1.395,-1.37947 h -1.178 c -0.806,0 -1.395,0.58904 -1.395,1.37947 l 0.496,59.62853 c 0,0.79052 0.589,1.37957 1.395,1.37957 0.186,0 0.589,-0.0931 0.7905,-0.186 0.3875,-0.20157 6.8355,-3.37905 12.1985,-9.42405 3.76652,-4.278 5.25452,-9.1295 5.25452,-13.206 0,-0.8835 -0.093,-1.674 -0.20147,-2.48 m -6.83557,3.875 c 0,1.488 -0.40296,6.045 -2.88296,9.827 -1.68952,2.573 -5.05302,5.25448 -6.94402,6.74248 l 0.2945,-19.34398 c 0.2015,-0.899 1.6895,-3.76655 5.6575,-3.76655 3.58055,0 3.87498,3.36355 3.87498,5.45605 0,0.496 0,0.7905 0,1.085"
     id="path2157"
     style="stroke-width:0.992" />
  <path
     class="TimeSig"
     d="m 320.50948,127.5425 c -6.06043,0 -8.23043,1.7825 -9.62548,3.2705 -0.29452,-2.077 -0.496,-3.6735 -0.496,-5.2545 0,-1.5965 0.20148,-2.976 0.496,-4.75855 0.58905,-3.67347 3.06905,-8.246 8.432,-8.246 2.48,0 3.968,0.806 4.96,1.89105 -2.07695,0.89895 -3.76652,3.56495 -3.76652,5.85895 0,3.56505 2.77452,6.33955 6.35504,6.33955 3.56496,0 6.448,-2.7745 6.448,-6.33955 v -0.20147 c 0,0 0,0 0,-0.10853 0,-0.88347 -0.20147,-2.37147 -0.60452,-3.162 -1.28652,-3.58043 -5.456,-8.83495 -15.376,-8.83495 -8.928,0 -15.376,8.52495 -17.36,13.09748 -0.992,2.37152 -2.48,7.23852 -2.48,12.78752 0,6.0605 1.6895,12.89605 7.533,18.05752 5.76605,4.37096 9.42405,4.57253 12.89605,4.57253 3.48747,0 16.47643,-4.07653 16.47643,-15.57755 0,-9.7185 -7.64148,-13.392 -13.888,-13.392 m -3.67348,24.79998 c -3.27052,0 -5.952,-4.464 -5.952,-10.02843 0,-5.54905 2.68148,-10.10605 5.952,-10.10605 3.27052,0 6.06052,4.557 6.06052,10.10605 0,5.56443 -2.79,10.02843 -6.06052,10.02843"
     id="path2159"
     style="stroke-width:0.992" />
  <path
     class="TimeSig"
     d="m 327.85605,179.3745 c 3.27043,-2.48 5.54895,-5.6575 5.54895,-9.6255 0,-7.14548 -7.82748,-12.98905 -17.45295,-12.98905 -9.62557,0 -17.46855,5.84357 -17.46855,12.98905 0,3.968 0.992,7.533 5.6575,10.509 -4.464,2.5885 -6.944,6.262 -6.944,11.02048 0,8.02904 8.432,14.47704 18.75505,14.47704 10.30747,0 18.73947,-6.448 18.73947,-14.47704 0,-4.75848 -1.674,-9.22248 -6.83547,-11.90398 m -11.904,20.83198 c -6.35505,0 -11.81105,-3.472 -11.81105,-9.03643 0,-6.63405 5.16148,-8.23055 5.16148,-8.23055 6.74252,2.2785 16.368,5.6575 16.368,11.1135 0,2.68148 -3.472,6.15348 -9.71843,6.15348 m 6.33947,-23.51348 c -6.74252,-2.1855 -14.18252,-5.456 -14.18252,-9.92 0,-3.87505 3.56505,-5.456 7.84305,-5.456 6.15347,0 10.30747,2.88295 10.30747,7.44 0,4.7585 -2.17,7.037 -3.968,7.936"
     id="path2161"
     style="stroke-width:0.992" />
  <path
     class="Beam"
     fill-rule="evenodd"
     d="m 1201.542,218.605 h 142.6 v 12.4 h -142.6 v -12.4"
     id="path2163" />
  <path
     class="Beam"
     fill-rule="evenodd"
     d="m 1411.722,224.805 h 134.53 v 12.4 h -134.53 v -12.4"
     id="path2165" />
  <path
     class="Beam"
     fill-rule="evenodd"
     d="m 1411.722,206.205 h 27.28 v 12.4 h -27.28 v -12.4"
     id="path2167" />
  <path
     class="Beam"
     fill-rule="evenodd"
     d="m 384.292,218.605 h 142.602 v 12.4 H 384.292 v -12.4"
     id="path2169" />
  <path
     class="Beam"
     fill-rule="evenodd"
     d="m 594.475,224.805 h 134.526 v 12.4 H 594.475 v -12.4"
     id="path2171" />
  <path
     class="Beam"
     fill-rule="evenodd"
     d="m 594.475,206.205 h 27.28 v 12.4 h -27.28 v -12.4"
     id="path2173" />
  <path
     class="Beam"
     fill-rule="evenodd"
     d="m 2694.052,75.979 134.52,12.4 v 12.453 l -134.52,-12.4 V 75.979"
     id="path2175" />
  <path
     class="Beam"
     fill-rule="evenodd"
     d="m 2694.052,94.579 27.28,2.515 v 12.452 l -27.28,-2.514 V 94.579"
     id="path2177" />
  <path
     class="Beam"
     fill-rule="evenodd"
     d="m 438.091,598.407 h 155.548 v 12.4 H 438.091 v -12.4"
     id="path2179" />
  <path
     class="Beam"
     fill-rule="evenodd"
     d="m 438.091,579.807 h 27.28 v 12.4 h -27.28 v -12.4"
     id="path2181" />
  <path
     class="Beam"
     fill-rule="evenodd"
     d="m 3160.562,75.977 64.46,6.2 v 12.457 l -64.46,-6.2 V 75.977"
     id="path2183" />
  <path
     class="Beam"
     fill-rule="evenodd"
     d="m 3160.562,94.577 64.46,6.2 v 12.457 l -64.46,-6.2 V 94.577"
     id="path2185" />
  <path
     class="Beam"
     fill-rule="evenodd"
     d="m 3487.792,648.007 h 155.54 v 12.4 h -155.54 v -12.4"
     id="path2187" />
  <path
     class="Beam"
     fill-rule="evenodd"
     d="m 3487.792,629.407 h 27.28 v 12.4 h -27.28 v -12.4"
     id="path2189" />
  <path
     class="Beam"
     fill-rule="evenodd"
     d="m 1454.932,524.007 h 155.55 v 12.4 h -155.55 v -12.4"
     id="path2191" />
  <path
     class="Beam"
     fill-rule="evenodd"
     d="m 1454.932,542.607 h 27.28 v 12.4 h -27.28 v -12.4"
     id="path2193" />
  <path
     class="Beam"
     fill-rule="evenodd"
     d="m 2483.872,82.2 142.6,6.2 v 12.411 l -142.6,-6.2 V 82.2"
     id="path2195" />
  <path
     class="Beam"
     fill-rule="evenodd"
     d="m 2950.372,82.2 142.61,6.2 v 12.411 l -142.61,-6.2 V 82.2"
     id="path2197" />
  <path
     class="Beam"
     fill-rule="evenodd"
     d="m 2477.412,635.607 155.55,6.2 v 12.41 l -155.55,-6.2 v -12.41"
     id="path2199" />
  <path
     class="Beam"
     fill-rule="evenodd"
     d="m 2477.412,617.007 27.28,1.09 v 12.41 l -27.28,-1.09 v -12.41"
     id="path2201" />
  <path
     class="Beam"
     fill-rule="evenodd"
     d="m 2353.442,641.777 64.47,-6.2 v 12.46 l -64.47,6.2 v -12.46"
     id="path2203" />
  <path
     class="Beam"
     fill-rule="evenodd"
     d="m 2353.442,623.177 64.47,-6.2 v 12.46 l -64.47,6.2 v -12.46"
     id="path2205" />
  <path
     class="Tempo"
     d="m 321.038,1.577 h -3.266 v 42.266 c -1.094,-0.688 -2.484,-1.094 -4.063,-1.281 -3.562,0 -6.437,0.39 -9.609,2.172 -3.953,2.078 -8.312,6.437 -8.312,11.281 0,1.094 0.203,2.187 0.796,3.172 1.282,2.468 4.36,3.859 7.813,3.859 6.937,0 16.641,-5.937 16.641,-13.469 v -48"
     id="path2207" />
  <path
     class="Tempo"
     d="m 342.772,39.53 h 30.234 v -6.906 h -30.234 v 6.906 m 0,12.36 h 30.234 v -6.906 h -30.234 v 6.906 m 74.109,-19.141 c 3.969,-1.5 7.094,-3.844 7.094,-8.578 0,-5.531 -5.234,-9.25 -13.031,-9.25 -9.297,0 -15.297,4.984 -15.297,12.781 0,4.75 2.219,8.219 6.969,10.75 -1.86,0.594 -2.641,0.828 -3.672,1.375 -3,1.563 -4.61,4.313 -4.61,7.797 0,6.485 5.813,10.625 14.938,10.625 9.656,0 16.203,-5.531 16.203,-13.75 0,-5.64 -2.766,-9.359 -8.594,-11.75 m -3.359,-1.265 c -2.516,-0.594 -4.375,-1.141 -5.516,-1.563 -2.75,-1.016 -4.562,-3.469 -4.562,-6.109 0,-3.313 2.765,-5.766 6.484,-5.766 4.016,0 6.547,2.641 6.547,6.844 0,2.703 -1.031,4.984 -2.953,6.594 m -7.672,8.578 c 2.453,0.672 5.453,1.562 6.953,2.047 3.781,1.312 5.219,2.937 5.219,6 0,4.078 -3.359,7.015 -8.094,7.015 -4.859,0 -7.797,-2.875 -7.797,-7.672 0,-3.187 1.016,-5.218 3.719,-7.39 m 38.078,-25.141 c -9,0 -15.594,9.188 -15.594,21.672 0,12.469 6.594,21.656 15.594,21.656 8.813,0 15.547,-9.187 15.547,-21.359 0,-7.078 -1.625,-12.297 -5.172,-16.75 -2.812,-3.406 -6.359,-5.219 -10.375,-5.219 m -0.062,3.125 c 1.797,0 3.25,1.078 3.906,3 0.781,1.984 1.25,8.281 1.25,15.719 0,6.187 -0.469,12.656 -1.016,14.703 -0.656,2.391 -2.093,3.656 -4.14,3.656 -1.86,0 -3.235,-1.015 -3.953,-3 -0.782,-1.984 -1.266,-8.344 -1.266,-15.531 0,-6.313 0.484,-12.844 1.016,-14.891 0.671,-2.39 2.109,-3.656 4.203,-3.656"
     id="path2209" />
  <path
     class="VoltaSegment"
     d="m 1666.972,16.987 h -1.93 c -3.46,2.594 -7.37,3.688 -13.92,3.797 v 3.078 h 2.32 c 4.89,0 4.95,0.11 4.89,4.625 v 19.516 c 0,3.406 0,3.578 -0.38,4.125 -0.5,0.609 -1.61,0.828 -4.58,0.828 h -1.75 v 2.969 h 21.94 v -2.969 h -1.77 c -2.9,0 -3.95,-0.219 -4.45,-0.828 -0.37,-0.547 -0.37,-0.766 -0.37,-4.125 V 16.987 m 19.23,29.422 c -2.86,0 -5.17,2.313 -5.17,5.172 0,2.797 2.31,5.172 5.12,5.172 2.91,0 5.22,-2.312 5.22,-5.172 0,-2.859 -2.31,-5.172 -5.17,-5.172"
     id="path2211" />
  <polyline
     class="VoltaSegment"
     fill="none"
     stroke="#000000"
     stroke-width="2.73"
     stroke-linejoin="miter"
     stroke-miterlimit="2"
     points="1848.28,583.118 1848.28,528.558 2216.77,528.558 2216.77,583.118"
     id="polyline2213"
     transform="translate(-212.598,-527.193)" />
  <path
     class="VoltaSegment"
     d="m 2068.832,41.3 -0.61,2.75 c -0.5,2.203 -0.82,2.906 -1.26,3.187 -0.55,0.391 -0.66,0.391 -4.13,0.438 h -10.61 c 1.93,-1.656 3.36,-2.688 5.5,-4.125 7.75,-5 9.35,-6.219 10.94,-8.25 1.88,-2.469 2.97,-5.391 2.97,-7.969 0,-5.89 -5.77,-10.344 -13.52,-10.344 -7.48,0 -13.26,4.844 -13.26,11.11 0,3.844 2.15,6.328 5.45,6.328 2.86,0 4.67,-1.813 4.67,-4.672 0,-2.375 -1.04,-3.75 -3.57,-4.953 -0.61,-0.281 -0.88,-0.609 -0.88,-1.047 0,-1.766 2.97,-3.625 5.72,-3.625 3.84,0 6.05,2.359 6.05,6.438 0,4.562 -1.77,7.796 -7.6,14.015 -6.15,6.547 -8.29,9.016 -11.04,12.985 v 2.578 c 1.42,-0.157 2.03,-0.219 2.85,-0.219 h 20.68 c 1.04,0 1.7,0.062 3.36,0.219 l 1.26,-14.844 h -2.97 m 13.41,5.109 c -2.86,0 -5.17,2.313 -5.17,5.172 0,2.797 2.31,5.172 5.12,5.172 2.91,0 5.22,-2.312 5.22,-5.172 0,-2.859 -2.31,-5.172 -5.17,-5.172"
     id="path2215" />
  <polyline
     class="VoltaSegment"
     fill="none"
     stroke="#000000"
     stroke-width="2.73"
     stroke-linejoin="miter"
     stroke-miterlimit="2"
     points="2241.32,583.118 2241.32,528.558 2590.32,528.558"
     id="polyline2217"
     transform="translate(-212.598,-527.193)" />
  <path
     class="VoltaSegment"
     d="m 741.009,415.392 h -1.922 c -3.469,2.594 -7.375,3.687 -13.922,3.797 v 3.078 h 2.313 c 4.89,0 4.953,0.109 4.89,4.625 v 19.516 c 0,3.406 0,3.578 -0.375,4.125 -0.5,0.609 -1.609,0.828 -4.578,0.828 h -1.75 v 2.968 h 21.938 v -2.968 h -1.766 c -2.906,0 -3.953,-0.219 -4.453,-0.828 -0.375,-0.547 -0.375,-0.766 -0.375,-4.125 v -31.016 m 19.234,29.422 c -2.859,0 -5.171,2.312 -5.171,5.172 0,2.797 2.312,5.172 5.125,5.172 2.906,0 5.218,-2.313 5.218,-5.172 0,-2.86 -2.312,-5.172 -5.172,-5.172"
     id="path2219" />
  <polyline
     class="VoltaSegment"
     fill="none"
     stroke="#000000"
     stroke-width="2.73"
     stroke-linejoin="miter"
     stroke-miterlimit="2"
     points="922.321,981.522 922.321,926.962 1927.16,926.962 1927.16,981.522"
     id="polyline2221"
     transform="translate(-212.598,-527.193)" />
  <path
     class="VoltaSegment"
     d="m 1779.232,439.704 -0.61,2.75 c -0.5,2.204 -0.83,2.907 -1.27,3.188 -0.54,0.391 -0.65,0.391 -4.12,0.437 h -10.61 c 1.92,-1.656 3.36,-2.687 5.5,-4.125 7.75,-5 9.34,-6.218 10.94,-8.25 1.87,-2.468 2.97,-5.39 2.97,-7.968 0,-5.891 -5.77,-10.344 -13.52,-10.344 -7.48,0 -13.27,4.844 -13.27,11.109 0,3.844 2.16,6.328 5.46,6.328 2.86,0 4.67,-1.812 4.67,-4.671 0,-2.375 -1.05,-3.75 -3.58,-4.954 -0.61,-0.281 -0.87,-0.609 -0.87,-1.046 0,-1.766 2.97,-3.625 5.72,-3.625 3.84,0 6.04,2.359 6.04,6.437 0,4.563 -1.76,7.797 -7.59,14.016 -6.16,6.547 -8.3,9.015 -11.05,12.984 v 2.578 c 1.42,-0.156 2.03,-0.219 2.86,-0.219 h 20.67 c 1.05,0 1.71,0.063 3.36,0.219 l 1.27,-14.844 h -2.97 m 13.41,5.11 c -2.86,0 -5.18,2.312 -5.18,5.172 0,2.797 2.32,5.172 5.13,5.172 2.9,0 5.22,-2.313 5.22,-5.172 0,-2.86 -2.32,-5.172 -5.17,-5.172"
     id="path2223" />
  <polyline
     class="VoltaSegment"
     fill="none"
     stroke="#000000"
     stroke-width="2.73"
     stroke-linejoin="miter"
     stroke-miterlimit="2"
     points="1951.71,981.522 1951.71,926.962 2979.39,926.962"
     id="polyline2225"
     transform="translate(-212.598,-527.193)" />
  <path
     class="VoltaSegment"
     d="m 2824.522,434.095 c 4.69,-1.219 8.86,-3.297 8.86,-8.969 0,-5.828 -5.17,-9.734 -12.98,-9.734 -4.02,0 -7.25,1.047 -9.57,3.078 -1.81,1.594 -2.92,3.906 -2.92,6 0,2.859 2.16,5 4.96,5 2.64,0 4.45,-1.75 4.45,-4.344 0,-1.484 -0.6,-2.64 -2.14,-4.125 -0.28,-0.265 -0.39,-0.437 -0.39,-0.656 0,-1.047 2.04,-2.094 4.18,-2.094 3.47,0 5.5,2.532 5.5,6.828 0,4.782 -1.59,7.688 -4.29,7.688 -0.44,0 -0.99,-0.047 -1.86,-0.266 -1.22,-0.281 -1.6,-0.328 -2.2,-0.328 -1.38,0 -2.04,0.594 -2.04,1.813 0,1.265 0.82,2.093 1.97,2.093 0.39,0 0.72,-0.062 1.66,-0.171 1.26,-0.11 1.59,-0.172 1.98,-0.172 3.41,0 5.11,2.64 5.11,7.812 0,5.563 -2.31,8.688 -6.37,8.688 -2.31,0 -4.74,-1.157 -4.74,-2.313 0,-0.328 0.18,-0.656 0.5,-0.984 1.64,-1.531 2.03,-2.25 2.03,-3.844 0,-2.594 -2.03,-4.562 -4.73,-4.562 -2.97,0 -4.95,2.14 -4.95,5.218 0,5.547 5.39,9.344 13.31,9.344 7.27,0 14.52,-3.016 14.52,-11.375 0,-3.469 -1.54,-6.5 -4.07,-7.984 -1.59,-0.875 -2.86,-1.266 -5.78,-1.641 m 20.35,10.719 c -2.86,0 -5.18,2.312 -5.18,5.172 0,2.797 2.32,5.172 5.13,5.172 2.9,0 5.22,-2.313 5.22,-5.172 0,-2.86 -2.32,-5.172 -5.17,-5.172"
     id="path2227" />
  <polyline
     class="VoltaSegment"
     fill="none"
     stroke="#000000"
     stroke-width="2.73"
     stroke-linejoin="miter"
     stroke-miterlimit="2"
     points="3003.94,981.522 3003.94,926.962 3438.58,926.962 3438.58,981.522"
     id="polyline2229"
     transform="translate(-212.598,-527.193)" />
  <path
     class="NoteDot"
     d="m 1588.392,144.205 c 0,2.7745 2.1855,4.96 4.96,4.96 2.7745,0 4.96,-2.1855 4.96,-4.96 0,-2.7745 -2.1855,-4.96 -4.96,-4.96 -2.7745,0 -4.96,2.1855 -4.96,4.96"
     id="path2231"
     style="stroke-width:0.992" />
  <path
     class="NoteDot"
     d="m 1622.882,617.007 c 0,2.7745 2.1855,4.96 4.96,4.96 2.7745,0 4.96,-2.1855 4.96,-4.96 0,-2.7745 -2.1855,-4.96 -4.96,-4.96 -2.7745,0 -4.96,2.1855 -4.96,4.96"
     id="path2233"
     style="stroke-width:0.992" />
  <path
     class="NoteDot"
     d="m 635.783,517.807 c 0,2.7745 2.1855,4.96 4.96,4.96 2.7745,0 4.96,-2.1855 4.96,-4.96 0,-2.7745 -2.1855,-4.96 -4.96,-4.96 -2.7745,0 -4.96,2.1855 -4.96,4.96"
     id="path2235"
     style="stroke-width:0.992" />
  <path
     class="NoteDot"
     d="m 2868.332,567.407 c 0,2.7745 2.1855,4.96 4.96,4.96 2.7745,0 4.96,-2.1855 4.96,-4.96 0,-2.7745 -2.1855,-4.96 -4.96,-4.96 -2.7745,0 -4.96,2.1855 -4.96,4.96"
     id="path2237"
     style="stroke-width:0.992" />
  <path
     class="NoteDot"
     d="m 786.711,567.407 c 0,2.7745 2.1855,4.96 4.96,4.96 2.7745,0 4.96,-2.1855 4.96,-4.96 0,-2.7745 -2.1855,-4.96 -4.96,-4.96 -2.7745,0 -4.96,2.1855 -4.96,4.96"
     id="path2239"
     style="stroke-width:0.992" />
  <path
     class="NoteDot"
     d="m 2840.972,169.005 c 0,2.7745 2.1855,4.96 4.96,4.96 2.7745,0 4.96,-2.1855 4.96,-4.96 0,-2.7745 -2.1855,-4.96 -4.96,-4.96 -2.7745,0 -4.96,2.1855 -4.96,4.96"
     id="path2241"
     style="stroke-width:0.992" />
  <path
     class="NoteDot"
     d="m 3515.382,144.205 c 0,2.7745 2.1855,4.96 4.96,4.96 2.7745,0 4.96,-2.1855 4.96,-4.96 0,-2.7745 -2.1855,-4.96 -4.96,-4.96 -2.7745,0 -4.96,2.1855 -4.96,4.96"
     id="path2243"
     style="stroke-width:0.992" />
  <path
     class="NoteDot"
     d="m 771.145,144.205 c 0,2.7745 2.1855,4.96 4.96,4.96 2.7745,0 4.96,-2.1855 4.96,-4.96 0,-2.7745 -2.1855,-4.96 -4.96,-4.96 -2.7745,0 -4.96,2.1855 -4.96,4.96"
     id="path2245"
     style="stroke-width:0.992" />
  <path
     class="NoteDot"
     d="m 3685.482,567.407 c 0,2.7745 2.1855,4.96 4.96,4.96 2.7745,0 4.96,-2.1855 4.96,-4.96 0,-2.7745 -2.1855,-4.96 -4.96,-4.96 -2.7745,0 -4.96,2.1855 -4.96,4.96"
     id="path2247"
     style="stroke-width:0.992" />
  <path
     class="NoteDot"
     d="m 2675.112,567.407 c 0,2.7745 2.1855,4.96 4.96,4.96 2.7745,0 4.96,-2.1855 4.96,-4.96 0,-2.7745 -2.1855,-4.96 -4.96,-4.96 -2.7745,0 -4.96,2.1855 -4.96,4.96"
     id="path2249"
     style="stroke-width:0.992" />
</svg>
