<?xml version="1.0" encoding="UTF-8" standalone="no"?>
<svg
   xmlns:dc="http://purl.org/dc/elements/1.1/"
   xmlns:cc="http://creativecommons.org/ns#"
   xmlns:rdf="http://www.w3.org/1999/02/22-rdf-syntax-ns#"
   xmlns:svg="http://www.w3.org/2000/svg"
   xmlns="http://www.w3.org/2000/svg"
   xmlns:sodipodi="http://sodipodi.sourceforge.net/DTD/sodipodi-0.dtd"
   xmlns:inkscape="http://www.inkscape.org/namespaces/inkscape"
   width="171.30896mm"
   height="18.621626mm"
   viewBox="0 0 2428.001 263.92856"
   version="1.2"
   id="svg2013"
   sodipodi:docname="Dossium Canto Spuitzwaaien Musica.svg"
   inkscape:version="1.0.2-2 (e86c870879, 2021-01-15)">
  <metadata
     id="metadata2019">
    <rdf:RDF>
      <cc:Work
         rdf:about="">
        <dc:format>image/svg+xml</dc:format>
        <dc:type
           rdf:resource="http://purl.org/dc/dcmitype/StillImage" />
      </cc:Work>
    </rdf:RDF>
  </metadata>
  <defs
     id="defs2017" />
  <sodipodi:namedview
     pagecolor="#ffffff"
     bordercolor="#666666"
     borderopacity="1"
     objecttolerance="10"
     gridtolerance="10"
     guidetolerance="10"
     inkscape:pageopacity="0"
     inkscape:pageshadow="2"
     inkscape:window-width="1920"
     inkscape:window-height="991"
     id="namedview2015"
     showgrid="false"
     inkscape:zoom="0.73068151"
     inkscape:cx="307.20027"
     inkscape:cy="243.86068"
     inkscape:window-x="-9"
     inkscape:window-y="-9"
     inkscape:window-maximized="1"
     inkscape:current-layer="svg2013" />
  <title
     id="title1819">Dossium Canto Spuitzwaaien Musica</title>
  <desc
     id="desc1821">Generated by MuseScore Studio 4.5.2</desc>
  <polyline
     class="StaffLines"
     fill="none"
     stroke="#000000"
     stroke-width="2.73"
     stroke-linejoin="bevel"
     points="336.599,656.948 2764.6,656.948"
     id="polyline1823"
     transform="translate(-336.599,-573.859)" />
  <polyline
     class="StaffLines"
     fill="none"
     stroke="#000000"
     stroke-width="2.73"
     stroke-linejoin="bevel"
     points="336.599,681.748 2764.6,681.748"
     id="polyline1825"
     transform="translate(-336.599,-573.859)" />
  <polyline
     class="StaffLines"
     fill="none"
     stroke="#000000"
     stroke-width="2.73"
     stroke-linejoin="bevel"
     points="336.599,706.548 2764.6,706.548"
     id="polyline1827"
     transform="translate(-336.599,-573.859)" />
  <polyline
     class="StaffLines"
     fill="none"
     stroke="#000000"
     stroke-width="2.73"
     stroke-linejoin="bevel"
     points="336.599,731.348 2764.6,731.348"
     id="polyline1829"
     transform="translate(-336.599,-573.859)" />
  <polyline
     class="StaffLines"
     fill="none"
     stroke="#000000"
     stroke-width="2.73"
     stroke-linejoin="bevel"
     points="336.599,756.148 2764.6,756.148"
     id="polyline1831"
     transform="translate(-336.599,-573.859)" />
  <path
     class="BarLine"
     d="m 2025.6941,120.289 c 0,-2.883 -2.2941,-5.25451 -5.1616,-5.25451 -2.883,0 -5.1615,2.37151 -5.1615,5.25451 0,2.883 2.2785,5.25451 5.1615,5.25451 2.8675,0 5.1616,-2.37151 5.1616,-5.25451"
     id="path1843"
     style="stroke-width:0.992001" />
  <path
     class="BarLine"
     d="m 2025.6941,145.089 c 0,-2.883 -2.2941,-5.25451 -5.1616,-5.25451 -2.883,0 -5.1615,2.37151 -5.1615,5.25451 0,2.883 2.2785,5.25451 5.1615,5.25451 2.8675,0 5.1616,-2.37151 5.1616,-5.25451"
     id="path1845"
     style="stroke-width:0.992001" />
  <polyline
     class="BarLine"
     fill="none"
     stroke="#000000"
     stroke-width="4.46"
     stroke-linejoin="bevel"
     points="2373.69,655.584 2373.69,757.512"
     id="polyline1847"
     transform="translate(-336.599,-573.859)" />
  <polyline
     class="BarLine"
     fill="none"
     stroke="#000000"
     stroke-width="13.64"
     stroke-linejoin="bevel"
     points="2391.92,655.584 2391.92,757.512"
     id="polyline1849"
     transform="translate(-336.599,-573.859)" />
  <polyline
     class="BarLine"
     fill="none"
     stroke="#000000"
     stroke-width="4.46"
     stroke-linejoin="bevel"
     points="1622.48,655.584 1622.48,757.512"
     id="polyline1851"
     transform="translate(-336.599,-573.859)" />
  <polyline
     class="BarLine"
     fill="none"
     stroke="#000000"
     stroke-width="4.46"
     stroke-linejoin="bevel"
     points="2739.55,655.584 2739.55,757.512"
     id="polyline1853"
     transform="translate(-336.599,-573.859)" />
  <polyline
     class="BarLine"
     fill="none"
     stroke="#000000"
     stroke-width="13.64"
     stroke-linejoin="bevel"
     points="2757.78,655.584 2757.78,757.512"
     id="polyline1855"
     transform="translate(-336.599,-573.859)" />
  <polyline
     class="BarLine"
     fill="none"
     stroke="#000000"
     stroke-width="4.46"
     stroke-linejoin="bevel"
     points="797.702,655.584 797.702,757.512"
     id="polyline1857"
     transform="translate(-336.599,-573.859)" />
  <polyline
     class="BarLine"
     fill="none"
     stroke="#000000"
     stroke-width="4.46"
     stroke-linejoin="bevel"
     points="1999.7,655.584 1999.7,757.512"
     id="polyline1859"
     transform="translate(-336.599,-573.859)" />
  <polyline
     class="BarLine"
     fill="none"
     stroke="#000000"
     stroke-width="4.46"
     stroke-linejoin="bevel"
     points="1179.65,655.584 1179.65,757.512"
     id="polyline1861"
     transform="translate(-336.599,-573.859)" />
  <path
     class="Accidental"
     d="m 2189.2641,186.84699 c -0.5891,-3.85953 -2.976,-7.53301 -8.0291,-7.53301 -4.96,0 -7.843,3.06896 -8.339,3.67348 l 0.403,-31.85255 c 0,-0.79043 -0.589,-1.37948 -1.395,-1.37948 h -1.178 c -0.806,0 -1.395,0.58905 -1.395,1.37948 l 0.496,59.62858 c 0,0.79053 0.589,1.37958 1.395,1.37958 0.186,0 0.589,-0.0931 0.7905,-0.186 0.3875,-0.20158 6.8355,-3.37906 12.1985,-9.42406 3.7665,-4.27801 5.2545,-9.12952 5.2545,-13.20602 0,-0.8835 -0.093,-1.674 -0.2014,-2.48 m -6.8356,3.87501 c 0,1.488 -0.403,6.045 -2.883,9.82701 -1.6895,2.573 -5.053,5.25448 -6.944,6.74248 l 0.2945,-19.344 c 0.2015,-0.899 1.6895,-3.76655 5.6575,-3.76655 3.5806,0 3.875,3.36355 3.875,5.45605 0,0.49601 0,0.7905 0,1.08501"
     id="path1863"
     style="stroke-width:0.992001" />
  <path
     class="Accidental"
     d="m 1701.3841,149.64599 c -0.5891,-3.85953 -2.976,-7.53301 -8.0291,-7.53301 -4.96,0 -7.843,3.06896 -8.339,3.67348 l 0.403,-31.85255 c 0,-0.79043 -0.589,-1.37948 -1.395,-1.37948 h -1.178 c -0.806,0 -1.395,0.58905 -1.395,1.37948 l 0.496,59.62858 c 0,0.79053 0.589,1.37958 1.395,1.37958 0.186,0 0.589,-0.0931 0.7905,-0.186 0.3875,-0.20158 6.8355,-3.37906 12.1985,-9.42406 3.7665,-4.27801 5.2545,-9.12952 5.2545,-13.20602 0,-0.8835 -0.093,-1.674 -0.2014,-2.48 m -6.8356,3.87501 c 0,1.488 -0.403,6.045 -2.883,9.82701 -1.6895,2.573 -5.053,5.25448 -6.944,6.74248 l 0.2945,-19.344 c 0.2015,-0.899 1.6895,-3.76655 5.6575,-3.76655 3.5806,0 3.875,3.36355 3.875,5.45605 0,0.49601 0,0.7905 0,1.08501"
     id="path1865"
     style="stroke-width:0.992001" />
  <path
     class="Accidental"
     d="m 1803.9141,137.24599 c -0.5891,-3.85953 -2.976,-7.53301 -8.0291,-7.53301 -4.96,0 -7.843,3.06896 -8.339,3.67348 l 0.403,-31.85255 c 0,-0.79043 -0.589,-1.37948 -1.395,-1.37948 h -1.178 c -0.806,0 -1.395,0.58905 -1.395,1.37948 l 0.496,59.62858 c 0,0.79053 0.589,1.37958 1.395,1.37958 0.186,0 0.589,-0.0931 0.7905,-0.186 0.3875,-0.20158 6.8355,-3.37906 12.1985,-9.42406 3.7665,-4.27801 5.2545,-9.12952 5.2545,-13.20602 0,-0.8835 -0.093,-1.674 -0.2014,-2.48 m -6.8356,3.87501 c 0,1.488 -0.403,6.045 -2.883,9.82701 -1.6895,2.573 -5.053,5.25448 -6.944,6.74248 l 0.2945,-19.344 c 0.2015,-0.899 1.6895,-3.76655 5.6575,-3.76655 3.5806,0 3.875,3.36355 3.875,5.45605 0,0.49601 0,0.7905 0,1.08501"
     id="path1867"
     style="stroke-width:0.992001" />
  <path
     class="Accidental"
     d="m 1207.8241,186.84699 c -0.5891,-3.85953 -2.976,-7.53301 -8.0291,-7.53301 -4.96,0 -7.843,3.06896 -8.339,3.67348 l 0.403,-31.85255 c 0,-0.79043 -0.589,-1.37948 -1.395,-1.37948 h -1.178 c -0.806,0 -1.395,0.58905 -1.395,1.37948 l 0.496,59.62858 c 0,0.79053 0.589,1.37958 1.395,1.37958 0.186,0 0.589,-0.0931 0.7905,-0.186 0.3875,-0.20158 6.8355,-3.37906 12.1985,-9.42406 3.7665,-4.27801 5.2545,-9.12952 5.2545,-13.20602 0,-0.8835 -0.093,-1.674 -0.2014,-2.48 m -6.8356,3.87501 c 0,1.488 -0.403,6.045 -2.883,9.82701 -1.6895,2.573 -5.053,5.25448 -6.944,6.74248 l 0.2945,-19.344 c 0.2015,-0.899 1.6895,-3.76655 5.6575,-3.76655 3.5806,0 3.875,3.36355 3.875,5.45605 0,0.49601 0,0.7905 0,1.08501"
     id="path1869"
     style="stroke-width:0.992001" />
  <path
     class="Accidental"
     d="m 499.38807,186.84699 c -0.58905,-3.85953 -2.976,-7.53301 -8.02906,-7.53301 -4.96,0 -7.84301,3.06896 -8.33901,3.67348 l 0.403,-31.85255 c 0,-0.79043 -0.589,-1.37948 -1.395,-1.37948 h -1.178 c -0.806,0 -1.395,0.58905 -1.395,1.37948 l 0.496,59.62858 c 0,0.79053 0.589,1.37958 1.395,1.37958 0.186,0 0.589,-0.0931 0.79051,-0.186 0.38749,-0.20158 6.8355,-3.37906 12.1985,-9.42406 3.76653,-4.27801 5.25454,-9.12952 5.25454,-13.20602 0,-0.8835 -0.093,-1.674 -0.20148,-2.48 m -6.83558,3.87501 c 0,1.488 -0.40295,6.045 -2.88295,9.82701 -1.68953,2.573 -5.05303,5.25448 -6.94403,6.74248 l 0.29449,-19.344 c 0.20151,-0.899 1.68951,-3.76655 5.65751,-3.76655 3.58055,0 3.87498,3.36355 3.87498,5.45605 0,0.49601 0,0.7905 0,1.08501"
     id="path1871"
     style="stroke-width:0.992001" />
  <path
     class="Accidental"
     d="m 1551.9441,149.64599 c -0.5891,-3.85953 -2.976,-7.53301 -8.0291,-7.53301 -4.96,0 -7.843,3.06896 -8.339,3.67348 l 0.403,-31.85255 c 0,-0.79043 -0.589,-1.37948 -1.395,-1.37948 h -1.178 c -0.806,0 -1.395,0.58905 -1.395,1.37948 l 0.496,59.62858 c 0,0.79053 0.589,1.37958 1.395,1.37958 0.186,0 0.589,-0.0931 0.7905,-0.186 0.3875,-0.20158 6.8355,-3.37906 12.1985,-9.42406 3.7665,-4.27801 5.2545,-9.12952 5.2545,-13.20602 0,-0.8835 -0.093,-1.674 -0.2014,-2.48 m -6.8356,3.87501 c 0,1.488 -0.403,6.045 -2.883,9.82701 -1.6895,2.573 -5.053,5.25448 -6.944,6.74248 l 0.2945,-19.344 c 0.2015,-0.899 1.6895,-3.76655 5.6575,-3.76655 3.5806,0 3.875,3.36355 3.875,5.45605 0,0.49601 0,0.7905 0,1.08501"
     id="path1873"
     style="stroke-width:0.992001" />
  <path
     class="Accidental"
     d="m 881.33407,224.04699 c -0.58905,-3.85953 -2.976,-7.53301 -8.02906,-7.53301 -4.96,0 -7.84301,3.06896 -8.33901,3.67348 l 0.403,-31.85255 c 0,-0.79043 -0.589,-1.37948 -1.395,-1.37948 h -1.178 c -0.806,0 -1.395,0.58905 -1.395,1.37948 l 0.496,59.62858 c 0,0.79053 0.589,1.37958 1.395,1.37958 0.186,0 0.589,-0.0931 0.79051,-0.186 0.38749,-0.20158 6.8355,-3.37906 12.1985,-9.42406 3.76653,-4.27801 5.25454,-9.12952 5.25454,-13.20602 0,-0.8835 -0.093,-1.674 -0.20148,-2.48 m -6.83558,3.87501 c 0,1.488 -0.40295,6.045 -2.88295,9.82701 -1.68953,2.573 -5.05303,5.25448 -6.94403,6.74248 l 0.29449,-19.344 c 0.20151,-0.899 1.68951,-3.76655 5.65751,-3.76655 3.58055,0 3.87498,3.36355 3.87498,5.45605 0,0.49601 0,0.7905 0,1.08501"
     id="path1875"
     style="stroke-width:0.992001" />
  <path
     class="Accidental"
     d="m 957.25207,213.73946 c -0.186,-0.20148 -0.496,-0.29453 -0.79053,-0.29453 -0.0931,0 -0.29452,0.0931 -0.38747,0.0931 l -12.50856,3.47201 V 199.64997 H 940.791 v 49.10405 c 0,0.79052 0.589,1.28652 1.395,1.28652 0.093,0 0.29451,0 0.38751,0 l 12.50855,-3.472 v 17.36002 h 2.66601 c 0,-16.46107 0,-32.13156 0,-49.10405 0,-0.38758 -0.186,-0.88358 -0.496,-1.08505 m -13.68656,27.77605 v -16.27502 l 11.51655,-3.2705 v 16.36802 l -11.51655,3.1775"
     id="path1877"
     style="stroke-width:0.992001" />
  <polyline
     class="LedgerLine"
     fill="none"
     stroke="#000000"
     stroke-width="3.97"
     stroke-linejoin="bevel"
     points="1298.81,780.949 1347.41,780.949"
     id="polyline1879"
     transform="translate(-336.599,-573.859)" />
  <polyline
     class="LedgerLine"
     fill="none"
     stroke="#000000"
     stroke-width="3.97"
     stroke-linejoin="bevel"
     points="1298.81,805.749 1347.41,805.749"
     id="polyline1881"
     transform="translate(-336.599,-573.859)" />
  <polyline
     class="LedgerLine"
     fill="none"
     stroke="#000000"
     stroke-width="3.97"
     stroke-linejoin="bevel"
     points="1367.17,780.949 1415.76,780.949"
     id="polyline1883"
     transform="translate(-336.599,-573.859)" />
  <polyline
     class="LedgerLine"
     fill="none"
     stroke="#000000"
     stroke-width="3.97"
     stroke-linejoin="bevel"
     points="1039.26,780.949 1087.85,780.949"
     id="polyline1885"
     transform="translate(-336.599,-573.859)" />
  <polyline
     class="LedgerLine"
     fill="none"
     stroke="#000000"
     stroke-width="3.97"
     stroke-linejoin="bevel"
     points="1039.26,805.749 1087.85,805.749"
     id="polyline1887"
     transform="translate(-336.599,-573.859)" />
  <polyline
     class="LedgerLine"
     fill="none"
     stroke="#000000"
     stroke-width="3.97"
     stroke-linejoin="bevel"
     points="1469.69,780.949 1518.29,780.949"
     id="polyline1889"
     transform="translate(-336.599,-573.859)" />
  <polyline
     class="LedgerLine"
     fill="none"
     stroke="#000000"
     stroke-width="3.97"
     stroke-linejoin="bevel"
     points="1222.6,780.949 1271.19,780.949"
     id="polyline1891"
     transform="translate(-336.599,-573.859)" />
  <polyline
     class="LedgerLine"
     fill="none"
     stroke="#000000"
     stroke-width="3.97"
     stroke-linejoin="bevel"
     points="1222.6,805.749 1271.19,805.749"
     id="polyline1893"
     transform="translate(-336.599,-573.859)" />
  <polyline
     class="LedgerLine"
     fill="none"
     stroke="#000000"
     stroke-width="3.97"
     stroke-linejoin="bevel"
     points="2626.61,780.949 2675.2,780.949"
     id="polyline1895"
     transform="translate(-336.599,-573.859)" />
  <polyline
     class="LedgerLine"
     fill="none"
     stroke="#000000"
     stroke-width="3.97"
     stroke-linejoin="bevel"
     points="2626.61,805.749 2675.2,805.749"
     id="polyline1897"
     transform="translate(-336.599,-573.859)" />
  <polyline
     class="Stem"
     fill="none"
     stroke="#000000"
     stroke-width="2.48"
     stroke-linejoin="bevel"
     points="1078.43,801.781 1078.43,706.548"
     id="polyline1899"
     transform="translate(-336.599,-573.859)" />
  <polyline
     class="Stem"
     fill="none"
     stroke="#000000"
     stroke-width="2.48"
     stroke-linejoin="bevel"
     points="1010.08,764.58 1010.08,681.947"
     id="polyline1901"
     transform="translate(-336.599,-573.859)" />
  <polyline
     class="Stem"
     fill="none"
     stroke="#000000"
     stroke-width="2.48"
     stroke-linejoin="bevel"
     points="1406.33,789.381 1406.33,706.548"
     id="polyline1903"
     transform="translate(-336.599,-573.859)" />
  <polyline
     class="Stem"
     fill="none"
     stroke="#000000"
     stroke-width="2.48"
     stroke-linejoin="bevel"
     points="941.725,752.18 941.725,681.857"
     id="polyline1905"
     transform="translate(-336.599,-573.859)" />
  <polyline
     class="Stem"
     fill="none"
     stroke="#000000"
     stroke-width="2.48"
     stroke-linejoin="bevel"
     points="1925.93,727.38 1925.93,644.548"
     id="polyline1907"
     transform="translate(-336.599,-573.859)" />
  <polyline
     class="Stem"
     fill="none"
     stroke="#000000"
     stroke-width="2.48"
     stroke-linejoin="bevel"
     points="1581.81,764.58 1581.81,700.45"
     id="polyline1909"
     transform="translate(-336.599,-573.859)" />
  <polyline
     class="Stem"
     fill="none"
     stroke="#000000"
     stroke-width="2.48"
     stroke-linejoin="bevel"
     points="873.373,764.58 873.373,687.84"
     id="polyline1911"
     transform="translate(-336.599,-573.859)" />
  <polyline
     class="Stem"
     fill="none"
     stroke="#000000"
     stroke-width="2.48"
     stroke-linejoin="bevel"
     points="1337.98,801.781 1337.98,712.748"
     id="polyline1913"
     transform="translate(-336.599,-573.859)" />
  <polyline
     class="Stem"
     fill="none"
     stroke="#000000"
     stroke-width="2.48"
     stroke-linejoin="bevel"
     points="2075.37,727.38 2075.37,644.548"
     id="polyline1915"
     transform="translate(-336.599,-573.859)" />
  <polyline
     class="Stem"
     fill="none"
     stroke="#000000"
     stroke-width="2.48"
     stroke-linejoin="bevel"
     points="696.482,752.18 696.482,669.348"
     id="polyline1917"
     transform="translate(-336.599,-573.859)" />
  <polyline
     class="Stem"
     fill="none"
     stroke="#000000"
     stroke-width="2.48"
     stroke-linejoin="bevel"
     points="2177.9,714.98 2177.9,638.348"
     id="polyline1919"
     transform="translate(-336.599,-573.859)" />
  <polyline
     class="Stem"
     fill="none"
     stroke="#000000"
     stroke-width="2.48"
     stroke-linejoin="bevel"
     points="1508.86,789.381 1508.86,706.446"
     id="polyline1921"
     transform="translate(-336.599,-573.859)" />
  <polyline
     class="Stem"
     fill="none"
     stroke="#000000"
     stroke-width="2.48"
     stroke-linejoin="bevel"
     points="2280.43,752.18 2280.43,669.348"
     id="polyline1923"
     transform="translate(-336.599,-573.859)" />
  <polyline
     class="Stem"
     fill="none"
     stroke="#000000"
     stroke-width="2.48"
     stroke-linejoin="bevel"
     points="566.51,714.98 566.51,638.348"
     id="polyline1925"
     transform="translate(-336.599,-573.859)" />
  <polyline
     class="Stem"
     fill="none"
     stroke="#000000"
     stroke-width="2.48"
     stroke-linejoin="bevel"
     points="1789.22,764.58 1789.22,687.84"
     id="polyline1927"
     transform="translate(-336.599,-573.859)" />
  <polyline
     class="Stem"
     fill="none"
     stroke="#000000"
     stroke-width="2.48"
     stroke-linejoin="bevel"
     points="1686.69,764.58 1686.69,681.748"
     id="polyline1929"
     transform="translate(-336.599,-573.859)" />
  <polyline
     class="Stem"
     fill="none"
     stroke="#000000"
     stroke-width="2.48"
     stroke-linejoin="bevel"
     points="2563.25,764.58 2563.25,681.748"
     id="polyline1931"
     transform="translate(-336.599,-573.859)" />
  <polyline
     class="Stem"
     fill="none"
     stroke="#000000"
     stroke-width="2.48"
     stroke-linejoin="bevel"
     points="1857.57,752.18 1857.57,681.857"
     id="polyline1933"
     transform="translate(-336.599,-573.859)" />
  <polyline
     class="Stem"
     fill="none"
     stroke="#000000"
     stroke-width="2.48"
     stroke-linejoin="bevel"
     points="2665.78,801.781 2665.78,706.548"
     id="polyline1935"
     transform="translate(-336.599,-573.859)" />
  <polyline
     class="Stem"
     fill="none"
     stroke="#000000"
     stroke-width="2.48"
     stroke-linejoin="bevel"
     points="1261.77,801.781 1261.77,712.748"
     id="polyline1937"
     transform="translate(-336.599,-573.859)" />
  <polyline
     class="Stem"
     fill="none"
     stroke="#000000"
     stroke-width="2.48"
     stroke-linejoin="bevel"
     points="2460.72,752.18 2460.72,669.348"
     id="polyline1939"
     transform="translate(-336.599,-573.859)" />
  <path
     class="Hook"
     d="m 672.241,130.4105 c 0,0.29452 0.093,0.79052 0.7905,1.08505 4.26251,1.39495 12.80299,6.75801 19.251,17.76297 1.78252,3.06905 4.66557,7.34705 4.66557,15.57759 0,7.14548 -1.89105,14.47696 -4.464,21.62244 -0.20157,0.60453 -0.40305,1.10053 -0.31,1.48801 0,0.40305 0.10843,0.69757 0.496,0.89905 0.20148,0.093 0.40295,0.093 0.496,0.093 0.69748,0 1.19348,-0.38748 1.59643,-1.08495 4.66558,-8.24601 6.24653,-18.75507 6.15358,-25.0015 0,-0.49601 0,-0.79053 0,-1.19358 -0.496,-12.80296 -7.84306,-22.22697 -7.84306,-22.22697 0.29453,0 -9.12948,-12.19854 -11.81101,-16.36802 -3.658,-5.65753 -5.3475,-11.29954 -5.54901,-11.70254 -0.093,-0.29449 -0.992,-3.875 -0.992,-3.875 -0.093,-0.3875 -0.589,-0.79051 -1.19349,-0.79051 -0.69751,0 -1.28651,0.60451 -1.28651,1.28651 v 22.4285"
     id="path1941"
     style="stroke-width:0.992001" />
  <path
     class="Note"
     d="m 574.142,186.45851 c 0,4.2625 3.069,9.02103 11.11349,9.02103 10.30758,0 21.12654,-8.43203 21.12654,-17.15854 0,-5.85901 -4.96,-9.12949 -11.11348,-9.12949 -9.62549,0 -21.12655,8.13749 -21.12655,17.267"
     id="path1943"
     style="stroke-width:0.992001" />
  <path
     class="Note"
     d="m 642.494,198.85951 c 0,4.2625 3.069,9.02103 11.11349,9.02103 10.30758,0 21.12654,-8.43203 21.12654,-17.15854 0,-5.85901 -4.96,-9.12949 -11.11348,-9.12949 -9.62549,0 -21.12655,8.13749 -21.12655,17.267"
     id="path1945"
     style="stroke-width:0.992001" />
  <path
     class="Note"
     d="m 1707.791,161.65851 c 0,4.2625 3.069,9.02103 11.1135,9.02103 10.3076,0 21.1265,-8.43203 21.1265,-17.15854 0,-5.85901 -4.96,-9.12949 -11.1135,-9.12949 -9.6254,0 -21.1265,8.13749 -21.1265,17.267"
     id="path1947"
     style="stroke-width:0.992001" />
  <path
     class="Note"
     d="m 710.851,236.05951 c 0,4.2625 3.069,9.02103 11.11349,9.02103 10.30758,0 21.12654,-8.43203 21.12654,-17.15854 0,-5.85901 -4.96,-9.12949 -11.11348,-9.12949 -9.62549,0 -21.12655,8.13749 -21.12655,17.267"
     id="path1949"
     style="stroke-width:0.992001" />
  <path
     class="Note"
     d="m 894.181,236.05951 c 0,4.2625 3.069,9.02103 11.11349,9.02103 10.30758,0 21.12654,-8.43203 21.12654,-17.15854 0,-5.85901 -4.96,-9.12949 -11.11348,-9.12949 -9.62549,0 -21.12655,8.13749 -21.12655,17.267"
     id="path1951"
     style="stroke-width:0.992001" />
  <path
     class="Note"
     d="m 1810.321,149.25851 c 0,4.2625 3.069,9.02103 11.1135,9.02103 10.3076,0 21.1265,-8.43203 21.1265,-17.15854 0,-5.85901 -4.96,-9.12949 -11.1135,-9.12949 -9.6254,0 -21.1265,8.13749 -21.1265,17.267"
     id="path1953"
     style="stroke-width:0.992001" />
  <path
     class="Note"
     d="m 970.401,236.05951 c 0,4.2625 3.069,9.02103 11.11349,9.02103 10.30758,0 21.12651,-8.43203 21.12651,-17.15854 0,-5.85901 -4.95997,-9.12949 -11.11345,-9.12949 -9.62549,0 -21.12655,8.13749 -21.12655,17.267"
     id="path1955"
     style="stroke-width:0.992001" />
  <path
     class="Note"
     d="m 1038.751,223.65951 c 0,4.2625 3.069,9.02103 11.1135,9.02103 10.3076,0 21.1265,-8.43203 21.1265,-17.15854 0,-5.85901 -4.96,-9.12949 -11.1135,-9.12949 -9.6254,0 -21.1265,8.13749 -21.1265,17.267"
     id="path1957"
     style="stroke-width:0.992001" />
  <path
     class="Note"
     d="m 1912.851,186.45851 c 0,4.2625 3.069,9.02103 11.1135,9.02103 10.3076,0 21.1265,-8.43203 21.1265,-17.15854 0,-5.85901 -4.96,-9.12949 -11.1135,-9.12949 -9.6254,0 -21.1265,8.13749 -21.1265,17.267"
     id="path1959"
     style="stroke-width:0.992001" />
  <path
     class="Note"
     d="m 1141.281,223.65951 c 0,4.2625 3.069,9.02103 11.1135,9.02103 10.3076,0 21.1265,-8.43203 21.1265,-17.15854 0,-5.85901 -4.96,-9.12949 -11.1135,-9.12949 -9.6254,0 -21.1265,8.13749 -21.1265,17.267"
     id="path1961"
     style="stroke-width:0.992001" />
  <path
     class="Note"
     d="m 1214.221,198.85951 c 0,4.2625 3.069,9.02103 11.1135,9.02103 10.3076,0 21.1265,-8.43203 21.1265,-17.15854 0,-5.85901 -4.96,-9.12949 -11.1135,-9.12949 -9.6254,0 -21.1265,8.13749 -21.1265,17.267"
     id="path1963"
     style="stroke-width:0.992001" />
  <path
     class="Note"
     d="m 1319.111,198.85951 c 0,4.2625 3.069,9.02103 11.1135,9.02103 10.3076,0 21.1265,-8.43203 21.1265,-17.15854 0,-5.85901 -4.96,-9.12949 -11.1135,-9.12949 -9.6254,0 -21.1265,8.13749 -21.1265,17.267"
     id="path1965"
     style="stroke-width:0.992001" />
  <path
     class="Note"
     d="m 2093.141,186.45851 c 0,4.2625 3.069,9.02103 11.1135,9.02103 10.3076,0 21.1265,-8.43203 21.1265,-17.15854 0,-5.85901 -4.96,-9.12949 -11.1135,-9.12949 -9.6254,0 -21.1265,8.13749 -21.1265,17.267"
     id="path1967"
     style="stroke-width:0.992001" />
  <path
     class="Note"
     d="m 1421.641,198.85951 c 0,4.2625 3.069,9.02103 11.1135,9.02103 10.3076,0 21.1265,-8.43203 21.1265,-17.15854 0,-5.85901 -4.96,-9.12949 -11.1135,-9.12949 -9.6254,0 -21.1265,8.13749 -21.1265,17.267"
     id="path1969"
     style="stroke-width:0.992001" />
  <path
     class="Note"
     d="m 2195.671,198.85951 c 0,4.2625 3.069,9.02103 11.1135,9.02103 10.3076,0 21.1265,-8.43203 21.1265,-17.15854 0,-5.85901 -4.96,-9.12949 -11.1135,-9.12949 -9.6254,0 -21.1265,8.13749 -21.1265,17.267"
     id="path1971"
     style="stroke-width:0.992001" />
  <path
     class="Note"
     d="m 1489.991,186.45851 c 0,4.2625 3.069,9.02103 11.1135,9.02103 10.3076,0 21.1265,-8.43203 21.1265,-17.15854 0,-5.85901 -4.96,-9.12949 -11.1135,-9.12949 -9.6254,0 -21.1265,8.13749 -21.1265,17.267"
     id="path1973"
     style="stroke-width:0.992001" />
  <path
     class="Note"
     d="m 198.927,149.25851 c 0,4.2625 3.069,9.02103 11.11349,9.02103 10.30758,0 21.12654,-8.43203 21.12654,-17.15854 0,-5.85901 -4.96,-9.12949 -11.11348,-9.12949 -9.62549,0 -21.12655,8.13749 -21.12655,17.267"
     id="path1975"
     style="stroke-width:0.992001" />
  <path
     class="Note"
     d="m 1558.341,161.65851 c 0,4.2625 3.069,9.02103 11.1135,9.02103 10.3076,0 21.1265,-8.43203 21.1265,-17.15854 0,-5.85901 -4.96,-9.12949 -11.1135,-9.12949 -9.6254,0 -21.1265,8.13749 -21.1265,17.267"
     id="path1977"
     style="stroke-width:0.992001" />
  <path
     class="Note"
     d="m 328.899,186.45851 c 0,4.2625 3.069,9.02103 11.11349,9.02103 10.30758,0 21.12654,-8.43203 21.12654,-17.15854 0,-5.85901 -4.96,-9.12949 -11.11348,-9.12949 -9.62549,0 -21.12655,8.13749 -21.12655,17.267"
     id="path1979"
     style="stroke-width:0.992001" />
  <path
     class="Note"
     d="m 2298.191,236.05951 c 0,4.2625 3.069,9.02103 11.1135,9.02103 10.3076,0 21.1265,-8.43203 21.1265,-17.15854 0,-5.85901 -4.96,-9.12949 -11.1135,-9.12949 -9.6254,0 -21.1265,8.13749 -21.1265,17.267"
     id="path1981"
     style="stroke-width:0.992001" />
  <path
     class="Note"
     d="m 505.79,198.85951 c 0,4.2625 3.069,9.02103 11.11349,9.02103 10.30758,0 21.12654,-8.43203 21.12654,-17.15854 0,-5.85901 -4.96,-9.12949 -11.11348,-9.12949 -9.62549,0 -21.12655,8.13749 -21.12655,17.267"
     id="path1983"
     style="stroke-width:0.992001" />
  <path
     class="Clef"
     d="m 60.558567,228.61855 c 0,-3.67348 -3.363478,-5.25443 -6.634007,-5.25443 -4.169479,0 -8.246008,2.57295 -8.246008,7.03695 0,1.89106 0.697476,3.28601 2.092527,4.66548 -2.588527,0.992 -5.16158,2.97601 -5.16158,6.06053 0,3.27053 2.976003,5.45601 7.347057,5.45601 5.347481,0 9.11401,-2.976 9.11401,-7.25401 0,-2.27852 -0.992001,-4.154 -2.774528,-5.456 2.883053,-1.28653 4.262529,-2.86748 4.262529,-5.25453 m -9.92001,15.87201 c -2.170002,0 -3.658004,-1.37947 -3.658004,-3.472 0,-1.984 0.883477,-3.56495 2.572953,-4.55696 0.40305,0.20148 0.496001,0.20148 0.790526,0.38748 1.193476,0.60453 1.193476,0.60453 1.395051,0.806 1.875477,1.08505 2.681478,2.07705 2.681478,3.472 0,1.87548 -1.596526,3.36348 -3.782004,3.36348 m 3.782004,-11.90401 c -1.488002,-0.79043 -1.891052,-0.992 -2.185477,-1.19348 l -0.201575,-0.093 c -1.488002,-0.89905 -1.984002,-1.59652 -1.984002,-2.77452 0,-1.79801 1.395051,-3.08453 3.379053,-3.08453 1.875477,0 3.068953,1.19347 3.068953,3.27053 0,1.59652 -0.588951,2.68147 -2.076952,3.87495 m 27.667503,-75.299 c 0,-14.97304 -10.617486,-25.09453 -25.09455,-25.09453 -0.992001,-5.952 -1.890952,-11.81106 -2.774428,-17.36001 10.41601,-11.02054 17.747493,-23.513502 17.747493,-39.184042 0,-9.036534 -2.774528,-16.368017 -4.464005,-19.948149 -2.371477,-5.053253 -5.25453,-8.525256 -6.944007,-8.525256 -0.682001,0 -3.859479,1.193377 -7.037057,5.053253 -6.448006,7.548136 -8.230433,20.134148 -8.230433,28.473107 0,5.363055 0.496,10.214535 2.185477,21.436547 -0.108525,0 -5.270005,5.25453 -7.347057,7.03706 C 31.093062,117.51443 18.6,129.60445 18.6,149.35149 c 0,18.64657 16.166541,33.23206 34.627085,33.23206 2.867478,0 5.548956,-0.29452 7.936008,-0.69748 1.782427,9.43949 2.976003,16.47645 2.976003,21.73098 0,10.32306 -5.363055,15.77906 -15.376016,15.77906 -2.387052,0 -4.464004,-0.496 -4.665579,-0.60452 -0.09295,0 -0.294426,-0.0931 -0.294426,-0.186 0,-0.20148 0.201475,-0.31 0.496001,-0.40305 4.665479,-0.69748 9.315484,-4.75843 9.315484,-11.00497 0,-5.36305 -4.061054,-11.02053 -11.501061,-11.02053 -6.944007,0 -11.314962,5.65748 -11.314962,12.19854 0,6.55653 4.960005,15.19001 18.352019,15.19001 12.802963,0 19.049494,-7.25401 19.049494,-19.94854 0,-3.85948 -0.588951,-8.32349 -1.580952,-13.98097 -0.294525,-1.984 -0.790526,-5.06853 -1.488001,-8.83506 9.718435,-3.27052 16.956967,-13.29896 16.956967,-23.51352 M 51.537508,75.943443 c 0.992001,-3.968004 5.456006,-14.384015 10.617586,-14.384015 1.488001,0 3.968004,4.758431 3.968004,11.702438 0,10.214535 -7.734533,17.964542 -14.58559,24.800025 -0.588951,-3.968004 -1.084951,-7.936008 -1.084951,-11.996963 0,-3.766529 0.387476,-7.052532 1.084951,-10.121485 M 54.513511,178.5225 c -14.182439,0 -26.287996,-9.92001 -26.287996,-24.9085 0,-12.09007 8.525028,-22.90903 17.267037,-30.55051 1.674002,-1.39505 3.270528,-2.77453 4.75853,-4.26253 0.883476,5.34748 1.580952,9.92001 2.278427,14.08949 -9.036434,2.57305 -15.17444,12.19854 -15.17444,21.42104 0,7.05251 5.456005,16.56952 13.392013,16.56952 0.790426,0 1.689477,-0.40295 1.689477,-1.39495 0,-0.79052 -0.899051,-1.37957 -2.185477,-2.17005 -3.875054,-2.294 -6.060531,-4.96001 -6.060531,-9.73401 0,-6.04501 4.572529,-10.91206 10.32296,-12.29154 l 5.750531,32.53456 c -1.984002,0.40305 -3.766529,0.69748 -5.750531,0.69748 m 9.92001,-1.89096 c -2.076952,-11.79553 -4.75843,-27.57455 -5.456005,-31.9456 10.01306,0 14.291064,6.94405 15.17454,11.71806 0.108525,0.7905 0.294525,1.8755 0.294525,3.069 0,7.14551 -2.976003,14.29107 -10.01306,17.15854"
     id="path1985"
     style="stroke-width:0.992001" />
  <path
     class="TimeSig"
     d="m 136.3845,106.804 c 7.93601,-3.08451 8.43201,-8.24601 8.43201,-10.028487 0,-0.201574 0,-0.387575 0,-0.496 0,-0.883576 -0.29442,-12.105587 -17.36002,-12.105587 -17.06549,0 -16.56949,12.105587 -16.56949,12.105587 h 0.093 l -0.093,0.201475 c 0,3.565002 2.883,6.355002 6.44801,6.355002 3.56505,0 6.35505,-2.79 6.35505,-6.355002 0,-2.883052 -2.18557,-5.657481 -4.96005,-6.246531 0.093,-0.108525 0.186,-0.201475 0.2945,-0.294525 1.37955,-0.992001 3.2705,-1.488002 5.16155,-1.488002 4.15401,0 8.61801,2.480003 8.61801,7.827583 0,6.246477 -4.65,7.145487 -5.84358,7.346977 -1.19347,0.20151 -6.74243,0.589 -7.93598,0.589 -1.1935,0 -1.2865,1.395 -1.2865,1.395 v 1.98401 c 0,0 0.186,1.085 1.2865,1.1935 1.68955,0.093 3.96798,0.093 7.14556,0.589 4.35548,0.589 6.634,3.565 6.634,10.50906 0,6.64948 -4.464,8.43201 -8.61801,8.43201 -2.79,0 -5.36305,-0.79053 -6.44805,-1.58105 3.27048,-0.20148 5.95205,-3.06895 5.95205,-6.35496 0,-3.56505 -2.79,-6.44805 -6.35505,-6.44805 -3.56501,0 -6.44801,2.883 -6.44801,6.44805 0,0 0,0.20148 0,0.40295 0,1.28653 0.29451,4.86706 3.87501,8.13749 3.8595,3.56505 8.72648,3.67357 10.91206,3.67357 9.51696,0 19.84002,-3.286 19.84002,-14.08958 0,-7.23849 -4.96001,-10.32299 -9.33106,-11.70249 h 0.20147"
     id="path1987"
     style="stroke-width:0.992001" />
  <path
     class="TimeSig"
     d="m 126.12355,170.09049 v 7.33158 h -8.23054 c -0.69747,0 -1.39495,0.60443 -1.39495,1.39495 v 1.89105 c 0,0.79043 0.69748,1.37948 1.39495,1.37948 h 30.05456 c 0.806,0 1.39495,-0.58905 1.39495,-1.37948 v -1.89105 c 0,-0.79052 -0.58895,-1.39495 -1.39495,-1.39495 h -8.92801 v -7.33158 h 8.92801 c 0.806,0 1.39495,-0.69748 1.39495,-1.488 v -1.89098 c 0,-0.6975 -0.58895,-1.3795 -1.39495,-1.3795 h -8.92801 v -15.77902 c 0,-0.589 -0.29453,-1.085 -0.682,-1.2865 l -1.19348,-0.6045 c -0.20157,-0.093 -0.29452,-0.093 -0.496,-0.093 -0.10852,0 -0.10852,0 -0.20157,0 -0.29443,0 -0.69748,0.093 -0.89895,0.2945 l -9.02106,8.23051 c -0.29443,0.31 -0.40295,0.6975 -0.40295,1.1005 v 8.13751 h -11.50104 c 0,0 11.11356,-11.90401 22.816,-27.59008 0.40305,-0.496 0.496,-0.992 0.496,-1.37948 0,-0.496 -0.20148,-0.89895 -0.29443,-0.992 l -2.18557,-2.18547 c -0.29443,-0.20148 -0.58896,-0.40305 -0.99201,-0.40305 -0.58895,0 -13.99644,0 -14.78696,0 -0.69748,0 -1.19348,0.60452 -1.28653,1.19357 0,0 -0.496,7.34696 -3.069,15.37599 -2.5885,8.04451 -5.5645,13.00451 -8.1375,16.66252 0,0 -0.29451,0.496 -0.29451,1.1005 0,0.2015 0,0.38755 0.093,0.58903 0.29451,0.69747 0.992,1.78252 0.992,1.78252 0,0 0.20151,0.60443 1.085,0.60443 h 17.06555"
     id="path1989"
     style="stroke-width:0.992001" />
  <path
     class="Beam"
     fill-rule="evenodd"
     d="m 923.931,132.689 h 78.69 v 12.4 h -78.69 v -12.4"
     id="path1991" />
  <path
     class="Beam"
     fill-rule="evenodd"
     d="m 1171.021,126.469 75.43,-6.201 v 12.442 l -75.43,6.2 v -12.441"
     id="path1993" />
  <path
     class="Beam"
     fill-rule="evenodd"
     d="m 1451.381,107.866 70.83,-6.2 v 12.447 l -70.83,6.2 v -12.447"
     id="path1995" />
  <path
     class="Beam"
     fill-rule="evenodd"
     d="m 535.534,107.866 70.832,-6.2 v 12.447 l -70.832,6.2 v -12.447"
     id="path1997" />
  <path
     class="VoltaSegment"
     d="m 1695.261,16.988 h -1.93 c -3.46,2.594 -7.37,3.687 -13.92,3.797 v 3.078 h 2.32 c 4.89,0 4.95,0.109 4.89,4.625 v 19.515 c 0,3.407 0,3.579 -0.38,4.125 -0.5,0.61 -1.61,0.829 -4.58,0.829 h -1.75 v 2.968 h 21.94 v -2.968 h -1.77 c -2.9,0 -3.95,-0.219 -4.45,-0.829 -0.37,-0.546 -0.37,-0.765 -0.37,-4.125 V 16.988 m 19.23,29.422 c -2.86,0 -5.17,2.312 -5.17,5.172 0,2.796 2.31,5.171 5.12,5.171 2.91,0 5.22,-2.312 5.22,-5.171 0,-2.86 -2.31,-5.172 -5.17,-5.172"
     id="path1999" />
  <polyline
     class="VoltaSegment"
     fill="none"
     stroke="#000000"
     stroke-width="2.73"
     stroke-linejoin="miter"
     stroke-miterlimit="2"
     points="2000.57,629.784 2000.57,575.224 2372.82,575.224 2372.82,629.784"
     id="polyline2001"
     transform="translate(-336.599,-573.859)" />
  <path
     class="VoltaSegment"
     d="m 2100.891,41.3 -0.61,2.75 c -0.5,2.203 -0.83,2.907 -1.27,3.188 -0.54,0.39 -0.65,0.39 -4.12,0.437 h -10.61 c 1.92,-1.656 3.36,-2.687 5.5,-4.125 7.75,-5 9.34,-6.218 10.94,-8.25 1.87,-2.468 2.96,-5.39 2.96,-7.968 0,-5.891 -5.76,-10.344 -13.51,-10.344 -7.49,0 -13.27,4.844 -13.27,11.109 0,3.844 2.16,6.328 5.46,6.328 2.86,0 4.67,-1.812 4.67,-4.672 0,-2.375 -1.05,-3.75 -3.58,-4.953 -0.61,-0.281 -0.87,-0.609 -0.87,-1.047 0,-1.765 2.96,-3.625 5.71,-3.625 3.85,0 6.05,2.36 6.05,6.438 0,4.562 -1.76,7.797 -7.59,14.016 -6.16,6.546 -8.3,9.015 -11.05,12.984 v 2.578 c 1.42,-0.156 2.03,-0.219 2.86,-0.219 h 20.67 c 1.05,0 1.7,0.063 3.36,0.219 l 1.27,-14.844 h -2.97 m 13.4,5.11 c -2.86,0 -5.17,2.312 -5.17,5.172 0,2.796 2.31,5.171 5.13,5.171 2.9,0 5.22,-2.312 5.22,-5.171 0,-2.86 -2.32,-5.172 -5.18,-5.172"
     id="path2003" />
  <polyline
     class="VoltaSegment"
     fill="none"
     stroke="#000000"
     stroke-width="2.73"
     stroke-linejoin="miter"
     stroke-miterlimit="2"
     points="2397.37,629.784 2397.37,575.224 2763.24,575.224"
     id="polyline2005"
     transform="translate(-336.599,-573.859)" />
  <path
     class="NoteDot"
     d="m 755.471,219.49 c 0,2.77451 2.18551,4.96001 4.96001,4.96001 2.7745,0 4.96,-2.1855 4.96,-4.96001 0,-2.77451 -2.1855,-4.96 -4.96,-4.96 -2.7745,0 -4.96001,2.18549 -4.96001,4.96"
     id="path2007"
     style="stroke-width:0.992001" />
  <path
     class="NoteDot"
     d="m 373.524,169.889 c 0,2.77451 2.18551,4.96001 4.96001,4.96001 2.7745,0 4.96,-2.1855 4.96,-4.96001 0,-2.77451 -2.1855,-4.96 -4.96,-4.96 -2.7745,0 -4.96001,2.18549 -4.96001,4.96"
     id="path2009"
     style="stroke-width:0.992001" />
  <path
     class="NoteDot"
     d="m 243.551,145.089 c 0,2.77451 2.18551,4.96001 4.96,4.96001 2.77451,0 4.96001,-2.1855 4.96001,-4.96001 0,-2.77451 -2.1855,-4.96 -4.96001,-4.96 -2.77449,0 -4.96,2.18549 -4.96,4.96"
     id="path2011"
     style="stroke-width:0.992001" />
</svg>
