<?xml version="1.0" encoding="UTF-8" standalone="no"?>
<svg
   xmlns:dc="http://purl.org/dc/elements/1.1/"
   xmlns:cc="http://creativecommons.org/ns#"
   xmlns:rdf="http://www.w3.org/1999/02/22-rdf-syntax-ns#"
   xmlns:svg="http://www.w3.org/2000/svg"
   xmlns="http://www.w3.org/2000/svg"
   xmlns:sodipodi="http://sodipodi.sourceforge.net/DTD/sodipodi-0.dtd"
   xmlns:inkscape="http://www.inkscape.org/namespaces/inkscape"
   width="275.98511mm"
   height="20.61764mm"
   viewBox="0 0 3911.6 292.21852"
   version="1.2"
   id="svg1591"
   sodipodi:docname="Dossium Canto Maria Musica.svg"
   inkscape:version="1.0.2-2 (e86c870879, 2021-01-15)">
  <metadata
     id="metadata1597">
    <rdf:RDF>
      <cc:Work
         rdf:about="">
        <dc:format>image/svg+xml</dc:format>
        <dc:type
           rdf:resource="http://purl.org/dc/dcmitype/StillImage" />
      </cc:Work>
    </rdf:RDF>
  </metadata>
  <defs
     id="defs1595" />
  <sodipodi:namedview
     pagecolor="#ffffff"
     bordercolor="#666666"
     borderopacity="1"
     objecttolerance="10"
     gridtolerance="10"
     guidetolerance="10"
     inkscape:pageopacity="0"
     inkscape:pageshadow="2"
     inkscape:window-width="1920"
     inkscape:window-height="991"
     id="namedview1593"
     showgrid="false"
     inkscape:zoom="1.0328497"
     inkscape:cx="505.01332"
     inkscape:cy="249.888"
     inkscape:window-x="-9"
     inkscape:window-y="-9"
     inkscape:window-maximized="1"
     inkscape:current-layer="svg1591" />
  <title
     id="title1221">Dossium Canto Maria Musica</title>
  <desc
     id="desc1223">Generated by MuseScore Studio 4.5.1</desc>
  <polyline
     class="StaffLines"
     fill="none"
     stroke="#000000"
     stroke-width="2.73"
     stroke-linejoin="bevel"
     points="210.4,656.948 4122,656.948"
     id="polyline1225"
     transform="translate(-210.4,-551.52)" />
  <polyline
     class="StaffLines"
     fill="none"
     stroke="#000000"
     stroke-width="2.73"
     stroke-linejoin="bevel"
     points="210.4,681.748 4122,681.748"
     id="polyline1227"
     transform="translate(-210.4,-551.52)" />
  <polyline
     class="StaffLines"
     fill="none"
     stroke="#000000"
     stroke-width="2.73"
     stroke-linejoin="bevel"
     points="210.4,706.548 4122,706.548"
     id="polyline1229"
     transform="translate(-210.4,-551.52)" />
  <polyline
     class="StaffLines"
     fill="none"
     stroke="#000000"
     stroke-width="2.73"
     stroke-linejoin="bevel"
     points="210.4,731.348 4122,731.348"
     id="polyline1231"
     transform="translate(-210.4,-551.52)" />
  <polyline
     class="StaffLines"
     fill="none"
     stroke="#000000"
     stroke-width="2.73"
     stroke-linejoin="bevel"
     points="210.4,756.148 4122,756.148"
     id="polyline1233"
     transform="translate(-210.4,-551.52)" />
  <polyline
     class="BarLine"
     fill="none"
     stroke="#000000"
     stroke-width="4.46"
     stroke-linejoin="bevel"
     points="3176.29,655.584 3176.29,757.512"
     id="polyline1245"
     transform="translate(-210.4,-551.52)" />
  <polyline
     class="BarLine"
     fill="none"
     stroke="#000000"
     stroke-width="4.46"
     stroke-linejoin="bevel"
     points="1988.6,655.584 1988.6,757.512"
     id="polyline1247"
     transform="translate(-210.4,-551.52)" />
  <path
     class="BarLine"
     d="m 2168.093,142.628 c 0,-2.883 -2.294,-5.2545 -5.1615,-5.2545 -2.883,0 -5.1615,2.3715 -5.1615,5.2545 0,2.883 2.2785,5.2545 5.1615,5.2545 2.8675,0 5.1615,-2.3715 5.1615,-5.2545"
     id="path1249"
     style="stroke-width:0.992" />
  <path
     class="BarLine"
     d="m 2168.093,167.428 c 0,-2.883 -2.294,-5.2545 -5.1615,-5.2545 -2.883,0 -5.1615,2.3715 -5.1615,5.2545 0,2.883 2.2785,5.2545 5.1615,5.2545 2.8675,0 5.1615,-2.3715 5.1615,-5.2545"
     id="path1251"
     style="stroke-width:0.992" />
  <polyline
     class="BarLine"
     fill="none"
     stroke="#000000"
     stroke-width="4.46"
     stroke-linejoin="bevel"
     points="2389.88,655.584 2389.88,757.512"
     id="polyline1253"
     transform="translate(-210.4,-551.52)" />
  <polyline
     class="BarLine"
     fill="none"
     stroke="#000000"
     stroke-width="13.64"
     stroke-linejoin="bevel"
     points="2408.11,655.584 2408.11,757.512"
     id="polyline1255"
     transform="translate(-210.4,-551.52)" />
  <path
     class="BarLine"
     d="m 749.33805,142.628 c 0,-2.883 -2.29405,-5.2545 -5.16155,-5.2545 -2.883,0 -5.1615,2.3715 -5.1615,5.2545 0,2.883 2.2785,5.2545 5.1615,5.2545 2.8675,0 5.16155,-2.3715 5.16155,-5.2545"
     id="path1257"
     style="stroke-width:0.992" />
  <path
     class="BarLine"
     d="m 749.33805,167.428 c 0,-2.883 -2.29405,-5.2545 -5.16155,-5.2545 -2.883,0 -5.1615,2.3715 -5.1615,5.2545 0,2.883 2.2785,5.2545 5.1615,5.2545 2.8675,0 5.16155,-2.3715 5.16155,-5.2545"
     id="path1259"
     style="stroke-width:0.992" />
  <polyline
     class="BarLine"
     fill="none"
     stroke="#000000"
     stroke-width="4.46"
     stroke-linejoin="bevel"
     points="971.13,655.584 971.13,757.512"
     id="polyline1261"
     transform="translate(-210.4,-551.52)" />
  <polyline
     class="BarLine"
     fill="none"
     stroke="#000000"
     stroke-width="13.64"
     stroke-linejoin="bevel"
     points="989.358,655.584 989.358,757.512"
     id="polyline1263"
     transform="translate(-210.4,-551.52)" />
  <path
     class="BarLine"
     d="m 3530.463,142.628 c 0,-2.883 -2.294,-5.2545 -5.1615,-5.2545 -2.883,0 -5.1615,2.3715 -5.1615,5.2545 0,2.883 2.2785,5.2545 5.1615,5.2545 2.8675,0 5.1615,-2.3715 5.1615,-5.2545"
     id="path1265"
     style="stroke-width:0.992" />
  <path
     class="BarLine"
     d="m 3530.463,167.428 c 0,-2.883 -2.294,-5.2545 -5.1615,-5.2545 -2.883,0 -5.1615,2.3715 -5.1615,5.2545 0,2.883 2.2785,5.2545 5.1615,5.2545 2.8675,0 5.1615,-2.3715 5.1615,-5.2545"
     id="path1267"
     style="stroke-width:0.992" />
  <polyline
     class="BarLine"
     fill="none"
     stroke="#000000"
     stroke-width="4.46"
     stroke-linejoin="bevel"
     points="3752.26,655.584 3752.26,757.512"
     id="polyline1269"
     transform="translate(-210.4,-551.52)" />
  <polyline
     class="BarLine"
     fill="none"
     stroke="#000000"
     stroke-width="13.64"
     stroke-linejoin="bevel"
     points="3770.48,655.584 3770.48,757.512"
     id="polyline1271"
     transform="translate(-210.4,-551.52)" />
  <polyline
     class="BarLine"
     fill="none"
     stroke="#000000"
     stroke-width="13.64"
     stroke-linejoin="bevel"
     points="1592.38,655.584 1592.38,757.512"
     id="polyline1273"
     transform="translate(-210.4,-551.52)" />
  <polyline
     class="BarLine"
     fill="none"
     stroke="#000000"
     stroke-width="4.46"
     stroke-linejoin="bevel"
     points="1610.6,655.584 1610.6,757.512"
     id="polyline1275"
     transform="translate(-210.4,-551.52)" />
  <path
     class="BarLine"
     d="m 1421.933,142.628 c 0,-2.883 -2.294,-5.2545 -5.1615,-5.2545 -2.883,0 -5.1615,2.3715 -5.1615,5.2545 0,2.883 2.2785,5.2545 5.1615,5.2545 2.8675,0 5.1615,-2.3715 5.1615,-5.2545"
     id="path1277"
     style="stroke-width:0.992" />
  <path
     class="BarLine"
     d="m 1421.933,167.428 c 0,-2.883 -2.294,-5.2545 -5.1615,-5.2545 -2.883,0 -5.1615,2.3715 -5.1615,5.2545 0,2.883 2.2785,5.2545 5.1615,5.2545 2.8675,0 5.1615,-2.3715 5.1615,-5.2545"
     id="path1279"
     style="stroke-width:0.992" />
  <polyline
     class="BarLine"
     fill="none"
     stroke="#000000"
     stroke-width="13.64"
     stroke-linejoin="bevel"
     points="2968.83,655.584 2968.83,757.512"
     id="polyline1281"
     transform="translate(-210.4,-551.52)" />
  <polyline
     class="BarLine"
     fill="none"
     stroke="#000000"
     stroke-width="4.46"
     stroke-linejoin="bevel"
     points="2987.05,655.584 2987.05,757.512"
     id="polyline1283"
     transform="translate(-210.4,-551.52)" />
  <path
     class="BarLine"
     d="m 2798.383,142.628 c 0,-2.883 -2.294,-5.2545 -5.1615,-5.2545 -2.883,0 -5.1615,2.3715 -5.1615,5.2545 0,2.883 2.2785,5.2545 5.1615,5.2545 2.8675,0 5.1615,-2.3715 5.1615,-5.2545"
     id="path1285"
     style="stroke-width:0.992" />
  <path
     class="BarLine"
     d="m 2798.383,167.428 c 0,-2.883 -2.294,-5.2545 -5.1615,-5.2545 -2.883,0 -5.1615,2.3715 -5.1615,5.2545 0,2.883 2.2785,5.2545 5.1615,5.2545 2.8675,0 5.1615,-2.3715 5.1615,-5.2545"
     id="path1287"
     style="stroke-width:0.992" />
  <path
     class="BarLine"
     d="m 3378.333,142.628 c 0,-2.883 -2.294,-5.2545 -5.1615,-5.2545 -2.883,0 -5.1615,2.3715 -5.1615,5.2545 0,2.883 2.2785,5.2545 5.1615,5.2545 2.8675,0 5.1615,-2.3715 5.1615,-5.2545"
     id="path1289"
     style="stroke-width:0.992" />
  <path
     class="BarLine"
     d="m 3378.333,167.428 c 0,-2.883 -2.294,-5.2545 -5.1615,-5.2545 -2.883,0 -5.1615,2.3715 -5.1615,5.2545 0,2.883 2.2785,5.2545 5.1615,5.2545 2.8675,0 5.1615,-2.3715 5.1615,-5.2545"
     id="path1291"
     style="stroke-width:0.992" />
  <polyline
     class="BarLine"
     fill="none"
     stroke="#000000"
     stroke-width="4.46"
     stroke-linejoin="bevel"
     points="3600.12,655.584 3600.12,757.512"
     id="polyline1293"
     transform="translate(-210.4,-551.52)" />
  <polyline
     class="BarLine"
     fill="none"
     stroke="#000000"
     stroke-width="13.64"
     stroke-linejoin="bevel"
     points="3618.35,655.584 3618.35,757.512"
     id="polyline1295"
     transform="translate(-210.4,-551.52)" />
  <path
     class="BarLine"
     d="m 961.38305,142.628 c 0,-2.883 -2.29405,-5.2545 -5.16155,-5.2545 -2.883,0 -5.1615,2.3715 -5.1615,5.2545 0,2.883 2.2785,5.2545 5.1615,5.2545 2.8675,0 5.16155,-2.3715 5.16155,-5.2545"
     id="path1297"
     style="stroke-width:0.992" />
  <path
     class="BarLine"
     d="m 961.38305,167.428 c 0,-2.883 -2.29405,-5.2545 -5.16155,-5.2545 -2.883,0 -5.1615,2.3715 -5.1615,5.2545 0,2.883 2.2785,5.2545 5.1615,5.2545 2.8675,0 5.16155,-2.3715 5.16155,-5.2545"
     id="path1299"
     style="stroke-width:0.992" />
  <polyline
     class="BarLine"
     fill="none"
     stroke="#000000"
     stroke-width="4.46"
     stroke-linejoin="bevel"
     points="1183.18,655.584 1183.18,757.512"
     id="polyline1301"
     transform="translate(-210.4,-551.52)" />
  <polyline
     class="BarLine"
     fill="none"
     stroke="#000000"
     stroke-width="13.64"
     stroke-linejoin="bevel"
     points="1201.41,655.584 1201.41,757.512"
     id="polyline1303"
     transform="translate(-210.4,-551.52)" />
  <polyline
     class="BarLine"
     fill="none"
     stroke="#000000"
     stroke-width="4.46"
     stroke-linejoin="bevel"
     points="2794.49,655.584 2794.49,757.512"
     id="polyline1305"
     transform="translate(-210.4,-551.52)" />
  <polyline
     class="BarLine"
     fill="none"
     stroke="#000000"
     stroke-width="4.46"
     stroke-linejoin="bevel"
     points="1799.83,655.584 1799.83,757.512"
     id="polyline1307"
     transform="translate(-210.4,-551.52)" />
  <polyline
     class="BarLine"
     fill="none"
     stroke="#000000"
     stroke-width="4.46"
     stroke-linejoin="bevel"
     points="612.152,655.584 612.152,757.512"
     id="polyline1309"
     transform="translate(-210.4,-551.52)" />
  <path
     class="BarLine"
     d="m 1956.043,142.628 c 0,-2.883 -2.294,-5.2545 -5.1615,-5.2545 -2.883,0 -5.1615,2.3715 -5.1615,5.2545 0,2.883 2.2785,5.2545 5.1615,5.2545 2.8675,0 5.1615,-2.3715 5.1615,-5.2545"
     id="path1311"
     style="stroke-width:0.992" />
  <path
     class="BarLine"
     d="m 1956.043,167.428 c 0,-2.883 -2.294,-5.2545 -5.1615,-5.2545 -2.883,0 -5.1615,2.3715 -5.1615,5.2545 0,2.883 2.2785,5.2545 5.1615,5.2545 2.8675,0 5.1615,-2.3715 5.1615,-5.2545"
     id="path1313"
     style="stroke-width:0.992" />
  <polyline
     class="BarLine"
     fill="none"
     stroke="#000000"
     stroke-width="4.46"
     stroke-linejoin="bevel"
     points="2177.83,655.584 2177.83,757.512"
     id="polyline1315"
     transform="translate(-210.4,-551.52)" />
  <polyline
     class="BarLine"
     fill="none"
     stroke="#000000"
     stroke-width="13.64"
     stroke-linejoin="bevel"
     points="2196.06,655.584 2196.06,757.512"
     id="polyline1317"
     transform="translate(-210.4,-551.52)" />
  <polyline
     class="BarLine"
     fill="none"
     stroke="#000000"
     stroke-width="4.46"
     stroke-linejoin="bevel"
     points="3410.89,655.584 3410.89,757.512"
     id="polyline1319"
     transform="translate(-210.4,-551.52)" />
  <path
     class="BarLine"
     d="m 2380.133,142.628 c 0,-2.883 -2.294,-5.2545 -5.1615,-5.2545 -2.883,0 -5.1615,2.3715 -5.1615,5.2545 0,2.883 2.2785,5.2545 5.1615,5.2545 2.8675,0 5.1615,-2.3715 5.1615,-5.2545"
     id="path1321"
     style="stroke-width:0.992" />
  <path
     class="BarLine"
     d="m 2380.133,167.428 c 0,-2.883 -2.294,-5.2545 -5.1615,-5.2545 -2.883,0 -5.1615,2.3715 -5.1615,5.2545 0,2.883 2.2785,5.2545 5.1615,5.2545 2.8675,0 5.1615,-2.3715 5.1615,-5.2545"
     id="path1323"
     style="stroke-width:0.992" />
  <polyline
     class="BarLine"
     fill="none"
     stroke="#000000"
     stroke-width="4.46"
     stroke-linejoin="bevel"
     points="2601.93,655.584 2601.93,757.512"
     id="polyline1325"
     transform="translate(-210.4,-551.52)" />
  <polyline
     class="BarLine"
     fill="none"
     stroke="#000000"
     stroke-width="13.64"
     stroke-linejoin="bevel"
     points="2620.16,655.584 2620.16,757.512"
     id="polyline1327"
     transform="translate(-210.4,-551.52)" />
  <path
     class="BarLine"
     d="m 1173.433,142.628 c 0,-2.883 -2.294,-5.2545 -5.1615,-5.2545 -2.883,0 -5.1615,2.3715 -5.1615,5.2545 0,2.883 2.2785,5.2545 5.1615,5.2545 2.8675,0 5.1615,-2.3715 5.1615,-5.2545"
     id="path1329"
     style="stroke-width:0.992" />
  <path
     class="BarLine"
     d="m 1173.433,167.428 c 0,-2.883 -2.294,-5.2545 -5.1615,-5.2545 -2.883,0 -5.1615,2.3715 -5.1615,5.2545 0,2.883 2.2785,5.2545 5.1615,5.2545 2.8675,0 5.1615,-2.3715 5.1615,-5.2545"
     id="path1331"
     style="stroke-width:0.992" />
  <polyline
     class="BarLine"
     fill="none"
     stroke="#000000"
     stroke-width="4.46"
     stroke-linejoin="bevel"
     points="1395.22,655.584 1395.22,757.512"
     id="polyline1333"
     transform="translate(-210.4,-551.52)" />
  <polyline
     class="BarLine"
     fill="none"
     stroke="#000000"
     stroke-width="13.64"
     stroke-linejoin="bevel"
     points="1413.45,655.584 1413.45,757.512"
     id="polyline1335"
     transform="translate(-210.4,-551.52)" />
  <polyline
     class="BarLine"
     fill="none"
     stroke="#000000"
     stroke-width="4.46"
     stroke-linejoin="bevel"
     points="4096.95,655.584 4096.95,757.512"
     id="polyline1337"
     transform="translate(-210.4,-551.52)" />
  <polyline
     class="BarLine"
     fill="none"
     stroke="#000000"
     stroke-width="13.64"
     stroke-linejoin="bevel"
     points="4115.18,655.584 4115.18,757.512"
     id="polyline1339"
     transform="translate(-210.4,-551.52)" />
  <polyline
     class="BarLine"
     fill="none"
     stroke="#000000"
     stroke-width="4.46"
     stroke-linejoin="bevel"
     points="781.899,655.584 781.899,757.512"
     id="polyline1341"
     transform="translate(-210.4,-551.52)" />
  <path
     class="BarLine"
     d="m 3742.513,142.628 c 0,-2.883 -2.294,-5.2545 -5.1615,-5.2545 -2.883,0 -5.1615,2.3715 -5.1615,5.2545 0,2.883 2.2785,5.2545 5.1615,5.2545 2.8675,0 5.1615,-2.3715 5.1615,-5.2545"
     id="path1343"
     style="stroke-width:0.992" />
  <path
     class="BarLine"
     d="m 3742.513,167.428 c 0,-2.883 -2.294,-5.2545 -5.1615,-5.2545 -2.883,0 -5.1615,2.3715 -5.1615,5.2545 0,2.883 2.2785,5.2545 5.1615,5.2545 2.8675,0 5.1615,-2.3715 5.1615,-5.2545"
     id="path1345"
     style="stroke-width:0.992" />
  <polyline
     class="BarLine"
     fill="none"
     stroke="#000000"
     stroke-width="4.46"
     stroke-linejoin="bevel"
     points="3964.3,655.584 3964.3,757.512"
     id="polyline1347"
     transform="translate(-210.4,-551.52)" />
  <polyline
     class="BarLine"
     fill="none"
     stroke="#000000"
     stroke-width="13.64"
     stroke-linejoin="bevel"
     points="3982.53,655.584 3982.53,757.512"
     id="polyline1349"
     transform="translate(-210.4,-551.52)" />
  <polyline
     class="LedgerLine"
     fill="none"
     stroke="#000000"
     stroke-width="3.97"
     stroke-linejoin="bevel"
     points="3096.45,780.948 3145.04,780.948"
     id="polyline1351"
     transform="translate(-210.4,-551.52)" />
  <polyline
     class="LedgerLine"
     fill="none"
     stroke="#000000"
     stroke-width="3.97"
     stroke-linejoin="bevel"
     points="3266.19,780.948 3314.79,780.948"
     id="polyline1353"
     transform="translate(-210.4,-551.52)" />
  <polyline
     class="LedgerLine"
     fill="none"
     stroke="#000000"
     stroke-width="3.97"
     stroke-linejoin="bevel"
     points="3331.05,780.948 3379.64,780.948"
     id="polyline1355"
     transform="translate(-210.4,-551.52)" />
  <polyline
     class="LedgerLine"
     fill="none"
     stroke="#000000"
     stroke-width="3.97"
     stroke-linejoin="bevel"
     points="3435.94,780.948 3484.53,780.948"
     id="polyline1357"
     transform="translate(-210.4,-551.52)" />
  <polyline
     class="LedgerLine"
     fill="none"
     stroke="#000000"
     stroke-width="3.97"
     stroke-linejoin="bevel"
     points="3435.94,805.748 3484.53,805.748"
     id="polyline1359"
     transform="translate(-210.4,-551.52)" />
  <polyline
     class="LedgerLine"
     fill="none"
     stroke="#000000"
     stroke-width="3.97"
     stroke-linejoin="bevel"
     points="467.452,780.948 516.044,780.948"
     id="polyline1361"
     transform="translate(-210.4,-551.52)" />
  <polyline
     class="LedgerLine"
     fill="none"
     stroke="#000000"
     stroke-width="3.97"
     stroke-linejoin="bevel"
     points="3500.8,780.948 3549.39,780.948"
     id="polyline1363"
     transform="translate(-210.4,-551.52)" />
  <polyline
     class="LedgerLine"
     fill="none"
     stroke="#000000"
     stroke-width="3.97"
     stroke-linejoin="bevel"
     points="3500.8,805.748 3549.39,805.748"
     id="polyline1365"
     transform="translate(-210.4,-551.52)" />
  <polyline
     class="LedgerLine"
     fill="none"
     stroke="#000000"
     stroke-width="3.97"
     stroke-linejoin="bevel"
     points="3500.8,830.548 3549.39,830.548"
     id="polyline1367"
     transform="translate(-210.4,-551.52)" />
  <polyline
     class="LedgerLine"
     fill="none"
     stroke="#000000"
     stroke-width="3.97"
     stroke-linejoin="bevel"
     points="3647.99,780.948 3696.58,780.948"
     id="polyline1369"
     transform="translate(-210.4,-551.52)" />
  <polyline
     class="LedgerLine"
     fill="none"
     stroke="#000000"
     stroke-width="3.97"
     stroke-linejoin="bevel"
     points="3647.99,805.748 3696.58,805.748"
     id="polyline1371"
     transform="translate(-210.4,-551.52)" />
  <polyline
     class="LedgerLine"
     fill="none"
     stroke="#000000"
     stroke-width="3.97"
     stroke-linejoin="bevel"
     points="3800.12,780.948 3848.71,780.948"
     id="polyline1373"
     transform="translate(-210.4,-551.52)" />
  <polyline
     class="LedgerLine"
     fill="none"
     stroke="#000000"
     stroke-width="3.97"
     stroke-linejoin="bevel"
     points="3800.12,805.748 3848.71,805.748"
     id="polyline1375"
     transform="translate(-210.4,-551.52)" />
  <polyline
     class="LedgerLine"
     fill="none"
     stroke="#000000"
     stroke-width="3.97"
     stroke-linejoin="bevel"
     points="3864.98,780.948 3913.57,780.948"
     id="polyline1377"
     transform="translate(-210.4,-551.52)" />
  <polyline
     class="LedgerLine"
     fill="none"
     stroke="#000000"
     stroke-width="3.97"
     stroke-linejoin="bevel"
     points="3864.98,805.748 3913.57,805.748"
     id="polyline1379"
     transform="translate(-210.4,-551.52)" />
  <polyline
     class="LedgerLine"
     fill="none"
     stroke="#000000"
     stroke-width="3.97"
     stroke-linejoin="bevel"
     points="4012.17,780.948 4060.76,780.948"
     id="polyline1381"
     transform="translate(-210.4,-551.52)" />
  <polyline
     class="LedgerLine"
     fill="none"
     stroke="#000000"
     stroke-width="3.97"
     stroke-linejoin="bevel"
     points="3864.98,830.548 3913.57,830.548"
     id="polyline1383"
     transform="translate(-210.4,-551.52)" />
  <polyline
     class="LedgerLine"
     fill="none"
     stroke="#000000"
     stroke-width="3.97"
     stroke-linejoin="bevel"
     points="2884.4,780.948 2932.99,780.948"
     id="polyline1385"
     transform="translate(-210.4,-551.52)" />
  <polyline
     class="LedgerLine"
     fill="none"
     stroke="#000000"
     stroke-width="3.97"
     stroke-linejoin="bevel"
     points="3031.59,780.948 3080.18,780.948"
     id="polyline1387"
     transform="translate(-210.4,-551.52)" />
  <polyline
     class="Stem"
     fill="none"
     stroke="#000000"
     stroke-width="2.48"
     stroke-linejoin="bevel"
     points="1305.32,710.715 1305.32,780.948"
     id="polyline1389"
     transform="translate(-210.4,-551.52)" />
  <polyline
     class="Stem"
     fill="none"
     stroke="#000000"
     stroke-width="2.48"
     stroke-linejoin="bevel"
     points="3539.97,826.58 3539.97,706.548"
     id="polyline1391"
     transform="translate(-210.4,-551.52)" />
  <polyline
     class="Stem"
     fill="none"
     stroke="#000000"
     stroke-width="2.48"
     stroke-linejoin="bevel"
     points="2858.71,764.58 2858.71,681.748"
     id="polyline1393"
     transform="translate(-210.4,-551.52)" />
  <polyline
     class="Stem"
     fill="none"
     stroke="#000000"
     stroke-width="2.48"
     stroke-linejoin="bevel"
     points="2512.03,698.315 2512.03,774.748"
     id="polyline1395"
     transform="translate(-210.4,-551.52)" />
  <polyline
     class="Stem"
     fill="none"
     stroke="#000000"
     stroke-width="2.48"
     stroke-linejoin="bevel"
     points="506.62,789.38 506.62,706.548"
     id="polyline1397"
     transform="translate(-210.4,-551.52)" />
  <polyline
     class="Stem"
     fill="none"
     stroke="#000000"
     stroke-width="2.48"
     stroke-linejoin="bevel"
     points="1452.51,710.715 1452.51,780.948"
     id="polyline1399"
     transform="translate(-210.4,-551.52)" />
  <polyline
     class="Stem"
     fill="none"
     stroke="#000000"
     stroke-width="2.48"
     stroke-linejoin="bevel"
     points="3475.11,801.78 3475.11,706.548"
     id="polyline1401"
     transform="translate(-210.4,-551.52)" />
  <polyline
     class="Stem"
     fill="none"
     stroke="#000000"
     stroke-width="2.48"
     stroke-linejoin="bevel"
     points="571.48,764.58 571.48,681.748"
     id="polyline1403"
     transform="translate(-210.4,-551.52)" />
  <polyline
     class="Stem"
     fill="none"
     stroke="#000000"
     stroke-width="2.48"
     stroke-linejoin="bevel"
     points="3370.22,789.38 3370.22,706.548"
     id="polyline1405"
     transform="translate(-210.4,-551.52)" />
  <polyline
     class="Stem"
     fill="none"
     stroke="#000000"
     stroke-width="2.48"
     stroke-linejoin="bevel"
     points="676.368,739.78 676.368,656.948"
     id="polyline1407"
     transform="translate(-210.4,-551.52)" />
  <polyline
     class="Stem"
     fill="none"
     stroke="#000000"
     stroke-width="2.48"
     stroke-linejoin="bevel"
     points="1517.37,698.315 1517.37,774.748"
     id="polyline1409"
     transform="translate(-210.4,-551.52)" />
  <polyline
     class="Stem"
     fill="none"
     stroke="#000000"
     stroke-width="2.48"
     stroke-linejoin="bevel"
     points="3305.36,776.98 3305.36,694.148"
     id="polyline1411"
     transform="translate(-210.4,-551.52)" />
  <polyline
     class="Stem"
     fill="none"
     stroke="#000000"
     stroke-width="2.48"
     stroke-linejoin="bevel"
     points="846.116,727.38 846.116,644.548"
     id="polyline1413"
     transform="translate(-210.4,-551.52)" />
  <polyline
     class="Stem"
     fill="none"
     stroke="#000000"
     stroke-width="2.48"
     stroke-linejoin="bevel"
     points="1664.56,685.915 1664.56,768.548"
     id="polyline1415"
     transform="translate(-210.4,-551.52)" />
  <polyline
     class="Stem"
     fill="none"
     stroke="#000000"
     stroke-width="2.48"
     stroke-linejoin="bevel"
     points="881.23,710.715 881.23,780.948"
     id="polyline1417"
     transform="translate(-210.4,-551.52)" />
  <polyline
     class="Stem"
     fill="none"
     stroke="#000000"
     stroke-width="2.48"
     stroke-linejoin="bevel"
     points="2329.73,739.78 2329.73,656.948"
     id="polyline1419"
     transform="translate(-210.4,-551.52)" />
  <polyline
     class="Stem"
     fill="none"
     stroke="#000000"
     stroke-width="2.48"
     stroke-linejoin="bevel"
     points="1058.16,727.38 1058.16,644.548"
     id="polyline1421"
     transform="translate(-210.4,-551.52)" />
  <polyline
     class="Stem"
     fill="none"
     stroke="#000000"
     stroke-width="2.48"
     stroke-linejoin="bevel"
     points="1729.42,710.715 1729.42,780.948"
     id="polyline1423"
     transform="translate(-210.4,-551.52)" />
  <polyline
     class="Stem"
     fill="none"
     stroke="#000000"
     stroke-width="2.48"
     stroke-linejoin="bevel"
     points="1123.02,752.18 1123.02,669.348"
     id="polyline1425"
     transform="translate(-210.4,-551.52)" />
  <polyline
     class="Stem"
     fill="none"
     stroke="#000000"
     stroke-width="2.48"
     stroke-linejoin="bevel"
     points="3240.5,764.58 3240.5,681.748"
     id="polyline1427"
     transform="translate(-210.4,-551.52)" />
  <polyline
     class="Stem"
     fill="none"
     stroke="#000000"
     stroke-width="2.48"
     stroke-linejoin="bevel"
     points="1270.21,727.38 1270.21,644.548"
     id="polyline1429"
     transform="translate(-210.4,-551.52)" />
  <polyline
     class="Stem"
     fill="none"
     stroke="#000000"
     stroke-width="2.48"
     stroke-linejoin="bevel"
     points="1864.05,739.78 1864.05,656.948"
     id="polyline1431"
     transform="translate(-210.4,-551.52)" />
  <polyline
     class="Stem"
     fill="none"
     stroke="#000000"
     stroke-width="2.48"
     stroke-linejoin="bevel"
     points="2235.12,710.715 2235.12,780.948"
     id="polyline1433"
     transform="translate(-210.4,-551.52)" />
  <polyline
     class="Stem"
     fill="none"
     stroke="#000000"
     stroke-width="2.48"
     stroke-linejoin="bevel"
     points="2753.82,739.78 2753.82,656.948"
     id="polyline1435"
     transform="translate(-210.4,-551.52)" />
  <polyline
     class="Stem"
     fill="none"
     stroke="#000000"
     stroke-width="2.48"
     stroke-linejoin="bevel"
     points="2923.57,789.38 2923.57,706.548"
     id="polyline1437"
     transform="translate(-210.4,-551.52)" />
  <polyline
     class="Stem"
     fill="none"
     stroke="#000000"
     stroke-width="2.48"
     stroke-linejoin="bevel"
     points="2659.22,710.715 2659.22,780.948"
     id="polyline1439"
     transform="translate(-210.4,-551.52)" />
  <polyline
     class="Stem"
     fill="none"
     stroke="#000000"
     stroke-width="2.48"
     stroke-linejoin="bevel"
     points="2087.93,698.315 2087.93,774.748"
     id="polyline1441"
     transform="translate(-210.4,-551.52)" />
  <polyline
     class="Stem"
     fill="none"
     stroke="#000000"
     stroke-width="2.48"
     stroke-linejoin="bevel"
     points="3687.16,801.78 3687.16,706.548"
     id="polyline1443"
     transform="translate(-210.4,-551.52)" />
  <polyline
     class="Stem"
     fill="none"
     stroke="#000000"
     stroke-width="2.48"
     stroke-linejoin="bevel"
     points="2023.07,710.715 2023.07,780.948"
     id="polyline1445"
     transform="translate(-210.4,-551.52)" />
  <polyline
     class="Stem"
     fill="none"
     stroke="#000000"
     stroke-width="2.48"
     stroke-linejoin="bevel"
     points="3839.29,801.78 3839.29,706.548"
     id="polyline1447"
     transform="translate(-210.4,-551.52)" />
  <polyline
     class="Stem"
     fill="none"
     stroke="#000000"
     stroke-width="2.48"
     stroke-linejoin="bevel"
     points="2447.17,710.715 2447.17,780.948"
     id="polyline1449"
     transform="translate(-210.4,-551.52)" />
  <polyline
     class="Stem"
     fill="none"
     stroke="#000000"
     stroke-width="2.48"
     stroke-linejoin="bevel"
     points="3070.75,789.38 3070.75,706.548"
     id="polyline1451"
     transform="translate(-210.4,-551.52)" />
  <polyline
     class="Stem"
     fill="none"
     stroke="#000000"
     stroke-width="2.48"
     stroke-linejoin="bevel"
     points="3904.15,826.58 3904.15,706.548"
     id="polyline1453"
     transform="translate(-210.4,-551.52)" />
  <polyline
     class="Stem"
     fill="none"
     stroke="#000000"
     stroke-width="2.48"
     stroke-linejoin="bevel"
     points="741.227,752.18 741.227,669.348"
     id="polyline1455"
     transform="translate(-210.4,-551.52)" />
  <polyline
     class="Stem"
     fill="none"
     stroke="#000000"
     stroke-width="2.48"
     stroke-linejoin="bevel"
     points="1947.93,727.38 1947.93,644.548"
     id="polyline1457"
     transform="translate(-210.4,-551.52)" />
  <polyline
     class="Stem"
     fill="none"
     stroke="#000000"
     stroke-width="2.48"
     stroke-linejoin="bevel"
     points="4051.34,789.38 4051.34,706.548"
     id="polyline1459"
     transform="translate(-210.4,-551.52)" />
  <polyline
     class="Stem"
     fill="none"
     stroke="#000000"
     stroke-width="2.48"
     stroke-linejoin="bevel"
     points="3135.61,776.98 3135.61,694.148"
     id="polyline1461"
     transform="translate(-210.4,-551.52)" />
  <path
     class="Note"
     d="m 1517.78,159.1975 c 0,4.2625 3.069,9.02102 11.1135,9.02102 10.3075,0 21.1265,-8.43202 21.1265,-17.15852 0,-5.859 -4.96,-9.12948 -11.1135,-9.12948 -9.6255,0 -21.1265,8.13748 -21.1265,17.26698"
     id="path1463"
     style="stroke-width:0.992" />
  <path
     class="Note"
     d="m 2894.23,233.5975 c 0,4.2625 3.069,9.02102 11.1135,9.02102 10.3075,0 21.1265,-8.43202 21.1265,-17.15852 0,-5.859 -4.96,-9.12948 -11.1135,-9.12948 -9.6255,0 -21.1265,8.13748 -21.1265,17.26698"
     id="path1465"
     style="stroke-width:0.992" />
  <path
     class="Note"
     d="m 2109.4665,179.13052 c -9.6255,0 -21.1265,8.04448 -21.1265,17.26698 0,4.2625 3.069,9.02102 11.1135,9.02102 10.3075,0 21.1265,-8.43202 21.1265,-17.15852 0,-5.859 -4.96,-9.12948 -11.1135,-9.12948 m -2.6815,17.46848 c -0.2945,0.186 -7.533,4.154 -11.005,4.154 -3.2705,0 -3.968,-2.666 -3.968,-3.565 0,-4.1695 9.92,-9.021 10.323,-9.2225 0.3875,-0.2015 7.44,-4.1695 11.005,-4.1695 2.387,0 3.968,1.395 3.968,3.565 0,4.278 -10.013,9.0365 -10.323,9.238"
     id="path1467"
     style="stroke-width:0.992" />
  <path
     class="Note"
     d="m 2999.12,221.1975 c 0,4.2625 3.069,9.02102 11.1135,9.02102 10.3075,0 21.1265,-8.43202 21.1265,-17.15852 0,-5.859 -4.96,-9.12948 -11.1135,-9.12948 -9.6255,0 -21.1265,8.13748 -21.1265,17.26698"
     id="path1469"
     style="stroke-width:0.992" />
  <path
     class="Note"
     d="m 2533.5565,179.13052 c -9.6255,0 -21.1265,8.04448 -21.1265,17.26698 0,4.2625 3.069,9.02102 11.1135,9.02102 10.3075,0 21.1265,-8.43202 21.1265,-17.15852 0,-5.859 -4.96,-9.12948 -11.1135,-9.12948 m -2.6815,17.46848 c -0.2945,0.186 -7.533,4.154 -11.005,4.154 -3.2705,0 -3.968,-2.666 -3.968,-3.565 0,-4.1695 9.92,-9.021 10.323,-9.2225 0.3875,-0.2015 7.44,-4.1695 11.005,-4.1695 2.387,0 3.968,1.395 3.968,3.565 0,4.278 -10.013,9.0365 -10.323,9.238"
     id="path1471"
     style="stroke-width:0.992" />
  <path
     class="Note"
     d="m 3063.98,233.5975 c 0,4.2625 3.069,9.02102 11.1135,9.02102 10.3075,0 21.1265,-8.43202 21.1265,-17.15852 0,-5.859 -4.96,-9.12948 -11.1135,-9.12948 -9.6255,0 -21.1265,8.13748 -21.1265,17.26698"
     id="path1473"
     style="stroke-width:0.992" />
  <path
     class="Note"
     d="m 2321.5165,129.53052 c -9.6255,0 -21.1265,8.04448 -21.1265,17.26698 0,4.2625 3.069,9.02102 11.1135,9.02102 10.3075,0 21.1265,-8.43202 21.1265,-17.15852 0,-5.859 -4.96,-9.12948 -11.1135,-9.12948 m -2.6815,17.46848 c -0.2945,0.186 -7.533,4.154 -11.005,4.154 -3.2705,0 -3.968,-2.666 -3.968,-3.565 0,-4.1695 9.92,-9.021 10.323,-9.2225 0.3875,-0.2015 7.44,-4.1695 11.005,-4.1695 2.387,0 3.968,1.395 3.968,3.565 0,4.278 -10.013,9.0365 -10.323,9.238"
     id="path1475"
     style="stroke-width:0.992" />
  <path
     class="Note"
     d="m 3128.84,245.9975 c 0,4.2625 3.069,9.02102 11.1135,9.02102 10.3075,0 21.1265,-8.43202 21.1265,-17.15852 0,-5.859 -4.96,-9.12948 -11.1135,-9.12948 -9.6255,0 -21.1265,8.13748 -21.1265,17.26698"
     id="path1477"
     style="stroke-width:0.992" />
  <path
     class="Note"
     d="m 2023.48,159.1975 c 0,4.2625 3.069,9.02102 11.1135,9.02102 10.3075,0 21.1265,-8.43202 21.1265,-17.15852 0,-5.859 -4.96,-9.12948 -11.1135,-9.12948 -9.6255,0 -21.1265,8.13748 -21.1265,17.26698"
     id="path1479"
     style="stroke-width:0.992" />
  <path
     class="Note"
     d="m 3233.72,258.3975 c 0,4.2625 3.069,9.02102 11.1135,9.02102 10.3075,0 21.1265,-8.43202 21.1265,-17.15852 0,-5.859 -4.96,-9.12948 -11.1135,-9.12948 -9.6255,0 -21.1265,8.13748 -21.1265,17.26698"
     id="path1481"
     style="stroke-width:0.992" />
  <path
     class="Note"
     d="m 2617.32,221.1975 c 0,4.2625 3.069,9.02102 11.1135,9.02102 10.3075,0 21.1265,-8.43202 21.1265,-17.15852 0,-5.859 -4.96,-9.12948 -11.1135,-9.12948 -9.6255,0 -21.1265,8.13748 -21.1265,17.26698"
     id="path1483"
     style="stroke-width:0.992" />
  <path
     class="Note"
     d="m 286.36252,228.73052 c -9.62547,0 -21.12652,8.04448 -21.12652,17.26698 0,4.2625 3.069,9.02102 11.11348,9.02102 10.30757,0 21.12652,-8.43202 21.12652,-17.15852 0,-5.859 -4.96,-9.12948 -11.11348,-9.12948 m -2.68147,17.46848 c -0.29453,0.186 -7.53305,4.154 -11.00505,4.154 -3.2705,0 -3.968,-2.666 -3.968,-3.565 0,-4.1695 9.92,-9.021 10.32305,-9.2225 0.38747,-0.2015 7.44,-4.1695 11.00495,-4.1695 2.38705,0 3.968,1.395 3.968,3.565 0,4.278 -10.01295,9.0365 -10.32295,9.238"
     id="path1485"
     style="stroke-width:0.992" />
  <path
     class="Note"
     d="m 330.095,221.1975 c 0,4.2625 3.069,9.02102 11.11348,9.02102 10.30757,0 21.12652,-8.43202 21.12652,-17.15852 0,-5.859 -4.96,-9.12948 -11.11348,-9.12948 -9.62547,0 -21.12652,8.13748 -21.12652,17.26698"
     id="path1487"
     style="stroke-width:0.992" />
  <path
     class="Note"
     d="m 3319.7065,265.93052 c -9.6255,0 -21.1265,8.04448 -21.1265,17.26698 0,4.2625 3.069,9.02102 11.1135,9.02102 10.3075,0 21.1265,-8.43202 21.1265,-17.15852 0,-5.859 -4.96,-9.12948 -11.1135,-9.12948 m -2.6815,17.46848 c -0.2945,0.186 -7.533,4.154 -11.005,4.154 -3.2705,0 -3.968,-2.666 -3.968,-3.565 0,-4.1695 9.92,-9.021 10.323,-9.2225 0.3875,-0.2015 7.44,-4.1695 11.005,-4.1695 2.387,0 3.968,1.395 3.968,3.565 0,4.278 -10.013,9.0365 -10.323,9.238"
     id="path1489"
     style="stroke-width:0.992" />
  <path
     class="Note"
     d="m 1897.4165,129.53052 c -9.6255,0 -21.1265,8.04448 -21.1265,17.26698 0,4.2625 3.069,9.02102 11.1135,9.02102 10.3075,0 21.1265,-8.43202 21.1265,-17.15852 0,-5.859 -4.96,-9.12948 -11.1135,-9.12948 m -2.6815,17.46848 c -0.2945,0.186 -7.533,4.154 -11.005,4.154 -3.2705,0 -3.968,-2.666 -3.968,-3.565 0,-4.1695 9.92,-9.021 10.323,-9.2225 0.3875,-0.2015 7.44,-4.1695 11.005,-4.1695 2.387,0 3.968,1.395 3.968,3.565 0,4.278 -10.013,9.0365 -10.323,9.238"
     id="path1491"
     style="stroke-width:0.992" />
  <path
     class="Note"
     d="m 434.984,196.3975 c 0,4.2625 3.069,9.02102 11.11348,9.02102 10.30757,0 21.12652,-8.43202 21.12652,-17.15852 0,-5.859 -4.96,-9.12948 -11.11348,-9.12948 -9.62547,0 -21.12652,8.13748 -21.12652,17.26698"
     id="path1493"
     style="stroke-width:0.992" />
  <path
     class="Note"
     d="m 520.96952,191.53052 c -9.62547,0 -21.12652,8.04448 -21.12652,17.26698 0,4.2625 3.069,9.02102 11.11348,9.02102 10.30757,0 21.12652,-8.43202 21.12652,-17.15852 0,-5.859 -4.96,-9.12948 -11.11348,-9.12948 m -2.68147,17.46848 c -0.29453,0.186 -7.53305,4.154 -11.00505,4.154 -3.2705,0 -3.968,-2.666 -3.968,-3.565 0,-4.1695 9.92,-9.021 10.32305,-9.2225 0.38747,-0.2015 7.44,-4.1695 11.00495,-4.1695 2.38705,0 3.968,1.395 3.968,3.565 0,4.278 -10.01295,9.0365 -10.32295,9.238"
     id="path1495"
     style="stroke-width:0.992" />
  <path
     class="Note"
     d="m 2703.3065,228.73052 c -9.6255,0 -21.1265,8.04448 -21.1265,17.26698 0,4.2625 3.069,9.02102 11.1135,9.02102 10.3075,0 21.1265,-8.43202 21.1265,-17.15852 0,-5.859 -4.96,-9.12948 -11.1135,-9.12948 m -2.6815,17.46848 c -0.2945,0.186 -7.533,4.154 -11.005,4.154 -3.2705,0 -3.968,-2.666 -3.968,-3.565 0,-4.1695 9.92,-9.021 10.323,-9.2225 0.3875,-0.2015 7.44,-4.1695 11.005,-4.1695 2.387,0 3.968,1.395 3.968,3.565 0,4.278 -10.013,9.0365 -10.323,9.238"
     id="path1497"
     style="stroke-width:0.992" />
  <path
     class="Note"
     d="m 2235.53,159.1975 c 0,4.2625 3.069,9.02102 11.1135,9.02102 10.3075,0 21.1265,-8.43202 21.1265,-17.15852 0,-5.859 -4.96,-9.12948 -11.1135,-9.12948 -9.6255,0 -21.1265,8.13748 -21.1265,17.26698"
     id="path1499"
     style="stroke-width:0.992" />
  <path
     class="Note"
     d="m 3466.8965,241.13052 c -9.6255,0 -21.1265,8.04448 -21.1265,17.26698 0,4.2625 3.069,9.02102 11.1135,9.02102 10.3075,0 21.1265,-8.43202 21.1265,-17.15852 0,-5.859 -4.96,-9.12948 -11.1135,-9.12948 m -2.6815,17.46848 c -0.2945,0.186 -7.533,4.154 -11.005,4.154 -3.2705,0 -3.968,-2.666 -3.968,-3.565 0,-4.1695 9.92,-9.021 10.323,-9.2225 0.3875,-0.2015 7.44,-4.1695 11.005,-4.1695 2.387,0 3.968,1.395 3.968,3.565 0,4.278 -10.013,9.0365 -10.323,9.238"
     id="path1501"
     style="stroke-width:0.992" />
  <path
     class="Note"
     d="m 1811.43,159.1975 c 0,4.2625 3.069,9.02102 11.1135,9.02102 10.3075,0 21.1265,-8.43202 21.1265,-17.15852 0,-5.859 -4.96,-9.12948 -11.1135,-9.12948 -9.6255,0 -21.1265,8.13748 -21.1265,17.26698"
     id="path1503"
     style="stroke-width:0.992" />
  <path
     class="Note"
     d="m 604.731,183.9975 c 0,4.2625 3.069,9.02102 11.11348,9.02102 10.30757,0 21.12652,-8.43202 21.12652,-17.15852 0,-5.859 -4.96,-9.12948 -11.11348,-9.12948 -9.62547,0 -21.12652,8.13748 -21.12652,17.26698"
     id="path1505"
     style="stroke-width:0.992" />
  <path
     class="Note"
     d="m 690.71652,141.93052 c -9.62547,0 -21.12652,8.04448 -21.12652,17.26698 0,4.2625 3.069,9.02102 11.11348,9.02102 10.30757,0 21.12652,-8.43202 21.12652,-17.15852 0,-5.859 -4.96,-9.12948 -11.11348,-9.12948 m -2.68147,17.46848 c -0.29453,0.186 -7.53305,4.154 -11.00505,4.154 -3.2705,0 -3.968,-2.666 -3.968,-3.565 0,-4.1695 9.92,-9.021 10.32305,-9.2225 0.38747,-0.2015 7.44,-4.1695 11.00495,-4.1695 2.38705,0 3.968,1.395 3.968,3.565 0,4.278 -10.01295,9.0365 -10.32295,9.238"
     id="path1507"
     style="stroke-width:0.992" />
  <path
     class="Note"
     d="m 816.78,183.9975 c 0,4.2625 3.069,9.02102 11.11348,9.02102 10.30757,0 21.12652,-8.43202 21.12652,-17.15852 0,-5.859 -4.96,-9.12948 -11.11348,-9.12948 -9.62547,0 -21.12652,8.13748 -21.12652,17.26698"
     id="path1509"
     style="stroke-width:0.992" />
  <path
     class="Note"
     d="m 902.76652,191.53052 c -9.62547,0 -21.12652,8.04448 -21.12652,17.26698 0,4.2625 3.069,9.02102 11.11348,9.02102 10.30757,0 21.12652,-8.43202 21.12652,-17.15852 0,-5.859 -4.96,-9.12948 -11.11348,-9.12948 m -2.68147,17.46848 c -0.29453,0.186 -7.53305,4.154 -11.00505,4.154 -3.2705,0 -3.968,-2.666 -3.968,-3.565 0,-4.1695 9.92,-9.021 10.32305,-9.2225 0.38747,-0.2015 7.44,-4.1695 11.00495,-4.1695 2.38705,0 3.968,1.395 3.968,3.565 0,4.278 -10.01295,9.0365 -10.32295,9.238"
     id="path1511"
     style="stroke-width:0.992" />
  <path
     class="Note"
     d="m 3597.9,258.3975 c 0,4.2625 3.069,9.02102 11.1135,9.02102 10.3075,0 21.1265,-8.43202 21.1265,-17.15852 0,-5.859 -4.96,-9.12948 -11.1135,-9.12948 -9.6255,0 -21.1265,8.13748 -21.1265,17.26698"
     id="path1513"
     style="stroke-width:0.992" />
  <path
     class="Note"
     d="m 1028.83,183.9975 c 0,4.2625 3.069,9.02102 11.1135,9.02102 10.3075,0 21.1265,-8.43202 21.1265,-17.15852 0,-5.859 -4.96,-9.12948 -11.1135,-9.12948 -9.6255,0 -21.1265,8.13748 -21.1265,17.26698"
     id="path1515"
     style="stroke-width:0.992" />
  <path
     class="Note"
     d="m 2447.58,159.1975 c 0,4.2625 3.069,9.02102 11.1135,9.02102 10.3075,0 21.1265,-8.43202 21.1265,-17.15852 0,-5.859 -4.96,-9.12948 -11.1135,-9.12948 -9.6255,0 -21.1265,8.13748 -21.1265,17.26698"
     id="path1517"
     style="stroke-width:0.992" />
  <path
     class="Note"
     d="m 2850.4965,228.73052 c -9.6255,0 -21.1265,8.04448 -21.1265,17.26698 0,4.2625 3.069,9.02102 11.1135,9.02102 10.3075,0 21.1265,-8.43202 21.1265,-17.15852 0,-5.859 -4.96,-9.12948 -11.1135,-9.12948 m -2.6815,17.46848 c -0.2945,0.186 -7.533,4.154 -11.005,4.154 -3.2705,0 -3.968,-2.666 -3.968,-3.565 0,-4.1695 9.92,-9.021 10.323,-9.2225 0.3875,-0.2015 7.44,-4.1695 11.005,-4.1695 2.387,0 3.968,1.395 3.968,3.565 0,4.278 -10.013,9.0365 -10.323,9.238"
     id="path1519"
     style="stroke-width:0.992" />
  <path
     class="Note"
     d="m 1114.8065,141.93052 c -9.6255,0 -21.1265,8.04448 -21.1265,17.26698 0,4.2625 3.069,9.02102 11.1135,9.02102 10.3075,0 21.1265,-8.43202 21.1265,-17.15852 0,-5.859 -4.96,-9.12948 -11.1135,-9.12948 m -2.6815,17.46848 c -0.2945,0.186 -7.533,4.154 -11.005,4.154 -3.2705,0 -3.968,-2.666 -3.968,-3.565 0,-4.1695 9.92,-9.021 10.323,-9.2225 0.3875,-0.2015 7.44,-4.1695 11.005,-4.1695 2.387,0 3.968,1.395 3.968,3.565 0,4.278 -10.013,9.0365 -10.323,9.238"
     id="path1521"
     style="stroke-width:0.992" />
  <path
     class="Note"
     d="m 3683.8865,265.93052 c -9.6255,0 -21.1265,8.04448 -21.1265,17.26698 0,4.2625 3.069,9.02102 11.1135,9.02102 10.3075,0 21.1265,-8.43202 21.1265,-17.15852 0,-5.859 -4.96,-9.12948 -11.1135,-9.12948 m -2.6815,17.46848 c -0.2945,0.186 -7.533,4.154 -11.005,4.154 -3.2705,0 -3.968,-2.666 -3.968,-3.565 0,-4.1695 9.92,-9.021 10.323,-9.2225 0.3875,-0.2015 7.44,-4.1695 11.005,-4.1695 2.387,0 3.968,1.395 3.968,3.565 0,4.278 -10.013,9.0365 -10.323,9.238"
     id="path1523"
     style="stroke-width:0.992" />
  <path
     class="Note"
     d="m 1727.6765,166.73052 c -9.6255,0 -21.1265,8.04448 -21.1265,17.26698 0,4.2625 3.069,9.02102 11.1135,9.02102 10.3075,0 21.1265,-8.43202 21.1265,-17.15852 0,-5.859 -4.96,-9.12948 -11.1135,-9.12948 m -2.6815,17.46848 c -0.2945,0.186 -7.533,4.154 -11.005,4.154 -3.2705,0 -3.968,-2.666 -3.968,-3.565 0,-4.1695 9.92,-9.021 10.323,-9.2225 0.3875,-0.2015 7.44,-4.1695 11.005,-4.1695 2.387,0 3.968,1.395 3.968,3.565 0,4.278 -10.013,9.0365 -10.323,9.238"
     id="path1525"
     style="stroke-width:0.992" />
  <path
     class="Note"
     d="m 1240.87,159.1975 c 0,4.2625 3.069,9.02102 11.1135,9.02102 10.3075,0 21.1265,-8.43202 21.1265,-17.15852 0,-5.859 -4.96,-9.12948 -11.1135,-9.12948 -9.6255,0 -21.1265,8.13748 -21.1265,17.26698"
     id="path1527"
     style="stroke-width:0.992" />
  <path
     class="Note"
     d="m 1326.8565,129.53052 c -9.6255,0 -21.1265,8.04448 -21.1265,17.26698 0,4.2625 3.069,9.02102 11.1135,9.02102 10.3075,0 21.1265,-8.43202 21.1265,-17.15852 0,-5.859 -4.96,-9.12948 -11.1135,-9.12948 m -2.6815,17.46848 c -0.2945,0.186 -7.533,4.154 -11.005,4.154 -3.2705,0 -3.968,-2.666 -3.968,-3.565 0,-4.1695 9.92,-9.021 10.323,-9.2225 0.3875,-0.2015 7.44,-4.1695 11.005,-4.1695 2.387,0 3.968,1.395 3.968,3.565 0,4.278 -10.013,9.0365 -10.323,9.238"
     id="path1529"
     style="stroke-width:0.992" />
  <path
     class="Note"
     d="m 1474.0465,117.13052 c -9.6255,0 -21.1265,8.04448 -21.1265,17.26698 0,4.2625 3.069,9.02102 11.1135,9.02102 10.3075,0 21.1265,-8.43202 21.1265,-17.15852 0,-5.859 -4.96,-9.12948 -11.1135,-9.12948 m -2.6815,17.46848 c -0.2945,0.186 -7.533,4.154 -11.005,4.154 -3.2705,0 -3.968,-2.666 -3.968,-3.565 0,-4.1695 9.92,-9.021 10.323,-9.2225 0.3875,-0.2015 7.44,-4.1695 11.005,-4.1695 2.387,0 3.968,1.395 3.968,3.565 0,4.278 -10.013,9.0365 -10.323,9.238"
     id="path1531"
     style="stroke-width:0.992" />
  <path
     class="Note"
     d="m 3831.0765,228.73052 c -9.6255,0 -21.1265,8.04448 -21.1265,17.26698 0,4.2625 3.069,9.02102 11.1135,9.02102 10.3075,0 21.1265,-8.43202 21.1265,-17.15852 0,-5.859 -4.96,-9.12948 -11.1135,-9.12948 m -2.6815,17.46848 c -0.2945,0.186 -7.533,4.154 -11.005,4.154 -3.2705,0 -3.968,-2.666 -3.968,-3.565 0,-4.1695 9.92,-9.021 10.323,-9.2225 0.3875,-0.2015 7.44,-4.1695 11.005,-4.1695 2.387,0 3.968,1.395 3.968,3.565 0,4.278 -10.013,9.0365 -10.323,9.238"
     id="path1533"
     style="stroke-width:0.992" />
  <path
     class="Note"
     d="m 1622.67,196.3975 c 0,4.2625 3.069,9.02102 11.1135,9.02102 10.3075,0 21.1265,-8.43202 21.1265,-17.15852 0,-5.859 -4.96,-9.12948 -11.1135,-9.12948 -9.6255,0 -21.1265,8.13748 -21.1265,17.26698"
     id="path1535"
     style="stroke-width:0.992" />
  <path
     class="Clef"
     d="m 60.558525,250.95748 c 0,-3.67348 -3.363475,-5.25443 -6.634,-5.25443 -4.169475,0 -8.246,2.57295 -8.246,7.03695 0,1.89105 0.697475,3.286 2.092525,4.66548 -2.588525,0.992 -5.161575,2.976 -5.161575,6.06052 0,3.27052 2.976,5.456 7.34705,5.456 5.347475,0 9.114,-2.976 9.114,-7.254 0,-2.27852 -0.992,-4.154 -2.774525,-5.456 2.88305,-1.28652 4.262525,-2.86748 4.262525,-5.25452 m -9.92,15.872 c -2.17,0 -3.658,-1.37948 -3.658,-3.472 0,-1.984 0.883475,-3.56496 2.57295,-4.55696 0.40305,0.20148 0.496,0.20148 0.790525,0.38748 1.193475,0.60452 1.193475,0.60452 1.39505,0.806 1.875475,1.08505 2.681475,2.07705 2.681475,3.472 0,1.87548 -1.596525,3.36348 -3.782,3.36348 m 3.782,-11.904 c -1.488,-0.79043 -1.89105,-0.992 -2.185475,-1.19348 l -0.201575,-0.093 c -1.488,-0.89905 -1.984,-1.59653 -1.984,-2.77453 0,-1.798 1.39505,-3.08452 3.37905,-3.08452 1.875475,0 3.06895,1.19348 3.06895,3.27052 0,1.59653 -0.58895,2.68148 -2.07695,3.87496 M 82.088,179.6265 c 0,-14.97302 -10.617475,-25.0945 -25.094525,-25.0945 -0.992,-5.952 -1.89095,-11.81105 -2.774425,-17.36 10.416,-11.02052 17.747475,-23.51348 17.747475,-39.184 0,-9.036525 -2.774525,-16.368 -4.464,-19.948128 -2.371475,-5.053248 -5.254525,-8.525248 -6.944,-8.525248 -0.682,0 -3.859475,1.193376 -7.03705,5.053248 -6.448,7.548128 -8.230425,20.134128 -8.230425,28.473078 0,5.36305 0.496,10.21453 2.185475,21.43653 -0.108525,0 -5.27,5.25452 -7.34705,7.03704 C 31.09305,139.85348 18.6,151.94348 18.6,171.6905 c 0,18.64655 16.166525,33.23202 34.62705,33.23202 2.867475,0 5.54895,-0.29452 7.936,-0.69747 1.782425,9.43947 2.976,16.47643 2.976,21.73095 0,10.32305 -5.36305,15.77905 -15.376,15.77905 -2.38705,0 -4.464,-0.496 -4.665575,-0.60453 -0.09295,0 -0.294425,-0.093 -0.294425,-0.186 0,-0.20147 0.201475,-0.31 0.496,-0.40304 4.665475,-0.69748 9.315475,-4.75843 9.315475,-11.00496 0,-5.36304 -4.06105,-11.02052 -11.50105,-11.02052 -6.944,0 -11.31495,5.65748 -11.31495,12.19852 0,6.55653 4.96,15.19 18.352,15.19 12.80295,0 19.049475,-7.254 19.049475,-19.94852 0,-3.85948 -0.58895,-8.32348 -1.58095,-13.98095 -0.294525,-1.984 -0.790525,-5.06853 -1.488,-8.83505 C 74.849475,199.86948 82.088,189.84105 82.088,179.6265 M 51.537475,98.282525 c 0.992,-3.968 5.456,-14.384 10.617575,-14.384 1.488,0 3.968,4.758425 3.968,11.702425 0,10.21453 -7.734525,17.96453 -14.585575,24.8 -0.58895,-3.968 -1.08495,-7.936 -1.08495,-11.99695 0,-3.76652 0.387475,-7.05252 1.08495,-10.121475 m 2.976,102.578955 c -14.182425,0 -26.28797,-9.92 -26.28797,-24.90848 0,-12.09005 8.52502,-22.909 17.26702,-30.55048 1.674,-1.39504 3.270525,-2.77452 4.758525,-4.26252 0.883475,5.34748 1.58095,9.92 2.278425,14.08948 -9.036425,2.57304 -15.174425,12.19852 -15.174425,21.42102 0,7.0525 5.456,16.5695 13.392,16.5695 0.790425,0 1.689475,-0.40295 1.689475,-1.39495 0,-0.79053 -0.89905,-1.37957 -2.185475,-2.17005 -3.87505,-2.294 -6.060525,-4.96 -6.060525,-9.734 0,-6.045 4.572525,-10.91205 10.32295,-12.29152 L 60.264,200.164 c -1.984,0.40305 -3.766525,0.69748 -5.750525,0.69748 m 9.92,-1.89096 c -2.07695,-11.79552 -4.758425,-27.57452 -5.456,-31.94557 10.01305,0 14.29105,6.94405 15.174525,11.71805 0.108525,0.7905 0.294525,1.8755 0.294525,3.069 0,7.1455 -2.976,14.29105 -10.01305,17.15852"
     id="path1537"
     style="stroke-width:0.992" />
  <path
     class="KeySig"
     d="m 120.60505,147.185 c -0.58905,-3.85952 -2.976,-7.533 -8.02905,-7.533 -4.96,0 -7.843,3.06895 -8.339,3.67348 l 0.403,-31.85253 c 0,-0.79043 -0.589,-1.37947 -1.395,-1.37947 h -1.178 c -0.806,0 -1.395,0.58904 -1.395,1.37947 l 0.496,59.62853 c 0,0.79052 0.589,1.37957 1.395,1.37957 0.186,0 0.589,-0.0931 0.7905,-0.186 0.3875,-0.20157 6.8355,-3.37905 12.1985,-9.42405 3.76652,-4.278 5.25452,-9.1295 5.25452,-13.206 0,-0.8835 -0.093,-1.674 -0.20147,-2.48 m -6.83557,3.875 c 0,1.488 -0.40296,6.045 -2.88296,9.827 -1.68952,2.573 -5.05302,5.25448 -6.94402,6.74248 l 0.2945,-19.34398 c 0.2015,-0.899 1.6895,-3.76655 5.6575,-3.76655 3.58055,0 3.87498,3.36355 3.87498,5.45605 0,0.496 0,0.7905 0,1.085"
     id="path1539"
     style="stroke-width:0.992" />
  <path
     class="KeySig"
     d="m 148.18005,109.985 c -0.58905,-3.85952 -2.976,-7.533 -8.02905,-7.533 -4.96,0 -7.843,3.06895 -8.339,3.67348 l 0.403,-31.85253 c 0,-0.790425 -0.589,-1.379475 -1.395,-1.379475 h -1.178 c -0.806,0 -1.395,0.58905 -1.395,1.379475 l 0.496,59.62853 c 0,0.79052 0.589,1.37957 1.395,1.37957 0.186,0 0.589,-0.0931 0.7905,-0.186 0.3875,-0.20157 6.8355,-3.37905 12.1985,-9.42405 3.76652,-4.278 5.25452,-9.1295 5.25452,-13.206 0,-0.8835 -0.093,-1.674 -0.20147,-2.48 m -6.83557,3.875 c 0,1.488 -0.40296,6.045 -2.88296,9.827 -1.68952,2.573 -5.05302,5.25448 -6.94402,6.74248 l 0.2945,-19.34398 c 0.2015,-0.899 1.6895,-3.76655 5.6575,-3.76655 3.58055,0 3.87498,3.36355 3.87498,5.45605 0,0.496 0,0.7905 0,1.085"
     id="path1541"
     style="stroke-width:0.992" />
  <path
     class="TimeSig"
     d="m 202.69348,129.143 c 7.936,-3.0845 8.432,-8.246 8.432,-10.02848 0,-0.20157 0,-0.38757 0,-0.496 0,-0.88357 -0.29443,-12.10557 -17.36,-12.10557 -17.06548,0 -16.56948,12.10557 -16.56948,12.10557 h 0.093 l -0.093,0.20148 c 0,3.565 2.883,6.355 6.448,6.355 3.56505,0 6.35505,-2.79 6.35505,-6.355 0,-2.88305 -2.18557,-5.65748 -4.96005,-6.24652 0.093,-0.10853 0.186,-0.20148 0.2945,-0.29453 1.37955,-0.992 3.2705,-1.488 5.16155,-1.488 4.154,0 8.618,2.48 8.618,7.82757 0,6.24648 -4.65,7.14548 -5.84357,7.34698 -1.19348,0.2015 -6.74243,0.589 -7.93598,0.589 -1.1935,0 -1.2865,1.395 -1.2865,1.395 v 1.984 c 0,0 0.186,1.085 1.2865,1.1935 1.68955,0.093 3.96798,0.093 7.14555,0.589 4.35547,0.589 6.634,3.565 6.634,10.50905 0,6.64947 -4.464,8.432 -8.618,8.432 -2.79,0 -5.36305,-0.79053 -6.44805,-1.58105 3.27048,-0.20148 5.95205,-3.06895 5.95205,-6.35495 0,-3.56505 -2.79,-6.44805 -6.35505,-6.44805 -3.565,0 -6.448,2.883 -6.448,6.44805 0,0 0,0.20147 0,0.40295 0,1.28652 0.2945,4.86705 3.875,8.13748 3.8595,3.56504 8.72648,3.67357 10.91205,3.67357 9.51695,0 19.84,-3.286 19.84,-14.08957 0,-7.23848 -4.96,-10.32298 -9.33105,-11.70248 h 0.20148"
     id="path1543"
     style="stroke-width:0.992" />
  <path
     class="TimeSig"
     d="m 192.43252,192.42948 v 7.33157 H 184.202 c -0.69748,0 -1.39495,0.60443 -1.39495,1.39495 v 1.89105 c 0,0.79043 0.69747,1.37947 1.39495,1.37947 h 30.05452 c 0.806,0 1.39496,-0.58904 1.39496,-1.37947 V 201.156 c 0,-0.79052 -0.58896,-1.39495 -1.39496,-1.39495 h -8.928 v -7.33157 h 8.928 c 0.806,0 1.39496,-0.69748 1.39496,-1.488 v -1.89098 c 0,-0.6975 -0.58896,-1.3795 -1.39496,-1.3795 h -8.928 v -15.779 c 0,-0.589 -0.29452,-1.085 -0.682,-1.2865 l -1.19347,-0.6045 c -0.20157,-0.093 -0.29453,-0.093 -0.496,-0.093 -0.10853,0 -0.10853,0 -0.20157,0 -0.29443,0 -0.69748,0.093 -0.89896,0.2945 l -9.02104,8.2305 c -0.29443,0.31 -0.40296,0.6975 -0.40296,1.1005 v 8.1375 H 180.9315 c 0,0 11.11355,-11.904 22.81598,-27.59005 0.40304,-0.496 0.496,-0.992 0.496,-1.37947 0,-0.496 -0.20148,-0.89896 -0.29443,-0.992 l -2.18557,-2.18548 c -0.29443,-0.20148 -0.58896,-0.40305 -0.992,-0.40305 -0.58896,0 -13.99643,0 -14.78696,0 -0.69747,0 -1.19347,0.60453 -1.28652,1.19357 0,0 -0.496,7.34696 -3.069,15.37598 -2.5885,8.0445 -5.5645,13.0045 -8.1375,16.6625 0,0 -0.2945,0.496 -0.2945,1.1005 0,0.2015 0,0.38755 0.093,0.58902 0.2945,0.69748 0.992,1.78253 0.992,1.78253 0,0 0.2015,0.60443 1.085,0.60443 h 17.06552"
     id="path1545"
     style="stroke-width:0.992" />
  <path
     class="Tempo"
     d="m 197.13,0 h -3.266 v 42.266 c -1.093,-0.688 -2.484,-1.094 -4.062,-1.281 -3.563,0 -6.438,0.39 -9.609,2.172 -3.954,2.078 -8.313,6.437 -8.313,11.281 0,1.094 0.203,2.187 0.797,3.172 1.281,2.468 4.359,3.859 7.812,3.859 6.938,0 16.641,-5.937 16.641,-13.469 V 0"
     id="path1547" />
  <path
     class="Tempo"
     d="m 218.864,37.953 h 30.235 v -6.906 h -30.235 v 6.906 m 0,12.36 h 30.235 v -6.906 h -30.235 v 6.906 m 74.11,-19.141 c 3.969,-1.5 7.094,-3.844 7.094,-8.578 0,-5.531 -5.235,-9.25 -13.032,-9.25 -9.297,0 -15.297,4.984 -15.297,12.781 0,4.75 2.219,8.219 6.969,10.75 -1.859,0.594 -2.64,0.828 -3.672,1.375 -3,1.563 -4.609,4.313 -4.609,7.797 0,6.485 5.812,10.625 14.937,10.625 9.657,0 16.204,-5.531 16.204,-13.75 0,-5.64 -2.766,-9.359 -8.594,-11.75 m -3.36,-1.265 c -2.515,-0.594 -4.375,-1.141 -5.515,-1.563 -2.75,-1.016 -4.563,-3.469 -4.563,-6.109 0,-3.313 2.766,-5.766 6.485,-5.766 4.015,0 6.547,2.641 6.547,6.844 0,2.703 -1.032,4.984 -2.954,6.594 m -7.671,8.578 c 2.453,0.672 5.453,1.562 6.953,2.047 3.781,1.312 5.218,2.937 5.218,6 0,4.078 -3.359,7.015 -8.093,7.015 -4.86,0 -7.797,-2.875 -7.797,-7.672 0,-3.187 1.015,-5.218 3.719,-7.39 m 38.078,-25.141 c -9,0 -15.594,9.188 -15.594,21.672 0,12.469 6.594,21.656 15.594,21.656 8.812,0 15.547,-9.187 15.547,-21.359 0,-7.078 -1.625,-12.297 -5.172,-16.75 -2.813,-3.406 -6.36,-5.219 -10.375,-5.219 m -0.063,3.125 c 1.797,0 3.25,1.078 3.906,3 0.782,1.984 1.25,8.281 1.25,15.719 0,6.187 -0.468,12.656 -1.015,14.703 -0.656,2.391 -2.094,3.656 -4.141,3.656 -1.859,0 -3.234,-1.015 -3.953,-3 -0.781,-1.984 -1.266,-8.344 -1.266,-15.531 0,-6.313 0.485,-12.844 1.016,-14.891 0.672,-2.39 2.109,-3.656 4.203,-3.656"
     id="path1549" />
  <path
     class="VoltaSegment"
     d="m 603.653,39.327 h -1.922 c -3.468,2.594 -7.375,3.687 -13.921,3.797 v 3.078 h 2.312 c 4.891,0 4.953,0.109 4.891,4.625 v 19.516 c 0,3.406 0,3.578 -0.375,4.125 -0.5,0.609 -1.61,0.828 -4.578,0.828 h -1.75 v 2.968 h 21.937 v -2.968 h -1.766 c -2.906,0 -3.953,-0.219 -4.453,-0.828 -0.375,-0.547 -0.375,-0.766 -0.375,-4.125 V 39.327 m 19.235,29.422 c -2.86,0 -5.172,2.312 -5.172,5.172 0,2.797 2.312,5.172 5.125,5.172 2.906,0 5.219,-2.313 5.219,-5.172 0,-2.86 -2.313,-5.172 -5.172,-5.172"
     id="path1551" />
  <polyline
     class="VoltaSegment"
     fill="none"
     stroke="#000000"
     stroke-width="2.73"
     stroke-linejoin="miter"
     stroke-miterlimit="2"
     points="782.767,629.784 782.767,575.224 970.262,575.224 970.262,629.784"
     id="polyline1553"
     transform="translate(-210.4,-551.52)" />
  <path
     class="VoltaSegment"
     d="m 824.53,63.639 -0.61,2.75 c -0.5,2.204 -0.83,2.907 -1.27,3.188 -0.54,0.391 -0.65,0.391 -4.12,0.437 h -10.61 c 1.92,-1.656 3.36,-2.687 5.5,-4.125 7.75,-5 9.34,-6.218 10.94,-8.25 1.87,-2.468 2.97,-5.39 2.97,-7.968 0,-5.891 -5.77,-10.344 -13.52,-10.344 -7.48,0 -13.27,4.844 -13.27,11.109 0,3.844 2.16,6.328 5.46,6.328 2.86,0 4.67,-1.812 4.67,-4.671 0,-2.375 -1.05,-3.75 -3.58,-4.954 -0.61,-0.281 -0.87,-0.609 -0.87,-1.046 0,-1.766 2.96,-3.625 5.71,-3.625 3.85,0 6.05,2.359 6.05,6.437 0,4.563 -1.76,7.797 -7.59,14.016 -6.16,6.547 -8.3,9.015 -11.05,12.984 v 2.578 c 1.42,-0.156 2.03,-0.219 2.86,-0.219 h 20.67 c 1.05,0 1.71,0.063 3.36,0.219 l 1.27,-14.844 h -2.97 m 13.4,5.11 c -2.85,0 -5.17,2.312 -5.17,5.172 0,2.797 2.32,5.172 5.13,5.172 2.9,0 5.22,-2.313 5.22,-5.172 0,-2.86 -2.32,-5.172 -5.18,-5.172"
     id="path1555" />
  <polyline
     class="VoltaSegment"
     fill="none"
     stroke="#000000"
     stroke-width="2.73"
     stroke-linejoin="miter"
     stroke-miterlimit="2"
     points="994.814,629.784 994.814,575.224 1182.31,575.224"
     id="polyline1557"
     transform="translate(-210.4,-551.52)" />
  <path
     class="VoltaSegment"
     d="m 1029.64,58.03 c 4.69,-1.219 8.86,-3.297 8.86,-8.969 0,-5.828 -5.17,-9.734 -12.99,-9.734 -4.01,0 -7.25,1.047 -9.56,3.078 -1.81,1.594 -2.92,3.906 -2.92,6 0,2.859 2.15,5 4.95,5 2.64,0 4.45,-1.75 4.45,-4.344 0,-1.484 -0.59,-2.64 -2.14,-4.125 -0.28,-0.265 -0.39,-0.437 -0.39,-0.656 0,-1.047 2.05,-2.094 4.19,-2.094 3.47,0 5.5,2.532 5.5,6.828 0,4.782 -1.59,7.688 -4.3,7.688 -0.43,0 -0.98,-0.047 -1.86,-0.266 -1.21,-0.281 -1.59,-0.328 -2.2,-0.328 -1.37,0 -2.03,0.594 -2.03,1.813 0,1.265 0.81,2.093 1.97,2.093 0.39,0 0.72,-0.062 1.66,-0.171 1.26,-0.11 1.59,-0.172 1.98,-0.172 3.41,0 5.11,2.64 5.11,7.812 0,5.563 -2.31,8.688 -6.38,8.688 -2.31,0 -4.73,-1.157 -4.73,-2.313 0,-0.328 0.17,-0.656 0.5,-0.984 1.64,-1.531 2.03,-2.25 2.03,-3.844 0,-2.594 -2.03,-4.562 -4.73,-4.562 -2.97,0 -4.96,2.14 -4.96,5.218 0,5.547 5.39,9.344 13.32,9.344 7.26,0 14.51,-3.016 14.51,-11.375 0,-3.469 -1.53,-6.5 -4.06,-7.984 -1.59,-0.875 -2.86,-1.266 -5.78,-1.641 m 20.34,10.719 c -2.86,0 -5.17,2.312 -5.17,5.172 0,2.797 2.31,5.172 5.12,5.172 2.91,0 5.22,-2.313 5.22,-5.172 0,-2.86 -2.31,-5.172 -5.17,-5.172"
     id="path1559" />
  <polyline
     class="VoltaSegment"
     fill="none"
     stroke="#000000"
     stroke-width="2.73"
     stroke-linejoin="miter"
     stroke-miterlimit="2"
     points="1206.86,629.784 1206.86,575.224 1394.36,575.224 1394.36,629.784"
     id="polyline1561"
     transform="translate(-210.4,-551.52)" />
  <path
     class="VoltaSegment"
     d="m 1810.36,39.327 h -1.92 c -3.47,2.594 -7.38,3.687 -13.93,3.797 v 3.078 h 2.32 c 4.89,0 4.95,0.109 4.89,4.625 v 19.516 c 0,3.406 0,3.578 -0.38,4.125 -0.5,0.609 -1.61,0.828 -4.58,0.828 h -1.75 v 2.968 h 21.94 v -2.968 h -1.76 c -2.91,0 -3.96,-0.219 -4.46,-0.828 -0.37,-0.547 -0.37,-0.766 -0.37,-4.125 V 39.327 m 19.23,29.422 c -2.86,0 -5.17,2.312 -5.17,5.172 0,2.797 2.31,5.172 5.12,5.172 2.91,0 5.22,-2.313 5.22,-5.172 0,-2.86 -2.31,-5.172 -5.17,-5.172"
     id="path1563" />
  <polyline
     class="VoltaSegment"
     fill="none"
     stroke="#000000"
     stroke-width="2.73"
     stroke-linejoin="miter"
     stroke-miterlimit="2"
     points="1989.47,629.784 1989.47,575.224 2176.97,575.224 2176.97,629.784"
     id="polyline1565"
     transform="translate(-210.4,-551.52)" />
  <path
     class="VoltaSegment"
     d="m 2031.23,63.639 -0.61,2.75 c -0.5,2.204 -0.83,2.907 -1.26,3.188 -0.55,0.391 -0.66,0.391 -4.13,0.437 h -10.61 c 1.92,-1.656 3.36,-2.687 5.5,-4.125 7.75,-5 9.35,-6.218 10.94,-8.25 1.88,-2.468 2.97,-5.39 2.97,-7.968 0,-5.891 -5.77,-10.344 -13.52,-10.344 -7.48,0 -13.26,4.844 -13.26,11.109 0,3.844 2.15,6.328 5.45,6.328 2.86,0 4.67,-1.812 4.67,-4.671 0,-2.375 -1.04,-3.75 -3.58,-4.954 -0.6,-0.281 -0.87,-0.609 -0.87,-1.046 0,-1.766 2.97,-3.625 5.72,-3.625 3.84,0 6.05,2.359 6.05,6.437 0,4.563 -1.77,7.797 -7.6,14.016 -6.15,6.547 -8.3,9.015 -11.05,12.984 v 2.578 c 1.43,-0.156 2.04,-0.219 2.86,-0.219 h 20.68 c 1.04,0 1.7,0.063 3.36,0.219 l 1.26,-14.844 h -2.97 m 13.41,5.11 c -2.86,0 -5.17,2.312 -5.17,5.172 0,2.797 2.31,5.172 5.12,5.172 2.91,0 5.22,-2.313 5.22,-5.172 0,-2.86 -2.31,-5.172 -5.17,-5.172"
     id="path1567" />
  <polyline
     class="VoltaSegment"
     fill="none"
     stroke="#000000"
     stroke-width="2.73"
     stroke-linejoin="miter"
     stroke-miterlimit="2"
     points="2201.52,629.784 2201.52,575.224 2389.01,575.224"
     id="polyline1569"
     transform="translate(-210.4,-551.52)" />
  <path
     class="VoltaSegment"
     d="m 2236.34,58.03 c 4.69,-1.219 8.86,-3.297 8.86,-8.969 0,-5.828 -5.17,-9.734 -12.98,-9.734 -4.02,0 -7.25,1.047 -9.57,3.078 -1.81,1.594 -2.92,3.906 -2.92,6 0,2.859 2.16,5 4.96,5 2.64,0 4.45,-1.75 4.45,-4.344 0,-1.484 -0.6,-2.64 -2.14,-4.125 -0.28,-0.265 -0.39,-0.437 -0.39,-0.656 0,-1.047 2.04,-2.094 4.18,-2.094 3.47,0 5.5,2.532 5.5,6.828 0,4.782 -1.59,7.688 -4.29,7.688 -0.44,0 -0.99,-0.047 -1.86,-0.266 -1.22,-0.281 -1.6,-0.328 -2.2,-0.328 -1.38,0 -2.04,0.594 -2.04,1.813 0,1.265 0.82,2.093 1.97,2.093 0.39,0 0.72,-0.062 1.66,-0.171 1.26,-0.11 1.59,-0.172 1.98,-0.172 3.41,0 5.11,2.64 5.11,7.812 0,5.563 -2.31,8.688 -6.37,8.688 -2.31,0 -4.74,-1.157 -4.74,-2.313 0,-0.328 0.18,-0.656 0.5,-0.984 1.64,-1.531 2.03,-2.25 2.03,-3.844 0,-2.594 -2.03,-4.562 -4.73,-4.562 -2.97,0 -4.95,2.14 -4.95,5.218 0,5.547 5.39,9.344 13.31,9.344 7.27,0 14.52,-3.016 14.52,-11.375 0,-3.469 -1.54,-6.5 -4.07,-7.984 -1.59,-0.875 -2.86,-1.266 -5.78,-1.641 m 20.35,10.719 c -2.86,0 -5.18,2.312 -5.18,5.172 0,2.797 2.32,5.172 5.13,5.172 2.9,0 5.22,-2.313 5.22,-5.172 0,-2.86 -2.32,-5.172 -5.17,-5.172"
     id="path1571" />
  <polyline
     class="VoltaSegment"
     fill="none"
     stroke="#000000"
     stroke-width="2.73"
     stroke-linejoin="miter"
     stroke-miterlimit="2"
     points="2413.56,629.784 2413.56,575.224 2601.06,575.224 2601.06,629.784"
     id="polyline1573"
     transform="translate(-210.4,-551.52)" />
  <path
     class="VoltaSegment"
     d="m 3232.65,39.327 h -1.93 c -3.46,2.594 -7.37,3.687 -13.92,3.797 v 3.078 h 2.32 c 4.89,0 4.95,0.109 4.89,4.625 v 19.516 c 0,3.406 0,3.578 -0.38,4.125 -0.5,0.609 -1.61,0.828 -4.58,0.828 h -1.75 v 2.968 h 21.94 v -2.968 h -1.77 c -2.9,0 -3.95,-0.219 -4.45,-0.828 -0.37,-0.547 -0.37,-0.766 -0.37,-4.125 V 39.327 m 19.23,29.422 c -2.86,0 -5.17,2.312 -5.17,5.172 0,2.797 2.31,5.172 5.12,5.172 2.91,0 5.22,-2.313 5.22,-5.172 0,-2.86 -2.31,-5.172 -5.17,-5.172"
     id="path1575" />
  <polyline
     class="VoltaSegment"
     fill="none"
     stroke="#000000"
     stroke-width="2.73"
     stroke-linejoin="miter"
     stroke-miterlimit="2"
     points="3411.76,629.784 3411.76,575.224 3599.26,575.224 3599.26,629.784"
     id="polyline1577"
     transform="translate(-210.4,-551.52)" />
  <path
     class="VoltaSegment"
     d="m 3453.52,63.639 -0.61,2.75 c -0.5,2.204 -0.83,2.907 -1.26,3.188 -0.55,0.391 -0.66,0.391 -4.13,0.437 h -10.61 c 1.92,-1.656 3.36,-2.687 5.5,-4.125 7.75,-5 9.35,-6.218 10.94,-8.25 1.87,-2.468 2.97,-5.39 2.97,-7.968 0,-5.891 -5.77,-10.344 -13.52,-10.344 -7.48,0 -13.26,4.844 -13.26,11.109 0,3.844 2.15,6.328 5.45,6.328 2.86,0 4.67,-1.812 4.67,-4.671 0,-2.375 -1.04,-3.75 -3.58,-4.954 -0.61,-0.281 -0.87,-0.609 -0.87,-1.046 0,-1.766 2.97,-3.625 5.72,-3.625 3.84,0 6.04,2.359 6.04,6.437 0,4.563 -1.76,7.797 -7.59,14.016 -6.16,6.547 -8.3,9.015 -11.05,12.984 v 2.578 c 1.43,-0.156 2.04,-0.219 2.86,-0.219 h 20.68 c 1.04,0 1.7,0.063 3.35,0.219 l 1.27,-14.844 h -2.97 m 13.41,5.11 c -2.86,0 -5.17,2.312 -5.17,5.172 0,2.797 2.31,5.172 5.12,5.172 2.91,0 5.22,-2.313 5.22,-5.172 0,-2.86 -2.31,-5.172 -5.17,-5.172"
     id="path1579" />
  <polyline
     class="VoltaSegment"
     fill="none"
     stroke="#000000"
     stroke-width="2.73"
     stroke-linejoin="miter"
     stroke-miterlimit="2"
     points="3623.81,629.784 3623.81,575.224 3751.39,575.224"
     id="polyline1581"
     transform="translate(-210.4,-551.52)" />
  <path
     class="VoltaSegment"
     d="m 3598.72,58.03 c 4.68,-1.219 8.86,-3.297 8.86,-8.969 0,-5.828 -5.18,-9.734 -12.99,-9.734 -4.01,0 -7.25,1.047 -9.56,3.078 -1.81,1.594 -2.92,3.906 -2.92,6 0,2.859 2.15,5 4.95,5 2.64,0 4.45,-1.75 4.45,-4.344 0,-1.484 -0.59,-2.64 -2.14,-4.125 -0.28,-0.265 -0.39,-0.437 -0.39,-0.656 0,-1.047 2.05,-2.094 4.19,-2.094 3.47,0 5.5,2.532 5.5,6.828 0,4.782 -1.59,7.688 -4.3,7.688 -0.43,0 -0.98,-0.047 -1.86,-0.266 -1.22,-0.281 -1.59,-0.328 -2.2,-0.328 -1.37,0 -2.03,0.594 -2.03,1.813 0,1.265 0.81,2.093 1.97,2.093 0.39,0 0.72,-0.062 1.65,-0.171 1.27,-0.11 1.6,-0.172 1.99,-0.172 3.4,0 5.11,2.64 5.11,7.812 0,5.563 -2.31,8.688 -6.38,8.688 -2.31,0 -4.73,-1.157 -4.73,-2.313 0,-0.328 0.17,-0.656 0.5,-0.984 1.64,-1.531 2.03,-2.25 2.03,-3.844 0,-2.594 -2.03,-4.562 -4.73,-4.562 -2.97,0 -4.96,2.14 -4.96,5.218 0,5.547 5.39,9.344 13.31,9.344 7.27,0 14.52,-3.016 14.52,-11.375 0,-3.469 -1.53,-6.5 -4.06,-7.984 -1.6,-0.875 -2.86,-1.266 -5.78,-1.641 m 20.34,10.719 c -2.86,0 -5.17,2.312 -5.17,5.172 0,2.797 2.31,5.172 5.12,5.172 2.91,0 5.22,-2.313 5.22,-5.172 0,-2.86 -2.31,-5.172 -5.17,-5.172"
     id="path1583" />
  <polyline
     class="VoltaSegment"
     fill="none"
     stroke="#000000"
     stroke-width="2.73"
     stroke-linejoin="miter"
     stroke-miterlimit="2"
     points="3775.94,629.784 3775.94,575.224 3963.43,575.224 3963.43,629.784"
     id="polyline1585"
     transform="translate(-210.4,-551.52)" />
  <path
     class="NoteDot"
     d="m 3490.4,241.828 c 0,2.7745 2.1855,4.96 4.96,4.96 2.7745,0 4.96,-2.1855 4.96,-4.96 0,-2.7745 -2.1855,-4.96 -4.96,-4.96 -2.7745,0 -4.96,2.1855 -4.96,4.96"
     id="path1587"
     style="stroke-width:0.992" />
  <path
     class="NoteDot"
     d="m 3854.58,241.828 c 0,2.7745 2.1855,4.96 4.96,4.96 2.7745,0 4.96,-2.1855 4.96,-4.96 0,-2.7745 -2.1855,-4.96 -4.96,-4.96 -2.7745,0 -4.96,2.1855 -4.96,4.96"
     id="path1589"
     style="stroke-width:0.992" />
</svg>
