<?xml version="1.0" encoding="UTF-8" standalone="no"?>
<svg
   xmlns:dc="http://purl.org/dc/elements/1.1/"
   xmlns:cc="http://creativecommons.org/ns#"
   xmlns:rdf="http://www.w3.org/1999/02/22-rdf-syntax-ns#"
   xmlns:svg="http://www.w3.org/2000/svg"
   xmlns="http://www.w3.org/2000/svg"
   xmlns:sodipodi="http://sodipodi.sourceforge.net/DTD/sodipodi-0.dtd"
   xmlns:inkscape="http://www.inkscape.org/namespaces/inkscape"
   width="173.50883mm"
   height="36.539371mm"
   viewBox="0 0 2459.1837 517.88086"
   version="1.2"
   id="svg4969"
   sodipodi:docname="Dossium Canto Pesters Musica.svg"
   inkscape:version="1.0.2-2 (e86c870879, 2021-01-15)">
  <metadata
     id="metadata4975">
    <rdf:RDF>
      <cc:Work
         rdf:about="">
        <dc:format>image/svg+xml</dc:format>
        <dc:type
           rdf:resource="http://purl.org/dc/dcmitype/StillImage" />
      </cc:Work>
    </rdf:RDF>
  </metadata>
  <defs
     id="defs4973" />
  <sodipodi:namedview
     pagecolor="#ffffff"
     bordercolor="#666666"
     borderopacity="1"
     objecttolerance="10"
     gridtolerance="10"
     guidetolerance="10"
     inkscape:pageopacity="0"
     inkscape:pageshadow="2"
     inkscape:window-width="1920"
     inkscape:window-height="991"
     id="namedview4971"
     showgrid="false"
     inkscape:zoom="0.70484033"
     inkscape:cx="315.51387"
     inkscape:cy="414.15704"
     inkscape:window-x="-9"
     inkscape:window-y="-9"
     inkscape:window-maximized="1"
     inkscape:current-layer="svg4969" />
  <title
     id="title4559">Dossium Canto Pesters Musica</title>
  <desc
     id="desc4561">Generated by MuseScore Studio 4.5.1</desc>
  <polyline
     class="StaffLines"
     fill="none"
     stroke="#000000"
     stroke-width="2.73"
     stroke-linejoin="bevel"
     points="336.599,634.198 2764.6,634.198"
     id="polyline4563"
     transform="translate(-305.41636,-551.11183)" />
  <polyline
     class="StaffLines"
     fill="none"
     stroke="#000000"
     stroke-width="2.73"
     stroke-linejoin="bevel"
     points="336.599,658.998 2764.6,658.998"
     id="polyline4565"
     transform="translate(-305.41636,-551.11183)" />
  <polyline
     class="StaffLines"
     fill="none"
     stroke="#000000"
     stroke-width="2.73"
     stroke-linejoin="bevel"
     points="336.599,683.798 2764.6,683.798"
     id="polyline4567"
     transform="translate(-305.41636,-551.11183)" />
  <polyline
     class="StaffLines"
     fill="none"
     stroke="#000000"
     stroke-width="2.73"
     stroke-linejoin="bevel"
     points="336.599,708.598 2764.6,708.598"
     id="polyline4569"
     transform="translate(-305.41636,-551.11183)" />
  <polyline
     class="StaffLines"
     fill="none"
     stroke="#000000"
     stroke-width="2.73"
     stroke-linejoin="bevel"
     points="336.599,733.398 2764.6,733.398"
     id="polyline4571"
     transform="translate(-305.41636,-551.11183)" />
  <polyline
     class="StaffLines"
     fill="none"
     stroke="#000000"
     stroke-width="2.73"
     stroke-linejoin="bevel"
     points="336.599,894.599 2764.6,894.599"
     id="polyline4573"
     transform="translate(-305.41636,-551.11183)" />
  <polyline
     class="StaffLines"
     fill="none"
     stroke="#000000"
     stroke-width="2.73"
     stroke-linejoin="bevel"
     points="336.599,919.399 2764.6,919.399"
     id="polyline4575"
     transform="translate(-305.41636,-551.11183)" />
  <polyline
     class="StaffLines"
     fill="none"
     stroke="#000000"
     stroke-width="2.73"
     stroke-linejoin="bevel"
     points="336.599,944.199 2764.6,944.199"
     id="polyline4577"
     transform="translate(-305.41636,-551.11183)" />
  <polyline
     class="StaffLines"
     fill="none"
     stroke="#000000"
     stroke-width="2.73"
     stroke-linejoin="bevel"
     points="336.599,968.999 2764.6,968.999"
     id="polyline4579"
     transform="translate(-305.41636,-551.11183)" />
  <polyline
     class="StaffLines"
     fill="none"
     stroke="#000000"
     stroke-width="2.73"
     stroke-linejoin="bevel"
     points="336.599,993.799 2764.6,993.799"
     id="polyline4581"
     transform="translate(-305.41636,-551.11183)" />
  <path
     class="TieSegment"
     stroke="#000000"
     stroke-width="1.24"
     stroke-linecap="round"
     stroke-linejoin="round"
     fill-rule="evenodd"
     d="m 1460.9336,114.59017 c 19.98,-25.007997 79.94,-25.007997 99.92,0 -19.98,-17.071997 -79.94,-17.071997 -99.92,0"
     id="path4591" />
  <path
     class="TieSegment"
     stroke="#000000"
     stroke-width="1.24"
     stroke-linecap="round"
     stroke-linejoin="round"
     fill-rule="evenodd"
     d="m 2103.4936,114.59017 c 19.98,-25.007997 79.94,-25.007997 99.93,0 -19.99,-17.071997 -79.95,-17.071997 -99.93,0"
     id="path4593" />
  <polyline
     class="BarLine"
     fill="none"
     stroke="#000000"
     stroke-width="4.46"
     stroke-linejoin="bevel"
     points="338.831,632.834 338.831,894.599"
     id="polyline4595"
     transform="translate(-305.41636,-551.11183)" />
  <polyline
     class="BarLine"
     fill="none"
     stroke="#000000"
     stroke-width="4.46"
     stroke-linejoin="bevel"
     points="1817.47,632.834 1817.47,894.599"
     id="polyline4597"
     transform="translate(-305.41636,-551.11183)" />
  <polyline
     class="BarLine"
     fill="none"
     stroke="#000000"
     stroke-width="4.46"
     stroke-linejoin="bevel"
     points="2739.55,632.834 2739.55,894.599"
     id="polyline4599"
     transform="translate(-305.41636,-551.11183)" />
  <polyline
     class="BarLine"
     fill="none"
     stroke="#000000"
     stroke-width="13.64"
     stroke-linejoin="bevel"
     points="2757.78,632.834 2757.78,894.599"
     id="polyline4601"
     transform="translate(-305.41636,-551.11183)" />
  <polyline
     class="BarLine"
     fill="none"
     stroke="#000000"
     stroke-width="4.46"
     stroke-linejoin="bevel"
     points="1198.18,632.834 1198.18,894.599"
     id="polyline4603"
     transform="translate(-305.41636,-551.11183)" />
  <polyline
     class="BarLine"
     fill="none"
     stroke="#000000"
     stroke-width="4.46"
     stroke-linejoin="bevel"
     points="1498.32,632.834 1498.32,894.599"
     id="polyline4605"
     transform="translate(-305.41636,-551.11183)" />
  <polyline
     class="BarLine"
     fill="none"
     stroke="#000000"
     stroke-width="4.46"
     stroke-linejoin="bevel"
     points="2460.03,632.834 2460.03,894.599"
     id="polyline4607"
     transform="translate(-305.41636,-551.11183)" />
  <path
     class="BarLine"
     d="m 1820.2767,120.28617 c 0,-2.883 -2.2941,-5.25451 -5.1615,-5.25451 -2.8831,0 -5.1616,2.37151 -5.1616,5.25451 0,2.88301 2.2785,5.25451 5.1616,5.25451 2.8674,0 5.1615,-2.3715 5.1615,-5.25451"
     id="path4609"
     style="stroke-width:0.992001" />
  <path
     class="BarLine"
     d="m 1820.2767,145.08617 c 0,-2.883 -2.2941,-5.25451 -5.1615,-5.25451 -2.8831,0 -5.1616,2.37151 -5.1616,5.25451 0,2.88301 2.2785,5.25451 5.1616,5.25451 2.8674,0 5.1615,-2.3715 5.1615,-5.25451"
     id="path4611"
     style="stroke-width:0.992001" />
  <polyline
     class="BarLine"
     fill="none"
     stroke="#000000"
     stroke-width="4.46"
     stroke-linejoin="bevel"
     points="2137.08,632.834 2137.08,894.599"
     id="polyline4613"
     transform="translate(-305.41636,-551.11183)" />
  <polyline
     class="BarLine"
     fill="none"
     stroke="#000000"
     stroke-width="13.64"
     stroke-linejoin="bevel"
     points="2155.31,632.834 2155.31,894.599"
     id="polyline4615"
     transform="translate(-305.41636,-551.11183)" />
  <polyline
     class="BarLine"
     fill="none"
     stroke="#000000"
     stroke-width="13.64"
     stroke-linejoin="bevel"
     points="860.341,632.834 860.341,894.599"
     id="polyline4617"
     transform="translate(-305.41636,-551.11183)" />
  <polyline
     class="BarLine"
     fill="none"
     stroke="#000000"
     stroke-width="4.46"
     stroke-linejoin="bevel"
     points="878.569,632.834 878.569,894.599"
     id="polyline4619"
     transform="translate(-305.41636,-551.11183)" />
  <path
     class="BarLine"
     d="m 594.8837,120.28617 c 0,-2.883 -2.29405,-5.25451 -5.16155,-5.25451 -2.883,0 -5.16151,2.37151 -5.16151,5.25451 0,2.88301 2.27851,5.25451 5.16151,5.25451 2.8675,0 5.16155,-2.3715 5.16155,-5.25451"
     id="path4621"
     style="stroke-width:0.992001" />
  <path
     class="BarLine"
     d="m 594.8837,145.08617 c 0,-2.883 -2.29405,-5.25451 -5.16155,-5.25451 -2.883,0 -5.16151,2.37151 -5.16151,5.25451 0,2.88301 2.27851,5.25451 5.16151,5.25451 2.8675,0 5.16155,-2.3715 5.16155,-5.25451"
     id="path4623"
     style="stroke-width:0.992001" />
  <polyline
     class="BarLine"
     fill="none"
     stroke="#000000"
     stroke-width="4.46"
     stroke-linejoin="bevel"
     points="2739.55,893.235 2739.55,995.163"
     id="polyline4625"
     transform="translate(-305.41636,-551.11183)" />
  <polyline
     class="BarLine"
     fill="none"
     stroke="#000000"
     stroke-width="13.64"
     stroke-linejoin="bevel"
     points="2757.78,893.235 2757.78,995.163"
     id="polyline4627"
     transform="translate(-305.41636,-551.11183)" />
  <polyline
     class="BarLine"
     fill="none"
     stroke="#000000"
     stroke-width="4.46"
     stroke-linejoin="bevel"
     points="2460.03,893.235 2460.03,995.163"
     id="polyline4629"
     transform="translate(-305.41636,-551.11183)" />
  <polyline
     class="BarLine"
     fill="none"
     stroke="#000000"
     stroke-width="4.46"
     stroke-linejoin="bevel"
     points="338.831,893.235 338.831,995.163"
     id="polyline4631"
     transform="translate(-305.41636,-551.11183)" />
  <polyline
     class="BarLine"
     fill="none"
     stroke="#000000"
     stroke-width="4.46"
     stroke-linejoin="bevel"
     points="1498.32,893.235 1498.32,995.163"
     id="polyline4633"
     transform="translate(-305.41636,-551.11183)" />
  <polyline
     class="BarLine"
     fill="none"
     stroke="#000000"
     stroke-width="4.46"
     stroke-linejoin="bevel"
     points="1817.47,893.235 1817.47,995.163"
     id="polyline4635"
     transform="translate(-305.41636,-551.11183)" />
  <path
     class="BarLine"
     d="m 1820.2767,380.68717 c 0,-2.883 -2.2941,-5.25451 -5.1615,-5.25451 -2.8831,0 -5.1616,2.37151 -5.1616,5.25451 0,2.88301 2.2785,5.25451 5.1616,5.25451 2.8674,0 5.1615,-2.3715 5.1615,-5.25451"
     id="path4637"
     style="stroke-width:0.992001" />
  <path
     class="BarLine"
     d="m 1820.2767,405.48717 c 0,-2.883 -2.2941,-5.25451 -5.1615,-5.25451 -2.8831,0 -5.1616,2.37151 -5.1616,5.25451 0,2.88301 2.2785,5.25451 5.1616,5.25451 2.8674,0 5.1615,-2.3715 5.1615,-5.25451"
     id="path4639"
     style="stroke-width:0.992001" />
  <polyline
     class="BarLine"
     fill="none"
     stroke="#000000"
     stroke-width="4.46"
     stroke-linejoin="bevel"
     points="2137.08,893.235 2137.08,995.163"
     id="polyline4641"
     transform="translate(-305.41636,-551.11183)" />
  <polyline
     class="BarLine"
     fill="none"
     stroke="#000000"
     stroke-width="13.64"
     stroke-linejoin="bevel"
     points="2155.31,893.235 2155.31,995.163"
     id="polyline4643"
     transform="translate(-305.41636,-551.11183)" />
  <polyline
     class="BarLine"
     fill="none"
     stroke="#000000"
     stroke-width="4.46"
     stroke-linejoin="bevel"
     points="1198.18,893.235 1198.18,995.163"
     id="polyline4645"
     transform="translate(-305.41636,-551.11183)" />
  <polyline
     class="BarLine"
     fill="none"
     stroke="#000000"
     stroke-width="13.64"
     stroke-linejoin="bevel"
     points="860.341,893.235 860.341,995.163"
     id="polyline4647"
     transform="translate(-305.41636,-551.11183)" />
  <polyline
     class="BarLine"
     fill="none"
     stroke="#000000"
     stroke-width="4.46"
     stroke-linejoin="bevel"
     points="878.569,893.235 878.569,995.163"
     id="polyline4649"
     transform="translate(-305.41636,-551.11183)" />
  <path
     class="BarLine"
     d="m 594.8837,380.68717 c 0,-2.883 -2.29405,-5.25451 -5.16155,-5.25451 -2.883,0 -5.16151,2.37151 -5.16151,5.25451 0,2.88301 2.27851,5.25451 5.16151,5.25451 2.8675,0 5.16155,-2.3715 5.16155,-5.25451"
     id="path4651"
     style="stroke-width:0.992001" />
  <path
     class="BarLine"
     d="m 594.8837,405.48717 c 0,-2.883 -2.29405,-5.25451 -5.16155,-5.25451 -2.883,0 -5.16151,2.37151 -5.16151,5.25451 0,2.88301 2.27851,5.25451 5.16151,5.25451 2.8675,0 5.16155,-2.3715 5.16155,-5.25451"
     id="path4653"
     style="stroke-width:0.992001" />
  <polyline
     class="LedgerLine"
     fill="none"
     stroke="#000000"
     stroke-width="3.97"
     stroke-linejoin="bevel"
     points="772.121,758.199 820.714,758.199"
     id="polyline4655"
     transform="translate(-305.41636,-551.11183)" />
  <polyline
     class="LedgerLine"
     fill="none"
     stroke="#000000"
     stroke-width="3.97"
     stroke-linejoin="bevel"
     points="772.121,782.999 820.714,782.999"
     id="polyline4657"
     transform="translate(-305.41636,-551.11183)" />
  <polyline
     class="LedgerLine"
     fill="none"
     stroke="#000000"
     stroke-width="3.97"
     stroke-linejoin="bevel"
     points="625.689,758.199 674.282,758.199"
     id="polyline4659"
     transform="translate(-305.41636,-551.11183)" />
  <polyline
     class="LedgerLine"
     fill="none"
     stroke="#000000"
     stroke-width="3.97"
     stroke-linejoin="bevel"
     points="2582.7,758.199 2631.29,758.199"
     id="polyline4661"
     transform="translate(-305.41636,-551.11183)" />
  <polyline
     class="LedgerLine"
     fill="none"
     stroke="#000000"
     stroke-width="3.97"
     stroke-linejoin="bevel"
     points="625.689,782.999 674.282,782.999"
     id="polyline4663"
     transform="translate(-305.41636,-551.11183)" />
  <polyline
     class="LedgerLine"
     fill="none"
     stroke="#000000"
     stroke-width="3.97"
     stroke-linejoin="bevel"
     points="2582.7,782.999 2631.29,782.999"
     id="polyline4665"
     transform="translate(-305.41636,-551.11183)" />
  <polyline
     class="LedgerLine"
     fill="none"
     stroke="#000000"
     stroke-width="3.97"
     stroke-linejoin="bevel"
     points="772.121,1018.6 820.714,1018.6"
     id="polyline4667"
     transform="translate(-305.41636,-551.11183)" />
  <polyline
     class="LedgerLine"
     fill="none"
     stroke="#000000"
     stroke-width="3.97"
     stroke-linejoin="bevel"
     points="772.121,1043.4 820.714,1043.4"
     id="polyline4669"
     transform="translate(-305.41636,-551.11183)" />
  <polyline
     class="Stem"
     fill="none"
     stroke="#000000"
     stroke-width="2.48"
     stroke-linejoin="bevel"
     points="932.525,687.965 932.525,758.199"
     id="polyline4671"
     transform="translate(-305.41636,-551.11183)" />
  <polyline
     class="Stem"
     fill="none"
     stroke="#000000"
     stroke-width="2.48"
     stroke-linejoin="bevel"
     points="1354.68,687.965 1354.68,758.199"
     id="polyline4673"
     transform="translate(-305.41636,-551.11183)" />
  <polyline
     class="Stem"
     fill="none"
     stroke="#000000"
     stroke-width="2.48"
     stroke-linejoin="bevel"
     points="1427.9,687.965 1427.9,764.299"
     id="polyline4675"
     transform="translate(-305.41636,-551.11183)" />
  <polyline
     class="Stem"
     fill="none"
     stroke="#000000"
     stroke-width="2.48"
     stroke-linejoin="bevel"
     points="1551.81,675.565 1551.81,751.899"
     id="polyline4677"
     transform="translate(-305.41636,-551.11183)" />
  <polyline
     class="Stem"
     fill="none"
     stroke="#000000"
     stroke-width="2.48"
     stroke-linejoin="bevel"
     points="2543.31,663.165 2543.31,745.948"
     id="polyline4679"
     transform="translate(-305.41636,-551.11183)" />
  <polyline
     class="Stem"
     fill="none"
     stroke="#000000"
     stroke-width="2.48"
     stroke-linejoin="bevel"
     points="1005.74,687.965 1005.74,764.299"
     id="polyline4681"
     transform="translate(-305.41636,-551.11183)" />
  <polyline
     class="Stem"
     fill="none"
     stroke="#000000"
     stroke-width="2.48"
     stroke-linejoin="bevel"
     points="1673.83,675.565 1673.83,751.999"
     id="polyline4683"
     transform="translate(-305.41636,-551.11183)" />
  <polyline
     class="Stem"
     fill="none"
     stroke="#000000"
     stroke-width="2.48"
     stroke-linejoin="bevel"
     points="664.858,791.431 664.858,559.798"
     id="polyline4685"
     transform="translate(-305.41636,-551.11183)" />
  <polyline
     class="Stem"
     fill="none"
     stroke="#000000"
     stroke-width="2.48"
     stroke-linejoin="bevel"
     points="1747.05,687.965 1747.05,764.299"
     id="polyline4687"
     transform="translate(-305.41636,-551.11183)" />
  <polyline
     class="Stem"
     fill="none"
     stroke="#000000"
     stroke-width="2.48"
     stroke-linejoin="bevel"
     points="1851.94,687.965 1851.94,764.299"
     id="polyline4689"
     transform="translate(-305.41636,-551.11183)" />
  <polyline
     class="Stem"
     fill="none"
     stroke="#000000"
     stroke-width="2.48"
     stroke-linejoin="bevel"
     points="1900.75,663.165 1900.75,745.799"
     id="polyline4691"
     transform="translate(-305.41636,-551.11183)" />
  <polyline
     class="Stem"
     fill="none"
     stroke="#000000"
     stroke-width="2.48"
     stroke-linejoin="bevel"
     points="1054.55,687.965 1054.55,758.199"
     id="polyline4693"
     transform="translate(-305.41636,-551.11183)" />
  <polyline
     class="Stem"
     fill="none"
     stroke="#000000"
     stroke-width="2.48"
     stroke-linejoin="bevel"
     points="1973.97,675.565 1973.97,751.999"
     id="polyline4695"
     transform="translate(-305.41636,-551.11183)" />
  <polyline
     class="Stem"
     fill="none"
     stroke="#000000"
     stroke-width="2.48"
     stroke-linejoin="bevel"
     points="2047.18,687.965 2047.18,764.299"
     id="polyline4697"
     transform="translate(-305.41636,-551.11183)" />
  <polyline
     class="Stem"
     fill="none"
     stroke="#000000"
     stroke-width="2.48"
     stroke-linejoin="bevel"
     points="1600.62,663.165 1600.62,745.799"
     id="polyline4699"
     transform="translate(-305.41636,-551.11183)" />
  <polyline
     class="Stem"
     fill="none"
     stroke="#000000"
     stroke-width="2.48"
     stroke-linejoin="bevel"
     points="2194.37,675.565 2194.37,751.899"
     id="polyline4701"
     transform="translate(-305.41636,-551.11183)" />
  <polyline
     class="Stem"
     fill="none"
     stroke="#000000"
     stroke-width="2.48"
     stroke-linejoin="bevel"
     points="2243.18,663.165 2243.18,745.799"
     id="polyline4703"
     transform="translate(-305.41636,-551.11183)" />
  <polyline
     class="Stem"
     fill="none"
     stroke="#000000"
     stroke-width="2.48"
     stroke-linejoin="bevel"
     points="2316.4,675.565 2316.4,751.999"
     id="polyline4705"
     transform="translate(-305.41636,-551.11183)" />
  <polyline
     class="Stem"
     fill="none"
     stroke="#000000"
     stroke-width="2.48"
     stroke-linejoin="bevel"
     points="2389.61,687.965 2389.61,764.299"
     id="polyline4707"
     transform="translate(-305.41636,-551.11183)" />
  <polyline
     class="Stem"
     fill="none"
     stroke="#000000"
     stroke-width="2.48"
     stroke-linejoin="bevel"
     points="811.29,791.431 811.29,584.598"
     id="polyline4709"
     transform="translate(-305.41636,-551.11183)" />
  <polyline
     class="Stem"
     fill="none"
     stroke="#000000"
     stroke-width="2.48"
     stroke-linejoin="bevel"
     points="1127.77,687.965 1127.77,764.299"
     id="polyline4711"
     transform="translate(-305.41636,-551.11183)" />
  <polyline
     class="Stem"
     fill="none"
     stroke="#000000"
     stroke-width="2.48"
     stroke-linejoin="bevel"
     points="2494.5,687.965 2494.5,751.849"
     id="polyline4713"
     transform="translate(-305.41636,-551.11183)" />
  <polyline
     class="Stem"
     fill="none"
     stroke="#000000"
     stroke-width="2.48"
     stroke-linejoin="bevel"
     points="1232.66,687.965 1232.66,758.199"
     id="polyline4715"
     transform="translate(-305.41636,-551.11183)" />
  <polyline
     class="Stem"
     fill="none"
     stroke="#000000"
     stroke-width="2.48"
     stroke-linejoin="bevel"
     points="2621.87,791.431 2621.87,609.398"
     id="polyline4717"
     transform="translate(-305.41636,-551.11183)" />
  <polyline
     class="Stem"
     fill="none"
     stroke="#000000"
     stroke-width="2.48"
     stroke-linejoin="bevel"
     points="1305.87,687.965 1305.87,764.299"
     id="polyline4719"
     transform="translate(-305.41636,-551.11183)" />
  <polyline
     class="Stem"
     fill="none"
     stroke="#000000"
     stroke-width="2.48"
     stroke-linejoin="bevel"
     points="738.074,989.831 738.074,882.199"
     id="polyline4721"
     transform="translate(-305.41636,-551.11183)" />
  <polyline
     class="Stem"
     fill="none"
     stroke="#000000"
     stroke-width="2.48"
     stroke-linejoin="bevel"
     points="1421.04,989.831 1421.04,869.799"
     id="polyline4723"
     transform="translate(-305.41636,-551.11183)" />
  <polyline
     class="Stem"
     fill="none"
     stroke="#000000"
     stroke-width="2.48"
     stroke-linejoin="bevel"
     points="1551.81,935.965 1551.81,1012.4"
     id="polyline4725"
     transform="translate(-305.41636,-551.11183)" />
  <polyline
     class="Stem"
     fill="none"
     stroke="#000000"
     stroke-width="2.48"
     stroke-linejoin="bevel"
     points="932.525,948.365 932.525,1018.6"
     id="polyline4727"
     transform="translate(-305.41636,-551.11183)" />
  <polyline
     class="Stem"
     fill="none"
     stroke="#000000"
     stroke-width="2.48"
     stroke-linejoin="bevel"
     points="2040.32,1002.23 2040.32,863.599"
     id="polyline4729"
     transform="translate(-305.41636,-551.11183)" />
  <polyline
     class="Stem"
     fill="none"
     stroke="#000000"
     stroke-width="2.48"
     stroke-linejoin="bevel"
     points="2382.75,989.831 2382.75,863.599"
     id="polyline4731"
     transform="translate(-305.41636,-551.11183)" />
  <polyline
     class="Stem"
     fill="none"
     stroke="#000000"
     stroke-width="2.48"
     stroke-linejoin="bevel"
     points="2194.37,935.965 2194.37,1012.4"
     id="polyline4733"
     transform="translate(-305.41636,-551.11183)" />
  <polyline
     class="Stem"
     fill="none"
     stroke="#000000"
     stroke-width="2.48"
     stroke-linejoin="bevel"
     points="1035.49,965.031 1035.49,869.799"
     id="polyline4735"
     transform="translate(-305.41636,-551.11183)" />
  <polyline
     class="Stem"
     fill="none"
     stroke="#000000"
     stroke-width="2.48"
     stroke-linejoin="bevel"
     points="1740.19,989.831 1740.19,863.599"
     id="polyline4737"
     transform="translate(-305.41636,-551.11183)" />
  <polyline
     class="Stem"
     fill="none"
     stroke="#000000"
     stroke-width="2.48"
     stroke-linejoin="bevel"
     points="2279.79,923.565 2279.79,1024.8"
     id="polyline4739"
     transform="translate(-305.41636,-551.11183)" />
  <polyline
     class="Stem"
     fill="none"
     stroke="#000000"
     stroke-width="2.48"
     stroke-linejoin="bevel"
     points="1851.94,948.365 1851.94,1018.6"
     id="polyline4741"
     transform="translate(-305.41636,-551.11183)" />
  <polyline
     class="Stem"
     fill="none"
     stroke="#000000"
     stroke-width="2.48"
     stroke-linejoin="bevel"
     points="1120.9,989.831 1120.9,869.799"
     id="polyline4743"
     transform="translate(-305.41636,-551.11183)" />
  <polyline
     class="Stem"
     fill="none"
     stroke="#000000"
     stroke-width="2.48"
     stroke-linejoin="bevel"
     points="664.858,989.831 664.858,882.199"
     id="polyline4745"
     transform="translate(-305.41636,-551.11183)" />
  <polyline
     class="Stem"
     fill="none"
     stroke="#000000"
     stroke-width="2.48"
     stroke-linejoin="bevel"
     points="1232.66,948.365 1232.66,1018.6"
     id="polyline4747"
     transform="translate(-305.41636,-551.11183)" />
  <polyline
     class="Stem"
     fill="none"
     stroke="#000000"
     stroke-width="2.48"
     stroke-linejoin="bevel"
     points="2695.08,989.831 2695.08,869.799"
     id="polyline4749"
     transform="translate(-305.41636,-551.11183)" />
  <polyline
     class="Stem"
     fill="none"
     stroke="#000000"
     stroke-width="2.48"
     stroke-linejoin="bevel"
     points="1335.62,965.031 1335.62,869.799"
     id="polyline4751"
     transform="translate(-305.41636,-551.11183)" />
  <polyline
     class="Stem"
     fill="none"
     stroke="#000000"
     stroke-width="2.48"
     stroke-linejoin="bevel"
     points="1937.36,923.565 1937.36,1024.8"
     id="polyline4753"
     transform="translate(-305.41636,-551.11183)" />
  <polyline
     class="Stem"
     fill="none"
     stroke="#000000"
     stroke-width="2.48"
     stroke-linejoin="bevel"
     points="1637.23,923.565 1637.23,1024.8"
     id="polyline4755"
     transform="translate(-305.41636,-551.11183)" />
  <polyline
     class="Stem"
     fill="none"
     stroke="#000000"
     stroke-width="2.48"
     stroke-linejoin="bevel"
     points="2494.5,948.365 2494.5,1018.6"
     id="polyline4757"
     transform="translate(-305.41636,-551.11183)" />
  <polyline
     class="Stem"
     fill="none"
     stroke="#000000"
     stroke-width="2.48"
     stroke-linejoin="bevel"
     points="811.29,1051.83 811.29,844.999"
     id="polyline4759"
     transform="translate(-305.41636,-551.11183)" />
  <polyline
     class="Stem"
     fill="none"
     stroke="#000000"
     stroke-width="2.48"
     stroke-linejoin="bevel"
     points="2621.87,965.031 2621.87,863.599"
     id="polyline4761"
     transform="translate(-305.41636,-551.11183)" />
  <path
     class="Hook"
     d="m 821.11364,213.19417 c 0,0.682 0.589,1.28651 1.28651,1.28651 0.496,0 1.10049,-0.40301 1.19349,-0.79051 0,-0.1085 0.89901,-3.58051 0.99201,-3.875 0.093,-0.403 0.992,-4.16951 4.557,-10.01306 3.875,-6.44801 9.82701,-11.11349 14.78701,-18.05749 4.86706,-6.94401 7.84306,-13.50054 7.84306,-22.22698 0,-9.02106 -2.09252,-16.56959 -7.34705,-26.19507 -0.29453,-0.69748 -0.89896,-1.08495 -1.48801,-1.08495 -0.20147,0 -0.40295,0 -0.496,0.093 -0.496,0.20147 -0.69747,0.60452 -0.69747,1.19347 0,0.29453 0.10852,0.79053 0.29452,1.19358 3.96801,9.22243 5.56443,14.47696 5.56443,21.62245 0,8.23053 -2.88295,12.50853 -4.66548,15.57759 -6.448,11.00496 -16.86401,16.36801 -21.03352,17.76296 -0.6975,0.29453 -0.7905,0.79053 -0.7905,1.08506 v 22.42849"
     id="path4763"
     style="stroke-width:0.992001" />
  <path
     class="Hook"
     d="m 1440.3936,213.19417 c 0,0.682 0.589,1.28651 1.2865,1.28651 0.496,0 1.1005,-0.40301 1.1935,-0.79051 0,-0.1085 0.899,-3.58051 0.992,-3.875 0.093,-0.403 0.992,-4.16951 4.557,-10.01306 3.8751,-6.44801 9.8271,-11.11349 14.7871,-18.05749 4.867,-6.94401 7.843,-13.50054 7.843,-22.22698 0,-9.02106 -2.0925,-16.56959 -7.347,-26.19507 -0.2946,-0.69748 -0.899,-1.08495 -1.488,-1.08495 -0.2015,0 -0.403,0 -0.496,0.093 -0.496,0.20147 -0.6975,0.60452 -0.6975,1.19347 0,0.29453 0.1085,0.79053 0.2945,1.19358 3.968,9.22243 5.5644,14.47696 5.5644,21.62245 0,8.23053 -2.8829,12.50853 -4.6654,15.57759 -6.448,11.00496 -16.8641,16.36801 -21.0336,17.76296 -0.6975,0.29453 -0.7905,0.79053 -0.7905,1.08506 v 22.42849"
     id="path4765"
     style="stroke-width:0.992001" />
  <path
     class="Hook"
     d="m 1740.5236,213.19417 c 0,0.682 0.589,1.28651 1.2865,1.28651 0.496,0 1.1005,-0.40301 1.1935,-0.79051 0,-0.1085 0.899,-3.58051 0.992,-3.875 0.093,-0.403 0.992,-4.16951 4.557,-10.01306 3.8751,-6.44801 9.8271,-11.11349 14.7871,-18.05749 4.867,-6.94401 7.843,-13.50054 7.843,-22.22698 0,-9.02106 -2.0925,-16.56959 -7.347,-26.19507 -0.2946,-0.69748 -0.899,-1.08495 -1.488,-1.08495 -0.2015,0 -0.403,0 -0.496,0.093 -0.496,0.20147 -0.6975,0.60452 -0.6975,1.19347 0,0.29453 0.1085,0.79053 0.2945,1.19358 3.968,9.22243 5.5644,14.47696 5.5644,21.62245 0,8.23053 -2.8829,12.50853 -4.6654,15.57759 -6.448,11.00496 -16.8641,16.36801 -21.0336,17.76296 -0.6975,0.29453 -0.7905,0.79053 -0.7905,1.08506 v 22.42849"
     id="path4767"
     style="stroke-width:0.992001" />
  <path
     class="Hook"
     d="m 1121.2436,213.19417 c 0,0.682 0.589,1.28651 1.2865,1.28651 0.496,0 1.1005,-0.40301 1.1935,-0.79051 0,-0.1085 0.899,-3.58051 0.992,-3.875 0.093,-0.403 0.992,-4.16951 4.557,-10.01306 3.8751,-6.44801 9.8271,-11.11349 14.7871,-18.05749 4.867,-6.94401 7.843,-13.50054 7.843,-22.22698 0,-9.02106 -2.0925,-16.56959 -7.347,-26.19507 -0.2946,-0.69748 -0.899,-1.08495 -1.488,-1.08495 -0.2015,0 -0.403,0 -0.496,0.093 -0.496,0.20147 -0.6975,0.60452 -0.6975,1.19347 0,0.29453 0.1085,0.79053 0.2945,1.19358 3.968,9.22243 5.5644,14.47696 5.5644,21.62245 0,8.23053 -2.8829,12.50853 -4.6654,15.57759 -6.448,11.00496 -16.8641,16.36801 -21.0336,17.76296 -0.6975,0.29453 -0.7905,0.79053 -0.7905,1.08506 v 22.42849"
     id="path4769"
     style="stroke-width:0.992001" />
  <path
     class="Hook"
     d="m 1887.7136,200.79417 c 0,0.682 0.589,1.28651 1.2865,1.28651 0.496,0 1.1005,-0.40301 1.1935,-0.79051 0,-0.1085 0.899,-3.58051 0.992,-3.875 0.093,-0.403 0.992,-4.16951 4.557,-10.01306 3.8751,-6.44801 9.8271,-11.11349 14.7871,-18.05749 4.867,-6.94401 7.843,-13.50054 7.843,-22.22698 0,-9.02106 -2.0925,-16.56959 -7.347,-26.19507 -0.2946,-0.69748 -0.899,-1.08495 -1.488,-1.08495 -0.2015,0 -0.403,0 -0.496,0.093 -0.496,0.20147 -0.6975,0.60452 -0.6975,1.19347 0,0.29453 0.1085,0.79053 0.2945,1.19358 3.968,9.22243 5.5644,14.47696 5.5644,21.62245 0,8.23053 -2.8829,12.50853 -4.6654,15.57759 -6.448,11.00496 -16.8641,16.36801 -21.0336,17.76296 -0.6975,0.29453 -0.7905,0.79053 -0.7905,1.08506 v 22.42849"
     id="path4771"
     style="stroke-width:0.992001" />
  <path
     class="Hook"
     d="m 2082.9536,213.19417 c 0,0.682 0.589,1.28651 1.2865,1.28651 0.496,0 1.1005,-0.40301 1.1935,-0.79051 0,-0.1085 0.899,-3.58051 0.992,-3.875 0.093,-0.403 0.992,-4.16951 4.557,-10.01306 3.8751,-6.44801 9.8271,-11.11349 14.7871,-18.05749 4.867,-6.94401 7.843,-13.50054 7.843,-22.22698 0,-9.02106 -2.0925,-16.56959 -7.347,-26.19507 -0.2946,-0.69748 -0.899,-1.08495 -1.488,-1.08495 -0.2015,0 -0.403,0 -0.496,0.093 -0.496,0.20147 -0.6975,0.60452 -0.6975,1.19347 0,0.29453 0.1085,0.79053 0.2945,1.19358 3.968,9.22243 5.5644,14.47696 5.5644,21.62245 0,8.23053 -2.8829,12.50853 -4.6654,15.57759 -6.448,11.00496 -16.8641,16.36801 -21.0336,17.76296 -0.6975,0.29453 -0.7905,0.79053 -0.7905,1.08506 v 22.42849"
     id="path4773"
     style="stroke-width:0.992001" />
  <path
     class="Hook"
     d="m 699.08364,213.19417 c 0,0.682 0.589,1.28651 1.28651,1.28651 0.496,0 1.10049,-0.40301 1.19349,-0.79051 0,-0.1085 0.89901,-3.58051 0.99201,-3.875 0.093,-0.403 0.992,-4.16951 4.557,-10.01306 3.875,-6.44801 9.82701,-11.11349 14.78701,-18.05749 4.86706,-6.94401 7.84306,-13.50054 7.84306,-22.22698 0,-9.02106 -2.09252,-16.56959 -7.34705,-26.19507 -0.29453,-0.69748 -0.89896,-1.08495 -1.48801,-1.08495 -0.20147,0 -0.40295,0 -0.496,0.093 -0.496,0.20147 -0.69747,0.60452 -0.69747,1.19347 0,0.29453 0.10852,0.79053 0.29452,1.19358 3.96801,9.22243 5.56443,14.47696 5.56443,21.62245 0,8.23053 -2.88295,12.50853 -4.66548,15.57759 -6.448,11.00496 -16.86401,16.36801 -21.03352,17.76296 -0.6975,0.29453 -0.7905,0.79053 -0.7905,1.08506 v 22.42849"
     id="path4775"
     style="stroke-width:0.992001" />
  <path
     class="Hook"
     d="m 1245.1536,200.79417 c 0,0.682 0.589,1.28651 1.2865,1.28651 0.496,0 1.1005,-0.40301 1.1935,-0.79051 0,-0.1085 0.899,-3.58051 0.992,-3.875 0.093,-0.403 0.992,-4.16951 4.557,-10.01306 3.8751,-6.44801 9.8271,-11.11349 14.7871,-18.05749 4.867,-6.94401 7.843,-13.50054 7.843,-22.22698 0,-9.02106 -2.0925,-16.56959 -7.347,-26.19507 -0.2946,-0.69748 -0.899,-1.08495 -1.488,-1.08495 -0.2015,0 -0.403,0 -0.496,0.093 -0.496,0.20147 -0.6975,0.60452 -0.6975,1.19347 0,0.29453 0.1085,0.79053 0.2945,1.19358 3.968,9.22243 5.5644,14.47696 5.5644,21.62245 0,8.23053 -2.8829,12.50853 -4.6654,15.57759 -6.448,11.00496 -16.8641,16.36801 -21.0336,17.76296 -0.6975,0.29453 -0.7905,0.79053 -0.7905,1.08506 v 22.42849"
     id="path4777"
     style="stroke-width:0.992001" />
  <path
     class="Hook"
     d="m 1545.2836,213.19417 c 0,0.682 0.589,1.28651 1.2865,1.28651 0.496,0 1.1005,-0.40301 1.1935,-0.79051 0,-0.1085 0.899,-3.58051 0.992,-3.875 0.093,-0.403 0.992,-4.16951 4.557,-10.01306 3.8751,-6.44801 9.8271,-11.11349 14.7871,-18.05749 4.867,-6.94401 7.843,-13.50054 7.843,-22.22698 0,-9.02106 -2.0925,-16.56959 -7.347,-26.19507 -0.2946,-0.69748 -0.899,-1.08495 -1.488,-1.08495 -0.2015,0 -0.403,0 -0.496,0.093 -0.496,0.20147 -0.6975,0.60452 -0.6975,1.19347 0,0.29453 0.1085,0.79053 0.2945,1.19358 3.968,9.22243 5.5644,14.47696 5.5644,21.62245 0,8.23053 -2.8829,12.50853 -4.6654,15.57759 -6.448,11.00496 -16.8641,16.36801 -21.0336,17.76296 -0.6975,0.29453 -0.7905,0.79053 -0.7905,1.08506 v 22.42849"
     id="path4779"
     style="stroke-width:0.992001" />
  <path
     class="Hook"
     d="m 999.21364,213.19417 c 0,0.682 0.589,1.28651 1.28646,1.28651 0.496,0 1.1005,-0.40301 1.1935,-0.79051 0,-0.1085 0.899,-3.58051 0.992,-3.875 0.093,-0.403 0.992,-4.16951 4.557,-10.01306 3.8751,-6.44801 9.8271,-11.11349 14.7871,-18.05749 4.867,-6.94401 7.843,-13.50054 7.843,-22.22698 0,-9.02106 -2.0925,-16.56959 -7.347,-26.19507 -0.2946,-0.69748 -0.899,-1.08495 -1.488,-1.08495 -0.2015,0 -0.403,0 -0.496,0.093 -0.496,0.20147 -0.6975,0.60452 -0.6975,1.19347 0,0.29453 0.1085,0.79053 0.2945,1.19358 3.968,9.22243 5.5644,14.47696 5.5644,21.62245 0,8.23053 -2.8829,12.50853 -4.6654,15.57759 -6.448,11.00496 -16.8641,16.36801 -21.0336,17.76296 -0.69746,0.29453 -0.79046,0.79053 -0.79046,1.08506 v 22.42849"
     id="path4781"
     style="stroke-width:0.992001" />
  <path
     class="Note"
     d="m 349.58319,57.588685 c -9.62549,0 -21.12655,8.044483 -21.12655,17.266997 0,4.262499 3.069,9.021029 11.11349,9.021029 10.30758,0 21.12654,-8.432028 21.12654,-17.158542 0,-5.859006 -4.96,-9.129484 -11.11348,-9.129484 m -2.68148,17.468492 c -0.29453,0.186001 -7.53306,4.154005 -11.00506,4.154005 -3.2705,0 -3.968,-2.666003 -3.968,-3.565004 0,-4.169504 9.92001,-9.021009 10.32306,-9.222514 0.38747,-0.201496 7.44,-4.1695 11.00496,-4.1695 2.38705,0 3.968,1.395002 3.968,3.565004 0,4.278004 -10.01296,9.036514 -10.32296,9.238009"
     id="path4783"
     style="stroke-width:0.992001" />
  <path
     class="Note"
     d="m 1367.1736,124.45568 c 0,4.2625 3.069,9.02103 11.1135,9.02103 10.3076,0 21.1266,-8.43203 21.1266,-17.15854 0,-5.85901 -4.96,-9.12949 -11.1135,-9.12949 -9.6255,0 -21.1266,8.13749 -21.1266,17.267"
     id="path4785"
     style="stroke-width:0.992001" />
  <path
     class="Note"
     d="m 2187.8436,136.85568 c 0,4.2625 3.069,9.02103 11.1135,9.02103 10.3076,0 21.1266,-8.43203 21.1266,-17.15854 0,-5.85901 -4.96,-9.12949 -11.1135,-9.12949 -9.6255,0 -21.1266,8.13749 -21.1266,17.267"
     id="path4787"
     style="stroke-width:0.992001" />
  <path
     class="Note"
     d="m 1293.9636,112.05568 c 0,4.2625 3.069,9.02103 11.1135,9.02103 10.3076,0 21.1266,-8.43203 21.1266,-17.15854 0,-5.859007 -4.96,-9.129485 -11.1135,-9.129485 -9.6255,0 -21.1266,8.137485 -21.1266,17.266995"
     id="path4789"
     style="stroke-width:0.992001" />
  <path
     class="Note"
     d="m 1048.0236,136.85568 c 0,4.2625 3.069,9.02103 11.1135,9.02103 10.3076,0 21.1266,-8.43203 21.1266,-17.15854 0,-5.85901 -4.96,-9.12949 -11.1135,-9.12949 -9.6255,0 -21.1266,8.13749 -21.1266,17.267"
     id="path4791"
     style="stroke-width:0.992001" />
  <path
     class="Note"
     d="m 1667.3136,124.45568 c 0,4.2625 3.069,9.02103 11.1135,9.02103 10.3076,0 21.1266,-8.43203 21.1266,-17.15854 0,-5.85901 -4.96,-9.12949 -11.1135,-9.12949 -9.6255,0 -21.1266,8.13749 -21.1266,17.267"
     id="path4793"
     style="stroke-width:0.992001" />
  <path
     class="Note"
     d="m 349.58319,231.18968 c -9.62549,0 -21.12655,8.04449 -21.12655,17.267 0,4.2625 3.069,9.02103 11.11349,9.02103 10.30758,0 21.12654,-8.43203 21.12654,-17.15854 0,-5.85901 -4.96,-9.12949 -11.11348,-9.12949 m -2.68148,17.4685 c -0.29453,0.186 -7.53306,4.154 -11.00506,4.154 -3.2705,0 -3.968,-2.666 -3.968,-3.565 0,-4.16951 9.92001,-9.02101 10.32306,-9.22252 0.38747,-0.20149 7.44,-4.1695 11.00496,-4.1695 2.38705,0 3.968,1.39501 3.968,3.56501 0,4.278 -10.01296,9.03651 -10.32296,9.23801"
     id="path4795"
     style="stroke-width:0.992001" />
  <path
     class="Note"
     d="m 349.58319,206.38968 c -9.62549,0 -21.12655,8.04449 -21.12655,17.267 0,4.2625 3.069,9.02103 11.11349,9.02103 10.30758,0 21.12654,-8.43203 21.12654,-17.15854 0,-5.85901 -4.96,-9.12949 -11.11348,-9.12949 m -2.68148,17.4685 c -0.29453,0.186 -7.53306,4.154 -11.00506,4.154 -3.2705,0 -3.968,-2.666 -3.968,-3.565 0,-4.16951 9.92001,-9.02101 10.32306,-9.22252 0.38747,-0.20149 7.44,-4.1695 11.00496,-4.1695 2.38705,0 3.968,1.39501 3.968,3.56501 0,4.278 -10.01296,9.03651 -10.32296,9.23801"
     id="path4797"
     style="stroke-width:0.992001" />
  <path
     class="Note"
     d="m 349.58319,119.58868 c -9.62549,0 -21.12655,8.04449 -21.12655,17.267 0,4.2625 3.069,9.02103 11.11349,9.02103 10.30758,0 21.12654,-8.43203 21.12654,-17.15854 0,-5.85901 -4.96,-9.12949 -11.11348,-9.12949 m -2.68148,17.4685 c -0.29453,0.186 -7.53306,4.154 -11.00506,4.154 -3.2705,0 -3.968,-2.666 -3.968,-3.565 0,-4.16951 9.92001,-9.02101 10.32306,-9.22252 0.38747,-0.20149 7.44,-4.1695 11.00496,-4.1695 2.38705,0 3.968,1.39501 3.968,3.56501 0,4.278 -10.01296,9.03651 -10.32296,9.23801"
     id="path4799"
     style="stroke-width:0.992001" />
  <path
     class="Note"
     d="m 349.58319,82.388685 c -9.62549,0 -21.12655,8.044483 -21.12655,17.266997 0,4.262498 3.069,9.021028 11.11349,9.021028 10.30758,0 21.12654,-8.43203 21.12654,-17.158541 0,-5.859006 -4.96,-9.129484 -11.11348,-9.129484 m -2.68148,17.468492 c -0.29453,0.186003 -7.53306,4.154003 -11.00506,4.154003 -3.2705,0 -3.968,-2.666 -3.968,-3.565 0,-4.169506 9.92001,-9.021011 10.32306,-9.222516 0.38747,-0.201496 7.44,-4.1695 11.00496,-4.1695 2.38705,0 3.968,1.395002 3.968,3.565004 0,4.278004 -10.01296,9.036514 -10.32296,9.238009"
     id="path4801"
     style="stroke-width:0.992001" />
  <path
     class="Note"
     d="m 1740.5236,136.85568 c 0,4.2625 3.069,9.02103 11.1135,9.02103 10.3076,0 21.1266,-8.43203 21.1266,-17.15854 0,-5.85901 -4.96,-9.12949 -11.1135,-9.12949 -9.6255,0 -21.1266,8.13749 -21.1266,17.267"
     id="path4803"
     style="stroke-width:0.992001" />
  <path
     class="Note"
     d="m 1936.5236,112.05568 c 0,4.2625 3.069,9.02103 11.1135,9.02103 10.3076,0 21.1266,-8.43203 21.1266,-17.15854 0,-5.859007 -4.96,-9.129485 -11.1135,-9.129485 -9.6255,0 -21.1266,8.137485 -21.1266,17.266995"
     id="path4805"
     style="stroke-width:0.992001" />
  <path
     class="Note"
     d="m 821.11364,136.85568 c 0,4.2625 3.069,9.02103 11.11349,9.02103 10.30758,0 21.12654,-8.43203 21.12654,-17.15854 0,-5.85901 -4.96,-9.12949 -11.11348,-9.12949 -9.62549,0 -21.12655,8.13749 -21.12655,17.267"
     id="path4807"
     style="stroke-width:0.992001" />
  <path
     class="Note"
     d="m 926.00364,136.85568 c 0,4.2625 3.069,9.02103 11.11349,9.02103 10.30758,0 21.12654,-8.43203 21.12654,-17.15854 0,-5.85901 -4.96,-9.12949 -11.11348,-9.12949 -9.62549,0 -21.12655,8.13749 -21.12655,17.267"
     id="path4809"
     style="stroke-width:0.992001" />
  <path
     class="Note"
     d="m 474.88864,248.45668 c 0,4.2625 3.069,9.02103 11.11349,9.02103 10.30758,0 21.12654,-8.43203 21.12654,-17.15854 0,-5.85901 -4.96,-9.12949 -11.11348,-9.12949 -9.62549,0 -21.12655,8.13749 -21.12655,17.267"
     id="path4811"
     style="stroke-width:0.992001" />
  <path
     class="Note"
     d="m 474.88864,99.655682 c 0,4.262498 3.069,9.021028 11.11349,9.021028 10.30758,0 21.12654,-8.43203 21.12654,-17.158541 0,-5.859006 -4.96,-9.129484 -11.11348,-9.129484 -9.62549,0 -21.12655,8.137483 -21.12655,17.266997"
     id="path4813"
     style="stroke-width:0.992001" />
  <path
     class="Note"
     d="m 1440.3936,136.85568 c 0,4.2625 3.069,9.02103 11.1135,9.02103 10.3076,0 21.1266,-8.43203 21.1266,-17.15854 0,-5.85901 -4.96,-9.12949 -11.1135,-9.12949 -9.6255,0 -21.1266,8.13749 -21.1266,17.267"
     id="path4815"
     style="stroke-width:0.992001" />
  <path
     class="Note"
     d="m 1887.7136,124.45568 c 0,4.2625 3.069,9.02103 11.1135,9.02103 10.3076,0 21.1266,-8.43203 21.1266,-17.15854 0,-5.85901 -4.96,-9.12949 -11.1135,-9.12949 -9.6255,0 -21.1266,8.13749 -21.1266,17.267"
     id="path4817"
     style="stroke-width:0.992001" />
  <path
     class="Note"
     d="m 625.86864,136.85568 c 0,4.2625 3.069,9.02103 11.11349,9.02103 10.30758,0 21.12654,-8.43203 21.12654,-17.15854 0,-5.85901 -4.96,-9.12949 -11.11348,-9.12949 -9.62549,0 -21.12655,8.13749 -21.12655,17.267"
     id="path4819"
     style="stroke-width:0.992001" />
  <path
     class="Note"
     d="m 1245.1536,124.45568 c 0,4.2625 3.069,9.02103 11.1135,9.02103 10.3076,0 21.1266,-8.43203 21.1266,-17.15854 0,-5.85901 -4.96,-9.12949 -11.1135,-9.12949 -9.6255,0 -21.1266,8.13749 -21.1266,17.267"
     id="path4821"
     style="stroke-width:0.992001" />
  <path
     class="Note"
     d="m 1121.2436,136.85568 c 0,4.2625 3.069,9.02103 11.1135,9.02103 10.3076,0 21.1266,-8.43203 21.1266,-17.15854 0,-5.85901 -4.96,-9.12949 -11.1135,-9.12949 -9.6255,0 -21.1266,8.13749 -21.1266,17.267"
     id="path4823"
     style="stroke-width:0.992001" />
  <path
     class="Note"
     d="m 699.08364,136.85568 c 0,4.2625 3.069,9.02103 11.11349,9.02103 10.30758,0 21.12654,-8.43203 21.12654,-17.15854 0,-5.85901 -4.96,-9.12949 -11.11348,-9.12949 -9.62549,0 -21.12655,8.13749 -21.12655,17.267"
     id="path4825"
     style="stroke-width:0.992001" />
  <path
     class="Note"
     d="m 2009.7436,124.45568 c 0,4.2625 3.069,9.02103 11.1135,9.02103 10.3076,0 21.1266,-8.43203 21.1266,-17.15854 0,-5.85901 -4.96,-9.12949 -11.1135,-9.12949 -9.6255,0 -21.1266,8.13749 -21.1266,17.267"
     id="path4827"
     style="stroke-width:0.992001" />
  <path
     class="Note"
     d="m 2082.9536,136.85568 c 0,4.2625 3.069,9.02103 11.1135,9.02103 10.3076,0 21.1266,-8.43203 21.1266,-17.15854 0,-5.85901 -4.96,-9.12949 -11.1135,-9.12949 -9.6255,0 -21.1266,8.13749 -21.1266,17.267"
     id="path4829"
     style="stroke-width:0.992001" />
  <path
     class="Note"
     d="m 747.89364,136.85568 c 0,4.2625 3.069,9.02103 11.11349,9.02103 10.30758,0 21.12654,-8.43203 21.12654,-17.15854 0,-5.85901 -4.96,-9.12949 -11.11348,-9.12949 -9.62549,0 -21.12655,8.13749 -21.12655,17.267"
     id="path4831"
     style="stroke-width:0.992001" />
  <path
     class="Note"
     d="m 1545.2836,136.85568 c 0,4.2625 3.069,9.02103 11.1135,9.02103 10.3076,0 21.1266,-8.43203 21.1266,-17.15854 0,-5.85901 -4.96,-9.12949 -11.1135,-9.12949 -9.6255,0 -21.1266,8.13749 -21.1266,17.267"
     id="path4833"
     style="stroke-width:0.992001" />
  <path
     class="Note"
     d="m 2236.6536,112.05568 c 0,4.2625 3.069,9.02103 11.1135,9.02103 10.3076,0 21.1266,-8.43203 21.1266,-17.15854 0,-5.859007 -4.96,-9.129485 -11.1135,-9.129485 -9.6255,0 -21.1266,8.137485 -21.1266,17.266995"
     id="path4835"
     style="stroke-width:0.992001" />
  <path
     class="Note"
     d="m 1594.0936,112.05568 c 0,4.2625 3.069,9.02103 11.1135,9.02103 10.3076,0 21.1266,-8.43203 21.1266,-17.15854 0,-5.859007 -4.96,-9.129485 -11.1135,-9.129485 -9.6255,0 -21.1266,8.137485 -21.1266,17.266995"
     id="path4837"
     style="stroke-width:0.992001" />
  <path
     class="Note"
     d="m 2306.5902,231.18968 c -9.6255,0 -21.1266,8.04449 -21.1266,17.267 0,4.2625 3.069,9.02103 11.1135,9.02103 10.3076,0 21.1266,-8.43203 21.1266,-17.15854 0,-5.85901 -4.96,-9.12949 -11.1135,-9.12949 m -2.6815,17.4685 c -0.2945,0.186 -7.533,4.154 -11.0051,4.154 -3.2704,0 -3.968,-2.666 -3.968,-3.565 0,-4.16951 9.9201,-9.02101 10.3231,-9.22252 0.3875,-0.20149 7.44,-4.1695 11.005,-4.1695 2.387,0 3.968,1.39501 3.968,3.56501 0,4.278 -10.013,9.03651 -10.323,9.23801"
     id="path4839"
     style="stroke-width:0.992001" />
  <path
     class="Note"
     d="m 2306.5902,169.18868 c -9.6255,0 -21.1266,8.04449 -21.1266,17.267 0,4.2625 3.069,9.02103 11.1135,9.02103 10.3076,0 21.1266,-8.43203 21.1266,-17.15854 0,-5.85901 -4.96,-9.12949 -11.1135,-9.12949 m -2.6815,17.4685 c -0.2945,0.186 -7.533,4.154 -11.0051,4.154 -3.2704,0 -3.968,-2.666 -3.968,-3.565 0,-4.16951 9.9201,-9.02101 10.3231,-9.22252 0.3875,-0.20149 7.44,-4.1695 11.005,-4.1695 2.387,0 3.968,1.39501 3.968,3.56501 0,4.278 -10.013,9.03651 -10.323,9.23801"
     id="path4841"
     style="stroke-width:0.992001" />
  <path
     class="Note"
     d="m 2306.5902,144.38868 c -9.6255,0 -21.1266,8.04449 -21.1266,17.267 0,4.2625 3.069,9.02103 11.1135,9.02103 10.3076,0 21.1266,-8.43203 21.1266,-17.15854 0,-5.85901 -4.96,-9.12949 -11.1135,-9.12949 m -2.6815,17.4685 c -0.2945,0.186 -7.533,4.154 -11.0051,4.154 -3.2704,0 -3.968,-2.666 -3.968,-3.565 0,-4.16951 9.9201,-9.02101 10.3231,-9.22252 0.3875,-0.20149 7.44,-4.1695 11.005,-4.1695 2.387,0 3.968,1.39501 3.968,3.56501 0,4.278 -10.013,9.03651 -10.323,9.23801"
     id="path4843"
     style="stroke-width:0.992001" />
  <path
     class="Note"
     d="m 2306.5902,119.58868 c -9.6255,0 -21.1266,8.04449 -21.1266,17.267 0,4.2625 3.069,9.02103 11.1135,9.02103 10.3076,0 21.1266,-8.43203 21.1266,-17.15854 0,-5.85901 -4.96,-9.12949 -11.1135,-9.12949 m -2.6815,17.4685 c -0.2945,0.186 -7.533,4.154 -11.0051,4.154 -3.2704,0 -3.968,-2.666 -3.968,-3.565 0,-4.16951 9.9201,-9.02101 10.3231,-9.22252 0.3875,-0.20149 7.44,-4.1695 11.005,-4.1695 2.387,0 3.968,1.39501 3.968,3.56501 0,4.278 -10.013,9.03651 -10.323,9.23801"
     id="path4845"
     style="stroke-width:0.992001" />
  <path
     class="Note"
     d="m 999.21364,136.85568 c 0,4.2625 3.06896,9.02103 11.11346,9.02103 10.3076,0 21.1266,-8.43203 21.1266,-17.15854 0,-5.85901 -4.96,-9.12949 -11.1135,-9.12949 -9.6255,0 -21.12656,8.13749 -21.12656,17.267"
     id="path4847"
     style="stroke-width:0.992001" />
  <path
     class="Note"
     d="m 699.08364,397.25668 c 0,4.2625 3.069,9.02103 11.11349,9.02103 10.30758,0 21.12654,-8.43203 21.12654,-17.15854 0,-5.85901 -4.96,-9.12949 -11.11348,-9.12949 -9.62549,0 -21.12655,8.13749 -21.12655,17.267"
     id="path4849"
     style="stroke-width:0.992001" />
  <path
     class="Note"
     d="m 784.50364,446.85668 c 0,4.2625 3.069,9.02103 11.11349,9.02103 10.30758,0 21.12654,-8.43203 21.12654,-17.15854 0,-5.85901 -4.96,-9.12949 -11.11348,-9.12949 -9.62549,0 -21.12655,8.13749 -21.12655,17.267"
     id="path4851"
     style="stroke-width:0.992001" />
  <path
     class="Note"
     d="m 784.50364,422.05668 c 0,4.2625 3.069,9.02103 11.11349,9.02103 10.30758,0 21.12654,-8.43203 21.12654,-17.15854 0,-5.85901 -4.96,-9.12949 -11.11348,-9.12949 -9.62549,0 -21.12655,8.13749 -21.12655,17.267"
     id="path4853"
     style="stroke-width:0.992001" />
  <path
     class="Note"
     d="m 784.50364,397.25668 c 0,4.2625 3.069,9.02103 11.11349,9.02103 10.30758,0 21.12654,-8.43203 21.12654,-17.15854 0,-5.85901 -4.96,-9.12949 -11.11348,-9.12949 -9.62549,0 -21.12655,8.13749 -21.12655,17.267"
     id="path4855"
     style="stroke-width:0.992001" />
  <path
     class="Note"
     d="m 1245.1536,384.85668 c 0,4.2625 3.069,9.02103 11.1135,9.02103 10.3076,0 21.1266,-8.43203 21.1266,-17.15854 0,-5.85901 -4.96,-9.12949 -11.1135,-9.12949 -9.6255,0 -21.1266,8.13749 -21.1266,17.267"
     id="path4857"
     style="stroke-width:0.992001" />
  <path
     class="Note"
     d="m 1084.6336,422.05668 c 0,4.2625 3.069,9.02103 11.1135,9.02103 10.3076,0 21.1266,-8.43203 21.1266,-17.15854 0,-5.85901 -4.96,-9.12949 -11.1135,-9.12949 -9.6255,0 -21.1266,8.13749 -21.1266,17.267"
     id="path4859"
     style="stroke-width:0.992001" />
  <path
     class="Note"
     d="m 1703.9136,384.85668 c 0,4.2625 3.069,9.02103 11.1135,9.02103 10.3076,0 21.1266,-8.43203 21.1266,-17.15854 0,-5.85901 -4.96,-9.12949 -11.1135,-9.12949 -9.6255,0 -21.1266,8.13749 -21.1266,17.267"
     id="path4861"
     style="stroke-width:0.992001" />
  <path
     class="Note"
     d="m 1703.9136,434.45668 c 0,4.2625 3.069,9.02103 11.1135,9.02103 10.3076,0 21.1266,-8.43203 21.1266,-17.15854 0,-5.85901 -4.96,-9.12949 -11.1135,-9.12949 -9.6255,0 -21.1266,8.13749 -21.1266,17.267"
     id="path4863"
     style="stroke-width:0.992001" />
  <path
     class="Note"
     d="m 1887.7136,384.85668 c 0,4.2625 3.069,9.02103 11.1135,9.02103 10.3076,0 21.1266,-8.43203 21.1266,-17.15854 0,-5.85901 -4.96,-9.12949 -11.1135,-9.12949 -9.6255,0 -21.1266,8.13749 -21.1266,17.267"
     id="path4865"
     style="stroke-width:0.992001" />
  <path
     class="Note"
     d="m 1403.7836,446.85668 c 0,4.2625 3.069,9.02103 11.1135,9.02103 10.3076,0 21.1266,-8.43203 21.1266,-17.15854 0,-5.85901 -4.96,-9.12949 -11.1135,-9.12949 -9.6255,0 -21.1266,8.13749 -21.1266,17.267"
     id="path4867"
     style="stroke-width:0.992001" />
  <path
     class="Note"
     d="m 1330.5736,409.65668 c 0,4.2625 3.069,9.02103 11.1135,9.02103 10.3076,0 21.1266,-8.43203 21.1266,-17.15854 0,-5.85901 -4.96,-9.12949 -11.1135,-9.12949 -9.6255,0 -21.1266,8.13749 -21.1266,17.267"
     id="path4869"
     style="stroke-width:0.992001" />
  <path
     class="Note"
     d="m 1973.1336,372.45668 c 0,4.2625 3.069,9.02103 11.1135,9.02103 10.3076,0 21.1266,-8.43203 21.1266,-17.15854 0,-5.85901 -4.96,-9.12949 -11.1135,-9.12949 -9.6255,0 -21.1266,8.13749 -21.1266,17.267"
     id="path4871"
     style="stroke-width:0.992001" />
  <path
     class="Note"
     d="m 1403.7836,422.05668 c 0,4.2625 3.069,9.02103 11.1135,9.02103 10.3076,0 21.1266,-8.43203 21.1266,-17.15854 0,-5.85901 -4.96,-9.12949 -11.1135,-9.12949 -9.6255,0 -21.1266,8.13749 -21.1266,17.267"
     id="path4873"
     style="stroke-width:0.992001" />
  <path
     class="Note"
     d="m 1703.9136,459.25768 c 0,4.2625 3.069,9.02103 11.1135,9.02103 10.3076,0 21.1266,-8.43203 21.1266,-17.15854 0,-5.85901 -4.96,-9.12949 -11.1135,-9.12949 -9.6255,0 -21.1266,8.13749 -21.1266,17.267"
     id="path4875"
     style="stroke-width:0.992001" />
  <path
     class="Note"
     d="m 2046.3536,446.85668 c 0,4.2625 3.069,9.02103 11.1135,9.02103 10.3076,0 21.1266,-8.43203 21.1266,-17.15854 0,-5.85901 -4.96,-9.12949 -11.1135,-9.12949 -9.6255,0 -21.1266,8.13749 -21.1266,17.267"
     id="path4877"
     style="stroke-width:0.992001" />
  <path
     class="Note"
     d="m 2046.3536,422.05668 c 0,4.2625 3.069,9.02103 11.1135,9.02103 10.3076,0 21.1266,-8.43203 21.1266,-17.15854 0,-5.85901 -4.96,-9.12949 -11.1135,-9.12949 -9.6255,0 -21.1266,8.13749 -21.1266,17.267"
     id="path4879"
     style="stroke-width:0.992001" />
  <path
     class="Note"
     d="m 2046.3536,384.85668 c 0,4.2625 3.069,9.02103 11.1135,9.02103 10.3076,0 21.1266,-8.43203 21.1266,-17.15854 0,-5.85901 -4.96,-9.12949 -11.1135,-9.12949 -9.6255,0 -21.1266,8.13749 -21.1266,17.267"
     id="path4881"
     style="stroke-width:0.992001" />
  <path
     class="Note"
     d="m 1403.7836,384.85668 c 0,4.2625 3.069,9.02103 11.1135,9.02103 10.3076,0 21.1266,-8.43203 21.1266,-17.15854 0,-5.85901 -4.96,-9.12949 -11.1135,-9.12949 -9.6255,0 -21.1266,8.13749 -21.1266,17.267"
     id="path4883"
     style="stroke-width:0.992001" />
  <path
     class="Note"
     d="m 1973.1336,409.65668 c 0,4.2625 3.069,9.02103 11.1135,9.02103 10.3076,0 21.1266,-8.43203 21.1266,-17.15854 0,-5.85901 -4.96,-9.12949 -11.1135,-9.12949 -9.6255,0 -21.1266,8.13749 -21.1266,17.267"
     id="path4885"
     style="stroke-width:0.992001" />
  <path
     class="Note"
     d="m 1084.6336,446.85668 c 0,4.2625 3.069,9.02103 11.1135,9.02103 10.3076,0 21.1266,-8.43203 21.1266,-17.15854 0,-5.85901 -4.96,-9.12949 -11.1135,-9.12949 -9.6255,0 -21.1266,8.13749 -21.1266,17.267"
     id="path4887"
     style="stroke-width:0.992001" />
  <path
     class="Note"
     d="m 999.21364,397.25668 c 0,4.2625 3.06896,9.02103 11.11346,9.02103 10.3076,0 21.1266,-8.43203 21.1266,-17.15854 0,-5.85901 -4.96,-9.12949 -11.1135,-9.12949 -9.6255,0 -21.12656,8.13749 -21.12656,17.267"
     id="path4889"
     style="stroke-width:0.992001" />
  <path
     class="Note"
     d="m 1630.7036,372.45668 c 0,4.2625 3.069,9.02103 11.1135,9.02103 10.3076,0 21.1266,-8.43203 21.1266,-17.15854 0,-5.85901 -4.96,-9.12949 -11.1135,-9.12949 -9.6255,0 -21.1266,8.13749 -21.1266,17.267"
     id="path4891"
     style="stroke-width:0.992001" />
  <path
     class="Note"
     d="m 2187.8436,397.25668 c 0,4.2625 3.069,9.02103 11.1135,9.02103 10.3076,0 21.1266,-8.43203 21.1266,-17.15854 0,-5.85901 -4.96,-9.12949 -11.1135,-9.12949 -9.6255,0 -21.1266,8.13749 -21.1266,17.267"
     id="path4893"
     style="stroke-width:0.992001" />
  <path
     class="Note"
     d="m 328.45664,446.85668 c 0,4.2625 3.069,9.02103 11.11349,9.02103 10.30758,0 21.12654,-8.43203 21.12654,-17.15854 0,-5.85901 -4.96,-9.12949 -11.11348,-9.12949 -9.62549,0 -21.12655,8.13749 -21.12655,17.267"
     id="path4895"
     style="stroke-width:0.992001" />
  <path
     class="Note"
     d="m 1630.7036,409.65668 c 0,4.2625 3.069,9.02103 11.1135,9.02103 10.3076,0 21.1266,-8.43203 21.1266,-17.15854 0,-5.85901 -4.96,-9.12949 -11.1135,-9.12949 -9.6255,0 -21.1266,8.13749 -21.1266,17.267"
     id="path4897"
     style="stroke-width:0.992001" />
  <path
     class="Note"
     d="m 999.21364,422.05668 c 0,4.2625 3.06896,9.02103 11.11346,9.02103 10.3076,0 21.1266,-8.43203 21.1266,-17.15854 0,-5.85901 -4.96,-9.12949 -11.1135,-9.12949 -9.6255,0 -21.12656,8.13749 -21.12656,17.267"
     id="path4899"
     style="stroke-width:0.992001" />
  <path
     class="Note"
     d="m 328.45664,422.05668 c 0,4.2625 3.069,9.02103 11.11349,9.02103 10.30758,0 21.12654,-8.43203 21.12654,-17.15854 0,-5.85901 -4.96,-9.12949 -11.11348,-9.12949 -9.62549,0 -21.12655,8.13749 -21.12655,17.267"
     id="path4901"
     style="stroke-width:0.992001" />
  <path
     class="Note"
     d="m 401.67264,446.85668 c 0,4.2625 3.069,9.02103 11.11349,9.02103 10.30758,0 21.12654,-8.43203 21.12654,-17.15854 0,-5.85901 -4.96,-9.12949 -11.11348,-9.12949 -9.62549,0 -21.12655,8.13749 -21.12655,17.267"
     id="path4903"
     style="stroke-width:0.992001" />
  <path
     class="Note"
     d="m 401.67264,422.05668 c 0,4.2625 3.069,9.02103 11.11349,9.02103 10.30758,0 21.12654,-8.43203 21.12654,-17.15854 0,-5.85901 -4.96,-9.12949 -11.11348,-9.12949 -9.62549,0 -21.12655,8.13749 -21.12655,17.267"
     id="path4905"
     style="stroke-width:0.992001" />
  <path
     class="Note"
     d="m 474.88864,508.85768 c 0,4.2625 3.069,9.02103 11.11349,9.02103 10.30758,0 21.12654,-8.43203 21.12654,-17.15854 0,-5.85901 -4.96,-9.12949 -11.11348,-9.12949 -9.62549,0 -21.12655,8.13749 -21.12655,17.267"
     id="path4907"
     style="stroke-width:0.992001" />
  <path
     class="Note"
     d="m 474.88864,360.05668 c 0,4.2625 3.069,9.02103 11.11349,9.02103 10.30758,0 21.12654,-8.43203 21.12654,-17.15854 0,-5.85901 -4.96,-9.12949 -11.11348,-9.12949 -9.62549,0 -21.12655,8.13749 -21.12655,17.267"
     id="path4909"
     style="stroke-width:0.992001" />
  <path
     class="Note"
     d="m 699.08364,422.05668 c 0,4.2625 3.069,9.02103 11.11349,9.02103 10.30758,0 21.12654,-8.43203 21.12654,-17.15854 0,-5.85901 -4.96,-9.12949 -11.11348,-9.12949 -9.62549,0 -21.12655,8.13749 -21.12655,17.267"
     id="path4911"
     style="stroke-width:0.992001" />
  <path
     class="Note"
     d="m 2285.4636,422.05668 c 0,4.2625 3.069,9.02103 11.1135,9.02103 10.3076,0 21.1266,-8.43203 21.1266,-17.15854 0,-5.85901 -4.96,-9.12949 -11.1135,-9.12949 -9.6255,0 -21.1266,8.13749 -21.1266,17.267"
     id="path4913"
     style="stroke-width:0.992001" />
  <path
     class="Note"
     d="m 2285.4636,384.85668 c 0,4.2625 3.069,9.02103 11.1135,9.02103 10.3076,0 21.1266,-8.43203 21.1266,-17.15854 0,-5.85901 -4.96,-9.12949 -11.1135,-9.12949 -9.6255,0 -21.1266,8.13749 -21.1266,17.267"
     id="path4915"
     style="stroke-width:0.992001" />
  <path
     class="Note"
     d="m 1330.5736,372.45668 c 0,4.2625 3.069,9.02103 11.1135,9.02103 10.3076,0 21.1266,-8.43203 21.1266,-17.15854 0,-5.85901 -4.96,-9.12949 -11.1135,-9.12949 -9.6255,0 -21.1266,8.13749 -21.1266,17.267"
     id="path4917"
     style="stroke-width:0.992001" />
  <path
     class="Note"
     d="m 2358.6836,446.85668 c 0,4.2625 3.069,9.02103 11.1135,9.02103 10.3076,0 21.1266,-8.43203 21.1266,-17.15854 0,-5.85901 -4.96,-9.12949 -11.1135,-9.12949 -9.6255,0 -21.1266,8.13749 -21.1266,17.267"
     id="path4919"
     style="stroke-width:0.992001" />
  <path
     class="Note"
     d="m 2358.6836,422.05668 c 0,4.2625 3.069,9.02103 11.1135,9.02103 10.3076,0 21.1266,-8.43203 21.1266,-17.15854 0,-5.85901 -4.96,-9.12949 -11.1135,-9.12949 -9.6255,0 -21.1266,8.13749 -21.1266,17.267"
     id="path4921"
     style="stroke-width:0.992001" />
  <path
     class="Note"
     d="m 2358.6836,397.25668 c 0,4.2625 3.069,9.02103 11.1135,9.02103 10.3076,0 21.1266,-8.43203 21.1266,-17.15854 0,-5.85901 -4.96,-9.12949 -11.1135,-9.12949 -9.6255,0 -21.1266,8.13749 -21.1266,17.267"
     id="path4923"
     style="stroke-width:0.992001" />
  <path
     class="Note"
     d="m 625.86864,397.25668 c 0,4.2625 3.069,9.02103 11.11349,9.02103 10.30758,0 21.12654,-8.43203 21.12654,-17.15854 0,-5.85901 -4.96,-9.12949 -11.11348,-9.12949 -9.62549,0 -21.12655,8.13749 -21.12655,17.267"
     id="path4925"
     style="stroke-width:0.992001" />
  <path
     class="Note"
     d="m 1084.6336,397.25668 c 0,4.2625 3.069,9.02103 11.1135,9.02103 10.3076,0 21.1266,-8.43203 21.1266,-17.15854 0,-5.85901 -4.96,-9.12949 -11.1135,-9.12949 -9.6255,0 -21.1266,8.13749 -21.1266,17.267"
     id="path4927"
     style="stroke-width:0.992001" />
  <path
     class="Note"
     d="m 926.00364,397.25668 c 0,4.2625 3.069,9.02103 11.11349,9.02103 10.30758,0 21.12654,-8.43203 21.12654,-17.15854 0,-5.85901 -4.96,-9.12949 -11.11348,-9.12949 -9.62549,0 -21.12655,8.13749 -21.12655,17.267"
     id="path4929"
     style="stroke-width:0.992001" />
  <path
     class="Note"
     d="m 1545.2836,397.25668 c 0,4.2625 3.069,9.02103 11.1135,9.02103 10.3076,0 21.1266,-8.43203 21.1266,-17.15854 0,-5.85901 -4.96,-9.12949 -11.1135,-9.12949 -9.6255,0 -21.1266,8.13749 -21.1266,17.267"
     id="path4931"
     style="stroke-width:0.992001" />
  <path
     class="Clef"
     d="m 110.00017,159.56318 c 0,7.05251 -2.88295,14.29101 -9.92001,17.17406 -2.076949,-11.90406 -4.758427,-27.68308 -5.456002,-32.05413 8.928012,0 15.376012,6.06055 15.376012,14.88007 m -14.089486,18.35206 c -1.984002,0.40295 -3.859479,0.60443 -5.750531,0.60443 -14.18244,0 -26.287997,-9.92001 -26.287997,-24.9085 0,-12.09006 8.525029,-22.90902 17.267038,-30.45756 1.674001,-1.488 3.270528,-2.86747 4.758529,-4.35548 0.883476,5.34748 1.580952,10.01296 2.278428,14.08949 -9.036435,2.68148 -15.174441,12.19854 -15.174441,21.52955 0,6.94401 5.456006,16.46102 13.392014,16.46102 0.790426,0 1.689477,-0.40295 1.689477,-1.28653 0,-0.89895 -0.992001,-1.39495 -2.185478,-2.18548 -3.875053,-2.387 -6.060531,-4.96 -6.060531,-9.82701 0,-6.045 4.464005,-10.91206 10.322961,-12.29153 l 5.750531,32.6276 M 87.18415,75.940616 c 0.899051,-3.968004 5.456006,-14.384015 10.617585,-14.384015 1.488002,0 3.859475,4.85148 3.859475,11.702437 0,10.32306 -7.626003,18.057593 -14.47706,24.800025 -0.588951,-3.968004 -1.084951,-7.827483 -1.084951,-11.996962 0,-3.673479 0.294525,-7.052532 1.084951,-10.121485 M 66.352129,208.37275 c 0,6.55653 5.053055,15.19001 18.445068,15.19001 4.66548,0 8.742009,-1.19347 12.306963,-3.37905 5.36306,-3.76643 6.74253,-10.32296 6.74253,-16.56949 0,-3.85948 -0.58895,-8.32348 -1.58095,-13.98097 -0.29453,-1.984 -0.89905,-4.96 -1.488,-8.83505 9.71843,-3.17748 16.95697,-13.29897 16.95697,-23.51353 0,-14.97304 -10.61749,-25.09452 -25.094554,-25.09452 -0.992001,-5.95201 -1.984002,-11.81106 -2.882954,-17.36002 10.524538,-11.02054 17.762968,-23.420548 17.762968,-39.18404 0,-9.036533 -2.77443,-16.368016 -4.37095,-19.948148 -2.37148,-5.053253 -5.254534,-8.525256 -7.037061,-8.525256 -0.697476,0 -3.766429,1.193377 -7.036957,5.053253 -6.355056,7.548135 -8.137484,20.242673 -8.137484,28.566157 0,5.362955 0.496001,10.23001 2.185478,21.343494 -0.108525,0.0931 -5.270006,5.34748 -7.347057,7.03706 -9.036435,8.43201 -21.529497,20.42897 -21.529497,40.28451 0,18.53807 16.166541,33.12356 34.627084,33.12356 2.867478,0 5.548956,-0.29452 7.827483,-0.69747 1.890953,9.53243 2.976003,16.47644 2.976003,21.73097 0,10.32306 -5.25453,15.77906 -15.26749,15.77906 -2.387052,0 -4.464005,-0.496 -4.665579,-0.496 -0.09295,-0.10852 -0.294426,-0.20157 -0.294426,-0.29452 0,-0.20148 0.201475,-0.31 0.496,-0.40305 4.66548,-0.69748 9.315485,-4.66548 9.315485,-11.00496 0,-5.36306 -4.061054,-11.02054 -11.501061,-11.02054 -6.944007,0 -11.408012,5.65748 -11.408012,12.19854"
     id="path4933"
     style="stroke-width:0.992001" />
  <path
     class="Clef"
     d="m 110.00017,419.96418 c 0,7.05251 -2.88295,14.29101 -9.92001,17.17406 -2.076949,-11.90406 -4.758427,-27.68308 -5.456002,-32.05413 8.928012,0 15.376012,6.06055 15.376012,14.88007 m -14.089486,18.35206 c -1.984002,0.40295 -3.859479,0.60443 -5.750531,0.60443 -14.18244,0 -26.287997,-9.92001 -26.287997,-24.9085 0,-12.09006 8.525029,-22.90902 17.267038,-30.45756 1.674001,-1.488 3.270528,-2.86747 4.758529,-4.35548 0.883476,5.34748 1.580952,10.01296 2.278428,14.08949 -9.036435,2.68148 -15.174441,12.19854 -15.174441,21.52955 0,6.94401 5.456006,16.46102 13.392014,16.46102 0.790426,0 1.689477,-0.40295 1.689477,-1.28653 0,-0.89895 -0.992001,-1.39495 -2.185478,-2.18548 -3.875053,-2.387 -6.060531,-4.96 -6.060531,-9.82701 0,-6.045 4.464005,-10.91206 10.322961,-12.29153 l 5.750531,32.6276 M 87.18415,336.34162 c 0.899051,-3.96801 5.456006,-14.38402 10.617585,-14.38402 1.488002,0 3.859475,4.85148 3.859475,11.70244 0,10.32306 -7.626003,18.05759 -14.47706,24.80002 -0.588951,-3.968 -1.084951,-7.82748 -1.084951,-11.99696 0,-3.67348 0.294525,-7.05253 1.084951,-10.12148 M 66.352129,468.77375 c 0,6.55653 5.053055,15.19001 18.445068,15.19001 4.66548,0 8.742009,-1.19347 12.306963,-3.37905 5.36306,-3.76643 6.74253,-10.32296 6.74253,-16.56949 0,-3.85948 -0.58895,-8.32348 -1.58095,-13.98097 -0.29453,-1.984 -0.89905,-4.96 -1.488,-8.83505 9.71843,-3.17748 16.95697,-13.29897 16.95697,-23.51353 0,-14.97304 -10.61749,-25.09452 -25.094554,-25.09452 -0.992001,-5.95201 -1.984002,-11.81106 -2.882954,-17.36002 10.524538,-11.02054 17.762968,-23.42055 17.762968,-39.18404 0,-9.03653 -2.77443,-16.36802 -4.37095,-19.94815 -2.37148,-5.05325 -5.254534,-8.52525 -7.037061,-8.52525 -0.697476,0 -3.766429,1.19337 -7.036957,5.05325 -6.355056,7.54813 -8.137484,20.24267 -8.137484,28.56616 0,5.36295 0.496001,10.23001 2.185478,21.34349 -0.108525,0.0931 -5.270006,5.34748 -7.347057,7.03706 -9.036435,8.43201 -21.529497,20.42897 -21.529497,40.28451 0,18.53807 16.166541,33.12356 34.627084,33.12356 2.867478,0 5.548956,-0.29452 7.827483,-0.69747 1.890953,9.53243 2.976003,16.47644 2.976003,21.73097 0,10.32306 -5.25453,15.77906 -15.26749,15.77906 -2.387052,0 -4.464005,-0.496 -4.665579,-0.496 -0.09295,-0.10852 -0.294426,-0.20157 -0.294426,-0.29452 0,-0.20148 0.201475,-0.31 0.496,-0.40305 4.66548,-0.69748 9.315485,-4.66548 9.315485,-11.00496 0,-5.36306 -4.061054,-11.02054 -11.501061,-11.02054 -6.944007,0 -11.408012,5.65748 -11.408012,12.19854"
     id="path4935"
     style="stroke-width:0.992001" />
  <path
     class="KeySig"
     d="m 156.25171,124.84317 c -0.58905,-3.85953 -2.976,-7.53301 -8.02906,-7.53301 -4.96,0 -7.843,3.06895 -8.339,3.67348 l 0.403,-31.852561 c 0,-0.790426 -0.589,-1.379476 -1.39501,-1.379476 h -1.178 c -0.806,0 -1.395,0.58905 -1.395,1.379476 l 0.496,59.628581 c 0,0.79053 0.589,1.37958 1.395,1.37958 0.186,0 0.589,-0.0931 0.79051,-0.186 0.38749,-0.20157 6.8355,-3.37905 12.19851,-9.42406 3.76653,-4.278 5.25453,-9.12951 5.25453,-13.20601 0,-0.88351 -0.0931,-1.674 -0.20148,-2.48 m -6.83558,3.875 c 0,1.488 -0.40295,6.04501 -2.88295,9.82701 -1.68953,2.573 -5.05303,5.25448 -6.94403,6.74248 l 0.2945,-19.344 c 0.2015,-0.899 1.6895,-3.76655 5.65751,-3.76655 3.58054,0 3.87497,3.36355 3.87497,5.45606 0,0.496 0,0.79049 0,1.085"
     id="path4937"
     style="stroke-width:0.992001" />
  <path
     class="KeySig"
     d="m 183.82671,87.643165 c -0.58905,-3.859529 -2.976,-7.533008 -8.02906,-7.533008 -4.96,0 -7.843,3.068954 -8.339,3.673479 l 0.403,-31.852557 c 0,-0.790426 -0.589,-1.379476 -1.39501,-1.379476 h -1.178 c -0.806,0 -1.395,0.58905 -1.395,1.379476 l 0.496,59.628581 c 0,0.79053 0.589,1.37958 1.395,1.37958 0.186,0 0.589,-0.093 0.79051,-0.186 0.38749,-0.20157 6.8355,-3.37905 12.19851,-9.42406 3.76653,-4.278003 5.25453,-9.129513 5.25453,-13.206012 0,-0.883506 -0.0931,-1.674002 -0.20148,-2.480003 m -6.83558,3.875004 c 0,1.488001 -0.40295,6.045006 -2.88295,9.827011 -1.68953,2.573 -5.05303,5.25448 -6.94403,6.74248 l 0.2945,-19.343999 c 0.2015,-0.899001 1.6895,-3.766548 5.65751,-3.766548 3.58054,0 3.87497,3.363548 3.87497,5.456055 0,0.496 0,0.790496 0,1.085001"
     id="path4939"
     style="stroke-width:0.992001" />
  <path
     class="KeySig"
     d="m 211.40071,137.24317 c -0.58905,-3.85953 -2.976,-7.53301 -8.02906,-7.53301 -4.96,0 -7.843,3.06895 -8.339,3.67348 l 0.403,-31.85256 c 0,-0.79043 -0.589,-1.37948 -1.39501,-1.37948 h -1.178 c -0.806,0 -1.395,0.58905 -1.395,1.37948 l 0.496,59.62858 c 0,0.79053 0.589,1.37958 1.395,1.37958 0.186,0 0.589,-0.0931 0.79051,-0.186 0.38749,-0.20157 6.8355,-3.37905 12.19851,-9.42406 3.76653,-4.278 5.25453,-9.12951 5.25453,-13.20601 0,-0.88351 -0.0931,-1.674 -0.20148,-2.48 m -6.83558,3.875 c 0,1.488 -0.40295,6.04501 -2.88295,9.82701 -1.68953,2.573 -5.05303,5.25448 -6.94403,6.74248 l 0.2945,-19.344 c 0.2015,-0.899 1.6895,-3.76655 5.65751,-3.76655 3.58054,0 3.87497,3.36355 3.87497,5.45606 0,0.496 0,0.79049 0,1.085"
     id="path4941"
     style="stroke-width:0.992001" />
  <path
     class="KeySig"
     d="m 156.25171,385.24417 c -0.58905,-3.85953 -2.976,-7.53301 -8.02906,-7.53301 -4.96,0 -7.843,3.06895 -8.339,3.67348 l 0.403,-31.85256 c 0,-0.79043 -0.589,-1.37948 -1.39501,-1.37948 h -1.178 c -0.806,0 -1.395,0.58905 -1.395,1.37948 l 0.496,59.62858 c 0,0.79053 0.589,1.37958 1.395,1.37958 0.186,0 0.589,-0.0931 0.79051,-0.186 0.38749,-0.20157 6.8355,-3.37905 12.19851,-9.42406 3.76653,-4.278 5.25453,-9.12951 5.25453,-13.20601 0,-0.88351 -0.0931,-1.674 -0.20148,-2.48 m -6.83558,3.875 c 0,1.488 -0.40295,6.04501 -2.88295,9.82701 -1.68953,2.573 -5.05303,5.25448 -6.94403,6.74248 l 0.2945,-19.344 c 0.2015,-0.899 1.6895,-3.76655 5.65751,-3.76655 3.58054,0 3.87497,3.36355 3.87497,5.45606 0,0.496 0,0.79049 0,1.085"
     id="path4943"
     style="stroke-width:0.992001" />
  <path
     class="KeySig"
     d="m 183.82671,348.04417 c -0.58905,-3.85953 -2.976,-7.53301 -8.02906,-7.53301 -4.96,0 -7.843,3.06895 -8.339,3.67348 l 0.403,-31.85256 c 0,-0.79043 -0.589,-1.37948 -1.39501,-1.37948 h -1.178 c -0.806,0 -1.395,0.58905 -1.395,1.37948 l 0.496,59.62858 c 0,0.79053 0.589,1.37958 1.395,1.37958 0.186,0 0.589,-0.0931 0.79051,-0.186 0.38749,-0.20157 6.8355,-3.37905 12.19851,-9.42406 3.76653,-4.278 5.25453,-9.12951 5.25453,-13.20601 0,-0.88351 -0.0931,-1.674 -0.20148,-2.48 m -6.83558,3.875 c 0,1.488 -0.40295,6.04501 -2.88295,9.82701 -1.68953,2.573 -5.05303,5.25448 -6.94403,6.74248 l 0.2945,-19.344 c 0.2015,-0.899 1.6895,-3.76655 5.65751,-3.76655 3.58054,0 3.87497,3.36355 3.87497,5.45606 0,0.496 0,0.79049 0,1.085"
     id="path4945"
     style="stroke-width:0.992001" />
  <path
     class="KeySig"
     d="m 211.40071,397.64417 c -0.58905,-3.85953 -2.976,-7.53301 -8.02906,-7.53301 -4.96,0 -7.843,3.06895 -8.339,3.67348 l 0.403,-31.85256 c 0,-0.79043 -0.589,-1.37948 -1.39501,-1.37948 h -1.178 c -0.806,0 -1.395,0.58905 -1.395,1.37948 l 0.496,59.62858 c 0,0.79053 0.589,1.37958 1.395,1.37958 0.186,0 0.589,-0.0931 0.79051,-0.186 0.38749,-0.20157 6.8355,-3.37905 12.19851,-9.42406 3.76653,-4.278 5.25453,-9.12951 5.25453,-13.20601 0,-0.88351 -0.0931,-1.674 -0.20148,-2.48 m -6.83558,3.875 c 0,1.488 -0.40295,6.04501 -2.88295,9.82701 -1.68953,2.573 -5.05303,5.25448 -6.94403,6.74248 l 0.2945,-19.344 c 0.2015,-0.899 1.6895,-3.76655 5.65751,-3.76655 3.58054,0 3.87497,3.36355 3.87497,5.45606 0,0.496 0,0.79049 0,1.085"
     id="path4947"
     style="stroke-width:0.992001" />
  <path
     class="TimeSig"
     d="m 265.91414,106.80117 c 7.93601,-3.08451 8.43201,-8.246007 8.43201,-10.028484 0,-0.201575 0,-0.387575 0,-0.496 0,-0.883576 -0.29442,-12.105587 -17.36001,-12.105587 -17.0655,0 -16.5695,12.105587 -16.5695,12.105587 h 0.093 l -0.093,0.201475 c 0,3.564999 2.88301,6.355009 6.44801,6.355009 3.56505,0 6.35506,-2.79001 6.35506,-6.355009 0,-2.883053 -2.18558,-5.657481 -4.96006,-6.246531 0.093,-0.108525 0.186,-0.201476 0.29451,-0.294525 1.37954,-0.992001 3.27049,-1.488002 5.16155,-1.488002 4.154,0 8.618,2.480003 8.618,7.827583 0,6.246484 -4.65,7.145484 -5.84358,7.346974 -1.19347,0.20151 -6.74243,0.589 -7.93597,0.589 -1.19351,0 -1.28651,1.39501 -1.28651,1.39501 v 1.984 c 0,0 0.186,1.085 1.28651,1.1935 1.68954,0.093 3.96797,0.093 7.14555,0.589 4.35548,0.589 6.634,3.56501 6.634,10.50906 0,6.64949 -4.464,8.43201 -8.618,8.43201 -2.79001,0 -5.36306,-0.79052 -6.44806,-1.58105 3.27048,-0.20147 5.95206,-3.06895 5.95206,-6.35496 0,-3.56505 -2.79001,-6.44805 -6.35506,-6.44805 -3.565,0 -6.44801,2.883 -6.44801,6.44805 0,0 0,0.20148 0,0.40296 0,1.28652 0.29451,4.86705 3.87501,8.13748 3.85951,3.56505 8.72648,3.67358 10.91206,3.67358 9.51696,0 19.84002,-3.28601 19.84002,-14.08959 0,-7.23848 -4.96001,-10.32299 -9.33106,-11.70249 h 0.20147"
     id="path4949"
     style="stroke-width:0.992001" />
  <path
     class="TimeSig"
     d="m 255.65319,170.08766 v 7.33158 h -8.23054 c -0.69747,0 -1.39495,0.60443 -1.39495,1.39495 v 1.89106 c 0,0.79042 0.69748,1.37947 1.39495,1.37947 h 30.05456 c 0.806,0 1.39495,-0.58905 1.39495,-1.37947 v -1.89106 c 0,-0.79052 -0.58895,-1.39495 -1.39495,-1.39495 h -8.92801 v -7.33158 h 8.92801 c 0.806,0 1.39495,-0.69748 1.39495,-1.488 v -1.89097 c 0,-0.69751 -0.58895,-1.37951 -1.39495,-1.37951 h -8.92801 v -15.77902 c 0,-0.589 -0.29452,-1.085 -0.682,-1.2865 l -1.19348,-0.6045 c -0.20157,-0.093 -0.29452,-0.093 -0.496,-0.093 -0.10852,0 -0.10852,0 -0.20157,0 -0.29443,0 -0.69748,0.093 -0.89895,0.2945 l -9.02106,8.23051 c -0.29443,0.31 -0.40295,0.6975 -0.40295,1.1005 v 8.13751 h -11.50103 c 0,0 11.11355,-11.90401 22.81599,-27.59008 0.40305,-0.496 0.496,-0.992 0.496,-1.37947 0,-0.496 -0.20148,-0.89895 -0.29443,-0.992 l -2.18557,-2.18548 c -0.29443,-0.20148 -0.58895,-0.40305 -0.992,-0.40305 -0.58895,0 -13.99644,0 -14.78697,0 -0.69748,0 -1.19348,0.60452 -1.28653,1.19357 0,0 -0.496,7.34696 -3.069,15.37599 -2.5885,8.04451 -5.5645,13.00452 -8.1375,16.66252 0,0 -0.29451,0.496 -0.29451,1.10051 0,0.20149 0,0.38754 0.093,0.58902 0.29451,0.69747 0.992,1.78252 0.992,1.78252 0,0 0.20151,0.60443 1.08501,0.60443 h 17.06554"
     id="path4951"
     style="stroke-width:0.992001" />
  <path
     class="TimeSig"
     d="m 265.91414,367.20217 c 7.93601,-3.08451 8.43201,-8.24601 8.43201,-10.02848 0,-0.20158 0,-0.38758 0,-0.496 0,-0.88358 -0.29442,-12.10559 -17.36001,-12.10559 -17.0655,0 -16.5695,12.10559 -16.5695,12.10559 h 0.093 l -0.093,0.20147 c 0,3.565 2.88301,6.35501 6.44801,6.35501 3.56505,0 6.35506,-2.79001 6.35506,-6.35501 0,-2.88305 -2.18558,-5.65748 -4.96006,-6.24653 0.093,-0.10853 0.186,-0.20148 0.29451,-0.29453 1.37954,-0.992 3.27049,-1.488 5.16155,-1.488 4.154,0 8.618,2.48001 8.618,7.82759 0,6.24648 -4.65,7.14548 -5.84358,7.34697 -1.19347,0.20151 -6.74243,0.589 -7.93597,0.589 -1.19351,0 -1.28651,1.39501 -1.28651,1.39501 v 1.984 c 0,0 0.186,1.085 1.28651,1.1935 1.68954,0.093 3.96797,0.093 7.14555,0.589 4.35548,0.589 6.634,3.56501 6.634,10.50906 0,6.64949 -4.464,8.43201 -8.618,8.43201 -2.79001,0 -5.36306,-0.79052 -6.44806,-1.58105 3.27048,-0.20147 5.95206,-3.06895 5.95206,-6.35496 0,-3.56505 -2.79001,-6.44805 -6.35506,-6.44805 -3.565,0 -6.44801,2.883 -6.44801,6.44805 0,0 0,0.20148 0,0.40296 0,1.28652 0.29451,4.86705 3.87501,8.13748 3.85951,3.56505 8.72648,3.67358 10.91206,3.67358 9.51696,0 19.84002,-3.28601 19.84002,-14.08959 0,-7.23848 -4.96001,-10.32299 -9.33106,-11.70249 h 0.20147"
     id="path4953"
     style="stroke-width:0.992001" />
  <path
     class="TimeSig"
     d="m 255.65319,430.48866 v 7.33158 h -8.23054 c -0.69747,0 -1.39495,0.60443 -1.39495,1.39495 v 1.89106 c 0,0.79042 0.69748,1.37947 1.39495,1.37947 h 30.05456 c 0.806,0 1.39495,-0.58905 1.39495,-1.37947 v -1.89106 c 0,-0.79052 -0.58895,-1.39495 -1.39495,-1.39495 h -8.92801 v -7.33158 h 8.92801 c 0.806,0 1.39495,-0.69748 1.39495,-1.488 v -1.89097 c 0,-0.69751 -0.58895,-1.37951 -1.39495,-1.37951 h -8.92801 v -15.77902 c 0,-0.589 -0.29452,-1.085 -0.682,-1.2865 l -1.19348,-0.6045 c -0.20157,-0.093 -0.29452,-0.093 -0.496,-0.093 -0.10852,0 -0.10852,0 -0.20157,0 -0.29443,0 -0.69748,0.093 -0.89895,0.2945 l -9.02106,8.23051 c -0.29443,0.31 -0.40295,0.6975 -0.40295,1.1005 v 8.13751 h -11.50103 c 0,0 11.11355,-11.90401 22.81599,-27.59008 0.40305,-0.496 0.496,-0.992 0.496,-1.37947 0,-0.496 -0.20148,-0.89895 -0.29443,-0.992 l -2.18557,-2.18548 c -0.29443,-0.20148 -0.58895,-0.40305 -0.992,-0.40305 -0.58895,0 -13.99644,0 -14.78697,0 -0.69748,0 -1.19348,0.60452 -1.28653,1.19357 0,0 -0.496,7.34696 -3.069,15.37599 -2.5885,8.04451 -5.5645,13.00452 -8.1375,16.66252 0,0 -0.29451,0.496 -0.29451,1.10051 0,0.20149 0,0.38754 0.093,0.58902 0.29451,0.69747 0.992,1.78252 0.992,1.78252 0,0 0.20151,0.60443 1.08501,0.60443 h 17.06554"
     id="path4955"
     style="stroke-width:0.992001" />
  <path
     class="Beam"
     fill-rule="evenodd"
     d="m 2187.8436,194.64117 51.29,-6.2 v 12.491 l -51.29,6.2 v -12.491"
     id="path4957" />
  <path
     class="VoltaSegment"
     d="m 1225.0536,16.985173 h -1.92 c -3.47,2.594 -7.38,3.687 -13.92,3.797 v 3.078 h 2.31 c 4.89,0 4.95,0.109 4.89,4.625 v 19.515 c 0,3.407 0,3.579 -0.38,4.125 -0.5,0.61 -1.61,0.829 -4.57,0.829 h -1.75 v 2.968 h 21.93 v -2.968 h -1.76 c -2.91,0 -3.96,-0.219 -4.46,-0.829 -0.37,-0.546 -0.37,-0.765 -0.37,-4.125 v -31.015 m 19.23,29.422 c -2.86,0 -5.17,2.312 -5.17,5.172 0,2.796 2.31,5.171 5.13,5.171 2.9,0 5.22,-2.312 5.22,-5.171 0,-2.86 -2.32,-5.172 -5.18,-5.172"
     id="path4959" />
  <polyline
     class="VoltaSegment"
     fill="none"
     stroke="#000000"
     stroke-width="2.73"
     stroke-linejoin="miter"
     stroke-miterlimit="2"
     points="1499.18,607.034 1499.18,552.474 2136.21,552.474 2136.21,607.034"
     id="polyline4961"
     transform="translate(-305.41636,-551.11183)" />
  <path
     class="VoltaSegment"
     d="m 1895.4636,41.297173 -0.61,2.75 c -0.5,2.203 -0.83,2.907 -1.26,3.188 -0.55,0.39 -0.66,0.39 -4.13,0.437 h -10.61 c 1.92,-1.656 3.36,-2.687 5.5,-4.125 7.75,-5 9.35,-6.218 10.94,-8.25 1.87,-2.468 2.97,-5.39 2.97,-7.968 0,-5.891 -5.77,-10.344 -13.52,-10.344 -7.48,0 -13.26,4.844 -13.26,11.109 0,3.844 2.15,6.328 5.45,6.328 2.86,0 4.67,-1.812 4.67,-4.672 0,-2.375 -1.05,-3.75 -3.58,-4.953 -0.61,-0.281 -0.87,-0.609 -0.87,-1.047 0,-1.765 2.97,-3.625 5.72,-3.625 3.84,0 6.04,2.36 6.04,6.438 0,4.562 -1.76,7.797 -7.59,14.016 -6.16,6.546 -8.3,9.015 -11.05,12.984 v 2.578 c 1.43,-0.156 2.03,-0.219 2.86,-0.219 h 20.67 c 1.05,0 1.71,0.063 3.36,0.219 l 1.27,-14.844 h -2.97 m 13.41,5.11 c -2.86,0 -5.17,2.312 -5.17,5.172 0,2.796 2.31,5.171 5.12,5.171 2.91,0 5.22,-2.312 5.22,-5.171 0,-2.86 -2.31,-5.172 -5.17,-5.172"
     id="path4963" />
  <polyline
     class="VoltaSegment"
     fill="none"
     stroke="#000000"
     stroke-width="2.73"
     stroke-linejoin="miter"
     stroke-miterlimit="2"
     points="2160.77,607.034 2160.77,552.474 2763.23,552.474"
     id="polyline4965"
     transform="translate(-305.41636,-551.11183)" />
  <path
     class="Bracket"
     d="m 3.3985167,262.88717 c 6.4615805,-6.85505 19.0475803,-20.84565 19.0475803,-46.748 0,-32.7574 -14.0468748,-65.85175 -14.0468748,-86.304 0,-21.9694 12.5859998,-42.477747 13.3164198,-43.151997 0,-0.393402 0,-0.393402 0,-0.730348 0,-0.393402 0,-0.730707 -0.337125,-1.067652 -0.393295,0 -1.12375,0 -1.460875,0.67425 -0.337125,0.393402 -19.77800025,19.777997 -19.77800025,49.276347 0,31.63365 12.58600025,53.94 12.58600025,95.294 0,7.92235 -3.2588753,20.50835 -12.24887525,31.68975 -0.337125,0 -0.337125,0.67425 -0.337125,1.06765 -0.337125,0.33695 0,0.73035 0.337125,1.06766 8.98999995,11.12494 12.24887525,23.71094 12.24887525,31.63329 0,41.354 -12.58600025,63.66071 -12.58600025,95.294 0,29.16147 19.44087525,48.93949 19.77800025,49.27662 0.337125,0.73043 1.06758,1.06756 1.460875,0.73043 0.337125,-0.33712 0.67425,-0.73043 0.337125,-1.06756 0,0 0,-0.39331 0,-0.73044 -0.73042,-0.73045 -13.3164198,-21.23887 -13.3164198,-43.152 0,-20.50834 14.0468748,-53.60305 14.0468748,-86.304 0,-26.23965 -12.5859998,-39.9494 -19.0475803,-46.748"
     id="path4967"
     style="stroke-width:3.596" />
</svg>
