<?xml version="1.0" encoding="UTF-8" standalone="no"?>
<svg
   xmlns:dc="http://purl.org/dc/elements/1.1/"
   xmlns:cc="http://creativecommons.org/ns#"
   xmlns:rdf="http://www.w3.org/1999/02/22-rdf-syntax-ns#"
   xmlns:svg="http://www.w3.org/2000/svg"
   xmlns="http://www.w3.org/2000/svg"
   xmlns:sodipodi="http://sodipodi.sourceforge.net/DTD/sodipodi-0.dtd"
   xmlns:inkscape="http://www.inkscape.org/namespaces/inkscape"
   width="3783.6021"
   height="645.32001"
   viewBox="0 0 3783.6021 645.32002"
   version="1.2"
   id="svg3501"
   sodipodi:docname="Dossium Canto Jongeheer Musica.svg"
   inkscape:version="1.0.2-2 (e86c870879, 2021-01-15)">
  <metadata
     id="metadata3507">
    <rdf:RDF>
      <cc:Work
         rdf:about="">
        <dc:format>image/svg+xml</dc:format>
        <dc:type
           rdf:resource="http://purl.org/dc/dcmitype/StillImage" />
      </cc:Work>
    </rdf:RDF>
  </metadata>
  <defs
     id="defs3505" />
  <sodipodi:namedview
     pagecolor="#ffffff"
     bordercolor="#666666"
     borderopacity="1"
     objecttolerance="10"
     gridtolerance="10"
     guidetolerance="10"
     inkscape:pageopacity="0"
     inkscape:pageshadow="2"
     inkscape:window-width="1920"
     inkscape:window-height="991"
     id="namedview3503"
     showgrid="false"
     inkscape:zoom="0.27542658"
     inkscape:cx="1891.602"
     inkscape:cy="959.82998"
     inkscape:window-x="-9"
     inkscape:window-y="-9"
     inkscape:window-maximized="1"
     inkscape:current-layer="svg3501" />
  <title
     id="title2787">Dossium Canto Jongeheer Musica</title>
  <desc
     id="desc2789">Generated by MuseScore Studio 4.4.4</desc>
  <polyline
     class="StaffLines"
     fill="none"
     stroke="#000000"
     stroke-width="2.73"
     stroke-linejoin="bevel"
     points="336.598,634.198 3996.2,634.198"
     id="polyline2791"
     transform="translate(-212.598,-528.77)" />
  <polyline
     class="StaffLines"
     fill="none"
     stroke="#000000"
     stroke-width="2.73"
     stroke-linejoin="bevel"
     points="336.598,658.998 3996.2,658.998"
     id="polyline2793"
     transform="translate(-212.598,-528.77)" />
  <polyline
     class="StaffLines"
     fill="none"
     stroke="#000000"
     stroke-width="2.73"
     stroke-linejoin="bevel"
     points="336.598,683.798 3996.2,683.798"
     id="polyline2795"
     transform="translate(-212.598,-528.77)" />
  <polyline
     class="StaffLines"
     fill="none"
     stroke="#000000"
     stroke-width="2.73"
     stroke-linejoin="bevel"
     points="336.598,708.598 3996.2,708.598"
     id="polyline2797"
     transform="translate(-212.598,-528.77)" />
  <polyline
     class="StaffLines"
     fill="none"
     stroke="#000000"
     stroke-width="2.73"
     stroke-linejoin="bevel"
     points="336.598,733.398 3996.2,733.398"
     id="polyline2799"
     transform="translate(-212.598,-528.77)" />
  <polyline
     class="StaffLines"
     fill="none"
     stroke="#000000"
     stroke-width="2.73"
     stroke-linejoin="bevel"
     points="212.598,1019.06 3996.2,1019.06"
     id="polyline2801"
     transform="translate(-212.598,-528.77)" />
  <polyline
     class="StaffLines"
     fill="none"
     stroke="#000000"
     stroke-width="2.73"
     stroke-linejoin="bevel"
     points="212.598,1043.86 3996.2,1043.86"
     id="polyline2803"
     transform="translate(-212.598,-528.77)" />
  <polyline
     class="StaffLines"
     fill="none"
     stroke="#000000"
     stroke-width="2.73"
     stroke-linejoin="bevel"
     points="212.598,1068.66 3996.2,1068.66"
     id="polyline2805"
     transform="translate(-212.598,-528.77)" />
  <polyline
     class="StaffLines"
     fill="none"
     stroke="#000000"
     stroke-width="2.73"
     stroke-linejoin="bevel"
     points="212.598,1093.46 3996.2,1093.46"
     id="polyline2807"
     transform="translate(-212.598,-528.77)" />
  <polyline
     class="StaffLines"
     fill="none"
     stroke="#000000"
     stroke-width="2.73"
     stroke-linejoin="bevel"
     points="212.598,1118.26 3996.2,1118.26"
     id="polyline2809"
     transform="translate(-212.598,-528.77)" />
  <path
     class="MeasureNumber"
     d="m 17.36,412.373 h -1.156 c -2.204,1.641 -6.438,3.032 -9.329,3.032 l -0.468,1.765 h 2.75 c 2.437,0 2.718,0.078 2.718,0.797 0,0.36 0,0.36 -0.39,1.797 l -4.281,16 c -0.532,2 -0.563,2.125 -0.922,2.484 -0.407,0.391 -1.25,0.516 -3.36,0.563 H 1.204 L 1,440.686 h 14.797 l 0.235,-1.875 h -2.157 c -2.593,0 -3.156,-0.203 -3.156,-1.078 0,-0.281 0.156,-1.203 0.36,-1.969 l 6.281,-23.391 m 17.672,0.157 c -8.594,0 -12.875,11.843 -12.875,18.875 0,5.797 2.89,9.875 6.968,9.875 6.829,0 12.954,-8.875 12.954,-18.797 0,-5.953 -2.844,-9.953 -7.047,-9.953 M 35,414.123 c 2.079,0 3.204,1.844 3.204,5.282 0,3.922 -1,9 -2.641,13.125 -1.922,5 -3.844,7.156 -6.25,7.156 -2.156,0 -3.359,-1.922 -3.359,-5.313 0,-5.203 1.843,-12.171 4.406,-16.796 1.234,-2.25 2.844,-3.454 4.64,-3.454"
     id="path2819" />
  <path
     class="BarLine"
     d="m 3747.155,142.628 c 0,-2.883 -2.294,-5.2545 -5.1615,-5.2545 -2.883,0 -5.1615,2.3715 -5.1615,5.2545 0,2.883 2.2785,5.2545 5.1615,5.2545 2.8675,0 5.1615,-2.3715 5.1615,-5.2545"
     id="path2821"
     style="stroke-width:0.992" />
  <path
     class="BarLine"
     d="m 3747.155,167.428 c 0,-2.883 -2.294,-5.2545 -5.1615,-5.2545 -2.883,0 -5.1615,2.3715 -5.1615,5.2545 0,2.883 2.2785,5.2545 5.1615,5.2545 2.8675,0 5.1615,-2.3715 5.1615,-5.2545"
     id="path2823"
     style="stroke-width:0.992" />
  <polyline
     class="BarLine"
     fill="none"
     stroke="#000000"
     stroke-width="4.46"
     stroke-linejoin="bevel"
     points="3971.15,632.834 3971.15,734.762"
     id="polyline2825"
     transform="translate(-212.598,-528.77)" />
  <polyline
     class="BarLine"
     fill="none"
     stroke="#000000"
     stroke-width="13.64"
     stroke-linejoin="bevel"
     points="3989.38,632.834 3989.38,734.762"
     id="polyline2827"
     transform="translate(-212.598,-528.77)" />
  <polyline
     class="BarLine"
     fill="none"
     stroke="#000000"
     stroke-width="4.46"
     stroke-linejoin="bevel"
     points="3371.5,1017.69 3371.5,1119.62"
     id="polyline2829"
     transform="translate(-212.598,-528.77)" />
  <polyline
     class="BarLine"
     fill="none"
     stroke="#000000"
     stroke-width="4.46"
     stroke-linejoin="bevel"
     points="3006.42,1017.69 3006.42,1119.62"
     id="polyline2831"
     transform="translate(-212.598,-528.77)" />
  <polyline
     class="BarLine"
     fill="none"
     stroke="#000000"
     stroke-width="4.46"
     stroke-linejoin="bevel"
     points="2641.34,1017.69 2641.34,1119.62"
     id="polyline2833"
     transform="translate(-212.598,-528.77)" />
  <path
     class="BarLine"
     d="m 2029.445,527.49 c 0,-2.883 -2.294,-5.2545 -5.1615,-5.2545 -2.883,0 -5.1615,2.3715 -5.1615,5.2545 0,2.883 2.2785,5.2545 5.1615,5.2545 2.8675,0 5.1615,-2.3715 5.1615,-5.2545"
     id="path2835"
     style="stroke-width:0.992" />
  <path
     class="BarLine"
     d="m 2029.445,552.29 c 0,-2.883 -2.294,-5.2545 -5.1615,-5.2545 -2.883,0 -5.1615,2.3715 -5.1615,5.2545 0,2.883 2.2785,5.2545 5.1615,5.2545 2.8675,0 5.1615,-2.3715 5.1615,-5.2545"
     id="path2837"
     style="stroke-width:0.992" />
  <polyline
     class="BarLine"
     fill="none"
     stroke="#000000"
     stroke-width="4.46"
     stroke-linejoin="bevel"
     points="2253.44,1017.69 2253.44,1119.62"
     id="polyline2839"
     transform="translate(-212.598,-528.77)" />
  <polyline
     class="BarLine"
     fill="none"
     stroke="#000000"
     stroke-width="13.64"
     stroke-linejoin="bevel"
     points="2271.66,1017.69 2271.66,1119.62"
     id="polyline2841"
     transform="translate(-212.598,-528.77)" />
  <polyline
     class="BarLine"
     fill="none"
     stroke="#000000"
     stroke-width="4.46"
     stroke-linejoin="bevel"
     points="1868.87,1017.69 1868.87,1119.62"
     id="polyline2843"
     transform="translate(-212.598,-528.77)" />
  <polyline
     class="BarLine"
     fill="none"
     stroke="#000000"
     stroke-width="4.46"
     stroke-linejoin="bevel"
     points="2846.48,632.834 2846.48,734.762"
     id="polyline2845"
     transform="translate(-212.598,-528.77)" />
  <polyline
     class="BarLine"
     fill="none"
     stroke="#000000"
     stroke-width="4.46"
     stroke-linejoin="bevel"
     points="3210.21,632.834 3210.21,734.762"
     id="polyline2847"
     transform="translate(-212.598,-528.77)" />
  <polyline
     class="BarLine"
     fill="none"
     stroke="#000000"
     stroke-width="13.64"
     stroke-linejoin="bevel"
     points="2445.04,632.834 2445.04,734.762"
     id="polyline2849"
     transform="translate(-212.598,-528.77)" />
  <polyline
     class="BarLine"
     fill="none"
     stroke="#000000"
     stroke-width="4.46"
     stroke-linejoin="bevel"
     points="2463.27,632.834 2463.27,734.762"
     id="polyline2851"
     transform="translate(-212.598,-528.77)" />
  <path
     class="BarLine"
     d="m 2272.405,142.628 c 0,-2.883 -2.294,-5.2545 -5.1615,-5.2545 -2.883,0 -5.1615,2.3715 -5.1615,5.2545 0,2.883 2.2785,5.2545 5.1615,5.2545 2.8675,0 5.1615,-2.3715 5.1615,-5.2545"
     id="path2853"
     style="stroke-width:0.992" />
  <path
     class="BarLine"
     d="m 2272.405,167.428 c 0,-2.883 -2.294,-5.2545 -5.1615,-5.2545 -2.883,0 -5.1615,2.3715 -5.1615,5.2545 0,2.883 2.2785,5.2545 5.1615,5.2545 2.8675,0 5.1615,-2.3715 5.1615,-5.2545"
     id="path2855"
     style="stroke-width:0.992" />
  <polyline
     class="BarLine"
     fill="none"
     stroke="#000000"
     stroke-width="4.46"
     stroke-linejoin="bevel"
     points="1503.79,1017.69 1503.79,1119.62"
     id="polyline2857"
     transform="translate(-212.598,-528.77)" />
  <path
     class="BarLine"
     d="m 1829.915,142.628 c 0,-2.883 -2.294,-5.2545 -5.1615,-5.2545 -2.883,0 -5.1615,2.3715 -5.1615,5.2545 0,2.883 2.2785,5.2545 5.1615,5.2545 2.8675,0 5.1615,-2.3715 5.1615,-5.2545"
     id="path2859"
     style="stroke-width:0.992" />
  <path
     class="BarLine"
     d="m 1829.915,167.428 c 0,-2.883 -2.294,-5.2545 -5.1615,-5.2545 -2.883,0 -5.1615,2.3715 -5.1615,5.2545 0,2.883 2.2785,5.2545 5.1615,5.2545 2.8675,0 5.1615,-2.3715 5.1615,-5.2545"
     id="path2861"
     style="stroke-width:0.992" />
  <polyline
     class="BarLine"
     fill="none"
     stroke="#000000"
     stroke-width="4.46"
     stroke-linejoin="bevel"
     points="2053.9,632.834 2053.9,734.762"
     id="polyline2863"
     transform="translate(-212.598,-528.77)" />
  <polyline
     class="BarLine"
     fill="none"
     stroke="#000000"
     stroke-width="13.64"
     stroke-linejoin="bevel"
     points="2072.13,632.834 2072.13,734.762"
     id="polyline2865"
     transform="translate(-212.598,-528.77)" />
  <polyline
     class="BarLine"
     fill="none"
     stroke="#000000"
     stroke-width="4.46"
     stroke-linejoin="bevel"
     points="1670.69,632.834 1670.69,734.762"
     id="polyline2867"
     transform="translate(-212.598,-528.77)" />
  <polyline
     class="BarLine"
     fill="none"
     stroke="#000000"
     stroke-width="4.46"
     stroke-linejoin="bevel"
     points="1138.7,1017.69 1138.7,1119.62"
     id="polyline2869"
     transform="translate(-212.598,-528.77)" />
  <polyline
     class="BarLine"
     fill="none"
     stroke="#000000"
     stroke-width="4.46"
     stroke-linejoin="bevel"
     points="1292.97,632.834 1292.97,734.762"
     id="polyline2871"
     transform="translate(-212.598,-528.77)" />
  <polyline
     class="BarLine"
     fill="none"
     stroke="#000000"
     stroke-width="13.64"
     stroke-linejoin="bevel"
     points="735.906,1017.69 735.906,1119.62"
     id="polyline2873"
     transform="translate(-212.598,-528.77)" />
  <polyline
     class="BarLine"
     fill="none"
     stroke="#000000"
     stroke-width="4.46"
     stroke-linejoin="bevel"
     points="754.134,1017.69 754.134,1119.62"
     id="polyline2875"
     transform="translate(-212.598,-528.77)" />
  <path
     class="BarLine"
     d="m 563.26705,527.49 c 0,-2.883 -2.29405,-5.2545 -5.16155,-5.2545 -2.883,0 -5.1615,2.3715 -5.1615,5.2545 0,2.883 2.2785,5.2545 5.1615,5.2545 2.8675,0 5.16155,-2.3715 5.16155,-5.2545"
     id="path2877"
     style="stroke-width:0.992" />
  <path
     class="BarLine"
     d="m 563.26705,552.29 c 0,-2.883 -2.29405,-5.2545 -5.16155,-5.2545 -2.883,0 -5.1615,2.3715 -5.1615,5.2545 0,2.883 2.2785,5.2545 5.1615,5.2545 2.8675,0 5.16155,-2.3715 5.16155,-5.2545"
     id="path2879"
     style="stroke-width:0.992" />
  <polyline
     class="BarLine"
     fill="none"
     stroke="#000000"
     stroke-width="4.46"
     stroke-linejoin="bevel"
     points="3587.94,632.834 3587.94,734.762"
     id="polyline2881"
     transform="translate(-212.598,-528.77)" />
  <polyline
     class="BarLine"
     fill="none"
     stroke="#000000"
     stroke-width="4.46"
     stroke-linejoin="bevel"
     points="726.854,1017.69 726.854,1119.62"
     id="polyline2883"
     transform="translate(-212.598,-528.77)" />
  <polyline
     class="BarLine"
     fill="none"
     stroke="#000000"
     stroke-width="4.46"
     stroke-linejoin="bevel"
     points="3971.15,1017.69 3971.15,1119.62"
     id="polyline2885"
     transform="translate(-212.598,-528.77)" />
  <polyline
     class="BarLine"
     fill="none"
     stroke="#000000"
     stroke-width="13.64"
     stroke-linejoin="bevel"
     points="3989.38,1017.69 3989.38,1119.62"
     id="polyline2887"
     transform="translate(-212.598,-528.77)" />
  <polyline
     class="BarLine"
     fill="none"
     stroke="#000000"
     stroke-width="4.46"
     stroke-linejoin="bevel"
     points="903.876,632.834 903.876,734.762"
     id="polyline2889"
     transform="translate(-212.598,-528.77)" />
  <polyline
     class="BarLine"
     fill="none"
     stroke="#000000"
     stroke-width="4.46"
     stroke-linejoin="bevel"
     points="3736.59,1017.69 3736.59,1119.62"
     id="polyline2891"
     transform="translate(-212.598,-528.77)" />
  <polyline
     class="LedgerLine"
     fill="none"
     stroke="#000000"
     stroke-width="3.97"
     stroke-linejoin="bevel"
     points="1318.02,758.198 1366.61,758.198"
     id="polyline2893"
     transform="translate(-212.598,-528.77)" />
  <polyline
     class="LedgerLine"
     fill="none"
     stroke="#000000"
     stroke-width="3.97"
     stroke-linejoin="bevel"
     points="2766.64,758.198 2815.23,758.198"
     id="polyline2895"
     transform="translate(-212.598,-528.77)" />
  <polyline
     class="LedgerLine"
     fill="none"
     stroke="#000000"
     stroke-width="3.97"
     stroke-linejoin="bevel"
     points="1901.87,758.198 1950.47,758.198"
     id="polyline2897"
     transform="translate(-212.598,-528.77)" />
  <polyline
     class="LedgerLine"
     fill="none"
     stroke="#000000"
     stroke-width="3.97"
     stroke-linejoin="bevel"
     points="1536.06,758.198 1584.65,758.198"
     id="polyline2899"
     transform="translate(-212.598,-528.77)" />
  <polyline
     class="LedgerLine"
     fill="none"
     stroke="#000000"
     stroke-width="3.97"
     stroke-linejoin="bevel"
     points="3130.37,758.198 3178.97,758.198"
     id="polyline2901"
     transform="translate(-212.598,-528.77)" />
  <polyline
     class="LedgerLine"
     fill="none"
     stroke="#000000"
     stroke-width="3.97"
     stroke-linejoin="bevel"
     points="1695.74,758.198 1744.33,758.198"
     id="polyline2903"
     transform="translate(-212.598,-528.77)" />
  <polyline
     class="LedgerLine"
     fill="none"
     stroke="#000000"
     stroke-width="3.97"
     stroke-linejoin="bevel"
     points="1590.85,758.198 1639.44,758.198"
     id="polyline2905"
     transform="translate(-212.598,-528.77)" />
  <polyline
     class="LedgerLine"
     fill="none"
     stroke="#000000"
     stroke-width="3.97"
     stroke-linejoin="bevel"
     points="3453.3,758.198 3501.89,758.198"
     id="polyline2907"
     transform="translate(-212.598,-528.77)" />
  <polyline
     class="LedgerLine"
     fill="none"
     stroke="#000000"
     stroke-width="3.97"
     stroke-linejoin="bevel"
     points="3508.09,758.198 3556.69,758.198"
     id="polyline2909"
     transform="translate(-212.598,-528.77)" />
  <polyline
     class="LedgerLine"
     fill="none"
     stroke="#000000"
     stroke-width="3.97"
     stroke-linejoin="bevel"
     points="1954.58,758.198 2003.17,758.198"
     id="polyline2911"
     transform="translate(-212.598,-528.77)" />
  <polyline
     class="Stem"
     fill="none"
     stroke="#000000"
     stroke-width="2.48"
     stroke-linejoin="bevel"
     points="1463.11,1089.49 1463.11,981.856"
     id="polyline2913"
     transform="translate(-212.598,-528.77)" />
  <polyline
     class="Stem"
     fill="none"
     stroke="#000000"
     stroke-width="2.48"
     stroke-linejoin="bevel"
     points="1410.02,1077.09 1410.02,981.856"
     id="polyline2915"
     transform="translate(-212.598,-528.77)" />
  <polyline
     class="Stem"
     fill="none"
     stroke="#000000"
     stroke-width="2.48"
     stroke-linejoin="bevel"
     points="604.361,704.63 604.361,621.798"
     id="polyline2917"
     transform="translate(-212.598,-528.77)" />
  <polyline
     class="Stem"
     fill="none"
     stroke="#000000"
     stroke-width="2.48"
     stroke-linejoin="bevel"
     points="978.007,1060.42 978.007,1143.06"
     id="polyline2919"
     transform="translate(-212.598,-528.77)" />
  <polyline
     class="Stem"
     fill="none"
     stroke="#000000"
     stroke-width="2.48"
     stroke-linejoin="bevel"
     points="1372.84,1064.69 1372.84,981.856"
     id="polyline2921"
     transform="translate(-212.598,-528.77)" />
  <polyline
     class="Stem"
     fill="none"
     stroke="#000000"
     stroke-width="2.48"
     stroke-linejoin="bevel"
     points="683.421,692.23 683.421,615.598"
     id="polyline2923"
     transform="translate(-212.598,-528.77)" />
  <polyline
     class="Stem"
     fill="none"
     stroke="#000000"
     stroke-width="2.48"
     stroke-linejoin="bevel"
     points="2663.21,704.63 2663.21,619.52"
     id="polyline2925"
     transform="translate(-212.598,-528.77)" />
  <polyline
     class="Stem"
     fill="none"
     stroke="#000000"
     stroke-width="2.48"
     stroke-linejoin="bevel"
     points="1319.74,1052.29 1319.74,981.856"
     id="polyline2927"
     transform="translate(-212.598,-528.77)" />
  <polyline
     class="Stem"
     fill="none"
     stroke="#000000"
     stroke-width="2.48"
     stroke-linejoin="bevel"
     points="720.606,679.83 720.606,615.598"
     id="polyline2929"
     transform="translate(-212.598,-528.77)" />
  <polyline
     class="Stem"
     fill="none"
     stroke="#000000"
     stroke-width="2.48"
     stroke-linejoin="bevel"
     points="3492.47,754.23 3492.47,651.918"
     id="polyline2931"
     transform="translate(-212.598,-528.77)" />
  <polyline
     class="Stem"
     fill="none"
     stroke="#000000"
     stroke-width="2.48"
     stroke-linejoin="bevel"
     points="773.313,692.23 773.313,615.598"
     id="polyline2933"
     transform="translate(-212.598,-528.77)" />
  <polyline
     class="Stem"
     fill="none"
     stroke="#000000"
     stroke-width="2.48"
     stroke-linejoin="bevel"
     points="2715.92,717.03 2715.92,624.898"
     id="polyline2935"
     transform="translate(-212.598,-528.77)" />
  <polyline
     class="Stem"
     fill="none"
     stroke="#000000"
     stroke-width="2.48"
     stroke-linejoin="bevel"
     points="810.497,704.63 810.497,615.598"
     id="polyline2937"
     transform="translate(-212.598,-528.77)" />
  <polyline
     class="Stem"
     fill="none"
     stroke="#000000"
     stroke-width="2.48"
     stroke-linejoin="bevel"
     points="863.204,717.03 863.204,615.598"
     id="polyline2939"
     transform="translate(-212.598,-528.77)" />
  <polyline
     class="Stem"
     fill="none"
     stroke="#000000"
     stroke-width="2.48"
     stroke-linejoin="bevel"
     points="2753.1,729.43 2753.1,628.693"
     id="polyline2941"
     transform="translate(-212.598,-528.77)" />
  <polyline
     class="Stem"
     fill="none"
     stroke="#000000"
     stroke-width="2.48"
     stroke-linejoin="bevel"
     points="968.092,729.43 968.092,646.598"
     id="polyline2943"
     transform="translate(-212.598,-528.77)" />
  <polyline
     class="Stem"
     fill="none"
     stroke="#000000"
     stroke-width="2.48"
     stroke-linejoin="bevel"
     points="597.18,1089.49 597.18,1003.56"
     id="polyline2945"
     transform="translate(-212.598,-528.77)" />
  <polyline
     class="Stem"
     fill="none"
     stroke="#000000"
     stroke-width="2.48"
     stroke-linejoin="bevel"
     points="1047.15,717.03 1047.15,634.198"
     id="polyline2947"
     transform="translate(-212.598,-528.77)" />
  <polyline
     class="Stem"
     fill="none"
     stroke="#000000"
     stroke-width="2.48"
     stroke-linejoin="bevel"
     points="2805.81,741.83 2805.81,634.072"
     id="polyline2949"
     transform="translate(-212.598,-528.77)" />
  <polyline
     class="Stem"
     fill="none"
     stroke="#000000"
     stroke-width="2.48"
     stroke-linejoin="bevel"
     points="1282.56,1064.69 1282.56,981.856"
     id="polyline2951"
     transform="translate(-212.598,-528.77)" />
  <polyline
     class="Stem"
     fill="none"
     stroke="#000000"
     stroke-width="2.48"
     stroke-linejoin="bevel"
     points="1084.34,704.63 1084.34,634.198"
     id="polyline2953"
     transform="translate(-212.598,-528.77)" />
  <polyline
     class="Stem"
     fill="none"
     stroke="#000000"
     stroke-width="2.48"
     stroke-linejoin="bevel"
     points="1137.04,717.03 1137.04,634.198"
     id="polyline2955"
     transform="translate(-212.598,-528.77)" />
  <polyline
     class="Stem"
     fill="none"
     stroke="#000000"
     stroke-width="2.48"
     stroke-linejoin="bevel"
     points="3547.26,766.63 3547.26,658.842"
     id="polyline2957"
     transform="translate(-212.598,-528.77)" />
  <polyline
     class="Stem"
     fill="none"
     stroke="#000000"
     stroke-width="2.48"
     stroke-linejoin="bevel"
     points="1174.23,729.43 1174.23,634.198"
     id="polyline2959"
     transform="translate(-212.598,-528.77)" />
  <polyline
     class="Stem"
     fill="none"
     stroke="#000000"
     stroke-width="2.48"
     stroke-linejoin="bevel"
     points="2910.7,692.23 2910.7,615.598"
     id="polyline2961"
     transform="translate(-212.598,-528.77)" />
  <polyline
     class="Stem"
     fill="none"
     stroke="#000000"
     stroke-width="2.48"
     stroke-linejoin="bevel"
     points="1252.3,741.83 1252.3,634.198"
     id="polyline2963"
     transform="translate(-212.598,-528.77)" />
  <polyline
     class="Stem"
     fill="none"
     stroke="#000000"
     stroke-width="2.48"
     stroke-linejoin="bevel"
     points="1357.18,754.23 1357.18,671.398"
     id="polyline2965"
     transform="translate(-212.598,-528.77)" />
  <polyline
     class="Stem"
     fill="none"
     stroke="#000000"
     stroke-width="2.48"
     stroke-linejoin="bevel"
     points="2989.76,704.63 2989.76,634.241"
     id="polyline2967"
     transform="translate(-212.598,-528.77)" />
  <polyline
     class="Stem"
     fill="none"
     stroke="#000000"
     stroke-width="2.48"
     stroke-linejoin="bevel"
     points="686.182,1064.69 686.182,1000.5"
     id="polyline2969"
     transform="translate(-212.598,-528.77)" />
  <polyline
     class="Stem"
     fill="none"
     stroke="#000000"
     stroke-width="2.48"
     stroke-linejoin="bevel"
     points="1436.25,741.83 1436.25,658.998"
     id="polyline2971"
     transform="translate(-212.598,-528.77)" />
  <polyline
     class="Stem"
     fill="none"
     stroke="#000000"
     stroke-width="2.48"
     stroke-linejoin="bevel"
     points="924.914,1048.02 924.914,1139.46"
     id="polyline2973"
     transform="translate(-212.598,-528.77)" />
  <polyline
     class="Stem"
     fill="none"
     stroke="#000000"
     stroke-width="2.48"
     stroke-linejoin="bevel"
     points="1202.92,1077.09 1202.92,1000.46"
     id="polyline2975"
     transform="translate(-212.598,-528.77)" />
  <polyline
     class="Stem"
     fill="none"
     stroke="#000000"
     stroke-width="2.48"
     stroke-linejoin="bevel"
     points="1473.43,729.43 1473.43,658.998"
     id="polyline2977"
     transform="translate(-212.598,-528.77)" />
  <polyline
     class="Stem"
     fill="none"
     stroke="#000000"
     stroke-width="2.48"
     stroke-linejoin="bevel"
     points="3026.94,717.03 3026.94,635.506"
     id="polyline2979"
     transform="translate(-212.598,-528.77)" />
  <polyline
     class="Stem"
     fill="none"
     stroke="#000000"
     stroke-width="2.48"
     stroke-linejoin="bevel"
     points="1526.14,741.83 1526.14,658.998"
     id="polyline2981"
     transform="translate(-212.598,-528.77)" />
  <polyline
     class="Stem"
     fill="none"
     stroke="#000000"
     stroke-width="2.48"
     stroke-linejoin="bevel"
     points="3652.15,741.83 3652.15,658.998"
     id="polyline2983"
     transform="translate(-212.598,-528.77)" />
  <polyline
     class="Stem"
     fill="none"
     stroke="#000000"
     stroke-width="2.48"
     stroke-linejoin="bevel"
     points="1575.22,754.23 1575.22,658.998"
     id="polyline2985"
     transform="translate(-212.598,-528.77)" />
  <polyline
     class="Stem"
     fill="none"
     stroke="#000000"
     stroke-width="2.48"
     stroke-linejoin="bevel"
     points="3079.65,729.43 3079.65,637.298"
     id="polyline2987"
     transform="translate(-212.598,-528.77)" />
  <polyline
     class="Stem"
     fill="none"
     stroke="#000000"
     stroke-width="2.48"
     stroke-linejoin="bevel"
     points="1630.02,766.63 1630.02,658.998"
     id="polyline2989"
     transform="translate(-212.598,-528.77)" />
  <polyline
     class="Stem"
     fill="none"
     stroke="#000000"
     stroke-width="2.48"
     stroke-linejoin="bevel"
     points="3116.84,741.83 3116.84,638.563"
     id="polyline2991"
     transform="translate(-212.598,-528.77)" />
  <polyline
     class="Stem"
     fill="none"
     stroke="#000000"
     stroke-width="2.48"
     stroke-linejoin="bevel"
     points="1734.91,741.83 1734.91,658.998"
     id="polyline2993"
     transform="translate(-212.598,-528.77)" />
  <polyline
     class="Stem"
     fill="none"
     stroke="#000000"
     stroke-width="2.48"
     stroke-linejoin="bevel"
     points="1568,1089.49 1568,1006.66"
     id="polyline2995"
     transform="translate(-212.598,-528.77)" />
  <polyline
     class="Stem"
     fill="none"
     stroke="#000000"
     stroke-width="2.48"
     stroke-linejoin="bevel"
     points="1813.97,729.43 1813.97,640.398"
     id="polyline2997"
     transform="translate(-212.598,-528.77)" />
  <polyline
     class="Stem"
     fill="none"
     stroke="#000000"
     stroke-width="2.48"
     stroke-linejoin="bevel"
     points="3169.54,754.23 3169.54,640.356"
     id="polyline2999"
     transform="translate(-212.598,-528.77)" />
  <polyline
     class="Stem"
     fill="none"
     stroke="#000000"
     stroke-width="2.48"
     stroke-linejoin="bevel"
     points="3858.29,741.83 3858.29,640.398"
     id="polyline3001"
     transform="translate(-212.598,-528.77)" />
  <polyline
     class="Stem"
     fill="none"
     stroke="#000000"
     stroke-width="2.48"
     stroke-linejoin="bevel"
     points="1851.15,717.03 1851.15,640.398"
     id="polyline3003"
     transform="translate(-212.598,-528.77)" />
  <polyline
     class="Stem"
     fill="none"
     stroke="#000000"
     stroke-width="2.48"
     stroke-linejoin="bevel"
     points="1903.86,729.43 1903.86,640.398"
     id="polyline3005"
     transform="translate(-212.598,-528.77)" />
  <polyline
     class="Stem"
     fill="none"
     stroke="#000000"
     stroke-width="2.48"
     stroke-linejoin="bevel"
     points="508.178,1114.29 508.178,1006.61"
     id="polyline3007"
     transform="translate(-212.598,-528.77)" />
  <polyline
     class="Stem"
     fill="none"
     stroke="#000000"
     stroke-width="2.48"
     stroke-linejoin="bevel"
     points="1941.04,741.83 1941.04,640.398"
     id="polyline3009"
     transform="translate(-212.598,-528.77)" />
  <polyline
     class="Stem"
     fill="none"
     stroke="#000000"
     stroke-width="2.48"
     stroke-linejoin="bevel"
     points="3274.43,704.63 3274.43,621.798"
     id="polyline3011"
     transform="translate(-212.598,-528.77)" />
  <polyline
     class="Stem"
     fill="none"
     stroke="#000000"
     stroke-width="2.48"
     stroke-linejoin="bevel"
     points="1993.75,717.03 1993.75,640.398"
     id="polyline3013"
     transform="translate(-212.598,-528.77)" />
  <polyline
     class="Stem"
     fill="none"
     stroke="#000000"
     stroke-width="2.48"
     stroke-linejoin="bevel"
     points="1647.64,1077.09 1647.64,1000.46"
     id="polyline3015"
     transform="translate(-212.598,-528.77)" />
  <polyline
     class="Stem"
     fill="none"
     stroke="#000000"
     stroke-width="2.48"
     stroke-linejoin="bevel"
     points="634.364,1077.09 634.364,1002.28"
     id="polyline3017"
     transform="translate(-212.598,-528.77)" />
  <polyline
     class="Stem"
     fill="none"
     stroke="#000000"
     stroke-width="2.48"
     stroke-linejoin="bevel"
     points="2140.94,741.83 2140.94,658.998"
     id="polyline3019"
     transform="translate(-212.598,-528.77)" />
  <polyline
     class="Stem"
     fill="none"
     stroke="#000000"
     stroke-width="2.48"
     stroke-linejoin="bevel"
     points="1068.28,1085.22 1068.28,1149.17"
     id="polyline3021"
     transform="translate(-212.598,-528.77)" />
  <polyline
     class="Stem"
     fill="none"
     stroke="#000000"
     stroke-width="2.48"
     stroke-linejoin="bevel"
     points="2220,729.43 2220,621.756"
     id="polyline3023"
     transform="translate(-212.598,-528.77)" />
  <polyline
     class="Stem"
     fill="none"
     stroke="#000000"
     stroke-width="2.48"
     stroke-linejoin="bevel"
     points="3353.49,717.03 3353.49,634.355"
     id="polyline3025"
     transform="translate(-212.598,-528.77)" />
  <polyline
     class="Stem"
     fill="none"
     stroke="#000000"
     stroke-width="2.48"
     stroke-linejoin="bevel"
     points="1015.19,1072.82 1015.19,1145.58"
     id="polyline3027"
     transform="translate(-212.598,-528.77)" />
  <polyline
     class="Stem"
     fill="none"
     stroke="#000000"
     stroke-width="2.48"
     stroke-linejoin="bevel"
     points="2257.18,717.03 2257.18,620.491"
     id="polyline3029"
     transform="translate(-212.598,-528.77)" />
  <polyline
     class="Stem"
     fill="none"
     stroke="#000000"
     stroke-width="2.48"
     stroke-linejoin="bevel"
     points="808.09,1072.82 808.09,1143.06"
     id="polyline3031"
     transform="translate(-212.598,-528.77)" />
  <polyline
     class="Stem"
     fill="none"
     stroke="#000000"
     stroke-width="2.48"
     stroke-linejoin="bevel"
     points="2309.89,704.63 2309.89,618.698"
     id="polyline3033"
     transform="translate(-212.598,-528.77)" />
  <polyline
     class="Stem"
     fill="none"
     stroke="#000000"
     stroke-width="2.48"
     stroke-linejoin="bevel"
     points="887.729,1060.42 887.729,1136.94"
     id="polyline3035"
     transform="translate(-212.598,-528.77)" />
  <polyline
     class="Stem"
     fill="none"
     stroke="#000000"
     stroke-width="2.48"
     stroke-linejoin="bevel"
     points="2347.07,692.23 2347.07,617.434"
     id="polyline3037"
     transform="translate(-212.598,-528.77)" />
  <polyline
     class="Stem"
     fill="none"
     stroke="#000000"
     stroke-width="2.48"
     stroke-linejoin="bevel"
     points="3390.68,729.43 3390.68,639.054"
     id="polyline3039"
     transform="translate(-212.598,-528.77)" />
  <polyline
     class="Stem"
     fill="none"
     stroke="#000000"
     stroke-width="2.48"
     stroke-linejoin="bevel"
     points="2399.78,679.83 2399.78,615.641"
     id="polyline3041"
     transform="translate(-212.598,-528.77)" />
  <polyline
     class="Stem"
     fill="none"
     stroke="#000000"
     stroke-width="2.48"
     stroke-linejoin="bevel"
     points="545.362,1101.89 545.362,1005.34"
     id="polyline3043"
     transform="translate(-212.598,-528.77)" />
  <polyline
     class="Stem"
     fill="none"
     stroke="#000000"
     stroke-width="2.48"
     stroke-linejoin="bevel"
     points="2517.22,687.965 2517.22,758.198"
     id="polyline3045"
     transform="translate(-212.598,-528.77)" />
  <polyline
     class="Stem"
     fill="none"
     stroke="#000000"
     stroke-width="2.48"
     stroke-linejoin="bevel"
     points="3443.38,741.83 3443.38,645.715"
     id="polyline3047"
     transform="translate(-212.598,-528.77)" />
  <polyline
     class="Stem"
     fill="none"
     stroke="#000000"
     stroke-width="2.48"
     stroke-linejoin="bevel"
     points="2626.03,692.23 2626.03,615.725"
     id="polyline3049"
     transform="translate(-212.598,-528.77)" />
  <polyline
     class="Stem"
     fill="none"
     stroke="#000000"
     stroke-width="2.48"
     stroke-linejoin="bevel"
     points="3910.99,717.03 3910.99,640.398"
     id="polyline3051"
     transform="translate(-212.598,-528.77)" />
  <polyline
     class="Stem"
     fill="none"
     stroke="#000000"
     stroke-width="2.48"
     stroke-linejoin="bevel"
     points="1684.83,1064.69 1684.83,1000.46"
     id="polyline3053"
     transform="translate(-212.598,-528.77)" />
  <polyline
     class="Stem"
     fill="none"
     stroke="#000000"
     stroke-width="2.48"
     stroke-linejoin="bevel"
     points="1737.92,1077.09 1737.92,1000.46"
     id="polyline3055"
     transform="translate(-212.598,-528.77)" />
  <polyline
     class="Stem"
     fill="none"
     stroke="#000000"
     stroke-width="2.48"
     stroke-linejoin="bevel"
     points="1775.1,1089.49 1775.1,1000.46"
     id="polyline3057"
     transform="translate(-212.598,-528.77)" />
  <polyline
     class="Stem"
     fill="none"
     stroke="#000000"
     stroke-width="2.48"
     stroke-linejoin="bevel"
     points="1828.2,1101.89 1828.2,1000.46"
     id="polyline3059"
     transform="translate(-212.598,-528.77)" />
  <polyline
     class="Stem"
     fill="none"
     stroke="#000000"
     stroke-width="2.48"
     stroke-linejoin="bevel"
     points="3821.1,729.43 3821.1,640.398"
     id="polyline3061"
     transform="translate(-212.598,-528.77)" />
  <polyline
     class="Stem"
     fill="none"
     stroke="#000000"
     stroke-width="2.48"
     stroke-linejoin="bevel"
     points="1933.09,1101.89 1933.09,1019.06"
     id="polyline3063"
     transform="translate(-212.598,-528.77)" />
  <polyline
     class="Stem"
     fill="none"
     stroke="#000000"
     stroke-width="2.48"
     stroke-linejoin="bevel"
     points="2012.73,1077.09 2012.73,1000.46"
     id="polyline3065"
     transform="translate(-212.598,-528.77)" />
  <polyline
     class="Stem"
     fill="none"
     stroke="#000000"
     stroke-width="2.48"
     stroke-linejoin="bevel"
     points="2049.91,1064.69 2049.91,1000.46"
     id="polyline3067"
     transform="translate(-212.598,-528.77)" />
  <polyline
     class="Stem"
     fill="none"
     stroke="#000000"
     stroke-width="2.48"
     stroke-linejoin="bevel"
     points="2103,1077.09 2103,1000.46"
     id="polyline3069"
     transform="translate(-212.598,-528.77)" />
  <polyline
     class="Stem"
     fill="none"
     stroke="#000000"
     stroke-width="2.48"
     stroke-linejoin="bevel"
     points="2140.19,1101.89 2140.19,1000.46"
     id="polyline3071"
     transform="translate(-212.598,-528.77)" />
  <polyline
     class="Stem"
     fill="none"
     stroke="#000000"
     stroke-width="2.48"
     stroke-linejoin="bevel"
     points="2193.28,1089.49 2193.28,1000.46"
     id="polyline3073"
     transform="translate(-212.598,-528.77)" />
  <polyline
     class="Stem"
     fill="none"
     stroke="#000000"
     stroke-width="2.48"
     stroke-linejoin="bevel"
     points="2340.47,1101.89 2340.47,1019.06"
     id="polyline3075"
     transform="translate(-212.598,-528.77)" />
  <polyline
     class="Stem"
     fill="none"
     stroke="#000000"
     stroke-width="2.48"
     stroke-linejoin="bevel"
     points="2390.36,1097.62 2390.36,1167.73"
     id="polyline3077"
     transform="translate(-212.598,-528.77)" />
  <polyline
     class="Stem"
     fill="none"
     stroke="#000000"
     stroke-width="2.48"
     stroke-linejoin="bevel"
     points="2427.55,1085.22 2427.55,1163.95"
     id="polyline3079"
     transform="translate(-212.598,-528.77)" />
  <polyline
     class="Stem"
     fill="none"
     stroke="#000000"
     stroke-width="2.48"
     stroke-linejoin="bevel"
     points="2480.64,1072.82 2480.64,1158.56"
     id="polyline3081"
     transform="translate(-212.598,-528.77)" />
  <polyline
     class="Stem"
     fill="none"
     stroke="#000000"
     stroke-width="2.48"
     stroke-linejoin="bevel"
     points="2517.83,1060.42 2517.83,1154.78"
     id="polyline3083"
     transform="translate(-212.598,-528.77)" />
  <polyline
     class="Stem"
     fill="none"
     stroke="#000000"
     stroke-width="2.48"
     stroke-linejoin="bevel"
     points="2570.92,1048.02 2570.92,1149.38"
     id="polyline3085"
     transform="translate(-212.598,-528.77)" />
  <polyline
     class="Stem"
     fill="none"
     stroke="#000000"
     stroke-width="2.48"
     stroke-linejoin="bevel"
     points="3768.4,717.03 3768.4,640.398"
     id="polyline3087"
     transform="translate(-212.598,-528.77)" />
  <polyline
     class="Stem"
     fill="none"
     stroke="#000000"
     stroke-width="2.48"
     stroke-linejoin="bevel"
     points="2675.81,1048.02 2675.81,1130.66"
     id="polyline3089"
     transform="translate(-212.598,-528.77)" />
  <polyline
     class="Stem"
     fill="none"
     stroke="#000000"
     stroke-width="2.48"
     stroke-linejoin="bevel"
     points="2755.45,1035.62 2755.45,1112.14"
     id="polyline3091"
     transform="translate(-212.598,-528.77)" />
  <polyline
     class="Stem"
     fill="none"
     stroke="#000000"
     stroke-width="2.48"
     stroke-linejoin="bevel"
     points="2792.63,1023.22 2792.63,1114.66"
     id="polyline3093"
     transform="translate(-212.598,-528.77)" />
  <polyline
     class="Stem"
     fill="none"
     stroke="#000000"
     stroke-width="2.48"
     stroke-linejoin="bevel"
     points="2845.73,1035.62 2845.73,1118.26"
     id="polyline3095"
     transform="translate(-212.598,-528.77)" />
  <polyline
     class="Stem"
     fill="none"
     stroke="#000000"
     stroke-width="2.48"
     stroke-linejoin="bevel"
     points="2882.91,1048.02 2882.91,1120.78"
     id="polyline3097"
     transform="translate(-212.598,-528.77)" />
  <polyline
     class="Stem"
     fill="none"
     stroke="#000000"
     stroke-width="2.48"
     stroke-linejoin="bevel"
     points="2936,1060.42 2936,1124.37"
     id="polyline3099"
     transform="translate(-212.598,-528.77)" />
  <polyline
     class="Stem"
     fill="none"
     stroke="#000000"
     stroke-width="2.48"
     stroke-linejoin="bevel"
     points="3040.89,1072.82 3040.89,1143.06"
     id="polyline3101"
     transform="translate(-212.598,-528.77)" />
  <polyline
     class="Stem"
     fill="none"
     stroke="#000000"
     stroke-width="2.48"
     stroke-linejoin="bevel"
     points="3120.53,1060.42 3120.53,1136.94"
     id="polyline3103"
     transform="translate(-212.598,-528.77)" />
  <polyline
     class="Stem"
     fill="none"
     stroke="#000000"
     stroke-width="2.48"
     stroke-linejoin="bevel"
     points="3157.72,1048.02 3157.72,1139.46"
     id="polyline3105"
     transform="translate(-212.598,-528.77)" />
  <polyline
     class="Stem"
     fill="none"
     stroke="#000000"
     stroke-width="2.48"
     stroke-linejoin="bevel"
     points="3210.81,1060.42 3210.81,1143.06"
     id="polyline3107"
     transform="translate(-212.598,-528.77)" />
  <polyline
     class="Stem"
     fill="none"
     stroke="#000000"
     stroke-width="2.48"
     stroke-linejoin="bevel"
     points="3247.99,1072.82 3247.99,1145.58"
     id="polyline3109"
     transform="translate(-212.598,-528.77)" />
  <polyline
     class="Stem"
     fill="none"
     stroke="#000000"
     stroke-width="2.48"
     stroke-linejoin="bevel"
     points="3301.09,1085.22 3301.09,1149.17"
     id="polyline3111"
     transform="translate(-212.598,-528.77)" />
  <polyline
     class="Stem"
     fill="none"
     stroke="#000000"
     stroke-width="2.48"
     stroke-linejoin="bevel"
     points="430.451,1126.69 430.451,1043.86"
     id="polyline3113"
     transform="translate(-212.598,-528.77)" />
  <polyline
     class="Stem"
     fill="none"
     stroke="#000000"
     stroke-width="2.48"
     stroke-linejoin="bevel"
     points="3435.72,1089.49 3435.72,1006.66"
     id="polyline3115"
     transform="translate(-212.598,-528.77)" />
  <polyline
     class="Stem"
     fill="none"
     stroke="#000000"
     stroke-width="2.48"
     stroke-linejoin="bevel"
     points="3515.36,1077.09 3515.36,1000.46"
     id="polyline3117"
     transform="translate(-212.598,-528.77)" />
  <polyline
     class="Stem"
     fill="none"
     stroke="#000000"
     stroke-width="2.48"
     stroke-linejoin="bevel"
     points="3552.54,1064.69 3552.54,1000.46"
     id="polyline3119"
     transform="translate(-212.598,-528.77)" />
  <polyline
     class="Stem"
     fill="none"
     stroke="#000000"
     stroke-width="2.48"
     stroke-linejoin="bevel"
     points="3605.64,1077.09 3605.64,1000.46"
     id="polyline3121"
     transform="translate(-212.598,-528.77)" />
  <polyline
     class="Stem"
     fill="none"
     stroke="#000000"
     stroke-width="2.48"
     stroke-linejoin="bevel"
     points="3642.82,1089.49 3642.82,1000.46"
     id="polyline3123"
     transform="translate(-212.598,-528.77)" />
  <polyline
     class="Stem"
     fill="none"
     stroke="#000000"
     stroke-width="2.48"
     stroke-linejoin="bevel"
     points="3695.91,1101.89 3695.91,1000.46"
     id="polyline3125"
     transform="translate(-212.598,-528.77)" />
  <polyline
     class="Stem"
     fill="none"
     stroke="#000000"
     stroke-width="2.48"
     stroke-linejoin="bevel"
     points="3731.21,729.43 3731.21,640.398"
     id="polyline3127"
     transform="translate(-212.598,-528.77)" />
  <polyline
     class="Stem"
     fill="none"
     stroke="#000000"
     stroke-width="2.48"
     stroke-linejoin="bevel"
     points="3800.8,1077.09 3800.8,1000.46"
     id="polyline3129"
     transform="translate(-212.598,-528.77)" />
  <polyline
     class="Stem"
     fill="none"
     stroke="#000000"
     stroke-width="2.48"
     stroke-linejoin="bevel"
     points="3880.44,1089.49 3880.44,1006.66"
     id="polyline3131"
     transform="translate(-212.598,-528.77)" />
  <path
     class="Note"
     d="m 3030.852,183.9975 c 0,4.2625 3.069,9.02102 11.1135,9.02102 10.3075,0 21.1265,-8.43202 21.1265,-17.15852 0,-5.859 -4.96,-9.12948 -11.1135,-9.12948 -9.6255,0 -21.1265,8.13748 -21.1265,17.26698"
     id="path3133"
     style="stroke-width:0.992" />
  <path
     class="Note"
     d="m 3109.912,196.3975 c 0,4.2625 3.069,9.02102 11.1135,9.02102 10.3075,0 21.1265,-8.43202 21.1265,-17.15852 0,-5.859 -4.96,-9.12948 -11.1135,-9.12948 -9.6255,0 -21.1265,8.13748 -21.1265,17.26698"
     id="path3135"
     style="stroke-width:0.992" />
  <path
     class="Note"
     d="m 3147.092,208.7975 c 0,4.2625 3.069,9.02102 11.1135,9.02102 10.3075,0 21.1265,-8.43202 21.1265,-17.15852 0,-5.859 -4.96,-9.12948 -11.1135,-9.12948 -9.6255,0 -21.1265,8.13748 -21.1265,17.26698"
     id="path3137"
     style="stroke-width:0.992" />
  <path
     class="Note"
     d="m 3199.802,221.1975 c 0,4.2625 3.069,9.02102 11.1135,9.02102 10.3075,0 21.1265,-8.43202 21.1265,-17.15852 0,-5.859 -4.96,-9.12948 -11.1135,-9.12948 -9.6255,0 -21.1265,8.13748 -21.1265,17.26698"
     id="path3139"
     style="stroke-width:0.992" />
  <path
     class="Note"
     d="m 3248.892,233.5975 c 0,4.2625 3.069,9.02102 11.1135,9.02102 10.3075,0 21.1265,-8.43202 21.1265,-17.15852 0,-5.859 -4.96,-9.12948 -11.1135,-9.12948 -9.6255,0 -21.1265,8.13748 -21.1265,17.26698"
     id="path3141"
     style="stroke-width:0.992" />
  <path
     class="Note"
     d="m 3303.682,245.9975 c 0,4.2625 3.069,9.02102 11.1135,9.02102 10.3075,0 21.1265,-8.43202 21.1265,-17.15852 0,-5.859 -4.96,-9.12948 -11.1135,-9.12948 -9.6255,0 -21.1265,8.13748 -21.1265,17.26698"
     id="path3143"
     style="stroke-width:0.992" />
  <path
     class="Note"
     d="m 264.595,593.6595 c 0,4.2625 3.069,9.02102 11.11348,9.02102 10.30757,0 21.12652,-8.43202 21.12652,-17.15852 0,-5.859 -4.96,-9.12948 -11.11348,-9.12948 -9.62547,0 -21.12652,8.13748 -21.12652,17.26698"
     id="path3145"
     style="stroke-width:0.992" />
  <path
     class="Note"
     d="m 301.78,581.2595 c 0,4.2625 3.069,9.02102 11.11348,9.02102 10.30757,0 21.12652,-8.43202 21.12652,-17.15852 0,-5.859 -4.96,-9.12948 -11.11348,-9.12948 -9.62547,0 -21.12652,8.13748 -21.12652,17.26698"
     id="path3147"
     style="stroke-width:0.992" />
  <path
     class="Note"
     d="m 353.597,568.8595 c 0,4.2625 3.069,9.02102 11.11348,9.02102 10.30757,0 21.12652,-8.43202 21.12652,-17.15852 0,-5.859 -4.96,-9.12948 -11.11348,-9.12948 -9.62547,0 -21.12652,8.13748 -21.12652,17.26698"
     id="path3149"
     style="stroke-width:0.992" />
  <path
     class="Note"
     d="m 390.782,556.4595 c 0,4.2625 3.069,9.02102 11.11348,9.02102 10.30757,0 21.12652,-8.43202 21.12652,-17.15852 0,-5.859 -4.96,-9.12948 -11.11348,-9.12948 -9.62547,0 -21.12652,8.13748 -21.12652,17.26698"
     id="path3151"
     style="stroke-width:0.992" />
  <path
     class="Note"
     d="m 442.6,544.0595 c 0,4.2625 3.069,9.02102 11.11348,9.02102 10.30757,0 21.12652,-8.43202 21.12652,-17.15852 0,-5.859 -4.96,-9.12948 -11.11348,-9.12948 -9.62547,0 -21.12652,8.13748 -21.12652,17.26698"
     id="path3153"
     style="stroke-width:0.992" />
  <path
     class="Note"
     d="m 2873.252,221.1975 c 0,4.2625 3.069,9.02102 11.1135,9.02102 10.3075,0 21.1265,-8.43202 21.1265,-17.15852 0,-5.859 -4.96,-9.12948 -11.1135,-9.12948 -9.6255,0 -21.1265,8.13748 -21.1265,17.26698"
     id="path3155"
     style="stroke-width:0.992" />
  <path
     class="Note"
     d="m 3614.702,221.1975 c 0,4.2625 3.069,9.02102 11.1135,9.02102 10.3075,0 21.1265,-8.43202 21.1265,-17.15852 0,-5.859 -4.96,-9.12948 -11.1135,-9.12948 -9.6255,0 -21.1265,8.13748 -21.1265,17.26698"
     id="path3157"
     style="stroke-width:0.992" />
  <path
     class="Note"
     d="m 594.252,544.0595 c 0,4.2625 3.069,9.02102 11.11348,9.02102 10.30757,0 21.12652,-8.43202 21.12652,-17.15852 0,-5.859 -4.96,-9.12948 -11.11348,-9.12948 -9.62547,0 -21.12652,8.13748 -21.12652,17.26698"
     id="path3159"
     style="stroke-width:0.992" />
  <path
     class="Note"
     d="m 673.891,531.6595 c 0,4.2625 3.069,9.02102 11.11348,9.02102 10.30757,0 21.12652,-8.43202 21.12652,-17.15852 0,-5.859 -4.96,-9.12948 -11.11348,-9.12948 -9.62547,0 -21.12652,8.13748 -21.12652,17.26698"
     id="path3161"
     style="stroke-width:0.992" />
  <path
     class="Note"
     d="m 711.076,519.2595 c 0,4.2625 3.069,9.02102 11.11348,9.02102 10.30757,0 21.12652,-8.43202 21.12652,-17.15852 0,-5.859 -4.96,-9.12948 -11.11348,-9.12948 -9.62547,0 -21.12652,8.13748 -21.12652,17.26698"
     id="path3163"
     style="stroke-width:0.992" />
  <path
     class="Note"
     d="m 764.169,531.6595 c 0,4.2625 3.069,9.02102 11.11348,9.02102 10.30757,0 21.12652,-8.43202 21.12652,-17.15852 0,-5.859 -4.96,-9.12948 -11.11348,-9.12948 -9.62547,0 -21.12652,8.13748 -21.12652,17.26698"
     id="path3165"
     style="stroke-width:0.992" />
  <path
     class="Note"
     d="m 801.352,544.0595 c 0,4.2625 3.069,9.02102 11.11348,9.02102 10.30757,0 21.12652,-8.43202 21.12652,-17.15852 0,-5.859 -4.96,-9.12948 -11.11348,-9.12948 -9.62547,0 -21.12652,8.13748 -21.12652,17.26698"
     id="path3167"
     style="stroke-width:0.992" />
  <path
     class="Note"
     d="m 854.442,556.4595 c 0,4.2625 3.069,9.02102 11.11348,9.02102 10.30757,0 21.12652,-8.43202 21.12652,-17.15852 0,-5.859 -4.96,-9.12948 -11.11348,-9.12948 -9.62547,0 -21.12652,8.13748 -21.12652,17.26698"
     id="path3169"
     style="stroke-width:0.992" />
  <path
     class="Note"
     d="m 2836.072,208.7975 c 0,4.2625 3.069,9.02102 11.1135,9.02102 10.3075,0 21.1265,-8.43202 21.1265,-17.15852 0,-5.859 -4.96,-9.12948 -11.1135,-9.12948 -9.6255,0 -21.1265,8.13748 -21.1265,17.26698"
     id="path3171"
     style="stroke-width:0.992" />
  <path
     class="Note"
     d="m 959.332,556.4595 c 0,4.2625 3.069,9.02102 11.11348,9.02102 10.30757,0 21.12652,-8.43202 21.12652,-17.15852 0,-5.859 -4.96,-9.12948 -11.11348,-9.12948 -9.62547,0 -21.12652,8.13748 -21.12652,17.26698"
     id="path3173"
     style="stroke-width:0.992" />
  <path
     class="Note"
     d="m 1038.972,544.0595 c 0,4.2625 3.069,9.02102 11.1135,9.02102 10.3075,0 21.1265,-8.43202 21.1265,-17.15852 0,-5.859 -4.96,-9.12948 -11.1135,-9.12948 -9.6255,0 -21.1265,8.13748 -21.1265,17.26698"
     id="path3175"
     style="stroke-width:0.992" />
  <path
     class="Note"
     d="m 1076.162,531.6595 c 0,4.2625 3.069,9.02102 11.1135,9.02102 10.3075,0 21.1265,-8.43202 21.1265,-17.15852 0,-5.859 -4.96,-9.12948 -11.1135,-9.12948 -9.6255,0 -21.1265,8.13748 -21.1265,17.26698"
     id="path3177"
     style="stroke-width:0.992" />
  <path
     class="Note"
     d="m 1129.252,544.0595 c 0,4.2625 3.069,9.02102 11.1135,9.02102 10.3075,0 21.1265,-8.43202 21.1265,-17.15852 0,-5.859 -4.96,-9.12948 -11.1135,-9.12948 -9.6255,0 -21.1265,8.13748 -21.1265,17.26698"
     id="path3179"
     style="stroke-width:0.992" />
  <path
     class="Note"
     d="m 1166.442,556.4595 c 0,4.2625 3.069,9.02102 11.1135,9.02102 10.3075,0 21.1265,-8.43202 21.1265,-17.15852 0,-5.859 -4.96,-9.12948 -11.1135,-9.12948 -9.6255,0 -21.1265,8.13748 -21.1265,17.26698"
     id="path3181"
     style="stroke-width:0.992" />
  <path
     class="Note"
     d="m 1219.532,568.8595 c 0,4.2625 3.069,9.02102 11.1135,9.02102 10.3075,0 21.1265,-8.43202 21.1265,-17.15852 0,-5.859 -4.96,-9.12948 -11.1135,-9.12948 -9.6255,0 -21.1265,8.13748 -21.1265,17.26698"
     id="path3183"
     style="stroke-width:0.992" />
  <path
     class="Note"
     d="m 3577.522,208.7975 c 0,4.2625 3.069,9.02102 11.1135,9.02102 10.3075,0 21.1265,-8.43202 21.1265,-17.15852 0,-5.859 -4.96,-9.12948 -11.1135,-9.12948 -9.6255,0 -21.1265,8.13748 -21.1265,17.26698"
     id="path3185"
     style="stroke-width:0.992" />
  <path
     class="Note"
     d="m 1324.422,568.8595 c 0,4.2625 3.069,9.02102 11.1135,9.02102 10.3075,0 21.1265,-8.43202 21.1265,-17.15852 0,-5.859 -4.96,-9.12948 -11.1135,-9.12948 -9.6255,0 -21.1265,8.13748 -21.1265,17.26698"
     id="path3187"
     style="stroke-width:0.992" />
  <path
     class="Note"
     d="m 1404.062,556.4595 c 0,4.2625 3.069,9.02102 11.1135,9.02102 10.3075,0 21.1265,-8.43202 21.1265,-17.15852 0,-5.859 -4.96,-9.12948 -11.1135,-9.12948 -9.6255,0 -21.1265,8.13748 -21.1265,17.26698"
     id="path3189"
     style="stroke-width:0.992" />
  <path
     class="Note"
     d="m 360.778,183.9975 c 0,4.2625 3.069,9.02102 11.11348,9.02102 10.30757,0 21.12652,-8.43202 21.12652,-17.15852 0,-5.859 -4.96,-9.12948 -11.11348,-9.12948 -9.62547,0 -21.12652,8.13748 -21.12652,17.26698"
     id="path3191"
     style="stroke-width:0.992" />
  <path
     class="Note"
     d="m 1441.242,544.0595 c 0,4.2625 3.069,9.02102 11.1135,9.02102 10.3075,0 21.1265,-8.43202 21.1265,-17.15852 0,-5.859 -4.96,-9.12948 -11.1135,-9.12948 -9.6255,0 -21.1265,8.13748 -21.1265,17.26698"
     id="path3193"
     style="stroke-width:0.992" />
  <path
     class="Note"
     d="m 439.839,171.5975 c 0,4.2625 3.069,9.02102 11.11348,9.02102 10.30757,0 21.12652,-8.43202 21.12652,-17.15852 0,-5.859 -4.96,-9.12948 -11.11348,-9.12948 -9.62547,0 -21.12652,8.13748 -21.12652,17.26698"
     id="path3195"
     style="stroke-width:0.992" />
  <path
     class="Note"
     d="m 1494.332,556.4595 c 0,4.2625 3.069,9.02102 11.1135,9.02102 10.3075,0 21.1265,-8.43202 21.1265,-17.15852 0,-5.859 -4.96,-9.12948 -11.1135,-9.12948 -9.6255,0 -21.1265,8.13748 -21.1265,17.26698"
     id="path3197"
     style="stroke-width:0.992" />
  <path
     class="Note"
     d="m 477.023,159.1975 c 0,4.2625 3.069,9.02102 11.11348,9.02102 10.30757,0 21.12652,-8.43202 21.12652,-17.15852 0,-5.859 -4.96,-9.12948 -11.11348,-9.12948 -9.62547,0 -21.12652,8.13748 -21.12652,17.26698"
     id="path3199"
     style="stroke-width:0.992" />
  <path
     class="Note"
     d="m 1531.522,568.8595 c 0,4.2625 3.069,9.02102 11.1135,9.02102 10.3075,0 21.1265,-8.43202 21.1265,-17.15852 0,-5.859 -4.96,-9.12948 -11.1135,-9.12948 -9.6255,0 -21.1265,8.13748 -21.1265,17.26698"
     id="path3201"
     style="stroke-width:0.992" />
  <path
     class="Note"
     d="m 529.73,171.5975 c 0,4.2625 3.069,9.02102 11.11348,9.02102 10.30757,0 21.12652,-8.43202 21.12652,-17.15852 0,-5.859 -4.96,-9.12948 -11.11348,-9.12948 -9.62547,0 -21.12652,8.13748 -21.12652,17.26698"
     id="path3203"
     style="stroke-width:0.992" />
  <path
     class="Note"
     d="m 1584.612,581.2595 c 0,4.2625 3.069,9.02102 11.1135,9.02102 10.3075,0 21.1265,-8.43202 21.1265,-17.15852 0,-5.859 -4.96,-9.12948 -11.1135,-9.12948 -9.6255,0 -21.1265,8.13748 -21.1265,17.26698"
     id="path3205"
     style="stroke-width:0.992" />
  <path
     class="Note"
     d="m 566.915,183.9975 c 0,4.2625 3.069,9.02102 11.11348,9.02102 10.30757,0 21.12652,-8.43202 21.12652,-17.15852 0,-5.859 -4.96,-9.12948 -11.11348,-9.12948 -9.62547,0 -21.12652,8.13748 -21.12652,17.26698"
     id="path3207"
     style="stroke-width:0.992" />
  <path
     class="Note"
     d="m 619.621,196.3975 c 0,4.2625 3.069,9.02102 11.11348,9.02102 10.30757,0 21.12652,-8.43202 21.12652,-17.15852 0,-5.859 -4.96,-9.12948 -11.11348,-9.12948 -9.62547,0 -21.12652,8.13748 -21.12652,17.26698"
     id="path3209"
     style="stroke-width:0.992" />
  <path
     class="Note"
     d="m 1689.502,581.2595 c 0,4.2625 3.069,9.02102 11.1135,9.02102 10.3075,0 21.1265,-8.43202 21.1265,-17.15852 0,-5.859 -4.96,-9.12948 -11.1135,-9.12948 -9.6255,0 -21.1265,8.13748 -21.1265,17.26698"
     id="path3211"
     style="stroke-width:0.992" />
  <path
     class="Note"
     d="m 724.51,208.7975 c 0,4.2625 3.069,9.02102 11.11348,9.02102 10.30757,0 21.12652,-8.43202 21.12652,-17.15852 0,-5.859 -4.96,-9.12948 -11.11348,-9.12948 -9.62547,0 -21.12652,8.13748 -21.12652,17.26698"
     id="path3213"
     style="stroke-width:0.992" />
  <path
     class="Note"
     d="m 1769.142,556.4595 c 0,4.2625 3.069,9.02102 11.1135,9.02102 10.3075,0 21.1265,-8.43202 21.1265,-17.15852 0,-5.859 -4.96,-9.12948 -11.1135,-9.12948 -9.6255,0 -21.1265,8.13748 -21.1265,17.26698"
     id="path3215"
     style="stroke-width:0.992" />
  <path
     class="Note"
     d="m 803.572,196.3975 c 0,4.2625 3.069,9.02102 11.11348,9.02102 10.30757,0 21.12652,-8.43202 21.12652,-17.15852 0,-5.859 -4.96,-9.12948 -11.11348,-9.12948 -9.62547,0 -21.12652,8.13748 -21.12652,17.26698"
     id="path3217"
     style="stroke-width:0.992" />
  <path
     class="Note"
     d="m 1806.332,544.0595 c 0,4.2625 3.069,9.02102 11.1135,9.02102 10.3075,0 21.1265,-8.43202 21.1265,-17.15852 0,-5.859 -4.96,-9.12948 -11.1135,-9.12948 -9.6255,0 -21.1265,8.13748 -21.1265,17.26698"
     id="path3219"
     style="stroke-width:0.992" />
  <path
     class="Note"
     d="m 840.752,183.9975 c 0,4.2625 3.069,9.02102 11.11348,9.02102 10.30757,0 21.12652,-8.43202 21.12652,-17.15852 0,-5.859 -4.96,-9.12948 -11.11348,-9.12948 -9.62547,0 -21.12652,8.13748 -21.12652,17.26698"
     id="path3221"
     style="stroke-width:0.992" />
  <path
     class="Note"
     d="m 1859.422,556.4595 c 0,4.2625 3.069,9.02102 11.1135,9.02102 10.3075,0 21.1265,-8.43202 21.1265,-17.15852 0,-5.859 -4.96,-9.12948 -11.1135,-9.12948 -9.6255,0 -21.1265,8.13748 -21.1265,17.26698"
     id="path3223"
     style="stroke-width:0.992" />
  <path
     class="Note"
     d="m 893.462,196.3975 c 0,4.2625 3.069,9.02102 11.11348,9.02102 10.30757,0 21.12652,-8.43202 21.12652,-17.15852 0,-5.859 -4.96,-9.12948 -11.11348,-9.12948 -9.62547,0 -21.12652,8.13748 -21.12652,17.26698"
     id="path3225"
     style="stroke-width:0.992" />
  <path
     class="Note"
     d="m 1896.602,581.2595 c 0,4.2625 3.069,9.02102 11.1135,9.02102 10.3075,0 21.1265,-8.43202 21.1265,-17.15852 0,-5.859 -4.96,-9.12948 -11.1135,-9.12948 -9.6255,0 -21.1265,8.13748 -21.1265,17.26698"
     id="path3227"
     style="stroke-width:0.992" />
  <path
     class="Note"
     d="m 930.642,208.7975 c 0,4.2625 3.069,9.02102 11.11348,9.02102 10.30757,0 21.12652,-8.43202 21.12652,-17.15852 0,-5.859 -4.96,-9.12948 -11.11348,-9.12948 -9.62547,0 -21.12652,8.13748 -21.12652,17.26698"
     id="path3229"
     style="stroke-width:0.992" />
  <path
     class="Note"
     d="m 1949.702,568.8595 c 0,4.2625 3.069,9.02102 11.1135,9.02102 10.3075,0 21.1265,-8.43202 21.1265,-17.15852 0,-5.859 -4.96,-9.12948 -11.1135,-9.12948 -9.6255,0 -21.1265,8.13748 -21.1265,17.26698"
     id="path3231"
     style="stroke-width:0.992" />
  <path
     class="Note"
     d="m 3524.812,196.3975 c 0,4.2625 3.069,9.02102 11.1135,9.02102 10.3075,0 21.1265,-8.43202 21.1265,-17.15852 0,-5.859 -4.96,-9.12948 -11.1135,-9.12948 -9.6255,0 -21.1265,8.13748 -21.1265,17.26698"
     id="path3233"
     style="stroke-width:0.992" />
  <path
     class="Note"
     d="m 3667.412,196.3975 c 0,4.2625 3.069,9.02102 11.1135,9.02102 10.3075,0 21.1265,-8.43202 21.1265,-17.15852 0,-5.859 -4.96,-9.12948 -11.1135,-9.12948 -9.6255,0 -21.1265,8.13748 -21.1265,17.26698"
     id="path3235"
     style="stroke-width:0.992" />
  <path
     class="Note"
     d="m 1008.712,221.1975 c 0,4.2625 3.069,9.02102 11.1135,9.02102 10.3075,0 21.1265,-8.43202 21.1265,-17.15852 0,-5.859 -4.96,-9.12948 -11.1135,-9.12948 -9.6255,0 -21.1265,8.13748 -21.1265,17.26698"
     id="path3237"
     style="stroke-width:0.992" />
  <path
     class="Note"
     d="m 2096.882,581.2595 c 0,4.2625 3.069,9.02102 11.1135,9.02102 10.3075,0 21.1265,-8.43202 21.1265,-17.15852 0,-5.859 -4.96,-9.12948 -11.1135,-9.12948 -9.6255,0 -21.1265,8.13748 -21.1265,17.26698"
     id="path3239"
     style="stroke-width:0.992" />
  <path
     class="Note"
     d="m 1897.352,221.1975 c 0,4.2625 3.069,9.02102 11.1135,9.02102 10.3075,0 21.1265,-8.43202 21.1265,-17.15852 0,-5.859 -4.96,-9.12948 -11.1135,-9.12948 -9.6255,0 -21.1265,8.13748 -21.1265,17.26698"
     id="path3241"
     style="stroke-width:0.992" />
  <path
     class="Note"
     d="m 2176.522,568.8595 c 0,4.2625 3.069,9.02102 11.1135,9.02102 10.3075,0 21.1265,-8.43202 21.1265,-17.15852 0,-5.859 -4.96,-9.12948 -11.1135,-9.12948 -9.6255,0 -21.1265,8.13748 -21.1265,17.26698"
     id="path3243"
     style="stroke-width:0.992" />
  <path
     class="Note"
     d="m 2943.882,519.2595 c 0,4.2625 3.069,9.02102 11.1135,9.02102 10.3075,0 21.1265,-8.43202 21.1265,-17.15852 0,-5.859 -4.96,-9.12948 -11.1135,-9.12948 -9.6255,0 -21.1265,8.13748 -21.1265,17.26698"
     id="path3245"
     style="stroke-width:0.992" />
  <path
     class="Note"
     d="m 1113.602,233.5975 c 0,4.2625 3.069,9.02102 11.1135,9.02102 10.3075,0 21.1265,-8.43202 21.1265,-17.15852 0,-5.859 -4.96,-9.12948 -11.1135,-9.12948 -9.6255,0 -21.1265,8.13748 -21.1265,17.26698"
     id="path3247"
     style="stroke-width:0.992" />
  <path
     class="Note"
     d="m 2213.712,556.4595 c 0,4.2625 3.069,9.02102 11.1135,9.02102 10.3075,0 21.1265,-8.43202 21.1265,-17.15852 0,-5.859 -4.96,-9.12948 -11.1135,-9.12948 -9.6255,0 -21.1265,8.13748 -21.1265,17.26698"
     id="path3249"
     style="stroke-width:0.992" />
  <path
     class="Note"
     d="m 1192.662,221.1975 c 0,4.2625 3.069,9.02102 11.1135,9.02102 10.3075,0 21.1265,-8.43202 21.1265,-17.15852 0,-5.859 -4.96,-9.12948 -11.1135,-9.12948 -9.6255,0 -21.1265,8.13748 -21.1265,17.26698"
     id="path3251"
     style="stroke-width:0.992" />
  <path
     class="Note"
     d="m 2266.802,544.0595 c 0,4.2625 3.069,9.02102 11.1135,9.02102 10.3075,0 21.1265,-8.43202 21.1265,-17.15852 0,-5.859 -4.96,-9.12948 -11.1135,-9.12948 -9.6255,0 -21.1265,8.13748 -21.1265,17.26698"
     id="path3253"
     style="stroke-width:0.992" />
  <path
     class="Note"
     d="m 1229.852,208.7975 c 0,4.2625 3.069,9.02102 11.1135,9.02102 10.3075,0 21.1265,-8.43202 21.1265,-17.15852 0,-5.859 -4.96,-9.12948 -11.1135,-9.12948 -9.6255,0 -21.1265,8.13748 -21.1265,17.26698"
     id="path3255"
     style="stroke-width:0.992" />
  <path
     class="Note"
     d="m 2303.992,531.6595 c 0,4.2625 3.069,9.02102 11.1135,9.02102 10.3075,0 21.1265,-8.43202 21.1265,-17.15852 0,-5.859 -4.96,-9.12948 -11.1135,-9.12948 -9.6255,0 -21.1265,8.13748 -21.1265,17.26698"
     id="path3257"
     style="stroke-width:0.992" />
  <path
     class="Note"
     d="m 1282.552,221.1975 c 0,4.2625 3.069,9.02102 11.1135,9.02102 10.3075,0 21.1265,-8.43202 21.1265,-17.15852 0,-5.859 -4.96,-9.12948 -11.1135,-9.12948 -9.6255,0 -21.1265,8.13748 -21.1265,17.26698"
     id="path3259"
     style="stroke-width:0.992" />
  <path
     class="Note"
     d="m 2357.082,519.2595 c 0,4.2625 3.069,9.02102 11.1135,9.02102 10.3075,0 21.1265,-8.43202 21.1265,-17.15852 0,-5.859 -4.96,-9.12948 -11.1135,-9.12948 -9.6255,0 -21.1265,8.13748 -21.1265,17.26698"
     id="path3261"
     style="stroke-width:0.992" />
  <path
     class="Note"
     d="m 1331.642,233.5975 c 0,4.2625 3.069,9.02102 11.1135,9.02102 10.3075,0 21.1265,-8.43202 21.1265,-17.15852 0,-5.859 -4.96,-9.12948 -11.1135,-9.12948 -9.6255,0 -21.1265,8.13748 -21.1265,17.26698"
     id="path3263"
     style="stroke-width:0.992" />
  <path
     class="Note"
     d="m 1386.432,245.9975 c 0,4.2625 3.069,9.02102 11.1135,9.02102 10.3075,0 21.1265,-8.43202 21.1265,-17.15852 0,-5.859 -4.96,-9.12948 -11.1135,-9.12948 -9.6255,0 -21.1265,8.13748 -21.1265,17.26698"
     id="path3265"
     style="stroke-width:0.992" />
  <path
     class="Note"
     d="m 2461.972,519.2595 c 0,4.2625 3.069,9.02102 11.1135,9.02102 10.3075,0 21.1265,-8.43202 21.1265,-17.15852 0,-5.859 -4.96,-9.12948 -11.1135,-9.12948 -9.6255,0 -21.1265,8.13748 -21.1265,17.26698"
     id="path3267"
     style="stroke-width:0.992" />
  <path
     class="Note"
     d="m 1491.322,221.1975 c 0,4.2625 3.069,9.02102 11.1135,9.02102 10.3075,0 21.1265,-8.43202 21.1265,-17.15852 0,-5.859 -4.96,-9.12948 -11.1135,-9.12948 -9.6255,0 -21.1265,8.13748 -21.1265,17.26698"
     id="path3269"
     style="stroke-width:0.992" />
  <path
     class="Note"
     d="m 2541.612,506.8595 c 0,4.2625 3.069,9.02102 11.1135,9.02102 10.3075,0 21.1265,-8.43202 21.1265,-17.15852 0,-5.859 -4.96,-9.12948 -11.1135,-9.12948 -9.6255,0 -21.1265,8.13748 -21.1265,17.26698"
     id="path3271"
     style="stroke-width:0.992" />
  <path
     class="Note"
     d="m 1570.382,208.7975 c 0,4.2625 3.069,9.02102 11.1135,9.02102 10.3075,0 21.1265,-8.43202 21.1265,-17.15852 0,-5.859 -4.96,-9.12948 -11.1135,-9.12948 -9.6255,0 -21.1265,8.13748 -21.1265,17.26698"
     id="path3273"
     style="stroke-width:0.992" />
  <path
     class="Note"
     d="m 2578.792,494.4595 c 0,4.2625 3.069,9.02102 11.1135,9.02102 10.3075,0 21.1265,-8.43202 21.1265,-17.15852 0,-5.859 -4.96,-9.12948 -11.1135,-9.12948 -9.6255,0 -21.1265,8.13748 -21.1265,17.26698"
     id="path3275"
     style="stroke-width:0.992" />
  <path
     class="Note"
     d="m 1607.572,196.3975 c 0,4.2625 3.069,9.02102 11.1135,9.02102 10.3075,0 21.1265,-8.43202 21.1265,-17.15852 0,-5.859 -4.96,-9.12948 -11.1135,-9.12948 -9.6255,0 -21.1265,8.13748 -21.1265,17.26698"
     id="path3277"
     style="stroke-width:0.992" />
  <path
     class="Note"
     d="m 2631.892,506.8595 c 0,4.2625 3.069,9.02102 11.1135,9.02102 10.3075,0 21.1265,-8.43202 21.1265,-17.15852 0,-5.859 -4.96,-9.12948 -11.1135,-9.12948 -9.6255,0 -21.1265,8.13748 -21.1265,17.26698"
     id="path3279"
     style="stroke-width:0.992" />
  <path
     class="Note"
     d="m 1660.272,208.7975 c 0,4.2625 3.069,9.02102 11.1135,9.02102 10.3075,0 21.1265,-8.43202 21.1265,-17.15852 0,-5.859 -4.96,-9.12948 -11.1135,-9.12948 -9.6255,0 -21.1265,8.13748 -21.1265,17.26698"
     id="path3281"
     style="stroke-width:0.992" />
  <path
     class="Note"
     d="m 2669.072,519.2595 c 0,4.2625 3.069,9.02102 11.1135,9.02102 10.3075,0 21.1265,-8.43202 21.1265,-17.15852 0,-5.859 -4.96,-9.12948 -11.1135,-9.12948 -9.6255,0 -21.1265,8.13748 -21.1265,17.26698"
     id="path3283"
     style="stroke-width:0.992" />
  <path
     class="Note"
     d="m 1697.462,221.1975 c 0,4.2625 3.069,9.02102 11.1135,9.02102 10.3075,0 21.1265,-8.43202 21.1265,-17.15852 0,-5.859 -4.96,-9.12948 -11.1135,-9.12948 -9.6255,0 -21.1265,8.13748 -21.1265,17.26698"
     id="path3285"
     style="stroke-width:0.992" />
  <path
     class="Note"
     d="m 2722.162,531.6595 c 0,4.2625 3.069,9.02102 11.1135,9.02102 10.3075,0 21.1265,-8.43202 21.1265,-17.15852 0,-5.859 -4.96,-9.12948 -11.1135,-9.12948 -9.6255,0 -21.1265,8.13748 -21.1265,17.26698"
     id="path3287"
     style="stroke-width:0.992" />
  <path
     class="Note"
     d="m 1750.162,196.3975 c 0,4.2625 3.069,9.02102 11.1135,9.02102 10.3075,0 21.1265,-8.43202 21.1265,-17.15852 0,-5.859 -4.96,-9.12948 -11.1135,-9.12948 -9.6255,0 -21.1265,8.13748 -21.1265,17.26698"
     id="path3289"
     style="stroke-width:0.992" />
  <path
     class="Note"
     d="m 2827.052,544.0595 c 0,4.2625 3.069,9.02102 11.1135,9.02102 10.3075,0 21.1265,-8.43202 21.1265,-17.15852 0,-5.859 -4.96,-9.12948 -11.1135,-9.12948 -9.6255,0 -21.1265,8.13748 -21.1265,17.26698"
     id="path3291"
     style="stroke-width:0.992" />
  <path
     class="Note"
     d="m 1976.412,208.7975 c 0,4.2625 3.069,9.02102 11.1135,9.02102 10.3075,0 21.1265,-8.43202 21.1265,-17.15852 0,-5.859 -4.96,-9.12948 -11.1135,-9.12948 -9.6255,0 -21.1265,8.13748 -21.1265,17.26698"
     id="path3293"
     style="stroke-width:0.992" />
  <path
     class="Note"
     d="m 2906.692,531.6595 c 0,4.2625 3.069,9.02102 11.1135,9.02102 10.3075,0 21.1265,-8.43202 21.1265,-17.15852 0,-5.859 -4.96,-9.12948 -11.1135,-9.12948 -9.6255,0 -21.1265,8.13748 -21.1265,17.26698"
     id="path3295"
     style="stroke-width:0.992" />
  <path
     class="Note"
     d="m 2013.602,196.3975 c 0,4.2625 3.069,9.02102 11.1135,9.02102 10.3075,0 21.1265,-8.43202 21.1265,-17.15852 0,-5.859 -4.96,-9.12948 -11.1135,-9.12948 -9.6255,0 -21.1265,8.13748 -21.1265,17.26698"
     id="path3297"
     style="stroke-width:0.992" />
  <path
     class="Note"
     d="m 2066.302,183.9975 c 0,4.2625 3.069,9.02102 11.1135,9.02102 10.3075,0 21.1265,-8.43202 21.1265,-17.15852 0,-5.859 -4.96,-9.12948 -11.1135,-9.12948 -9.6255,0 -21.1265,8.13748 -21.1265,17.26698"
     id="path3299"
     style="stroke-width:0.992" />
  <path
     class="Note"
     d="m 2996.972,531.6595 c 0,4.2625 3.069,9.02102 11.1135,9.02102 10.3075,0 21.1265,-8.43202 21.1265,-17.15852 0,-5.859 -4.96,-9.12948 -11.1135,-9.12948 -9.6255,0 -21.1265,8.13748 -21.1265,17.26698"
     id="path3301"
     style="stroke-width:0.992" />
  <path
     class="Note"
     d="m 2103.492,171.5975 c 0,4.2625 3.069,9.02102 11.1135,9.02102 10.3075,0 21.1265,-8.43202 21.1265,-17.15852 0,-5.859 -4.96,-9.12948 -11.1135,-9.12948 -9.6255,0 -21.1265,8.13748 -21.1265,17.26698"
     id="path3303"
     style="stroke-width:0.992" />
  <path
     class="Note"
     d="m 3034.152,544.0595 c 0,4.2625 3.069,9.02102 11.1135,9.02102 10.3075,0 21.1265,-8.43202 21.1265,-17.15852 0,-5.859 -4.96,-9.12948 -11.1135,-9.12948 -9.6255,0 -21.1265,8.13748 -21.1265,17.26698"
     id="path3305"
     style="stroke-width:0.992" />
  <path
     class="Note"
     d="m 2156.202,159.1975 c 0,4.2625 3.069,9.02102 11.1135,9.02102 10.3075,0 21.1265,-8.43202 21.1265,-17.15852 0,-5.859 -4.96,-9.12948 -11.1135,-9.12948 -9.6255,0 -21.1265,8.13748 -21.1265,17.26698"
     id="path3307"
     style="stroke-width:0.992" />
  <path
     class="Note"
     d="m 3087.252,556.4595 c 0,4.2625 3.069,9.02102 11.1135,9.02102 10.3075,0 21.1265,-8.43202 21.1265,-17.15852 0,-5.859 -4.96,-9.12948 -11.1135,-9.12948 -9.6255,0 -21.1265,8.13748 -21.1265,17.26698"
     id="path3309"
     style="stroke-width:0.992" />
  <path
     class="Note"
     d="m 3487.632,208.7975 c 0,4.2625 3.069,9.02102 11.1135,9.02102 10.3075,0 21.1265,-8.43202 21.1265,-17.15852 0,-5.859 -4.96,-9.12948 -11.1135,-9.12948 -9.6255,0 -21.1265,8.13748 -21.1265,17.26698"
     id="path3311"
     style="stroke-width:0.992" />
  <path
     class="Note"
     d="m 2303.382,159.1975 c 0,4.2625 3.069,9.02102 11.1135,9.02102 10.3075,0 21.1265,-8.43202 21.1265,-17.15852 0,-5.859 -4.96,-9.12948 -11.1135,-9.12948 -9.6255,0 -21.1265,8.13748 -21.1265,17.26698"
     id="path3313"
     style="stroke-width:0.992" />
  <path
     class="Note"
     d="m 2382.442,171.5975 c 0,4.2625 3.069,9.02102 11.1135,9.02102 10.3075,0 21.1265,-8.43202 21.1265,-17.15852 0,-5.859 -4.96,-9.12948 -11.1135,-9.12948 -9.6255,0 -21.1265,8.13748 -21.1265,17.26698"
     id="path3315"
     style="stroke-width:0.992" />
  <path
     class="Note"
     d="m 3192.142,568.8595 c 0,4.2625 3.069,9.02102 11.1135,9.02102 10.3075,0 21.1265,-8.43202 21.1265,-17.15852 0,-5.859 -4.96,-9.12948 -11.1135,-9.12948 -9.6255,0 -21.1265,8.13748 -21.1265,17.26698"
     id="path3317"
     style="stroke-width:0.992" />
  <path
     class="Note"
     d="m 2419.632,183.9975 c 0,4.2625 3.069,9.02102 11.1135,9.02102 10.3075,0 21.1265,-8.43202 21.1265,-17.15852 0,-5.859 -4.96,-9.12948 -11.1135,-9.12948 -9.6255,0 -21.1265,8.13748 -21.1265,17.26698"
     id="path3319"
     style="stroke-width:0.992" />
  <path
     class="Note"
     d="m 3271.772,556.4595 c 0,4.2625 3.069,9.02102 11.1135,9.02102 10.3075,0 21.1265,-8.43202 21.1265,-17.15852 0,-5.859 -4.96,-9.12948 -11.1135,-9.12948 -9.6255,0 -21.1265,8.13748 -21.1265,17.26698"
     id="path3321"
     style="stroke-width:0.992" />
  <path
     class="Note"
     d="m 2472.332,196.3975 c 0,4.2625 3.069,9.02102 11.1135,9.02102 10.3075,0 21.1265,-8.43202 21.1265,-17.15852 0,-5.859 -4.96,-9.12948 -11.1135,-9.12948 -9.6255,0 -21.1265,8.13748 -21.1265,17.26698"
     id="path3323"
     style="stroke-width:0.992" />
  <path
     class="Note"
     d="m 3308.962,544.0595 c 0,4.2625 3.069,9.02102 11.1135,9.02102 10.3075,0 21.1265,-8.43202 21.1265,-17.15852 0,-5.859 -4.96,-9.12948 -11.1135,-9.12948 -9.6255,0 -21.1265,8.13748 -21.1265,17.26698"
     id="path3325"
     style="stroke-width:0.992" />
  <path
     class="Note"
     d="m 2509.522,208.7975 c 0,4.2625 3.069,9.02102 11.1135,9.02102 10.3075,0 21.1265,-8.43202 21.1265,-17.15852 0,-5.859 -4.96,-9.12948 -11.1135,-9.12948 -9.6255,0 -21.1265,8.13748 -21.1265,17.26698"
     id="path3327"
     style="stroke-width:0.992" />
  <path
     class="Note"
     d="m 3362.052,556.4595 c 0,4.2625 3.069,9.02102 11.1135,9.02102 10.3075,0 21.1265,-8.43202 21.1265,-17.15852 0,-5.859 -4.96,-9.12948 -11.1135,-9.12948 -9.6255,0 -21.1265,8.13748 -21.1265,17.26698"
     id="path3329"
     style="stroke-width:0.992" />
  <path
     class="Note"
     d="m 2562.232,221.1975 c 0,4.2625 3.069,9.02102 11.1135,9.02102 10.3075,0 21.1265,-8.43202 21.1265,-17.15852 0,-5.859 -4.96,-9.12948 -11.1135,-9.12948 -9.6255,0 -21.1265,8.13748 -21.1265,17.26698"
     id="path3331"
     style="stroke-width:0.992" />
  <path
     class="Note"
     d="m 3399.242,568.8595 c 0,4.2625 3.069,9.02102 11.1135,9.02102 10.3075,0 21.1265,-8.43202 21.1265,-17.15852 0,-5.859 -4.96,-9.12948 -11.1135,-9.12948 -9.6255,0 -21.1265,8.13748 -21.1265,17.26698"
     id="path3333"
     style="stroke-width:0.992" />
  <path
     class="Note"
     d="m 2667.112,171.5975 c 0,4.2625 3.069,9.02102 11.1135,9.02102 10.3075,0 21.1265,-8.43202 21.1265,-17.15852 0,-5.859 -4.96,-9.12948 -11.1135,-9.12948 -9.6255,0 -21.1265,8.13748 -21.1265,17.26698"
     id="path3335"
     style="stroke-width:0.992" />
  <path
     class="Note"
     d="m 3452.332,581.2595 c 0,4.2625 3.069,9.02102 11.1135,9.02102 10.3075,0 21.1265,-8.43202 21.1265,-17.15852 0,-5.859 -4.96,-9.12948 -11.1135,-9.12948 -9.6255,0 -21.1265,8.13748 -21.1265,17.26698"
     id="path3337"
     style="stroke-width:0.992" />
  <path
     class="Note"
     d="m 2746.182,183.9975 c 0,4.2625 3.069,9.02102 11.1135,9.02102 10.3075,0 21.1265,-8.43202 21.1265,-17.15852 0,-5.859 -4.96,-9.12948 -11.1135,-9.12948 -9.6255,0 -21.1265,8.13748 -21.1265,17.26698"
     id="path3339"
     style="stroke-width:0.992" />
  <path
     class="Note"
     d="m 186.868,606.0595 c 0,4.2625 3.069,9.02102 11.11348,9.02102 10.30757,0 21.12652,-8.43202 21.12652,-17.15852 0,-5.859 -4.96,-9.12948 -11.11348,-9.12948 -9.62547,0 -21.12652,8.13748 -21.12652,17.26698"
     id="path3341"
     style="stroke-width:0.992" />
  <path
     class="Note"
     d="m 2783.362,196.3975 c 0,4.2625 3.069,9.02102 11.1135,9.02102 10.3075,0 21.1265,-8.43202 21.1265,-17.15852 0,-5.859 -4.96,-9.12948 -11.1135,-9.12948 -9.6255,0 -21.1265,8.13748 -21.1265,17.26698"
     id="path3343"
     style="stroke-width:0.992" />
  <path
     class="Note"
     d="m 3557.222,556.4595 c 0,4.2625 3.069,9.02102 11.1135,9.02102 10.3075,0 21.1265,-8.43202 21.1265,-17.15852 0,-5.859 -4.96,-9.12948 -11.1135,-9.12948 -9.6255,0 -21.1265,8.13748 -21.1265,17.26698"
     id="path3345"
     style="stroke-width:0.992" />
  <path
     class="Note"
     d="m 2925.962,233.5975 c 0,4.2625 3.069,9.02102 11.1135,9.02102 10.3075,0 21.1265,-8.43202 21.1265,-17.15852 0,-5.859 -4.96,-9.12948 -11.1135,-9.12948 -9.6255,0 -21.1265,8.13748 -21.1265,17.26698"
     id="path3347"
     style="stroke-width:0.992" />
  <path
     class="Note"
     d="m 3657.9885,551.59252 c -9.6255,0 -21.1265,8.04448 -21.1265,17.26698 0,4.2625 3.069,9.02102 11.1135,9.02102 10.3075,0 21.1265,-8.43202 21.1265,-17.15852 0,-5.859 -4.96,-9.12948 -11.1135,-9.12948 M 3644.302,573.215 c -3.2705,0 -3.968,-2.666 -3.968,-3.565 0,-4.867 16.6625,-13.392 21.328,-13.392 2.387,0 3.968,1.395 3.968,3.565 0,4.96 -16.771,13.392 -21.328,13.392"
     id="path3349"
     style="stroke-width:0.992" />
  <path
     class="Note"
     d="m 3408.572,221.1975 c 0,4.2625 3.069,9.02102 11.1135,9.02102 10.3075,0 21.1265,-8.43202 21.1265,-17.15852 0,-5.859 -4.96,-9.12948 -11.1135,-9.12948 -9.6255,0 -21.1265,8.13748 -21.1265,17.26698"
     id="path3351"
     style="stroke-width:0.992" />
  <path
     class="Clef"
     d="m 30.798525,615.57652 c 0,6.55653 4.96,15.19 18.352,15.19 4.665475,0 8.742,-1.19347 12.30695,-3.37904 C 66.820525,623.62105 68.2,617.06452 68.2,610.818 c 0,-3.85948 -0.58895,-8.32348 -1.58095,-13.98095 -0.294525,-1.984 -0.89905,-4.96 -1.488,-8.83505 9.718425,-3.17748 16.95695,-13.29895 16.95695,-23.5135 0,-14.97302 -10.617475,-25.0945 -25.094525,-25.0945 -0.992,-5.952 -1.984,-11.81105 -2.774425,-17.36 10.416,-11.02052 17.654425,-23.42052 17.654425,-39.184 0,-9.03652 -2.774425,-16.368 -4.37095,-19.94813 -2.371475,-5.05325 -5.254525,-8.52525 -7.03705,-8.52525 -0.697475,0 -3.766425,1.19338 -7.03695,5.05325 -6.35505,7.54813 -8.137475,20.24265 -8.137475,28.56613 0,5.36295 0.496,10.23 2.185475,21.34348 -0.108525,0.093 -5.27,5.34747 -7.34705,7.03704 C 31.09305,524.71548 18.6,536.80548 18.6,556.661 c 0,18.53805 16.166525,33.12352 34.62705,33.12352 2.867475,0 5.54895,-0.29452 7.827475,-0.69747 1.89095,9.53243 3.084525,16.47643 3.084525,21.73095 0,10.32305 -5.36305,15.77905 -15.376,15.77905 -2.38705,0 -4.464,-0.496 -4.665575,-0.496 -0.09295,-0.10853 -0.294425,-0.20157 -0.294425,-0.29453 0,-0.20147 0.201475,-0.31 0.496,-0.31 4.665475,-0.79052 9.315475,-4.75852 9.315475,-11.098 0,-5.36304 -4.06105,-11.02052 -11.50105,-11.02052 -6.944,0 -11.31495,5.65748 -11.31495,12.19852 m 20.73895,-132.432 c 0.89905,-3.968 5.456,-14.384 10.617575,-14.384 1.488,0 3.859475,4.75843 3.859475,11.70243 0,10.32305 -7.626,18.05757 -14.47705,24.8 -0.58895,-3.968 -1.08495,-7.82747 -1.08495,-11.99695 0,-3.67348 0.294525,-7.05252 1.08495,-10.12148 M 60.264,585.11905 c -1.984,0.40295 -3.859475,0.60443 -5.750525,0.60443 -14.182425,0 -26.28797,-9.92 -26.28797,-24.90848 0,-12.09005 8.52502,-22.909 17.26702,-30.45752 1.674,-1.488 3.270525,-2.86748 4.758525,-4.35548 0.883475,5.34748 1.58095,10.01295 2.278425,14.08948 C 43.49305,542.77295 37.35505,552.29 37.35505,561.621 c 0,6.944 5.456,16.461 13.392,16.461 0.790425,0 1.689475,-0.40295 1.689475,-1.28652 0,-0.89896 -0.992,-1.39496 -2.185475,-2.18548 -3.87505,-2.387 -6.060525,-4.96 -6.060525,-9.827 0,-6.045 4.572525,-10.91205 10.32295,-12.29152 L 60.264,585.11905 M 74.353475,566.767 c 0,7.0525 -2.88295,14.291 -9.92,17.17405 -2.07695,-11.90405 -4.758425,-27.68305 -5.456,-32.0541 8.928,0 15.376,6.06055 15.376,14.88005"
     id="path3353"
     style="stroke-width:0.992" />
  <path
     class="Clef"
     d="m 154.79852,230.71452 c 0,6.55653 4.96,15.19 18.352,15.19 4.66548,0 8.742,-1.19347 12.30696,-3.37904 5.36304,-3.76643 6.74252,-10.32296 6.74252,-16.56948 0,-3.85948 -0.58895,-8.32348 -1.58095,-13.98095 -0.29453,-1.984 -0.89905,-4.96 -1.488,-8.83505 9.71843,-3.17748 16.95695,-13.29895 16.95695,-23.5135 0,-14.97302 -10.61748,-25.0945 -25.09452,-25.0945 -0.992,-5.952 -1.984,-11.81105 -2.77443,-17.36 10.416,-11.02052 17.65443,-23.42052 17.65443,-39.184 0,-9.036525 -2.77443,-16.368 -4.37096,-19.948128 -2.37147,-5.053248 -5.25452,-8.525248 -7.03704,-8.525248 -0.69748,0 -3.76643,1.193376 -7.03696,5.053248 -6.35504,7.548128 -8.13747,20.242653 -8.13747,28.566128 0,5.36295 0.496,10.23 2.18547,21.34348 -0.10852,0.093 -5.27,5.34747 -7.34704,7.03704 C 155.09305,139.85348 142.6,151.94348 142.6,171.799 c 0,18.53805 16.16652,33.12352 34.62705,33.12352 2.86747,0 5.54895,-0.29452 7.82747,-0.69747 1.89096,9.53243 3.08453,16.47643 3.08453,21.73095 0,10.32305 -5.36305,15.77905 -15.376,15.77905 -2.38705,0 -4.464,-0.496 -4.66557,-0.496 -0.093,-0.10853 -0.29443,-0.20157 -0.29443,-0.29453 0,-0.20147 0.20147,-0.31 0.496,-0.31 4.66547,-0.79052 9.31547,-4.75852 9.31547,-11.098 0,-5.36304 -4.06104,-11.02052 -11.50104,-11.02052 -6.944,0 -11.31496,5.65748 -11.31496,12.19852 M 175.53748,98.282525 c 0.89904,-3.968 5.456,-14.384 10.61757,-14.384 1.488,0 3.85947,4.758425 3.85947,11.702425 0,10.32305 -7.626,18.05757 -14.47704,24.8 -0.58896,-3.968 -1.08496,-7.82747 -1.08496,-11.99695 0,-3.67348 0.29453,-7.05252 1.08496,-10.121475 M 184.264,200.25705 c -1.984,0.40295 -3.85948,0.60443 -5.75052,0.60443 -14.18243,0 -26.28798,-9.92 -26.28798,-24.90848 0,-12.09005 8.52502,-22.909 17.26702,-30.45752 1.674,-1.488 3.27053,-2.86748 4.75853,-4.35548 0.88347,5.34748 1.58095,10.01295 2.27843,14.08948 -9.03643,2.68147 -15.17443,12.19852 -15.17443,21.52952 0,6.944 5.456,16.461 13.392,16.461 0.79043,0 1.68947,-0.40295 1.68947,-1.28652 0,-0.89896 -0.992,-1.39496 -2.18547,-2.18548 -3.87505,-2.387 -6.06053,-4.96 -6.06053,-9.827 0,-6.045 4.57253,-10.91205 10.32296,-12.29152 l 5.75052,32.62757 M 198.35348,181.905 c 0,7.0525 -2.88296,14.291 -9.92,17.17405 -2.07696,-11.90405 -4.75843,-27.68305 -5.456,-32.0541 8.928,0 15.376,6.06055 15.376,14.88005"
     id="path3355"
     style="stroke-width:0.992" />
  <path
     class="KeySig"
     d="m 123.78352,479.874 c 0.60453,-0.0931 1.10053,-0.79052 1.10053,-1.39505 v -5.84347 c 0,-0.992 -0.69757,-1.39496 -1.59653,-1.39496 L 120.017,471.938 v -14.78705 h -2.77452 v 15.376 l -8.83498,1.798 V 460.32852 H 105.633 V 474.914 l -3.875,0.79052 c -0.589,0.10843 -1.085,0.79043 -1.085,1.39496 V 482.85 c 0,1.085 0.7905,1.395 1.6895,1.395 l 3.2705,-0.6975 v 16.368 l -3.875,0.7905 c -0.589,0.0931 -1.085,0.79052 -1.085,1.39505 v 5.75043 c 0,1.08504 0.7905,1.37957 1.6895,1.37957 l 3.2705,-0.682 v 14.77147 h 2.7745 v -15.376 l 8.83498,-1.78252 v 13.99652 h 2.77452 v -14.58547 l 3.76652,-0.69757 c 0.60453,-0.10843 1.10053,-0.79043 1.10053,-1.39496 V 497.637 c 0,-0.992 -0.69757,-1.395 -1.59653,-1.395 l -3.27052,0.6975 v -16.368 l 3.76652,-0.6975 m -15.37602,3.069 8.83498,-1.7825 v 16.368 l -8.83498,1.891 V 482.943"
     id="path3357"
     style="stroke-width:0.992" />
  <path
     class="KeySig"
     d="m 247.78352,95.012 c 0.60453,-0.09305 1.10053,-0.790525 1.10053,-1.39505 v -5.843475 c 0,-0.992 -0.69757,-1.39495 -1.59653,-1.39495 L 244.017,87.076 V 72.28895 h -2.77452 v 15.376 l -8.83498,1.798 V 75.466525 H 229.633 V 90.052 l -3.875,0.790525 c -0.589,0.108425 -1.085,0.790425 -1.085,1.39495 V 97.988 c 0,1.085 0.7905,1.395 1.6895,1.395 l 3.2705,-0.697505 V 115.0535 l -3.875,0.7905 c -0.589,0.0931 -1.085,0.79052 -1.085,1.39505 v 5.75043 c 0,1.08504 0.7905,1.37957 1.6895,1.37957 l 3.2705,-0.682 v 14.77147 h 2.7745 v -15.376 L 241.24248,121.3 v 13.99652 h 2.77452 v -14.58547 l 3.76652,-0.69757 c 0.60453,-0.10843 1.10053,-0.79043 1.10053,-1.39496 V 112.775 c 0,-0.992 -0.69757,-1.395 -1.59653,-1.395 l -3.27052,0.6975 V 95.709495 L 247.78352,95.012 m -15.37602,3.069 8.83498,-1.782505 V 112.6665 l -8.83498,1.891 V 98.081"
     id="path3359"
     style="stroke-width:0.992" />
  <path
     class="TimeSig"
     d="m 296.99548,125.9655 c -6.06043,0 -8.23043,1.7825 -9.62548,3.2705 -0.29452,-2.077 -0.496,-3.6735 -0.496,-5.2545 0,-5.6575 1.984,-13.00455 8.928,-13.00455 2.48,0 3.968,0.806 4.96,1.89105 -2.07695,0.89895 -3.76652,3.56495 -3.76652,5.85895 0,3.56505 2.77452,6.33955 6.35504,6.33955 3.56496,0 6.448,-2.7745 6.448,-6.33955 v -0.31 c 0,-0.88347 -0.20147,-2.37147 -0.60452,-3.162 -1.28652,-3.58043 -5.456,-8.83495 -15.376,-8.83495 -8.928,0 -15.376,8.52495 -17.36,13.09748 -0.992,2.37152 -2.48,7.23852 -2.48,12.78752 0,6.0605 1.6895,12.89605 7.533,18.05752 5.76605,4.37096 9.42405,4.57253 12.89605,4.57253 3.48747,0 16.47643,-4.07653 16.47643,-15.57755 0,-9.7185 -7.64148,-13.392 -13.888,-13.392 m -3.67348,24.79998 c -3.27052,0 -5.952,-4.464 -5.952,-10.02843 0,-5.54905 2.68148,-10.10605 5.952,-10.10605 3.27052,0 6.06052,4.557 6.06052,10.10605 0,5.56443 -2.79,10.02843 -6.06052,10.02843"
     id="path3361"
     style="stroke-width:0.992" />
  <path
     class="TimeSig"
     d="m 304.34305,177.7975 c 3.27043,-2.48 5.54895,-5.6575 5.54895,-9.6255 0,-7.14548 -7.82748,-12.98905 -17.45295,-12.98905 -9.62557,0 -17.46855,5.84357 -17.46855,12.98905 0,3.968 0.992,7.533 5.6575,10.509 -4.464,2.5885 -6.944,6.262 -6.944,11.02048 0,8.02904 8.432,14.47704 18.75505,14.47704 10.30747,0 18.73947,-6.448 18.73947,-14.47704 0,-4.75848 -1.674,-9.22248 -6.83547,-11.90398 m -5.56453,-2.6815 c -6.74252,-2.1855 -14.18252,-5.456 -14.18252,-9.92 0,-3.87505 3.56505,-5.456 7.84305,-5.456 6.15347,0 10.30747,2.88295 10.30747,7.44 0,4.7585 -2.17,7.037 -3.968,7.936 m -6.33947,23.51348 c -6.35505,0 -11.81105,-3.472 -11.81105,-9.03643 0,-6.63405 5.16148,-8.23055 5.16148,-8.23055 6.74252,2.2785 16.368,5.6575 16.368,11.1135 0,2.68148 -3.37896,6.15348 -9.71843,6.15348"
     id="path3363"
     style="stroke-width:0.992" />
  <path
     class="Beam"
     fill-rule="evenodd"
     d="m 1798.892,465.486 h 183.03 v 12.404 h -183.03 v -12.404"
     id="path3365" />
  <path
     class="Beam"
     fill-rule="evenodd"
     d="m 1798.892,484.09 h 27.28 v 12.4 h -27.28 v -12.4"
     id="path3367" />
  <path
     class="Beam"
     fill-rule="evenodd"
     d="m 1891.642,484.09 h -27.28 v 12.4 h 27.28 v -12.4"
     id="path3369" />
  <path
     class="Beam"
     fill-rule="evenodd"
     d="m 3139.652,99.179 196.25,24.8 v 12.499 l -196.25,-24.8 V 99.179"
     id="path3371" />
  <path
     class="Beam"
     fill-rule="evenodd"
     d="m 3139.652,117.779 27.28,3.447 v 12.499 l -27.28,-3.447 v -12.499"
     id="path3373" />
  <path
     class="Beam"
     fill-rule="evenodd"
     d="m 3232.022,129.452 -27.28,-3.447 v 12.498 l 27.28,3.448 v -12.499"
     id="path3375" />
  <path
     class="Beam"
     fill-rule="evenodd"
     d="m 1222.412,124.028 h 196.25 v 12.4 h -196.25 v -12.4"
     id="path3377" />
  <path
     class="Beam"
     fill-rule="evenodd"
     d="m 1222.412,142.628 h 27.28 v 12.4 h -27.28 v -12.4"
     id="path3379" />
  <path
     class="Beam"
     fill-rule="evenodd"
     d="m 1314.782,142.628 h -27.28 v 12.4 h 27.28 v -12.4"
     id="path3381" />
  <path
     class="Beam"
     fill-rule="evenodd"
     d="m 1433.802,465.486 h 183.04 v 12.404 h -183.04 v -12.404"
     id="path3383" />
  <path
     class="Beam"
     fill-rule="evenodd"
     d="m 1433.802,484.09 h 27.28 v 12.4 h -27.28 v -12.4"
     id="path3385" />
  <path
     class="Beam"
     fill-rule="evenodd"
     d="m 1526.562,484.09 h -27.28 v 12.4 h 27.28 v -12.4"
     id="path3387" />
  <path
     class="Beam"
     fill-rule="evenodd"
     d="m 2412.192,80.596 182.26,18.6 v 12.465 l -182.26,-18.6 V 80.596"
     id="path3389" />
  <path
     class="Beam"
     fill-rule="evenodd"
     d="m 2412.192,99.196 27.28,2.784 v 12.465 l -27.28,-2.784 V 99.196"
     id="path3391" />
  <path
     class="Beam"
     fill-rule="evenodd"
     d="m 2504.562,108.623 -27.28,-2.784 v 12.464 l 27.28,2.784 v -12.464"
     id="path3393" />
  <path
     class="Beam"
     fill-rule="evenodd"
     d="m 2541.612,577.07 183.03,12.4 v 12.43 l -183.03,-12.4 v -12.43"
     id="path3395" />
  <path
     class="Beam"
     fill-rule="evenodd"
     d="m 2541.612,558.47 27.28,1.85 v 12.43 l -27.28,-1.85 v -12.43"
     id="path3397" />
  <path
     class="Beam"
     fill-rule="evenodd"
     d="m 2634.372,564.76 -27.28,-1.85 v 12.43 l 27.28,1.84 v -12.42"
     id="path3399" />
  <path
     class="Beam"
     fill-rule="evenodd"
     d="m 833.312,99.228 h 207.63 v 12.4 h -207.63 v -12.4"
     id="path3401" />
  <path
     class="Beam"
     fill-rule="evenodd"
     d="m 833.312,117.828 h 27.28 v 12.4 h -27.28 v -12.4"
     id="path3403" />
  <path
     class="Beam"
     fill-rule="evenodd"
     d="m 925.682,117.828 h -27.28 v 12.4 h 27.28 v -12.4"
     id="path3405" />
  <path
     class="Beam"
     fill-rule="evenodd"
     d="m 294.34,471.68 180.484,-6.198 v 12.408 l -180.484,6.2 v -12.41"
     id="path3407" />
  <path
     class="Beam"
     fill-rule="evenodd"
     d="m 294.34,490.28 27.28,-0.93 v 12.4 l -27.28,0.94 v -12.41"
     id="path3409" />
  <path
     class="Beam"
     fill-rule="evenodd"
     d="m 385.822,487.14 -27.28,0.94 v 12.4 l 27.28,-0.93 v -12.41"
     id="path3411" />
  <path
     class="Beam"
     fill-rule="evenodd"
     d="m 3301.522,465.486 h 183.03 v 12.404 h -183.03 v -12.404"
     id="path3413" />
  <path
     class="Beam"
     fill-rule="evenodd"
     d="m 3301.522,484.09 h 27.28 v 12.4 h -27.28 v -12.4"
     id="path3415" />
  <path
     class="Beam"
     fill-rule="evenodd"
     d="m 3394.282,484.09 h -27.28 v 12.4 h 27.28 v -12.4"
     id="path3417" />
  <path
     class="Beam"
     fill-rule="evenodd"
     d="m 1068.722,446.886 h 183.03 v 12.4 h -183.03 v -12.4"
     id="path3419" />
  <path
     class="Beam"
     fill-rule="evenodd"
     d="m 1068.722,465.486 h 27.28 v 12.404 h -27.28 v -12.404"
     id="path3421" />
  <path
     class="Beam"
     fill-rule="evenodd"
     d="m 1161.482,465.486 h -27.28 v 12.404 h 27.28 v -12.404"
     id="path3423" />
  <path
     class="Beam"
     fill-rule="evenodd"
     d="m 469.583,80.628 h 182.263 v 12.4 H 469.583 v -12.4"
     id="path3425" />
  <path
     class="Beam"
     fill-rule="evenodd"
     d="m 469.583,99.228 h 27.28 v 12.4 h -27.28 v -12.4"
     id="path3427" />
  <path
     class="Beam"
     fill-rule="evenodd"
     d="m 561.955,99.228 h -27.28 v 12.4 h 27.28 v -12.4"
     id="path3429" />
  <path
     class="Beam"
     fill-rule="evenodd"
     d="m 2006.162,86.825 182.26,-6.2 v 12.407 l -182.26,6.2 V 86.825"
     id="path3431" />
  <path
     class="Beam"
     fill-rule="evenodd"
     d="m 2006.162,105.425 27.28,-0.928 v 12.407 l -27.28,0.928 v -12.407"
     id="path3433" />
  <path
     class="Beam"
     fill-rule="evenodd"
     d="m 2098.532,102.283 -27.28,0.928 v 12.407 l 27.28,-0.928 v -12.407"
     id="path3435" />
  <path
     class="Beam"
     fill-rule="evenodd"
     d="m 673.891,601.87 183.031,12.4 V 626.7 L 673.891,614.3 v -12.43"
     id="path3437" />
  <path
     class="Beam"
     fill-rule="evenodd"
     d="m 673.891,583.27 27.28,1.85 v 12.43 l -27.28,-1.85 v -12.43"
     id="path3439" />
  <path
     class="Beam"
     fill-rule="evenodd"
     d="m 766.649,589.56 -27.28,-1.85 v 12.43 l 27.28,1.84 v -12.42"
     id="path3441" />
  <path
     class="Beam"
     fill-rule="evenodd"
     d="m 3517.372,105.428 h 182.26 v 12.4 h -182.26 v -12.4"
     id="path3443" />
  <path
     class="Beam"
     fill-rule="evenodd"
     d="m 3517.372,124.028 h 27.28 v 12.4 h -27.28 v -12.4"
     id="path3445" />
  <path
     class="Beam"
     fill-rule="evenodd"
     d="m 3609.742,124.028 h -27.28 v 12.4 h 27.28 v -12.4"
     id="path3447" />
  <path
     class="Beam"
     fill-rule="evenodd"
     d="m 2775.922,99.225 182.26,6.2 v 12.407 l -182.26,-6.2 V 99.225"
     id="path3449" />
  <path
     class="Beam"
     fill-rule="evenodd"
     d="m 2775.922,117.825 27.28,0.928 v 12.407 l -27.28,-0.928 v -12.407"
     id="path3451" />
  <path
     class="Beam"
     fill-rule="evenodd"
     d="m 2868.292,120.967 -27.28,-0.928 v 12.407 l 27.28,0.928 v -12.407"
     id="path3453" />
  <path
     class="Beam"
     fill-rule="evenodd"
     d="m 2906.692,601.87 183.04,12.4 v 12.43 l -183.04,-12.4 v -12.43"
     id="path3455" />
  <path
     class="Beam"
     fill-rule="evenodd"
     d="m 2906.692,583.27 27.28,1.85 v 12.43 l -27.28,-1.85 v -12.43"
     id="path3457" />
  <path
     class="Beam"
     fill-rule="evenodd"
     d="m 2999.452,589.56 -27.28,-1.85 v 12.43 l 27.28,1.84 v -12.42"
     id="path3459" />
  <path
     class="Beam"
     fill-rule="evenodd"
     d="m 1600.132,105.428 h 182.26 v 12.4 h -182.26 v -12.4"
     id="path3461" />
  <path
     class="Beam"
     fill-rule="evenodd"
     d="m 1600.132,124.028 h 27.28 v 12.4 h -27.28 v -12.4"
     id="path3463" />
  <path
     class="Beam"
     fill-rule="evenodd"
     d="m 1692.502,124.028 h -27.28 v 12.4 h 27.28 v -12.4"
     id="path3465" />
  <path
     class="Beam"
     fill-rule="evenodd"
     d="m 2176.522,632.85 183.04,-18.6 v 12.47 l -183.04,18.6 v -12.47"
     id="path3467" />
  <path
     class="Beam"
     fill-rule="evenodd"
     d="m 2176.522,614.25 27.28,-2.77 v 12.47 l -27.28,2.77 v -12.47"
     id="path3469" />
  <path
     class="Beam"
     fill-rule="evenodd"
     d="m 2269.282,604.83 -27.28,2.77 v 12.46 l 27.28,-2.77 v -12.46"
     id="path3471" />
  <path
     class="Tempo"
     d="m 297.524,0 h -3.266 v 42.266 c -1.093,-0.688 -2.484,-1.094 -4.062,-1.281 -3.563,0 -6.438,0.39 -9.609,2.172 -3.954,2.078 -8.313,6.437 -8.313,11.281 0,4.75 4.266,7.031 8.609,7.031 6.938,0 16.641,-5.937 16.641,-13.469 V 0"
     id="path3473" />
  <path
     class="Tempo"
     d="m 319.258,37.953 h 30.235 v -6.906 h -30.235 v 6.906 m 0,12.36 h 30.235 v -6.906 h -30.235 v 6.906 m 72.204,-36.969 h -2.11 c -3.781,2.828 -8.031,4.031 -15.172,4.141 v 3.359 h 2.516 c 5.344,0 5.406,0.125 5.344,5.047 v 21.297 c 0,3.719 0,3.906 -0.422,4.5 -0.547,0.656 -1.75,0.906 -4.985,0.906 h -1.921 v 3.234 h 23.937 v -3.234 h -1.922 c -3.172,0 -4.312,-0.25 -4.859,-0.906 -0.406,-0.594 -0.406,-0.844 -0.406,-4.5 V 13.344 m 28.953,0 c -9,0 -15.594,9.188 -15.594,21.672 0,12.469 6.594,21.656 15.594,21.656 8.812,0 15.547,-9.187 15.547,-21.359 0,-7.078 -1.625,-12.297 -5.172,-16.75 -2.813,-3.406 -6.36,-5.219 -10.375,-5.219 m -0.063,3.125 c 1.797,0 3.25,1.078 3.906,3 0.782,1.984 1.25,8.281 1.25,15.719 0,6.187 -0.468,12.656 -1.015,14.703 -0.656,2.391 -2.094,3.656 -4.141,3.656 -1.859,0 -3.234,-1.015 -3.953,-3 -0.781,-1.984 -1.266,-8.344 -1.266,-15.531 0,-6.313 0.485,-12.844 1.016,-14.891 0.672,-2.39 2.109,-3.656 4.203,-3.656 m 34.063,-3.125 c -9,0 -15.594,9.188 -15.594,21.672 0,12.469 6.594,21.656 15.594,21.656 8.812,0 15.547,-9.187 15.547,-21.359 0,-7.078 -1.625,-12.297 -5.172,-16.75 -2.813,-3.406 -6.36,-5.219 -10.375,-5.219 m -0.063,3.125 c 1.797,0 3.25,1.078 3.906,3 0.782,1.984 1.25,8.281 1.25,15.719 0,6.187 -0.468,12.656 -1.015,14.703 -0.656,2.391 -2.094,3.656 -4.141,3.656 -1.859,0 -3.234,-1.015 -3.953,-3 -0.781,-1.984 -1.266,-8.344 -1.266,-15.531 0,-6.313 0.485,-12.844 1.016,-14.891 0.672,-2.39 2.109,-3.656 4.203,-3.656"
     id="path3475" />
  <path
     class="VoltaSegment"
     d="m 3407.492,39.327 h -1.92 c -3.47,2.594 -7.38,3.687 -13.92,3.797 v 3.078 h 2.31 c 4.89,0 4.95,0.109 4.89,4.625 v 19.516 c 0,3.406 0,3.578 -0.38,4.125 -0.5,0.609 -1.61,0.828 -4.57,0.828 h -1.75 v 2.968 h 21.93 v -2.968 h -1.76 c -2.91,0 -3.96,-0.219 -4.46,-0.828 -0.37,-0.547 -0.37,-0.766 -0.37,-4.125 V 39.327 m 19.23,29.422 c -2.86,0 -5.17,2.312 -5.17,5.172 0,2.797 2.31,5.172 5.13,5.172 2.9,0 5.22,-2.313 5.22,-5.172 0,-2.86 -2.32,-5.172 -5.18,-5.172"
     id="path3477" />
  <polyline
     class="VoltaSegment"
     fill="none"
     stroke="#000000"
     stroke-width="2.73"
     stroke-linejoin="miter"
     stroke-miterlimit="2"
     points="3588.8,607.034 3588.8,552.474 3994.83,552.474 3994.83,607.034"
     id="polyline3479"
     transform="translate(-212.598,-528.77)" />
  <path
     class="VoltaSegment"
     d="m 1905.102,63.639 -0.61,2.75 c -0.5,2.204 -0.82,2.907 -1.26,3.188 -0.55,0.391 -0.66,0.391 -4.13,0.437 h -10.61 c 1.93,-1.656 3.36,-2.687 5.5,-4.125 7.75,-5 9.35,-6.218 10.94,-8.25 1.88,-2.468 2.97,-5.39 2.97,-7.968 0,-5.891 -5.77,-10.344 -13.52,-10.344 -7.48,0 -13.26,4.844 -13.26,11.109 0,3.844 2.15,6.328 5.45,6.328 2.86,0 4.67,-1.812 4.67,-4.671 0,-2.375 -1.04,-3.75 -3.57,-4.954 -0.61,-0.281 -0.88,-0.609 -0.88,-1.046 0,-1.766 2.97,-3.625 5.72,-3.625 3.84,0 6.05,2.359 6.05,6.437 0,4.563 -1.77,7.797 -7.6,14.016 -6.15,6.547 -8.29,9.015 -11.04,12.984 v 2.578 c 1.42,-0.156 2.03,-0.219 2.85,-0.219 h 20.68 c 1.04,0 1.7,0.063 3.36,0.219 l 1.26,-14.844 h -2.97 m 13.41,5.11 c -2.86,0 -5.17,2.312 -5.17,5.172 0,2.797 2.31,5.172 5.12,5.172 2.91,0 5.22,-2.313 5.22,-5.172 0,-2.86 -2.31,-5.172 -5.17,-5.172"
     id="path3481" />
  <polyline
     class="VoltaSegment"
     fill="none"
     stroke="#000000"
     stroke-width="2.73"
     stroke-linejoin="miter"
     stroke-miterlimit="2"
     points="2077.59,607.034 2077.59,552.474 2439.58,552.474"
     id="polyline3483"
     transform="translate(-212.598,-528.77)" />
  <path
     class="VoltaSegment"
     d="m 1490.242,39.327 h -1.92 c -3.47,2.594 -7.37,3.687 -13.92,3.797 v 3.078 h 2.31 c 4.89,0 4.96,0.109 4.89,4.625 v 19.516 c 0,3.406 0,3.578 -0.37,4.125 -0.5,0.609 -1.61,0.828 -4.58,0.828 h -1.75 v 2.968 h 21.94 v -2.968 h -1.77 c -2.9,0 -3.95,-0.219 -4.45,-0.828 -0.38,-0.547 -0.38,-0.766 -0.38,-4.125 V 39.327 m 19.24,29.422 c -2.86,0 -5.17,2.312 -5.17,5.172 0,2.797 2.31,5.172 5.12,5.172 2.91,0 5.22,-2.313 5.22,-5.172 0,-2.86 -2.31,-5.172 -5.17,-5.172"
     id="path3485" />
  <polyline
     class="VoltaSegment"
     fill="none"
     stroke="#000000"
     stroke-width="2.73"
     stroke-linejoin="miter"
     stroke-miterlimit="2"
     points="1671.56,607.034 1671.56,552.474 2053.04,552.474 2053.04,607.034"
     id="polyline3487"
     transform="translate(-212.598,-528.77)" />
  <path
     class="VoltaSegment"
     d="m 197.347,448.497 -0.61,2.75 c -0.5,2.203 -0.828,2.906 -1.265,3.187 -0.547,0.391 -0.656,0.391 -4.125,0.438 h -10.61 c 1.922,-1.656 3.36,-2.688 5.5,-4.125 7.75,-5 9.344,-6.219 10.938,-8.25 1.875,-2.469 2.969,-5.391 2.969,-7.969 0,-5.89 -5.766,-10.344 -13.516,-10.344 -7.484,0 -13.266,4.844 -13.266,11.11 0,3.844 2.157,6.328 5.454,6.328 2.859,0 4.671,-1.813 4.671,-4.672 0,-2.375 -1.046,-3.75 -3.578,-4.953 -0.609,-0.281 -0.875,-0.609 -0.875,-1.047 0,-1.766 2.969,-3.625 5.719,-3.625 3.844,0 6.047,2.359 6.047,6.438 0,4.562 -1.766,7.796 -7.594,14.015 -6.156,6.547 -8.297,9.016 -11.047,12.985 v 2.578 c 1.422,-0.157 2.032,-0.219 2.86,-0.219 h 20.672 c 1.046,0 1.703,0.062 3.359,0.219 l 1.266,-14.844 h -2.969 m 13.406,5.109 c -2.859,0 -5.172,2.313 -5.172,5.172 0,2.797 2.313,5.172 5.125,5.172 2.906,0 5.219,-2.312 5.219,-5.172 0,-2.859 -2.313,-5.172 -5.172,-5.172"
     id="path3489" />
  <polyline
     class="VoltaSegment"
     fill="none"
     stroke="#000000"
     stroke-width="2.73"
     stroke-linejoin="miter"
     stroke-miterlimit="2"
     points="369.83,991.892 369.83,937.332 730.45,937.332"
     id="polyline3491"
     transform="translate(-212.598,-528.77)" />
  <path
     class="VoltaSegment"
     d="m 1688.422,424.184 h -1.92 c -3.47,2.594 -7.37,3.688 -13.92,3.797 v 3.078 h 2.31 c 4.89,0 4.95,0.11 4.89,4.625 V 455.2 c 0,3.406 0,3.578 -0.37,4.125 -0.5,0.609 -1.61,0.828 -4.58,0.828 h -1.75 v 2.969 h 21.94 v -2.969 h -1.77 c -2.91,0 -3.95,-0.219 -4.45,-0.828 -0.38,-0.547 -0.38,-0.766 -0.38,-4.125 v -31.016 m 19.24,29.422 c -2.86,0 -5.17,2.313 -5.17,5.172 0,2.797 2.31,5.172 5.12,5.172 2.91,0 5.22,-2.312 5.22,-5.172 0,-2.859 -2.31,-5.172 -5.17,-5.172"
     id="path3493" />
  <polyline
     class="VoltaSegment"
     fill="none"
     stroke="#000000"
     stroke-width="2.73"
     stroke-linejoin="miter"
     stroke-miterlimit="2"
     points="1869.74,991.892 1869.74,937.332 2252.57,937.332 2252.57,991.892"
     id="polyline3495"
     transform="translate(-212.598,-528.77)" />
  <path
     class="VoltaSegment"
     d="m 2104.632,448.497 -0.6,2.75 c -0.5,2.203 -0.83,2.906 -1.27,3.187 -0.55,0.391 -0.66,0.391 -4.13,0.438 h -10.6 c 1.92,-1.656 3.35,-2.688 5.5,-4.125 7.75,-5 9.34,-6.219 10.93,-8.25 1.88,-2.469 2.97,-5.391 2.97,-7.969 0,-5.89 -5.76,-10.344 -13.51,-10.344 -7.49,0 -13.27,4.844 -13.27,11.11 0,3.844 2.16,6.328 5.45,6.328 2.86,0 4.68,-1.813 4.68,-4.672 0,-2.375 -1.05,-3.75 -3.58,-4.953 -0.61,-0.281 -0.88,-0.609 -0.88,-1.047 0,-1.766 2.97,-3.625 5.72,-3.625 3.84,0 6.05,2.359 6.05,6.438 0,4.562 -1.77,7.796 -7.6,14.015 -6.15,6.547 -8.29,9.016 -11.04,12.985 v 2.578 c 1.42,-0.157 2.03,-0.219 2.86,-0.219 h 20.67 c 1.05,0 1.7,0.062 3.36,0.219 l 1.26,-14.844 h -2.97 m 13.41,5.109 c -2.86,0 -5.17,2.313 -5.17,5.172 0,2.797 2.31,5.172 5.12,5.172 2.91,0 5.22,-2.312 5.22,-5.172 0,-2.859 -2.31,-5.172 -5.17,-5.172"
     id="path3497" />
  <polyline
     class="VoltaSegment"
     fill="none"
     stroke="#000000"
     stroke-width="2.73"
     stroke-linejoin="miter"
     stroke-miterlimit="2"
     points="2277.12,991.892 2277.12,937.332 2640.47,937.332"
     id="polyline3499"
     transform="translate(-212.598,-528.77)" />
</svg>
