<?xml version="1.0" encoding="UTF-8" standalone="no"?>
<svg
   xmlns:dc="http://purl.org/dc/elements/1.1/"
   xmlns:cc="http://creativecommons.org/ns#"
   xmlns:rdf="http://www.w3.org/1999/02/22-rdf-syntax-ns#"
   xmlns:svg="http://www.w3.org/2000/svg"
   xmlns="http://www.w3.org/2000/svg"
   xmlns:sodipodi="http://sodipodi.sourceforge.net/DTD/sodipodi-0.dtd"
   xmlns:inkscape="http://www.inkscape.org/namespaces/inkscape"
   width="258.20526mm"
   height="16.823656mm"
   viewBox="0 0 3659.6022 238.44552"
   version="1.2"
   id="svg1941"
   sodipodi:docname="Dossium Canto Vulvangst Musica.svg"
   inkscape:version="1.0.2-2 (e86c870879, 2021-01-15)">
  <metadata
     id="metadata1947">
    <rdf:RDF>
      <cc:Work
         rdf:about="">
        <dc:format>image/svg+xml</dc:format>
        <dc:type
           rdf:resource="http://purl.org/dc/dcmitype/StillImage" />
      </cc:Work>
    </rdf:RDF>
  </metadata>
  <defs
     id="defs1945" />
  <sodipodi:namedview
     pagecolor="#ffffff"
     bordercolor="#666666"
     borderopacity="1"
     objecttolerance="10"
     gridtolerance="10"
     guidetolerance="10"
     inkscape:pageopacity="0"
     inkscape:pageshadow="2"
     inkscape:window-width="1920"
     inkscape:window-height="991"
     id="namedview1943"
     showgrid="false"
     inkscape:zoom="1.0328497"
     inkscape:cx="471.36053"
     inkscape:cy="253.9656"
     inkscape:window-x="-9"
     inkscape:window-y="-9"
     inkscape:window-maximized="1"
     inkscape:current-layer="svg1941" />
  <title
     id="title1643">Dossium Canto Vulvangst Musica</title>
  <desc
     id="desc1645">Generated by MuseScore Studio 4.5.2</desc>
  <polyline
     class="StaffLines"
     fill="none"
     stroke="#000000"
     stroke-width="2.73"
     stroke-linejoin="bevel"
     points="336.598,634.198 3996.2,634.198"
     id="polyline1647"
     transform="translate(-336.598,-536.229)" />
  <polyline
     class="StaffLines"
     fill="none"
     stroke="#000000"
     stroke-width="2.73"
     stroke-linejoin="bevel"
     points="336.598,658.998 3996.2,658.998"
     id="polyline1649"
     transform="translate(-336.598,-536.229)" />
  <polyline
     class="StaffLines"
     fill="none"
     stroke="#000000"
     stroke-width="2.73"
     stroke-linejoin="bevel"
     points="336.598,683.798 3996.2,683.798"
     id="polyline1651"
     transform="translate(-336.598,-536.229)" />
  <polyline
     class="StaffLines"
     fill="none"
     stroke="#000000"
     stroke-width="2.73"
     stroke-linejoin="bevel"
     points="336.598,708.598 3996.2,708.598"
     id="polyline1653"
     transform="translate(-336.598,-536.229)" />
  <polyline
     class="StaffLines"
     fill="none"
     stroke="#000000"
     stroke-width="2.73"
     stroke-linejoin="bevel"
     points="336.598,733.398 3996.2,733.398"
     id="polyline1655"
     transform="translate(-336.598,-536.229)" />
  <polyline
     class="BarLine"
     fill="none"
     stroke="#000000"
     stroke-width="4.46"
     stroke-linejoin="bevel"
     points="848.128,632.834 848.128,734.762"
     id="polyline1665"
     transform="translate(-336.598,-536.229)" />
  <polyline
     class="BarLine"
     fill="none"
     stroke="#000000"
     stroke-width="4.46"
     stroke-linejoin="bevel"
     points="2234.97,632.834 2234.97,734.762"
     id="polyline1667"
     transform="translate(-336.598,-536.229)" />
  <path
     class="BarLine"
     d="m 2213.505,135.169 c 0,-2.883 -2.294,-5.2545 -5.1615,-5.2545 -2.883,0 -5.1615,2.3715 -5.1615,5.2545 0,2.883 2.2785,5.2545 5.1615,5.2545 2.8675,0 5.1615,-2.3715 5.1615,-5.2545"
     id="path1669"
     style="stroke-width:0.992" />
  <path
     class="BarLine"
     d="m 2213.505,159.969 c 0,-2.883 -2.294,-5.2545 -5.1615,-5.2545 -2.883,0 -5.1615,2.3715 -5.1615,5.2545 0,2.883 2.2785,5.2545 5.1615,5.2545 2.8675,0 5.1615,-2.3715 5.1615,-5.2545"
     id="path1671"
     style="stroke-width:0.992" />
  <polyline
     class="BarLine"
     fill="none"
     stroke="#000000"
     stroke-width="4.46"
     stroke-linejoin="bevel"
     points="2561.49,632.834 2561.49,734.762"
     id="polyline1673"
     transform="translate(-336.598,-536.229)" />
  <polyline
     class="BarLine"
     fill="none"
     stroke="#000000"
     stroke-width="13.64"
     stroke-linejoin="bevel"
     points="2579.72,632.834 2579.72,734.762"
     id="polyline1675"
     transform="translate(-336.598,-536.229)" />
  <path
     class="BarLine"
     d="m 1518.325,135.169 c 0,-2.883 -2.294,-5.2545 -5.1615,-5.2545 -2.883,0 -5.1615,2.3715 -5.1615,5.2545 0,2.883 2.2785,5.2545 5.1615,5.2545 2.8675,0 5.1615,-2.3715 5.1615,-5.2545"
     id="path1677"
     style="stroke-width:0.992" />
  <path
     class="BarLine"
     d="m 1518.325,159.969 c 0,-2.883 -2.294,-5.2545 -5.1615,-5.2545 -2.883,0 -5.1615,2.3715 -5.1615,5.2545 0,2.883 2.2785,5.2545 5.1615,5.2545 2.8675,0 5.1615,-2.3715 5.1615,-5.2545"
     id="path1679"
     style="stroke-width:0.992" />
  <polyline
     class="BarLine"
     fill="none"
     stroke="#000000"
     stroke-width="4.46"
     stroke-linejoin="bevel"
     points="1866.32,632.834 1866.32,734.762"
     id="polyline1681"
     transform="translate(-336.598,-536.229)" />
  <polyline
     class="BarLine"
     fill="none"
     stroke="#000000"
     stroke-width="13.64"
     stroke-linejoin="bevel"
     points="1884.55,632.834 1884.55,734.762"
     id="polyline1683"
     transform="translate(-336.598,-536.229)" />
  <polyline
     class="BarLine"
     fill="none"
     stroke="#000000"
     stroke-width="4.46"
     stroke-linejoin="bevel"
     points="1501,632.834 1501,734.762"
     id="polyline1685"
     transform="translate(-336.598,-536.229)" />
  <polyline
     class="BarLine"
     fill="none"
     stroke="#000000"
     stroke-width="4.46"
     stroke-linejoin="bevel"
     points="1155.17,632.834 1155.17,734.762"
     id="polyline1687"
     transform="translate(-336.598,-536.229)" />
  <polyline
     class="BarLine"
     fill="none"
     stroke="#000000"
     stroke-width="4.46"
     stroke-linejoin="bevel"
     points="2930.14,632.834 2930.14,734.762"
     id="polyline1689"
     transform="translate(-336.598,-536.229)" />
  <polyline
     class="BarLine"
     fill="none"
     stroke="#000000"
     stroke-width="4.46"
     stroke-linejoin="bevel"
     points="3971.15,632.834 3971.15,734.762"
     id="polyline1691"
     transform="translate(-336.598,-536.229)" />
  <polyline
     class="BarLine"
     fill="none"
     stroke="#000000"
     stroke-width="13.64"
     stroke-linejoin="bevel"
     points="3989.38,632.834 3989.38,734.762"
     id="polyline1693"
     transform="translate(-336.598,-536.229)" />
  <path
     class="BarLine"
     d="m 2947.475,135.169 c 0,-2.883 -2.294,-5.2545 -5.1615,-5.2545 -2.883,0 -5.1615,2.3715 -5.1615,5.2545 0,2.883 2.2785,5.2545 5.1615,5.2545 2.8675,0 5.1615,-2.3715 5.1615,-5.2545"
     id="path1695"
     style="stroke-width:0.992" />
  <path
     class="BarLine"
     d="m 2947.475,159.969 c 0,-2.883 -2.294,-5.2545 -5.1615,-5.2545 -2.883,0 -5.1615,2.3715 -5.1615,5.2545 0,2.883 2.2785,5.2545 5.1615,5.2545 2.8675,0 5.1615,-2.3715 5.1615,-5.2545"
     id="path1697"
     style="stroke-width:0.992" />
  <polyline
     class="BarLine"
     fill="none"
     stroke="#000000"
     stroke-width="4.46"
     stroke-linejoin="bevel"
     points="3295.46,632.834 3295.46,734.762"
     id="polyline1699"
     transform="translate(-336.598,-536.229)" />
  <polyline
     class="BarLine"
     fill="none"
     stroke="#000000"
     stroke-width="13.64"
     stroke-linejoin="bevel"
     points="3313.69,632.834 3313.69,734.762"
     id="polyline1701"
     transform="translate(-336.598,-536.229)" />
  <polyline
     class="BarLine"
     fill="none"
     stroke="#000000"
     stroke-width="4.46"
     stroke-linejoin="bevel"
     points="3664.11,632.834 3664.11,734.762"
     id="polyline1703"
     transform="translate(-336.598,-536.229)" />
  <path
     class="Accidental"
     d="m 3163.695,139.726 c -0.589,-3.85952 -2.976,-7.533 -8.029,-7.533 -4.96,0 -7.843,3.06895 -8.339,3.67348 l 0.403,-31.85253 c 0,-0.79043 -0.589,-1.37947 -1.395,-1.37947 h -1.178 c -0.806,0 -1.395,0.58904 -1.395,1.37947 l 0.496,59.62853 c 0,0.79052 0.589,1.37957 1.395,1.37957 0.186,0 0.589,-0.0931 0.7905,-0.186 0.3875,-0.20157 6.8355,-3.37905 12.1985,-9.42405 3.7665,-4.278 5.2545,-9.1295 5.2545,-13.206 0,-0.8835 -0.093,-1.674 -0.2015,-2.48 m -6.8355,3.875 c 0,1.488 -0.403,6.045 -2.883,9.827 -1.6895,2.573 -5.053,5.25448 -6.944,6.74248 l 0.2945,-19.34398 c 0.2015,-0.899 1.6895,-3.76655 5.6575,-3.76655 3.5805,0 3.875,3.36355 3.875,5.45605 0,0.496 0,0.7905 0,1.085"
     id="path1705"
     style="stroke-width:0.992" />
  <polyline
     class="LedgerLine"
     fill="none"
     stroke="#000000"
     stroke-width="3.97"
     stroke-linejoin="bevel"
     points="1028.36,609.398 1076.95,609.398"
     id="polyline1707"
     transform="translate(-336.598,-536.229)" />
  <polyline
     class="LedgerLine"
     fill="none"
     stroke="#000000"
     stroke-width="3.97"
     stroke-linejoin="bevel"
     points="950.769,609.398 999.361,609.398"
     id="polyline1709"
     transform="translate(-336.598,-536.229)" />
  <polyline
     class="Stem"
     fill="none"
     stroke="#000000"
     stroke-width="2.48"
     stroke-linejoin="bevel"
     points="1344.82,663.165 1344.82,745.798"
     id="polyline1711"
     transform="translate(-336.598,-536.229)" />
  <polyline
     class="Stem"
     fill="none"
     stroke="#000000"
     stroke-width="2.48"
     stroke-linejoin="bevel"
     points="882.6,663.165 882.6,745.798"
     id="polyline1713"
     transform="translate(-336.598,-536.229)" />
  <polyline
     class="Stem"
     fill="none"
     stroke="#000000"
     stroke-width="2.48"
     stroke-linejoin="bevel"
     points="960.193,613.565 960.193,696.198"
     id="polyline1715"
     transform="translate(-336.598,-536.229)" />
  <polyline
     class="Stem"
     fill="none"
     stroke="#000000"
     stroke-width="2.48"
     stroke-linejoin="bevel"
     points="2078.79,663.165 2078.79,745.798"
     id="polyline1717"
     transform="translate(-336.598,-536.229)" />
  <polyline
     class="Stem"
     fill="none"
     stroke="#000000"
     stroke-width="2.48"
     stroke-linejoin="bevel"
     points="1037.79,613.565 1037.79,696.198"
     id="polyline1719"
     transform="translate(-336.598,-536.229)" />
  <polyline
     class="Stem"
     fill="none"
     stroke="#000000"
     stroke-width="2.48"
     stroke-linejoin="bevel"
     points="1613.07,650.765 1613.07,733.398"
     id="polyline1721"
     transform="translate(-336.598,-536.229)" />
  <polyline
     class="Stem"
     fill="none"
     stroke="#000000"
     stroke-width="2.48"
     stroke-linejoin="bevel"
     points="2156.39,675.565 2156.39,751.998"
     id="polyline1723"
     transform="translate(-336.598,-536.229)" />
  <polyline
     class="Stem"
     fill="none"
     stroke="#000000"
     stroke-width="2.48"
     stroke-linejoin="bevel"
     points="1690.66,663.165 1690.66,745.798"
     id="polyline1725"
     transform="translate(-336.598,-536.229)" />
  <polyline
     class="Stem"
     fill="none"
     stroke="#000000"
     stroke-width="2.48"
     stroke-linejoin="bevel"
     points="536.765,663.165 536.765,745.798"
     id="polyline1727"
     transform="translate(-336.598,-536.229)" />
  <polyline
     class="Stem"
     fill="none"
     stroke="#000000"
     stroke-width="2.48"
     stroke-linejoin="bevel"
     points="2269.44,663.165 2269.44,745.798"
     id="polyline1729"
     transform="translate(-336.598,-536.229)" />
  <polyline
     class="Stem"
     fill="none"
     stroke="#000000"
     stroke-width="2.48"
     stroke-linejoin="bevel"
     points="2376.78,692.23 2376.78,615.598"
     id="polyline1731"
     transform="translate(-336.598,-536.229)" />
  <polyline
     class="Stem"
     fill="none"
     stroke="#000000"
     stroke-width="2.48"
     stroke-linejoin="bevel"
     points="2424.63,675.565 2424.63,751.998"
     id="polyline1733"
     transform="translate(-336.598,-536.229)" />
  <polyline
     class="Stem"
     fill="none"
     stroke="#000000"
     stroke-width="2.48"
     stroke-linejoin="bevel"
     points="1422.42,650.765 1422.42,733.398"
     id="polyline1735"
     transform="translate(-336.598,-536.229)" />
  <polyline
     class="Stem"
     fill="none"
     stroke="#000000"
     stroke-width="2.48"
     stroke-linejoin="bevel"
     points="1189.64,663.165 1189.64,745.798"
     id="polyline1737"
     transform="translate(-336.598,-536.229)" />
  <polyline
     class="Stem"
     fill="none"
     stroke="#000000"
     stroke-width="2.48"
     stroke-linejoin="bevel"
     points="2618.78,663.165 2618.78,745.798"
     id="polyline1739"
     transform="translate(-336.598,-536.229)" />
  <polyline
     class="Stem"
     fill="none"
     stroke="#000000"
     stroke-width="2.48"
     stroke-linejoin="bevel"
     points="2696.37,650.765 2696.37,733.398"
     id="polyline1741"
     transform="translate(-336.598,-536.229)" />
  <polyline
     class="Stem"
     fill="none"
     stroke="#000000"
     stroke-width="2.48"
     stroke-linejoin="bevel"
     points="2773.97,663.165 2773.97,745.798"
     id="polyline1743"
     transform="translate(-336.598,-536.229)" />
  <polyline
     class="Stem"
     fill="none"
     stroke="#000000"
     stroke-width="2.48"
     stroke-linejoin="bevel"
     points="2851.56,650.765 2851.56,733.398"
     id="polyline1745"
     transform="translate(-336.598,-536.229)" />
  <polyline
     class="Stem"
     fill="none"
     stroke="#000000"
     stroke-width="2.48"
     stroke-linejoin="bevel"
     points="1535.47,663.165 1535.47,745.798"
     id="polyline1747"
     transform="translate(-336.598,-536.229)" />
  <polyline
     class="Stem"
     fill="none"
     stroke="#000000"
     stroke-width="2.48"
     stroke-linejoin="bevel"
     points="614.358,650.765 614.358,733.398"
     id="polyline1749"
     transform="translate(-336.598,-536.229)" />
  <polyline
     class="Stem"
     fill="none"
     stroke="#000000"
     stroke-width="2.48"
     stroke-linejoin="bevel"
     points="2964.62,663.165 2964.62,745.798"
     id="polyline1751"
     transform="translate(-336.598,-536.229)" />
  <polyline
     class="Stem"
     fill="none"
     stroke="#000000"
     stroke-width="2.48"
     stroke-linejoin="bevel"
     points="3042.21,650.765 3042.21,733.398"
     id="polyline1753"
     transform="translate(-336.598,-536.229)" />
  <polyline
     class="Stem"
     fill="none"
     stroke="#000000"
     stroke-width="2.48"
     stroke-linejoin="bevel"
     points="1768.25,675.565 1768.25,751.998"
     id="polyline1755"
     transform="translate(-336.598,-536.229)" />
  <polyline
     class="Stem"
     fill="none"
     stroke="#000000"
     stroke-width="2.48"
     stroke-linejoin="bevel"
     points="3119.8,663.165 3119.8,745.798"
     id="polyline1757"
     transform="translate(-336.598,-536.229)" />
  <polyline
     class="Stem"
     fill="none"
     stroke="#000000"
     stroke-width="2.48"
     stroke-linejoin="bevel"
     points="3197.39,675.565 3197.39,751.998"
     id="polyline1759"
     transform="translate(-336.598,-536.229)" />
  <polyline
     class="Stem"
     fill="none"
     stroke="#000000"
     stroke-width="2.48"
     stroke-linejoin="bevel"
     points="691.951,663.165 691.951,745.798"
     id="polyline1761"
     transform="translate(-336.598,-536.229)" />
  <polyline
     class="Stem"
     fill="none"
     stroke="#000000"
     stroke-width="2.48"
     stroke-linejoin="bevel"
     points="1267.23,650.765 1267.23,733.398"
     id="polyline1763"
     transform="translate(-336.598,-536.229)" />
  <polyline
     class="Stem"
     fill="none"
     stroke="#000000"
     stroke-width="2.48"
     stroke-linejoin="bevel"
     points="3352.75,663.165 3352.75,745.798"
     id="polyline1765"
     transform="translate(-336.598,-536.229)" />
  <polyline
     class="Stem"
     fill="none"
     stroke="#000000"
     stroke-width="2.48"
     stroke-linejoin="bevel"
     points="3430.34,675.565 3430.34,751.998"
     id="polyline1767"
     transform="translate(-336.598,-536.229)" />
  <polyline
     class="Stem"
     fill="none"
     stroke="#000000"
     stroke-width="2.48"
     stroke-linejoin="bevel"
     points="3507.93,687.965 3507.93,758.198"
     id="polyline1769"
     transform="translate(-336.598,-536.229)" />
  <polyline
     class="Stem"
     fill="none"
     stroke="#000000"
     stroke-width="2.48"
     stroke-linejoin="bevel"
     points="2001.2,675.565 2001.2,751.998"
     id="polyline1771"
     transform="translate(-336.598,-536.229)" />
  <polyline
     class="Stem"
     fill="none"
     stroke="#000000"
     stroke-width="2.48"
     stroke-linejoin="bevel"
     points="3615.27,692.23 3615.27,615.598"
     id="polyline1773"
     transform="translate(-336.598,-536.229)" />
  <polyline
     class="Stem"
     fill="none"
     stroke="#000000"
     stroke-width="2.48"
     stroke-linejoin="bevel"
     points="769.543,650.765 769.543,733.398"
     id="polyline1775"
     transform="translate(-336.598,-536.229)" />
  <polyline
     class="Stem"
     fill="none"
     stroke="#000000"
     stroke-width="2.48"
     stroke-linejoin="bevel"
     points="1923.61,663.165 1923.61,745.798"
     id="polyline1777"
     transform="translate(-336.598,-536.229)" />
  <polyline
     class="Stem"
     fill="none"
     stroke="#000000"
     stroke-width="2.48"
     stroke-linejoin="bevel"
     points="3728.33,704.63 3728.33,621.798"
     id="polyline1779"
     transform="translate(-336.598,-536.229)" />
  <polyline
     class="Stem"
     fill="none"
     stroke="#000000"
     stroke-width="2.48"
     stroke-linejoin="bevel"
     points="3805.92,692.23 3805.92,615.598"
     id="polyline1781"
     transform="translate(-336.598,-536.229)" />
  <polyline
     class="Stem"
     fill="none"
     stroke="#000000"
     stroke-width="2.48"
     stroke-linejoin="bevel"
     points="3883.51,717.03 3883.51,634.198"
     id="polyline1783"
     transform="translate(-336.598,-536.229)" />
  <path
     class="Note"
     d="m 431.705,114.5385 c 0,4.2625 3.069,9.02102 11.11348,9.02102 10.30757,0 21.12652,-8.43202 21.12652,-17.15852 0,-5.859 -4.96,-9.129475 -11.11348,-9.129475 -9.62547,0 -21.12652,8.137475 -21.12652,17.266975"
     id="path1785"
     style="stroke-width:0.992" />
  <path
     class="Note"
     d="m 1430.412,139.3385 c 0,4.2625 3.069,9.02102 11.1135,9.02102 10.3075,0 21.1265,-8.43202 21.1265,-17.15852 0,-5.859 -4.96,-9.12948 -11.1135,-9.12948 -9.6255,0 -21.1265,8.13748 -21.1265,17.26698"
     id="path1787"
     style="stroke-width:0.992" />
  <path
     class="Note"
     d="m 2358.532,114.5385 c 0,4.2625 3.069,9.02102 11.1135,9.02102 10.3075,0 21.1265,-8.43202 21.1265,-17.15852 0,-5.859 -4.96,-9.129475 -11.1135,-9.129475 -9.6255,0 -21.1265,8.137475 -21.1265,17.266975"
     id="path1789"
     style="stroke-width:0.992" />
  <path
     class="Note"
     d="m 544.762,126.9385 c 0,4.2625 3.069,9.02102 11.11348,9.02102 10.30757,0 21.12652,-8.43202 21.12652,-17.15852 0,-5.859 -4.96,-9.12948 -11.11348,-9.12948 -9.62547,0 -21.12652,8.13748 -21.12652,17.26698"
     id="path1791"
     style="stroke-width:0.992" />
  <path
     class="Note"
     d="m 2436.132,126.9385 c 0,4.2625 3.069,9.02102 11.1135,9.02102 10.3075,0 21.1265,-8.43202 21.1265,-17.15852 0,-5.859 -4.96,-9.12948 -11.1135,-9.12948 -9.6255,0 -21.1265,8.13748 -21.1265,17.26698"
     id="path1793"
     style="stroke-width:0.992" />
  <path
     class="Note"
     d="m 622.355,77.338505 c 0,4.262495 3.069,9.02102 11.11348,9.02102 10.30757,0 21.12652,-8.43202 21.12652,-17.158525 0,-5.859 -4.96,-9.129475 -11.11348,-9.129475 -9.62547,0 -21.12652,8.137475 -21.12652,17.26698"
     id="path1795"
     style="stroke-width:0.992" />
  <path
     class="Note"
     d="m 2513.722,114.5385 c 0,4.2625 3.069,9.02102 11.1135,9.02102 10.3075,0 21.1265,-8.43202 21.1265,-17.15852 0,-5.859 -4.96,-9.129475 -11.1135,-9.129475 -9.6255,0 -21.1265,8.137475 -21.1265,17.266975"
     id="path1797"
     style="stroke-width:0.992" />
  <path
     class="Note"
     d="m 721.07852,60.071525 c -9.62547,0 -21.12652,8.044475 -21.12652,17.26698 0,4.262495 3.069,9.02102 11.11348,9.02102 10.30757,0 21.12652,-8.43202 21.12652,-17.158525 0,-5.859 -4.96,-9.129475 -11.11348,-9.129475 M 718.39705,77.54 c -0.29453,0.186 -7.53305,4.154 -11.00505,4.154 -3.2705,0 -3.968,-2.666 -3.968,-3.565 0,-4.1695 9.92,-9.021 10.32305,-9.222505 0.38747,-0.201495 7.44,-4.169495 11.00495,-4.169495 2.38705,0 3.968,1.395 3.968,3.565 0,4.278 -10.01295,9.036505 -10.32295,9.238"
     id="path1799"
     style="stroke-width:0.992" />
  <path
     class="Note"
     d="m 851.802,126.9385 c 0,4.2625 3.069,9.02102 11.11348,9.02102 10.30757,0 21.12652,-8.43202 21.12652,-17.15852 0,-5.859 -4.96,-9.12948 -11.11348,-9.12948 -9.62547,0 -21.12652,8.13748 -21.12652,17.26698"
     id="path1801"
     style="stroke-width:0.992" />
  <path
     class="Note"
     d="m 1740.952,126.9385 c 0,4.2625 3.069,9.02102 11.1135,9.02102 10.3075,0 21.1265,-8.43202 21.1265,-17.15852 0,-5.859 -4.96,-9.12948 -11.1135,-9.12948 -9.6255,0 -21.1265,8.13748 -21.1265,17.26698"
     id="path1803"
     style="stroke-width:0.992" />
  <path
     class="Note"
     d="m 2626.782,126.9385 c 0,4.2625 3.069,9.02102 11.1135,9.02102 10.3075,0 21.1265,-8.43202 21.1265,-17.15852 0,-5.859 -4.96,-9.12948 -11.1135,-9.12948 -9.6255,0 -21.1265,8.13748 -21.1265,17.26698"
     id="path1805"
     style="stroke-width:0.992" />
  <path
     class="Note"
     d="m 1006.982,126.9385 c 0,4.2625 3.069,9.02102 11.1135,9.02102 10.3075,0 21.1265,-8.43202 21.1265,-17.15852 0,-5.859 -4.96,-9.12948 -11.1135,-9.12948 -9.6255,0 -21.1265,8.13748 -21.1265,17.26698"
     id="path1807"
     style="stroke-width:0.992" />
  <path
     class="Note"
     d="m 1585.772,126.9385 c 0,4.2625 3.069,9.02102 11.1135,9.02102 10.3075,0 21.1265,-8.43202 21.1265,-17.15852 0,-5.859 -4.96,-9.12948 -11.1135,-9.12948 -9.6255,0 -21.1265,8.13748 -21.1265,17.26698"
     id="path1809"
     style="stroke-width:0.992" />
  <path
     class="Note"
     d="m 1084.582,114.5385 c 0,4.2625 3.069,9.02102 11.1135,9.02102 10.3075,0 21.1265,-8.43202 21.1265,-17.15852 0,-5.859 -4.96,-9.129475 -11.1135,-9.129475 -9.6255,0 -21.1265,8.137475 -21.1265,17.266975"
     id="path1811"
     style="stroke-width:0.992" />
  <path
     class="Note"
     d="m 2781.962,126.9385 c 0,4.2625 3.069,9.02102 11.1135,9.02102 10.3075,0 21.1265,-8.43202 21.1265,-17.15852 0,-5.859 -4.96,-9.12948 -11.1135,-9.12948 -9.6255,0 -21.1265,8.13748 -21.1265,17.26698"
     id="path1813"
     style="stroke-width:0.992" />
  <path
     class="Note"
     d="m 1197.632,126.9385 c 0,4.2625 3.069,9.02102 11.1135,9.02102 10.3075,0 21.1265,-8.43202 21.1265,-17.15852 0,-5.859 -4.96,-9.12948 -11.1135,-9.12948 -9.6255,0 -21.1265,8.13748 -21.1265,17.26698"
     id="path1815"
     style="stroke-width:0.992" />
  <path
     class="Note"
     d="m 2859.552,139.3385 c 0,4.2625 3.069,9.02102 11.1135,9.02102 10.3075,0 21.1265,-8.43202 21.1265,-17.15852 0,-5.859 -4.96,-9.12948 -11.1135,-9.12948 -9.6255,0 -21.1265,8.13748 -21.1265,17.26698"
     id="path1817"
     style="stroke-width:0.992" />
  <path
     class="Note"
     d="m 929.392,114.5385 c 0,4.2625 3.069,9.02102 11.11348,9.02102 10.30757,0 21.12652,-8.43202 21.12652,-17.15852 0,-5.859 -4.96,-9.129475 -11.11348,-9.129475 -9.62547,0 -21.12652,8.137475 -21.12652,17.266975"
     id="path1819"
     style="stroke-width:0.992" />
  <path
     class="Note"
     d="m 1275.232,114.5385 c 0,4.2625 3.069,9.02102 11.1135,9.02102 10.3075,0 21.1265,-8.43202 21.1265,-17.15852 0,-5.859 -4.96,-9.129475 -11.1135,-9.129475 -9.6255,0 -21.1265,8.137475 -21.1265,17.266975"
     id="path1821"
     style="stroke-width:0.992" />
  <path
     class="Note"
     d="m 1663.362,139.3385 c 0,4.2625 3.069,9.02102 11.1135,9.02102 10.3075,0 21.1265,-8.43202 21.1265,-17.15852 0,-5.859 -4.96,-9.12948 -11.1135,-9.12948 -9.6255,0 -21.1265,8.13748 -21.1265,17.26698"
     id="path1823"
     style="stroke-width:0.992" />
  <path
     class="Note"
     d="m 3014.912,126.9385 c 0,4.2625 3.069,9.02102 11.1135,9.02102 10.3075,0 21.1265,-8.43202 21.1265,-17.15852 0,-5.859 -4.96,-9.12948 -11.1135,-9.12948 -9.6255,0 -21.1265,8.13748 -21.1265,17.26698"
     id="path1825"
     style="stroke-width:0.992" />
  <path
     class="Note"
     d="m 1818.552,139.3385 c 0,4.2625 3.069,9.02102 11.1135,9.02102 10.3075,0 21.1265,-8.43202 21.1265,-17.15852 0,-5.859 -4.96,-9.12948 -11.1135,-9.12948 -9.6255,0 -21.1265,8.13748 -21.1265,17.26698"
     id="path1827"
     style="stroke-width:0.992" />
  <path
     class="Note"
     d="m 3092.502,139.3385 c 0,4.2625 3.069,9.02102 11.1135,9.02102 10.3075,0 21.1265,-8.43202 21.1265,-17.15852 0,-5.859 -4.96,-9.12948 -11.1135,-9.12948 -9.6255,0 -21.1265,8.13748 -21.1265,17.26698"
     id="path1829"
     style="stroke-width:0.992" />
  <path
     class="Note"
     d="m 198.927,126.9385 c 0,4.2625 3.069,9.02102 11.11348,9.02102 10.30757,0 21.12652,-8.43202 21.12652,-17.15852 0,-5.859 -4.96,-9.12948 -11.11348,-9.12948 -9.62547,0 -21.12652,8.13748 -21.12652,17.26698"
     id="path1831"
     style="stroke-width:0.992" />
  <path
     class="Note"
     d="m 2704.372,114.5385 c 0,4.2625 3.069,9.02102 11.1135,9.02102 10.3075,0 21.1265,-8.43202 21.1265,-17.15852 0,-5.859 -4.96,-9.129475 -11.1135,-9.129475 -9.6255,0 -21.1265,8.137475 -21.1265,17.266975"
     id="path1833"
     style="stroke-width:0.992" />
  <path
     class="Note"
     d="m 1931.602,126.9385 c 0,4.2625 3.069,9.02102 11.1135,9.02102 10.3075,0 21.1265,-8.43202 21.1265,-17.15852 0,-5.859 -4.96,-9.12948 -11.1135,-9.12948 -9.6255,0 -21.1265,8.13748 -21.1265,17.26698"
     id="path1835"
     style="stroke-width:0.992" />
  <path
     class="Note"
     d="m 1352.822,126.9385 c 0,4.2625 3.069,9.02102 11.1135,9.02102 10.3075,0 21.1265,-8.43202 21.1265,-17.15852 0,-5.859 -4.96,-9.12948 -11.1135,-9.12948 -9.6255,0 -21.1265,8.13748 -21.1265,17.26698"
     id="path1837"
     style="stroke-width:0.992" />
  <path
     class="Note"
     d="m 3247.692,164.1385 c 0,4.2625 3.069,9.02102 11.1135,9.02102 10.3075,0 21.1265,-8.43202 21.1265,-17.15852 0,-5.859 -4.96,-9.12948 -11.1135,-9.12948 -9.6255,0 -21.1265,8.13748 -21.1265,17.26698"
     id="path1839"
     style="stroke-width:0.992" />
  <path
     class="Note"
     d="m 2009.202,164.1385 c 0,4.2625 3.069,9.02102 11.1135,9.02102 10.3075,0 21.1265,-8.43202 21.1265,-17.15852 0,-5.859 -4.96,-9.12948 -11.1135,-9.12948 -9.6255,0 -21.1265,8.13748 -21.1265,17.26698"
     id="path1841"
     style="stroke-width:0.992" />
  <path
     class="Note"
     d="m 276.52,114.5385 c 0,4.2625 3.069,9.02102 11.11348,9.02102 10.30757,0 21.12652,-8.43202 21.12652,-17.15852 0,-5.859 -4.96,-9.129475 -11.11348,-9.129475 -9.62547,0 -21.12652,8.137475 -21.12652,17.266975"
     id="path1843"
     style="stroke-width:0.992" />
  <path
     class="Note"
     d="m 2107.9185,122.07152 c -9.6255,0 -21.1265,8.04448 -21.1265,17.26698 0,4.2625 3.069,9.02102 11.1135,9.02102 10.3075,0 21.1265,-8.43202 21.1265,-17.15852 0,-5.859 -4.96,-9.12948 -11.1135,-9.12948 M 2105.237,139.54 c -0.2945,0.186 -7.533,4.154 -11.005,4.154 -3.2705,0 -3.968,-2.666 -3.968,-3.565 0,-4.1695 9.92,-9.021 10.323,-9.2225 0.3875,-0.2015 7.44,-4.1695 11.005,-4.1695 2.387,0 3.968,1.395 3.968,3.565 0,4.278 -10.013,9.0365 -10.323,9.238"
     id="path1845"
     style="stroke-width:0.992" />
  <path
     class="Note"
     d="m 3360.742,176.5385 c 0,4.2625 3.069,9.02102 11.1135,9.02102 10.3075,0 21.1265,-8.43202 21.1265,-17.15852 0,-5.859 -4.96,-9.12948 -11.1135,-9.12948 -9.6255,0 -21.1265,8.13748 -21.1265,17.26698"
     id="path1847"
     style="stroke-width:0.992" />
  <path
     class="Note"
     d="m 354.113,126.9385 c 0,4.2625 3.069,9.02102 11.11348,9.02102 10.30757,0 21.12652,-8.43202 21.12652,-17.15852 0,-5.859 -4.96,-9.12948 -11.11348,-9.12948 -9.62547,0 -21.12652,8.13748 -21.12652,17.26698"
     id="path1849"
     style="stroke-width:0.992" />
  <path
     class="Note"
     d="m 3438.342,164.1385 c 0,4.2625 3.069,9.02102 11.1135,9.02102 10.3075,0 21.1265,-8.43202 21.1265,-17.15852 0,-5.859 -4.96,-9.12948 -11.1135,-9.12948 -9.6255,0 -21.1265,8.13748 -21.1265,17.26698"
     id="path1851"
     style="stroke-width:0.992" />
  <path
     class="Note"
     d="m 2280.942,126.9385 c 0,4.2625 3.069,9.02102 11.1135,9.02102 10.3075,0 21.1265,-8.43202 21.1265,-17.15852 0,-5.859 -4.96,-9.12948 -11.1135,-9.12948 -9.6255,0 -21.1265,8.13748 -21.1265,17.26698"
     id="path1853"
     style="stroke-width:0.992" />
  <path
     class="Note"
     d="m 3537.0585,171.67152 c -9.6255,0 -21.1265,8.04448 -21.1265,17.26698 0,4.2625 3.069,9.02102 11.1135,9.02102 10.3075,0 21.1265,-8.43202 21.1265,-17.15852 0,-5.859 -4.96,-9.12948 -11.1135,-9.12948 M 3534.377,189.14 c -0.2945,0.186 -7.533,4.154 -11.005,4.154 -3.2705,0 -3.968,-2.666 -3.968,-3.565 0,-4.1695 9.92,-9.021 10.323,-9.2225 0.3875,-0.2015 7.44,-4.1695 11.005,-4.1695 2.387,0 3.968,1.395 3.968,3.565 0,4.278 -10.013,9.0365 -10.323,9.238"
     id="path1855"
     style="stroke-width:0.992" />
  <path
     class="Note"
     d="m 3170.092,151.7385 c 0,4.2625 3.069,9.02102 11.1135,9.02102 10.3075,0 21.1265,-8.43202 21.1265,-17.15852 0,-5.859 -4.96,-9.12948 -11.1135,-9.12948 -9.6255,0 -21.1265,8.13748 -21.1265,17.26698"
     id="path1857"
     style="stroke-width:0.992" />
  <path
     class="Clef"
     d="m 74.353475,174.446 c 0,7.0525 -2.88295,14.291 -9.92,17.17405 -2.07695,-11.90405 -4.758425,-27.68305 -5.456,-32.0541 8.928,0 15.376,6.06055 15.376,14.88005 M 60.264,192.79805 c -1.984,0.40295 -3.859475,0.60443 -5.750525,0.60443 -14.182425,0 -26.28797,-9.92 -26.28797,-24.90848 0,-12.09005 8.52502,-22.909 17.26702,-30.45752 1.674,-1.488 3.270525,-2.86748 4.758525,-4.35548 0.883475,5.34748 1.58095,10.01295 2.278425,14.08948 C 43.49305,150.45195 37.35505,159.969 37.35505,169.3 c 0,6.944 5.456,16.461 13.392,16.461 0.790425,0 1.689475,-0.40295 1.689475,-1.28652 0,-0.89896 -0.992,-1.39496 -2.185475,-2.18548 -3.87505,-2.387 -6.060525,-4.96 -6.060525,-9.827 0,-6.045 4.464,-10.91205 10.32295,-12.29152 L 60.264,192.79805 M 51.537475,90.823525 c 0.89905,-3.968 5.456,-14.384 10.617575,-14.384 1.488,0 3.859475,4.851475 3.859475,11.702425 0,10.32305 -7.626,18.05757 -14.47705,24.8 -0.58895,-3.968 -1.08495,-7.82747 -1.08495,-11.99695 0,-3.673475 0.294525,-7.052525 1.08495,-10.121475 m -20.832,132.431995 c 0,6.55653 5.05305,15.19 18.44505,15.19 4.665475,0 8.742,-1.19347 12.30695,-3.37904 C 66.820525,231.30005 68.2,224.74352 68.2,218.497 c 0,-3.85948 -0.58895,-8.32348 -1.58095,-13.98095 -0.294525,-1.984 -0.89905,-4.96 -1.488,-8.83505 9.718425,-3.17748 16.95695,-13.29895 16.95695,-23.5135 0,-14.97302 -10.617475,-25.0945 -25.094525,-25.0945 -0.992,-5.952 -1.984,-11.81105 -2.88295,-17.36 10.524525,-11.02052 17.76295,-23.42052 17.76295,-39.184 0,-9.036525 -2.774425,-16.368 -4.37095,-19.948128 -2.371475,-5.053248 -5.254525,-8.525248 -7.03705,-8.525248 -0.697475,0 -3.766425,1.193376 -7.03695,5.053248 C 47.073475,74.657 45.29105,87.351525 45.29105,95.675 c 0,5.36295 0.496,10.23 2.185475,21.34348 -0.108525,0.093 -5.27,5.34747 -7.34705,7.03704 C 31.09305,132.48752 18.6,144.48448 18.6,164.34 c 0,18.53805 16.166525,33.12352 34.62705,33.12352 2.867475,0 5.54895,-0.29452 7.827475,-0.69747 1.89095,9.53243 2.976,16.47643 2.976,21.73095 0,10.32305 -5.254525,15.77905 -15.267475,15.77905 -2.38705,0 -4.464,-0.496 -4.665575,-0.496 -0.09295,-0.10853 -0.294425,-0.20157 -0.294425,-0.29453 0,-0.20147 0.201475,-0.31 0.496,-0.40304 4.665475,-0.69748 9.315475,-4.66548 9.315475,-11.00496 0,-5.36304 -4.06105,-11.02052 -11.50105,-11.02052 -6.944,0 -11.408,5.65748 -11.408,12.19852"
     id="path1859"
     style="stroke-width:0.992" />
  <path
     class="TimeSig"
     d="m 126.12352,135.37048 v 7.33157 H 117.893 c -0.69748,0 -1.39495,0.60443 -1.39495,1.39495 v 1.89105 c 0,0.79043 0.69747,1.37947 1.39495,1.37947 h 30.05452 c 0.806,0 1.39496,-0.58904 1.39496,-1.37947 V 144.097 c 0,-0.79052 -0.58896,-1.39495 -1.39496,-1.39495 h -8.928 v -7.33157 h 8.928 c 0.806,0 1.39496,-0.69748 1.39496,-1.488 v -1.89098 c 0,-0.6975 -0.58896,-1.3795 -1.39496,-1.3795 h -8.928 v -15.779 c 0,-0.589 -0.29452,-1.085 -0.682,-1.2865 l -1.19347,-0.6045 c -0.20157,-0.093 -0.29453,-0.093 -0.496,-0.093 -0.10853,0 -0.10853,0 -0.20157,0 -0.29443,0 -0.69748,0.093 -0.89896,0.2945 l -9.02104,8.2305 c -0.29443,0.31 -0.40296,0.6975 -0.40296,1.1005 v 8.1375 H 114.6225 c 0,0 11.11355,-11.904 22.81598,-27.59005 0.40304,-0.496 0.496,-0.992 0.496,-1.37947 0,-0.496 -0.20148,-0.89896 -0.29443,-0.992 L 135.45448,98.465 c -0.29443,-0.201475 -0.58896,-0.40305 -0.992,-0.40305 -0.58896,0 -13.99643,0 -14.78696,0 -0.69747,0 -1.19347,0.604525 -1.28652,1.193575 0,0 -0.496,7.346955 -3.069,15.375975 -2.5885,8.0445 -5.5645,13.0045 -8.1375,16.6625 0,0 -0.2945,0.496 -0.2945,1.1005 0,0.2015 0,0.38755 0.093,0.58902 0.2945,0.69748 0.992,1.78253 0.992,1.78253 0,0 0.2015,0.60443 1.085,0.60443 h 17.06552"
     id="path1861"
     style="stroke-width:0.992" />
  <path
     class="TimeSig"
     d="m 126.12352,184.97048 v 7.33157 H 117.893 c -0.69748,0 -1.39495,0.60443 -1.39495,1.39495 v 1.89105 c 0,0.79043 0.69747,1.37947 1.39495,1.37947 h 30.05452 c 0.806,0 1.39496,-0.58904 1.39496,-1.37947 V 193.697 c 0,-0.79052 -0.58896,-1.39495 -1.39496,-1.39495 h -8.928 v -7.33157 h 8.928 c 0.806,0 1.39496,-0.69748 1.39496,-1.488 v -1.89098 c 0,-0.6975 -0.58896,-1.3795 -1.39496,-1.3795 h -8.928 v -15.779 c 0,-0.589 -0.29452,-1.085 -0.682,-1.2865 l -1.19347,-0.6045 c -0.20157,-0.093 -0.29453,-0.093 -0.496,-0.093 -0.10853,0 -0.10853,0 -0.20157,0 -0.29443,0 -0.69748,0.093 -0.89896,0.2945 l -9.02104,8.2305 c -0.29443,0.31 -0.40296,0.6975 -0.40296,1.1005 v 8.1375 H 114.6225 c 0,0 11.11355,-11.904 22.81598,-27.59005 0.40304,-0.496 0.496,-0.992 0.496,-1.37947 0,-0.496 -0.20148,-0.89896 -0.29443,-0.992 l -2.18557,-2.18548 c -0.29443,-0.20148 -0.58896,-0.40305 -0.992,-0.40305 -0.58896,0 -13.99643,0 -14.78696,0 -0.69747,0 -1.19347,0.60453 -1.28652,1.19357 0,0 -0.496,7.34696 -3.069,15.37598 -2.5885,8.0445 -5.5645,13.0045 -8.1375,16.6625 0,0 -0.2945,0.496 -0.2945,1.1005 0,0.2015 0,0.38755 0.093,0.58902 0.2945,0.69748 0.992,1.78253 0.992,1.78253 0,0 0.2015,0.60443 1.085,0.60443 h 17.06552"
     id="path1863"
     style="stroke-width:0.992" />
  <path
     class="Articulation"
     d="m 865.107,88.359 c 1.5965,1.488 3.968,1.488 5.5645,0 1.488,-1.596505 1.488,-3.968 0,-5.456 -1.5965,-1.596505 -3.968,-1.596505 -5.5645,0 -1.488,1.488 -1.488,3.859495 0,5.456"
     id="path1865"
     style="stroke-width:0.992" />
  <path
     class="Articulation"
     d="m 2795.267,88.359 c 1.5965,1.488 3.968,1.488 5.5645,0 1.488,-1.596505 1.488,-3.968 0,-5.456 -1.5965,-1.596505 -3.968,-1.596505 -5.5645,0 -1.488,1.488 -1.488,3.859495 0,5.456"
     id="path1867"
     style="stroke-width:0.992" />
  <path
     class="Articulation"
     d="m 942.697,86.228 c 1.5965,1.488 3.968,1.488 5.5645,0 1.488,-1.596505 1.488,-3.968 0,-5.456 -1.5965,-1.596505 -3.968,-1.596505 -5.5645,0 -1.488,1.488 -1.488,3.859495 0,5.456"
     id="path1869"
     style="stroke-width:0.992" />
  <path
     class="Articulation"
     d="m 1020.297,88.359 c 1.5965,1.488 3.968,1.488 5.5645,0 1.488,-1.596505 1.488,-3.968 0,-5.456 -1.5965,-1.596505 -3.968,-1.596505 -5.5645,0 -1.488,1.488 -1.488,3.859495 0,5.456"
     id="path1871"
     style="stroke-width:0.992" />
  <path
     class="Articulation"
     d="m 1097.887,86.228 c 1.5965,1.488 3.968,1.488 5.5645,0 1.488,-1.596505 1.488,-3.968 0,-5.456 -1.5965,-1.596505 -3.968,-1.596505 -5.5645,0 -1.488,1.488 -1.488,3.859495 0,5.456"
     id="path1873"
     style="stroke-width:0.992" />
  <path
     class="Articulation"
     d="m 1210.947,88.359 c 1.5965,1.488 3.968,1.488 5.5645,0 1.488,-1.596505 1.488,-3.968 0,-5.456 -1.5965,-1.596505 -3.968,-1.596505 -5.5645,0 -1.488,1.488 -1.488,3.859495 0,5.456"
     id="path1875"
     style="stroke-width:0.992" />
  <path
     class="Articulation"
     d="m 1288.537,86.228 c 1.5965,1.488 3.968,1.488 5.5645,0 1.488,-1.596505 1.488,-3.968 0,-5.456 -1.5965,-1.596505 -3.968,-1.596505 -5.5645,0 -1.488,1.488 -1.488,3.859495 0,5.456"
     id="path1877"
     style="stroke-width:0.992" />
  <path
     class="Articulation"
     d="m 2294.247,88.359 c 1.5965,1.488 3.968,1.488 5.5645,0 1.488,-1.596505 1.488,-3.968 0,-5.456 -1.5965,-1.596505 -3.968,-1.596505 -5.5645,0 -1.488,1.488 -1.488,3.859495 0,5.456"
     id="path1879"
     style="stroke-width:0.992" />
  <path
     class="Articulation"
     d="m 3028.217,88.359 c 1.5965,1.488 3.968,1.488 5.5645,0 1.488,-1.596505 1.488,-3.968 0,-5.456 -1.5965,-1.596505 -3.968,-1.596505 -5.5645,0 -1.488,1.488 -1.488,3.859495 0,5.456"
     id="path1881"
     style="stroke-width:0.992" />
  <path
     class="Articulation"
     d="m 1366.127,88.359 c 1.5965,1.488 3.968,1.488 5.5645,0 1.488,-1.596505 1.488,-3.968 0,-5.456 -1.5965,-1.596505 -3.968,-1.596505 -5.5645,0 -1.488,1.488 -1.488,3.859495 0,5.456"
     id="path1883"
     style="stroke-width:0.992" />
  <path
     class="Articulation"
     d="m 1831.857,113.159 c 1.5965,1.488 3.968,1.488 5.5645,0 1.488,-1.5965 1.488,-3.968 0,-5.456 -1.5965,-1.5965 -3.968,-1.5965 -5.5645,0 -1.488,1.488 -1.488,3.8595 0,5.456"
     id="path1885"
     style="stroke-width:0.992" />
  <path
     class="Articulation"
     d="m 3105.807,113.159 c 1.5965,1.488 3.968,1.488 5.5645,0 1.488,-1.5965 1.488,-3.968 0,-5.456 -1.5965,-1.5965 -3.968,-1.5965 -5.5645,0 -1.488,1.488 -1.488,3.8595 0,5.456"
     id="path1887"
     style="stroke-width:0.992" />
  <path
     class="Articulation"
     d="m 2371.837,86.228 c 1.5965,1.488 3.968,1.488 5.5645,0 1.488,-1.596505 1.488,-3.968 0,-5.456 -1.5965,-1.596505 -3.968,-1.596505 -5.5645,0 -1.488,1.488 -1.488,3.859495 0,5.456"
     id="path1889"
     style="stroke-width:0.992" />
  <path
     class="Articulation"
     d="m 1599.077,88.359 c 1.5965,1.488 3.968,1.488 5.5645,0 1.488,-1.596505 1.488,-3.968 0,-5.456 -1.5965,-1.596505 -3.968,-1.596505 -5.5645,0 -1.488,1.488 -1.488,3.859495 0,5.456"
     id="path1891"
     style="stroke-width:0.992" />
  <path
     class="Articulation"
     d="m 3183.407,113.159 c 1.5965,1.488 3.968,1.488 5.5645,0 1.488,-1.5965 1.488,-3.968 0,-5.456 -1.5965,-1.5965 -3.968,-1.5965 -5.5645,0 -1.488,1.488 -1.488,3.8595 0,5.456"
     id="path1893"
     style="stroke-width:0.992" />
  <path
     class="Articulation"
     d="m 1676.667,113.159 c 1.5965,1.488 3.968,1.488 5.5645,0 1.488,-1.5965 1.488,-3.968 0,-5.456 -1.5965,-1.5965 -3.968,-1.5965 -5.5645,0 -1.488,1.488 -1.488,3.8595 0,5.456"
     id="path1895"
     style="stroke-width:0.992" />
  <path
     class="Articulation"
     d="m 2449.437,88.359 c 1.5965,1.488 3.968,1.488 5.5645,0 1.488,-1.596505 1.488,-3.968 0,-5.456 -1.5965,-1.596505 -3.968,-1.596505 -5.5645,0 -1.488,1.488 -1.488,3.859495 0,5.456"
     id="path1897"
     style="stroke-width:0.992" />
  <path
     class="Articulation"
     d="m 1754.257,88.359 c 1.5965,1.488 3.968,1.488 5.5645,0 1.488,-1.596505 1.488,-3.968 0,-5.456 -1.5965,-1.596505 -3.968,-1.596505 -5.5645,0 -1.488,1.488 -1.488,3.859495 0,5.456"
     id="path1899"
     style="stroke-width:0.992" />
  <path
     class="Articulation"
     d="m 3260.997,187.5365 c 1.5965,1.488 3.968,1.488 5.5645,0 1.488,-1.5965 1.488,-3.968 0,-5.456 -1.5965,-1.5965 -3.968,-1.5965 -5.5645,0 -1.488,1.488 -1.488,3.8595 0,5.456"
     id="path1901"
     style="stroke-width:0.992" />
  <path
     class="Articulation"
     d="m 445.012,86.228 c 1.5965,1.488 3.968,1.488 5.5645,0 1.488,-1.596505 1.488,-3.968 0,-5.456 -1.5965,-1.596505 -3.968,-1.596505 -5.5645,0 -1.488,1.488 -1.488,3.859495 0,5.456"
     id="path1903"
     style="stroke-width:0.992" />
  <path
     class="Articulation"
     d="m 2527.027,86.228 c 1.5965,1.488 3.968,1.488 5.5645,0 1.488,-1.596505 1.488,-3.968 0,-5.456 -1.5965,-1.596505 -3.968,-1.596505 -5.5645,0 -1.488,1.488 -1.488,3.859495 0,5.456"
     id="path1905"
     style="stroke-width:0.992" />
  <path
     class="Articulation"
     d="m 212.234,88.359 c 1.5965,1.488 3.968,1.488 5.5645,0 1.488,-1.596505 1.488,-3.968 0,-5.456 -1.5965,-1.596505 -3.968,-1.596505 -5.5645,0 -1.488,1.488 -1.488,3.859495 0,5.456"
     id="path1907"
     style="stroke-width:0.992" />
  <path
     class="Articulation"
     d="m 289.827,86.228 c 1.5965,1.488 3.968,1.488 5.5645,0 1.488,-1.596505 1.488,-3.968 0,-5.456 -1.5965,-1.596505 -3.968,-1.596505 -5.5645,0 -1.488,1.488 -1.488,3.859495 0,5.456"
     id="path1909"
     style="stroke-width:0.992" />
  <path
     class="Articulation"
     d="m 3374.057,212.3365 c 1.5965,1.488 3.968,1.488 5.5645,0 1.488,-1.5965 1.488,-3.968 0,-5.456 -1.5965,-1.5965 -3.968,-1.5965 -5.5645,0 -1.488,1.488 -1.488,3.8595 0,5.456"
     id="path1911"
     style="stroke-width:0.992" />
  <path
     class="Articulation"
     d="m 367.42,88.359 c 1.5965,1.488 3.968,1.488 5.5645,0 1.488,-1.596505 1.488,-3.968 0,-5.456 -1.5965,-1.596505 -3.968,-1.596505 -5.5645,0 -1.488,1.488 -1.488,3.859495 0,5.456"
     id="path1913"
     style="stroke-width:0.992" />
  <path
     class="Articulation"
     d="m 1944.907,88.359 c 1.5965,1.488 3.968,1.488 5.5645,0 1.488,-1.596505 1.488,-3.968 0,-5.456 -1.5965,-1.596505 -3.968,-1.596505 -5.5645,0 -1.488,1.488 -1.488,3.859495 0,5.456"
     id="path1915"
     style="stroke-width:0.992" />
  <path
     class="Articulation"
     d="m 3451.647,187.5365 c 1.5965,1.488 3.968,1.488 5.5645,0 1.488,-1.5965 1.488,-3.968 0,-5.456 -1.5965,-1.5965 -3.968,-1.5965 -5.5645,0 -1.488,1.488 -1.488,3.8595 0,5.456"
     id="path1917"
     style="stroke-width:0.992" />
  <path
     class="Articulation"
     d="m 2640.087,88.359 c 1.5965,1.488 3.968,1.488 5.5645,0 1.488,-1.596505 1.488,-3.968 0,-5.456 -1.5965,-1.596505 -3.968,-1.596505 -5.5645,0 -1.488,1.488 -1.488,3.859495 0,5.456"
     id="path1919"
     style="stroke-width:0.992" />
  <path
     class="Articulation"
     d="m 558.069,88.359 c 1.5965,1.488 3.968,1.488 5.5645,0 1.488,-1.596505 1.488,-3.968 0,-5.456 -1.5965,-1.596505 -3.968,-1.596505 -5.5645,0 -1.488,1.488 -1.488,3.859495 0,5.456"
     id="path1921"
     style="stroke-width:0.992" />
  <path
     class="Articulation"
     d="m 635.662,49.028 c 1.5965,1.488 3.968,1.488 5.5645,0 1.488,-1.596505 1.488,-3.968 0,-5.456 -1.5965,-1.596505 -3.968,-1.596505 -5.5645,0 -1.488,1.488 -1.488,3.859495 0,5.456"
     id="path1923"
     style="stroke-width:0.992" />
  <path
     class="Articulation"
     d="m 2717.677,86.228 c 1.5965,1.488 3.968,1.488 5.5645,0 1.488,-1.596505 1.488,-3.968 0,-5.456 -1.5965,-1.596505 -3.968,-1.596505 -5.5645,0 -1.488,1.488 -1.488,3.859495 0,5.456"
     id="path1925"
     style="stroke-width:0.992" />
  <path
     class="Articulation"
     d="m 2022.507,187.5365 c 1.5965,1.488 3.968,1.488 5.5645,0 1.488,-1.5965 1.488,-3.968 0,-5.456 -1.5965,-1.5965 -3.968,-1.5965 -5.5645,0 -1.488,1.488 -1.488,3.8595 0,5.456"
     id="path1927"
     style="stroke-width:0.992" />
  <path
     class="VoltaSegment"
     d="m 850.722,16.988 h -1.92 c -3.47,2.594 -7.38,3.687 -13.92,3.797 v 3.078 h 2.31 c 4.89,0 4.95,0.109 4.89,4.625 v 19.516 c 0,3.406 0,3.578 -0.37,4.125 -0.5,0.609 -1.61,0.828 -4.58,0.828 h -1.75 v 2.968 h 21.93 v -2.968 h -1.76 c -2.91,0 -3.95,-0.219 -4.45,-0.828 -0.38,-0.547 -0.38,-0.766 -0.38,-4.125 V 16.988 m 19.24,29.422 c -2.86,0 -5.18,2.312 -5.18,5.172 0,2.797 2.32,5.172 5.13,5.172 2.9,0 5.22,-2.313 5.22,-5.172 0,-2.86 -2.32,-5.172 -5.17,-5.172"
     id="path1929" />
  <polyline
     class="VoltaSegment"
     fill="none"
     stroke="#000000"
     stroke-width="2.73"
     stroke-linejoin="miter"
     stroke-miterlimit="2"
     points="1156.03,592.154 1156.03,537.594 1865.45,537.594 1865.45,592.154"
     id="polyline1931"
     transform="translate(-336.598,-536.229)" />
  <path
     class="VoltaSegment"
     d="m 1593.522,41.3 -0.61,2.75 c -0.5,2.204 -0.83,2.907 -1.27,3.188 -0.54,0.391 -0.65,0.391 -4.12,0.437 h -10.61 c 1.92,-1.656 3.36,-2.687 5.5,-4.125 7.75,-5 9.34,-6.218 10.94,-8.25 1.87,-2.468 2.96,-5.39 2.96,-7.968 0,-5.891 -5.76,-10.344 -13.51,-10.344 -7.49,0 -13.27,4.844 -13.27,11.109 0,3.844 2.16,6.328 5.46,6.328 2.86,0 4.67,-1.812 4.67,-4.671 0,-2.375 -1.05,-3.75 -3.58,-4.954 -0.61,-0.281 -0.87,-0.609 -0.87,-1.046 0,-1.766 2.96,-3.625 5.71,-3.625 3.85,0 6.05,2.359 6.05,6.437 0,4.563 -1.76,7.797 -7.59,14.016 -6.16,6.547 -8.3,9.015 -11.05,12.984 v 2.578 c 1.42,-0.156 2.03,-0.219 2.86,-0.219 h 20.67 c 1.05,0 1.7,0.063 3.36,0.219 l 1.27,-14.844 h -2.97 m 13.4,5.11 c -2.86,0 -5.17,2.312 -5.17,5.172 0,2.797 2.31,5.172 5.13,5.172 2.9,0 5.22,-2.313 5.22,-5.172 0,-2.86 -2.32,-5.172 -5.18,-5.172"
     id="path1933" />
  <polyline
     class="VoltaSegment"
     fill="none"
     stroke="#000000"
     stroke-width="2.73"
     stroke-linejoin="miter"
     stroke-miterlimit="2"
     points="1890,592.154 1890,537.594 2560.62,537.594"
     id="polyline1935"
     transform="translate(-336.598,-536.229)" />
  <path
     class="VoltaSegment"
     d="m 2281.752,35.691 c 4.69,-1.219 8.86,-3.297 8.86,-8.969 0,-5.828 -5.17,-9.734 -12.98,-9.734 -4.02,0 -7.25,1.047 -9.56,3.078 -1.82,1.594 -2.93,3.906 -2.93,6 0,2.859 2.16,5 4.96,5 2.64,0 4.45,-1.75 4.45,-4.344 0,-1.484 -0.59,-2.64 -2.14,-4.125 -0.28,-0.265 -0.39,-0.437 -0.39,-0.656 0,-1.047 2.05,-2.094 4.19,-2.094 3.47,0 5.5,2.532 5.5,6.828 0,4.782 -1.6,7.688 -4.3,7.688 -0.44,0 -0.98,-0.047 -1.86,-0.266 -1.22,-0.281 -1.59,-0.328 -2.2,-0.328 -1.38,0 -2.03,0.594 -2.03,1.813 0,1.265 0.81,2.093 1.96,2.093 0.4,0 0.72,-0.062 1.66,-0.171 1.27,-0.11 1.59,-0.172 1.99,-0.172 3.4,0 5.1,2.64 5.1,7.812 0,5.563 -2.31,8.688 -6.37,8.688 -2.31,0 -4.73,-1.157 -4.73,-2.313 0,-0.328 0.17,-0.656 0.5,-0.984 1.64,-1.531 2.03,-2.25 2.03,-3.844 0,-2.594 -2.03,-4.562 -4.74,-4.562 -2.97,0 -4.95,2.14 -4.95,5.218 0,5.547 5.39,9.344 13.31,9.344 7.27,0 14.52,-3.016 14.52,-11.375 0,-3.469 -1.53,-6.5 -4.07,-7.984 -1.59,-0.875 -2.85,-1.266 -5.78,-1.641 m 20.35,10.719 c -2.86,0 -5.17,2.312 -5.17,5.172 0,2.797 2.31,5.172 5.12,5.172 2.91,0 5.22,-2.313 5.22,-5.172 0,-2.86 -2.31,-5.172 -5.17,-5.172"
     id="path1937" />
  <polyline
     class="VoltaSegment"
     fill="none"
     stroke="#000000"
     stroke-width="2.73"
     stroke-linejoin="miter"
     stroke-miterlimit="2"
     points="2585.18,592.154 2585.18,537.594 3294.59,537.594 3294.59,592.154"
     id="polyline1939"
     transform="translate(-336.598,-536.229)" />
</svg>
