<?xml version="1.0" encoding="UTF-8" standalone="no"?>
<svg
   xmlns:dc="http://purl.org/dc/elements/1.1/"
   xmlns:cc="http://creativecommons.org/ns#"
   xmlns:rdf="http://www.w3.org/1999/02/22-rdf-syntax-ns#"
   xmlns:svg="http://www.w3.org/2000/svg"
   xmlns="http://www.w3.org/2000/svg"
   xmlns:sodipodi="http://sodipodi.sourceforge.net/DTD/sodipodi-0.dtd"
   xmlns:inkscape="http://www.inkscape.org/namespaces/inkscape"
   width="3677.4021"
   height="164.61301"
   viewBox="0 0 3677.4022 164.61301"
   version="1.2"
   id="svg1621"
   sodipodi:docname="Dossium Canto Kijkdoos Musica.svg"
   inkscape:version="1.0.2-2 (e86c870879, 2021-01-15)">
  <metadata
     id="metadata1627">
    <rdf:RDF>
      <cc:Work
         rdf:about="">
        <dc:format>image/svg+xml</dc:format>
        <dc:type
           rdf:resource="http://purl.org/dc/dcmitype/StillImage" />
      </cc:Work>
    </rdf:RDF>
  </metadata>
  <defs
     id="defs1625" />
  <sodipodi:namedview
     pagecolor="#ffffff"
     bordercolor="#666666"
     borderopacity="1"
     objecttolerance="10"
     gridtolerance="10"
     guidetolerance="10"
     inkscape:pageopacity="0"
     inkscape:pageshadow="2"
     inkscape:window-width="1920"
     inkscape:window-height="991"
     id="namedview1623"
     showgrid="false"
     inkscape:zoom="0.25330292"
     inkscape:cx="1785.402"
     inkscape:cy="891.57198"
     inkscape:window-x="-9"
     inkscape:window-y="-9"
     inkscape:window-maximized="1"
     inkscape:current-layer="svg1621" />
  <title
     id="title1231">Dossium Canto Kijkdoos Musica</title>
  <desc
     id="desc1233">Generated by MuseScore Studio 4.4.4</desc>
  <polyline
     class="StaffLines"
     fill="none"
     stroke="#000000"
     stroke-width="2.34"
     stroke-linejoin="bevel"
     points="318.798,634.198 3996.2,634.198"
     id="polyline1235"
     transform="translate(-318.798,-597.028)" />
  <polyline
     class="StaffLines"
     fill="none"
     stroke="#000000"
     stroke-width="2.34"
     stroke-linejoin="bevel"
     points="318.798,655.438 3996.2,655.438"
     id="polyline1237"
     transform="translate(-318.798,-597.028)" />
  <polyline
     class="StaffLines"
     fill="none"
     stroke="#000000"
     stroke-width="2.34"
     stroke-linejoin="bevel"
     points="318.798,676.678 3996.2,676.678"
     id="polyline1239"
     transform="translate(-318.798,-597.028)" />
  <polyline
     class="StaffLines"
     fill="none"
     stroke="#000000"
     stroke-width="2.34"
     stroke-linejoin="bevel"
     points="318.798,697.918 3996.2,697.918"
     id="polyline1241"
     transform="translate(-318.798,-597.028)" />
  <polyline
     class="StaffLines"
     fill="none"
     stroke="#000000"
     stroke-width="2.34"
     stroke-linejoin="bevel"
     points="318.798,719.158 3996.2,719.158"
     id="polyline1243"
     transform="translate(-318.798,-597.028)" />
  <path
     class="BarLine"
     d="m 3238.8132,69.03 c 0,-2.46915 -1.9647,-4.500229 -4.4206,-4.500229 -2.4692,0 -4.4206,2.031079 -4.4206,4.500229 0,2.46915 1.9514,4.500229 4.4206,4.500229 2.4559,0 4.4206,-2.031079 4.4206,-4.500229"
     id="path1253"
     style="stroke-width:0.8496" />
  <path
     class="BarLine"
     d="m 3238.8132,90.27 c 0,-2.46915 -1.9647,-4.500229 -4.4206,-4.500229 -2.4692,0 -4.4206,2.031079 -4.4206,4.500229 0,2.46915 1.9514,4.500229 4.4206,4.500229 2.4559,0 4.4206,-2.031079 4.4206,-4.500229"
     id="path1255"
     style="stroke-width:0.8496" />
  <polyline
     class="BarLine"
     fill="none"
     stroke="#000000"
     stroke-width="3.82"
     stroke-linejoin="bevel"
     points="3567.36,633.03 3567.36,720.327"
     id="polyline1257"
     transform="translate(-318.798,-597.028)" />
  <polyline
     class="BarLine"
     fill="none"
     stroke="#000000"
     stroke-width="11.68"
     stroke-linejoin="bevel"
     points="3582.98,633.03 3582.98,720.327"
     id="polyline1259"
     transform="translate(-318.798,-597.028)" />
  <polyline
     class="BarLine"
     fill="none"
     stroke="#000000"
     stroke-width="3.82"
     stroke-linejoin="bevel"
     points="1794.87,633.03 1794.87,720.327"
     id="polyline1261"
     transform="translate(-318.798,-597.028)" />
  <polyline
     class="BarLine"
     fill="none"
     stroke="#000000"
     stroke-width="3.82"
     stroke-linejoin="bevel"
     points="932.681,633.03 932.681,720.327"
     id="polyline1263"
     transform="translate(-318.798,-597.028)" />
  <polyline
     class="BarLine"
     fill="none"
     stroke="#000000"
     stroke-width="3.82"
     stroke-linejoin="bevel"
     points="2693.29,633.03 2693.29,720.327"
     id="polyline1265"
     transform="translate(-318.798,-597.028)" />
  <polyline
     class="BarLine"
     fill="none"
     stroke="#000000"
     stroke-width="3.82"
     stroke-linejoin="bevel"
     points="3121.98,633.03 3121.98,720.327"
     id="polyline1267"
     transform="translate(-318.798,-597.028)" />
  <polyline
     class="BarLine"
     fill="none"
     stroke="#000000"
     stroke-width="3.82"
     stroke-linejoin="bevel"
     points="1361.38,633.03 1361.38,720.327"
     id="polyline1269"
     transform="translate(-318.798,-597.028)" />
  <path
     class="BarLine"
     d="m 1916.4932,69.03 c 0,-2.46915 -1.9648,-4.500229 -4.4206,-4.500229 -2.4692,0 -4.4206,2.031079 -4.4206,4.500229 0,2.46915 1.9514,4.500229 4.4206,4.500229 2.4558,0 4.4206,-2.031079 4.4206,-4.500229"
     id="path1271"
     style="stroke-width:0.8496" />
  <path
     class="BarLine"
     d="m 1916.4932,90.27 c 0,-2.46915 -1.9648,-4.500229 -4.4206,-4.500229 -2.4692,0 -4.4206,2.031079 -4.4206,4.500229 0,2.46915 1.9514,4.500229 4.4206,4.500229 2.4558,0 4.4206,-2.031079 4.4206,-4.500229"
     id="path1273"
     style="stroke-width:0.8496" />
  <polyline
     class="BarLine"
     fill="none"
     stroke="#000000"
     stroke-width="3.82"
     stroke-linejoin="bevel"
     points="2245.05,633.03 2245.05,720.327"
     id="polyline1275"
     transform="translate(-318.798,-597.028)" />
  <polyline
     class="BarLine"
     fill="none"
     stroke="#000000"
     stroke-width="11.68"
     stroke-linejoin="bevel"
     points="2260.66,633.03 2260.66,720.327"
     id="polyline1277"
     transform="translate(-318.798,-597.028)" />
  <polyline
     class="BarLine"
     fill="none"
     stroke="#000000"
     stroke-width="3.82"
     stroke-linejoin="bevel"
     points="3974.75,633.03 3974.75,720.327"
     id="polyline1279"
     transform="translate(-318.798,-597.028)" />
  <polyline
     class="BarLine"
     fill="none"
     stroke="#000000"
     stroke-width="11.68"
     stroke-linejoin="bevel"
     points="3990.36,633.03 3990.36,720.327"
     id="polyline1281"
     transform="translate(-318.798,-597.028)" />
  <polyline
     class="LedgerLine"
     fill="none"
     stroke="#000000"
     stroke-width="3.4"
     stroke-linejoin="bevel"
     points="3480.48,740.398 3522.09,740.398"
     id="polyline1285"
     transform="translate(-318.798,-597.028)" />
  <polyline
     class="LedgerLine"
     fill="none"
     stroke="#000000"
     stroke-width="3.4"
     stroke-linejoin="bevel"
     points="3050.61,758.198 3092.22,758.198"
     id="polyline1287"
     transform="translate(-318.798,-597.028)" />
  <polyline
     class="Stem"
     fill="none"
     stroke="#000000"
     stroke-width="2.12"
     stroke-linejoin="bevel"
     points="2043.67,680.247 2043.67,740.398"
     id="polyline1289"
     transform="translate(-318.798,-597.028)" />
  <polyline
     class="Stem"
     fill="none"
     stroke="#000000"
     stroke-width="2.12"
     stroke-linejoin="bevel"
     points="2084.53,669.627 2084.53,740.398"
     id="polyline1291"
     transform="translate(-318.798,-597.028)" />
  <polyline
     class="Stem"
     fill="none"
     stroke="#000000"
     stroke-width="2.12"
     stroke-linejoin="bevel"
     points="2125.38,659.007 2125.38,740.398"
     id="polyline1293"
     transform="translate(-318.798,-597.028)" />
  <polyline
     class="Stem"
     fill="none"
     stroke="#000000"
     stroke-width="2.12"
     stroke-linejoin="bevel"
     points="3514.02,737 3514.02,618.268"
     id="polyline1295"
     transform="translate(-318.798,-597.028)" />
  <polyline
     class="Stem"
     fill="none"
     stroke="#000000"
     stroke-width="2.12"
     stroke-linejoin="bevel"
     points="558.984,715.76 558.984,644.818"
     id="polyline1297"
     transform="translate(-318.798,-597.028)" />
  <polyline
     class="Stem"
     fill="none"
     stroke="#000000"
     stroke-width="2.12"
     stroke-linejoin="bevel"
     points="2166.23,648.387 2166.23,740.398"
     id="polyline1299"
     transform="translate(-318.798,-597.028)" />
  <polyline
     class="Stem"
     fill="none"
     stroke="#000000"
     stroke-width="2.12"
     stroke-linejoin="bevel"
     points="650.905,715.76 650.905,639.377"
     id="polyline1301"
     transform="translate(-318.798,-597.028)" />
  <polyline
     class="Stem"
     fill="none"
     stroke="#000000"
     stroke-width="2.12"
     stroke-linejoin="bevel"
     points="2294.12,648.387 2294.12,719.158"
     id="polyline1303"
     transform="translate(-318.798,-597.028)" />
  <polyline
     class="Stem"
     fill="none"
     stroke="#000000"
     stroke-width="2.12"
     stroke-linejoin="bevel"
     points="2386.04,659.007 2386.04,729.91"
     id="polyline1305"
     transform="translate(-318.798,-597.028)" />
  <polyline
     class="Stem"
     fill="none"
     stroke="#000000"
     stroke-width="2.12"
     stroke-linejoin="bevel"
     points="691.758,705.14 691.758,634.33"
     id="polyline1307"
     transform="translate(-318.798,-597.028)" />
  <polyline
     class="Stem"
     fill="none"
     stroke="#000000"
     stroke-width="2.12"
     stroke-linejoin="bevel"
     points="2426.89,669.627 2426.89,734.957"
     id="polyline1309"
     transform="translate(-318.798,-597.028)" />
  <polyline
     class="Stem"
     fill="none"
     stroke="#000000"
     stroke-width="2.12"
     stroke-linejoin="bevel"
     points="732.612,694.52 732.612,618.268"
     id="polyline1311"
     transform="translate(-318.798,-597.028)" />
  <polyline
     class="Stem"
     fill="none"
     stroke="#000000"
     stroke-width="2.12"
     stroke-linejoin="bevel"
     points="2493.22,673.28 2493.22,602.338"
     id="polyline1313"
     transform="translate(-318.798,-597.028)" />
  <polyline
     class="Stem"
     fill="none"
     stroke="#000000"
     stroke-width="2.12"
     stroke-linejoin="bevel"
     points="2534.07,662.66 2534.07,602.338"
     id="polyline1315"
     transform="translate(-318.798,-597.028)" />
  <polyline
     class="Stem"
     fill="none"
     stroke="#000000"
     stroke-width="2.12"
     stroke-linejoin="bevel"
     points="773.465,705.14 773.465,618.268"
     id="polyline1317"
     transform="translate(-318.798,-597.028)" />
  <polyline
     class="Stem"
     fill="none"
     stroke="#000000"
     stroke-width="2.12"
     stroke-linejoin="bevel"
     points="2574.92,673.28 2574.92,602.338"
     id="polyline1319"
     transform="translate(-318.798,-597.028)" />
  <polyline
     class="Stem"
     fill="none"
     stroke="#000000"
     stroke-width="2.12"
     stroke-linejoin="bevel"
     points="814.319,694.52 814.319,618.268"
     id="polyline1321"
     transform="translate(-318.798,-597.028)" />
  <polyline
     class="Stem"
     fill="none"
     stroke="#000000"
     stroke-width="2.12"
     stroke-linejoin="bevel"
     points="2615.78,683.9 2615.78,602.338"
     id="polyline1323"
     transform="translate(-318.798,-597.028)" />
  <polyline
     class="Stem"
     fill="none"
     stroke="#000000"
     stroke-width="2.12"
     stroke-linejoin="bevel"
     points="855.172,683.9 855.172,618.268"
     id="polyline1325"
     transform="translate(-318.798,-597.028)" />
  <polyline
     class="Stem"
     fill="none"
     stroke="#000000"
     stroke-width="2.12"
     stroke-linejoin="bevel"
     points="2656.63,715.76 2656.63,602.338"
     id="polyline1327"
     transform="translate(-318.798,-597.028)" />
  <polyline
     class="Stem"
     fill="none"
     stroke="#000000"
     stroke-width="2.12"
     stroke-linejoin="bevel"
     points="896.026,715.76 896.026,618.268"
     id="polyline1329"
     transform="translate(-318.798,-597.028)" />
  <polyline
     class="Stem"
     fill="none"
     stroke="#000000"
     stroke-width="2.12"
     stroke-linejoin="bevel"
     points="2722.81,659.007 2722.81,729.778"
     id="polyline1331"
     transform="translate(-318.798,-597.028)" />
  <polyline
     class="Stem"
     fill="none"
     stroke="#000000"
     stroke-width="2.12"
     stroke-linejoin="bevel"
     points="2814.73,669.627 2814.73,735.22"
     id="polyline1333"
     transform="translate(-318.798,-597.028)" />
  <polyline
     class="Stem"
     fill="none"
     stroke="#000000"
     stroke-width="2.12"
     stroke-linejoin="bevel"
     points="987.679,715.76 987.679,644.818"
     id="polyline1335"
     transform="translate(-318.798,-597.028)" />
  <polyline
     class="Stem"
     fill="none"
     stroke="#000000"
     stroke-width="2.12"
     stroke-linejoin="bevel"
     points="2855.58,680.247 2855.58,740.267"
     id="polyline1337"
     transform="translate(-318.798,-597.028)" />
  <polyline
     class="Stem"
     fill="none"
     stroke="#000000"
     stroke-width="2.12"
     stroke-linejoin="bevel"
     points="1079.6,715.76 1079.6,639.377"
     id="polyline1339"
     transform="translate(-318.798,-597.028)" />
  <polyline
     class="Stem"
     fill="none"
     stroke="#000000"
     stroke-width="2.12"
     stroke-linejoin="bevel"
     points="2921.91,683.9 2921.91,612.958"
     id="polyline1341"
     transform="translate(-318.798,-597.028)" />
  <polyline
     class="Stem"
     fill="none"
     stroke="#000000"
     stroke-width="2.12"
     stroke-linejoin="bevel"
     points="2962.77,673.28 2962.77,612.958"
     id="polyline1343"
     transform="translate(-318.798,-597.028)" />
  <polyline
     class="Stem"
     fill="none"
     stroke="#000000"
     stroke-width="2.12"
     stroke-linejoin="bevel"
     points="1120.45,705.14 1120.45,634.33"
     id="polyline1345"
     transform="translate(-318.798,-597.028)" />
  <polyline
     class="Stem"
     fill="none"
     stroke="#000000"
     stroke-width="2.12"
     stroke-linejoin="bevel"
     points="3003.62,683.9 3003.62,612.958"
     id="polyline1347"
     transform="translate(-318.798,-597.028)" />
  <polyline
     class="Stem"
     fill="none"
     stroke="#000000"
     stroke-width="2.12"
     stroke-linejoin="bevel"
     points="1161.31,694.52 1161.31,623.544"
     id="polyline1349"
     transform="translate(-318.798,-597.028)" />
  <polyline
     class="Stem"
     fill="none"
     stroke="#000000"
     stroke-width="2.12"
     stroke-linejoin="bevel"
     points="3044.47,694.52 3044.47,612.958"
     id="polyline1351"
     transform="translate(-318.798,-597.028)" />
  <polyline
     class="Stem"
     fill="none"
     stroke="#000000"
     stroke-width="2.12"
     stroke-linejoin="bevel"
     points="3085.33,726.38 3085.33,612.958"
     id="polyline1353"
     transform="translate(-318.798,-597.028)" />
  <polyline
     class="Stem"
     fill="none"
     stroke="#000000"
     stroke-width="2.12"
     stroke-linejoin="bevel"
     points="1202.16,705.14 1202.16,622.234"
     id="polyline1355"
     transform="translate(-318.798,-597.028)" />
  <polyline
     class="Stem"
     fill="none"
     stroke="#000000"
     stroke-width="2.12"
     stroke-linejoin="bevel"
     points="3151.51,669.627 3151.51,735.088"
     id="polyline1357"
     transform="translate(-318.798,-597.028)" />
  <polyline
     class="Stem"
     fill="none"
     stroke="#000000"
     stroke-width="2.12"
     stroke-linejoin="bevel"
     points="1243.01,694.52 1243.01,620.923"
     id="polyline1359"
     transform="translate(-318.798,-597.028)" />
  <polyline
     class="Stem"
     fill="none"
     stroke="#000000"
     stroke-width="2.12"
     stroke-linejoin="bevel"
     points="3268.9,673.28 3268.9,613.09"
     id="polyline1361"
     transform="translate(-318.798,-597.028)" />
  <polyline
     class="Stem"
     fill="none"
     stroke="#000000"
     stroke-width="2.12"
     stroke-linejoin="bevel"
     points="1283.87,683.9 1283.87,619.613"
     id="polyline1363"
     transform="translate(-318.798,-597.028)" />
  <polyline
     class="Stem"
     fill="none"
     stroke="#000000"
     stroke-width="2.12"
     stroke-linejoin="bevel"
     points="3309.75,683.9 3309.75,618.137"
     id="polyline1365"
     transform="translate(-318.798,-597.028)" />
  <polyline
     class="Stem"
     fill="none"
     stroke="#000000"
     stroke-width="2.12"
     stroke-linejoin="bevel"
     points="1324.72,694.52 1324.72,618.302"
     id="polyline1367"
     transform="translate(-318.798,-597.028)" />
  <polyline
     class="Stem"
     fill="none"
     stroke="#000000"
     stroke-width="2.12"
     stroke-linejoin="bevel"
     points="3350.61,694.52 3350.61,618.268"
     id="polyline1369"
     transform="translate(-318.798,-597.028)" />
  <polyline
     class="Stem"
     fill="none"
     stroke="#000000"
     stroke-width="2.12"
     stroke-linejoin="bevel"
     points="3391.46,683.9 3391.46,618.268"
     id="polyline1371"
     transform="translate(-318.798,-597.028)" />
  <polyline
     class="Stem"
     fill="none"
     stroke="#000000"
     stroke-width="2.12"
     stroke-linejoin="bevel"
     points="1416.37,683.9 1416.37,618.268"
     id="polyline1373"
     transform="translate(-318.798,-597.028)" />
  <polyline
     class="Stem"
     fill="none"
     stroke="#000000"
     stroke-width="2.12"
     stroke-linejoin="bevel"
     points="3432.31,694.52 3432.31,618.268"
     id="polyline1375"
     transform="translate(-318.798,-597.028)" />
  <polyline
     class="Stem"
     fill="none"
     stroke="#000000"
     stroke-width="2.12"
     stroke-linejoin="bevel"
     points="1508.29,683.9 1508.29,618.137"
     id="polyline1377"
     transform="translate(-318.798,-597.028)" />
  <polyline
     class="Stem"
     fill="none"
     stroke="#000000"
     stroke-width="2.12"
     stroke-linejoin="bevel"
     points="3473.17,705.14 3473.17,618.268"
     id="polyline1379"
     transform="translate(-318.798,-597.028)" />
  <polyline
     class="Stem"
     fill="none"
     stroke="#000000"
     stroke-width="2.12"
     stroke-linejoin="bevel"
     points="3641.9,683.9 3641.9,618.268"
     id="polyline1381"
     transform="translate(-318.798,-597.028)" />
  <polyline
     class="Stem"
     fill="none"
     stroke="#000000"
     stroke-width="2.12"
     stroke-linejoin="bevel"
     points="1549.15,673.28 1549.15,613.09"
     id="polyline1383"
     transform="translate(-318.798,-597.028)" />
  <polyline
     class="Stem"
     fill="none"
     stroke="#000000"
     stroke-width="2.12"
     stroke-linejoin="bevel"
     points="3733.82,694.52 3733.82,634.33"
     id="polyline1385"
     transform="translate(-318.798,-597.028)" />
  <polyline
     class="Stem"
     fill="none"
     stroke="#000000"
     stroke-width="2.12"
     stroke-linejoin="bevel"
     points="1569.33,669.627 1569.33,751.052"
     id="polyline1387"
     transform="translate(-318.798,-597.028)" />
  <polyline
     class="Stem"
     fill="none"
     stroke="#000000"
     stroke-width="2.12"
     stroke-linejoin="bevel"
     points="3774.68,705.14 3774.68,639.377"
     id="polyline1389"
     transform="translate(-318.798,-597.028)" />
  <polyline
     class="Stem"
     fill="none"
     stroke="#000000"
     stroke-width="2.12"
     stroke-linejoin="bevel"
     points="3815.53,694.52 3815.53,634.244"
     id="polyline1391"
     transform="translate(-318.798,-597.028)" />
  <polyline
     class="Stem"
     fill="none"
     stroke="#000000"
     stroke-width="2.12"
     stroke-linejoin="bevel"
     points="1610.18,680.247 1610.18,752.363"
     id="polyline1393"
     transform="translate(-318.798,-597.028)" />
  <polyline
     class="Stem"
     fill="none"
     stroke="#000000"
     stroke-width="2.12"
     stroke-linejoin="bevel"
     points="3876.81,715.76 3876.81,636.853"
     id="polyline1395"
     transform="translate(-318.798,-597.028)" />
  <polyline
     class="Stem"
     fill="none"
     stroke="#000000"
     stroke-width="2.12"
     stroke-linejoin="bevel"
     points="1651.03,669.627 1651.03,753.673"
     id="polyline1397"
     transform="translate(-318.798,-597.028)" />
  <polyline
     class="Stem"
     fill="none"
     stroke="#000000"
     stroke-width="2.12"
     stroke-linejoin="bevel"
     points="3938.09,715.76 3938.09,639.463"
     id="polyline1399"
     transform="translate(-318.798,-597.028)" />
  <polyline
     class="Stem"
     fill="none"
     stroke="#000000"
     stroke-width="2.12"
     stroke-linejoin="bevel"
     points="1691.89,659.007 1691.89,754.984"
     id="polyline1401"
     transform="translate(-318.798,-597.028)" />
  <polyline
     class="Stem"
     fill="none"
     stroke="#000000"
     stroke-width="2.12"
     stroke-linejoin="bevel"
     points="1732.74,669.627 1732.74,756.294"
     id="polyline1403"
     transform="translate(-318.798,-597.028)" />
  <polyline
     class="Stem"
     fill="none"
     stroke="#000000"
     stroke-width="2.12"
     stroke-linejoin="bevel"
     points="1849.87,683.9 1849.87,618.268"
     id="polyline1405"
     transform="translate(-318.798,-597.028)" />
  <polyline
     class="Stem"
     fill="none"
     stroke="#000000"
     stroke-width="2.12"
     stroke-linejoin="bevel"
     points="1941.79,683.9 1941.79,618.137"
     id="polyline1407"
     transform="translate(-318.798,-597.028)" />
  <polyline
     class="Stem"
     fill="none"
     stroke="#000000"
     stroke-width="2.12"
     stroke-linejoin="bevel"
     points="1982.64,673.28 1982.64,613.09"
     id="polyline1409"
     transform="translate(-318.798,-597.028)" />
  <polyline
     class="Stem"
     fill="none"
     stroke="#000000"
     stroke-width="2.12"
     stroke-linejoin="bevel"
     points="2002.82,669.627 2002.82,740.398"
     id="polyline1411"
     transform="translate(-318.798,-597.028)" />
  <path
     class="Note"
     d="m 468.984,104.46098 c 0,3.65062 2.62845,7.72607 9.51815,7.72607 8.82794,0 18.09385,-7.22162 18.09385,-14.69545 0,-5.01795 -4.248,-7.818954 -9.51815,-7.818954 -8.24376,0 -18.09385,6.969354 -18.09385,14.788334"
     id="path1413"
     style="stroke-width:0.8496" />
  <path
     class="Note"
     d="m 2494.872,72.600979 c 0,3.650621 2.6285,7.726067 9.5182,7.726067 8.8279,0 18.0938,-7.221617 18.0938,-14.695446 0,-5.01795 -4.248,-7.818954 -9.5182,-7.818954 -8.2437,0 -18.0938,6.969354 -18.0938,14.788333"
     id="path1415"
     style="stroke-width:0.8496" />
  <path
     class="Note"
     d="m 3592.752,125.70098 c 0,3.65062 2.6285,7.72607 9.5182,7.72607 8.8279,0 18.0938,-7.22162 18.0938,-14.69545 0,-5.01795 -4.248,-7.81895 -9.5182,-7.81895 -8.2437,0 -18.0938,6.96935 -18.0938,14.78833"
     id="path1417"
     style="stroke-width:0.8496" />
  <path
     class="Note"
     d="m 1372.022,61.980979 c 0,3.650621 2.6284,7.726067 9.5182,7.726067 8.8279,0 18.0938,-7.221617 18.0938,-14.695446 0,-5.01795 -4.248,-7.818954 -9.5182,-7.818954 -8.2437,0 -18.0938,6.969354 -18.0938,14.788333"
     id="path1419"
     style="stroke-width:0.8496" />
  <path
     class="Note"
     d="m 213.649,125.70098 c 0,3.65062 2.62845,7.72607 9.51815,7.72607 8.82794,0 18.09385,-7.22162 18.09385,-14.69545 0,-5.01795 -4.248,-7.81895 -9.51815,-7.81895 -8.24376,0 -18.09385,6.96935 -18.09385,14.78833"
     id="path1421"
     style="stroke-width:0.8496" />
  <path
     class="Note"
     d="m 305.57,125.70098 c 0,3.65062 2.62845,7.72607 9.51815,7.72607 8.82794,0 18.09385,-7.22162 18.09385,-14.69545 0,-5.01795 -4.248,-7.81895 -9.51815,-7.81895 -8.24376,0 -18.09385,6.96935 -18.09385,14.78833"
     id="path1423"
     style="stroke-width:0.8496" />
  <path
     class="Note"
     d="m 1723.812,83.220979 c 0,3.650621 2.6284,7.726067 9.5182,7.726067 8.8279,0 18.0938,-7.221617 18.0938,-14.695446 0,-5.01795 -4.248,-7.818954 -9.5182,-7.818954 -8.2437,0 -18.0938,6.969354 -18.0938,14.788333"
     id="path1425"
     style="stroke-width:0.8496" />
  <path
     class="Note"
     d="m 346.423,115.08098 c 0,3.65062 2.62845,7.72607 9.51815,7.72607 8.82794,0 18.09385,-7.22162 18.09385,-14.69545 0,-5.01795 -4.248,-7.81895 -9.51815,-7.81895 -8.24376,0 -18.09385,6.96935 -18.09385,14.78833"
     id="path1427"
     style="stroke-width:0.8496" />
  <path
     class="Note"
     d="m 387.277,104.46098 c 0,3.65062 2.62845,7.72607 9.51815,7.72607 8.82794,0 18.09385,-7.22162 18.09385,-14.69545 0,-5.01795 -4.248,-7.818954 -9.51815,-7.818954 -8.24376,0 -18.09385,6.969354 -18.09385,14.788334"
     id="path1429"
     style="stroke-width:0.8496" />
  <path
     class="Note"
     d="m 2576.582,93.840979 c 0,3.650621 2.6285,7.726071 9.5182,7.726071 8.8279,0 18.0938,-7.221621 18.0938,-14.69545 0,-5.01795 -4.248,-7.818954 -9.5182,-7.818954 -8.2437,0 -18.0938,6.969354 -18.0938,14.788333"
     id="path1431"
     style="stroke-width:0.8496" />
  <path
     class="Note"
     d="m 428.13,115.08098 c 0,3.65062 2.62845,7.72607 9.51815,7.72607 8.82794,0 18.09385,-7.22162 18.09385,-14.69545 0,-5.01795 -4.248,-7.81895 -9.51815,-7.81895 -8.24376,0 -18.09385,6.96935 -18.09385,14.78833"
     id="path1433"
     style="stroke-width:0.8496" />
  <path
     class="Note"
     d="m 897.682,104.46098 c 0,3.65062 2.62845,7.72607 9.51815,7.72607 8.82794,0 18.09385,-7.22162 18.09385,-14.69545 0,-5.01795 -4.248,-7.818954 -9.51815,-7.818954 -8.24376,0 -18.09385,6.969354 -18.09385,14.788334"
     id="path1435"
     style="stroke-width:0.8496" />
  <path
     class="Note"
     d="m 509.838,93.840979 c 0,3.650621 2.62845,7.726071 9.51815,7.726071 8.82794,0 18.09385,-7.221621 18.09385,-14.69545 0,-5.01795 -4.248,-7.818954 -9.51815,-7.818954 -8.24376,0 -18.09385,6.969354 -18.09385,14.788333"
     id="path1437"
     style="stroke-width:0.8496" />
  <path
     class="Note"
     d="m 550.691,125.70098 c 0,3.65062 2.62845,7.72607 9.51815,7.72607 8.82794,0 18.09385,-7.22162 18.09385,-14.69545 0,-5.01795 -4.248,-7.81895 -9.51815,-7.81895 -8.24376,0 -18.09385,6.96935 -18.09385,14.78833"
     id="path1439"
     style="stroke-width:0.8496" />
  <path
     class="Note"
     d="m 550.691,104.46098 c 0,3.65062 2.62845,7.72607 9.51815,7.72607 8.82794,0 18.09385,-7.22162 18.09385,-14.69545 0,-5.01795 -4.248,-7.818954 -9.51815,-7.818954 -8.24376,0 -18.09385,6.969354 -18.09385,14.788334"
     id="path1441"
     style="stroke-width:0.8496" />
  <path
     class="Note"
     d="m 642.345,125.70098 c 0,3.65062 2.62845,7.72607 9.51815,7.72607 8.82794,0 18.09385,-7.22162 18.09385,-14.69545 0,-5.01795 -4.248,-7.81895 -9.51815,-7.81895 -8.24376,0 -18.09385,6.96935 -18.09385,14.78833"
     id="path1443"
     style="stroke-width:0.8496" />
  <path
     class="Note"
     d="m 734.262,125.70098 c 0,3.65062 2.62845,7.72607 9.51815,7.72607 8.82794,0 18.09385,-7.22162 18.09385,-14.69545 0,-5.01795 -4.248,-7.81895 -9.51815,-7.81895 -8.24376,0 -18.09385,6.96935 -18.09385,14.78833"
     id="path1445"
     style="stroke-width:0.8496" />
  <path
     class="Note"
     d="m 2658.282,93.840979 c 0,3.650621 2.6285,7.726071 9.5182,7.726071 8.8279,0 18.0938,-7.221621 18.0938,-14.69545 0,-5.01795 -4.248,-7.818954 -9.5182,-7.818954 -8.2437,0 -18.0938,6.969354 -18.0938,14.788333"
     id="path1447"
     style="stroke-width:0.8496" />
  <path
     class="Note"
     d="m 775.122,115.08098 c 0,3.65062 2.62845,7.72607 9.51815,7.72607 8.82794,0 18.09385,-7.22162 18.09385,-14.69545 0,-5.01795 -4.248,-7.81895 -9.51815,-7.81895 -8.24376,0 -18.09385,6.96935 -18.09385,14.78833"
     id="path1449"
     style="stroke-width:0.8496" />
  <path
     class="Note"
     d="m 815.972,104.46098 c 0,3.65062 2.62845,7.72607 9.51815,7.72607 8.82794,0 18.09385,-7.22162 18.09385,-14.69545 0,-5.01795 -4.248,-7.818954 -9.51815,-7.818954 -8.24376,0 -18.09385,6.969354 -18.09385,14.788334"
     id="path1451"
     style="stroke-width:0.8496" />
  <path
     class="Note"
     d="m 2147.882,83.220979 c 0,3.650621 2.6284,7.726067 9.5182,7.726067 8.8279,0 18.0938,-7.221617 18.0938,-14.695446 0,-5.01795 -4.248,-7.818954 -9.5182,-7.818954 -8.2437,0 -18.0938,6.969354 -18.0938,14.788333"
     id="path1453"
     style="stroke-width:0.8496" />
  <path
     class="Note"
     d="m 856.822,115.08098 c 0,3.65062 2.62845,7.72607 9.51815,7.72607 8.82794,0 18.09385,-7.22162 18.09385,-14.69545 0,-5.01795 -4.248,-7.81895 -9.51815,-7.81895 -8.24376,0 -18.09385,6.96935 -18.09385,14.78833"
     id="path1455"
     style="stroke-width:0.8496" />
  <path
     class="Note"
     d="m 2188.732,72.600979 c 0,3.650621 2.6285,7.726067 9.5182,7.726067 8.8279,0 18.0938,-7.221617 18.0938,-14.695446 0,-5.01795 -4.248,-7.818954 -9.5182,-7.818954 -8.2437,0 -18.0938,6.969354 -18.0938,14.788333"
     id="path1457"
     style="stroke-width:0.8496" />
  <path
     class="Note"
     d="m 938.532,93.840979 c 0,3.650621 2.62845,7.726071 9.51815,7.726071 8.82794,0 18.09385,-7.221621 18.09385,-14.69545 0,-5.01795 -4.248,-7.818954 -9.51815,-7.818954 -8.24376,0 -18.09385,6.969354 -18.09385,14.788333"
     id="path1459"
     style="stroke-width:0.8496" />
  <path
     class="Note"
     d="m 979.382,104.46098 c 0,3.65062 2.62845,7.72607 9.51815,7.72607 8.82794,0 18.09385,-7.22162 18.09385,-14.69545 0,-5.01795 -4.248,-7.818954 -9.51815,-7.818954 -8.24376,0 -18.09385,6.969354 -18.09385,14.788334"
     id="path1461"
     style="stroke-width:0.8496" />
  <path
     class="Note"
     d="m 979.382,83.220979 c 0,3.650621 2.62845,7.726067 9.51815,7.726067 8.82794,0 18.09385,-7.221617 18.09385,-14.695446 0,-5.01795 -4.248,-7.818954 -9.51815,-7.818954 -8.24376,0 -18.09385,6.969354 -18.09385,14.788333"
     id="path1463"
     style="stroke-width:0.8496" />
  <path
     class="Note"
     d="m 1071.042,93.840979 c 0,3.650621 2.6284,7.726071 9.5182,7.726071 8.8279,0 18.0938,-7.221621 18.0938,-14.69545 0,-5.01795 -4.248,-7.818954 -9.5182,-7.818954 -8.2437,0 -18.0938,6.969354 -18.0938,14.788333"
     id="path1465"
     style="stroke-width:0.8496" />
  <path
     class="Note"
     d="m 1162.962,93.840979 c 0,3.650621 2.6285,7.726071 9.5182,7.726071 8.8279,0 18.0938,-7.221621 18.0938,-14.69545 0,-5.01795 -4.248,-7.818954 -9.5182,-7.818954 -8.2437,0 -18.0938,6.969354 -18.0938,14.788333"
     id="path1467"
     style="stroke-width:0.8496" />
  <path
     class="Note"
     d="m 2617.432,83.220979 c 0,3.650621 2.6285,7.726067 9.5182,7.726067 8.8279,0 18.0938,-7.221617 18.0938,-14.695446 0,-5.01795 -4.248,-7.818954 -9.5182,-7.818954 -8.2437,0 -18.0938,6.969354 -18.0938,14.788333"
     id="path1469"
     style="stroke-width:0.8496" />
  <path
     class="Note"
     d="m 1203.812,83.220979 c 0,3.650621 2.6284,7.726067 9.5182,7.726067 8.8279,0 18.0938,-7.221617 18.0938,-14.695446 0,-5.01795 -4.248,-7.818954 -9.5182,-7.818954 -8.2437,0 -18.0938,6.969354 -18.0938,14.788333"
     id="path1471"
     style="stroke-width:0.8496" />
  <path
     class="Note"
     d="m 1249.462,72.600979 c 0,3.650621 2.6285,7.726067 9.5182,7.726067 8.8279,0 18.0938,-7.221617 18.0938,-14.695446 0,-5.01795 -4.248,-7.818954 -9.5182,-7.818954 -8.2437,0 -18.0938,6.969354 -18.0938,14.788333"
     id="path1473"
     style="stroke-width:0.8496" />
  <path
     class="Note"
     d="m 1846.372,72.600979 c 0,3.650621 2.6285,7.726067 9.5182,7.726067 8.8279,0 18.0938,-7.221617 18.0938,-14.695446 0,-5.01795 -4.248,-7.818954 -9.5182,-7.818954 -8.2437,0 -18.0938,6.969354 -18.0938,14.788333"
     id="path1475"
     style="stroke-width:0.8496" />
  <path
     class="Note"
     d="m 1290.322,83.220979 c 0,3.650621 2.6284,7.726067 9.5182,7.726067 8.8279,0 18.0938,-7.221617 18.0938,-14.695446 0,-5.01795 -4.248,-7.818954 -9.5182,-7.818954 -8.2437,0 -18.0938,6.969354 -18.0938,14.788333"
     id="path1477"
     style="stroke-width:0.8496" />
  <path
     class="Note"
     d="m 1331.172,72.600979 c 0,3.650621 2.6285,7.726067 9.5182,7.726067 8.8279,0 18.0938,-7.221617 18.0938,-14.695446 0,-5.01795 -4.248,-7.818954 -9.5182,-7.818954 -8.2437,0 -18.0938,6.969354 -18.0938,14.788333"
     id="path1479"
     style="stroke-width:0.8496" />
  <path
     class="Note"
     d="m 2699.142,104.46098 c 0,3.65062 2.6285,7.72607 9.5182,7.72607 8.8279,0 18.0938,-7.22162 18.0938,-14.69545 0,-5.01795 -4.248,-7.818954 -9.5182,-7.818954 -8.2437,0 -18.0938,6.969354 -18.0938,14.788334"
     id="path1481"
     style="stroke-width:0.8496" />
  <path
     class="Note"
     d="m 2107.032,72.600979 c 0,3.650621 2.6285,7.726067 9.5182,7.726067 8.8279,0 18.0938,-7.221617 18.0938,-14.695446 0,-5.01795 -4.248,-7.818954 -9.5182,-7.818954 -8.2437,0 -18.0938,6.969354 -18.0938,14.788333"
     id="path1483"
     style="stroke-width:0.8496" />
  <path
     class="Note"
     d="m 2535.722,83.220979 c 0,3.650621 2.6285,7.726067 9.5182,7.726067 8.8279,0 18.0938,-7.221617 18.0938,-14.695446 0,-5.01795 -4.248,-7.818954 -9.5182,-7.818954 -8.2437,0 -18.0938,6.969354 -18.0938,14.788333"
     id="path1485"
     style="stroke-width:0.8496" />
  <path
     class="Note"
     d="m 1637.312,83.220979 c 0,3.650621 2.6284,7.726067 9.5182,7.726067 8.8279,0 18.0938,-7.221617 18.0938,-14.695446 0,-5.01795 -4.248,-7.818954 -9.5182,-7.818954 -8.2437,0 -18.0938,6.969354 -18.0938,14.788333"
     id="path1487"
     style="stroke-width:0.8496" />
  <path
     class="Note"
     d="m 2739.992,136.32098 c 0,3.65062 2.6285,7.72607 9.5182,7.72607 8.8279,0 18.0938,-7.22162 18.0938,-14.69545 0,-5.01795 -4.248,-7.81895 -9.5182,-7.81895 -8.2437,0 -18.0938,6.96935 -18.0938,14.78833"
     id="path1489"
     style="stroke-width:0.8496" />
  <path
     class="Note"
     d="m 2739.992,115.08098 c 0,3.65062 2.6285,7.72607 9.5182,7.72607 8.8279,0 18.0938,-7.22162 18.0938,-14.69545 0,-5.01795 -4.248,-7.81895 -9.5182,-7.81895 -8.2437,0 -18.0938,6.96935 -18.0938,14.78833"
     id="path1491"
     style="stroke-width:0.8496" />
  <path
     class="Note"
     d="m 1596.452,93.840979 c 0,3.650621 2.6285,7.726071 9.5182,7.726071 8.8279,0 18.0938,-7.221621 18.0938,-14.69545 0,-5.01795 -4.248,-7.818954 -9.5182,-7.818954 -8.2437,0 -18.0938,6.969354 -18.0938,14.788333"
     id="path1493"
     style="stroke-width:0.8496" />
  <path
     class="Note"
     d="m 1974.252,51.360979 c 0,3.650621 2.6285,7.726067 9.5182,7.726067 8.8279,0 18.0938,-7.221617 18.0938,-14.695446 0,-5.01795 -4.248,-7.818954 -9.5182,-7.818954 -8.2437,0 -18.0938,6.969354 -18.0938,14.788333"
     id="path1495"
     style="stroke-width:0.8496" />
  <path
     class="Note"
     d="m 2831.642,72.600979 c 0,3.650621 2.6285,7.726067 9.5182,7.726067 8.8279,0 18.0938,-7.221617 18.0938,-14.695446 0,-5.01795 -4.248,-7.818954 -9.5182,-7.818954 -8.2437,0 -18.0938,6.969354 -18.0938,14.788333"
     id="path1497"
     style="stroke-width:0.8496" />
  <path
     class="Note"
     d="m 2229.592,83.220979 c 0,3.650621 2.6284,7.726067 9.5182,7.726067 8.8279,0 18.0938,-7.221617 18.0938,-14.695446 0,-5.01795 -4.248,-7.818954 -9.5182,-7.818954 -8.2437,0 -18.0938,6.969354 -18.0938,14.788333"
     id="path1499"
     style="stroke-width:0.8496" />
  <path
     class="Note"
     d="m 2923.562,83.220979 c 0,3.650621 2.6285,7.726067 9.5182,7.726067 8.8279,0 18.0938,-7.221617 18.0938,-14.695446 0,-5.01795 -4.248,-7.818954 -9.5182,-7.818954 -8.2437,0 -18.0938,6.969354 -18.0938,14.788333"
     id="path1501"
     style="stroke-width:0.8496" />
  <path
     class="Note"
     d="m 1846.372,51.360979 c 0,3.650621 2.6285,7.726067 9.5182,7.726067 8.8279,0 18.0938,-7.221617 18.0938,-14.695446 0,-5.01795 -4.248,-7.818954 -9.5182,-7.818954 -8.2437,0 -18.0938,6.969354 -18.0938,14.788333"
     id="path1503"
     style="stroke-width:0.8496" />
  <path
     class="Note"
     d="m 2964.422,93.840979 c 0,3.650621 2.6284,7.726071 9.5182,7.726071 8.8279,0 18.0938,-7.221621 18.0938,-14.69545 0,-5.01795 -4.248,-7.818954 -9.5182,-7.818954 -8.2437,0 -18.0938,6.969354 -18.0938,14.788333"
     id="path1505"
     style="stroke-width:0.8496" />
  <path
     class="Note"
     d="m 2270.442,93.840979 c 0,3.650621 2.6285,7.726071 9.5182,7.726071 8.8279,0 18.0938,-7.221621 18.0938,-14.69545 0,-5.01795 -4.248,-7.818954 -9.5182,-7.818954 -8.2437,0 -18.0938,6.969354 -18.0938,14.788333"
     id="path1507"
     style="stroke-width:0.8496" />
  <path
     class="Note"
     d="m 3005.272,104.46098 c 0,3.65062 2.6285,7.72607 9.5182,7.72607 8.8279,0 18.0938,-7.22162 18.0938,-14.69545 0,-5.01795 -4.248,-7.818954 -9.5182,-7.818954 -8.2437,0 -18.0938,6.969354 -18.0938,14.788334"
     id="path1509"
     style="stroke-width:0.8496" />
  <path
     class="Note"
     d="m 2066.172,61.980979 c 0,3.650621 2.6284,7.726067 9.5182,7.726067 8.8279,0 18.0938,-7.221617 18.0938,-14.695446 0,-5.01795 -4.248,-7.818954 -9.5182,-7.818954 -8.2437,0 -18.0938,6.969354 -18.0938,14.788333"
     id="path1511"
     style="stroke-width:0.8496" />
  <path
     class="Note"
     d="m 3046.122,93.840979 c 0,3.650621 2.6285,7.726071 9.5182,7.726071 8.8279,0 18.0938,-7.221621 18.0938,-14.69545 0,-5.01795 -4.248,-7.818954 -9.5182,-7.818954 -8.2437,0 -18.0938,6.969354 -18.0938,14.788333"
     id="path1513"
     style="stroke-width:0.8496" />
  <path
     class="Note"
     d="m 2311.302,125.70098 c 0,3.65062 2.6284,7.72607 9.5182,7.72607 8.8279,0 18.0938,-7.22162 18.0938,-14.69545 0,-5.01795 -4.248,-7.81895 -9.5182,-7.81895 -8.2437,0 -18.0938,6.96935 -18.0938,14.78833"
     id="path1515"
     style="stroke-width:0.8496" />
  <path
     class="Note"
     d="m 3086.982,104.46098 c 0,3.65062 2.6285,7.72607 9.5182,7.72607 8.8279,0 18.0938,-7.22162 18.0938,-14.69545 0,-5.01795 -4.248,-7.818954 -9.5182,-7.818954 -8.2437,0 -18.0938,6.969354 -18.0938,14.788334"
     id="path1517"
     style="stroke-width:0.8496" />
  <path
     class="Note"
     d="m 2311.302,104.46098 c 0,3.65062 2.6284,7.72607 9.5182,7.72607 8.8279,0 18.0938,-7.22162 18.0938,-14.69545 0,-5.01795 -4.248,-7.818954 -9.5182,-7.818954 -8.2437,0 -18.0938,6.969354 -18.0938,14.788334"
     id="path1519"
     style="stroke-width:0.8496" />
  <path
     class="Note"
     d="m 3127.832,115.08098 c 0,3.65062 2.6285,7.72607 9.5182,7.72607 8.8279,0 18.0938,-7.22162 18.0938,-14.69545 0,-5.01795 -4.248,-7.81895 -9.5182,-7.81895 -8.2437,0 -18.0938,6.96935 -18.0938,14.78833"
     id="path1521"
     style="stroke-width:0.8496" />
  <path
     class="Note"
     d="m 1805.522,61.980979 c 0,3.650621 2.6285,7.726067 9.5182,7.726067 8.8279,0 18.0938,-7.221617 18.0938,-14.695446 0,-5.01795 -4.248,-7.818954 -9.5182,-7.818954 -8.2437,0 -18.0938,6.969354 -18.0938,14.788333"
     id="path1523"
     style="stroke-width:0.8496" />
  <path
     class="Note"
     d="m 1504.532,93.840979 c 0,3.650621 2.6284,7.726071 9.5182,7.726071 8.8279,0 18.0938,-7.221621 18.0938,-14.69545 0,-5.01795 -4.248,-7.818954 -9.5182,-7.818954 -8.2437,0 -18.0938,6.969354 -18.0938,14.788333"
     id="path1525"
     style="stroke-width:0.8496" />
  <path
     class="Note"
     d="m 3168.692,146.94098 c 0,3.65062 2.6285,7.72607 9.5182,7.72607 8.8279,0 18.0938,-7.22162 18.0938,-14.69545 0,-5.01795 -4.248,-7.81895 -9.5182,-7.81895 -8.2437,0 -18.0938,6.96935 -18.0938,14.78833"
     id="path1527"
     style="stroke-width:0.8496" />
  <path
     class="Note"
     d="m 3168.692,125.70098 c 0,3.65062 2.6285,7.72607 9.5182,7.72607 8.8279,0 18.0938,-7.22162 18.0938,-14.69545 0,-5.01795 -4.248,-7.81895 -9.5182,-7.81895 -8.2437,0 -18.0938,6.96935 -18.0938,14.78833"
     id="path1529"
     style="stroke-width:0.8496" />
  <path
     class="Note"
     d="m 1412.882,72.600979 c 0,3.650621 2.6285,7.726067 9.5182,7.726067 8.8279,0 18.0938,-7.221617 18.0938,-14.695446 0,-5.01795 -4.248,-7.818954 -9.5182,-7.818954 -8.2437,0 -18.0938,6.969354 -18.0938,14.788333"
     id="path1531"
     style="stroke-width:0.8496" />
  <path
     class="Note"
     d="m 1412.882,93.840979 c 0,3.650621 2.6285,7.726071 9.5182,7.726071 8.8279,0 18.0938,-7.221621 18.0938,-14.69545 0,-5.01795 -4.248,-7.818954 -9.5182,-7.818954 -8.2437,0 -18.0938,6.969354 -18.0938,14.788333"
     id="path1533"
     style="stroke-width:0.8496" />
  <path
     class="Note"
     d="m 3296.572,93.840979 c 0,3.650621 2.6285,7.726071 9.5182,7.726071 8.8279,0 18.0938,-7.221621 18.0938,-14.69545 0,-5.01795 -4.248,-7.818954 -9.5182,-7.818954 -8.2437,0 -18.0938,6.969354 -18.0938,14.788333"
     id="path1535"
     style="stroke-width:0.8496" />
  <path
     class="Note"
     d="m 1682.962,72.600979 c 0,3.650621 2.6285,7.726067 9.5182,7.726067 8.8279,0 18.0938,-7.221617 18.0938,-14.695446 0,-5.01795 -4.248,-7.818954 -9.5182,-7.818954 -8.2437,0 -18.0938,6.969354 -18.0938,14.788333"
     id="path1537"
     style="stroke-width:0.8496" />
  <path
     class="Note"
     d="m 3388.492,104.46098 c 0,3.65062 2.6285,7.72607 9.5182,7.72607 8.8279,0 18.0938,-7.22162 18.0938,-14.69545 0,-5.01795 -4.248,-7.818954 -9.5182,-7.818954 -8.2437,0 -18.0938,6.969354 -18.0938,14.788334"
     id="path1539"
     style="stroke-width:0.8496" />
  <path
     class="Note"
     d="m 3429.342,115.08098 c 0,3.65062 2.6284,7.72607 9.5182,7.72607 8.8279,0 18.0938,-7.22162 18.0938,-14.69545 0,-5.01795 -4.248,-7.81895 -9.5182,-7.81895 -8.2437,0 -18.0938,6.96935 -18.0938,14.78833"
     id="path1541"
     style="stroke-width:0.8496" />
  <path
     class="Note"
     d="m 2402.952,61.980979 c 0,3.650621 2.6285,7.726067 9.5182,7.726067 8.8279,0 18.0938,-7.221617 18.0938,-14.695446 0,-5.01795 -4.248,-7.818954 -9.5182,-7.818954 -8.2437,0 -18.0938,6.969354 -18.0938,14.788333"
     id="path1543"
     style="stroke-width:0.8496" />
  <path
     class="Note"
     d="m 3470.192,104.46098 c 0,3.65062 2.6285,7.72607 9.5182,7.72607 8.8279,0 18.0938,-7.22162 18.0938,-14.69545 0,-5.01795 -4.248,-7.818954 -9.5182,-7.818954 -8.2437,0 -18.0938,6.969354 -18.0938,14.788334"
     id="path1545"
     style="stroke-width:0.8496" />
  <path
     class="Note"
     d="m 1764.672,72.600979 c 0,3.650621 2.6284,7.726067 9.5182,7.726067 8.8279,0 18.0938,-7.221617 18.0938,-14.695446 0,-5.01795 -4.248,-7.818954 -9.5182,-7.818954 -8.2437,0 -18.0938,6.969354 -18.0938,14.788333"
     id="path1547"
     style="stroke-width:0.8496" />
  <path
     class="Note"
     d="m 3531.472,125.70098 c 0,3.65062 2.6285,7.72607 9.5182,7.72607 8.8279,0 18.0938,-7.22162 18.0938,-14.69545 0,-5.01795 -4.248,-7.81895 -9.5182,-7.81895 -8.2437,0 -18.0938,6.96935 -18.0938,14.78833"
     id="path1549"
     style="stroke-width:0.8496" />
  <path
     class="Clef"
     d="m 26.377446,144.47185 c 0,5.61534 4.248,13.0095 15.7176,13.0095 3.995754,0 7.4871,-1.02216 10.540308,-2.894 4.593192,-3.22576 5.774646,-8.8411 5.774646,-14.19095 0,-3.30545 -0.504408,-7.12865 -1.354008,-11.97401 -0.252246,-1.6992 -0.769992,-4.248 -1.2744,-7.56679 8.323362,-2.72135 14.522808,-11.38991 14.522808,-20.13818 0,-12.823666 -9.093354,-21.49222 -21.492246,-21.49222 -0.8496,-5.0976 -1.6992,-10.115592 -2.376162,-14.868 8.9208,-9.438546 15.120162,-20.058546 15.120162,-33.5592 0,-7.739346 -2.376162,-14.0184 -3.743508,-17.084606 C 55.781592,9.3855312 53.3124,6.4119312 51.785754,6.4119312 51.1884,6.4119312 48.559992,7.434 45.758946,10.739794 40.316154,17.2044 38.789592,28.076646 38.789592,35.2053 c 0,4.593108 0.4248,8.7615 1.871754,18.279654 -0.09295,0.07969 -4.5135,4.579854 -6.292392,6.026892 C 26.629692,66.653754 15.93,77.008254 15.93,94.01355 c 0,15.87694 13.845846,28.3687 29.656392,28.3687 2.455854,0 4.752408,-0.25225 6.703854,-0.59736 1.619508,8.16406 2.641746,14.11126 2.641746,18.61151 0,8.84119 -4.593192,13.51399 -13.1688,13.51399 -2.044392,0 -3.8232,-0.4248 -3.995838,-0.4248 -0.07961,-0.0929 -0.252162,-0.17264 -0.252162,-0.25224 0,-0.17256 0.172554,-0.2655 0.4248,-0.2655 3.995754,-0.67705 7.978254,-4.07545 7.978254,-9.5049 0,-4.5932 -3.478092,-9.43855 -9.850092,-9.43855 -5.9472,0 -9.690708,4.84535 -9.690708,10.44745 M 44.139354,31.050246 c 0.769992,-3.3984 4.6728,-12.3192 9.093438,-12.3192 1.2744,0 3.305454,4.075362 3.305454,10.022562 0,8.841192 -6.5313,15.465438 -12.398892,21.24 -0.504408,-3.3984 -0.929208,-6.703854 -0.929208,-10.274808 0,-3.146154 0.252246,-6.040146 0.929208,-8.668554 M 51.6132,118.38649 c -1.6992,0.34511 -3.305454,0.51766 -4.925046,0.51766 -12.146562,0 -22.514375,-8.496 -22.514375,-21.3329 0,-10.354542 7.301267,-19.62045 14.788367,-26.085396 1.4337,-1.2744 2.801046,-2.455854 4.075446,-3.730254 0.756654,4.579854 1.354008,8.575608 1.951362,12.066954 C 37.249692,82.119108 31.992792,90.27 31.992792,98.26155 c 0,5.9472 4.6728,14.09805 11.4696,14.09805 0.676962,0 1.446954,-0.34511 1.446954,-1.10185 0,-0.7699 -0.8496,-1.1947 -1.871754,-1.87175 -3.318792,-2.04435 -5.190546,-4.248 -5.190546,-8.41635 0,-5.17725 3.916146,-9.345642 8.841108,-10.527096 L 51.6132,118.38649 m 12.066954,-15.71764 c 0,6.04013 -2.469108,12.23955 -8.496,14.70874 -1.778808,-10.19524 -4.075362,-23.70919 -4.6728,-27.452782 7.6464,0 13.1688,5.190563 13.1688,12.744042"
     id="path1551"
     style="stroke-width:0.8496" />
  <path
     class="KeySig"
     d="m 106.01505,28.2492 c 0.51774,-0.07969 0.94254,-0.677046 0.94254,-1.194792 v -5.004654 c 0,-0.8496 -0.59744,-1.194708 -1.36734,-1.194708 L 102.7892,21.4524 V 8.7880075 h -2.37625 V 21.956808 l -7.566721,1.5399 V 11.509446 H 90.47 V 24.0012 l -3.31875,0.677046 C 86.6468,24.771108 86.222,25.355208 86.222,25.872954 V 30.798 c 0,0.92925 0.677025,1.19475 1.446979,1.19475 L 90.47,31.395371 V 45.413779 L 87.15125,46.0908 C 86.6468,46.170492 86.222,46.767846 86.222,47.285592 v 4.924962 c 0,0.929292 0.677025,1.181538 1.446979,1.181538 L 90.47,52.807992 v 12.651054 h 2.376229 v -13.1688 L 100.41295,50.7636 v 11.987346 h 2.37625 V 50.259192 l 3.22585,-0.597438 c 0.51774,-0.09286 0.94254,-0.676962 0.94254,-1.194708 V 43.46235 c 0,-0.8496 -0.59744,-1.19475 -1.36734,-1.19475 l -2.80105,0.597379 V 28.846571 l 3.22585,-0.597371 m -13.168821,2.62845 7.566721,-1.526629 v 14.018408 l -7.566721,1.61955 V 30.87765"
     id="path1553"
     style="stroke-width:0.8496" />
  <path
     class="TimeSig"
     d="m 148.16275,54.759571 c -5.19046,0 -7.04896,1.526629 -8.24375,2.801029 -0.25225,-1.77885 -0.4248,-3.146179 -0.4248,-4.500229 0,-4.845371 1.6992,-11.137763 7.6464,-11.137763 2.124,0 3.3984,0.6903 4.248,1.619592 -1.77881,0.769908 -3.22585,3.053208 -3.22585,5.017908 0,3.053292 2.37625,5.429513 5.4428,5.429513 3.0532,0 5.5224,-2.376221 5.5224,-5.429513 v -0.2655 c 0,-0.756654 -0.17256,-2.031054 -0.51775,-2.7081 -1.10185,-3.066462 -4.6728,-7.566708 -13.1688,-7.566708 -7.6464,0 -13.1688,7.301208 -14.868,11.217354 -0.8496,2.031096 -2.124,6.199446 -2.124,10.951896 0,5.190529 1.44698,11.044842 6.45165,15.465396 4.93834,3.743508 8.07124,3.916146 11.04484,3.916146 2.98686,0 14.11126,-3.491346 14.11126,-13.341413 0,-8.323429 -6.54455,-11.469608 -11.8944,-11.469608 m -3.14615,21.239983 c -2.80105,0 -5.0976,-3.8232 -5.0976,-8.588862 0,-4.752492 2.29655,-8.655342 5.0976,-8.655342 2.80105,0 5.19055,3.90285 5.19055,8.655342 0,4.765662 -2.3895,8.588862 -5.19055,8.588862"
     id="path1555"
     style="stroke-width:0.8496" />
  <path
     class="TimeSig"
     d="m 154.45539,99.151371 c 2.80096,-2.124 4.75241,-4.845371 4.75241,-8.243771 0,-6.119754 -6.70385,-11.124492 -14.94761,-11.124492 -8.24384,0 -14.96096,5.004738 -14.96096,11.124492 0,3.3984 0.8496,6.45165 4.84537,9.00045 -3.8232,2.21693 -5.9472,5.3631 -5.9472,9.4385 0,6.8765 7.2216,12.3989 16.06279,12.3989 8.82786,0 16.04946,-5.5224 16.04946,-12.3989 0,-4.0754 -1.4337,-7.8986 -5.85426,-10.195179 M 149.68965,96.8548 C 143.915,94.983021 137.543,92.182 137.543,88.3588 c 0,-3.318792 3.05329,-4.6728 6.71719,-4.6728 5.27016,0 8.82786,2.469108 8.82786,6.372 0,4.075421 -1.8585,6.02685 -3.3984,6.7968 m -5.42946,20.13815 c -5.44279,0 -10.11559,-2.9736 -10.11559,-7.73926 0,-5.68174 4.42055,-7.04906 4.42055,-7.04906 5.77465,1.95142 14.0184,4.84537 14.0184,9.51817 0,2.29655 -2.8939,5.27015 -8.32336,5.27015"
     id="path1557"
     style="stroke-width:0.8496" />
  <path
     class="Beam"
     fill-rule="evenodd"
     d="m 3030.752,15.93 h 165.53 v 10.62 h -165.53 V 15.93"
     id="path1559" />
  <path
     class="Beam"
     fill-rule="evenodd"
     d="m 3030.752,31.86 h 124.68 v 10.62 h -124.68 V 31.86"
     id="path1561" />
  <path
     class="Beam"
     fill-rule="evenodd"
     d="m 1682.962,138.06 h 165.54 v 10.62 h -165.54 v -10.62"
     id="path1563" />
  <path
     class="Beam"
     fill-rule="evenodd"
     d="m 1682.962,122.13 h 124.68 v 10.62 h -124.68 v -10.62"
     id="path1565" />
  <path
     class="Beam"
     fill-rule="evenodd"
     d="m 1621.932,15.89 42.97,-5.31 v 10.701 l -42.97,5.31 V 15.89"
     id="path1567" />
  <path
     class="Beam"
     fill-rule="evenodd"
     d="m 1621.932,31.82 42.97,-5.31 v 10.701 l -42.97,5.31 V 31.82"
     id="path1569" />
  <path
     class="Beam"
     fill-rule="evenodd"
     d="m 841.442,21.238 165.54,-5.31 v 10.625 l -165.54,5.31 V 21.238"
     id="path1571" />
  <path
     class="Beam"
     fill-rule="evenodd"
     d="m 841.442,37.168 124.69,-4 v 10.626 l -124.69,3.999 V 37.168"
     id="path1573" />
  <path
     class="Beam"
     fill-rule="evenodd"
     d="m 1188.432,15.89 42.98,-5.31 v 10.701 l -42.98,5.31 V 15.89"
     id="path1575" />
  <path
     class="Beam"
     fill-rule="evenodd"
     d="m 1188.432,31.82 42.98,-5.31 v 10.701 l -42.98,5.31 V 31.82"
     id="path1577" />
  <path
     class="Beam"
     fill-rule="evenodd"
     d="m 3413.962,31.82 42.98,5.31 v 10.701 l -42.98,-5.31 V 31.82"
     id="path1579" />
  <path
     class="Beam"
     fill-rule="evenodd"
     d="m 3413.962,47.75 42.98,5.31 v 10.701 l -42.98,-5.31 V 47.75"
     id="path1581" />
  <path
     class="Beam"
     fill-rule="evenodd"
     d="m 2066.172,127.4 42.98,5.31 v 10.701 l -42.98,-5.31 V 127.4"
     id="path1583" />
  <path
     class="Beam"
     fill-rule="evenodd"
     d="m 2066.172,111.47 42.98,5.31 v 10.701 l -42.98,-5.31 V 111.47"
     id="path1585" />
  <path
     class="Beam"
     fill-rule="evenodd"
     d="m 1249.462,148.678 165.54,5.31 v 10.625 l -165.54,-5.31 v -10.625"
     id="path1587" />
  <path
     class="Beam"
     fill-rule="evenodd"
     d="m 1249.462,132.748 124.69,3.999 v 10.626 l -124.69,-4 v -10.625"
     id="path1589" />
  <path
     class="Beam"
     fill-rule="evenodd"
     d="m 2602.052,10.62 h 165.54 v 10.62 h -165.54 V 10.62"
     id="path1591" />
  <path
     class="Beam"
     fill-rule="evenodd"
     d="m 2602.052,26.55 h 124.69 v 10.62 h -124.69 V 26.55"
     id="path1593" />
  <path
     class="Beam"
     fill-rule="evenodd"
     d="m 2173.362,0 h 165.53 v 10.62 h -165.53 V 0"
     id="path1595" />
  <path
     class="Beam"
     fill-rule="evenodd"
     d="m 2173.362,15.93 h 124.68 v 10.62 h -124.68 V 15.93"
     id="path1597" />
  <path
     class="Beam"
     fill-rule="evenodd"
     d="m 3495.672,31.856 124.68,5.31 v 10.629 l -124.68,-5.31 V 31.856"
     id="path1599" />
  <path
     class="Beam"
     fill-rule="evenodd"
     d="m 2949.042,10.58 42.98,5.31 v 10.701 l -42.98,-5.31 V 10.58"
     id="path1601" />
  <path
     class="Beam"
     fill-rule="evenodd"
     d="m 2949.042,26.51 42.98,5.31 v 10.701 l -42.98,-5.31 V 26.51"
     id="path1603" />
  <path
     class="Beam"
     fill-rule="evenodd"
     d="m 2494.872,132.71 42.98,5.31 v 10.701 l -42.98,-5.31 V 132.71"
     id="path1605" />
  <path
     class="Beam"
     fill-rule="evenodd"
     d="m 2494.872,116.78 42.98,5.31 v 10.701 l -42.98,-5.31 V 116.78"
     id="path1607" />
  <path
     class="Beam"
     fill-rule="evenodd"
     d="m 331.045,37.13 42.977,-5.31 v 10.701 l -42.977,5.31 V 37.13"
     id="path1609" />
  <path
     class="Beam"
     fill-rule="evenodd"
     d="m 331.045,53.06 42.977,-5.31 v 10.701 l -42.977,5.31 V 53.06"
     id="path1611" />
  <path
     class="Beam"
     fill-rule="evenodd"
     d="M 412.752,15.93 H 578.29 V 26.55 H 412.752 V 15.93"
     id="path1613" />
  <path
     class="Beam"
     fill-rule="evenodd"
     d="M 412.752,31.86 H 537.436 V 42.48 H 412.752 V 31.86"
     id="path1615" />
  <path
     class="Beam"
     fill-rule="evenodd"
     d="m 759.742,37.13 42.98,-5.31 v 10.701 l -42.98,5.31 V 37.13"
     id="path1617" />
  <path
     class="Beam"
     fill-rule="evenodd"
     d="m 759.742,53.06 42.98,-5.31 v 10.701 l -42.98,5.31 V 53.06"
     id="path1619" />
</svg>
