<?xml version="1.0" encoding="UTF-8" standalone="no"?>
<svg
   xmlns:dc="http://purl.org/dc/elements/1.1/"
   xmlns:cc="http://creativecommons.org/ns#"
   xmlns:rdf="http://www.w3.org/1999/02/22-rdf-syntax-ns#"
   xmlns:svg="http://www.w3.org/2000/svg"
   xmlns="http://www.w3.org/2000/svg"
   xmlns:sodipodi="http://sodipodi.sourceforge.net/DTD/sodipodi-0.dtd"
   xmlns:inkscape="http://www.inkscape.org/namespaces/inkscape"
   width="258.20526mm"
   height="14.069298mm"
   viewBox="0 0 3659.6022 199.40737"
   version="1.2"
   id="svg1213"
   sodipodi:docname="Dossium Canto Barbie Musica.svg"
   inkscape:version="1.0.2-2 (e86c870879, 2021-01-15)">
  <metadata
     id="metadata1219">
    <rdf:RDF>
      <cc:Work
         rdf:about="">
        <dc:format>image/svg+xml</dc:format>
        <dc:type
           rdf:resource="http://purl.org/dc/dcmitype/StillImage" />
      </cc:Work>
    </rdf:RDF>
  </metadata>
  <defs
     id="defs1217" />
  <sodipodi:namedview
     pagecolor="#ffffff"
     bordercolor="#666666"
     borderopacity="1"
     objecttolerance="10"
     gridtolerance="10"
     guidetolerance="10"
     inkscape:pageopacity="0"
     inkscape:pageshadow="2"
     inkscape:window-width="1920"
     inkscape:window-height="991"
     id="namedview1215"
     showgrid="false"
     inkscape:zoom="0.94988596"
     inkscape:cx="471.36053"
     inkscape:cy="237.41743"
     inkscape:window-x="-9"
     inkscape:window-y="-9"
     inkscape:window-maximized="1"
     inkscape:current-layer="svg1213" />
  <title
     id="title1027">Dossium Canto Barbie Musica</title>
  <desc
     id="desc1029">Generated by MuseScore Studio 4.5.2</desc>
  <polyline
     class="StaffLines"
     fill="none"
     stroke="#000000"
     stroke-width="2.73"
     stroke-linejoin="bevel"
     points="336.598,634.198 3996.2,634.198"
     id="polyline1031"
     transform="translate(-336.598,-598.28462)" />
  <polyline
     class="StaffLines"
     fill="none"
     stroke="#000000"
     stroke-width="2.73"
     stroke-linejoin="bevel"
     points="336.598,658.998 3996.2,658.998"
     id="polyline1033"
     transform="translate(-336.598,-598.28462)" />
  <polyline
     class="StaffLines"
     fill="none"
     stroke="#000000"
     stroke-width="2.73"
     stroke-linejoin="bevel"
     points="336.598,683.798 3996.2,683.798"
     id="polyline1035"
     transform="translate(-336.598,-598.28462)" />
  <polyline
     class="StaffLines"
     fill="none"
     stroke="#000000"
     stroke-width="2.73"
     stroke-linejoin="bevel"
     points="336.598,708.598 3996.2,708.598"
     id="polyline1037"
     transform="translate(-336.598,-598.28462)" />
  <polyline
     class="StaffLines"
     fill="none"
     stroke="#000000"
     stroke-width="2.73"
     stroke-linejoin="bevel"
     points="336.598,733.398 3996.2,733.398"
     id="polyline1039"
     transform="translate(-336.598,-598.28462)" />
  <polyline
     class="BarLine"
     fill="none"
     stroke="#000000"
     stroke-width="4.46"
     stroke-linejoin="bevel"
     points="3273.31,632.834 3273.31,734.762"
     id="polyline1049"
     transform="translate(-336.598,-598.28462)" />
  <polyline
     class="BarLine"
     fill="none"
     stroke="#000000"
     stroke-width="4.46"
     stroke-linejoin="bevel"
     points="2023.65,632.834 2023.65,734.762"
     id="polyline1051"
     transform="translate(-336.598,-598.28462)" />
  <polyline
     class="BarLine"
     fill="none"
     stroke="#000000"
     stroke-width="4.46"
     stroke-linejoin="bevel"
     points="2947.32,632.834 2947.32,734.762"
     id="polyline1053"
     transform="translate(-336.598,-598.28462)" />
  <polyline
     class="BarLine"
     fill="none"
     stroke="#000000"
     stroke-width="4.46"
     stroke-linejoin="bevel"
     points="1743.19,632.834 1743.19,734.762"
     id="polyline1055"
     transform="translate(-336.598,-598.28462)" />
  <polyline
     class="BarLine"
     fill="none"
     stroke="#000000"
     stroke-width="4.46"
     stroke-linejoin="bevel"
     points="819.514,632.834 819.514,734.762"
     id="polyline1057"
     transform="translate(-336.598,-598.28462)" />
  <path
     class="BarLine"
     d="m 3623.155,73.113376 c 0,-2.883 -2.294,-5.254505 -5.1615,-5.254505 -2.883,0 -5.1615,2.371505 -5.1615,5.254505 0,2.883 2.2785,5.254505 5.1615,5.254505 2.8675,0 5.1615,-2.371505 5.1615,-5.254505"
     id="path1059"
     style="stroke-width:0.992" />
  <path
     class="BarLine"
     d="m 3623.155,97.913376 c 0,-2.883 -2.294,-5.254505 -5.1615,-5.254505 -2.883,0 -5.1615,2.371505 -5.1615,5.254505 0,2.883004 2.2785,5.254504 5.1615,5.254504 2.8675,0 5.1615,-2.3715 5.1615,-5.254504"
     id="path1061"
     style="stroke-width:0.992" />
  <polyline
     class="BarLine"
     fill="none"
     stroke="#000000"
     stroke-width="4.46"
     stroke-linejoin="bevel"
     points="3971.15,632.834 3971.15,734.762"
     id="polyline1063"
     transform="translate(-336.598,-598.28462)" />
  <polyline
     class="BarLine"
     fill="none"
     stroke="#000000"
     stroke-width="13.64"
     stroke-linejoin="bevel"
     points="3989.38,632.834 3989.38,734.762"
     id="polyline1065"
     transform="translate(-336.598,-598.28462)" />
  <polyline
     class="BarLine"
     fill="none"
     stroke="#000000"
     stroke-width="4.46"
     stroke-linejoin="bevel"
     points="2666.86,632.834 2666.86,734.762"
     id="polyline1067"
     transform="translate(-336.598,-598.28462)" />
  <polyline
     class="BarLine"
     fill="none"
     stroke="#000000"
     stroke-width="4.46"
     stroke-linejoin="bevel"
     points="1099.98,632.834 1099.98,734.762"
     id="polyline1069"
     transform="translate(-336.598,-598.28462)" />
  <polyline
     class="BarLine"
     fill="none"
     stroke="#000000"
     stroke-width="4.46"
     stroke-linejoin="bevel"
     points="2349.64,632.834 2349.64,734.762"
     id="polyline1071"
     transform="translate(-336.598,-598.28462)" />
  <polyline
     class="BarLine"
     fill="none"
     stroke="#000000"
     stroke-width="4.46"
     stroke-linejoin="bevel"
     points="3614.22,632.834 3614.22,734.762"
     id="polyline1073"
     transform="translate(-336.598,-598.28462)" />
  <polyline
     class="BarLine"
     fill="none"
     stroke="#000000"
     stroke-width="4.46"
     stroke-linejoin="bevel"
     points="1425.96,632.834 1425.96,734.762"
     id="polyline1075"
     transform="translate(-336.598,-598.28462)" />
  <path
     class="Accidental"
     d="m 2504.085,77.670376 c -0.589,-3.859525 -2.976,-7.533 -8.029,-7.533 -4.96,0 -7.843,3.06895 -8.339,3.673475 l 0.403,-31.852525 c 0,-0.790425 -0.589,-1.379475 -1.395,-1.379475 h -1.178 c -0.806,0 -1.395,0.58905 -1.395,1.379475 l 0.496,59.628524 c 0,0.79053 0.589,1.37958 1.395,1.37958 0.186,0 0.589,-0.0931 0.7905,-0.186 0.3875,-0.20158 6.8355,-3.379054 12.1985,-9.424054 3.7665,-4.278 5.2545,-9.129505 5.2545,-13.206 0,-0.883505 -0.093,-1.674 -0.2015,-2.48 m -6.8355,3.875 c 0,1.488 -0.403,6.045 -2.883,9.827 -1.6895,2.573 -5.053,5.254475 -6.944,6.742475 l 0.2945,-19.34398 c 0.2015,-0.899 1.6895,-3.766545 5.6575,-3.766545 3.5805,0 3.875,3.363545 3.875,5.45605 0,0.496 0,0.790495 0,1.085"
     id="path1077"
     style="stroke-width:0.992" />
  <path
     class="Accidental"
     d="m 3315.915,127.27038 c -0.589,-3.85953 -2.976,-7.533 -8.029,-7.533 -4.96,0 -7.843,3.06895 -8.339,3.67347 l 0.403,-31.852524 c 0,-0.790425 -0.589,-1.379475 -1.395,-1.379475 h -1.178 c -0.806,0 -1.395,0.58905 -1.395,1.379475 l 0.496,59.628524 c 0,0.79053 0.589,1.37958 1.395,1.37958 0.186,0 0.589,-0.0931 0.7905,-0.186 0.3875,-0.20158 6.8355,-3.37905 12.1985,-9.42405 3.7665,-4.278 5.2545,-9.12951 5.2545,-13.206 0,-0.88351 -0.093,-1.674 -0.2015,-2.48 m -6.8355,3.875 c 0,1.488 -0.403,6.045 -2.883,9.827 -1.6895,2.573 -5.053,5.25447 -6.944,6.74247 l 0.2945,-19.34398 c 0.2015,-0.899 1.6895,-3.76654 5.6575,-3.76654 3.5805,0 3.875,3.36354 3.875,5.45605 0,0.496 0,0.79049 0,1.085"
     id="path1079"
     style="stroke-width:0.992" />
  <path
     class="Accidental"
     d="m 656.74605,77.670376 c -0.58905,-3.859525 -2.976,-7.533 -8.02905,-7.533 -4.96,0 -7.843,3.06895 -8.339,3.673475 l 0.403,-31.852525 c 0,-0.790425 -0.589,-1.379475 -1.395,-1.379475 h -1.178 c -0.806,0 -1.395,0.58905 -1.395,1.379475 l 0.496,59.628524 c 0,0.79053 0.589,1.37958 1.395,1.37958 0.186,0 0.589,-0.0931 0.7905,-0.186 0.3875,-0.20158 6.8355,-3.379054 12.1985,-9.424054 3.76652,-4.278 5.25452,-9.129505 5.25452,-13.206 0,-0.883505 -0.093,-1.674 -0.20147,-2.48 m -6.83557,3.875 c 0,1.488 -0.40296,6.045 -2.88296,9.827 -1.68952,2.573 -5.05302,5.254475 -6.94402,6.742475 l 0.2945,-19.34398 c 0.2015,-0.899 1.6895,-3.766545 5.6575,-3.766545 3.58055,0 3.87498,3.363545 3.87498,5.45605 0,0.496 0,0.790495 0,1.085"
     id="path1081"
     style="stroke-width:0.992" />
  <path
     class="Accidental"
     d="m 3072.995,77.670376 c -0.589,-3.859525 -2.976,-7.533 -8.029,-7.533 -4.96,0 -7.843,3.06895 -8.339,3.673475 l 0.403,-31.852525 c 0,-0.790425 -0.589,-1.379475 -1.395,-1.379475 h -1.178 c -0.806,0 -1.395,0.58905 -1.395,1.379475 l 0.496,59.628524 c 0,0.79053 0.589,1.37958 1.395,1.37958 0.186,0 0.589,-0.0931 0.7905,-0.186 0.3875,-0.20158 6.8355,-3.379054 12.1985,-9.424054 3.7665,-4.278 5.2545,-9.129505 5.2545,-13.206 0,-0.883505 -0.093,-1.674 -0.2015,-2.48 m -6.8355,3.875 c 0,1.488 -0.403,6.045 -2.883,9.827 -1.6895,2.573 -5.053,5.254475 -6.944,6.742475 l 0.2945,-19.34398 c 0.2015,-0.899 1.6895,-3.766545 5.6575,-3.766545 3.5805,0 3.875,3.363545 3.875,5.45605 0,0.496 0,0.790495 0,1.085"
     id="path1083"
     style="stroke-width:0.992" />
  <path
     class="Accidental"
     d="m 2974.995,90.070376 c -0.589,-3.859525 -2.976,-7.533 -8.029,-7.533 -4.96,0 -7.843,3.06895 -8.339,3.673475 l 0.403,-31.852525 c 0,-0.790425 -0.589,-1.379475 -1.395,-1.379475 h -1.178 c -0.806,0 -1.395,0.58905 -1.395,1.379475 l 0.496,59.628524 c 0,0.79053 0.589,1.37958 1.395,1.37958 0.186,0 0.589,-0.093 0.7905,-0.186 0.3875,-0.20158 6.8355,-3.37905 12.1985,-9.42405 3.7665,-4.278 5.2545,-9.129509 5.2545,-13.206004 0,-0.883505 -0.093,-1.674 -0.2015,-2.48 m -6.8355,3.875 c 0,1.488 -0.403,6.045 -2.883,9.827004 -1.6895,2.573 -5.053,5.25447 -6.944,6.74247 l 0.2945,-19.343979 c 0.2015,-0.899 1.6895,-3.766545 5.6575,-3.766545 3.5805,0 3.875,3.363545 3.875,5.45605 0,0.496 0,0.790495 0,1.085"
     id="path1085"
     style="stroke-width:0.992" />
  <polyline
     class="Stem"
     fill="none"
     stroke="#000000"
     stroke-width="2.48"
     stroke-linejoin="bevel"
     points="2848.33,687.965 2848.33,758.198"
     id="polyline1087"
     transform="translate(-336.598,-598.28462)" />
  <polyline
     class="Stem"
     fill="none"
     stroke="#000000"
     stroke-width="2.48"
     stroke-linejoin="bevel"
     points="2981.79,675.565 2981.79,751.998"
     id="polyline1089"
     transform="translate(-336.598,-598.28462)" />
  <polyline
     class="Stem"
     fill="none"
     stroke="#000000"
     stroke-width="2.48"
     stroke-linejoin="bevel"
     points="3109.54,717.03 3109.54,634.198"
     id="polyline1091"
     transform="translate(-336.598,-598.28462)" />
  <polyline
     class="Stem"
     fill="none"
     stroke="#000000"
     stroke-width="2.48"
     stroke-linejoin="bevel"
     points="3348.98,692.23 3348.98,615.598"
     id="polyline1093"
     transform="translate(-336.598,-598.28462)" />
  <polyline
     class="Stem"
     fill="none"
     stroke="#000000"
     stroke-width="2.48"
     stroke-linejoin="bevel"
     points="3417.23,687.965 3417.23,758.198"
     id="polyline1095"
     transform="translate(-336.598,-598.28462)" />
  <polyline
     class="Stem"
     fill="none"
     stroke="#000000"
     stroke-width="2.48"
     stroke-linejoin="bevel"
     points="536.765,638.365 536.765,720.899"
     id="polyline1097"
     transform="translate(-336.598,-598.28462)" />
  <polyline
     class="Stem"
     fill="none"
     stroke="#000000"
     stroke-width="2.48"
     stroke-linejoin="bevel"
     points="3515.23,675.565 3515.23,751.998"
     id="polyline1099"
     transform="translate(-336.598,-598.28462)" />
  <polyline
     class="Stem"
     fill="none"
     stroke="#000000"
     stroke-width="2.48"
     stroke-linejoin="bevel"
     points="3689.9,729.43 3689.9,646.598"
     id="polyline1101"
     transform="translate(-336.598,-598.28462)" />
  <polyline
     class="Stem"
     fill="none"
     stroke="#000000"
     stroke-width="2.48"
     stroke-linejoin="bevel"
     points="749.098,675.565 749.098,751.899"
     id="polyline1103"
     transform="translate(-336.598,-598.28462)" />
  <polyline
     class="Stem"
     fill="none"
     stroke="#000000"
     stroke-width="2.48"
     stroke-linejoin="bevel"
     points="3787.9,717.03 3787.9,634.198"
     id="polyline1105"
     transform="translate(-336.598,-598.28462)" />
  <polyline
     class="Stem"
     fill="none"
     stroke="#000000"
     stroke-width="2.48"
     stroke-linejoin="bevel"
     points="1000.99,687.965 1000.99,758.198"
     id="polyline1107"
     transform="translate(-336.598,-598.28462)" />
  <polyline
     class="Stem"
     fill="none"
     stroke="#000000"
     stroke-width="2.48"
     stroke-linejoin="bevel"
     points="1134.45,675.565 1134.45,751.998"
     id="polyline1109"
     transform="translate(-336.598,-598.28462)" />
  <polyline
     class="Stem"
     fill="none"
     stroke="#000000"
     stroke-width="2.48"
     stroke-linejoin="bevel"
     points="1262.19,717.03 1262.19,634.198"
     id="polyline1111"
     transform="translate(-336.598,-598.28462)" />
  <polyline
     class="Stem"
     fill="none"
     stroke="#000000"
     stroke-width="2.48"
     stroke-linejoin="bevel"
     points="1460.44,638.365 1460.44,720.899"
     id="polyline1113"
     transform="translate(-336.598,-598.28462)" />
  <polyline
     class="Stem"
     fill="none"
     stroke="#000000"
     stroke-width="2.48"
     stroke-linejoin="bevel"
     points="1672.77,675.565 1672.77,751.899"
     id="polyline1115"
     transform="translate(-336.598,-598.28462)" />
  <polyline
     class="Stem"
     fill="none"
     stroke="#000000"
     stroke-width="2.48"
     stroke-linejoin="bevel"
     points="1924.66,625.965 1924.66,708.598"
     id="polyline1117"
     transform="translate(-336.598,-598.28462)" />
  <polyline
     class="Stem"
     fill="none"
     stroke="#000000"
     stroke-width="2.48"
     stroke-linejoin="bevel"
     points="2058.12,650.765 2058.12,733.398"
     id="polyline1119"
     transform="translate(-336.598,-598.28462)" />
  <polyline
     class="Stem"
     fill="none"
     stroke="#000000"
     stroke-width="2.48"
     stroke-linejoin="bevel"
     points="2156.12,675.565 2156.12,751.998"
     id="polyline1121"
     transform="translate(-336.598,-598.28462)" />
  <polyline
     class="Stem"
     fill="none"
     stroke="#000000"
     stroke-width="2.48"
     stroke-linejoin="bevel"
     points="2384.11,638.365 2384.11,720.899"
     id="polyline1123"
     transform="translate(-336.598,-598.28462)" />
  <polyline
     class="Stem"
     fill="none"
     stroke="#000000"
     stroke-width="2.48"
     stroke-linejoin="bevel"
     points="2596.44,675.565 2596.44,751.899"
     id="polyline1125"
     transform="translate(-336.598,-598.28462)" />
  <path
     class="Hook"
     d="m 411.26,153.62038 c 0,0.682 0.589,1.2865 1.2865,1.2865 0.496,0 1.1005,-0.403 1.1935,-0.7905 0,-0.1085 0.899,-3.58051 0.992,-3.875 0.093,-0.403 0.992,-4.16951 4.557,-10.01305 3.875,-6.448 9.827,-11.11348 14.787,-18.05748 4.86705,-6.944 7.84305,-13.50052 7.84305,-22.226949 0,-9.02105 -2.09253,-16.569575 -7.34705,-26.19505 -0.29452,-0.697475 -0.89895,-1.08495 -1.488,-1.08495 -0.20148,0 -0.40295,0 -0.496,0.09295 -0.496,0.201475 -0.69748,0.604525 -0.69748,1.193475 0,0.294525 0.10853,0.790525 0.29453,1.193575 3.968,9.222425 5.56443,14.47695 5.56443,21.622425 0,8.230524 -2.88296,12.508524 -4.66548,15.577574 -6.448,11.00495 -16.864,16.368 -21.0335,17.76295 -0.6975,0.29453 -0.7905,0.79053 -0.7905,1.08505 v 22.42848"
     id="path1127"
     style="stroke-width:0.992" />
  <path
     class="Hook"
     d="m 1334.932,153.62038 c 0,0.682 0.589,1.2865 1.2865,1.2865 0.496,0 1.1005,-0.403 1.1935,-0.7905 0,-0.1085 0.899,-3.58051 0.992,-3.875 0.093,-0.403 0.992,-4.16951 4.557,-10.01305 3.875,-6.448 9.827,-11.11348 14.787,-18.05748 4.867,-6.944 7.843,-13.50052 7.843,-22.226949 0,-9.02105 -2.0925,-16.569575 -7.347,-26.19505 -0.2945,-0.697475 -0.899,-1.08495 -1.488,-1.08495 -0.2015,0 -0.403,0 -0.496,0.09295 -0.496,0.201475 -0.6975,0.604525 -0.6975,1.193475 0,0.294525 0.1085,0.790525 0.2945,1.193575 3.968,9.222425 5.5645,14.47695 5.5645,21.622425 0,8.230524 -2.883,12.508524 -4.6655,15.577574 -6.448,11.00495 -16.864,16.368 -21.0335,17.76295 -0.6975,0.29453 -0.7905,0.79053 -0.7905,1.08505 v 22.42848"
     id="path1129"
     style="stroke-width:0.992" />
  <path
     class="Hook"
     d="m 2258.602,153.62038 c 0,0.682 0.589,1.2865 1.2865,1.2865 0.496,0 1.1005,-0.403 1.1935,-0.7905 0,-0.1085 0.899,-3.58051 0.992,-3.875 0.093,-0.403 0.992,-4.16951 4.557,-10.01305 3.875,-6.448 9.827,-11.11348 14.787,-18.05748 4.867,-6.944 7.843,-13.50052 7.843,-22.226949 0,-9.02105 -2.0925,-16.569575 -7.347,-26.19505 -0.2945,-0.697475 -0.899,-1.08495 -1.488,-1.08495 -0.2015,0 -0.403,0 -0.496,0.09295 -0.496,0.201475 -0.6975,0.604525 -0.6975,1.193475 0,0.294525 0.1085,0.790525 0.2945,1.193575 3.968,9.222425 5.5645,14.47695 5.5645,21.622425 0,8.230524 -2.883,12.508524 -4.6655,15.577574 -6.448,11.00495 -16.864,16.368 -21.0335,17.76295 -0.6975,0.29453 -0.7905,0.79053 -0.7905,1.08505 v 22.42848"
     id="path1131"
     style="stroke-width:0.992" />
  <path
     class="Hook"
     d="m 2046.272,122.62038 c 0,0.682 0.589,1.2865 1.2865,1.2865 0.496,0 1.1005,-0.403 1.1935,-0.7905 0,-0.1085 0.899,-3.58051 0.992,-3.875 0.093,-0.403 0.992,-4.16951 4.557,-10.01305 3.875,-6.448 9.827,-11.113479 14.787,-18.057479 4.867,-6.944 7.843,-13.500525 7.843,-22.22695 0,-9.02105 -2.0925,-16.569575 -7.347,-26.19505 -0.2945,-0.697475 -0.899,-1.08495 -1.488,-1.08495 -0.2015,0 -0.403,0 -0.496,0.09295 -0.496,0.201475 -0.6975,0.604525 -0.6975,1.193475 0,0.294525 0.1085,0.790525 0.2945,1.193575 3.968,9.222425 5.5645,14.47695 5.5645,21.622425 0,8.230525 -2.883,12.508525 -4.6655,15.577575 -6.448,11.00495 -16.864,16.368 -21.0335,17.76295 -0.6975,0.294525 -0.7905,0.790525 -0.7905,1.085049 v 22.42848"
     id="path1133"
     style="stroke-width:0.992" />
  <path
     class="Hook"
     d="m 198.927,122.62038 c 0,0.682 0.589,1.2865 1.2865,1.2865 0.496,0 1.1005,-0.403 1.1935,-0.7905 0,-0.1085 0.899,-3.58051 0.992,-3.875 0.093,-0.403 0.992,-4.16951 4.557,-10.01305 3.875,-6.448 9.827,-11.113479 14.787,-18.057479 4.86705,-6.944 7.84305,-13.500525 7.84305,-22.22695 0,-9.02105 -2.09253,-16.569575 -7.34705,-26.19505 -0.29452,-0.697475 -0.89895,-1.08495 -1.488,-1.08495 -0.20148,0 -0.40295,0 -0.496,0.09295 -0.496,0.201475 -0.69748,0.604525 -0.69748,1.193475 0,0.294525 0.10853,0.790525 0.29453,1.193575 3.968,9.222425 5.56443,14.47695 5.56443,21.622425 0,8.230525 -2.88296,12.508525 -4.66548,15.577575 -6.448,11.00495 -16.864,16.368 -21.0335,17.76295 -0.6975,0.294525 -0.7905,0.790525 -0.7905,1.085049 v 22.42848"
     id="path1135"
     style="stroke-width:0.992" />
  <path
     class="Hook"
     d="m 1122.602,122.62038 c 0,0.682 0.589,1.2865 1.2865,1.2865 0.496,0 1.1005,-0.403 1.1935,-0.7905 0,-0.1085 0.899,-3.58051 0.992,-3.875 0.093,-0.403 0.992,-4.16951 4.557,-10.01305 3.875,-6.448 9.827,-11.113479 14.787,-18.057479 4.867,-6.944 7.843,-13.500525 7.843,-22.22695 0,-9.02105 -2.0925,-16.569575 -7.347,-26.19505 -0.2945,-0.697475 -0.899,-1.08495 -1.488,-1.08495 -0.2015,0 -0.403,0 -0.496,0.09295 -0.496,0.201475 -0.6975,0.604525 -0.6975,1.193475 0,0.294525 0.1085,0.790525 0.2945,1.193575 3.968,9.222425 5.5645,14.47695 5.5645,21.622425 0,8.230525 -2.883,12.508525 -4.6655,15.577575 -6.448,11.00495 -16.864,16.368 -21.0335,17.76295 -0.6975,0.294525 -0.7905,0.790525 -0.7905,1.085049 v 22.42848"
     id="path1137"
     style="stroke-width:0.992" />
  <path
     class="Note"
     d="m 198.927,40.082881 c 0,4.262495 3.069,9.02102 11.11348,9.02102 10.30757,0 21.12652,-8.43202 21.12652,-17.158525 0,-5.859 -4.96,-9.129475 -11.11348,-9.129475 -9.62547,0 -21.12652,8.137475 -21.12652,17.26698"
     id="path1139"
     style="stroke-width:0.992" />
  <path
     class="Note"
     d="m 894.612,126.88288 c 0,4.2625 3.069,9.02102 11.11348,9.02102 10.30757,0 21.12652,-8.43202 21.12652,-17.15852 0,-5.859 -4.96,-9.12948 -11.11348,-9.12948 -9.62547,0 -21.12652,8.13748 -21.12652,17.26698"
     id="path1141"
     style="stroke-width:0.992" />
  <path
     class="Note"
     d="m 2046.272,40.082881 c 0,4.262495 3.069,9.02102 11.1135,9.02102 10.3075,0 21.1265,-8.43202 21.1265,-17.158525 0,-5.859 -4.96,-9.129475 -11.1135,-9.129475 -9.6255,0 -21.1265,8.137475 -21.1265,17.26698"
     id="path1143"
     style="stroke-width:0.992" />
  <path
     class="Note"
     d="m 3322.312,139.28288 c 0,4.2625 3.069,9.02102 11.1135,9.02102 10.3075,0 21.1265,-8.43202 21.1265,-17.15852 0,-5.859 -4.96,-9.12948 -11.1135,-9.12948 -9.6255,0 -21.1265,8.13748 -21.1265,17.26698"
     id="path1145"
     style="stroke-width:0.992" />
  <path
     class="Note"
     d="m 3177.392,77.282881 c 0,4.262495 3.069,9.02102 11.1135,9.02102 10.3075,0 21.1265,-8.43202 21.1265,-17.158525 0,-5.859 -4.96,-9.129475 -11.1135,-9.129475 -9.6255,0 -21.1265,8.137475 -21.1265,17.26698"
     id="path1147"
     style="stroke-width:0.992" />
  <path
     class="Note"
     d="m 411.26,77.282881 c 0,4.262495 3.069,9.02102 11.11348,9.02102 10.30757,0 21.12652,-8.43202 21.12652,-17.158525 0,-5.859 -4.96,-9.129475 -11.11348,-9.129475 -9.62547,0 -21.12652,8.137475 -21.12652,17.26698"
     id="path1149"
     style="stroke-width:0.992" />
  <path
     class="Note"
     d="m 663.148,89.682881 c 0,4.262495 3.069,9.02102 11.11348,9.02102 10.30757,0 21.12652,-8.43202 21.12652,-17.158525 0,-5.859 -4.96,-9.129475 -11.11348,-9.129475 -9.62547,0 -21.12652,8.137475 -21.12652,17.26698"
     id="path1151"
     style="stroke-width:0.992" />
  <path
     class="Note"
     d="m 2258.602,77.282881 c 0,4.262495 3.069,9.02102 11.1135,9.02102 10.3075,0 21.1265,-8.43202 21.1265,-17.158525 0,-5.859 -4.96,-9.129475 -11.1135,-9.129475 -9.6255,0 -21.1265,8.137475 -21.1265,17.26698"
     id="path1153"
     style="stroke-width:0.992" />
  <path
     class="Note"
     d="m 3420.312,126.88288 c 0,4.2625 3.069,9.02102 11.1135,9.02102 10.3075,0 21.1265,-8.43202 21.1265,-17.15852 0,-5.859 -4.96,-9.12948 -11.1135,-9.12948 -9.6255,0 -21.1265,8.13748 -21.1265,17.26698"
     id="path1155"
     style="stroke-width:0.992" />
  <path
     class="Note"
     d="m 1334.932,77.282881 c 0,4.262495 3.069,9.02102 11.1135,9.02102 10.3075,0 21.1265,-8.43202 21.1265,-17.158525 0,-5.859 -4.96,-9.129475 -11.1135,-9.129475 -9.6255,0 -21.1265,8.137475 -21.1265,17.26698"
     id="path1157"
     style="stroke-width:0.992" />
  <path
     class="Note"
     d="m 2510.492,89.682881 c 0,4.262495 3.069,9.02102 11.1135,9.02102 10.3075,0 21.1265,-8.43202 21.1265,-17.158525 0,-5.859 -4.96,-9.129475 -11.1135,-9.129475 -9.6255,0 -21.1265,8.137475 -21.1265,17.26698"
     id="path1159"
     style="stroke-width:0.992" />
  <path
     class="Note"
     d="m 1122.602,40.082881 c 0,4.262495 3.069,9.02102 11.1135,9.02102 10.3075,0 21.1265,-8.43202 21.1265,-17.158525 0,-5.859 -4.96,-9.129475 -11.1135,-9.129475 -9.6255,0 -21.1265,8.137475 -21.1265,17.26698"
     id="path1161"
     style="stroke-width:0.992" />
  <path
     class="Note"
     d="m 1720.282,52.482881 c 0,4.262495 3.069,9.02102 11.1135,9.02102 10.3075,0 21.1265,-8.43202 21.1265,-17.158525 0,-5.859 -4.96,-9.129475 -11.1135,-9.129475 -9.6255,0 -21.1265,8.137475 -21.1265,17.26698"
     id="path1163"
     style="stroke-width:0.992" />
  <path
     class="Note"
     d="m 2643.952,77.282881 c 0,4.262495 3.069,9.02102 11.1135,9.02102 10.3075,0 21.1265,-8.43202 21.1265,-17.158525 0,-5.859 -4.96,-9.129475 -11.1135,-9.129475 -9.6255,0 -21.1265,8.137475 -21.1265,17.26698"
     id="path1165"
     style="stroke-width:0.992" />
  <path
     class="Note"
     d="m 1586.822,27.682881 c 0,4.262495 3.069,9.02102 11.1135,9.02102 10.3075,0 21.1265,-8.43202 21.1265,-17.158525 0,-5.859 -4.96,-9.129475 -11.1135,-9.129475 -9.6255,0 -21.1265,8.137475 -21.1265,17.26698"
     id="path1167"
     style="stroke-width:0.992" />
  <path
     class="Note"
     d="m 2741.952,126.88288 c 0,4.2625 3.069,9.02102 11.1135,9.02102 10.3075,0 21.1265,-8.43202 21.1265,-17.15852 0,-5.859 -4.96,-9.12948 -11.1135,-9.12948 -9.6255,0 -21.1265,8.13748 -21.1265,17.26698"
     id="path1169"
     style="stroke-width:0.992" />
  <path
     class="Note"
     d="m 796.612,77.282881 c 0,4.262495 3.069,9.02102 11.11348,9.02102 10.30757,0 21.12652,-8.43202 21.12652,-17.158525 0,-5.859 -4.96,-9.129475 -11.11348,-9.129475 -9.62547,0 -21.12652,8.137475 -21.12652,17.26698"
     id="path1171"
     style="stroke-width:0.992" />
  <path
     class="Note"
     d="m 2981.392,102.08288 c 0,4.2625 3.069,9.02102 11.1135,9.02102 10.3075,0 21.1265,-8.43202 21.1265,-17.158524 0,-5.859 -4.96,-9.129475 -11.1135,-9.129475 -9.6255,0 -21.1265,8.137475 -21.1265,17.266979"
     id="path1173"
     style="stroke-width:0.992" />
  <path
     class="Note"
     d="m 1818.282,77.282881 c 0,4.262495 3.069,9.02102 11.1135,9.02102 10.3075,0 21.1265,-8.43202 21.1265,-17.158525 0,-5.859 -4.96,-9.129475 -11.1135,-9.129475 -9.6255,0 -21.1265,8.137475 -21.1265,17.26698"
     id="path1175"
     style="stroke-width:0.992" />
  <path
     class="Note"
     d="m 3079.392,89.682881 c 0,4.262495 3.069,9.02102 11.1135,9.02102 10.3075,0 21.1265,-8.43202 21.1265,-17.158525 0,-5.859 -4.96,-9.129475 -11.1135,-9.129475 -9.6255,0 -21.1265,8.137475 -21.1265,17.26698"
     id="path1177"
     style="stroke-width:0.992" />
  <path
     class="Clef"
     d="m 60.558525,181.44285 c 0,-3.67347 -3.363475,-5.25442 -6.634,-5.25442 -4.169475,0 -8.246,2.57295 -8.246,7.03695 0,1.89105 0.697475,3.286 2.092525,4.66547 -2.588525,0.992 -5.161575,2.976 -5.161575,6.06053 0,3.27052 2.976,5.456 7.34705,5.456 5.347475,0 9.114,-2.976 9.114,-7.254 0,-2.27853 -0.992,-4.154 -2.774525,-5.456 2.88305,-1.28653 4.262525,-2.86748 4.262525,-5.25453 m -9.92,15.872 c -2.17,0 -3.658,-1.37947 -3.658,-3.472 0,-1.984 0.883475,-3.56495 2.57295,-4.55695 0.40305,0.20148 0.496,0.20148 0.790525,0.38748 1.193475,0.60452 1.193475,0.60452 1.39505,0.806 1.875475,1.08505 2.681475,2.07705 2.681475,3.472 0,1.87547 -1.596525,3.36347 -3.782,3.36347 m 3.782,-11.904 c -1.488,-0.79042 -1.89105,-0.992 -2.185475,-1.19347 l -0.201575,-0.093 c -1.488,-0.89905 -1.984,-1.59653 -1.984,-2.77453 0,-1.798 1.39505,-3.08452 3.37905,-3.08452 1.875475,0 3.06895,1.19347 3.06895,3.27052 0,1.59653 -0.58895,2.68148 -2.07695,3.87495 M 82.088,110.11188 c 0,-14.973029 -10.617475,-25.094504 -25.094525,-25.094504 -0.992,-5.952 -1.89095,-11.81105 -2.774425,-17.36 10.416,-11.020525 17.747475,-23.513475 17.747475,-39.184 0,-9.036525 -2.774525,-16.368 -4.464,-19.948128 C 65.13105,3.472 62.248,0 60.558525,0 c -0.682,0 -3.859475,1.193376 -7.03705,5.053248 -6.448,7.548128 -8.230425,20.134128 -8.230425,28.473078 0,5.36305 0.496,10.214525 2.185475,21.436525 -0.108525,0 -5.27,5.254525 -7.34705,7.03705 C 31.09305,70.338851 18.6,82.428851 18.6,102.17587 c 0,18.64656 16.166525,33.23203 34.62705,33.23203 2.867475,0 5.54895,-0.29452 7.936,-0.69747 1.782425,9.43947 2.976,16.47642 2.976,21.73095 0,10.32305 -5.36305,15.77905 -15.376,15.77905 -2.38705,0 -4.464,-0.496 -4.665575,-0.60453 -0.09295,0 -0.294425,-0.0931 -0.294425,-0.186 0,-0.20147 0.201475,-0.31 0.496,-0.40305 4.665475,-0.69747 9.315475,-4.75842 9.315475,-11.00495 0,-5.36305 -4.06105,-11.02052 -11.50105,-11.02052 -6.944,0 -11.31495,5.65747 -11.31495,12.19852 0,6.55653 4.96,15.19 18.352,15.19 12.80295,0 19.049475,-7.254 19.049475,-19.94852 0,-3.85948 -0.58895,-8.32348 -1.58095,-13.98095 -0.294525,-1.984 -0.790525,-5.06853 -1.488,-8.83505 9.718425,-3.27053 16.95695,-13.29895 16.95695,-23.5135 M 51.537475,28.767901 c 0.992,-3.968 5.456,-14.384 10.617575,-14.384 1.488,0 3.968,4.758425 3.968,11.702425 0,10.214525 -7.734525,17.964525 -14.585575,24.8 -0.58895,-3.968 -1.08495,-7.936 -1.08495,-11.99695 0,-3.766525 0.387475,-7.052525 1.08495,-10.121475 m 2.976,102.578949 c -14.182425,0 -26.28797,-9.92 -26.28797,-24.90847 0,-12.090054 8.52502,-22.909004 17.26702,-30.550479 1.674,-1.39505 3.270525,-2.774525 4.758525,-4.262525 0.883475,5.347475 1.58095,9.92 2.278425,14.089475 -9.036425,2.57305 -15.174425,12.198525 -15.174425,21.421019 0,7.05251 5.456,16.56951 13.392,16.56951 0.790425,0 1.689475,-0.40295 1.689475,-1.39495 0,-0.79053 -0.89905,-1.37958 -2.185475,-2.17005 -3.87505,-2.294 -6.060525,-4.96 -6.060525,-9.734 0,-6.045 4.572525,-10.912054 10.32295,-12.291529 L 60.264,130.64938 c -1.984,0.40305 -3.766525,0.69747 -5.750525,0.69747 m 9.92,-1.89095 c -2.07695,-11.79552 -4.758425,-27.57452 -5.456,-31.945574 10.01305,0 14.29105,6.944054 15.174525,11.718054 0.108525,0.7905 0.294525,1.8755 0.294525,3.069 0,7.1455 -2.976,14.29105 -10.01305,17.15852"
     id="path1179"
     style="stroke-width:0.992" />
  <path
     class="TimeSig"
     d="m 136.38448,59.628376 c 7.936,-3.084505 8.432,-8.246 8.432,-10.028475 0,-0.201575 0,-0.387575 0,-0.496 0,-0.883575 -0.29443,-12.105575 -17.36,-12.105575 -17.06548,0 -16.56948,12.105575 -16.56948,12.105575 h 0.093 l -0.093,0.201475 c 0,3.565 2.883,6.355 6.448,6.355 3.56505,0 6.35505,-2.79 6.35505,-6.355 0,-2.88305 -2.18557,-5.657475 -4.96005,-6.246525 0.093,-0.108525 0.186,-0.201475 0.2945,-0.294525 1.37955,-0.992 3.2705,-1.488 5.16155,-1.488 4.154,0 8.618,2.48 8.618,7.827575 0,6.246475 -4.65,7.145475 -5.84357,7.34697 -1.19348,0.201505 -6.74243,0.589 -7.93598,0.589 -1.1935,0 -1.2865,1.395 -1.2865,1.395 v 1.984005 c 0,0 0.186,1.085 1.2865,1.1935 1.68955,0.093 3.96798,0.093 7.14555,0.589 4.35547,0.589 6.634,3.565 6.634,10.50905 0,6.649475 -4.464,8.432 -8.618,8.432 -2.79,0 -5.36305,-0.790525 -6.44805,-1.58105 3.27048,-0.201475 5.95205,-3.06895 5.95205,-6.35495 0,-3.56505 -2.79,-6.44805 -6.35505,-6.44805 -3.565,0 -6.448,2.883 -6.448,6.44805 0,0 0,0.201475 0,0.40295 0,1.286525 0.2945,4.86705 3.875,8.137475 3.8595,3.56505 8.72648,3.673575 10.91205,3.673575 9.51695,0 19.84,-3.286 19.84,-14.089575 0,-7.238475 -4.96,-10.322975 -9.33105,-11.702475 h 0.20148"
     id="path1181"
     style="stroke-width:0.992" />
  <path
     class="TimeSig"
     d="m 126.12352,122.91485 v 7.33158 H 117.893 c -0.69748,0 -1.39495,0.60442 -1.39495,1.39495 v 1.89105 c 0,0.79042 0.69747,1.37947 1.39495,1.37947 h 30.05452 c 0.806,0 1.39496,-0.58905 1.39496,-1.37947 v -1.89105 c 0,-0.79053 -0.58896,-1.39495 -1.39496,-1.39495 h -8.928 v -7.33158 h 8.928 c 0.806,0 1.39496,-0.69747 1.39496,-1.488 v -1.89097 c 0,-0.6975 -0.58896,-1.3795 -1.39496,-1.3795 h -8.928 v -15.779 c 0,-0.589 -0.29452,-1.085 -0.682,-1.28651 l -1.19347,-0.60449 c -0.20157,-0.093 -0.29453,-0.093 -0.496,-0.093 -0.10853,0 -0.10853,0 -0.20157,0 -0.29443,0 -0.69748,0.093 -0.89896,0.29449 l -9.02104,8.23051 c -0.29443,0.31 -0.40296,0.6975 -0.40296,1.1005 v 8.1375 H 114.6225 c 0,0 11.11355,-11.904 22.81598,-27.590054 0.40304,-0.496 0.496,-0.992 0.496,-1.379475 0,-0.496 -0.20148,-0.89895 -0.29443,-0.992 l -2.18557,-2.185475 c -0.29443,-0.201475 -0.58896,-0.40305 -0.992,-0.40305 -0.58896,0 -13.99643,0 -14.78696,0 -0.69747,0 -1.19347,0.604525 -1.28652,1.193575 0,0 -0.496,7.34695 -3.069,15.375969 -2.5885,8.04451 -5.5645,13.00451 -8.1375,16.66251 0,0 -0.2945,0.496 -0.2945,1.1005 0,0.2015 0,0.38755 0.093,0.58902 0.2945,0.69748 0.992,1.78253 0.992,1.78253 0,0 0.2015,0.60442 1.085,0.60442 h 17.06552"
     id="path1183"
     style="stroke-width:0.992" />
  <path
     class="Rest"
     d="m 1969.0015,65.378851 c -0.093,0 -0.2945,-0.108525 -0.403,-0.108525 -0.589,0 -1.085,0.31 -1.2865,0.806 -0.403,0.58905 -3.472,6.448 -7.936,9.718545 -1.2865,0.992 -2.883,1.689505 -4.464,1.984 1.085,-1.286495 1.7825,-2.88297 1.7825,-4.758545 0,-3.87495 -3.1775,-7.052425 -7.037,-7.052425 -3.968,0 -7.1455,3.177475 -7.1455,7.052425 0,3.06905 1.891,5.54905 4.464,6.63405 1.488,0.697495 3.472,1.193495 5.456,1.193495 2.883,0 5.952,-0.883495 8.6335,-2.867495 1.1935,-0.899 2.3715,-2.092505 3.472,-3.28605 l -11.315,35.324524 2.6815,0.79053 13.888,-43.741054 c 0.1085,-0.108425 0.1085,-0.31 0.1085,-0.496 0,-0.496 -0.31,-0.89895 -0.899,-1.193475"
     id="path1185"
     style="stroke-width:0.992" />
  <path
     class="Rest"
     d="m 2892.6715,65.378851 c -0.093,0 -0.2945,-0.108525 -0.403,-0.108525 -0.589,0 -1.085,0.31 -1.2865,0.806 -0.403,0.58905 -3.472,6.448 -7.936,9.718545 -1.2865,0.992 -2.883,1.689505 -4.464,1.984 1.085,-1.286495 1.7825,-2.88297 1.7825,-4.758545 0,-3.87495 -3.1775,-7.052425 -7.037,-7.052425 -3.968,0 -7.1455,3.177475 -7.1455,7.052425 0,3.06905 1.891,5.54905 4.464,6.63405 1.488,0.697495 3.472,1.193495 5.456,1.193495 2.883,0 5.952,-0.883495 8.6335,-2.867495 1.1935,-0.899 2.3715,-2.092505 3.472,-3.28605 l -11.315,35.324524 2.6815,0.79053 13.888,-43.741054 c 0.1085,-0.108425 0.1085,-0.31 0.1085,-0.496 0,-0.496 -0.31,-0.89895 -0.899,-1.193475"
     id="path1187"
     style="stroke-width:0.992" />
  <path
     class="Rest"
     d="m 2363.492,84.521376 c 0,1.395 0,1.395 1.395,1.395 h 29.4655 c 1.3795,0 1.3795,0 1.3795,-1.395 V 73.810851 c 0,-1.39495 0,-1.39495 -1.3795,-1.39495 h -29.4655 c -1.395,0 -1.395,0 -1.395,1.39495 v 10.710525"
     id="path1189"
     style="stroke-width:0.992" />
  <path
     class="Rest"
     d="m 264.26,84.521376 c 0,1.395 0,1.395 1.395,1.395 h 29.46552 c 1.37948,0 1.37948,0 1.37948,-1.395 V 73.810851 c 0,-1.39495 0,-1.39495 -1.37948,-1.39495 H 265.655 c -1.395,0 -1.395,0 -1.395,1.39495 v 10.710525"
     id="path1191"
     style="stroke-width:0.992" />
  <path
     class="Rest"
     d="m 2111.602,84.521376 c 0,1.395 0,1.395 1.395,1.395 h 29.4655 c 1.3795,0 1.3795,0 1.3795,-1.395 V 73.810851 c 0,-1.39495 0,-1.39495 -1.3795,-1.39495 h -29.4655 c -1.395,0 -1.395,0 -1.395,1.39495 v 10.710525"
     id="path1193"
     style="stroke-width:0.992" />
  <path
     class="Rest"
     d="m 1187.932,84.521376 c 0,1.395 0,1.395 1.395,1.395 h 29.4655 c 1.3795,0 1.3795,0 1.3795,-1.395 V 73.810851 c 0,-1.39495 0,-1.39495 -1.3795,-1.39495 h -29.4655 c -1.395,0 -1.395,0 -1.395,1.39495 v 10.710525"
     id="path1195"
     style="stroke-width:0.992" />
  <path
     class="Rest"
     d="m 1439.822,84.521376 c 0,1.395 0,1.395 1.395,1.395 h 29.4655 c 1.3795,0 1.3795,0 1.3795,-1.395 V 73.810851 c 0,-1.39495 0,-1.39495 -1.3795,-1.39495 h -29.4655 c -1.395,0 -1.395,0 -1.395,1.39495 v 10.710525"
     id="path1197"
     style="stroke-width:0.992" />
  <path
     class="Rest"
     d="m 1045.3315,65.378851 c -0.093,0 -0.2945,-0.108525 -0.403,-0.108525 -0.589,0 -1.085,0.31 -1.2865,0.806 -0.403,0.58905 -3.472,6.448 -7.936,9.718545 -1.2865,0.992 -2.883,1.689505 -4.464,1.984 1.085,-1.286495 1.7825,-2.88297 1.7825,-4.758545 0,-3.87495 -3.1775,-7.052425 -7.037,-7.052425 -3.968,0 -7.1455,3.177475 -7.1455,7.052425 0,3.06905 1.891,5.54905 4.464,6.63405 1.488,0.697495 3.472,1.193495 5.456,1.193495 2.883,0 5.952,-0.883495 8.6335,-2.867495 1.1935,-0.899 2.3715,-2.092505 3.472,-3.28605 l -11.315,35.324524 2.6815,0.79053 13.888,-43.741054 c 0.1085,-0.108425 0.1085,-0.31 0.1085,-0.496 0,-0.496 -0.31,-0.89895 -0.899,-1.193475"
     id="path1199"
     style="stroke-width:0.992" />
  <path
     class="Rest"
     d="m 3571.0315,65.378851 c -0.093,0 -0.2945,-0.108525 -0.403,-0.108525 -0.589,0 -1.085,0.31 -1.2865,0.806 -0.403,0.58905 -3.472,6.448 -7.936,9.718545 -1.2865,0.992 -2.883,1.689505 -4.464,1.984 1.085,-1.286495 1.7825,-2.88297 1.7825,-4.758545 0,-3.87495 -3.1775,-7.052425 -7.037,-7.052425 -3.968,0 -7.1455,3.177475 -7.1455,7.052425 0,3.06905 1.891,5.54905 4.464,6.63405 1.488,0.697495 3.472,1.193495 5.456,1.193495 2.883,0 5.952,-0.883495 8.6335,-2.867495 1.1935,-0.899 2.3715,-2.092505 3.472,-3.28605 l -11.315,35.324524 2.6815,0.79053 13.888,-43.741054 c 0.1085,-0.108425 0.1085,-0.31 0.1085,-0.496 0,-0.496 -0.31,-0.89895 -0.899,-1.193475"
     id="path1201"
     style="stroke-width:0.992" />
  <path
     class="Rest"
     d="m 516.148,84.521376 c 0,1.395 0,1.395 1.395,1.395 h 29.46552 c 1.37948,0 1.37948,0 1.37948,-1.395 V 73.810851 c 0,-1.39495 0,-1.39495 -1.37948,-1.39495 H 517.543 c -1.395,0 -1.395,0 -1.395,1.39495 v 10.710525"
     id="path1203"
     style="stroke-width:0.992" />
  <path
     class="NoteDot"
     d="m 1862.902,73.113376 c 0,2.774505 2.1855,4.96 4.96,4.96 2.7745,0 4.96,-2.185495 4.96,-4.96 0,-2.774505 -2.1855,-4.96 -4.96,-4.96 -2.7745,0 -4.96,2.185495 -4.96,4.96"
     id="path1205"
     style="stroke-width:0.992" />
  <path
     class="NoteDot"
     d="m 2786.582,122.71338 c 0,2.7745 2.1855,4.96 4.96,4.96 2.7745,0 4.96,-2.1855 4.96,-4.96 0,-2.77451 -2.1855,-4.96 -4.96,-4.96 -2.7745,0 -4.96,2.18549 -4.96,4.96"
     id="path1207"
     style="stroke-width:0.992" />
  <path
     class="NoteDot"
     d="m 939.232,122.71338 c 0,2.7745 2.1855,4.96 4.96,4.96 2.7745,0 4.96,-2.1855 4.96,-4.96 0,-2.77451 -2.1855,-4.96 -4.96,-4.96 -2.7745,0 -4.96,2.18549 -4.96,4.96"
     id="path1209"
     style="stroke-width:0.992" />
  <path
     class="NoteDot"
     d="m 3464.942,122.71338 c 0,2.7745 2.1855,4.96 4.96,4.96 2.7745,0 4.96,-2.1855 4.96,-4.96 0,-2.77451 -2.1855,-4.96 -4.96,-4.96 -2.7745,0 -4.96,2.18549 -4.96,4.96"
     id="path1211"
     style="stroke-width:0.992" />
</svg>
