<?xml version="1.0" encoding="UTF-8" standalone="no"?>
<svg
   xmlns:dc="http://purl.org/dc/elements/1.1/"
   xmlns:cc="http://creativecommons.org/ns#"
   xmlns:rdf="http://www.w3.org/1999/02/22-rdf-syntax-ns#"
   xmlns:svg="http://www.w3.org/2000/svg"
   xmlns="http://www.w3.org/2000/svg"
   xmlns:sodipodi="http://sodipodi.sourceforge.net/DTD/sodipodi-0.dtd"
   xmlns:inkscape="http://www.inkscape.org/namespaces/inkscape"
   width="258.20526mm"
   height="12.445288mm"
   viewBox="0 0 3659.6022 176.38991"
   version="1.2"
   id="svg1465"
   sodipodi:docname="Dossium Canto Kinks Musica.svg"
   inkscape:version="1.0.2-2 (e86c870879, 2021-01-15)">
  <metadata
     id="metadata1471">
    <rdf:RDF>
      <cc:Work
         rdf:about="">
        <dc:format>image/svg+xml</dc:format>
        <dc:type
           rdf:resource="http://purl.org/dc/dcmitype/StillImage" />
      </cc:Work>
    </rdf:RDF>
  </metadata>
  <defs
     id="defs1469" />
  <sodipodi:namedview
     pagecolor="#ffffff"
     bordercolor="#666666"
     borderopacity="1"
     objecttolerance="10"
     gridtolerance="10"
     guidetolerance="10"
     inkscape:pageopacity="0"
     inkscape:pageshadow="2"
     inkscape:window-width="1920"
     inkscape:window-height="991"
     id="namedview1467"
     showgrid="false"
     inkscape:zoom="0.94988596"
     inkscape:cx="471.36053"
     inkscape:cy="237.41743"
     inkscape:window-x="-9"
     inkscape:window-y="-9"
     inkscape:window-maximized="1"
     inkscape:current-layer="svg1465" />
  <title
     id="title1153">Dossium Canto Kinks Musica</title>
  <desc
     id="desc1155">Generated by MuseScore Studio 4.5.2</desc>
  <polyline
     class="StaffLines"
     fill="none"
     stroke="#000000"
     stroke-width="2.73"
     stroke-linejoin="bevel"
     points="336.598,634.198 3996.2,634.198"
     id="polyline1157"
     transform="translate(-336.598,-598.28462)" />
  <polyline
     class="StaffLines"
     fill="none"
     stroke="#000000"
     stroke-width="2.73"
     stroke-linejoin="bevel"
     points="336.598,658.998 3996.2,658.998"
     id="polyline1159"
     transform="translate(-336.598,-598.28462)" />
  <polyline
     class="StaffLines"
     fill="none"
     stroke="#000000"
     stroke-width="2.73"
     stroke-linejoin="bevel"
     points="336.598,683.798 3996.2,683.798"
     id="polyline1161"
     transform="translate(-336.598,-598.28462)" />
  <polyline
     class="StaffLines"
     fill="none"
     stroke="#000000"
     stroke-width="2.73"
     stroke-linejoin="bevel"
     points="336.598,708.598 3996.2,708.598"
     id="polyline1163"
     transform="translate(-336.598,-598.28462)" />
  <polyline
     class="StaffLines"
     fill="none"
     stroke="#000000"
     stroke-width="2.73"
     stroke-linejoin="bevel"
     points="336.598,733.398 3996.2,733.398"
     id="polyline1165"
     transform="translate(-336.598,-598.28462)" />
  <polyline
     class="BarLine"
     fill="none"
     stroke="#000000"
     stroke-width="4.46"
     stroke-linejoin="bevel"
     points="1384.53,632.834 1384.53,734.762"
     id="polyline1175"
     transform="translate(-336.598,-598.28462)" />
  <polyline
     class="BarLine"
     fill="none"
     stroke="#000000"
     stroke-width="4.46"
     stroke-linejoin="bevel"
     points="3971.15,632.834 3971.15,734.762"
     id="polyline1177"
     transform="translate(-336.598,-598.28462)" />
  <polyline
     class="BarLine"
     fill="none"
     stroke="#000000"
     stroke-width="13.64"
     stroke-linejoin="bevel"
     points="3989.38,632.834 3989.38,734.762"
     id="polyline1179"
     transform="translate(-336.598,-598.28462)" />
  <polyline
     class="BarLine"
     fill="none"
     stroke="#000000"
     stroke-width="4.46"
     stroke-linejoin="bevel"
     points="2205.4,632.834 2205.4,734.762"
     id="polyline1181"
     transform="translate(-336.598,-598.28462)" />
  <polyline
     class="BarLine"
     fill="none"
     stroke="#000000"
     stroke-width="4.46"
     stroke-linejoin="bevel"
     points="3026.27,632.834 3026.27,734.762"
     id="polyline1183"
     transform="translate(-336.598,-598.28462)" />
  <polyline
     class="LedgerLine"
     fill="none"
     stroke="#000000"
     stroke-width="3.97"
     stroke-linejoin="bevel"
     points="1630.04,758.198 1678.63,758.198"
     id="polyline1185"
     transform="translate(-336.598,-598.28462)" />
  <polyline
     class="LedgerLine"
     fill="none"
     stroke="#000000"
     stroke-width="3.97"
     stroke-linejoin="bevel"
     points="3464.69,758.198 3513.28,758.198"
     id="polyline1187"
     transform="translate(-336.598,-598.28462)" />
  <polyline
     class="LedgerLine"
     fill="none"
     stroke="#000000"
     stroke-width="3.97"
     stroke-linejoin="bevel"
     points="2423.35,758.198 2471.95,758.198"
     id="polyline1189"
     transform="translate(-336.598,-598.28462)" />
  <polyline
     class="LedgerLine"
     fill="none"
     stroke="#000000"
     stroke-width="3.97"
     stroke-linejoin="bevel"
     points="3354.46,758.198 3403.05,758.198"
     id="polyline1191"
     transform="translate(-336.598,-598.28462)" />
  <polyline
     class="LedgerLine"
     fill="none"
     stroke="#000000"
     stroke-width="3.97"
     stroke-linejoin="bevel"
     points="588.706,758.198 637.298,758.198"
     id="polyline1193"
     transform="translate(-336.598,-598.28462)" />
  <polyline
     class="LedgerLine"
     fill="none"
     stroke="#000000"
     stroke-width="3.97"
     stroke-linejoin="bevel"
     points="3161.55,758.198 3210.14,758.198"
     id="polyline1195"
     transform="translate(-336.598,-598.28462)" />
  <polyline
     class="LedgerLine"
     fill="none"
     stroke="#000000"
     stroke-width="3.97"
     stroke-linejoin="bevel"
     points="2230.45,758.198 2279.04,758.198"
     id="polyline1197"
     transform="translate(-336.598,-598.28462)" />
  <polyline
     class="LedgerLine"
     fill="none"
     stroke="#000000"
     stroke-width="3.97"
     stroke-linejoin="bevel"
     points="3051.32,758.198 3099.91,758.198"
     id="polyline1199"
     transform="translate(-336.598,-598.28462)" />
  <polyline
     class="LedgerLine"
     fill="none"
     stroke="#000000"
     stroke-width="3.97"
     stroke-linejoin="bevel"
     points="671.38,758.198 719.973,758.198"
     id="polyline1201"
     transform="translate(-336.598,-598.28462)" />
  <polyline
     class="LedgerLine"
     fill="none"
     stroke="#000000"
     stroke-width="3.97"
     stroke-linejoin="bevel"
     points="2313.12,758.198 2361.71,758.198"
     id="polyline1203"
     transform="translate(-336.598,-598.28462)" />
  <polyline
     class="LedgerLine"
     fill="none"
     stroke="#000000"
     stroke-width="3.97"
     stroke-linejoin="bevel"
     points="1409.58,758.198 1458.17,758.198"
     id="polyline1205"
     transform="translate(-336.598,-598.28462)" />
  <polyline
     class="LedgerLine"
     fill="none"
     stroke="#000000"
     stroke-width="3.97"
     stroke-linejoin="bevel"
     points="781.613,758.198 830.205,758.198"
     id="polyline1207"
     transform="translate(-336.598,-598.28462)" />
  <polyline
     class="LedgerLine"
     fill="none"
     stroke="#000000"
     stroke-width="3.97"
     stroke-linejoin="bevel"
     points="3878.06,758.198 3926.65,758.198"
     id="polyline1209"
     transform="translate(-336.598,-598.28462)" />
  <polyline
     class="LedgerLine"
     fill="none"
     stroke="#000000"
     stroke-width="3.97"
     stroke-linejoin="bevel"
     points="891.845,758.198 940.438,758.198"
     id="polyline1211"
     transform="translate(-336.598,-598.28462)" />
  <polyline
     class="LedgerLine"
     fill="none"
     stroke="#000000"
     stroke-width="3.97"
     stroke-linejoin="bevel"
     points="1519.81,758.198 1568.4,758.198"
     id="polyline1213"
     transform="translate(-336.598,-598.28462)" />
  <polyline
     class="LedgerLine"
     fill="none"
     stroke="#000000"
     stroke-width="3.97"
     stroke-linejoin="bevel"
     points="3767.83,758.198 3816.42,758.198"
     id="polyline1215"
     transform="translate(-336.598,-598.28462)" />
  <polyline
     class="LedgerLine"
     fill="none"
     stroke="#000000"
     stroke-width="3.97"
     stroke-linejoin="bevel"
     points="2533.59,758.198 2582.18,758.198"
     id="polyline1217"
     transform="translate(-336.598,-598.28462)" />
  <polyline
     class="LedgerLine"
     fill="none"
     stroke="#000000"
     stroke-width="3.97"
     stroke-linejoin="bevel"
     points="3657.6,758.198 3706.19,758.198"
     id="polyline1219"
     transform="translate(-336.598,-598.28462)" />
  <polyline
     class="Stem"
     fill="none"
     stroke="#000000"
     stroke-width="2.48"
     stroke-linejoin="bevel"
     points="2655.43,704.63 2655.43,634.198"
     id="polyline1221"
     transform="translate(-336.598,-598.28462)" />
  <polyline
     class="Stem"
     fill="none"
     stroke="#000000"
     stroke-width="2.48"
     stroke-linejoin="bevel"
     points="2710.54,704.63 2710.54,634.198"
     id="polyline1223"
     transform="translate(-336.598,-598.28462)" />
  <polyline
     class="Stem"
     fill="none"
     stroke="#000000"
     stroke-width="2.48"
     stroke-linejoin="bevel"
     points="2765.66,704.63 2765.66,634.198"
     id="polyline1225"
     transform="translate(-336.598,-598.28462)" />
  <polyline
     class="Stem"
     fill="none"
     stroke="#000000"
     stroke-width="2.48"
     stroke-linejoin="bevel"
     points="2848.34,704.63 2848.34,621.997"
     id="polyline1227"
     transform="translate(-336.598,-598.28462)" />
  <polyline
     class="Stem"
     fill="none"
     stroke="#000000"
     stroke-width="2.48"
     stroke-linejoin="bevel"
     points="627.874,754.23 627.874,658.998"
     id="polyline1229"
     transform="translate(-336.598,-598.28462)" />
  <polyline
     class="Stem"
     fill="none"
     stroke="#000000"
     stroke-width="2.48"
     stroke-linejoin="bevel"
     points="2931.01,704.63 2931.01,621.798"
     id="polyline1231"
     transform="translate(-336.598,-598.28462)" />
  <polyline
     class="Stem"
     fill="none"
     stroke="#000000"
     stroke-width="2.48"
     stroke-linejoin="bevel"
     points="3090.49,754.23 3090.49,640.364"
     id="polyline1233"
     transform="translate(-336.598,-598.28462)" />
  <polyline
     class="Stem"
     fill="none"
     stroke="#000000"
     stroke-width="2.48"
     stroke-linejoin="bevel"
     points="710.549,754.23 710.549,658.998"
     id="polyline1235"
     transform="translate(-336.598,-598.28462)" />
  <polyline
     class="Stem"
     fill="none"
     stroke="#000000"
     stroke-width="2.48"
     stroke-linejoin="bevel"
     points="3145.6,729.43 3145.6,638.831"
     id="polyline1237"
     transform="translate(-336.598,-598.28462)" />
  <polyline
     class="Stem"
     fill="none"
     stroke="#000000"
     stroke-width="2.48"
     stroke-linejoin="bevel"
     points="765.665,729.43 765.665,658.998"
     id="polyline1239"
     transform="translate(-336.598,-598.28462)" />
  <polyline
     class="Stem"
     fill="none"
     stroke="#000000"
     stroke-width="2.48"
     stroke-linejoin="bevel"
     points="3200.72,754.23 3200.72,637.298"
     id="polyline1241"
     transform="translate(-336.598,-598.28462)" />
  <polyline
     class="Stem"
     fill="none"
     stroke="#000000"
     stroke-width="2.48"
     stroke-linejoin="bevel"
     points="820.781,754.23 820.781,658.998"
     id="polyline1243"
     transform="translate(-336.598,-598.28462)" />
  <polyline
     class="Stem"
     fill="none"
     stroke="#000000"
     stroke-width="2.48"
     stroke-linejoin="bevel"
     points="3255.83,729.43 3255.83,635.766"
     id="polyline1245"
     transform="translate(-336.598,-598.28462)" />
  <polyline
     class="Stem"
     fill="none"
     stroke="#000000"
     stroke-width="2.48"
     stroke-linejoin="bevel"
     points="875.897,729.43 875.897,658.998"
     id="polyline1247"
     transform="translate(-336.598,-598.28462)" />
  <polyline
     class="Stem"
     fill="none"
     stroke="#000000"
     stroke-width="2.48"
     stroke-linejoin="bevel"
     points="3310.95,704.63 3310.95,634.233"
     id="polyline1249"
     transform="translate(-336.598,-598.28462)" />
  <polyline
     class="Stem"
     fill="none"
     stroke="#000000"
     stroke-width="2.48"
     stroke-linejoin="bevel"
     points="931.014,754.23 931.014,634.198"
     id="polyline1251"
     transform="translate(-336.598,-598.28462)" />
  <polyline
     class="Stem"
     fill="none"
     stroke="#000000"
     stroke-width="2.48"
     stroke-linejoin="bevel"
     points="3393.62,754.23 3393.62,640.364"
     id="polyline1253"
     transform="translate(-336.598,-598.28462)" />
  <polyline
     class="Stem"
     fill="none"
     stroke="#000000"
     stroke-width="2.48"
     stroke-linejoin="bevel"
     points="3448.74,729.43 3448.74,638.831"
     id="polyline1255"
     transform="translate(-336.598,-598.28462)" />
  <polyline
     class="Stem"
     fill="none"
     stroke="#000000"
     stroke-width="2.48"
     stroke-linejoin="bevel"
     points="1013.69,704.63 1013.69,634.198"
     id="polyline1257"
     transform="translate(-336.598,-598.28462)" />
  <polyline
     class="Stem"
     fill="none"
     stroke="#000000"
     stroke-width="2.48"
     stroke-linejoin="bevel"
     points="3503.86,754.23 3503.86,637.298"
     id="polyline1259"
     transform="translate(-336.598,-598.28462)" />
  <polyline
     class="Stem"
     fill="none"
     stroke="#000000"
     stroke-width="2.48"
     stroke-linejoin="bevel"
     points="1068.8,704.63 1068.8,634.198"
     id="polyline1261"
     transform="translate(-336.598,-598.28462)" />
  <polyline
     class="Stem"
     fill="none"
     stroke="#000000"
     stroke-width="2.48"
     stroke-linejoin="bevel"
     points="3558.97,729.43 3558.97,635.766"
     id="polyline1263"
     transform="translate(-336.598,-598.28462)" />
  <polyline
     class="Stem"
     fill="none"
     stroke="#000000"
     stroke-width="2.48"
     stroke-linejoin="bevel"
     points="1123.92,704.63 1123.92,634.198"
     id="polyline1265"
     transform="translate(-336.598,-598.28462)" />
  <polyline
     class="Stem"
     fill="none"
     stroke="#000000"
     stroke-width="2.48"
     stroke-linejoin="bevel"
     points="3696.76,754.23 3696.76,658.998"
     id="polyline1267"
     transform="translate(-336.598,-598.28462)" />
  <polyline
     class="Stem"
     fill="none"
     stroke="#000000"
     stroke-width="2.48"
     stroke-linejoin="bevel"
     points="3751.88,729.43 3751.88,658.998"
     id="polyline1269"
     transform="translate(-336.598,-598.28462)" />
  <polyline
     class="Stem"
     fill="none"
     stroke="#000000"
     stroke-width="2.48"
     stroke-linejoin="bevel"
     points="1206.59,704.63 1206.59,621.997"
     id="polyline1271"
     transform="translate(-336.598,-598.28462)" />
  <polyline
     class="Stem"
     fill="none"
     stroke="#000000"
     stroke-width="2.48"
     stroke-linejoin="bevel"
     points="3807,754.23 3807,658.998"
     id="polyline1273"
     transform="translate(-336.598,-598.28462)" />
  <polyline
     class="Stem"
     fill="none"
     stroke="#000000"
     stroke-width="2.48"
     stroke-linejoin="bevel"
     points="1289.27,704.63 1289.27,621.798"
     id="polyline1275"
     transform="translate(-336.598,-598.28462)" />
  <polyline
     class="Stem"
     fill="none"
     stroke="#000000"
     stroke-width="2.48"
     stroke-linejoin="bevel"
     points="3862.11,729.43 3862.11,658.998"
     id="polyline1277"
     transform="translate(-336.598,-598.28462)" />
  <polyline
     class="Stem"
     fill="none"
     stroke="#000000"
     stroke-width="2.48"
     stroke-linejoin="bevel"
     points="1448.74,754.23 1448.74,658.998"
     id="polyline1279"
     transform="translate(-336.598,-598.28462)" />
  <polyline
     class="Stem"
     fill="none"
     stroke="#000000"
     stroke-width="2.48"
     stroke-linejoin="bevel"
     points="3917.23,754.23 3917.23,658.998"
     id="polyline1281"
     transform="translate(-336.598,-598.28462)" />
  <polyline
     class="Stem"
     fill="none"
     stroke="#000000"
     stroke-width="2.48"
     stroke-linejoin="bevel"
     points="1503.86,729.43 1503.86,658.998"
     id="polyline1283"
     transform="translate(-336.598,-598.28462)" />
  <polyline
     class="Stem"
     fill="none"
     stroke="#000000"
     stroke-width="2.48"
     stroke-linejoin="bevel"
     points="1558.98,754.23 1558.98,658.998"
     id="polyline1285"
     transform="translate(-336.598,-598.28462)" />
  <polyline
     class="Stem"
     fill="none"
     stroke="#000000"
     stroke-width="2.48"
     stroke-linejoin="bevel"
     points="1614.09,729.43 1614.09,658.998"
     id="polyline1287"
     transform="translate(-336.598,-598.28462)" />
  <polyline
     class="Stem"
     fill="none"
     stroke="#000000"
     stroke-width="2.48"
     stroke-linejoin="bevel"
     points="1669.21,754.23 1669.21,658.998"
     id="polyline1289"
     transform="translate(-336.598,-598.28462)" />
  <polyline
     class="Stem"
     fill="none"
     stroke="#000000"
     stroke-width="2.48"
     stroke-linejoin="bevel"
     points="1751.88,729.43 1751.88,658.998"
     id="polyline1291"
     transform="translate(-336.598,-598.28462)" />
  <polyline
     class="Stem"
     fill="none"
     stroke="#000000"
     stroke-width="2.48"
     stroke-linejoin="bevel"
     points="1807,729.43 1807,658.998"
     id="polyline1293"
     transform="translate(-336.598,-598.28462)" />
  <polyline
     class="Stem"
     fill="none"
     stroke="#000000"
     stroke-width="2.48"
     stroke-linejoin="bevel"
     points="1862.12,729.43 1862.12,658.998"
     id="polyline1295"
     transform="translate(-336.598,-598.28462)" />
  <polyline
     class="Stem"
     fill="none"
     stroke="#000000"
     stroke-width="2.48"
     stroke-linejoin="bevel"
     points="1944.79,729.43 1944.79,658.998"
     id="polyline1297"
     transform="translate(-336.598,-598.28462)" />
  <polyline
     class="Stem"
     fill="none"
     stroke="#000000"
     stroke-width="2.48"
     stroke-linejoin="bevel"
     points="2027.47,729.43 2027.47,646.797"
     id="polyline1299"
     transform="translate(-336.598,-598.28462)" />
  <polyline
     class="Stem"
     fill="none"
     stroke="#000000"
     stroke-width="2.48"
     stroke-linejoin="bevel"
     points="2110.14,741.83 2110.14,658.998"
     id="polyline1301"
     transform="translate(-336.598,-598.28462)" />
  <polyline
     class="Stem"
     fill="none"
     stroke="#000000"
     stroke-width="2.48"
     stroke-linejoin="bevel"
     points="2269.61,754.23 2269.61,658.998"
     id="polyline1303"
     transform="translate(-336.598,-598.28462)" />
  <polyline
     class="Stem"
     fill="none"
     stroke="#000000"
     stroke-width="2.48"
     stroke-linejoin="bevel"
     points="3614.09,704.63 3614.09,634.233"
     id="polyline1305"
     transform="translate(-336.598,-598.28462)" />
  <polyline
     class="Stem"
     fill="none"
     stroke="#000000"
     stroke-width="2.48"
     stroke-linejoin="bevel"
     points="2352.29,754.23 2352.29,658.998"
     id="polyline1307"
     transform="translate(-336.598,-598.28462)" />
  <polyline
     class="Stem"
     fill="none"
     stroke="#000000"
     stroke-width="2.48"
     stroke-linejoin="bevel"
     points="2407.41,729.43 2407.41,658.998"
     id="polyline1309"
     transform="translate(-336.598,-598.28462)" />
  <polyline
     class="Stem"
     fill="none"
     stroke="#000000"
     stroke-width="2.48"
     stroke-linejoin="bevel"
     points="2462.52,754.23 2462.52,658.998"
     id="polyline1311"
     transform="translate(-336.598,-598.28462)" />
  <polyline
     class="Stem"
     fill="none"
     stroke="#000000"
     stroke-width="2.48"
     stroke-linejoin="bevel"
     points="2517.64,729.43 2517.64,658.998"
     id="polyline1313"
     transform="translate(-336.598,-598.28462)" />
  <polyline
     class="Stem"
     fill="none"
     stroke="#000000"
     stroke-width="2.48"
     stroke-linejoin="bevel"
     points="2572.75,754.23 2572.75,634.198"
     id="polyline1315"
     transform="translate(-336.598,-598.28462)" />
  <path
     class="Hook"
     d="m 868.752,46.034851 c 0,0.294525 0.093,0.790525 0.7905,1.08505 4.2625,1.39495 12.80298,6.758 19.25098,17.76295 1.78252,3.06905 4.66557,7.34705 4.66557,15.577575 0,7.145475 -1.89105,14.47695 -4.464,21.622424 -0.20157,0.60453 -0.40305,1.10053 -0.31,1.488 0,0.40305 0.10843,0.69758 0.496,0.89905 0.20147,0.093 0.40295,0.093 0.496,0.093 0.69747,0 1.19347,-0.38747 1.59643,-1.08495 4.66557,-8.245999 6.24652,-18.755049 6.15357,-25.001474 0,-0.496 0,-0.790525 0,-1.193575 -0.496,-12.80295 -7.84305,-22.22695 -7.84305,-22.22695 0.29452,0 -9.12948,-12.198525 -11.811,-16.368 -3.658,-5.657525 -5.3475,-11.299525 -5.549,-11.702525 -0.093,-0.294495 -0.992,-3.875 -0.992,-3.875 -0.093,-0.3875 -0.589,-0.790505 -1.1935,-0.790505 -0.6975,0 -1.2865,0.604505 -1.2865,1.286505 v 22.428475"
     id="path1317"
     style="stroke-width:0.992" />
  <path
     class="Hook"
     d="m 2510.502,46.034851 c 0,0.294525 0.093,0.790525 0.7905,1.08505 4.2625,1.39495 12.803,6.758 19.251,17.76295 1.7825,3.06905 4.6655,7.34705 4.6655,15.577575 0,7.145475 -1.891,14.47695 -4.464,21.622424 -0.2015,0.60453 -0.403,1.10053 -0.31,1.488 0,0.40305 0.1085,0.69758 0.496,0.89905 0.2015,0.093 0.403,0.093 0.496,0.093 0.6975,0 1.1935,-0.38747 1.5965,-1.08495 4.6655,-8.245999 6.2465,-18.755049 6.1535,-25.001474 0,-0.496 0,-0.790525 0,-1.193575 -0.496,-12.80295 -7.843,-22.22695 -7.843,-22.22695 0.2945,0 -9.1295,-12.198525 -11.811,-16.368 -3.658,-5.657525 -5.3475,-11.299525 -5.549,-11.702525 -0.093,-0.294495 -0.992,-3.875 -0.992,-3.875 -0.093,-0.3875 -0.589,-0.790505 -1.1935,-0.790505 -0.6975,0 -1.2865,0.604505 -1.2865,1.286505 v 22.428475"
     id="path1319"
     style="stroke-width:0.992" />
  <path
     class="Hook"
     d="m 1689.632,70.834851 c 0,0.294525 0.093,0.790525 0.7905,1.08505 4.2625,1.39495 12.803,6.758 19.251,17.76295 1.7825,3.06905 4.6655,7.34705 4.6655,15.577579 0,7.14547 -1.891,14.47695 -4.464,21.62242 -0.2015,0.60453 -0.403,1.10053 -0.31,1.488 0,0.40305 0.1085,0.69758 0.496,0.89905 0.2015,0.093 0.403,0.093 0.496,0.093 0.6975,0 1.1935,-0.38747 1.5965,-1.08495 4.6655,-8.246 6.2465,-18.75505 6.1535,-25.00147 0,-0.496 0,-0.79053 0,-1.19358 -0.496,-12.802949 -7.843,-22.226949 -7.843,-22.226949 0.2945,0 -9.1295,-12.198525 -11.811,-16.368 -3.658,-5.657525 -5.3475,-11.299525 -5.549,-11.702525 -0.093,-0.294495 -0.992,-3.875 -0.992,-3.875 -0.093,-0.3875 -0.589,-0.790505 -1.1935,-0.790505 -0.6975,0 -1.2865,0.604505 -1.2865,1.286505 v 22.428475"
     id="path1321"
     style="stroke-width:0.992" />
  <path
     class="Note"
     d="m 453.199,164.08288 c 0,4.2625 3.069,9.02102 11.11348,9.02102 10.30757,0 21.12652,-8.43202 21.12652,-17.15852 0,-5.859 -4.96,-9.12948 -11.11348,-9.12948 -9.62547,0 -21.12652,8.13748 -21.12652,17.26698"
     id="path1323"
     style="stroke-width:0.992" />
  <path
     class="Note"
     d="m 3384.302,139.28288 c 0,4.2625 3.069,9.02102 11.1135,9.02102 10.3075,0 21.1265,-8.43202 21.1265,-17.15852 0,-5.859 -4.96,-9.12948 -11.1135,-9.12948 -9.6255,0 -21.1265,8.13748 -21.1265,17.26698"
     id="path1325"
     style="stroke-width:0.992" />
  <path
     class="Note"
     d="m 1191.392,164.08288 c 0,4.2625 3.069,9.02102 11.1135,9.02102 10.3075,0 21.1265,-8.43202 21.1265,-17.15852 0,-5.859 -4.96,-9.12948 -11.1135,-9.12948 -9.6255,0 -21.1265,8.13748 -21.1265,17.26698"
     id="path1327"
     style="stroke-width:0.992" />
  <path
     class="Note"
     d="m 3439.412,164.08288 c 0,4.2625 3.069,9.02102 11.1135,9.02102 10.3075,0 21.1265,-8.43202 21.1265,-17.15852 0,-5.859 -4.96,-9.12948 -11.1135,-9.12948 -9.6255,0 -21.1265,8.13748 -21.1265,17.26698"
     id="path1329"
     style="stroke-width:0.992" />
  <path
     class="Note"
     d="m 260.292,164.08288 c 0,4.2625 3.069,9.02102 11.11348,9.02102 10.30757,0 21.12652,-8.43202 21.12652,-17.15852 0,-5.859 -4.96,-9.12948 -11.11348,-9.12948 -9.62547,0 -21.12652,8.13748 -21.12652,17.26698"
     id="path1331"
     style="stroke-width:0.992" />
  <path
     class="Note"
     d="m 2094.942,164.08288 c 0,4.2625 3.069,9.02102 11.1135,9.02102 10.3075,0 21.1265,-8.43202 21.1265,-17.15852 0,-5.859 -4.96,-9.12948 -11.1135,-9.12948 -9.6255,0 -21.1265,8.13748 -21.1265,17.26698"
     id="path1333"
     style="stroke-width:0.992" />
  <path
     class="Note"
     d="m 342.966,164.08288 c 0,4.2625 3.069,9.02102 11.11348,9.02102 10.30757,0 21.12652,-8.43202 21.12652,-17.15852 0,-5.859 -4.96,-9.12948 -11.11348,-9.12948 -9.62547,0 -21.12652,8.13748 -21.12652,17.26698"
     id="path1335"
     style="stroke-width:0.992" />
  <path
     class="Note"
     d="m 398.082,139.28288 c 0,4.2625 3.069,9.02102 11.11348,9.02102 10.30757,0 21.12652,-8.43202 21.12652,-17.15852 0,-5.859 -4.96,-9.12948 -11.11348,-9.12948 -9.62547,0 -21.12652,8.13748 -21.12652,17.26698"
     id="path1337"
     style="stroke-width:0.992" />
  <path
     class="Note"
     d="m 839.012,114.48288 c 0,4.2625 3.069,9.02102 11.11348,9.02102 10.30757,0 21.12652,-8.43202 21.12652,-17.15852 0,-5.859 -4.96,-9.129479 -11.11348,-9.129479 -9.62547,0 -21.12652,8.137479 -21.12652,17.266979"
     id="path1339"
     style="stroke-width:0.992" />
  <path
     class="Note"
     d="m 508.315,139.28288 c 0,4.2625 3.069,9.02102 11.11348,9.02102 10.30757,0 21.12652,-8.43202 21.12652,-17.15852 0,-5.859 -4.96,-9.12948 -11.11348,-9.12948 -9.62547,0 -21.12652,8.13748 -21.12652,17.26698"
     id="path1341"
     style="stroke-width:0.992" />
  <path
     class="Note"
     d="m 563.431,164.08288 c 0,4.2625 3.069,9.02102 11.11348,9.02102 10.30757,0 21.12652,-8.43202 21.12652,-17.15852 0,-5.859 -4.96,-9.12948 -11.11348,-9.12948 -9.62547,0 -21.12652,8.13748 -21.12652,17.26698"
     id="path1343"
     style="stroke-width:0.992" />
  <path
     class="Note"
     d="m 3494.532,139.28288 c 0,4.2625 3.069,9.02102 11.1135,9.02102 10.3075,0 21.1265,-8.43202 21.1265,-17.15852 0,-5.859 -4.96,-9.12948 -11.1135,-9.12948 -9.6255,0 -21.1265,8.13748 -21.1265,17.26698"
     id="path1345"
     style="stroke-width:0.992" />
  <path
     class="Note"
     d="m 646.106,114.48288 c 0,4.2625 3.069,9.02102 11.11348,9.02102 10.30757,0 21.12652,-8.43202 21.12652,-17.15852 0,-5.859 -4.96,-9.129479 -11.11348,-9.129479 -9.62547,0 -21.12652,8.137479 -21.12652,17.266979"
     id="path1347"
     style="stroke-width:0.992" />
  <path
     class="Note"
     d="m 701.222,114.48288 c 0,4.2625 3.069,9.02102 11.11348,9.02102 10.30757,0 21.12652,-8.43202 21.12652,-17.15852 0,-5.859 -4.96,-9.129479 -11.11348,-9.129479 -9.62547,0 -21.12652,8.137479 -21.12652,17.266979"
     id="path1349"
     style="stroke-width:0.992" />
  <path
     class="Note"
     d="m 756.342,114.48288 c 0,4.2625 3.069,9.02102 11.11348,9.02102 10.30757,0 21.12652,-8.43202 21.12652,-17.15852 0,-5.859 -4.96,-9.129479 -11.11348,-9.129479 -9.62547,0 -21.12652,8.137479 -21.12652,17.266979"
     id="path1351"
     style="stroke-width:0.992" />
  <path
     class="Note"
     d="m 2480.752,114.48288 c 0,4.2625 3.069,9.02102 11.1135,9.02102 10.3075,0 21.1265,-8.43202 21.1265,-17.15852 0,-5.859 -4.96,-9.129479 -11.1135,-9.129479 -9.6255,0 -21.1265,8.137479 -21.1265,17.266979"
     id="path1353"
     style="stroke-width:0.992" />
  <path
     class="Note"
     d="m 921.682,114.48288 c 0,4.2625 3.069,9.02102 11.11348,9.02102 10.30757,0 21.12652,-8.43202 21.12652,-17.15852 0,-5.859 -4.96,-9.129479 -11.11348,-9.129479 -9.62547,0 -21.12652,8.137479 -21.12652,17.266979"
     id="path1355"
     style="stroke-width:0.992" />
  <path
     class="Note"
     d="m 1081.162,164.08288 c 0,4.2625 3.069,9.02102 11.1135,9.02102 10.3075,0 21.1265,-8.43202 21.1265,-17.15852 0,-5.859 -4.96,-9.12948 -11.1135,-9.12948 -9.6255,0 -21.1265,8.13748 -21.1265,17.26698"
     id="path1357"
     style="stroke-width:0.992" />
  <path
     class="Note"
     d="m 1984.702,164.08288 c 0,4.2625 3.069,9.02102 11.1135,9.02102 10.3075,0 21.1265,-8.43202 21.1265,-17.15852 0,-5.859 -4.96,-9.12948 -11.1135,-9.12948 -9.6255,0 -21.1265,8.13748 -21.1265,17.26698"
     id="path1359"
     style="stroke-width:0.992" />
  <path
     class="Note"
     d="m 2563.432,114.48288 c 0,4.2625 3.069,9.02102 11.1135,9.02102 10.3075,0 21.1265,-8.43202 21.1265,-17.15852 0,-5.859 -4.96,-9.129479 -11.1135,-9.129479 -9.6255,0 -21.1265,8.137479 -21.1265,17.266979"
     id="path1361"
     style="stroke-width:0.992" />
  <path
     class="Note"
     d="m 1577.212,139.28288 c 0,4.2625 3.069,9.02102 11.1135,9.02102 10.3075,0 21.1265,-8.43202 21.1265,-17.15852 0,-5.859 -4.96,-9.12948 -11.1135,-9.12948 -9.6255,0 -21.1265,8.13748 -21.1265,17.26698"
     id="path1363"
     style="stroke-width:0.992" />
  <path
     class="Note"
     d="m 1494.532,139.28288 c 0,4.2625 3.069,9.02102 11.1135,9.02102 10.3075,0 21.1265,-8.43202 21.1265,-17.15852 0,-5.859 -4.96,-9.12948 -11.1135,-9.12948 -9.6255,0 -21.1265,8.13748 -21.1265,17.26698"
     id="path1365"
     style="stroke-width:0.992" />
  <path
     class="Note"
     d="m 2150.052,139.28288 c 0,4.2625 3.069,9.02102 11.1135,9.02102 10.3075,0 21.1265,-8.43202 21.1265,-17.15852 0,-5.859 -4.96,-9.12948 -11.1135,-9.12948 -9.6255,0 -21.1265,8.13748 -21.1265,17.26698"
     id="path1367"
     style="stroke-width:0.992" />
  <path
     class="Note"
     d="m 1439.422,139.28288 c 0,4.2625 3.069,9.02102 11.1135,9.02102 10.3075,0 21.1265,-8.43202 21.1265,-17.15852 0,-5.859 -4.96,-9.12948 -11.1135,-9.12948 -9.6255,0 -21.1265,8.13748 -21.1265,17.26698"
     id="path1369"
     style="stroke-width:0.992" />
  <path
     class="Note"
     d="m 2722.902,164.08288 c 0,4.2625 3.069,9.02102 11.1135,9.02102 10.3075,0 21.1265,-8.43202 21.1265,-17.15852 0,-5.859 -4.96,-9.12948 -11.1135,-9.12948 -9.6255,0 -21.1265,8.13748 -21.1265,17.26698"
     id="path1371"
     style="stroke-width:0.992" />
  <path
     class="Note"
     d="m 1136.282,139.28288 c 0,4.2625 3.069,9.02102 11.1135,9.02102 10.3075,0 21.1265,-8.43202 21.1265,-17.15852 0,-5.859 -4.96,-9.12948 -11.1135,-9.12948 -9.6255,0 -21.1265,8.13748 -21.1265,17.26698"
     id="path1373"
     style="stroke-width:0.992" />
  <path
     class="Note"
     d="m 3549.642,164.08288 c 0,4.2625 3.069,9.02102 11.1135,9.02102 10.3075,0 21.1265,-8.43202 21.1265,-17.15852 0,-5.859 -4.96,-9.12948 -11.1135,-9.12948 -9.6255,0 -21.1265,8.13748 -21.1265,17.26698"
     id="path1375"
     style="stroke-width:0.992" />
  <path
     class="Note"
     d="m 2778.022,139.28288 c 0,4.2625 3.069,9.02102 11.1135,9.02102 10.3075,0 21.1265,-8.43202 21.1265,-17.15852 0,-5.859 -4.96,-9.12948 -11.1135,-9.12948 -9.6255,0 -21.1265,8.13748 -21.1265,17.26698"
     id="path1377"
     style="stroke-width:0.992" />
  <path
     class="Note"
     d="m 2833.132,164.08288 c 0,4.2625 3.069,9.02102 11.1135,9.02102 10.3075,0 21.1265,-8.43202 21.1265,-17.15852 0,-5.859 -4.96,-9.12948 -11.1135,-9.12948 -9.6255,0 -21.1265,8.13748 -21.1265,17.26698"
     id="path1379"
     style="stroke-width:0.992" />
  <path
     class="Note"
     d="m 2205.172,164.08288 c 0,4.2625 3.069,9.02102 11.1135,9.02102 10.3075,0 21.1265,-8.43202 21.1265,-17.15852 0,-5.859 -4.96,-9.12948 -11.1135,-9.12948 -9.6255,0 -21.1265,8.13748 -21.1265,17.26698"
     id="path1381"
     style="stroke-width:0.992" />
  <path
     class="Note"
     d="m 2888.252,139.28288 c 0,4.2625 3.069,9.02102 11.1135,9.02102 10.3075,0 21.1265,-8.43202 21.1265,-17.15852 0,-5.859 -4.96,-9.12948 -11.1135,-9.12948 -9.6255,0 -21.1265,8.13748 -21.1265,17.26698"
     id="path1383"
     style="stroke-width:0.992" />
  <path
     class="Note"
     d="m 2943.372,114.48288 c 0,4.2625 3.069,9.02102 11.1135,9.02102 10.3075,0 21.1265,-8.43202 21.1265,-17.15852 0,-5.859 -4.96,-9.129479 -11.1135,-9.129479 -9.6255,0 -21.1265,8.137479 -21.1265,17.266979"
     id="path1385"
     style="stroke-width:0.992" />
  <path
     class="Note"
     d="m 2039.822,139.28288 c 0,4.2625 3.069,9.02102 11.1135,9.02102 10.3075,0 21.1265,-8.43202 21.1265,-17.15852 0,-5.859 -4.96,-9.12948 -11.1135,-9.12948 -9.6255,0 -21.1265,8.13748 -21.1265,17.26698"
     id="path1387"
     style="stroke-width:0.992" />
  <path
     class="Note"
     d="m 1384.302,139.28288 c 0,4.2625 3.069,9.02102 11.1135,9.02102 10.3075,0 21.1265,-8.43202 21.1265,-17.15852 0,-5.859 -4.96,-9.12948 -11.1135,-9.12948 -9.6255,0 -21.1265,8.13748 -21.1265,17.26698"
     id="path1389"
     style="stroke-width:0.992" />
  <path
     class="Note"
     d="m 3026.042,164.08288 c 0,4.2625 3.069,9.02102 11.1135,9.02102 10.3075,0 21.1265,-8.43202 21.1265,-17.15852 0,-5.859 -4.96,-9.12948 -11.1135,-9.12948 -9.6255,0 -21.1265,8.13748 -21.1265,17.26698"
     id="path1391"
     style="stroke-width:0.992" />
  <path
     class="Note"
     d="m 2287.842,114.48288 c 0,4.2625 3.069,9.02102 11.1135,9.02102 10.3075,0 21.1265,-8.43202 21.1265,-17.15852 0,-5.859 -4.96,-9.129479 -11.1135,-9.129479 -9.6255,0 -21.1265,8.137479 -21.1265,17.266979"
     id="path1393"
     style="stroke-width:0.992" />
  <path
     class="Note"
     d="m 3081.162,139.28288 c 0,4.2625 3.069,9.02102 11.1135,9.02102 10.3075,0 21.1265,-8.43202 21.1265,-17.15852 0,-5.859 -4.96,-9.12948 -11.1135,-9.12948 -9.6255,0 -21.1265,8.13748 -21.1265,17.26698"
     id="path1395"
     style="stroke-width:0.992" />
  <path
     class="Note"
     d="m 1742.552,151.68288 c 0,4.2625 3.069,9.02102 11.1135,9.02102 10.3075,0 21.1265,-8.43202 21.1265,-17.15852 0,-5.859 -4.96,-9.12948 -11.1135,-9.12948 -9.6255,0 -21.1265,8.13748 -21.1265,17.26698"
     id="path1397"
     style="stroke-width:0.992" />
  <path
     class="Note"
     d="m 1301.632,164.08288 c 0,4.2625 3.069,9.02102 11.1135,9.02102 10.3075,0 21.1265,-8.43202 21.1265,-17.15852 0,-5.859 -4.96,-9.12948 -11.1135,-9.12948 -9.6255,0 -21.1265,8.13748 -21.1265,17.26698"
     id="path1399"
     style="stroke-width:0.992" />
  <path
     class="Note"
     d="m 3136.272,164.08288 c 0,4.2625 3.069,9.02102 11.1135,9.02102 10.3075,0 21.1265,-8.43202 21.1265,-17.15852 0,-5.859 -4.96,-9.12948 -11.1135,-9.12948 -9.6255,0 -21.1265,8.13748 -21.1265,17.26698"
     id="path1401"
     style="stroke-width:0.992" />
  <path
     class="Note"
     d="m 2342.962,114.48288 c 0,4.2625 3.069,9.02102 11.1135,9.02102 10.3075,0 21.1265,-8.43202 21.1265,-17.15852 0,-5.859 -4.96,-9.129479 -11.1135,-9.129479 -9.6255,0 -21.1265,8.137479 -21.1265,17.266979"
     id="path1403"
     style="stroke-width:0.992" />
  <path
     class="Note"
     d="m 3191.392,139.28288 c 0,4.2625 3.069,9.02102 11.1135,9.02102 10.3075,0 21.1265,-8.43202 21.1265,-17.15852 0,-5.859 -4.96,-9.12948 -11.1135,-9.12948 -9.6255,0 -21.1265,8.13748 -21.1265,17.26698"
     id="path1405"
     style="stroke-width:0.992" />
  <path
     class="Note"
     d="m 1902.032,164.08288 c 0,4.2625 3.069,9.02102 11.1135,9.02102 10.3075,0 21.1265,-8.43202 21.1265,-17.15852 0,-5.859 -4.96,-9.12948 -11.1135,-9.12948 -9.6255,0 -21.1265,8.13748 -21.1265,17.26698"
     id="path1407"
     style="stroke-width:0.992" />
  <path
     class="Note"
     d="m 3246.502,114.48288 c 0,4.2625 3.069,9.02102 11.1135,9.02102 10.3075,0 21.1265,-8.43202 21.1265,-17.15852 0,-5.859 -4.96,-9.129479 -11.1135,-9.129479 -9.6255,0 -21.1265,8.137479 -21.1265,17.266979"
     id="path1409"
     style="stroke-width:0.992" />
  <path
     class="Note"
     d="m 1659.882,139.28288 c 0,4.2625 3.069,9.02102 11.1135,9.02102 10.3075,0 21.1265,-8.43202 21.1265,-17.15852 0,-5.859 -4.96,-9.12948 -11.1135,-9.12948 -9.6255,0 -21.1265,8.13748 -21.1265,17.26698"
     id="path1411"
     style="stroke-width:0.992" />
  <path
     class="Note"
     d="m 1246.512,139.28288 c 0,4.2625 3.069,9.02102 11.1135,9.02102 10.3075,0 21.1265,-8.43202 21.1265,-17.15852 0,-5.859 -4.96,-9.12948 -11.1135,-9.12948 -9.6255,0 -21.1265,8.13748 -21.1265,17.26698"
     id="path1413"
     style="stroke-width:0.992" />
  <path
     class="Note"
     d="m 3329.182,164.08288 c 0,4.2625 3.069,9.02102 11.1135,9.02102 10.3075,0 21.1265,-8.43202 21.1265,-17.15852 0,-5.859 -4.96,-9.12948 -11.1135,-9.12948 -9.6255,0 -21.1265,8.13748 -21.1265,17.26698"
     id="path1415"
     style="stroke-width:0.992" />
  <path
     class="Note"
     d="m 2398.082,114.48288 c 0,4.2625 3.069,9.02102 11.1135,9.02102 10.3075,0 21.1265,-8.43202 21.1265,-17.15852 0,-5.859 -4.96,-9.129479 -11.1135,-9.129479 -9.6255,0 -21.1265,8.137479 -21.1265,17.266979"
     id="path1417"
     style="stroke-width:0.992" />
  <path
     class="Clef"
     d="m 74.353475,112.39038 c 0,7.0525 -2.88295,14.291 -9.92,17.17405 -2.07695,-11.90405 -4.758425,-27.68305 -5.456,-32.054104 8.928,0 15.376,6.060544 15.376,14.880054 M 60.264,130.74243 c -1.984,0.40295 -3.859475,0.60442 -5.750525,0.60442 -14.182425,0 -26.28797,-9.92 -26.28797,-24.90847 0,-12.090054 8.52502,-22.909004 17.26702,-30.457529 1.674,-1.488 3.270525,-2.867475 4.758525,-4.355475 0.883475,5.347475 1.58095,10.01295 2.278425,14.089475 -9.036425,2.681475 -15.174425,12.198525 -15.174425,21.529529 0,6.944 5.456,16.461 13.392,16.461 0.790425,0 1.689475,-0.40295 1.689475,-1.28653 0,-0.89895 -0.992,-1.39495 -2.185475,-2.18547 -3.87505,-2.387 -6.060525,-4.96 -6.060525,-9.827 0,-6.045 4.464,-10.912054 10.32295,-12.291529 L 60.264,130.74243 M 51.537475,28.767901 c 0.89905,-3.968 5.456,-14.384 10.617575,-14.384 1.488,0 3.859475,4.851475 3.859475,11.702425 0,10.32305 -7.626,18.057575 -14.47705,24.8 -0.58895,-3.968 -1.08495,-7.827475 -1.08495,-11.99695 0,-3.673475 0.294525,-7.052525 1.08495,-10.121475 m -20.832,132.431999 c 0,6.55653 5.05305,15.19 18.44505,15.19 4.665475,0 8.742,-1.19347 12.30695,-3.37905 C 66.820525,169.24443 68.2,162.6879 68.2,156.44138 c 0,-3.85948 -0.58895,-8.32348 -1.58095,-13.98095 -0.294525,-1.984 -0.89905,-4.96 -1.488,-8.83505 9.718425,-3.17748 16.95695,-13.29895 16.95695,-23.5135 0,-14.973029 -10.617475,-25.094504 -25.094525,-25.094504 -0.992,-5.952 -1.984,-11.81105 -2.88295,-17.36 10.524525,-11.020525 17.76295,-23.420525 17.76295,-39.184 0,-9.036525 -2.774425,-16.368 -4.37095,-19.948128 C 65.13105,3.472 62.248,0 60.465475,0 59.768,0 56.69905,1.193376 53.428525,5.053248 c -6.35505,7.548128 -8.137475,20.242653 -8.137475,28.566128 0,5.36295 0.496,10.23 2.185475,21.343475 -0.108525,0.09305 -5.27,5.347475 -7.34705,7.03705 C 31.09305,70.431901 18.6,82.428851 18.6,102.28438 c 0,18.53805 16.166525,33.12352 34.62705,33.12352 2.867475,0 5.54895,-0.29452 7.827475,-0.69747 1.89095,9.53242 2.976,16.47642 2.976,21.73095 0,10.32305 -5.254525,15.77905 -15.267475,15.77905 -2.38705,0 -4.464,-0.496 -4.665575,-0.496 -0.09295,-0.10853 -0.294425,-0.20158 -0.294425,-0.29453 0,-0.20147 0.201475,-0.31 0.496,-0.40305 4.665475,-0.69747 9.315475,-4.66547 9.315475,-11.00495 0,-5.36305 -4.06105,-11.02052 -11.50105,-11.02052 -6.944,0 -11.408,5.65747 -11.408,12.19852"
     id="path1419"
     style="stroke-width:0.992" />
  <path
     class="KeySig"
     d="m 120.60605,77.670376 c -0.58905,-3.859525 -2.976,-7.533 -8.02905,-7.533 -4.96,0 -7.843,3.06895 -8.339,3.673475 l 0.403,-31.852525 c 0,-0.790425 -0.589,-1.379475 -1.395,-1.379475 h -1.178 c -0.806,0 -1.395,0.58905 -1.395,1.379475 l 0.496,59.628524 c 0,0.79053 0.589,1.37958 1.395,1.37958 0.186,0 0.589,-0.0931 0.7905,-0.186 0.3875,-0.20158 6.8355,-3.379054 12.1985,-9.424054 3.76652,-4.278 5.25452,-9.129505 5.25452,-13.206 0,-0.883505 -0.093,-1.674 -0.20147,-2.48 m -6.83557,3.875 c 0,1.488 -0.40296,6.045 -2.88296,9.827 -1.68952,2.573 -5.05302,5.254475 -6.94402,6.742475 l 0.2945,-19.34398 c 0.2015,-0.899 1.6895,-3.766545 5.6575,-3.766545 3.58055,0 3.87498,3.363545 3.87498,5.45605 0,0.496 0,0.790495 0,1.085"
     id="path1421"
     style="stroke-width:0.992" />
  <path
     class="KeySig"
     d="m 148.18005,40.470376 c -0.58905,-3.859525 -2.976,-7.533 -8.02905,-7.533 -4.96,0 -7.843,3.06895 -8.339,3.673475 l 0.403,-31.8525246 c 0,-0.7904256 -0.589,-1.3794752 -1.395,-1.3794752 h -1.178 c -0.806,0 -1.395,0.5890496 -1.395,1.3794752 l 0.496,59.6285246 c 0,0.790525 0.589,1.379575 1.395,1.379575 0.186,0 0.589,-0.09305 0.7905,-0.186 0.3875,-0.201575 6.8355,-3.37905 12.1985,-9.42405 3.76652,-4.278 5.25452,-9.129505 5.25452,-13.206 0,-0.883505 -0.093,-1.674 -0.20147,-2.48 m -6.83557,3.875 c 0,1.488 -0.40296,6.045 -2.88296,9.827 -1.68952,2.573 -5.05302,5.254475 -6.94402,6.742475 l 0.2945,-19.34398 c 0.2015,-0.899 1.6895,-3.766545 5.6575,-3.766545 3.58055,0 3.87498,3.363545 3.87498,5.45605 0,0.496 0,0.790495 0,1.085"
     id="path1423"
     style="stroke-width:0.992" />
  <path
     class="TimeSig"
     d="m 187.38,65.874881 c 6.04505,0 8.23052,-1.782505 9.62548,-3.270505 0.29452,2.077 0.496,3.658 0.496,5.254505 0,1.581 -0.20148,2.976 -0.496,4.758495 -0.60443,3.673475 -3.08443,8.230525 -8.432,8.230525 -2.48,0 -3.968,-0.790525 -4.96,-1.875475 2.07704,-0.89905 3.76652,-3.580525 3.76652,-5.85905 0,-3.565 -2.77452,-6.355 -6.355,-6.355 -3.565,0 -6.448,2.79 -6.448,6.355 v 0.201475 c 0,0 0,0 0,0.09305 0,0.89895 0.2015,2.38695 0.6045,3.177475 1.2865,3.56505 5.456,8.83505 15.37598,8.83505 8.928,0 15.376,-8.540525 17.36,-13.097575 0.992,-2.38697 2.48,-7.238475 2.48,-12.80298 0,-6.045 -1.68948,-12.89597 -7.53296,-18.057545 -5.766,-4.355475 -9.43947,-4.55695 -12.91147,-4.55695 -3.472,0 -16.46105,4.06095 -16.46105,15.577495 0,9.718505 7.6415,13.39201 13.888,13.39201 m 3.67348,-24.908555 c 3.27052,0 5.952,4.572525 5.952,10.121575 0,5.564475 -2.68148,10.028475 -5.952,10.028475 -3.27043,0 -6.06043,-4.464 -6.06043,-10.028475 0,-5.54905 2.79,-10.121575 6.06043,-10.121575"
     id="path1425"
     style="stroke-width:0.992" />
  <path
     class="TimeSig"
     d="m 203.85605,108.28287 c 3.27043,-2.48 5.54895,-5.65749 5.54895,-9.625494 0,-7.145475 -7.82748,-12.98905 -17.45295,-12.98905 -9.62557,0 -17.46855,5.843575 -17.46855,12.98905 0,3.968004 0.992,7.533004 5.6575,10.509004 -4.464,2.5885 -6.944,6.262 -6.944,11.02047 0,8.02905 8.432,14.47705 18.75505,14.47705 10.30747,0 18.73947,-6.448 18.73947,-14.47705 0,-4.75847 -1.674,-9.22247 -6.83547,-11.90398 m -11.904,20.83198 c -6.35505,0 -11.81105,-3.472 -11.81105,-9.03642 0,-6.63405 5.16148,-8.23055 5.16148,-8.23055 6.74252,2.2785 16.368,5.6575 16.368,11.1135 0,2.68147 -3.472,6.15347 -9.71843,6.15347 m 6.33947,-23.51347 c -6.74252,-2.18551 -14.18252,-5.456 -14.18252,-9.920004 0,-3.87505 3.56505,-5.456 7.84305,-5.456 6.15347,0 10.30747,2.88295 10.30747,7.44 0,4.758494 -2.17,7.037004 -3.968,7.936004"
     id="path1427"
     style="stroke-width:0.992" />
  <path
     class="Beam"
     fill-rule="evenodd"
     d="m 290.036,54.513376 h 250.503 v 12.4 H 290.036 v -12.4"
     id="path1429" />
  <path
     class="Beam"
     fill-rule="evenodd"
     d="m 372.711,73.113376 h 167.828 v 12.4 H 372.711 v -12.4"
     id="path1431" />
  <path
     class="Beam"
     fill-rule="evenodd"
     d="m 593.176,29.713376 h 195.386 v 12.4 H 593.176 v -12.4"
     id="path1433" />
  <path
     class="Beam"
     fill-rule="evenodd"
     d="m 675.852,48.313376 h 57.59 v 12.4 h -57.59 v -12.4"
     id="path1435" />
  <path
     class="Beam"
     fill-rule="evenodd"
     d="m 2752.652,35.911376 222.94,-6.2 v 12.405 l -222.94,6.2 v -12.405"
     id="path1437" />
  <path
     class="Beam"
     fill-rule="evenodd"
     d="m 2752.652,54.511376 167.82,-4.667 v 12.405 l -167.82,4.667 v -12.405"
     id="path1439" />
  <path
     class="Beam"
     fill-rule="evenodd"
     d="m 1931.772,54.513376 h 250.51 v 12.4 h -250.51 v -12.4"
     id="path1441" />
  <path
     class="Beam"
     fill-rule="evenodd"
     d="m 2014.452,73.113376 h 167.83 v 12.4 h -167.83 v -12.4"
     id="path1443" />
  <path
     class="Beam"
     fill-rule="evenodd"
     d="m 1414.042,54.513376 h 195.39 v 12.4 h -195.39 v -12.4"
     id="path1445" />
  <path
     class="Beam"
     fill-rule="evenodd"
     d="m 1414.042,73.113376 h 57.6 v 12.4 h -57.6 v -12.4"
     id="path1447" />
  <path
     class="Beam"
     fill-rule="evenodd"
     d="m 3358.922,54.513376 h 222.95 v 12.4 h -222.95 v -12.4"
     id="path1449" />
  <path
     class="Beam"
     fill-rule="evenodd"
     d="m 3358.922,73.113376 h 167.83 v 12.4 h -167.83 v -12.4"
     id="path1451" />
  <path
     class="Beam"
     fill-rule="evenodd"
     d="m 2234.912,29.713376 h 195.39 v 12.4 h -195.39 v -12.4"
     id="path1453" />
  <path
     class="Beam"
     fill-rule="evenodd"
     d="m 2317.592,48.313376 h 57.59 v 12.4 h -57.59 v -12.4"
     id="path1455" />
  <path
     class="Beam"
     fill-rule="evenodd"
     d="m 3055.782,35.911376 222.95,-6.2 v 12.405 l -222.95,6.2 v -12.405"
     id="path1457" />
  <path
     class="Beam"
     fill-rule="evenodd"
     d="m 3055.782,54.511376 167.83,-4.667 v 12.405 l -167.83,4.667 v -12.405"
     id="path1459" />
  <path
     class="Beam"
     fill-rule="evenodd"
     d="m 1110.902,54.513376 h 222.95 v 12.4 h -222.95 v -12.4"
     id="path1461" />
  <path
     class="Beam"
     fill-rule="evenodd"
     d="m 1110.902,73.113376 h 167.83 v 12.4 h -167.83 v -12.4"
     id="path1463" />
</svg>
