<?xml version="1.0" encoding="UTF-8" standalone="no"?>
<svg
   xmlns:dc="http://purl.org/dc/elements/1.1/"
   xmlns:cc="http://creativecommons.org/ns#"
   xmlns:rdf="http://www.w3.org/1999/02/22-rdf-syntax-ns#"
   xmlns:svg="http://www.w3.org/2000/svg"
   xmlns="http://www.w3.org/2000/svg"
   xmlns:sodipodi="http://sodipodi.sourceforge.net/DTD/sodipodi-0.dtd"
   xmlns:inkscape="http://www.inkscape.org/namespaces/inkscape"
   width="3695.4021"
   height="125.46443"
   viewBox="0 0 3695.4022 125.46443"
   version="1.2"
   id="svg1683"
   sodipodi:docname="Dossium Canto Mensenjager Musica.svg"
   inkscape:version="1.0.2-2 (e86c870879, 2021-01-15)">
  <metadata
     id="metadata1689">
    <rdf:RDF>
      <cc:Work
         rdf:about="">
        <dc:format>image/svg+xml</dc:format>
        <dc:type
           rdf:resource="http://purl.org/dc/dcmitype/StillImage" />
      </cc:Work>
    </rdf:RDF>
  </metadata>
  <defs
     id="defs1687" />
  <sodipodi:namedview
     pagecolor="#ffffff"
     bordercolor="#666666"
     borderopacity="1"
     objecttolerance="10"
     gridtolerance="10"
     guidetolerance="10"
     inkscape:pageopacity="0"
     inkscape:pageshadow="2"
     inkscape:window-width="1920"
     inkscape:window-height="991"
     id="namedview1685"
     showgrid="false"
     inkscape:zoom="0.29557974"
     inkscape:cx="1803.402"
     inkscape:cy="879.94681"
     inkscape:window-x="-9"
     inkscape:window-y="-9"
     inkscape:window-maximized="1"
     inkscape:current-layer="svg1683" />
  <title
     id="title1275">Dossium Canto Mensenjager Musica</title>
  <desc
     id="desc1277">Generated by MuseScore Studio 4.4.4</desc>
  <polyline
     class="StaffLines"
     fill="none"
     stroke="#000000"
     stroke-width="1.94"
     stroke-linejoin="bevel"
     points="300.798,634.198 3996.2,634.198"
     id="polyline1279"
     transform="translate(-300.798,-608.65316)" />
  <polyline
     class="StaffLines"
     fill="none"
     stroke="#000000"
     stroke-width="1.94"
     stroke-linejoin="bevel"
     points="300.798,651.838 3996.2,651.838"
     id="polyline1281"
     transform="translate(-300.798,-608.65316)" />
  <polyline
     class="StaffLines"
     fill="none"
     stroke="#000000"
     stroke-width="1.94"
     stroke-linejoin="bevel"
     points="300.798,669.478 3996.2,669.478"
     id="polyline1283"
     transform="translate(-300.798,-608.65316)" />
  <polyline
     class="StaffLines"
     fill="none"
     stroke="#000000"
     stroke-width="1.94"
     stroke-linejoin="bevel"
     points="300.798,687.118 3996.2,687.118"
     id="polyline1285"
     transform="translate(-300.798,-608.65316)" />
  <polyline
     class="StaffLines"
     fill="none"
     stroke="#000000"
     stroke-width="1.94"
     stroke-linejoin="bevel"
     points="300.798,704.758 3996.2,704.758"
     id="polyline1287"
     transform="translate(-300.798,-608.65316)" />
  <polyline
     class="BarLine"
     fill="none"
     stroke="#000000"
     stroke-width="3.18"
     stroke-linejoin="bevel"
     points="3978.38,633.228 3978.38,705.729"
     id="polyline1297"
     transform="translate(-300.798,-608.65316)" />
  <polyline
     class="BarLine"
     fill="none"
     stroke="#000000"
     stroke-width="9.7"
     stroke-linejoin="bevel"
     points="3991.35,633.228 3991.35,705.729"
     id="polyline1299"
     transform="translate(-300.798,-608.65316)" />
  <polyline
     class="BarLine"
     fill="none"
     stroke="#000000"
     stroke-width="3.18"
     stroke-linejoin="bevel"
     points="1039.9,633.228 1039.9,705.729"
     id="polyline1301"
     transform="translate(-300.798,-608.65316)" />
  <polyline
     class="BarLine"
     fill="none"
     stroke="#000000"
     stroke-width="3.18"
     stroke-linejoin="bevel"
     points="3416.74,633.228 3416.74,705.729"
     id="polyline1303"
     transform="translate(-300.798,-608.65316)" />
  <path
     class="BarLine"
     d="m 2496.7347,52.004837 c 0,-2.05065 -1.6317,-3.737479 -3.6714,-3.737479 -2.0506,0 -3.6713,1.686829 -3.6713,3.737479 0,2.05065 1.6207,3.737478 3.6713,3.737478 2.0397,0 3.6714,-1.686828 3.6714,-3.737478"
     id="path1305"
     style="stroke-width:0.7056" />
  <path
     class="BarLine"
     d="m 2496.7347,69.644837 c 0,-2.05065 -1.6317,-3.737479 -3.6714,-3.737479 -2.0506,0 -3.6713,1.686829 -3.6713,3.737479 0,2.05065 1.6207,3.737478 3.6713,3.737478 2.0397,0 3.6714,-1.686828 3.6714,-3.737478"
     id="path1307"
     style="stroke-width:0.7056" />
  <polyline
     class="BarLine"
     fill="none"
     stroke="#000000"
     stroke-width="3.18"
     stroke-linejoin="bevel"
     points="2805.63,633.228 2805.63,705.729"
     id="polyline1309"
     transform="translate(-300.798,-608.65316)" />
  <polyline
     class="BarLine"
     fill="none"
     stroke="#000000"
     stroke-width="9.7"
     stroke-linejoin="bevel"
     points="2818.6,633.228 2818.6,705.729"
     id="polyline1311"
     transform="translate(-300.798,-608.65316)" />
  <polyline
     class="BarLine"
     fill="none"
     stroke="#000000"
     stroke-width="3.18"
     stroke-linejoin="bevel"
     points="2234.81,633.228 2234.81,705.729"
     id="polyline1313"
     transform="translate(-300.798,-608.65316)" />
  <path
     class="BarLine"
     d="m 1314.8047,52.004837 c 0,-2.05065 -1.6317,-3.737479 -3.6714,-3.737479 -2.0506,0 -3.6713,1.686829 -3.6713,3.737479 0,2.05065 1.6207,3.737478 3.6713,3.737478 2.0397,0 3.6714,-1.686828 3.6714,-3.737478"
     id="path1315"
     style="stroke-width:0.7056" />
  <path
     class="BarLine"
     d="m 1314.8047,69.644837 c 0,-2.05065 -1.6317,-3.737479 -3.6714,-3.737479 -2.0506,0 -3.6713,1.686829 -3.6713,3.737479 0,2.05065 1.6207,3.737478 3.6713,3.737478 2.0397,0 3.6714,-1.686828 3.6714,-3.737478"
     id="path1317"
     style="stroke-width:0.7056" />
  <polyline
     class="BarLine"
     fill="none"
     stroke="#000000"
     stroke-width="3.18"
     stroke-linejoin="bevel"
     points="1623.71,633.228 1623.71,705.729"
     id="polyline1319"
     transform="translate(-300.798,-608.65316)" />
  <polyline
     class="BarLine"
     fill="none"
     stroke="#000000"
     stroke-width="9.7"
     stroke-linejoin="bevel"
     points="1636.67,633.228 1636.67,705.729"
     id="polyline1321"
     transform="translate(-300.798,-608.65316)" />
  <polyline
     class="Stem"
     fill="none"
     stroke="#000000"
     stroke-width="1.76"
     stroke-linejoin="bevel"
     points="669.853,710.756 669.853,636.403"
     id="polyline1335"
     transform="translate(-300.798,-608.65316)" />
  <polyline
     class="Stem"
     fill="none"
     stroke="#000000"
     stroke-width="1.76"
     stroke-linejoin="bevel"
     points="3587.04,684.296 3587.04,625.267"
     id="polyline1337"
     transform="translate(-300.798,-608.65316)" />
  <polyline
     class="Stem"
     fill="none"
     stroke="#000000"
     stroke-width="1.76"
     stroke-linejoin="bevel"
     points="703.086,693.116 703.086,634.255"
     id="polyline1339"
     transform="translate(-300.798,-608.65316)" />
  <polyline
     class="Stem"
     fill="none"
     stroke="#000000"
     stroke-width="1.76"
     stroke-linejoin="bevel"
     points="3441.26,672.442 3441.26,722.398"
     id="polyline1341"
     transform="translate(-300.798,-608.65316)" />
  <polyline
     class="Stem"
     fill="none"
     stroke="#000000"
     stroke-width="1.76"
     stroke-linejoin="bevel"
     points="736.32,675.476 736.32,620.968"
     id="polyline1343"
     transform="translate(-300.798,-608.65316)" />
  <polyline
     class="Stem"
     fill="none"
     stroke="#000000"
     stroke-width="1.76"
     stroke-linejoin="bevel"
     points="811.095,693.116 811.095,634.198"
     id="polyline1345"
     transform="translate(-300.798,-608.65316)" />
  <polyline
     class="Stem"
     fill="none"
     stroke="#000000"
     stroke-width="1.76"
     stroke-linejoin="bevel"
     points="885.871,684.296 885.871,625.449"
     id="polyline1347"
     transform="translate(-300.798,-608.65316)" />
  <polyline
     class="Stem"
     fill="none"
     stroke="#000000"
     stroke-width="1.76"
     stroke-linejoin="bevel"
     points="3341.26,654.802 3341.26,713.578"
     id="polyline1349"
     transform="translate(-300.798,-608.65316)" />
  <polyline
     class="Stem"
     fill="none"
     stroke="#000000"
     stroke-width="1.76"
     stroke-linejoin="bevel"
     points="919.104,693.116 919.104,638.497"
     id="polyline1351"
     transform="translate(-300.798,-608.65316)" />
  <polyline
     class="Stem"
     fill="none"
     stroke="#000000"
     stroke-width="1.76"
     stroke-linejoin="bevel"
     points="3308.02,663.622 3308.02,718.1"
     id="polyline1353"
     transform="translate(-300.798,-608.65316)" />
  <polyline
     class="Stem"
     fill="none"
     stroke="#000000"
     stroke-width="1.76"
     stroke-linejoin="bevel"
     points="3274.79,672.442 3274.79,722.287"
     id="polyline1355"
     transform="translate(-300.798,-608.65316)" />
  <polyline
     class="Stem"
     fill="none"
     stroke="#000000"
     stroke-width="1.76"
     stroke-linejoin="bevel"
     points="952.338,684.296 952.338,634.31"
     id="polyline1357"
     transform="translate(-300.798,-608.65316)" />
  <polyline
     class="Stem"
     fill="none"
     stroke="#000000"
     stroke-width="1.76"
     stroke-linejoin="bevel"
     points="3258.03,675.476 3258.03,621.08"
     id="polyline1359"
     transform="translate(-300.798,-608.65316)" />
  <polyline
     class="Stem"
     fill="none"
     stroke="#000000"
     stroke-width="1.76"
     stroke-linejoin="bevel"
     points="985.572,675.476 985.572,620.968"
     id="polyline1361"
     transform="translate(-300.798,-608.65316)" />
  <polyline
     class="Stem"
     fill="none"
     stroke="#000000"
     stroke-width="1.76"
     stroke-linejoin="bevel"
     points="3224.8,684.296 3224.8,625.267"
     id="polyline1363"
     transform="translate(-300.798,-608.65316)" />
  <polyline
     class="Stem"
     fill="none"
     stroke="#000000"
     stroke-width="1.76"
     stroke-linejoin="bevel"
     points="1085.57,684.296 1085.57,625.378"
     id="polyline1365"
     transform="translate(-300.798,-608.65316)" />
  <polyline
     class="Stem"
     fill="none"
     stroke="#000000"
     stroke-width="1.76"
     stroke-linejoin="bevel"
     points="3150.02,684.296 3150.02,625.378"
     id="polyline1367"
     transform="translate(-300.798,-608.65316)" />
  <polyline
     class="Stem"
     fill="none"
     stroke="#000000"
     stroke-width="1.76"
     stroke-linejoin="bevel"
     points="2126.1,663.622 2126.1,718.1"
     id="polyline1369"
     transform="translate(-300.798,-608.65316)" />
  <polyline
     class="Stem"
     fill="none"
     stroke="#000000"
     stroke-width="1.76"
     stroke-linejoin="bevel"
     points="1160.35,684.296 1160.35,625.52"
     id="polyline1371"
     transform="translate(-300.798,-608.65316)" />
  <polyline
     class="Stem"
     fill="none"
     stroke="#000000"
     stroke-width="1.76"
     stroke-linejoin="bevel"
     points="3075.25,675.476 3075.25,620.968"
     id="polyline1373"
     transform="translate(-300.798,-608.65316)" />
  <polyline
     class="Stem"
     fill="none"
     stroke="#000000"
     stroke-width="1.76"
     stroke-linejoin="bevel"
     points="1210.2,684.296 1210.2,625.267"
     id="polyline1375"
     transform="translate(-300.798,-608.65316)" />
  <polyline
     class="Stem"
     fill="none"
     stroke="#000000"
     stroke-width="1.76"
     stroke-linejoin="bevel"
     points="3516.03,663.622 3516.03,717.918"
     id="polyline1377"
     transform="translate(-300.798,-608.65316)" />
  <polyline
     class="Stem"
     fill="none"
     stroke="#000000"
     stroke-width="1.76"
     stroke-linejoin="bevel"
     points="3042.01,684.296 3042.01,634.31"
     id="polyline1379"
     transform="translate(-300.798,-608.65316)" />
  <polyline
     class="Stem"
     fill="none"
     stroke="#000000"
     stroke-width="1.76"
     stroke-linejoin="bevel"
     points="1243.43,675.476 1243.43,621.08"
     id="polyline1381"
     transform="translate(-300.798,-608.65316)" />
  <polyline
     class="Stem"
     fill="none"
     stroke="#000000"
     stroke-width="1.76"
     stroke-linejoin="bevel"
     points="3008.78,693.116 3008.78,638.497"
     id="polyline1383"
     transform="translate(-300.798,-608.65316)" />
  <polyline
     class="Stem"
     fill="none"
     stroke="#000000"
     stroke-width="1.76"
     stroke-linejoin="bevel"
     points="1260.19,672.442 1260.19,722.398"
     id="polyline1385"
     transform="translate(-300.798,-608.65316)" />
  <polyline
     class="Stem"
     fill="none"
     stroke="#000000"
     stroke-width="1.76"
     stroke-linejoin="bevel"
     points="2975.55,701.936 2975.55,651.95"
     id="polyline1387"
     transform="translate(-300.798,-608.65316)" />
  <polyline
     class="Stem"
     fill="none"
     stroke="#000000"
     stroke-width="1.76"
     stroke-linejoin="bevel"
     points="1334.97,672.442 1334.97,717.95"
     id="polyline1389"
     transform="translate(-300.798,-608.65316)" />
  <polyline
     class="Stem"
     fill="none"
     stroke="#000000"
     stroke-width="1.76"
     stroke-linejoin="bevel"
     points="2942.31,710.756 2942.31,656.137"
     id="polyline1391"
     transform="translate(-300.798,-608.65316)" />
  <polyline
     class="Stem"
     fill="none"
     stroke="#000000"
     stroke-width="1.76"
     stroke-linejoin="bevel"
     points="2867.54,710.756 2867.54,651.838"
     id="polyline1393"
     transform="translate(-300.798,-608.65316)" />
  <polyline
     class="Stem"
     fill="none"
     stroke="#000000"
     stroke-width="1.76"
     stroke-linejoin="bevel"
     points="1384.82,663.622 1384.82,715.783"
     id="polyline1395"
     transform="translate(-300.798,-608.65316)" />
  <polyline
     class="Stem"
     fill="none"
     stroke="#000000"
     stroke-width="1.76"
     stroke-linejoin="bevel"
     points="3902.9,672.442 3902.9,722.398"
     id="polyline1397"
     transform="translate(-300.798,-608.65316)" />
  <polyline
     class="Stem"
     fill="none"
     stroke="#000000"
     stroke-width="1.76"
     stroke-linejoin="bevel"
     points="1434.67,654.802 1434.67,713.617"
     id="polyline1399"
     transform="translate(-300.798,-608.65316)" />
  <polyline
     class="Stem"
     fill="none"
     stroke="#000000"
     stroke-width="1.76"
     stroke-linejoin="bevel"
     points="3886.14,675.476 3886.14,621.08"
     id="polyline1401"
     transform="translate(-300.798,-608.65316)" />
  <polyline
     class="Stem"
     fill="none"
     stroke="#000000"
     stroke-width="1.76"
     stroke-linejoin="bevel"
     points="3852.91,684.296 3852.91,625.267"
     id="polyline1403"
     transform="translate(-300.798,-608.65316)" />
  <polyline
     class="Stem"
     fill="none"
     stroke="#000000"
     stroke-width="1.76"
     stroke-linejoin="bevel"
     points="1484.52,672.442 1484.52,726.738"
     id="polyline1405"
     transform="translate(-300.798,-608.65316)" />
  <polyline
     class="Stem"
     fill="none"
     stroke="#000000"
     stroke-width="1.76"
     stroke-linejoin="bevel"
     points="2737.45,693.116 2737.45,634.198"
     id="polyline1407"
     transform="translate(-300.798,-608.65316)" />
  <polyline
     class="Stem"
     fill="none"
     stroke="#000000"
     stroke-width="1.76"
     stroke-linejoin="bevel"
     points="1555.52,684.296 1555.52,625.378"
     id="polyline1409"
     transform="translate(-300.798,-608.65316)" />
  <polyline
     class="Stem"
     fill="none"
     stroke="#000000"
     stroke-width="1.76"
     stroke-linejoin="bevel"
     points="2704.22,675.476 2704.22,621.08"
     id="polyline1411"
     transform="translate(-300.798,-608.65316)" />
  <polyline
     class="Stem"
     fill="none"
     stroke="#000000"
     stroke-width="1.76"
     stroke-linejoin="bevel"
     points="511.993,710.756 511.993,651.838"
     id="polyline1413"
     transform="translate(-300.798,-608.65316)" />
  <polyline
     class="Stem"
     fill="none"
     stroke="#000000"
     stroke-width="1.76"
     stroke-linejoin="bevel"
     points="3781.9,654.802 3781.9,713.508"
     id="polyline1415"
     transform="translate(-300.798,-608.65316)" />
  <polyline
     class="Stem"
     fill="none"
     stroke="#000000"
     stroke-width="1.76"
     stroke-linejoin="bevel"
     points="1685.61,710.756 1685.61,651.838"
     id="polyline1417"
     transform="translate(-300.798,-608.65316)" />
  <polyline
     class="Stem"
     fill="none"
     stroke="#000000"
     stroke-width="1.76"
     stroke-linejoin="bevel"
     points="2259.33,672.442 2259.33,722.398"
     id="polyline1419"
     transform="translate(-300.798,-608.65316)" />
  <polyline
     class="Stem"
     fill="none"
     stroke="#000000"
     stroke-width="1.76"
     stroke-linejoin="bevel"
     points="2670.98,684.296 2670.98,625.267"
     id="polyline1421"
     transform="translate(-300.798,-608.65316)" />
  <polyline
     class="Stem"
     fill="none"
     stroke="#000000"
     stroke-width="1.76"
     stroke-linejoin="bevel"
     points="1760.39,710.756 1760.39,656.137"
     id="polyline1423"
     transform="translate(-300.798,-608.65316)" />
  <polyline
     class="Stem"
     fill="none"
     stroke="#000000"
     stroke-width="1.76"
     stroke-linejoin="bevel"
     points="586.769,710.756 586.769,651.98"
     id="polyline1425"
     transform="translate(-300.798,-608.65316)" />
  <polyline
     class="Stem"
     fill="none"
     stroke="#000000"
     stroke-width="1.76"
     stroke-linejoin="bevel"
     points="2599.98,663.622 2599.98,717.918"
     id="polyline1427"
     transform="translate(-300.798,-608.65316)" />
  <polyline
     class="Stem"
     fill="none"
     stroke="#000000"
     stroke-width="1.76"
     stroke-linejoin="bevel"
     points="2159.33,654.802 2159.33,713.578"
     id="polyline1429"
     transform="translate(-300.798,-608.65316)" />
  <polyline
     class="Stem"
     fill="none"
     stroke="#000000"
     stroke-width="1.76"
     stroke-linejoin="bevel"
     points="1793.62,701.936 1793.62,651.95"
     id="polyline1431"
     transform="translate(-300.798,-608.65316)" />
  <polyline
     class="Stem"
     fill="none"
     stroke="#000000"
     stroke-width="1.76"
     stroke-linejoin="bevel"
     points="2525.2,672.442 2525.2,722.398"
     id="polyline1433"
     transform="translate(-300.798,-608.65316)" />
  <polyline
     class="Stem"
     fill="none"
     stroke="#000000"
     stroke-width="1.76"
     stroke-linejoin="bevel"
     points="1826.85,693.116 1826.85,638.497"
     id="polyline1435"
     transform="translate(-300.798,-608.65316)" />
  <polyline
     class="Stem"
     fill="none"
     stroke="#000000"
     stroke-width="1.76"
     stroke-linejoin="bevel"
     points="2471.58,693.116 2471.58,634.198"
     id="polyline1437"
     transform="translate(-300.798,-608.65316)" />
  <polyline
     class="Stem"
     fill="none"
     stroke="#000000"
     stroke-width="1.76"
     stroke-linejoin="bevel"
     points="2438.35,675.476 2438.35,621.08"
     id="polyline1439"
     transform="translate(-300.798,-608.65316)" />
  <polyline
     class="Stem"
     fill="none"
     stroke="#000000"
     stroke-width="1.76"
     stroke-linejoin="bevel"
     points="1860.09,684.296 1860.09,634.31"
     id="polyline1441"
     transform="translate(-300.798,-608.65316)" />
  <polyline
     class="Stem"
     fill="none"
     stroke="#000000"
     stroke-width="1.76"
     stroke-linejoin="bevel"
     points="2405.11,684.296 2405.11,625.267"
     id="polyline1443"
     transform="translate(-300.798,-608.65316)" />
  <polyline
     class="Stem"
     fill="none"
     stroke="#000000"
     stroke-width="1.76"
     stroke-linejoin="bevel"
     points="1893.32,675.476 1893.32,620.968"
     id="polyline1445"
     transform="translate(-300.798,-608.65316)" />
  <polyline
     class="Stem"
     fill="none"
     stroke="#000000"
     stroke-width="1.76"
     stroke-linejoin="bevel"
     points="3707.13,672.442 3707.13,722.398"
     id="polyline1447"
     transform="translate(-300.798,-608.65316)" />
  <polyline
     class="Stem"
     fill="none"
     stroke="#000000"
     stroke-width="1.76"
     stroke-linejoin="bevel"
     points="1968.1,684.296 1968.1,625.378"
     id="polyline1449"
     transform="translate(-300.798,-608.65316)" />
  <polyline
     class="Stem"
     fill="none"
     stroke="#000000"
     stroke-width="1.76"
     stroke-linejoin="bevel"
     points="636.619,701.936 636.619,638.551"
     id="polyline1451"
     transform="translate(-300.798,-608.65316)" />
  <polyline
     class="Stem"
     fill="none"
     stroke="#000000"
     stroke-width="1.76"
     stroke-linejoin="bevel"
     points="2042.87,684.296 2042.87,625.267"
     id="polyline1453"
     transform="translate(-300.798,-608.65316)" />
  <polyline
     class="Stem"
     fill="none"
     stroke="#000000"
     stroke-width="1.76"
     stroke-linejoin="bevel"
     points="3653.51,693.116 3653.51,634.198"
     id="polyline1455"
     transform="translate(-300.798,-608.65316)" />
  <polyline
     class="Stem"
     fill="none"
     stroke="#000000"
     stroke-width="1.76"
     stroke-linejoin="bevel"
     points="3620.27,675.476 3620.27,621.08"
     id="polyline1457"
     transform="translate(-300.798,-608.65316)" />
  <polyline
     class="Stem"
     fill="none"
     stroke="#000000"
     stroke-width="1.76"
     stroke-linejoin="bevel"
     points="2076.11,675.476 2076.11,621.08"
     id="polyline1459"
     transform="translate(-300.798,-608.65316)" />
  <polyline
     class="Stem"
     fill="none"
     stroke="#000000"
     stroke-width="1.76"
     stroke-linejoin="bevel"
     points="2334.11,663.622 2334.11,717.918"
     id="polyline1461"
     transform="translate(-300.798,-608.65316)" />
  <polyline
     class="Stem"
     fill="none"
     stroke="#000000"
     stroke-width="1.76"
     stroke-linejoin="bevel"
     points="2092.86,672.442 2092.86,722.287"
     id="polyline1463"
     transform="translate(-300.798,-608.65316)" />
  <path
     class="Hook"
     d="m 285.089,59.204144 c 0,0.209493 0.0661,0.628478 0.56227,0.771785 3.03188,0.992215 9.10664,4.8069 13.69304,12.634615 1.26789,2.182985 3.31858,5.225885 3.31858,11.080178 0,5.082507 -1.2789,10.297315 -3.1752,15.379822 -0.14338,0.429993 -0.2205,0.782793 -0.2205,1.058396 0,0.49618 0.28661,0.7056 0.78272,0.7056 0.41898,0 0.77178,-0.2756 1.0584,-0.77171 3.1752,-5.644801 4.37698,-12.215701 4.37698,-18.632286 -0.3528,-9.106615 -5.57869,-15.809815 -5.57869,-15.809815 0.20949,0 -6.49371,-8.676692 -8.40105,-11.6424 -2.6019,-4.024142 -3.80362,-8.037242 -3.94695,-8.323892 -0.0661,-0.209472 -0.7056,-2.75625 -0.7056,-2.75625 -0.0661,-0.275625 -0.41895,-0.562279 -0.84892,-0.562279 -0.49613,0 -0.91508,0.429979 -0.91508,0.915079 v 15.953157"
     id="path1465"
     style="stroke-width:0.7056" />
  <path
     class="Hook"
     d="m 584.191,43.614829 c 0,0.209493 0.56228,0.4851 1.0584,0.7056 1.83015,0.628408 7.34269,4.156408 11.57629,10.440693 2.3924,3.594115 2.9547,6.140907 2.9547,8.533315 0,0.429992 0,0.782792 -0.0662,1.201707 0,1.697885 -0.49611,5.292 -1.55451,8.1144 -0.0662,0.3528 -0.2756,0.782793 -0.2756,1.135593 0,0.275607 0.1323,0.562292 0.4851,0.771785 0.1433,0.06611 0.28661,0.06611 0.3528,0.06611 0.4961,0 0.78272,-0.562293 1.0584,-0.981208 1.2789,-1.973492 3.10901,-5.788107 3.10901,-9.7461 0,-2.039607 -0.14331,-3.737492 -0.3528,-5.214807 0.78279,-2.612978 1.34509,-5.225885 1.34509,-8.676693 0,-3.671307 -0.99229,-6.989885 -3.3957,-10.165085 -3.3075,-4.376907 -6.9127,-7.971022 -9.59179,-11.929015 -2.67907,-3.8808 -4.65255,-11.146292 -4.65255,-11.146292 -0.14332,-0.496125 -0.2205,-0.848929 -0.99225,-0.848929 -0.84892,0 -1.0584,0.352804 -1.0584,0.848929 v 26.889992 m 14.75149,6.4827 c -1.90738,-2.4696 -4.02418,-4.7187 -7.486,-8.180585 -2.74524,-2.756215 -4.02414,-5.148622 -4.44309,-6.989815 -0.14332,-0.3528 -0.20947,-0.848907 -0.28665,-1.4112 3.60518,0.07719 8.19156,4.873015 10.72734,8.191593 2.75622,3.594115 3.3847,6.493707 3.3847,9.095607 0,0.7056 -0.0662,1.4112 -0.1323,2.1168 -0.5733,-1.124585 -1.20178,-2.039607 -1.764,-2.8224"
     id="path1467"
     style="stroke-width:0.7056" />
  <path
     class="Hook"
     d="m 858.672,32.744144 c 0,0.209493 0.0661,0.628478 0.56228,0.771785 3.03187,0.992215 9.10663,4.8069 13.69303,12.634615 1.26789,2.182985 3.31858,5.225885 3.31858,11.080178 0,5.082507 -1.2789,10.297315 -3.1752,15.379822 -0.14338,0.429993 -0.2205,0.782793 -0.2205,1.0584 0,0.496178 0.28661,0.7056 0.78272,0.7056 0.41898,0 0.77178,-0.275607 1.0584,-0.771715 3.1752,-5.6448 4.37698,-12.2157 4.37698,-18.632285 -0.3528,-9.106615 -5.57869,-15.809815 -5.57869,-15.809815 0.20949,0 -6.49371,-8.676692 -8.40105,-11.6424 -2.6019,-4.024142 -3.80362,-8.037242 -3.94695,-8.323892 -0.0661,-0.209472 -0.7056,-2.75625 -0.7056,-2.75625 -0.0661,-0.275625 -0.41895,-0.562279 -0.84892,-0.562279 -0.49613,0 -0.91508,0.429979 -0.91508,0.915079 v 15.953157"
     id="path1469"
     style="stroke-width:0.7056" />
  <path
     class="Hook"
     d="m 1182.832,118.08869 c 0,0.4851 0.419,0.91508 0.9151,0.91508 0.3528,0 0.7828,-0.28666 0.8489,-0.56228 0,-0.0772 0.6395,-2.54678 0.7056,-2.75625 0.066,-0.28665 0.7056,-2.96573 3.2414,-7.12219 2.7562,-4.5864 6.9898,-7.90491 10.5178,-12.844106 3.528,-4.9392 5.5787,-9.602792 5.5787,-15.809815 0,-6.416585 -1.4112,-11.785777 -5.2259,-18.632285 -0.2095,-0.496107 -0.6394,-0.771715 -1.0584,-0.771715 -0.1433,0 -0.2866,0 -0.3528,0.06612 -0.3528,0.143308 -0.4961,0.429993 -0.4961,0.848908 0,0.209492 0.077,0.496177 0.2095,0.848977 2.8224,6.559823 3.9579,10.297315 3.9579,15.379823 0,5.854292 -2.0506,8.897192 -3.3185,11.080177 -4.5864,7.827715 -11.9952,11.642406 -14.9609,12.634616 -0.4961,0.14331 -0.5623,0.5623 -0.5623,0.77179 v 15.95316"
     id="path1471"
     style="stroke-width:0.7056" />
  <path
     class="Hook"
     d="m 2298.292,109.26869 c 0,0.4851 0.419,0.91508 0.9151,0.91508 0.3528,0 0.7828,-0.28666 0.8489,-0.56228 0,-0.0772 0.6395,-2.54678 0.7056,-2.75625 0.066,-0.28665 0.7056,-2.96573 3.2414,-7.122188 2.7562,-4.5864 6.9898,-7.904908 10.5178,-12.844108 3.528,-4.9392 5.5787,-9.602792 5.5787,-15.809815 0,-6.416585 -1.4112,-11.785777 -5.2259,-18.632285 -0.2095,-0.496107 -0.6394,-0.771715 -1.0584,-0.771715 -0.1433,0 -0.2866,0 -0.3528,0.06611 -0.3528,0.143308 -0.4961,0.429993 -0.4961,0.848908 0,0.209492 0.077,0.496177 0.2095,0.848977 2.8224,6.559823 3.9579,10.297315 3.9579,15.379823 0,5.854292 -2.0506,8.897192 -3.3185,11.080177 -4.5864,7.827715 -11.9952,11.6424 -14.9609,12.634615 -0.4961,0.143308 -0.5623,0.562293 -0.5623,0.771785 v 15.953166"
     id="path1473"
     style="stroke-width:0.7056" />
  <path
     class="Hook"
     d="m 2032.432,109.26869 c 0,0.4851 0.419,0.91508 0.9151,0.91508 0.3528,0 0.7828,-0.28666 0.8489,-0.56228 0,-0.0772 0.6395,-2.54678 0.7056,-2.75625 0.066,-0.28665 0.7056,-2.96573 3.2414,-7.122188 2.7562,-4.5864 6.9898,-7.904908 10.5178,-12.844108 3.528,-4.9392 5.5787,-9.602792 5.5787,-15.809815 0,-6.416585 -1.4112,-11.785777 -5.2259,-18.632285 -0.2095,-0.496107 -0.6394,-0.771715 -1.0584,-0.771715 -0.1433,0 -0.2866,0 -0.3528,0.06611 -0.3528,0.143308 -0.4961,0.429993 -0.4961,0.848908 0,0.209492 0.077,0.496177 0.2095,0.848977 2.8224,6.559823 3.9579,10.297315 3.9579,15.379823 0,5.854292 -2.0506,8.897192 -3.3185,11.080177 -4.5864,7.827715 -11.9952,11.6424 -14.9609,12.634615 -0.4961,0.143308 -0.5623,0.562293 -0.5623,0.771785 v 15.953166"
     id="path1475"
     style="stroke-width:0.7056" />
  <path
     class="Hook"
     d="m 3214.352,109.26869 c 0,0.4851 0.419,0.91508 0.9151,0.91508 0.3528,0 0.7827,-0.28666 0.8489,-0.56228 0,-0.0772 0.6394,-2.54678 0.7056,-2.75625 0.066,-0.28665 0.7056,-2.96573 3.2414,-7.122188 2.7562,-4.5864 6.9898,-7.904908 10.5178,-12.844108 3.528,-4.9392 5.5787,-9.602792 5.5787,-15.809815 0,-6.416585 -1.4112,-11.785777 -5.2259,-18.632285 -0.2095,-0.496107 -0.6394,-0.771715 -1.0584,-0.771715 -0.1433,0 -0.2866,0 -0.3528,0.06611 -0.3528,0.143308 -0.4961,0.429993 -0.4961,0.848908 0,0.209492 0.077,0.496177 0.2095,0.848977 2.8224,6.559823 3.9579,10.297315 3.9579,15.379823 0,5.854292 -2.0506,8.897192 -3.3185,11.080177 -4.5864,7.827715 -11.9952,11.6424 -14.9609,12.634615 -0.4961,0.143308 -0.5623,0.562293 -0.5623,0.771785 v 15.953166"
     id="path1477"
     style="stroke-width:0.7056" />
  <path
     class="Hook"
     d="m 3480.222,104.85869 c 0,0.4851 0.419,0.91508 0.9151,0.91508 0.3528,0 0.7827,-0.28666 0.8489,-0.56228 0,-0.0772 0.6394,-2.54678 0.7056,-2.75625 0.066,-0.28665 0.7056,-2.965732 3.2413,-7.122188 2.7563,-4.5864 6.9899,-7.904908 10.5179,-12.844108 3.528,-4.9392 5.5787,-9.602792 5.5787,-15.809815 0,-6.416585 -1.4112,-11.785777 -5.2259,-18.632285 -0.2095,-0.496107 -0.6394,-0.771715 -1.0584,-0.771715 -0.1433,0 -0.2866,0 -0.3528,0.06612 -0.3528,0.143308 -0.4961,0.429993 -0.4961,0.848908 0,0.209492 0.077,0.496177 0.2095,0.848977 2.8224,6.559823 3.9579,10.297315 3.9579,15.379823 0,5.854292 -2.0506,8.897192 -3.3185,11.080177 -4.5864,7.827715 -11.9952,11.6424 -14.9609,12.634615 -0.4962,0.143308 -0.5623,0.562293 -0.5623,0.771785 v 15.953156"
     id="path1479"
     style="stroke-width:0.7056" />
  <path
     class="Note"
     d="m 1791.182,63.790565 c 0,3.031872 2.183,6.416564 7.9049,6.416564 7.3317,0 15.0271,-5.997614 15.0271,-12.204692 0,-4.16745 -3.528,-6.493708 -7.9049,-6.493708 -6.8465,0 -15.0271,5.788108 -15.0271,12.281836"
     id="path1481"
     style="stroke-width:0.7056" />
  <path
     class="Note"
     d="m 1957.652,63.790565 c 0,3.031872 2.1829,6.416564 7.9049,6.416564 7.3317,0 15.0271,-5.997614 15.0271,-12.204692 0,-4.16745 -3.528,-6.493708 -7.9049,-6.493708 -6.8465,0 -15.0271,5.788108 -15.0271,12.281836"
     id="path1483"
     style="stroke-width:0.7056" />
  <path
     class="Note"
     d="m 1857.652,46.150565 c 0,3.031872 2.1829,6.416564 7.9049,6.416564 7.3317,0 15.0271,-5.997614 15.0271,-12.204692 0,-4.16745 -3.528,-6.493708 -7.9049,-6.493708 -6.8465,0 -15.0271,5.788108 -15.0271,12.281836"
     id="path1485"
     style="stroke-width:0.7056" />
  <path
     class="Note"
     d="m 1753.272,72.610565 c 0,3.031872 2.183,6.416564 7.9049,6.416564 7.3317,0 15.0271,-5.997614 15.0271,-12.204692 0,-4.16745 -3.528,-6.493708 -7.9049,-6.493708 -6.8465,0 -15.0271,5.788108 -15.0271,12.281836"
     id="path1487"
     style="stroke-width:0.7056" />
  <path
     class="Note"
     d="m 313.782,99.070565 c 0,3.031875 2.18295,6.416565 7.90491,6.416565 7.33168,0 15.02709,-5.997615 15.02709,-12.204693 0,-4.16745 -3.528,-6.493708 -7.90491,-6.493708 -6.8465,0 -15.02709,5.788108 -15.02709,12.281836"
     id="path1489"
     style="stroke-width:0.7056" />
  <path
     class="Note"
     d="m 1720.032,81.430565 c 0,3.031872 2.1829,6.416564 7.9049,6.416564 7.3317,0 15.0271,-5.997614 15.0271,-12.204692 0,-4.16745 -3.528,-6.493708 -7.9049,-6.493708 -6.8465,0 -15.0271,5.788108 -15.0271,12.281836"
     id="path1491"
     style="stroke-width:0.7056" />
  <path
     class="Note"
     d="m 1645.262,81.430565 c 0,3.031872 2.1829,6.416564 7.9049,6.416564 7.3317,0 15.0271,-5.997614 15.0271,-12.204692 0,-4.16745 -3.528,-6.493708 -7.9049,-6.493708 -6.8465,0 -15.0271,5.788108 -15.0271,12.281836"
     id="path1493"
     style="stroke-width:0.7056" />
  <path
     class="Note"
     d="m 1570.482,72.610565 c 0,3.031872 2.1829,6.416564 7.9049,6.416564 7.3317,0 15.0271,-5.997614 15.0271,-12.204692 0,-4.16745 -3.528,-6.493708 -7.9049,-6.493708 -6.8465,0 -15.0271,5.788108 -15.0271,12.281836"
     id="path1495"
     style="stroke-width:0.7056" />
  <path
     class="Note"
     d="m 2032.432,54.970565 c 0,3.031872 2.183,6.416564 7.9049,6.416564 7.3317,0 15.0271,-5.997614 15.0271,-12.204692 0,-4.16745 -3.528,-6.493708 -7.9049,-6.493708 -6.8465,0 -15.0271,5.788108 -15.0271,12.281836"
     id="path1497"
     style="stroke-width:0.7056" />
  <path
     class="Note"
     d="m 1537.252,81.430565 c 0,3.031872 2.1829,6.416564 7.9049,6.416564 7.3317,0 15.0271,-5.997614 15.0271,-12.204692 0,-4.16745 -3.528,-6.493708 -7.9049,-6.493708 -6.8465,0 -15.0271,5.788108 -15.0271,12.281836"
     id="path1499"
     style="stroke-width:0.7056" />
  <path
     class="Note"
     d="m 2082.282,81.430565 c 0,3.031872 2.183,6.416564 7.9049,6.416564 7.3317,0 15.0271,-5.997614 15.0271,-12.204692 0,-4.16745 -3.528,-6.493708 -7.9049,-6.493708 -6.8465,0 -15.0271,5.788108 -15.0271,12.281836"
     id="path1501"
     style="stroke-width:0.7056" />
  <path
     class="Note"
     d="m 3330.672,90.250565 c 0,3.031872 2.1829,6.416564 7.9049,6.416564 7.3317,0 15.0271,-5.997614 15.0271,-12.204692 0,-4.16745 -3.528,-6.493708 -7.9049,-6.493708 -6.8465,0 -15.0271,5.788108 -15.0271,12.281836"
     id="path1503"
     style="stroke-width:0.7056" />
  <path
     class="Note"
     d="m 263.932,107.89057 c 0,3.03187 2.18295,6.41656 7.90491,6.41656 7.33168,0 15.02709,-5.99761 15.02709,-12.20469 0,-4.167453 -3.528,-6.493711 -7.90491,-6.493711 -6.8465,0 -15.02709,5.788111 -15.02709,12.281841"
     id="path1505"
     style="stroke-width:0.7056" />
  <path
     class="Note"
     d="m 2115.512,72.610565 c 0,3.031872 2.1829,6.416564 7.9049,6.416564 7.3317,0 15.0271,-5.997614 15.0271,-12.204692 0,-4.16745 -3.528,-6.493708 -7.9049,-6.493708 -6.8465,0 -15.0271,5.788108 -15.0271,12.281836"
     id="path1507"
     style="stroke-width:0.7056" />
  <path
     class="Note"
     d="m 1504.022,90.250565 c 0,3.031872 2.1829,6.416564 7.9049,6.416564 7.3317,0 15.0271,-5.997614 15.0271,-12.204692 0,-4.16745 -3.528,-6.493708 -7.9049,-6.493708 -6.8465,0 -15.0271,5.788108 -15.0271,12.281836"
     id="path1509"
     style="stroke-width:0.7056" />
  <path
     class="Note"
     d="m 2148.742,90.250565 c 0,3.031872 2.183,6.416564 7.9049,6.416564 7.3317,0 15.0271,-5.997614 15.0271,-12.204692 0,-4.16745 -3.528,-6.493708 -7.9049,-6.493708 -6.8465,0 -15.0271,5.788108 -15.0271,12.281836"
     id="path1511"
     style="stroke-width:0.7056" />
  <path
     class="Note"
     d="m 1470.782,99.070565 c 0,3.031875 2.1829,6.416565 7.9049,6.416565 7.3317,0 15.0271,-5.997615 15.0271,-12.204693 0,-4.16745 -3.528,-6.493708 -7.9049,-6.493708 -6.8465,0 -15.0271,5.788108 -15.0271,12.281836"
     id="path1513"
     style="stroke-width:0.7056" />
  <path
     class="Note"
     d="m 2223.522,63.790565 c 0,3.031872 2.1829,6.416564 7.9049,6.416564 7.3317,0 15.0271,-5.997614 15.0271,-12.204692 0,-4.16745 -3.528,-6.493708 -7.9049,-6.493708 -6.8465,0 -15.0271,5.788108 -15.0271,12.281836"
     id="path1515"
     style="stroke-width:0.7056" />
  <path
     class="Note"
     d="m 3405.442,63.790565 c 0,3.031872 2.183,6.416564 7.9049,6.416564 7.3317,0 15.0271,-5.997614 15.0271,-12.204692 0,-4.16745 -3.528,-6.493708 -7.9049,-6.493708 -6.8465,0 -15.0271,5.788108 -15.0271,12.281836"
     id="path1517"
     style="stroke-width:0.7056" />
  <path
     class="Note"
     d="m 1437.552,107.89057 c 0,3.03187 2.1829,6.41656 7.9049,6.41656 7.3317,0 15.0271,-5.99761 15.0271,-12.20469 0,-4.167453 -3.528,-6.493711 -7.9049,-6.493711 -6.8465,0 -15.0271,5.788111 -15.0271,12.281841"
     id="path1519"
     style="stroke-width:0.7056" />
  <path
     class="Note"
     d="m 2298.292,54.970565 c 0,3.031872 2.183,6.416564 7.9049,6.416564 7.3317,0 15.0271,-5.997614 15.0271,-12.204692 0,-4.16745 -3.528,-6.493708 -7.9049,-6.493708 -6.8465,0 -15.0271,5.788108 -15.0271,12.281836"
     id="path1521"
     style="stroke-width:0.7056" />
  <path
     class="Note"
     d="m 1362.772,107.89057 c 0,3.03187 2.1829,6.41656 7.9049,6.41656 7.3317,0 15.0271,-5.99761 15.0271,-12.20469 0,-4.167453 -3.528,-6.493711 -7.9049,-6.493711 -6.8465,0 -15.0271,5.788111 -15.0271,12.281841"
     id="path1523"
     style="stroke-width:0.7056" />
  <path
     class="Note"
     d="m 2348.142,81.430565 c 0,3.031872 2.1829,6.416564 7.9049,6.416564 7.3317,0 15.0271,-5.997614 15.0271,-12.204692 0,-4.16745 -3.528,-6.493708 -7.9049,-6.493708 -6.8465,0 -15.0271,5.788108 -15.0271,12.281836"
     id="path1525"
     style="stroke-width:0.7056" />
  <path
     class="Note"
     d="m 189.156,107.89057 c 0,3.03187 2.18295,6.41656 7.90491,6.41656 7.33168,0 15.02709,-5.99761 15.02709,-12.20469 0,-4.167453 -3.528,-6.493711 -7.90491,-6.493711 -6.8465,0 -15.02709,5.788111 -15.02709,12.281841"
     id="path1527"
     style="stroke-width:0.7056" />
  <path
     class="Note"
     d="m 1232.682,81.430565 c 0,3.031872 2.183,6.416564 7.9049,6.416564 7.3317,0 15.0271,-5.997614 15.0271,-12.204692 0,-4.16745 -3.528,-6.493708 -7.9049,-6.493708 -6.8465,0 -15.0271,5.788108 -15.0271,12.281836"
     id="path1529"
     style="stroke-width:0.7056" />
  <path
     class="Note"
     d="m 2381.382,72.610565 c 0,3.031872 2.1829,6.416564 7.9049,6.416564 7.3317,0 15.0271,-5.997614 15.0271,-12.204692 0,-4.16745 -3.528,-6.493708 -7.9049,-6.493708 -6.8465,0 -15.0271,5.788108 -15.0271,12.281836"
     id="path1531"
     style="stroke-width:0.7056" />
  <path
     class="Note"
     d="m 1182.832,63.790565 c 0,3.031872 2.183,6.416564 7.9049,6.416564 7.3317,0 15.0271,-5.997614 15.0271,-12.204692 0,-4.16745 -3.528,-6.493708 -7.9049,-6.493708 -6.8465,0 -15.0271,5.788108 -15.0271,12.281836"
     id="path1533"
     style="stroke-width:0.7056" />
  <path
     class="Note"
     d="m 2414.612,90.250565 c 0,3.031872 2.183,6.416564 7.9049,6.416564 7.3317,0 15.0271,-5.997614 15.0271,-12.204692 0,-4.16745 -3.528,-6.493708 -7.9049,-6.493708 -6.8465,0 -15.0271,5.788108 -15.0271,12.281836"
     id="path1535"
     style="stroke-width:0.7056" />
  <path
     class="Note"
     d="m 1132.982,46.150565 c 0,3.031872 2.1829,6.416564 7.9049,6.416564 7.3317,0 15.0271,-5.997614 15.0271,-12.204692 0,-4.16745 -3.528,-6.493708 -7.9049,-6.493708 -6.8465,0 -15.0271,5.788108 -15.0271,12.281836"
     id="path1537"
     style="stroke-width:0.7056" />
  <path
     class="Note"
     d="m 1083.132,54.970565 c 0,3.031872 2.183,6.416564 7.9049,6.416564 7.3317,0 15.0271,-5.997614 15.0271,-12.204692 0,-4.16745 -3.528,-6.493708 -7.9049,-6.493708 -6.8465,0 -15.0271,5.788108 -15.0271,12.281836"
     id="path1539"
     style="stroke-width:0.7056" />
  <path
     class="Note"
     d="m 3480.222,46.150565 c 0,3.031872 2.1829,6.416564 7.9049,6.416564 7.3317,0 15.0271,-5.997614 15.0271,-12.204692 0,-4.16745 -3.528,-6.493708 -7.9049,-6.493708 -6.8465,0 -15.0271,5.788108 -15.0271,12.281836"
     id="path1541"
     style="stroke-width:0.7056" />
  <path
     class="Note"
     d="m 2544.702,107.89057 c 0,3.03187 2.183,6.41656 7.9049,6.41656 7.3317,0 15.0271,-5.99761 15.0271,-12.20469 0,-4.167453 -3.528,-6.493711 -7.9049,-6.493711 -6.8465,0 -15.0271,5.788111 -15.0271,12.281841"
     id="path1543"
     style="stroke-width:0.7056" />
  <path
     class="Note"
     d="m 1033.282,63.790565 c 0,3.031872 2.1829,6.416564 7.9049,6.416564 7.3317,0 15.0271,-5.997614 15.0271,-12.204692 0,-4.16745 -3.528,-6.493708 -7.9049,-6.493708 -6.8465,0 -15.0271,5.788108 -15.0271,12.281836"
     id="path1545"
     style="stroke-width:0.7056" />
  <path
     class="Note"
     d="m 2619.472,107.89057 c 0,3.03187 2.1829,6.41656 7.9049,6.41656 7.3317,0 15.0271,-5.99761 15.0271,-12.20469 0,-4.167453 -3.528,-6.493711 -7.9049,-6.493711 -6.8465,0 -15.0271,5.788111 -15.0271,12.281841"
     id="path1547"
     style="stroke-width:0.7056" />
  <path
     class="Note"
     d="m 3530.072,81.430565 c 0,3.031872 2.183,6.416564 7.9049,6.416564 7.3317,0 15.0271,-5.997614 15.0271,-12.204692 0,-4.16745 -3.528,-6.493708 -7.9049,-6.493708 -6.8465,0 -15.0271,5.788108 -15.0271,12.281836"
     id="path1549"
     style="stroke-width:0.7056" />
  <path
     class="Note"
     d="m 958.512,63.790565 c 0,3.031872 2.18295,6.416564 7.90491,6.416564 7.33168,0 15.02709,-5.997614 15.02709,-12.204692 0,-4.16745 -3.528,-6.493708 -7.90491,-6.493708 -6.8465,0 -15.02709,5.788108 -15.02709,12.281836"
     id="path1551"
     style="stroke-width:0.7056" />
  <path
     class="Note"
     d="m 2652.712,99.070565 c 0,3.031875 2.183,6.416565 7.9049,6.416565 7.3317,0 15.0271,-5.997615 15.0271,-12.204693 0,-4.16745 -3.528,-6.493708 -7.9049,-6.493708 -6.8465,0 -15.0271,5.788108 -15.0271,12.281836"
     id="path1553"
     style="stroke-width:0.7056" />
  <path
     class="Note"
     d="m 920.592,72.610565 c 0,3.031872 2.18295,6.416564 7.90491,6.416564 7.33168,0 15.02709,-5.997614 15.02709,-12.204692 0,-4.16745 -3.528,-6.493708 -7.90491,-6.493708 -6.8465,0 -15.02709,5.788108 -15.02709,12.281836"
     id="path1555"
     style="stroke-width:0.7056" />
  <path
     class="Note"
     d="m 2685.942,90.250565 c 0,3.031872 2.183,6.416564 7.9049,6.416564 7.3317,0 15.0271,-5.997614 15.0271,-12.204692 0,-4.16745 -3.528,-6.493708 -7.9049,-6.493708 -6.8465,0 -15.0271,5.788108 -15.0271,12.281836"
     id="path1557"
     style="stroke-width:0.7056" />
  <path
     class="Note"
     d="m 3563.302,72.610565 c 0,3.031872 2.1829,6.416564 7.9049,6.416564 7.3317,0 15.0271,-5.997614 15.0271,-12.204692 0,-4.16745 -3.528,-6.493708 -7.9049,-6.493708 -6.8465,0 -15.0271,5.788108 -15.0271,12.281836"
     id="path1559"
     style="stroke-width:0.7056" />
  <path
     class="Note"
     d="m 3601.222,63.790565 c 0,3.031872 2.1829,6.416564 7.9049,6.416564 7.3317,0 15.0271,-5.997614 15.0271,-12.204692 0,-4.16745 -3.528,-6.493708 -7.9049,-6.493708 -6.8465,0 -15.0271,5.788108 -15.0271,12.281836"
     id="path1561"
     style="stroke-width:0.7056" />
  <path
     class="Note"
     d="m 887.362,81.430565 c 0,3.031872 2.18295,6.416564 7.90491,6.416564 7.33168,0 15.02709,-5.997614 15.02709,-12.204692 0,-4.16745 -3.528,-6.493708 -7.90491,-6.493708 -6.8465,0 -15.02709,5.788108 -15.02709,12.281836"
     id="path1563"
     style="stroke-width:0.7056" />
  <path
     class="Note"
     d="m 837.512,81.430565 c 0,3.031872 2.18295,6.416564 7.90491,6.416564 7.33168,0 15.02709,-5.997614 15.02709,-12.204692 0,-4.16745 -3.528,-6.493708 -7.90491,-6.493708 -6.8465,0 -15.02709,5.788108 -15.02709,12.281836"
     id="path1565"
     style="stroke-width:0.7056" />
  <path
     class="Note"
     d="m 2752.412,72.610565 c 0,3.031872 2.183,6.416564 7.9049,6.416564 7.3317,0 15.0271,-5.997614 15.0271,-12.204692 0,-4.16745 -3.528,-6.493708 -7.9049,-6.493708 -6.8465,0 -15.0271,5.788108 -15.0271,12.281836"
     id="path1567"
     style="stroke-width:0.7056" />
  <path
     class="Note"
     d="m 762.732,81.430565 c 0,3.031872 2.18295,6.416564 7.90491,6.416564 7.33168,0 15.02709,-5.997614 15.02709,-12.204692 0,-4.16745 -3.528,-6.493708 -7.90491,-6.493708 -6.8465,0 -15.02709,5.788108 -15.02709,12.281836"
     id="path1569"
     style="stroke-width:0.7056" />
  <path
     class="Note"
     d="m 2827.182,81.430565 c 0,3.031872 2.1829,6.416564 7.9049,6.416564 7.3317,0 15.0271,-5.997614 15.0271,-12.204692 0,-4.16745 -3.528,-6.493708 -7.9049,-6.493708 -6.8465,0 -15.0271,5.788108 -15.0271,12.281836"
     id="path1571"
     style="stroke-width:0.7056" />
  <path
     class="Note"
     d="m 662.735,72.610565 c 0,3.031872 2.18295,6.416564 7.90491,6.416564 7.33168,0 15.02709,-5.997614 15.02709,-12.204692 0,-4.16745 -3.528,-6.493708 -7.90491,-6.493708 -6.8465,0 -15.02709,5.788108 -15.02709,12.281836"
     id="path1573"
     style="stroke-width:0.7056" />
  <path
     class="Note"
     d="m 2901.962,81.430565 c 0,3.031872 2.183,6.416564 7.9049,6.416564 7.3317,0 15.0271,-5.997614 15.0271,-12.204692 0,-4.16745 -3.528,-6.493708 -7.9049,-6.493708 -6.8465,0 -15.0271,5.788108 -15.0271,12.281836"
     id="path1575"
     style="stroke-width:0.7056" />
  <path
     class="Note"
     d="m 629.501,81.430565 c 0,3.031872 2.18295,6.416564 7.90491,6.416564 7.33168,0 15.02709,-5.997614 15.02709,-12.204692 0,-4.16745 -3.528,-6.493708 -7.90491,-6.493708 -6.8465,0 -15.02709,5.788108 -15.02709,12.281836"
     id="path1577"
     style="stroke-width:0.7056" />
  <path
     class="Note"
     d="m 2935.192,72.610565 c 0,3.031872 2.183,6.416564 7.9049,6.416564 7.3317,0 15.0271,-5.997614 15.0271,-12.204692 0,-4.16745 -3.528,-6.493708 -7.9049,-6.493708 -6.8465,0 -15.0271,5.788108 -15.0271,12.281836"
     id="path1579"
     style="stroke-width:0.7056" />
  <path
     class="Note"
     d="m 2973.112,63.790565 c 0,3.031872 2.183,6.416564 7.9049,6.416564 7.3317,0 15.0271,-5.997614 15.0271,-12.204692 0,-4.16745 -3.528,-6.493708 -7.9049,-6.493708 -6.8465,0 -15.0271,5.788108 -15.0271,12.281836"
     id="path1581"
     style="stroke-width:0.7056" />
  <path
     class="Note"
     d="m 596.267,90.250565 c 0,3.031872 2.18295,6.416564 7.90491,6.416564 7.33168,0 15.02709,-5.997614 15.02709,-12.204692 0,-4.16745 -3.528,-6.493708 -7.90491,-6.493708 -6.8465,0 -15.02709,5.788108 -15.02709,12.281836"
     id="path1583"
     style="stroke-width:0.7056" />
  <path
     class="Note"
     d="m 3006.342,54.970565 c 0,3.031872 2.1829,6.416564 7.9049,6.416564 7.3317,0 15.0271,-5.997614 15.0271,-12.204692 0,-4.16745 -3.528,-6.493708 -7.9049,-6.493708 -6.8465,0 -15.0271,5.788108 -15.0271,12.281836"
     id="path1585"
     style="stroke-width:0.7056" />
  <path
     class="Note"
     d="m 563.034,81.430565 c 0,3.031872 2.18295,6.416564 7.90491,6.416564 7.33168,0 15.02709,-5.997614 15.02709,-12.204692 0,-4.16745 -3.528,-6.493708 -7.90491,-6.493708 -6.8465,0 -15.02709,5.788108 -15.02709,12.281836"
     id="path1587"
     style="stroke-width:0.7056" />
  <path
     class="Note"
     d="m 3039.582,46.150565 c 0,3.031872 2.183,6.416564 7.9049,6.416564 7.3317,0 15.0271,-5.997614 15.0271,-12.204692 0,-4.16745 -3.528,-6.493708 -7.9049,-6.493708 -6.8465,0 -15.0271,5.788108 -15.0271,12.281836"
     id="path1589"
     style="stroke-width:0.7056" />
  <path
     class="Note"
     d="m 488.258,90.250565 c 0,3.031872 2.18295,6.416564 7.90491,6.416564 7.33168,0 15.02709,-5.997614 15.02709,-12.204692 0,-4.16745 -3.528,-6.493708 -7.90491,-6.493708 -6.8465,0 -15.02709,5.788108 -15.02709,12.281836"
     id="path1591"
     style="stroke-width:0.7056" />
  <path
     class="Note"
     d="m 413.483,72.610565 c 0,3.031872 2.18295,6.416564 7.90491,6.416564 7.33168,0 15.02709,-5.997614 15.02709,-12.204692 0,-4.16745 -3.528,-6.493708 -7.90491,-6.493708 -6.8465,0 -15.02709,5.788108 -15.02709,12.281836"
     id="path1593"
     style="stroke-width:0.7056" />
  <path
     class="Note"
     d="m 380.249,90.250565 c 0,3.031872 2.18295,6.416564 7.90491,6.416564 7.33168,0 15.02709,-5.997614 15.02709,-12.204692 0,-4.16745 -3.528,-6.493708 -7.90491,-6.493708 -6.8465,0 -15.02709,5.788108 -15.02709,12.281836"
     id="path1595"
     style="stroke-width:0.7056" />
  <path
     class="Note"
     d="m 3139.582,63.790565 c 0,3.031872 2.183,6.416564 7.9049,6.416564 7.3317,0 15.0271,-5.997614 15.0271,-12.204692 0,-4.16745 -3.528,-6.493708 -7.9049,-6.493708 -6.8465,0 -15.0271,5.788108 -15.0271,12.281836"
     id="path1597"
     style="stroke-width:0.7056" />
  <path
     class="Note"
     d="m 1824.422,54.970565 c 0,3.031872 2.1829,6.416564 7.9049,6.416564 7.3317,0 15.0271,-5.997614 15.0271,-12.204692 0,-4.16745 -3.528,-6.493708 -7.9049,-6.493708 -6.8465,0 -15.0271,5.788108 -15.0271,12.281836"
     id="path1599"
     style="stroke-width:0.7056" />
  <path
     class="Note"
     d="m 2719.182,81.430565 c 0,3.031872 2.1829,6.416564 7.9049,6.416564 7.3317,0 15.0271,-5.997614 15.0271,-12.204692 0,-4.16745 -3.528,-6.493708 -7.9049,-6.493708 -6.8465,0 -15.0271,5.788108 -15.0271,12.281836"
     id="path1601"
     style="stroke-width:0.7056" />
  <path
     class="Note"
     d="m 3214.352,54.970565 c 0,3.031872 2.1829,6.416564 7.9049,6.416564 7.3317,0 15.0271,-5.997614 15.0271,-12.204692 0,-4.16745 -3.528,-6.493708 -7.9049,-6.493708 -6.8465,0 -15.0271,5.788108 -15.0271,12.281836"
     id="path1603"
     style="stroke-width:0.7056" />
  <path
     class="Note"
     d="m 347.016,107.89057 c 0,3.03187 2.18295,6.41656 7.90491,6.41656 7.33168,0 15.02709,-5.99761 15.02709,-12.20469 0,-4.167453 -3.528,-6.493711 -7.90491,-6.493711 -6.8465,0 -15.02709,5.788111 -15.02709,12.281841"
     id="path1605"
     style="stroke-width:0.7056" />
  <path
     class="Note"
     d="m 3264.202,81.430565 c 0,3.031872 2.183,6.416564 7.9049,6.416564 7.3317,0 15.0271,-5.997614 15.0271,-12.204692 0,-4.16745 -3.528,-6.493708 -7.9049,-6.493708 -6.8465,0 -15.0271,5.788108 -15.0271,12.281836"
     id="path1607"
     style="stroke-width:0.7056" />
  <path
     class="Note"
     d="m 3297.442,72.610565 c 0,3.031872 2.183,6.416564 7.9049,6.416564 7.3317,0 15.0271,-5.997614 15.0271,-12.204692 0,-4.16745 -3.528,-6.493708 -7.9049,-6.493708 -6.8465,0 -15.0271,5.788108 -15.0271,12.281836"
     id="path1609"
     style="stroke-width:0.7056" />
  <path
     class="Clef"
     d="m 21.906693,114.65993 c 0,4.66359 3.528,10.8045 13.0536,10.8045 3.318507,0 6.2181,-0.84891 8.753814,-2.40349 3.814686,-2.67902 4.795893,-7.34261 4.795893,-11.7857 0,-2.74521 -0.418915,-5.92041 -1.124515,-9.94452 C 47.175993,99.919522 46.746,97.802722 46.327085,95.046437 53.239707,92.786329 58.3884,85.587022 58.3884,78.321512 c 0,-10.650168 -7.552107,-17.849475 -17.849493,-17.849475 -0.7056,-4.2336 -1.4112,-8.401085 -1.973422,-12.348 7.4088,-7.838793 12.557422,-16.658793 12.557422,-27.8712 0,-6.427593 -1.973422,-11.6424002 -3.109014,-14.1889106 C 46.327085,2.4696 44.2764,0 43.008507,0 42.5124,0 40.329485,0.8488368 38.003193,3.5943264 33.482907,8.9632368 32.215085,17.992729 32.215085,23.913137 c 0,3.814615 0.3528,7.2765 1.554508,15.181407 -0.07719,0.06619 -3.7485,3.803608 -5.225886,5.005385 C 22.116185,50.031344 13.23,58.630844 13.23,72.753887 c 0,13.185935 11.499093,23.560442 24.629885,23.560442 2.039608,0 3.946915,-0.209492 5.567608,-0.496107 1.345014,6.780318 2.193992,11.719518 2.193992,15.457018 0,7.34268 -3.814685,11.22348 -10.9368,11.22348 -1.697885,0 -3.1752,-0.3528 -3.318578,-0.3528 -0.06611,-0.0772 -0.209422,-0.14338 -0.209422,-0.20949 0,-0.14331 0.143308,-0.2205 0.3528,-0.2205 3.318508,-0.56229 6.626008,-3.38469 6.626008,-7.8939 0,-3.81469 -2.888586,-7.83879 -8.180586,-7.83879 -4.9392,0 -8.048214,4.0241 -8.048214,8.67669 M 36.658107,20.462329 c 0.639486,-2.8224 3.8808,-10.2312 7.552178,-10.2312 1.0584,0 2.745208,3.384623 2.745208,8.323823 0,7.342685 -5.4243,12.844177 -10.297386,17.64 -0.418914,-2.8224 -0.771714,-5.567608 -0.771714,-8.533315 0,-2.612908 0.209492,-5.016393 0.771714,-7.199308 M 42.8652,92.995822 c -1.4112,0.286615 -2.745207,0.429922 -4.090293,0.429922 -10.087822,0 -18.698378,-7.056 -18.698378,-17.717157 0,-8.599535 6.063764,-16.29495 12.281864,-21.664143 1.1907,-1.0584 2.326292,-2.039607 3.384692,-3.098007 0.628408,3.803607 1.124515,7.122115 1.620622,10.021707 -6.427522,1.907308 -10.793422,8.676693 -10.793422,15.313743 0,4.9392 3.8808,11.70855 9.5256,11.70855 0.562222,0 1.201708,-0.286615 1.201708,-0.915093 0,-0.639415 -0.7056,-0.992215 -1.554508,-1.554507 -2.756285,-1.69785 -4.310792,-3.528 -4.310792,-6.98985 0,-4.29975 3.252392,-7.761635 7.342614,-8.742843 L 42.8652,92.995822 M 52.886907,79.942187 c 0,5.016378 -2.050614,10.16505 -7.056,12.215735 -1.477314,-8.467235 -3.384622,-19.690685 -3.8808,-22.79977 6.3504,0 10.9368,4.310806 10.9368,10.584035"
     id="path1611"
     style="stroke-width:0.7056" />
  <path
     class="KeySig"
     d="m 80.0752,49.888037 c -3.528,0 -5.57865,2.182915 -5.93145,2.612907 L 74.4304,29.844552 c 0,-0.562223 -0.41895,-0.981208 -0.99225,-0.981208 h -0.8379 c -0.5733,0 -0.99225,0.418985 -0.99225,0.981208 l 0.3528,42.413192 c 0,0.562293 0.41895,0.981278 0.99225,0.981278 0.1323,0 0.41895,-0.06619 0.562279,-0.1323 6.063764,-3.0429 12.414164,-8.820035 12.414164,-16.096535 0,-3.660335 -1.686808,-7.12215 -5.854293,-7.12215 M 73.934279,69.788144 74.14375,56.028958 c 0.143329,-0.63945 1.201729,-2.679106 4.024129,-2.679106 2.546806,0 2.756228,2.392456 2.756228,3.880835 0,6.273228 -2.326257,8.88615 -6.989828,12.557457"
     id="path1613"
     style="stroke-width:0.7056" />
  <path
     class="TimeSig"
     d="m 120.09589,57.440344 v -30.3408 c 0,-0.496107 -0.3528,-0.848907 -0.84898,-0.848907 h -6.98982 c -0.1433,0 -0.2756,0.06611 -0.41898,0.143307 -0.0771,0.06618 -0.20942,0.209493 -0.28662,0.275608 l -7.90494,13.693085 c -0.0662,0.143321 -0.0662,0.28665 -0.0662,0.41895 0,0.28665 0.20948,0.5733 0.41895,0.7056 l 1.34505,0.782771 c 0.14333,0.06615 0.28665,0.143329 0.41895,0.143329 0.28665,0 0.5733,-0.2205 0.7056,-0.429979 l 5.01636,-8.610556 v 24.067592 h -5.36916 c -0.4851,0 -0.8379,0.3528 -0.8379,0.848978 v 1.5435 c 0,0.496107 0.3528,0.848907 0.8379,0.848907 h 19.3379 c 0.49611,0 0.78279,-0.3528 0.78279,-0.848907 v -1.5435 c 0,-0.496178 -0.28668,-0.848978 -0.78279,-0.848978 h -5.35811"
     id="path1615"
     style="stroke-width:0.7056" />
  <path
     class="TimeSig"
     d="m 151.41771,46.294087 c -0.56222,1.5435 -1.97342,6.626042 -5.43531,6.626042 -4.5864,0 -5.57861,-2.822414 -9.38229,-2.822414 -0.56222,0 -1.13552,0.07717 -1.84112,0.209472 0,0 1.764,-2.679072 9.24992,-5.00535 7.47498,-2.326275 9.38229,-5.9976 9.38229,-10.2312 0,-2.965708 -1.33401,-8.82 -11.9952,-8.82 -10.65015,0 -12.63465,6.416515 -12.63465,9.668907 0,2.888564 2.40345,5.214843 5.292,5.214843 2.89956,0 5.22585,-2.326279 5.22585,-5.214843 0,-1.973492 -1.4112,-4.167415 -3.24131,-4.873015 -0.2205,-0.06619 -0.49618,-0.418985 -0.49618,-0.771785 0,-0.429992 0.3528,-0.915092 1.62069,-1.267892 0.3528,-0.143308 1.34509,-0.3528 2.40349,-0.3528 4.0131,0 4.79582,2.4696 4.79582,6.063785 0,8.257725 -9.81222,10.021728 -13.90251,16.162685 0,0 -2.1168,2.9547 -2.1168,6.273207 0,3.318508 1.69785,3.528 2.53575,3.528 1.13558,0 2.3373,-0.915092 2.3373,-2.182985 0,-0.286615 -0.0772,-0.562222 -0.2205,-0.915022 -0.41895,-0.992285 -0.56227,-1.764 -0.56227,-2.3373 0,-0.209493 0,-0.418985 0.0772,-0.628478 0.0661,-0.429922 0.62843,-1.135522 2.32626,-1.135522 2.03968,0 2.8224,2.403415 4.09029,4.2336 1.26789,1.841122 3.24139,2.965707 5.50149,2.965707 2.26011,0 5.292,-1.620692 6.5709,-4.2336 1.2679,-2.612907 2.88852,-7.904942 2.88852,-9.801242 0,-0.9261 -0.56222,-1.34505 -1.20171,-1.34505 -0.49611,0 -0.98121,0.28665 -1.26789,0.99225"
     id="path1617"
     style="stroke-width:0.7056" />
  <path
     class="TimeSig"
     d="m 137.19589,77.020958 c 2.32622,-1.764 3.94691,-4.024121 3.94691,-6.846521 0,-5.082508 -5.56761,-9.238985 -12.41411,-9.238985 -6.84658,0 -12.42521,4.156477 -12.42521,9.238985 0,2.8224 0.7056,5.35815 4.02412,7.47495 -3.1752,1.841178 -4.9392,4.4541 -4.9392,7.838757 0,5.710985 5.9976,10.297385 13.34029,10.297385 7.3316,0 13.3292,-4.5864 13.3292,-10.297385 0,-3.384657 -1.1907,-6.559857 -4.862,-8.467186 m -3.958,-1.907321 c -4.79589,-1.554529 -10.08789,-3.8808 -10.08789,-7.056 0,-2.756285 2.53579,-3.8808 5.57869,-3.8808 4.3769,0 7.3316,2.050615 7.3316,5.292 0,3.384671 -1.5435,5.00535 -2.8224,5.6448 m -4.5092,16.724907 c -4.52029,0 -8.40109,-2.4696 -8.40109,-6.427522 0,-4.718735 3.67131,-5.854307 3.67131,-5.854307 4.79589,1.620672 11.6424,4.024122 11.6424,7.904922 0,1.907307 -2.40342,4.376907 -6.91262,4.376907"
     id="path1619"
     style="stroke-width:0.7056" />
  <path
     class="Beam"
     fill-rule="evenodd"
     d="m 1741.192,12.280837 35,-4.4100002 v 8.8890002 l -35,4.41 v -8.889"
     id="path1621" />
  <path
     class="Beam"
     fill-rule="evenodd"
     d="m 1741.192,25.510837 35,-4.41 v 8.889 l -35,4.41 v -8.889"
     id="path1623" />
  <path
     class="Beam"
     fill-rule="evenodd"
     d="m 2103.432,12.280837 35,-4.4100002 v 8.8890002 l -35,4.41 v -8.889"
     id="path1625" />
  <path
     class="Beam"
     fill-rule="evenodd"
     d="m 2103.432,25.510837 35,-4.41 v 8.889 l -35,4.41 v -8.889"
     id="path1627" />
  <path
     class="Beam"
     fill-rule="evenodd"
     d="m 1525.172,25.510837 35,-4.41 v 8.889 l -35,4.41 v -8.889"
     id="path1629" />
  <path
     class="Beam"
     fill-rule="evenodd"
     d="m 1525.172,38.740837 35,-4.41 v 8.889 l -35,4.41 v -8.889"
     id="path1631" />
  <path
     class="Beam"
     fill-rule="evenodd"
     d="m 1458.702,43.150837 35,-4.41 v 8.889 l -35,4.41 v -8.889"
     id="path1633" />
  <path
     class="Beam"
     fill-rule="evenodd"
     d="m 1458.702,56.380837 35,-4.41 v 8.889 l -35,4.41 v -8.889"
     id="path1635" />
  <path
     class="Beam"
     fill-rule="evenodd"
     d="m 2369.302,12.280837 35,-4.4100002 v 8.8890002 l -35,4.41 v -8.889"
     id="path1637" />
  <path
     class="Beam"
     fill-rule="evenodd"
     d="m 2369.302,25.510837 35,-4.41 v 8.889 l -35,4.41 v -8.889"
     id="path1639" />
  <path
     class="Beam"
     fill-rule="evenodd"
     d="m 1033.282,104.92084 101.47,-4.41 v 8.829 l -101.47,4.41 v -8.829"
     id="path1641" />
  <path
     class="Beam"
     fill-rule="evenodd"
     d="m 2640.632,43.150837 35,-4.41 v 8.889 l -35,4.41 v -8.889"
     id="path1643" />
  <path
     class="Beam"
     fill-rule="evenodd"
     d="m 2640.632,56.380837 35,-4.41 v 8.889 l -35,4.41 v -8.889"
     id="path1645" />
  <path
     class="Beam"
     fill-rule="evenodd"
     d="m 2707.102,25.510837 35,-4.41 v 8.889 l -35,4.41 v -8.889"
     id="path1647" />
  <path
     class="Beam"
     fill-rule="evenodd"
     d="m 2707.102,38.740837 35,-4.41 v 8.889 l -35,4.41 v -8.889"
     id="path1649" />
  <path
     class="Beam"
     fill-rule="evenodd"
     d="m 908.522,12.280837 34.99,-4.4100002 v 8.8890002 l -34.99,4.41 v -8.889"
     id="path1651" />
  <path
     class="Beam"
     fill-rule="evenodd"
     d="m 908.522,25.510837 34.99,-4.41 v 8.889 l -34.99,4.41 v -8.889"
     id="path1653" />
  <path
     class="Beam"
     fill-rule="evenodd"
     d="m 1791.182,109.30084 35,-4.41 v 8.889 l -35,4.41 v -8.889"
     id="path1655" />
  <path
     class="Beam"
     fill-rule="evenodd"
     d="m 1791.182,96.070837 35,-4.41 v 8.889003 l -35,4.41 v -8.889003"
     id="path1657" />
  <path
     class="Beam"
     fill-rule="evenodd"
     d="m 2923.122,12.280837 34.99,-4.4100002 v 8.8890002 l -34.99,4.41 v -8.889"
     id="path1659" />
  <path
     class="Beam"
     fill-rule="evenodd"
     d="m 2923.122,25.510837 34.99,-4.41 v 8.889 l -34.99,4.41 v -8.889"
     id="path1661" />
  <path
     class="Beam"
     fill-rule="evenodd"
     d="m 2973.112,109.30084 35,-4.41 v 8.889 l -35,4.41 v -8.889"
     id="path1663" />
  <path
     class="Beam"
     fill-rule="evenodd"
     d="m 2973.112,96.070837 35,-4.41 v 8.889003 l -35,4.41 v -8.889003"
     id="path1665" />
  <path
     class="Beam"
     fill-rule="evenodd"
     d="m 617.424,25.510837 34.998,-4.41 v 8.889 l -34.998,4.41 v -8.889"
     id="path1667" />
  <path
     class="Beam"
     fill-rule="evenodd"
     d="m 617.424,38.740837 34.998,-4.41 v 8.889 l -34.998,4.41 v -8.889"
     id="path1669" />
  <path
     class="Beam"
     fill-rule="evenodd"
     d="m 3551.232,12.280837 34.99,-4.4100002 v 8.8890002 l -34.99,4.41 v -8.889"
     id="path1671" />
  <path
     class="Beam"
     fill-rule="evenodd"
     d="m 3551.232,25.510837 34.99,-4.41 v 8.889 l -34.99,4.41 v -8.889"
     id="path1673" />
  <path
     class="Beam"
     fill-rule="evenodd"
     d="m 3285.362,12.280837 35,-4.4100002 v 8.8890002 l -35,4.41 v -8.889"
     id="path1675" />
  <path
     class="Beam"
     fill-rule="evenodd"
     d="m 3285.362,25.510837 35,-4.41 v 8.889 l -35,4.41 v -8.889"
     id="path1677" />
  <path
     class="Beam"
     fill-rule="evenodd"
     d="m 334.939,25.535837 68.231,-4.41 v 8.839 l -68.231,4.41 v -8.839"
     id="path1679" />
  <path
     class="Beam"
     fill-rule="evenodd"
     d="m 334.939,38.765837 68.231,-4.41 v 8.839 l -68.231,4.41 v -8.839"
     id="path1681" />
</svg>
