<?xml version="1.0" encoding="UTF-8" standalone="no"?>
<svg
   xmlns:dc="http://purl.org/dc/elements/1.1/"
   xmlns:cc="http://creativecommons.org/ns#"
   xmlns:rdf="http://www.w3.org/1999/02/22-rdf-syntax-ns#"
   xmlns:svg="http://www.w3.org/2000/svg"
   xmlns="http://www.w3.org/2000/svg"
   xmlns:sodipodi="http://sodipodi.sourceforge.net/DTD/sodipodi-0.dtd"
   xmlns:inkscape="http://www.inkscape.org/namespaces/inkscape"
   width="260.40527mm"
   height="31.405363mm"
   viewBox="0 0 3690.7835 445.11539"
   version="1.2"
   id="svg1637"
   sodipodi:docname="Dossium Canto Magdalena Musica.svg"
   inkscape:version="1.0.2-2 (e86c870879, 2021-01-15)"
   inkscape:export-filename="C:\Users\slagt\Music\Dossia\Dossium Canto Magdalena\Dossium Canto Magdalena Musica.png"
   inkscape:export-xdpi="176"
   inkscape:export-ydpi="176">
  <metadata
     id="metadata1643">
    <rdf:RDF>
      <cc:Work
         rdf:about="">
        <dc:format>image/svg+xml</dc:format>
        <dc:type
           rdf:resource="http://purl.org/dc/dcmitype/StillImage" />
      </cc:Work>
    </rdf:RDF>
  </metadata>
  <defs
     id="defs1641" />
  <sodipodi:namedview
     pagecolor="#ffffff"
     bordercolor="#666666"
     borderopacity="1"
     objecttolerance="10"
     gridtolerance="10"
     guidetolerance="10"
     inkscape:pageopacity="0"
     inkscape:pageshadow="2"
     inkscape:window-width="1920"
     inkscape:window-height="991"
     id="namedview1639"
     showgrid="false"
     inkscape:zoom="0.94988596"
     inkscape:cx="479.67563"
     inkscape:cy="237.41743"
     inkscape:window-x="-9"
     inkscape:window-y="-9"
     inkscape:window-maximized="1"
     inkscape:current-layer="svg1637" />
  <title
     id="title1239">Dossium Canto Magdalena Musica</title>
  <desc
     id="desc1241">Generated by MuseScore Studio 4.5.2</desc>
  <polyline
     class="StaffLines"
     fill="none"
     stroke="#000000"
     stroke-width="2.73"
     stroke-linejoin="bevel"
     points="336.598,634.198 3996.2,634.198"
     id="polyline1243"
     transform="translate(-305.41636,-598.28462)" />
  <polyline
     class="StaffLines"
     fill="none"
     stroke="#000000"
     stroke-width="2.73"
     stroke-linejoin="bevel"
     points="336.598,658.998 3996.2,658.998"
     id="polyline1245"
     transform="translate(-305.41636,-598.28462)" />
  <polyline
     class="StaffLines"
     fill="none"
     stroke="#000000"
     stroke-width="2.73"
     stroke-linejoin="bevel"
     points="336.598,683.798 3996.2,683.798"
     id="polyline1247"
     transform="translate(-305.41636,-598.28462)" />
  <polyline
     class="StaffLines"
     fill="none"
     stroke="#000000"
     stroke-width="2.73"
     stroke-linejoin="bevel"
     points="336.598,708.598 3996.2,708.598"
     id="polyline1249"
     transform="translate(-305.41636,-598.28462)" />
  <polyline
     class="StaffLines"
     fill="none"
     stroke="#000000"
     stroke-width="2.73"
     stroke-linejoin="bevel"
     points="336.598,733.398 3996.2,733.398"
     id="polyline1251"
     transform="translate(-305.41636,-598.28462)" />
  <polyline
     class="StaffLines"
     fill="none"
     stroke="#000000"
     stroke-width="2.73"
     stroke-linejoin="bevel"
     points="336.598,894.598 3996.2,894.598"
     id="polyline1253"
     transform="translate(-305.41636,-598.28462)" />
  <polyline
     class="StaffLines"
     fill="none"
     stroke="#000000"
     stroke-width="2.73"
     stroke-linejoin="bevel"
     points="336.598,919.398 3996.2,919.398"
     id="polyline1255"
     transform="translate(-305.41636,-598.28462)" />
  <polyline
     class="StaffLines"
     fill="none"
     stroke="#000000"
     stroke-width="2.73"
     stroke-linejoin="bevel"
     points="336.598,944.198 3996.2,944.198"
     id="polyline1257"
     transform="translate(-305.41636,-598.28462)" />
  <polyline
     class="StaffLines"
     fill="none"
     stroke="#000000"
     stroke-width="2.73"
     stroke-linejoin="bevel"
     points="336.598,968.998 3996.2,968.998"
     id="polyline1259"
     transform="translate(-305.41636,-598.28462)" />
  <polyline
     class="StaffLines"
     fill="none"
     stroke="#000000"
     stroke-width="2.73"
     stroke-linejoin="bevel"
     points="336.598,993.798 3996.2,993.798"
     id="polyline1261"
     transform="translate(-305.41636,-598.28462)" />
  <path
     class="BarLine"
     d="m 3654.3367,73.113376 c 0,-2.883 -2.2941,-5.254505 -5.1616,-5.254505 -2.883,0 -5.1615,2.371505 -5.1615,5.254505 0,2.883 2.2785,5.254505 5.1615,5.254505 2.8675,0 5.1616,-2.371505 5.1616,-5.254505"
     id="path1271"
     style="stroke-width:0.992" />
  <path
     class="BarLine"
     d="m 3654.3367,97.913376 c 0,-2.883 -2.2941,-5.254505 -5.1616,-5.254505 -2.883,0 -5.1615,2.371505 -5.1615,5.254505 0,2.883004 2.2785,5.254504 5.1615,5.254504 2.8675,0 5.1616,-2.3715 5.1616,-5.254504"
     id="path1273"
     style="stroke-width:0.992" />
  <polyline
     class="BarLine"
     fill="none"
     stroke="#000000"
     stroke-width="4.46"
     stroke-linejoin="bevel"
     points="3971.15,632.834 3971.15,894.598"
     id="polyline1275"
     transform="translate(-305.41636,-598.28462)" />
  <polyline
     class="BarLine"
     fill="none"
     stroke="#000000"
     stroke-width="13.64"
     stroke-linejoin="bevel"
     points="3989.38,632.834 3989.38,894.598"
     id="polyline1277"
     transform="translate(-305.41636,-598.28462)" />
  <polyline
     class="BarLine"
     fill="none"
     stroke="#000000"
     stroke-width="4.46"
     stroke-linejoin="bevel"
     points="1074.84,632.834 1074.84,894.598"
     id="polyline1279"
     transform="translate(-305.41636,-598.28462)" />
  <polyline
     class="BarLine"
     fill="none"
     stroke="#000000"
     stroke-width="4.46"
     stroke-linejoin="bevel"
     points="3374.52,632.834 3374.52,894.598"
     id="polyline1281"
     transform="translate(-305.41636,-598.28462)" />
  <polyline
     class="BarLine"
     fill="none"
     stroke="#000000"
     stroke-width="4.46"
     stroke-linejoin="bevel"
     points="338.83,632.834 338.83,894.598"
     id="polyline1283"
     transform="translate(-305.41636,-598.28462)" />
  <polyline
     class="BarLine"
     fill="none"
     stroke="#000000"
     stroke-width="4.46"
     stroke-linejoin="bevel"
     points="2243.13,632.834 2243.13,894.598"
     id="polyline1285"
     transform="translate(-305.41636,-598.28462)" />
  <polyline
     class="BarLine"
     fill="none"
     stroke="#000000"
     stroke-width="4.46"
     stroke-linejoin="bevel"
     points="2808.82,632.834 2808.82,894.598"
     id="polyline1287"
     transform="translate(-305.41636,-598.28462)" />
  <polyline
     class="BarLine"
     fill="none"
     stroke="#000000"
     stroke-width="4.46"
     stroke-linejoin="bevel"
     points="1677.44,632.834 1677.44,894.598"
     id="polyline1289"
     transform="translate(-305.41636,-598.28462)" />
  <polyline
     class="BarLine"
     fill="none"
     stroke="#000000"
     stroke-width="4.46"
     stroke-linejoin="bevel"
     points="338.83,893.234 338.83,995.162"
     id="polyline1291"
     transform="translate(-305.41636,-598.28462)" />
  <polyline
     class="BarLine"
     fill="none"
     stroke="#000000"
     stroke-width="4.46"
     stroke-linejoin="bevel"
     points="3374.52,893.234 3374.52,995.162"
     id="polyline1293"
     transform="translate(-305.41636,-598.28462)" />
  <polyline
     class="BarLine"
     fill="none"
     stroke="#000000"
     stroke-width="4.46"
     stroke-linejoin="bevel"
     points="1074.84,893.234 1074.84,995.162"
     id="polyline1295"
     transform="translate(-305.41636,-598.28462)" />
  <polyline
     class="BarLine"
     fill="none"
     stroke="#000000"
     stroke-width="4.46"
     stroke-linejoin="bevel"
     points="1677.44,893.234 1677.44,995.162"
     id="polyline1297"
     transform="translate(-305.41636,-598.28462)" />
  <path
     class="BarLine"
     d="m 3654.3367,333.51338 c 0,-2.883 -2.2941,-5.25451 -5.1616,-5.25451 -2.883,0 -5.1615,2.37151 -5.1615,5.25451 0,2.883 2.2785,5.2545 5.1615,5.2545 2.8675,0 5.1616,-2.3715 5.1616,-5.2545"
     id="path1299"
     style="stroke-width:0.992" />
  <path
     class="BarLine"
     d="m 3654.3367,358.31338 c 0,-2.883 -2.2941,-5.25451 -5.1616,-5.25451 -2.883,0 -5.1615,2.37151 -5.1615,5.25451 0,2.883 2.2785,5.2545 5.1615,5.2545 2.8675,0 5.1616,-2.3715 5.1616,-5.2545"
     id="path1301"
     style="stroke-width:0.992" />
  <polyline
     class="BarLine"
     fill="none"
     stroke="#000000"
     stroke-width="4.46"
     stroke-linejoin="bevel"
     points="3971.15,893.234 3971.15,995.162"
     id="polyline1303"
     transform="translate(-305.41636,-598.28462)" />
  <polyline
     class="BarLine"
     fill="none"
     stroke="#000000"
     stroke-width="13.64"
     stroke-linejoin="bevel"
     points="3989.38,893.234 3989.38,995.162"
     id="polyline1305"
     transform="translate(-305.41636,-598.28462)" />
  <polyline
     class="BarLine"
     fill="none"
     stroke="#000000"
     stroke-width="4.46"
     stroke-linejoin="bevel"
     points="2243.13,893.234 2243.13,995.162"
     id="polyline1307"
     transform="translate(-305.41636,-598.28462)" />
  <polyline
     class="BarLine"
     fill="none"
     stroke="#000000"
     stroke-width="4.46"
     stroke-linejoin="bevel"
     points="2808.82,893.234 2808.82,995.162"
     id="polyline1309"
     transform="translate(-305.41636,-598.28462)" />
  <path
     class="Accidental"
     d="m 3192.9847,42.562851 c -0.186,-0.201475 -0.496,-0.294525 -0.7905,-0.294525 -0.093,0 -0.2946,0.09305 -0.3875,0.09305 l -12.5086,3.472 v -17.36 h -2.7745 v 49.104 c 0,0.790525 0.589,1.286525 1.395,1.286525 0.093,0 0.2945,0 0.3875,0 l 12.5086,-3.472 v 17.36 h 2.666 c 0,-16.46105 0,-32.131525 0,-49.104 0,-0.387575 -0.186,-0.883575 -0.496,-1.08505 m -13.6866,27.77603 v -16.27501 l 11.5166,-3.270495 v 16.368 l -11.5166,3.177505"
     id="path1311"
     style="stroke-width:0.992" />
  <path
     class="Accidental"
     d="m 3107.3867,52.870376 c -0.5891,-3.859525 -2.976,-7.533 -8.0291,-7.533 -4.96,0 -7.843,3.06895 -8.339,3.673475 l 0.403,-31.852525 c 0,-0.790425 -0.589,-1.379475 -1.395,-1.379475 h -1.178 c -0.806,0 -1.395,0.58905 -1.395,1.379475 l 0.496,59.628525 c 0,0.790525 0.589,1.379575 1.395,1.379575 0.186,0 0.589,-0.09305 0.7905,-0.186 0.3875,-0.201575 6.8355,-3.37905 12.1985,-9.42405 3.7666,-4.278 5.2546,-9.129505 5.2546,-13.206 0,-0.883505 -0.093,-1.674 -0.2015,-2.48 m -6.8356,3.875 c 0,1.488 -0.4029,6.045 -2.8829,9.827 -1.6896,2.573 -5.0531,5.254475 -6.9441,6.742475 l 0.2945,-19.34398 c 0.2015,-0.899 1.6895,-3.766545 5.6575,-3.766545 3.5806,0 3.875,3.363545 3.875,5.45605 0,0.496 0,0.790495 0,1.085"
     id="path1313"
     style="stroke-width:0.992" />
  <path
     class="Accidental"
     d="m 2406.1047,92.162851 c -0.186,-0.201475 -0.496,-0.294525 -0.7905,-0.294525 -0.093,0 -0.2946,0.09305 -0.3875,0.09305 l -12.5086,3.472 v -17.36 h -2.7745 v 49.104004 c 0,0.79052 0.589,1.28652 1.395,1.28652 0.093,0 0.2945,0 0.3875,0 l 12.5086,-3.472 v 17.36 h 2.666 c 0,-16.46105 0,-32.13152 0,-49.103999 0,-0.387575 -0.186,-0.883575 -0.496,-1.08505 m -13.6866,27.776029 v -16.27501 l 11.5166,-3.27049 v 16.368 l -11.5166,3.1775"
     id="path1315"
     style="stroke-width:0.992" />
  <path
     class="Accidental"
     d="m 1275.0167,102.47038 c -0.5891,-3.859529 -2.976,-7.533004 -8.0291,-7.533004 -4.96,0 -7.843,3.06895 -8.339,3.673475 l 0.403,-31.852525 c 0,-0.790425 -0.589,-1.379475 -1.395,-1.379475 h -1.178 c -0.806,0 -1.395,0.58905 -1.395,1.379475 l 0.496,59.628524 c 0,0.79053 0.589,1.37958 1.395,1.37958 0.186,0 0.589,-0.0931 0.7905,-0.186 0.3875,-0.20158 6.8355,-3.37905 12.1985,-9.42405 3.7666,-4.278 5.2546,-9.12951 5.2546,-13.206 0,-0.88351 -0.093,-1.674 -0.2015,-2.48 m -6.8356,3.875 c 0,1.488 -0.4029,6.045 -2.8829,9.827 -1.6896,2.573 -5.0531,5.25447 -6.9441,6.74247 l 0.2945,-19.34398 c 0.2015,-0.899 1.6895,-3.766544 5.6575,-3.766544 3.5806,0 3.875,3.363544 3.875,5.456054 0,0.496 0,0.79049 0,1.085"
     id="path1317"
     style="stroke-width:0.992" />
  <path
     class="Accidental"
     d="m 2229.6567,102.47038 c -0.5891,-3.859529 -2.976,-7.533004 -8.0291,-7.533004 -4.96,0 -7.843,3.06895 -8.339,3.673475 l 0.403,-31.852525 c 0,-0.790425 -0.589,-1.379475 -1.395,-1.379475 h -1.178 c -0.806,0 -1.395,0.58905 -1.395,1.379475 l 0.496,59.628524 c 0,0.79053 0.589,1.37958 1.395,1.37958 0.186,0 0.589,-0.0931 0.7905,-0.186 0.3875,-0.20158 6.8355,-3.37905 12.1985,-9.42405 3.7666,-4.278 5.2546,-9.12951 5.2546,-13.206 0,-0.88351 -0.093,-1.674 -0.2015,-2.48 m -6.8356,3.875 c 0,1.488 -0.4029,6.045 -2.8829,9.827 -1.6896,2.573 -5.0531,5.25447 -6.9441,6.74247 l 0.2945,-19.34398 c 0.2015,-0.899 1.6895,-3.766544 5.6575,-3.766544 3.5806,0 3.875,3.363544 3.875,5.456054 0,0.496 0,0.79049 0,1.085"
     id="path1319"
     style="stroke-width:0.992" />
  <path
     class="Accidental"
     d="m 3460.8767,300.87038 c -0.5891,-3.85953 -2.976,-7.533 -8.0291,-7.533 -4.96,0 -7.843,3.06895 -8.339,3.67347 l 0.403,-31.85252 c 0,-0.79043 -0.589,-1.37948 -1.395,-1.37948 h -1.178 c -0.806,0 -1.395,0.58905 -1.395,1.37948 l 0.496,59.62852 c 0,0.79053 0.589,1.37958 1.395,1.37958 0.186,0 0.589,-0.0931 0.7905,-0.186 0.3875,-0.20158 6.8355,-3.37905 12.1985,-9.42405 3.7666,-4.278 5.2546,-9.12951 5.2546,-13.206 0,-0.88351 -0.093,-1.674 -0.2015,-2.48 m -6.8356,3.875 c 0,1.488 -0.4029,6.045 -2.8829,9.827 -1.6896,2.573 -5.0531,5.25447 -6.9441,6.74247 l 0.2945,-19.34398 c 0.2015,-0.899 1.6895,-3.76654 5.6575,-3.76654 3.5806,0 3.875,3.36354 3.875,5.45605 0,0.496 0,0.79049 0,1.085"
     id="path1321"
     style="stroke-width:0.992" />
  <path
     class="Accidental"
     d="m 3548.9547,290.56285 c -0.186,-0.20147 -0.496,-0.29452 -0.7905,-0.29452 -0.093,0 -0.2946,0.0931 -0.3875,0.0931 l -12.5086,3.472 v -17.36 h -2.7745 v 49.104 c 0,0.79052 0.589,1.28652 1.395,1.28652 0.093,0 0.2945,0 0.3875,0 l 12.5086,-3.472 v 17.36 h 2.666 c 0,-16.46105 0,-32.13152 0,-49.104 0,-0.38757 -0.186,-0.88357 -0.496,-1.08505 m -13.6866,27.77603 v -16.27501 l 11.5166,-3.27049 v 16.368 l -11.5166,3.1775"
     id="path1323"
     style="stroke-width:0.992" />
  <polyline
     class="LedgerLine"
     fill="none"
     stroke="#000000"
     stroke-width="3.97"
     stroke-linejoin="bevel"
     points="3587.76,782.998 3636.36,782.998"
     id="polyline1325"
     transform="translate(-305.41636,-598.28462)" />
  <polyline
     class="LedgerLine"
     fill="none"
     stroke="#000000"
     stroke-width="3.97"
     stroke-linejoin="bevel"
     points="3587.76,758.198 3636.36,758.198"
     id="polyline1327"
     transform="translate(-305.41636,-598.28462)" />
  <polyline
     class="LedgerLine"
     fill="none"
     stroke="#000000"
     stroke-width="3.97"
     stroke-linejoin="bevel"
     points="1879.23,758.198 1927.82,758.198"
     id="polyline1329"
     transform="translate(-305.41636,-598.28462)" />
  <polyline
     class="LedgerLine"
     fill="none"
     stroke="#000000"
     stroke-width="3.97"
     stroke-linejoin="bevel"
     points="1879.23,782.998 1927.82,782.998"
     id="polyline1331"
     transform="translate(-305.41636,-598.28462)" />
  <polyline
     class="LedgerLine"
     fill="none"
     stroke="#000000"
     stroke-width="3.97"
     stroke-linejoin="bevel"
     points="531.805,869.798 585.172,869.798"
     id="polyline1333"
     transform="translate(-305.41636,-598.28462)" />
  <polyline
     class="Stem"
     fill="none"
     stroke="#000000"
     stroke-width="2.48"
     stroke-linejoin="bevel"
     points="3196.78,687.965 3196.78,758.198"
     id="polyline1335"
     transform="translate(-305.41636,-598.28462)" />
  <polyline
     class="Stem"
     fill="none"
     stroke="#000000"
     stroke-width="2.48"
     stroke-linejoin="bevel"
     points="3108.41,687.965 3108.41,758.198"
     id="polyline1337"
     transform="translate(-305.41636,-598.28462)" />
  <polyline
     class="Stem"
     fill="none"
     stroke="#000000"
     stroke-width="2.48"
     stroke-linejoin="bevel"
     points="1264.33,704.63 1264.33,621.798"
     id="polyline1339"
     transform="translate(-305.41636,-598.28462)" />
  <polyline
     class="Stem"
     fill="none"
     stroke="#000000"
     stroke-width="2.48"
     stroke-linejoin="bevel"
     points="3508.82,663.165 3508.82,745.798"
     id="polyline1341"
     transform="translate(-305.41636,-598.28462)" />
  <polyline
     class="Stem"
     fill="none"
     stroke="#000000"
     stroke-width="2.48"
     stroke-linejoin="bevel"
     points="1322.96,687.965 1322.96,758.198"
     id="polyline1343"
     transform="translate(-305.41636,-598.28462)" />
  <polyline
     class="Stem"
     fill="none"
     stroke="#000000"
     stroke-width="2.48"
     stroke-linejoin="bevel"
     points="1441.08,704.63 1441.08,621.798"
     id="polyline1345"
     transform="translate(-305.41636,-598.28462)" />
  <polyline
     class="Stem"
     fill="none"
     stroke="#000000"
     stroke-width="2.48"
     stroke-linejoin="bevel"
     points="2484.09,729.43 2484.09,646.598"
     id="polyline1347"
     transform="translate(-305.41636,-598.28462)" />
  <polyline
     class="Stem"
     fill="none"
     stroke="#000000"
     stroke-width="2.48"
     stroke-linejoin="bevel"
     points="1529.45,692.23 1529.45,615.598"
     id="polyline1349"
     transform="translate(-305.41636,-598.28462)" />
  <polyline
     class="Stem"
     fill="none"
     stroke="#000000"
     stroke-width="2.48"
     stroke-linejoin="bevel"
     points="2395.72,729.43 2395.72,646.598"
     id="polyline1351"
     transform="translate(-305.41636,-598.28462)" />
  <polyline
     class="Stem"
     fill="none"
     stroke="#000000"
     stroke-width="2.48"
     stroke-linejoin="bevel"
     points="3049.78,692.23 3049.78,615.598"
     id="polyline1353"
     transform="translate(-305.41636,-598.28462)" />
  <polyline
     class="Stem"
     fill="none"
     stroke="#000000"
     stroke-width="2.48"
     stroke-linejoin="bevel"
     points="2961.41,692.23 2961.41,615.598"
     id="polyline1355"
     transform="translate(-305.41636,-598.28462)" />
  <polyline
     class="Stem"
     fill="none"
     stroke="#000000"
     stroke-width="2.48"
     stroke-linejoin="bevel"
     points="1741.65,704.63 1741.65,621.798"
     id="polyline1357"
     transform="translate(-305.41636,-598.28462)" />
  <polyline
     class="Stem"
     fill="none"
     stroke="#000000"
     stroke-width="2.48"
     stroke-linejoin="bevel"
     points="3626.93,791.43 3626.93,658.998"
     id="polyline1359"
     transform="translate(-305.41636,-598.28462)" />
  <polyline
     class="Stem"
     fill="none"
     stroke="#000000"
     stroke-width="2.48"
     stroke-linejoin="bevel"
     points="543.616,625.965 543.616,708.598"
     id="polyline1361"
     transform="translate(-305.41636,-598.28462)" />
  <polyline
     class="Stem"
     fill="none"
     stroke="#000000"
     stroke-width="2.48"
     stroke-linejoin="bevel"
     points="3420.45,663.165 3420.45,745.798"
     id="polyline1363"
     transform="translate(-305.41636,-598.28462)" />
  <polyline
     class="Stem"
     fill="none"
     stroke="#000000"
     stroke-width="2.48"
     stroke-linejoin="bevel"
     points="1800.28,687.965 1800.28,758.198"
     id="polyline1365"
     transform="translate(-305.41636,-598.28462)" />
  <polyline
     class="Stem"
     fill="none"
     stroke="#000000"
     stroke-width="2.48"
     stroke-linejoin="bevel"
     points="631.988,663.165 631.988,745.798"
     id="polyline1367"
     transform="translate(-305.41636,-598.28462)" />
  <polyline
     class="Stem"
     fill="none"
     stroke="#000000"
     stroke-width="2.48"
     stroke-linejoin="bevel"
     points="1918.4,791.43 1918.4,658.998"
     id="polyline1369"
     transform="translate(-305.41636,-598.28462)" />
  <polyline
     class="Stem"
     fill="none"
     stroke="#000000"
     stroke-width="2.48"
     stroke-linejoin="bevel"
     points="2749.21,704.63 2749.21,621.798"
     id="polyline1371"
     transform="translate(-305.41636,-598.28462)" />
  <polyline
     class="Stem"
     fill="none"
     stroke="#000000"
     stroke-width="2.48"
     stroke-linejoin="bevel"
     points="720.36,650.765 720.36,733.398"
     id="polyline1373"
     transform="translate(-305.41636,-598.28462)" />
  <polyline
     class="Stem"
     fill="none"
     stroke="#000000"
     stroke-width="2.48"
     stroke-linejoin="bevel"
     points="2307.35,741.83 2307.35,658.998"
     id="polyline1375"
     transform="translate(-305.41636,-598.28462)" />
  <polyline
     class="Stem"
     fill="none"
     stroke="#000000"
     stroke-width="2.48"
     stroke-linejoin="bevel"
     points="808.731,687.965 808.731,758.198"
     id="polyline1377"
     transform="translate(-305.41636,-598.28462)" />
  <polyline
     class="Stem"
     fill="none"
     stroke="#000000"
     stroke-width="2.48"
     stroke-linejoin="bevel"
     points="2660.83,704.63 2660.83,621.798"
     id="polyline1379"
     transform="translate(-305.41636,-598.28462)" />
  <polyline
     class="Stem"
     fill="none"
     stroke="#000000"
     stroke-width="2.48"
     stroke-linejoin="bevel"
     points="1617.82,704.63 1617.82,621.798"
     id="polyline1381"
     transform="translate(-305.41636,-598.28462)" />
  <polyline
     class="Stem"
     fill="none"
     stroke="#000000"
     stroke-width="2.48"
     stroke-linejoin="bevel"
     points="897.103,663.165 897.103,745.798"
     id="polyline1383"
     transform="translate(-305.41636,-598.28462)" />
  <polyline
     class="Stem"
     fill="none"
     stroke="#000000"
     stroke-width="2.48"
     stroke-linejoin="bevel"
     points="3285.16,675.565 3285.16,751.998"
     id="polyline1385"
     transform="translate(-305.41636,-598.28462)" />
  <polyline
     class="Stem"
     fill="none"
     stroke="#000000"
     stroke-width="2.48"
     stroke-linejoin="bevel"
     points="1015.22,692.23 1015.22,615.598"
     id="polyline1387"
     transform="translate(-305.41636,-598.28462)" />
  <polyline
     class="Stem"
     fill="none"
     stroke="#000000"
     stroke-width="2.48"
     stroke-linejoin="bevel"
     points="1146.22,675.565 1146.22,751.998"
     id="polyline1389"
     transform="translate(-305.41636,-598.28462)" />
  <polyline
     class="Stem"
     fill="none"
     stroke="#000000"
     stroke-width="2.48"
     stroke-linejoin="bevel"
     points="2572.46,704.63 2572.46,621.798"
     id="polyline1391"
     transform="translate(-305.41636,-598.28462)" />
  <polyline
     class="Stem"
     fill="none"
     stroke="#000000"
     stroke-width="2.48"
     stroke-linejoin="bevel"
     points="2873.04,704.63 2873.04,621.798"
     id="polyline1393"
     transform="translate(-305.41636,-598.28462)" />
  <polyline
     class="Stem"
     fill="none"
     stroke="#000000"
     stroke-width="2.48"
     stroke-linejoin="bevel"
     points="2095.14,1002.23 2095.14,875.998"
     id="polyline1395"
     transform="translate(-305.41636,-598.28462)" />
  <polyline
     class="Stem"
     fill="none"
     stroke="#000000"
     stroke-width="2.48"
     stroke-linejoin="bevel"
     points="2631.09,886.365 2631.09,1018.6"
     id="polyline1397"
     transform="translate(-305.41636,-598.28462)" />
  <polyline
     class="Stem"
     fill="none"
     stroke="#000000"
     stroke-width="2.48"
     stroke-linejoin="bevel"
     points="3420.45,911.165 3420.45,1031"
     id="polyline1399"
     transform="translate(-305.41636,-598.28462)" />
  <polyline
     class="Stem"
     fill="none"
     stroke="#000000"
     stroke-width="2.48"
     stroke-linejoin="bevel"
     points="3049.78,989.83 3049.78,863.598"
     id="polyline1401"
     transform="translate(-305.41636,-598.28462)" />
  <polyline
     class="Stem"
     fill="none"
     stroke="#000000"
     stroke-width="2.48"
     stroke-linejoin="bevel"
     points="2183.51,989.83 2183.51,863.598"
     id="polyline1403"
     transform="translate(-305.41636,-598.28462)" />
  <polyline
     class="Stem"
     fill="none"
     stroke="#000000"
     stroke-width="2.48"
     stroke-linejoin="bevel"
     points="1888.65,911.165 1888.65,1024.8"
     id="polyline1405"
     transform="translate(-305.41636,-598.28462)" />
  <polyline
     class="Stem"
     fill="none"
     stroke="#000000"
     stroke-width="2.48"
     stroke-linejoin="bevel"
     points="1741.65,1002.23 1741.65,869.798"
     id="polyline1407"
     transform="translate(-305.41636,-598.28462)" />
  <polyline
     class="Stem"
     fill="none"
     stroke="#000000"
     stroke-width="2.48"
     stroke-linejoin="bevel"
     points="2843.3,911.165 2843.3,1043.4"
     id="polyline1409"
     transform="translate(-305.41636,-598.28462)" />
  <polyline
     class="Stem"
     fill="none"
     stroke="#000000"
     stroke-width="2.48"
     stroke-linejoin="bevel"
     points="1529.45,989.83 1529.45,863.598"
     id="polyline1411"
     transform="translate(-305.41636,-598.28462)" />
  <polyline
     class="Stem"
     fill="none"
     stroke="#000000"
     stroke-width="2.48"
     stroke-linejoin="bevel"
     points="2006.77,1002.23 2006.77,869.798"
     id="polyline1413"
     transform="translate(-305.41636,-598.28462)" />
  <polyline
     class="Stem"
     fill="none"
     stroke="#000000"
     stroke-width="2.48"
     stroke-linejoin="bevel"
     points="3626.93,1002.23 3626.93,869.798"
     id="polyline1415"
     transform="translate(-305.41636,-598.28462)" />
  <polyline
     class="Stem"
     fill="none"
     stroke="#000000"
     stroke-width="2.48"
     stroke-linejoin="bevel"
     points="3715.3,989.83 3715.3,863.598"
     id="polyline1417"
     transform="translate(-305.41636,-598.28462)" />
  <polyline
     class="Stem"
     fill="none"
     stroke="#000000"
     stroke-width="2.48"
     stroke-linejoin="bevel"
     points="3773.93,911.165 3773.93,1043.4"
     id="polyline1419"
     transform="translate(-305.41636,-598.28462)" />
  <polyline
     class="Stem"
     fill="none"
     stroke="#000000"
     stroke-width="2.48"
     stroke-linejoin="bevel"
     points="2454.35,898.765 2454.35,1024.8"
     id="polyline1421"
     transform="translate(-305.41636,-598.28462)" />
  <polyline
     class="Stem"
     fill="none"
     stroke="#000000"
     stroke-width="2.48"
     stroke-linejoin="bevel"
     points="3892.05,1002.23 3892.05,844.998"
     id="polyline1423"
     transform="translate(-305.41636,-598.28462)" />
  <polyline
     class="Stem"
     fill="none"
     stroke="#000000"
     stroke-width="2.48"
     stroke-linejoin="bevel"
     points="2277.6,911.165 2277.6,1031"
     id="polyline1425"
     transform="translate(-305.41636,-598.28462)" />
  <polyline
     class="Stem"
     fill="none"
     stroke="#000000"
     stroke-width="2.48"
     stroke-linejoin="bevel"
     points="3226.53,989.83 3226.53,863.598"
     id="polyline1427"
     transform="translate(-305.41636,-598.28462)" />
  <polyline
     class="Stem"
     fill="none"
     stroke="#000000"
     stroke-width="2.48"
     stroke-linejoin="bevel"
     points="897.103,911.165 897.103,1031"
     id="polyline1429"
     transform="translate(-305.41636,-598.28462)" />
  <path
     class="Note"
     d="m 1016.3036,89.682881 c 0,4.262495 3.069,9.02102 11.1135,9.02102 10.3076,0 21.1265,-8.43202 21.1265,-17.158525 0,-5.859 -4.96,-9.129475 -11.1134,-9.129475 -9.6255,0 -21.1266,8.137475 -21.1266,17.26698"
     id="path1431"
     style="stroke-width:0.992" />
  <path
     class="Note"
     d="m 1104.6736,114.48288 c 0,4.2625 3.069,9.02102 11.1135,9.02102 10.3076,0 21.1265,-8.43202 21.1265,-17.15852 0,-5.859 -4.96,-9.129479 -11.1134,-9.129479 -9.6255,0 -21.1266,8.137479 -21.1266,17.266979"
     id="path1433"
     style="stroke-width:0.992" />
  <path
     class="Note"
     d="m 1193.0436,102.08288 c 0,4.2625 3.069,9.02102 11.1135,9.02102 10.3076,0 21.1265,-8.43202 21.1265,-17.158524 0,-5.859 -4.96,-9.129475 -11.1134,-9.129475 -9.6255,0 -21.1266,8.137475 -21.1266,17.266979"
     id="path1435"
     style="stroke-width:0.992" />
  <path
     class="Note"
     d="m 1281.4136,114.48288 c 0,4.2625 3.069,9.02102 11.1135,9.02102 10.3076,0 21.1265,-8.43202 21.1265,-17.15852 0,-5.859 -4.96,-9.129479 -11.1134,-9.129479 -9.6255,0 -21.1266,8.137479 -21.1266,17.266979"
     id="path1437"
     style="stroke-width:0.992" />
  <path
     class="Note"
     d="m 1405.2536,114.48288 c 0,4.2625 3.069,9.02102 11.1135,9.02102 10.3076,0 21.1265,-8.43202 21.1265,-17.15852 0,-5.859 -4.96,-9.129479 -11.1134,-9.129479 -9.6255,0 -21.1266,8.137479 -21.1266,17.266979"
     id="path1439"
     style="stroke-width:0.992" />
  <path
     class="Note"
     d="m 1493.6236,89.682881 c 0,4.262495 3.069,9.02102 11.1135,9.02102 10.3076,0 21.1265,-8.43202 21.1265,-17.158525 0,-5.859 -4.96,-9.129475 -11.1134,-9.129475 -9.6255,0 -21.1266,8.137475 -21.1266,17.26698"
     id="path1441"
     style="stroke-width:0.992" />
  <path
     class="Note"
     d="m 1603.1202,159.2159 c -9.6255,0 -21.1266,8.04448 -21.1266,17.26698 0,4.2625 3.069,9.02102 11.1135,9.02102 10.3076,0 21.1265,-8.43202 21.1265,-17.15852 0,-5.859 -4.96,-9.12948 -11.1134,-9.12948 m -2.6815,17.46848 c -0.2945,0.186 -7.5331,4.154 -11.0051,4.154 -3.2705,0 -3.968,-2.666 -3.968,-3.565 0,-4.1695 9.92,-9.021 10.3231,-9.22251 0.3875,-0.20149 7.44,-4.16949 11.0049,-4.16949 2.3871,0 3.968,1.395 3.968,3.565 0,4.278 -10.0129,9.0365 -10.3229,9.238"
     id="path1443"
     style="stroke-width:0.992" />
  <path
     class="Note"
     d="m 1603.1202,134.4159 c -9.6255,0 -21.1266,8.04448 -21.1266,17.26698 0,4.2625 3.069,9.02102 11.1135,9.02102 10.3076,0 21.1265,-8.43202 21.1265,-17.15852 0,-5.859 -4.96,-9.12948 -11.1134,-9.12948 m -2.6815,17.46848 c -0.2945,0.186 -7.5331,4.154 -11.0051,4.154 -3.2705,0 -3.968,-2.666 -3.968,-3.565 0,-4.1695 9.92,-9.021 10.3231,-9.22251 0.3875,-0.20149 7.44,-4.16949 11.0049,-4.16949 2.3871,0 3.968,1.395 3.968,3.565 0,4.278 -10.0129,9.0365 -10.3229,9.238"
     id="path1445"
     style="stroke-width:0.992" />
  <path
     class="Note"
     d="m 1603.1202,184.0159 c -9.6255,0 -21.1266,8.04448 -21.1266,17.26698 0,4.2625 3.069,9.02102 11.1135,9.02102 10.3076,0 21.1265,-8.43202 21.1265,-17.15852 0,-5.859 -4.96,-9.12948 -11.1134,-9.12948 m -2.6815,17.46848 c -0.2945,0.186 -7.5331,4.154 -11.0051,4.154 -3.2705,0 -3.968,-2.666 -3.968,-3.565 0,-4.1695 9.92,-9.021 10.3231,-9.22251 0.3875,-0.20149 7.44,-4.16949 11.0049,-4.16949 2.3871,0 3.968,1.395 3.968,3.565 0,4.278 -10.0129,9.0365 -10.3229,9.238"
     id="path1447"
     style="stroke-width:0.992" />
  <path
     class="Note"
     d="m 1970.9436,151.68288 c 0,4.2625 3.069,9.02102 11.1135,9.02102 10.3076,0 21.1265,-8.43202 21.1265,-17.15852 0,-5.859 -4.96,-9.12948 -11.1134,-9.12948 -9.6255,0 -21.1266,8.13748 -21.1266,17.26698"
     id="path1449"
     style="stroke-width:0.992" />
  <path
     class="Note"
     d="m 2059.3136,139.28288 c 0,4.2625 3.069,9.02102 11.1135,9.02102 10.3076,0 21.1265,-8.43202 21.1265,-17.15852 0,-5.859 -4.96,-9.12948 -11.1134,-9.12948 -9.6255,0 -21.1266,8.13748 -21.1266,17.26698"
     id="path1451"
     style="stroke-width:0.992" />
  <path
     class="Note"
     d="m 2147.6936,139.28288 c 0,4.2625 3.069,9.02102 11.1135,9.02102 10.3076,0 21.1265,-8.43202 21.1265,-17.15852 0,-5.859 -4.96,-9.12948 -11.1134,-9.12948 -9.6255,0 -21.1266,8.13748 -21.1266,17.26698"
     id="path1453"
     style="stroke-width:0.992" />
  <path
     class="Note"
     d="m 2236.0636,114.48288 c 0,4.2625 3.069,9.02102 11.1135,9.02102 10.3076,0 21.1265,-8.43202 21.1265,-17.15852 0,-5.859 -4.96,-9.129479 -11.1134,-9.129479 -9.6255,0 -21.1266,8.137479 -21.1266,17.266979"
     id="path1455"
     style="stroke-width:0.992" />
  <path
     class="Note"
     d="m 2324.4336,114.48288 c 0,4.2625 3.069,9.02102 11.1135,9.02102 10.3076,0 21.1265,-8.43202 21.1265,-17.15852 0,-5.859 -4.96,-9.129479 -11.1134,-9.129479 -9.6255,0 -21.1266,8.137479 -21.1266,17.266979"
     id="path1457"
     style="stroke-width:0.992" />
  <path
     class="Note"
     d="m 2412.8036,114.48288 c 0,4.2625 3.069,9.02102 11.1135,9.02102 10.3076,0 21.1265,-8.43202 21.1265,-17.15852 0,-5.859 -4.96,-9.129479 -11.1134,-9.129479 -9.6255,0 -21.1266,8.137479 -21.1266,17.266979"
     id="path1459"
     style="stroke-width:0.992" />
  <path
     class="Note"
     d="m 2536.6436,114.48288 c 0,4.2625 3.069,9.02102 11.1135,9.02102 10.3076,0 21.1265,-8.43202 21.1265,-17.15852 0,-5.859 -4.96,-9.129479 -11.1134,-9.129479 -9.6255,0 -21.1266,8.137479 -21.1266,17.266979"
     id="path1461"
     style="stroke-width:0.992" />
  <path
     class="Note"
     d="m 2625.0136,102.08288 c 0,4.2625 3.069,9.02102 11.1135,9.02102 10.3076,0 21.1265,-8.43202 21.1265,-17.158524 0,-5.859 -4.96,-9.129475 -11.1134,-9.129475 -9.6255,0 -21.1266,8.137475 -21.1266,17.266979"
     id="path1463"
     style="stroke-width:0.992" />
  <path
     class="Note"
     d="m 2713.3836,102.08288 c 0,4.2625 3.069,9.02102 11.1135,9.02102 10.3076,0 21.1265,-8.43202 21.1265,-17.158524 0,-5.859 -4.96,-9.129475 -11.1134,-9.129475 -9.6255,0 -21.1266,8.137475 -21.1266,17.266979"
     id="path1465"
     style="stroke-width:0.992" />
  <path
     class="Note"
     d="m 2801.7536,89.682881 c 0,4.262495 3.069,9.02102 11.1135,9.02102 10.3076,0 21.1265,-8.43202 21.1265,-17.158525 0,-5.859 -4.96,-9.129475 -11.1134,-9.129475 -9.6255,0 -21.1266,8.137475 -21.1266,17.26698"
     id="path1467"
     style="stroke-width:0.992" />
  <path
     class="Note"
     d="m 2890.1236,89.682881 c 0,4.262495 3.069,9.02102 11.1135,9.02102 10.3076,0 21.1265,-8.43202 21.1265,-17.158525 0,-5.859 -4.96,-9.129475 -11.1134,-9.129475 -9.6255,0 -21.1266,8.137475 -21.1266,17.26698"
     id="path1469"
     style="stroke-width:0.992" />
  <path
     class="Note"
     d="m 2978.5036,77.282881 c 0,4.262495 3.069,9.02102 11.1135,9.02102 10.3076,0 21.1265,-8.43202 21.1265,-17.158525 0,-5.859 -4.96,-9.129475 -11.1134,-9.129475 -9.6255,0 -21.1266,8.137475 -21.1266,17.26698"
     id="path1471"
     style="stroke-width:0.992" />
  <path
     class="Note"
     d="m 3113.7936,64.882881 c 0,4.262495 3.069,9.02102 11.1135,9.02102 10.3076,0 21.1265,-8.43202 21.1265,-17.158525 0,-5.859 -4.96,-9.129475 -11.1134,-9.129475 -9.6255,0 -21.1266,8.137475 -21.1266,17.26698"
     id="path1473"
     style="stroke-width:0.992" />
  <path
     class="Note"
     d="m 3202.1636,64.882881 c 0,4.262495 3.069,9.02102 11.1135,9.02102 10.3076,0 21.1265,-8.43202 21.1265,-17.158525 0,-5.859 -4.96,-9.129475 -11.1134,-9.129475 -9.6255,0 -21.1266,8.137475 -21.1266,17.26698"
     id="path1475"
     style="stroke-width:0.992" />
  <path
     class="Note"
     d="m 3311.6602,184.0159 c -9.6255,0 -21.1266,8.04448 -21.1266,17.26698 0,4.2625 3.069,9.02102 11.1135,9.02102 10.3076,0 21.1265,-8.43202 21.1265,-17.15852 0,-5.859 -4.96,-9.12948 -11.1134,-9.12948 m -2.6815,17.46848 c -0.2945,0.186 -7.5331,4.154 -11.0051,4.154 -3.2705,0 -3.968,-2.666 -3.968,-3.565 0,-4.1695 9.92,-9.021 10.3231,-9.22251 0.3875,-0.20149 7.44,-4.16949 11.0049,-4.16949 2.3871,0 3.968,1.395 3.968,3.565 0,4.278 -10.0129,9.0365 -10.3229,9.238"
     id="path1477"
     style="stroke-width:0.992" />
  <path
     class="Note"
     d="m 3311.6602,159.2159 c -9.6255,0 -21.1266,8.04448 -21.1266,17.26698 0,4.2625 3.069,9.02102 11.1135,9.02102 10.3076,0 21.1265,-8.43202 21.1265,-17.15852 0,-5.859 -4.96,-9.12948 -11.1134,-9.12948 m -2.6815,17.46848 c -0.2945,0.186 -7.5331,4.154 -11.0051,4.154 -3.2705,0 -3.968,-2.666 -3.968,-3.565 0,-4.1695 9.92,-9.021 10.3231,-9.22251 0.3875,-0.20149 7.44,-4.16949 11.0049,-4.16949 2.3871,0 3.968,1.395 3.968,3.565 0,4.278 -10.0129,9.0365 -10.3229,9.238"
     id="path1479"
     style="stroke-width:0.992" />
  <path
     class="Note"
     d="m 3311.6602,134.4159 c -9.6255,0 -21.1266,8.04448 -21.1266,17.26698 0,4.2625 3.069,9.02102 11.1135,9.02102 10.3076,0 21.1265,-8.43202 21.1265,-17.15852 0,-5.859 -4.96,-9.12948 -11.1134,-9.12948 m -2.6815,17.46848 c -0.2945,0.186 -7.5331,4.154 -11.0051,4.154 -3.2705,0 -3.968,-2.666 -3.968,-3.565 0,-4.1695 9.92,-9.021 10.3231,-9.22251 0.3875,-0.20149 7.44,-4.16949 11.0049,-4.16949 2.3871,0 3.968,1.395 3.968,3.565 0,4.278 -10.0129,9.0365 -10.3229,9.238"
     id="path1481"
     style="stroke-width:0.992" />
  <path
     class="Note"
     d="m 236.95964,27.682881 c 0,4.262495 3.069,9.02102 11.11348,9.02102 10.30757,0 21.12652,-8.43202 21.12652,-17.158525 0,-5.859 -4.96,-9.129475 -11.11347,-9.129475 -9.62548,0 -21.12653,8.137475 -21.12653,17.26698"
     id="path1483"
     style="stroke-width:0.992" />
  <path
     class="Note"
     d="m 325.33164,64.882881 c 0,4.262495 3.069,9.02102 11.11348,9.02102 10.30757,0 21.12652,-8.43202 21.12652,-17.158525 0,-5.859 -4.96,-9.129475 -11.11347,-9.129475 -9.62548,0 -21.12653,8.137475 -21.12653,17.26698"
     id="path1485"
     style="stroke-width:0.992" />
  <path
     class="Note"
     d="m 413.70364,52.482881 c 0,4.262495 3.069,9.02102 11.11348,9.02102 10.30757,0 21.12652,-8.43202 21.12652,-17.158525 0,-5.859 -4.96,-9.129475 -11.11347,-9.129475 -9.62548,0 -21.12653,8.137475 -21.12653,17.26698"
     id="path1487"
     style="stroke-width:0.992" />
  <path
     class="Note"
     d="m 502.07464,89.682881 c 0,4.262495 3.069,9.02102 11.11348,9.02102 10.30757,0 21.12652,-8.43202 21.12652,-17.158525 0,-5.859 -4.96,-9.129475 -11.11347,-9.129475 -9.62548,0 -21.12653,8.137475 -21.12653,17.26698"
     id="path1489"
     style="stroke-width:0.992" />
  <path
     class="Note"
     d="m 590.44664,64.882881 c 0,4.262495 3.069,9.02102 11.11348,9.02102 10.30757,0 21.12652,-8.43202 21.12652,-17.158525 0,-5.859 -4.96,-9.129475 -11.11347,-9.129475 -9.62548,0 -21.12653,8.137475 -21.12653,17.26698"
     id="path1491"
     style="stroke-width:0.992" />
  <path
     class="Note"
     d="m 678.81864,102.08288 c 0,4.2625 3.069,9.02102 11.11348,9.02102 10.30757,0 21.12652,-8.43202 21.12652,-17.158524 0,-5.859 -4.96,-9.129475 -11.11347,-9.129475 -9.62548,0 -21.12653,8.137475 -21.12653,17.266979"
     id="path1493"
     style="stroke-width:0.992" />
  <path
     class="Note"
     d="m 839.56364,77.282881 c 0,4.262495 3.069,9.02102 11.11348,9.02102 10.30757,0 21.12652,-8.43202 21.12652,-17.158525 0,-5.859 -4.96,-9.129475 -11.11347,-9.129475 -9.62548,0 -21.12653,8.137475 -21.12653,17.26698"
     id="path1495"
     style="stroke-width:0.992" />
  <path
     class="Note"
     d="m 927.93364,114.48288 c 0,4.2625 3.069,9.02102 11.11348,9.02102 10.30757,0 21.12652,-8.43202 21.12652,-17.15852 0,-5.859 -4.96,-9.129479 -11.11347,-9.129479 -9.62548,0 -21.12653,8.137479 -21.12653,17.266979"
     id="path1497"
     style="stroke-width:0.992" />
  <path
     class="Note"
     d="m 1581.9936,312.88288 c 0,4.2625 3.069,9.02102 11.1135,9.02102 10.3076,0 21.1265,-8.43202 21.1265,-17.15852 0,-5.859 -4.96,-9.12948 -11.1134,-9.12948 -9.6255,0 -21.1266,8.13748 -21.1266,17.26698"
     id="path1499"
     style="stroke-width:0.992" />
  <path
     class="Note"
     d="m 1581.9936,337.68288 c 0,4.2625 3.069,9.02102 11.1135,9.02102 10.3076,0 21.1265,-8.43202 21.1265,-17.15852 0,-5.859 -4.96,-9.12948 -11.1134,-9.12948 -9.6255,0 -21.1266,8.13748 -21.1266,17.26698"
     id="path1501"
     style="stroke-width:0.992" />
  <path
     class="Note"
     d="m 1581.9936,362.48288 c 0,4.2625 3.069,9.02102 11.1135,9.02102 10.3076,0 21.1265,-8.43202 21.1265,-17.15852 0,-5.859 -4.96,-9.12948 -11.1134,-9.12948 -9.6255,0 -21.1266,8.13748 -21.1266,17.26698"
     id="path1503"
     style="stroke-width:0.992" />
  <path
     class="Note"
     d="m 1426.3802,332.8159 c -9.6255,0 -21.1266,8.04448 -21.1266,17.26698 0,4.2625 3.069,9.02102 11.1135,9.02102 10.3076,0 21.1265,-8.43202 21.1265,-17.15852 0,-5.859 -4.96,-9.12948 -11.1134,-9.12948 m -2.6815,17.46848 c -0.2945,0.186 -7.5331,4.154 -11.0051,4.154 -3.2705,0 -3.968,-2.666 -3.968,-3.565 0,-4.1695 9.92,-9.021 10.3231,-9.22251 0.3875,-0.20149 7.44,-4.16949 11.0049,-4.16949 2.3871,0 3.968,1.395 3.968,3.565 0,4.278 -10.0129,9.0365 -10.3229,9.238"
     id="path1505"
     style="stroke-width:0.992" />
  <path
     class="Note"
     d="m 1426.3802,357.6159 c -9.6255,0 -21.1266,8.04448 -21.1266,17.26698 0,4.2625 3.069,9.02102 11.1135,9.02102 10.3076,0 21.1265,-8.43202 21.1265,-17.15852 0,-5.859 -4.96,-9.12948 -11.1134,-9.12948 m -2.6815,17.46848 c -0.2945,0.186 -7.5331,4.154 -11.0051,4.154 -3.2705,0 -3.968,-2.666 -3.968,-3.565 0,-4.1695 9.92,-9.021 10.3231,-9.22251 0.3875,-0.20149 7.44,-4.16949 11.0049,-4.16949 2.3871,0 3.968,1.395 3.968,3.565 0,4.278 -10.0129,9.0365 -10.3229,9.238"
     id="path1507"
     style="stroke-width:0.992" />
  <path
     class="Note"
     d="m 1847.1136,337.68288 c 0,4.2625 3.069,9.02102 11.1135,9.02102 10.3076,0 21.1265,-8.43202 21.1265,-17.15852 0,-5.859 -4.96,-9.12948 -11.1134,-9.12948 -9.6255,0 -21.1266,8.13748 -21.1266,17.26698"
     id="path1509"
     style="stroke-width:0.992" />
  <path
     class="Note"
     d="m 1426.3802,394.8179 c -9.6255,0 -21.1266,8.04448 -21.1266,17.26698 0,4.2625 3.069,9.02102 11.1135,9.02102 10.3076,0 21.1265,-8.43202 21.1265,-17.15852 0,-5.859 -4.96,-9.12948 -11.1134,-9.12948 m -2.6815,17.46848 c -0.2945,0.186 -7.5331,4.154 -11.0051,4.154 -3.2705,0 -3.968,-2.666 -3.968,-3.565 0,-4.1695 9.92,-9.021 10.3231,-9.22251 0.3875,-0.20149 7.44,-4.16949 11.0049,-4.16949 2.3871,0 3.968,1.395 3.968,3.565 0,4.278 -10.0129,9.0365 -10.3229,9.238"
     id="path1511"
     style="stroke-width:0.992" />
  <path
     class="Note"
     d="m 2557.7702,370.0159 c -9.6255,0 -21.1266,8.04448 -21.1266,17.26698 0,4.2625 3.069,9.02102 11.1135,9.02102 10.3076,0 21.1265,-8.43202 21.1265,-17.15852 0,-5.859 -4.96,-9.12948 -11.1134,-9.12948 m -2.6815,17.46848 c -0.2945,0.186 -7.5331,4.154 -11.0051,4.154 -3.2705,0 -3.968,-2.666 -3.968,-3.565 0,-4.1695 9.92,-9.021 10.3231,-9.22251 0.3875,-0.20149 7.44,-4.16949 11.0049,-4.16949 2.3871,0 3.968,1.395 3.968,3.565 0,4.278 -10.0129,9.0365 -10.3229,9.238"
     id="path1513"
     style="stroke-width:0.992" />
  <path
     class="Note"
     d="m 2557.7702,332.8159 c -9.6255,0 -21.1266,8.04448 -21.1266,17.26698 0,4.2625 3.069,9.02102 11.1135,9.02102 10.3076,0 21.1265,-8.43202 21.1265,-17.15852 0,-5.859 -4.96,-9.12948 -11.1134,-9.12948 m -2.6815,17.46848 c -0.2945,0.186 -7.5331,4.154 -11.0051,4.154 -3.2705,0 -3.968,-2.666 -3.968,-3.565 0,-4.1695 9.92,-9.021 10.3231,-9.22251 0.3875,-0.20149 7.44,-4.16949 11.0049,-4.16949 2.3871,0 3.968,1.395 3.968,3.565 0,4.278 -10.0129,9.0365 -10.3229,9.238"
     id="path1515"
     style="stroke-width:0.992" />
  <path
     class="Note"
     d="m 2557.7702,295.6159 c -9.6255,0 -21.1266,8.04448 -21.1266,17.26698 0,4.2625 3.069,9.02102 11.1135,9.02102 10.3076,0 21.1265,-8.43202 21.1265,-17.15852 0,-5.859 -4.96,-9.12948 -11.1134,-9.12948 m -2.6815,17.46848 c -0.2945,0.186 -7.5331,4.154 -11.0051,4.154 -3.2705,0 -3.968,-2.666 -3.968,-3.565 0,-4.1695 9.92,-9.021 10.3231,-9.22251 0.3875,-0.20149 7.44,-4.16949 11.0049,-4.16949 2.3871,0 3.968,1.395 3.968,3.565 0,4.278 -10.0129,9.0365 -10.3229,9.238"
     id="path1517"
     style="stroke-width:0.992" />
  <path
     class="Note"
     d="m 1214.1702,320.4159 c -9.6255,0 -21.1266,8.04448 -21.1266,17.26698 0,4.2625 3.069,9.02102 11.1135,9.02102 10.3076,0 21.1265,-8.43202 21.1265,-17.15852 0,-5.859 -4.96,-9.12948 -11.1134,-9.12948 m -2.6815,17.46848 c -0.2945,0.186 -7.5331,4.154 -11.0051,4.154 -3.2705,0 -3.968,-2.666 -3.968,-3.565 0,-4.1695 9.92,-9.021 10.3231,-9.22251 0.3875,-0.20149 7.44,-4.16949 11.0049,-4.16949 2.3871,0 3.968,1.395 3.968,3.565 0,4.278 -10.0129,9.0365 -10.3229,9.238"
     id="path1519"
     style="stroke-width:0.992" />
  <path
     class="Note"
     d="m 1847.1136,399.68288 c 0,4.2625 3.069,9.02102 11.1135,9.02102 10.3076,0 21.1265,-8.43202 21.1265,-17.15852 0,-5.859 -4.96,-9.12948 -11.1134,-9.12948 -9.6255,0 -21.1266,8.13748 -21.1266,17.26698"
     id="path1521"
     style="stroke-width:0.992" />
  <path
     class="Note"
     d="m 1214.1702,345.2159 c -9.6255,0 -21.1266,8.04448 -21.1266,17.26698 0,4.2625 3.069,9.02102 11.1135,9.02102 10.3076,0 21.1265,-8.43202 21.1265,-17.15852 0,-5.859 -4.96,-9.12948 -11.1134,-9.12948 m -2.6815,17.46848 c -0.2945,0.186 -7.5331,4.154 -11.0051,4.154 -3.2705,0 -3.968,-2.666 -3.968,-3.565 0,-4.1695 9.92,-9.021 10.3231,-9.22251 0.3875,-0.20149 7.44,-4.16949 11.0049,-4.16949 2.3871,0 3.968,1.395 3.968,3.565 0,4.278 -10.0129,9.0365 -10.3229,9.238"
     id="path1523"
     style="stroke-width:0.992" />
  <path
     class="Note"
     d="m 1992.0702,357.6159 c -9.6255,0 -21.1266,8.04448 -21.1266,17.26698 0,4.2625 3.069,9.02102 11.1135,9.02102 10.3076,0 21.1265,-8.43202 21.1265,-17.15852 0,-5.859 -4.96,-9.12948 -11.1134,-9.12948 m -2.6815,17.46848 c -0.2945,0.186 -7.5331,4.154 -11.0051,4.154 -3.2705,0 -3.968,-2.666 -3.968,-3.565 0,-4.1695 9.92,-9.021 10.3231,-9.22251 0.3875,-0.20149 7.44,-4.16949 11.0049,-4.16949 2.3871,0 3.968,1.395 3.968,3.565 0,4.278 -10.0129,9.0365 -10.3229,9.238"
     id="path1525"
     style="stroke-width:0.992" />
  <path
     class="Note"
     d="m 1214.1702,382.4159 c -9.6255,0 -21.1266,8.04448 -21.1266,17.26698 0,4.2625 3.069,9.02102 11.1135,9.02102 10.3076,0 21.1265,-8.43202 21.1265,-17.15852 0,-5.859 -4.96,-9.12948 -11.1134,-9.12948 m -2.6815,17.46848 c -0.2945,0.186 -7.5331,4.154 -11.0051,4.154 -3.2705,0 -3.968,-2.666 -3.968,-3.565 0,-4.1695 9.92,-9.021 10.3231,-9.22251 0.3875,-0.20149 7.44,-4.16949 11.0049,-4.16949 2.3871,0 3.968,1.395 3.968,3.565 0,4.278 -10.0129,9.0365 -10.3229,9.238"
     id="path1527"
     style="stroke-width:0.992" />
  <path
     class="Note"
     d="m 2734.5102,382.4159 c -9.6255,0 -21.1266,8.04448 -21.1266,17.26698 0,4.2625 3.069,9.02102 11.1135,9.02102 10.3076,0 21.1265,-8.43202 21.1265,-17.15852 0,-5.859 -4.96,-9.12948 -11.1134,-9.12948 m -2.6815,17.46848 c -0.2945,0.186 -7.5331,4.154 -11.0051,4.154 -3.2705,0 -3.968,-2.666 -3.968,-3.565 0,-4.1695 9.92,-9.021 10.3231,-9.22251 0.3875,-0.20149 7.44,-4.16949 11.0049,-4.16949 2.3871,0 3.968,1.395 3.968,3.565 0,4.278 -10.0129,9.0365 -10.3229,9.238"
     id="path1529"
     style="stroke-width:0.992" />
  <path
     class="Note"
     d="m 2734.5102,345.2159 c -9.6255,0 -21.1266,8.04448 -21.1266,17.26698 0,4.2625 3.069,9.02102 11.1135,9.02102 10.3076,0 21.1265,-8.43202 21.1265,-17.15852 0,-5.859 -4.96,-9.12948 -11.1134,-9.12948 m -2.6815,17.46848 c -0.2945,0.186 -7.5331,4.154 -11.0051,4.154 -3.2705,0 -3.968,-2.666 -3.968,-3.565 0,-4.1695 9.92,-9.021 10.3231,-9.22251 0.3875,-0.20149 7.44,-4.16949 11.0049,-4.16949 2.3871,0 3.968,1.395 3.968,3.565 0,4.278 -10.0129,9.0365 -10.3229,9.238"
     id="path1531"
     style="stroke-width:0.992" />
  <path
     class="Note"
     d="m 2734.5102,320.4159 c -9.6255,0 -21.1266,8.04448 -21.1266,17.26698 0,4.2625 3.069,9.02102 11.1135,9.02102 10.3076,0 21.1265,-8.43202 21.1265,-17.15852 0,-5.859 -4.96,-9.12948 -11.1134,-9.12948 m -2.6815,17.46848 c -0.2945,0.186 -7.5331,4.154 -11.0051,4.154 -3.2705,0 -3.968,-2.666 -3.968,-3.565 0,-4.1695 9.92,-9.021 10.3231,-9.22251 0.3875,-0.20149 7.44,-4.16949 11.0049,-4.16949 2.3871,0 3.968,1.395 3.968,3.565 0,4.278 -10.0129,9.0365 -10.3229,9.238"
     id="path1533"
     style="stroke-width:0.992" />
  <path
     class="Note"
     d="m 855.72712,295.22833 c -13.68648,0 -18.55348,6.94405 -18.55348,13.39205 0,6.448 4.867,13.39205 18.55348,13.39205 13.68652,0 18.44505,-6.94405 18.44505,-13.39205 0,-6.448 -4.75853,-13.39205 -18.44505,-13.39205 m 5.05305,23.00205 c -1.19348,0.403 -2.77453,0.60447 -4.26253,0.60447 -2.77452,0 -4.66547,-0.79047 -5.952,-3.27047 -1.28652,-2.48 -3.06895,-8.835 -3.17747,-11.51651 -0.20148,-2.68149 0.79052,-4.26249 3.17747,-5.053 1.19348,-0.40297 2.77453,-0.60454 4.26253,-0.60454 2.77452,0 4.57252,0.60454 5.952,3.28605 1.39495,2.666 3.17747,9.021 3.17747,11.501 0,2.573 -0.79052,4.371 -3.17747,5.053"
     id="path1535"
     style="stroke-width:0.992" />
  <path
     class="Note"
     d="m 1758.7436,362.48288 c 0,4.2625 3.069,9.02102 11.1135,9.02102 10.3076,0 21.1265,-8.43202 21.1265,-17.15852 0,-5.859 -4.96,-9.12948 -11.1134,-9.12948 -9.6255,0 -21.1266,8.13748 -21.1266,17.26698"
     id="path1537"
     style="stroke-width:0.992" />
  <path
     class="Note"
     d="m 855.72712,320.02833 c -13.68648,0 -18.55348,6.94405 -18.55348,13.39205 0,6.448 4.867,13.39205 18.55348,13.39205 13.68652,0 18.44505,-6.94405 18.44505,-13.39205 0,-6.448 -4.75853,-13.39205 -18.44505,-13.39205 m 5.05305,23.00205 c -1.19348,0.403 -2.77453,0.60447 -4.26253,0.60447 -2.77452,0 -4.66547,-0.79047 -5.952,-3.27047 -1.28652,-2.48 -3.06895,-8.835 -3.17747,-11.51651 -0.20148,-2.68149 0.79052,-4.26249 3.17747,-5.053 1.19348,-0.40297 2.77453,-0.60454 4.26253,-0.60454 2.77452,0 4.57252,0.60454 5.952,3.28605 1.39495,2.666 3.17747,9.021 3.17747,11.501 0,2.573 -0.79052,4.371 -3.17747,5.053"
     id="path1539"
     style="stroke-width:0.992" />
  <path
     class="Note"
     d="m 2168.8202,345.2159 c -9.6255,0 -21.1266,8.04448 -21.1266,17.26698 0,4.2625 3.069,9.02102 11.1135,9.02102 10.3076,0 21.1265,-8.43202 21.1265,-17.15852 0,-5.859 -4.96,-9.12948 -11.1134,-9.12948 m -2.6815,17.46848 c -0.2945,0.186 -7.5331,4.154 -11.0051,4.154 -3.2705,0 -3.968,-2.666 -3.968,-3.565 0,-4.1695 9.92,-9.021 10.3231,-9.22251 0.3875,-0.20149 7.44,-4.16949 11.0049,-4.16949 2.3871,0 3.968,1.395 3.968,3.565 0,4.278 -10.0129,9.0365 -10.3229,9.238"
     id="path1541"
     style="stroke-width:0.992" />
  <path
     class="Note"
     d="m 821.20712,332.42833 c -13.68648,0 -18.55348,6.94405 -18.55348,13.39205 0,6.448 4.867,13.39205 18.55348,13.39205 13.68652,0 18.44505,-6.94405 18.44505,-13.39205 0,-6.448 -4.75853,-13.39205 -18.44505,-13.39205 m 5.05305,23.00205 c -1.19348,0.403 -2.77453,0.60447 -4.26253,0.60447 -2.77452,0 -4.66547,-0.79047 -5.952,-3.27047 -1.28652,-2.48 -3.06895,-8.835 -3.17747,-11.51651 -0.20148,-2.68149 0.79052,-4.26249 3.17747,-5.053 1.19348,-0.40297 2.77453,-0.60454 4.26253,-0.60454 2.77452,0 4.57252,0.60454 5.952,3.28605 1.39495,2.666 3.17747,9.021 3.17747,11.501 0,2.573 -0.79052,4.371 -3.17747,5.053"
     id="path1543"
     style="stroke-width:0.992" />
  <path
     class="Note"
     d="m 2911.2502,382.4159 c -9.6255,0 -21.1266,8.04448 -21.1266,17.26698 0,4.2625 3.069,9.02102 11.1135,9.02102 10.3076,0 21.1265,-8.43202 21.1265,-17.15852 0,-5.859 -4.96,-9.12948 -11.1134,-9.12948 m -2.6815,17.46848 c -0.2945,0.186 -7.5331,4.154 -11.0051,4.154 -3.2705,0 -3.968,-2.666 -3.968,-3.565 0,-4.1695 9.92,-9.021 10.3231,-9.22251 0.3875,-0.20149 7.44,-4.16949 11.0049,-4.16949 2.3871,0 3.968,1.395 3.968,3.565 0,4.278 -10.0129,9.0365 -10.3229,9.238"
     id="path1545"
     style="stroke-width:0.992" />
  <path
     class="Note"
     d="m 2911.2502,357.6159 c -9.6255,0 -21.1266,8.04448 -21.1266,17.26698 0,4.2625 3.069,9.02102 11.1135,9.02102 10.3076,0 21.1265,-8.43202 21.1265,-17.15852 0,-5.859 -4.96,-9.12948 -11.1134,-9.12948 m -2.6815,17.46848 c -0.2945,0.186 -7.5331,4.154 -11.0051,4.154 -3.2705,0 -3.968,-2.666 -3.968,-3.565 0,-4.1695 9.92,-9.021 10.3231,-9.22251 0.3875,-0.20149 7.44,-4.16949 11.0049,-4.16949 2.3871,0 3.968,1.395 3.968,3.565 0,4.278 -10.0129,9.0365 -10.3229,9.238"
     id="path1547"
     style="stroke-width:0.992" />
  <path
     class="Note"
     d="m 2911.2502,320.4159 c -9.6255,0 -21.1266,8.04448 -21.1266,17.26698 0,4.2625 3.069,9.02102 11.1135,9.02102 10.3076,0 21.1265,-8.43202 21.1265,-17.15852 0,-5.859 -4.96,-9.12948 -11.1134,-9.12948 m -2.6815,17.46848 c -0.2945,0.186 -7.5331,4.154 -11.0051,4.154 -3.2705,0 -3.968,-2.666 -3.968,-3.565 0,-4.1695 9.92,-9.021 10.3231,-9.22251 0.3875,-0.20149 7.44,-4.16949 11.0049,-4.16949 2.3871,0 3.968,1.395 3.968,3.565 0,4.278 -10.0129,9.0365 -10.3229,9.238"
     id="path1549"
     style="stroke-width:0.992" />
  <path
     class="Note"
     d="m 611.57317,295.6159 c -9.62548,0 -21.12653,8.04448 -21.12653,17.26698 0,4.2625 3.069,9.02102 11.11348,9.02102 10.30757,0 21.12652,-8.43202 21.12652,-17.15852 0,-5.859 -4.96,-9.12948 -11.11347,-9.12948 m -2.68148,17.46848 c -0.29452,0.186 -7.53305,4.154 -11.00505,4.154 -3.27049,0 -3.968,-2.666 -3.968,-3.565 0,-4.1695 9.92,-9.021 10.32305,-9.22251 0.38748,-0.20149 7.44,-4.16949 11.00495,-4.16949 2.38705,0 3.968,1.395 3.968,3.565 0,4.278 -10.01295,9.0365 -10.32295,9.238"
     id="path1551"
     style="stroke-width:0.992" />
  <path
     class="Note"
     d="m 2168.8202,320.4159 c -9.6255,0 -21.1266,8.04448 -21.1266,17.26698 0,4.2625 3.069,9.02102 11.1135,9.02102 10.3076,0 21.1265,-8.43202 21.1265,-17.15852 0,-5.859 -4.96,-9.12948 -11.1134,-9.12948 m -2.6815,17.46848 c -0.2945,0.186 -7.5331,4.154 -11.0051,4.154 -3.2705,0 -3.968,-2.666 -3.968,-3.565 0,-4.1695 9.92,-9.021 10.3231,-9.22251 0.3875,-0.20149 7.44,-4.16949 11.0049,-4.16949 2.3871,0 3.968,1.395 3.968,3.565 0,4.278 -10.0129,9.0365 -10.3229,9.238"
     id="path1553"
     style="stroke-width:0.992" />
  <path
     class="Note"
     d="m 611.57317,332.8159 c -9.62548,0 -21.12653,8.04448 -21.12653,17.26698 0,4.2625 3.069,9.02102 11.11348,9.02102 10.30757,0 21.12652,-8.43202 21.12652,-17.15852 0,-5.859 -4.96,-9.12948 -11.11347,-9.12948 m -2.68148,17.46848 c -0.29452,0.186 -7.53305,4.154 -11.00505,4.154 -3.27049,0 -3.968,-2.666 -3.968,-3.565 0,-4.1695 9.92,-9.021 10.32305,-9.22251 0.38748,-0.20149 7.44,-4.16949 11.00495,-4.16949 2.38705,0 3.968,1.395 3.968,3.565 0,4.278 -10.01295,9.0365 -10.32295,9.238"
     id="path1555"
     style="stroke-width:0.992" />
  <path
     class="Note"
     d="m 611.57317,357.6159 c -9.62548,0 -21.12653,8.04448 -21.12653,17.26698 0,4.2625 3.069,9.02102 11.11348,9.02102 10.30757,0 21.12652,-8.43202 21.12652,-17.15852 0,-5.859 -4.96,-9.12948 -11.11347,-9.12948 m -2.68148,17.46848 c -0.29452,0.186 -7.53305,4.154 -11.00505,4.154 -3.27049,0 -3.968,-2.666 -3.968,-3.565 0,-4.1695 9.92,-9.021 10.32305,-9.22251 0.38748,-0.20149 7.44,-4.16949 11.00495,-4.16949 2.38705,0 3.968,1.395 3.968,3.565 0,4.278 -10.01295,9.0365 -10.32295,9.238"
     id="path1557"
     style="stroke-width:0.992" />
  <path
     class="Note"
     d="m 253.12612,245.62833 c -13.68648,0 -18.55348,6.94405 -18.55348,13.39205 0,6.448 4.867,13.39205 18.55348,13.39205 13.68652,0 18.44505,-6.94405 18.44505,-13.39205 0,-6.448 -4.75853,-13.39205 -18.44505,-13.39205 m 5.05305,23.00205 c -1.19348,0.403 -2.77453,0.60447 -4.26253,0.60447 -2.77452,0 -4.66547,-0.79047 -5.952,-3.27047 -1.28652,-2.48 -3.06895,-8.835 -3.17747,-11.51651 -0.20148,-2.68149 0.79052,-4.26249 3.17747,-5.053 1.19348,-0.40297 2.77453,-0.60454 4.26253,-0.60454 2.77452,0 4.57252,0.60454 5.952,3.28605 1.39495,2.666 3.17747,9.021 3.17747,11.501 0,2.573 -0.79052,4.371 -3.17747,5.053"
     id="path1559"
     style="stroke-width:0.992" />
  <path
     class="Note"
     d="m 253.12612,270.42833 c -13.68648,0 -18.55348,6.94405 -18.55348,13.39205 0,6.448 4.867,13.39205 18.55348,13.39205 13.68652,0 18.44505,-6.94405 18.44505,-13.39205 0,-6.448 -4.75853,-13.39205 -18.44505,-13.39205 m 5.05305,23.00205 c -1.19348,0.403 -2.77453,0.60447 -4.26253,0.60447 -2.77452,0 -4.66547,-0.79047 -5.952,-3.27047 -1.28652,-2.48 -3.06895,-8.835 -3.17747,-11.51651 -0.20148,-2.68149 0.79052,-4.26249 3.17747,-5.053 1.19348,-0.40297 2.77453,-0.60454 4.26253,-0.60454 2.77452,0 4.57252,0.60454 5.952,3.28605 1.39495,2.666 3.17747,9.021 3.17747,11.501 0,2.573 -0.79052,4.371 -3.17747,5.053"
     id="path1561"
     style="stroke-width:0.992" />
  <path
     class="Note"
     d="m 253.12612,295.22833 c -13.68648,0 -18.55348,6.94405 -18.55348,13.39205 0,6.448 4.867,13.39205 18.55348,13.39205 13.68652,0 18.44505,-6.94405 18.44505,-13.39205 0,-6.448 -4.75853,-13.39205 -18.44505,-13.39205 m 5.05305,23.00205 c -1.19348,0.403 -2.77453,0.60447 -4.26253,0.60447 -2.77452,0 -4.66547,-0.79047 -5.952,-3.27047 -1.28652,-2.48 -3.06895,-8.835 -3.17747,-11.51651 -0.20148,-2.68149 0.79052,-4.26249 3.17747,-5.053 1.19348,-0.40297 2.77453,-0.60454 4.26253,-0.60454 2.77452,0 4.57252,0.60454 5.952,3.28605 1.39495,2.666 3.17747,9.021 3.17747,11.501 0,2.573 -0.79052,4.371 -3.17747,5.053"
     id="path1563"
     style="stroke-width:0.992" />
  <path
     class="Note"
     d="m 2168.8202,283.2159 c -9.6255,0 -21.1266,8.04448 -21.1266,17.26698 0,4.2625 3.069,9.02102 11.1135,9.02102 10.3076,0 21.1265,-8.43202 21.1265,-17.15852 0,-5.859 -4.96,-9.12948 -11.1134,-9.12948 m -2.6815,17.46848 c -0.2945,0.186 -7.5331,4.154 -11.0051,4.154 -3.2705,0 -3.968,-2.666 -3.968,-3.565 0,-4.1695 9.92,-9.021 10.3231,-9.22251 0.3875,-0.20149 7.44,-4.16949 11.0049,-4.16949 2.3871,0 3.968,1.395 3.968,3.565 0,4.278 -10.0129,9.0365 -10.3229,9.238"
     id="path1565"
     style="stroke-width:0.992" />
  <path
     class="Note"
     d="m 1670.3636,412.08488 c 0,4.2625 3.069,9.02102 11.1135,9.02102 10.3076,0 21.1265,-8.43202 21.1265,-17.15852 0,-5.859 -4.96,-9.12948 -11.1134,-9.12948 -9.6255,0 -21.1266,8.13748 -21.1266,17.26698"
     id="path1567"
     style="stroke-width:0.992" />
  <path
     class="Note"
     d="m 2345.5602,270.8159 c -9.6255,0 -21.1266,8.04448 -21.1266,17.26698 0,4.2625 3.069,9.02102 11.1135,9.02102 10.3076,0 21.1265,-8.43202 21.1265,-17.15852 0,-5.859 -4.96,-9.12948 -11.1134,-9.12948 m -2.6815,17.46848 c -0.2945,0.186 -7.5331,4.154 -11.0051,4.154 -3.2705,0 -3.968,-2.666 -3.968,-3.565 0,-4.1695 9.92,-9.021 10.3231,-9.22251 0.3875,-0.20149 7.44,-4.16949 11.0049,-4.16949 2.3871,0 3.968,1.395 3.968,3.565 0,4.278 -10.0129,9.0365 -10.3229,9.238"
     id="path1569"
     style="stroke-width:0.992" />
  <path
     class="Note"
     d="m 3134.9202,357.6159 c -9.6255,0 -21.1266,8.04448 -21.1266,17.26698 0,4.2625 3.069,9.02102 11.1135,9.02102 10.3076,0 21.1265,-8.43202 21.1265,-17.15852 0,-5.859 -4.96,-9.12948 -11.1134,-9.12948 m -2.6815,17.46848 c -0.2945,0.186 -7.5331,4.154 -11.0051,4.154 -3.2705,0 -3.968,-2.666 -3.968,-3.565 0,-4.1695 9.92,-9.021 10.3231,-9.22251 0.3875,-0.20149 7.44,-4.16949 11.0049,-4.16949 2.3871,0 3.968,1.395 3.968,3.565 0,4.278 -10.0129,9.0365 -10.3229,9.238"
     id="path1571"
     style="stroke-width:0.992" />
  <path
     class="Note"
     d="m 3134.9202,332.8159 c -9.6255,0 -21.1266,8.04448 -21.1266,17.26698 0,4.2625 3.069,9.02102 11.1135,9.02102 10.3076,0 21.1265,-8.43202 21.1265,-17.15852 0,-5.859 -4.96,-9.12948 -11.1134,-9.12948 m -2.6815,17.46848 c -0.2945,0.186 -7.5331,4.154 -11.0051,4.154 -3.2705,0 -3.968,-2.666 -3.968,-3.565 0,-4.1695 9.92,-9.021 10.3231,-9.22251 0.3875,-0.20149 7.44,-4.16949 11.0049,-4.16949 2.3871,0 3.968,1.395 3.968,3.565 0,4.278 -10.0129,9.0365 -10.3229,9.238"
     id="path1573"
     style="stroke-width:0.992" />
  <path
     class="Note"
     d="m 3134.9202,295.6159 c -9.6255,0 -21.1266,8.04448 -21.1266,17.26698 0,4.2625 3.069,9.02102 11.1135,9.02102 10.3076,0 21.1265,-8.43202 21.1265,-17.15852 0,-5.859 -4.96,-9.12948 -11.1134,-9.12948 m -2.6815,17.46848 c -0.2945,0.186 -7.5331,4.154 -11.0051,4.154 -3.2705,0 -3.968,-2.666 -3.968,-3.565 0,-4.1695 9.92,-9.021 10.3231,-9.22251 0.3875,-0.20149 7.44,-4.16949 11.0049,-4.16949 2.3871,0 3.968,1.395 3.968,3.565 0,4.278 -10.0129,9.0365 -10.3229,9.238"
     id="path1575"
     style="stroke-width:0.992" />
  <path
     class="Note"
     d="m 1758.7436,387.28288 c 0,4.2625 3.069,9.02102 11.1135,9.02102 10.3076,0 21.1265,-8.43202 21.1265,-17.15852 0,-5.859 -4.96,-9.12948 -11.1134,-9.12948 -9.6255,0 -21.1266,8.13748 -21.1266,17.26698"
     id="path1577"
     style="stroke-width:0.992" />
  <path
     class="Note"
     d="m 1992.0702,332.8159 c -9.6255,0 -21.1266,8.04448 -21.1266,17.26698 0,4.2625 3.069,9.02102 11.1135,9.02102 10.3076,0 21.1265,-8.43202 21.1265,-17.15852 0,-5.859 -4.96,-9.12948 -11.1134,-9.12948 m -2.6815,17.46848 c -0.2945,0.186 -7.5331,4.154 -11.0051,4.154 -3.2705,0 -3.968,-2.666 -3.968,-3.565 0,-4.1695 9.92,-9.021 10.3231,-9.22251 0.3875,-0.20149 7.44,-4.16949 11.0049,-4.16949 2.3871,0 3.968,1.395 3.968,3.565 0,4.278 -10.0129,9.0365 -10.3229,9.238"
     id="path1579"
     style="stroke-width:0.992" />
  <path
     class="Note"
     d="m 1758.7436,412.08488 c 0,4.2625 3.069,9.02102 11.1135,9.02102 10.3076,0 21.1265,-8.43202 21.1265,-17.15852 0,-5.859 -4.96,-9.12948 -11.1134,-9.12948 -9.6255,0 -21.1266,8.13748 -21.1266,17.26698"
     id="path1581"
     style="stroke-width:0.992" />
  <path
     class="Note"
     d="m 1992.0702,295.6159 c -9.6255,0 -21.1266,8.04448 -21.1266,17.26698 0,4.2625 3.069,9.02102 11.1135,9.02102 10.3076,0 21.1265,-8.43202 21.1265,-17.15852 0,-5.859 -4.96,-9.12948 -11.1134,-9.12948 m -2.6815,17.46848 c -0.2945,0.186 -7.5331,4.154 -11.0051,4.154 -3.2705,0 -3.968,-2.666 -3.968,-3.565 0,-4.1695 9.92,-9.021 10.3231,-9.22251 0.3875,-0.20149 7.44,-4.16949 11.0049,-4.16949 2.3871,0 3.968,1.395 3.968,3.565 0,4.278 -10.0129,9.0365 -10.3229,9.238"
     id="path1583"
     style="stroke-width:0.992" />
  <path
     class="Note"
     d="m 3290.5336,412.08488 c 0,4.2625 3.069,9.02102 11.1135,9.02102 10.3076,0 21.1265,-8.43202 21.1265,-17.15852 0,-5.859 -4.96,-9.12948 -11.1134,-9.12948 -9.6255,0 -21.1266,8.13748 -21.1266,17.26698"
     id="path1585"
     style="stroke-width:0.992" />
  <path
     class="Note"
     d="m 3290.5336,374.88288 c 0,4.2625 3.069,9.02102 11.1135,9.02102 10.3076,0 21.1265,-8.43202 21.1265,-17.15852 0,-5.859 -4.96,-9.12948 -11.1134,-9.12948 -9.6255,0 -21.1266,8.13748 -21.1266,17.26698"
     id="path1587"
     style="stroke-width:0.992" />
  <path
     class="Note"
     d="m 3290.5336,350.08288 c 0,4.2625 3.069,9.02102 11.1135,9.02102 10.3076,0 21.1265,-8.43202 21.1265,-17.15852 0,-5.859 -4.96,-9.12948 -11.1134,-9.12948 -9.6255,0 -21.1266,8.13748 -21.1266,17.26698"
     id="path1589"
     style="stroke-width:0.992" />
  <path
     class="Note"
     d="m 1670.3636,350.08288 c 0,4.2625 3.069,9.02102 11.1135,9.02102 10.3076,0 21.1265,-8.43202 21.1265,-17.15852 0,-5.859 -4.96,-9.12948 -11.1134,-9.12948 -9.6255,0 -21.1266,8.13748 -21.1266,17.26698"
     id="path1591"
     style="stroke-width:0.992" />
  <path
     class="Note"
     d="m 3378.9036,399.68288 c 0,4.2625 3.069,9.02102 11.1135,9.02102 10.3076,0 21.1265,-8.43202 21.1265,-17.15852 0,-5.859 -4.96,-9.12948 -11.1134,-9.12948 -9.6255,0 -21.1266,8.13748 -21.1266,17.26698"
     id="path1593"
     style="stroke-width:0.992" />
  <path
     class="Note"
     d="m 3378.9036,362.48288 c 0,4.2625 3.069,9.02102 11.1135,9.02102 10.3076,0 21.1265,-8.43202 21.1265,-17.15852 0,-5.859 -4.96,-9.12948 -11.1134,-9.12948 -9.6255,0 -21.1266,8.13748 -21.1266,17.26698"
     id="path1595"
     style="stroke-width:0.992" />
  <path
     class="Note"
     d="m 3378.9036,337.68288 c 0,4.2625 3.069,9.02102 11.1135,9.02102 10.3076,0 21.1265,-8.43202 21.1265,-17.15852 0,-5.859 -4.96,-9.12948 -11.1134,-9.12948 -9.6255,0 -21.1266,8.13748 -21.1266,17.26698"
     id="path1597"
     style="stroke-width:0.992" />
  <path
     class="Note"
     d="m 2345.5602,332.8159 c -9.6255,0 -21.1266,8.04448 -21.1266,17.26698 0,4.2625 3.069,9.02102 11.1135,9.02102 10.3076,0 21.1265,-8.43202 21.1265,-17.15852 0,-5.859 -4.96,-9.12948 -11.1134,-9.12948 m -2.6815,17.46848 c -0.2945,0.186 -7.5331,4.154 -11.0051,4.154 -3.2705,0 -3.968,-2.666 -3.968,-3.565 0,-4.1695 9.92,-9.021 10.3231,-9.22251 0.3875,-0.20149 7.44,-4.16949 11.0049,-4.16949 2.3871,0 3.968,1.395 3.968,3.565 0,4.278 -10.0129,9.0365 -10.3229,9.238"
     id="path1599"
     style="stroke-width:0.992" />
  <path
     class="Note"
     d="m 3467.2736,387.28288 c 0,4.2625 3.069,9.02102 11.1135,9.02102 10.3076,0 21.1265,-8.43202 21.1265,-17.15852 0,-5.859 -4.96,-9.12948 -11.1134,-9.12948 -9.6255,0 -21.1266,8.13748 -21.1266,17.26698"
     id="path1601"
     style="stroke-width:0.992" />
  <path
     class="Note"
     d="m 3467.2736,350.08288 c 0,4.2625 3.069,9.02102 11.1135,9.02102 10.3076,0 21.1265,-8.43202 21.1265,-17.15852 0,-5.859 -4.96,-9.12948 -11.1134,-9.12948 -9.6255,0 -21.1266,8.13748 -21.1266,17.26698"
     id="path1603"
     style="stroke-width:0.992" />
  <path
     class="Note"
     d="m 3467.2736,312.88288 c 0,4.2625 3.069,9.02102 11.1135,9.02102 10.3076,0 21.1265,-8.43202 21.1265,-17.15852 0,-5.859 -4.96,-9.12948 -11.1134,-9.12948 -9.6255,0 -21.1266,8.13748 -21.1266,17.26698"
     id="path1605"
     style="stroke-width:0.992" />
  <path
     class="Note"
     d="m 2345.5602,295.6159 c -9.6255,0 -21.1266,8.04448 -21.1266,17.26698 0,4.2625 3.069,9.02102 11.1135,9.02102 10.3076,0 21.1265,-8.43202 21.1265,-17.15852 0,-5.859 -4.96,-9.12948 -11.1134,-9.12948 m -2.6815,17.46848 c -0.2945,0.186 -7.5331,4.154 -11.0051,4.154 -3.2705,0 -3.968,-2.666 -3.968,-3.565 0,-4.1695 9.92,-9.021 10.3231,-9.22251 0.3875,-0.20149 7.44,-4.16949 11.0049,-4.16949 2.3871,0 3.968,1.395 3.968,3.565 0,4.278 -10.0129,9.0365 -10.3229,9.238"
     id="path1607"
     style="stroke-width:0.992" />
  <path
     class="Note"
     d="m 3555.6436,412.08488 c 0,4.2625 3.069,9.02102 11.1135,9.02102 10.3076,0 21.1265,-8.43202 21.1265,-17.15852 0,-5.859 -4.96,-9.12948 -11.1134,-9.12948 -9.6255,0 -21.1266,8.13748 -21.1266,17.26698"
     id="path1609"
     style="stroke-width:0.992" />
  <path
     class="Note"
     d="m 3555.6436,374.88288 c 0,4.2625 3.069,9.02102 11.1135,9.02102 10.3076,0 21.1265,-8.43202 21.1265,-17.15852 0,-5.859 -4.96,-9.12948 -11.1134,-9.12948 -9.6255,0 -21.1266,8.13748 -21.1266,17.26698"
     id="path1611"
     style="stroke-width:0.992" />
  <path
     class="Note"
     d="m 3555.6436,312.88288 c 0,4.2625 3.069,9.02102 11.1135,9.02102 10.3076,0 21.1265,-8.43202 21.1265,-17.15852 0,-5.859 -4.96,-9.12948 -11.1134,-9.12948 -9.6255,0 -21.1266,8.13748 -21.1266,17.26698"
     id="path1613"
     style="stroke-width:0.992" />
  <path
     class="Note"
     d="m 1670.3636,374.88288 c 0,4.2625 3.069,9.02102 11.1135,9.02102 10.3076,0 21.1265,-8.43202 21.1265,-17.15852 0,-5.859 -4.96,-9.12948 -11.1134,-9.12948 -9.6255,0 -21.1266,8.13748 -21.1266,17.26698"
     id="path1615"
     style="stroke-width:0.992" />
  <path
     class="Note"
     d="m 1847.1136,362.48288 c 0,4.2625 3.069,9.02102 11.1135,9.02102 10.3076,0 21.1265,-8.43202 21.1265,-17.15852 0,-5.859 -4.96,-9.12948 -11.1134,-9.12948 -9.6255,0 -21.1266,8.13748 -21.1266,17.26698"
     id="path1617"
     style="stroke-width:0.992" />
  <path
     class="Clef"
     d="m 109.99912,112.39038 c 0,7.0525 -2.88295,14.291 -9.92,17.17405 -2.076953,-11.90405 -4.758429,-27.68305 -5.456003,-32.054104 8.928003,0 15.376003,6.060544 15.376003,14.880054 m -14.089478,18.35205 c -1.984,0.40295 -3.859475,0.60442 -5.750525,0.60442 -14.182426,0 -26.28797,-9.92 -26.28797,-24.90847 0,-12.090054 8.52502,-22.909004 17.26702,-30.457529 1.674,-1.488 3.270524,-2.867475 4.758524,-4.355475 0.883476,5.347475 1.580951,10.01295 2.278426,14.089475 -9.036426,2.681475 -15.174426,12.198525 -15.174426,21.529529 0,6.944 5.456,16.461 13.392,16.461 0.790426,0 1.689476,-0.40295 1.689476,-1.28653 0,-0.89895 -0.992,-1.39495 -2.185476,-2.18547 -3.875049,-2.387 -6.060524,-4.96 -6.060524,-9.827 0,-6.045 4.464,-10.912054 10.32295,-12.291529 l 5.750525,32.627579 M 87.183117,28.767901 c 0.89905,-3.968 5.456,-14.384 10.617574,-14.384 1.488,0 3.859479,4.851475 3.859479,11.702425 0,10.32305 -7.626003,18.057575 -14.477053,24.8 -0.58895,-3.968 -1.08495,-7.827475 -1.08495,-11.99695 0,-3.673475 0.294524,-7.052525 1.08495,-10.121475 m -20.832,132.431999 c 0,6.55653 5.05305,15.19 18.44505,15.19 4.665475,0 8.742,-1.19347 12.30695,-3.37905 5.363053,-3.76642 6.742523,-10.32295 6.742523,-16.56947 0,-3.85948 -0.58895,-8.32348 -1.58095,-13.98095 -0.29452,-1.984 -0.89905,-4.96 -1.488,-8.83505 9.71843,-3.17748 16.95695,-13.29895 16.95695,-23.5135 0,-14.973029 -10.61747,-25.094504 -25.094523,-25.094504 -0.992,-5.952 -1.984,-11.81105 -2.88295,-17.36 10.524523,-11.020525 17.762953,-23.420525 17.762953,-39.184 0,-9.036525 -2.77443,-16.368 -4.37095,-19.948128 C 100.77669,3.472 97.893642,0 96.111117,0 c -0.697475,0 -3.766426,1.193376 -7.03695,5.053248 -6.35505,7.548128 -8.137476,20.242653 -8.137476,28.566128 0,5.36295 0.496,10.23 2.185476,21.343475 -0.108525,0.09305 -5.27,5.347475 -7.34705,7.03705 -9.036426,8.432 -21.529475,20.42895 -21.529475,40.284479 0,18.53805 16.166525,33.12352 34.627049,33.12352 2.867476,0 5.548951,-0.29452 7.827476,-0.69747 1.89095,9.53242 2.976,16.47642 2.976,21.73095 0,10.32305 -5.254525,15.77905 -15.267476,15.77905 -2.387049,0 -4.464,-0.496 -4.665574,-0.496 -0.09295,-0.10853 -0.294426,-0.20158 -0.294426,-0.29453 0,-0.20147 0.201476,-0.31 0.496,-0.40305 4.665476,-0.69747 9.315476,-4.66547 9.315476,-11.00495 0,-5.36305 -4.06105,-11.02052 -11.50105,-11.02052 -6.944,0 -11.408,5.65747 -11.408,12.19852"
     id="path1619"
     style="stroke-width:0.992" />
  <path
     class="Clef"
     d="m 79.448691,296.22033 c -7.548524,0 -13.593574,4.35557 -13.702,4.35557 -5.750544,4.26243 -8.029049,9.33095 -8.928049,12.80297 -0.496,1.78251 -0.682,3.565 -0.682,5.25451 0,2.387 0.387505,4.557 1.286505,6.448 1.193495,2.6815 3.472,4.557 6.448,5.549 1.193544,0.403 2.47997,0.60447 3.766495,0.60447 2.185475,0 4.464,-0.60447 6.355049,-1.68947 3.068951,-1.6895 4.96,-5.2545 4.96,-9.1295 0,-3.47201 -1.798,-6.6495 -4.774,-8.52501 -2.077049,-1.39497 -4.061049,-1.78254 -5.750524,-1.78254 -1.193476,0 -2.278525,0.186 -3.177476,0.496 -0.992,0.38757 -2.666049,1.37954 -3.472049,2.07705 0.31,-1.89105 1.488,-4.75853 2.588475,-6.35505 1.08505,-1.58095 3.270525,-3.56495 4.96,-4.464 2.48,-1.37948 5.657574,-1.984 9.129574,-1.984 10.121476,0 15.081476,8.13757 15.081476,24.80005 0,9.23805 -3.472,18.05752 -6.448,23.91647 -3.286,6.54105 -7.641476,12.80305 -11.516525,16.27505 -10.322951,9.424 -20.041495,13.888 -20.134495,13.888 0,0 -1.193505,0.682 -1.193505,1.87548 0,0.20147 0.093,0.29452 0.093,0.496 0.31,0.992 1.193505,1.19347 1.798,1.19347 0.093,0 0.387505,-0.093 0.496,-0.093 0.093,0 11.408049,-4.66547 20.429,-11.718 5.068525,-3.658 9.625475,-7.626 13.593475,-11.904 3.56505,-3.85947 6.649574,-8.02905 9.129574,-12.19852 4.355479,-7.44 6.835479,-15.17453 6.835479,-21.824 0,-8.23051 -2.17,-15.08148 -6.24653,-19.93305 -4.665473,-5.56443 -11.702523,-8.432 -20.924949,-8.432 m 31.139479,12.586 c 0,2.79005 2.18547,4.96005 4.774,4.96005 2.57295,0 4.75852,-2.17 4.75852,-4.96005 0,-2.77443 -2.18557,-5.05295 -4.75852,-5.05295 -2.58853,0 -4.774,2.27852 -4.774,5.05295 m 0,24.50557 c 0,2.77453 2.18547,5.06853 4.774,5.06853 2.57295,0 4.75852,-2.294 4.75852,-5.06853 0,-2.77452 -2.18557,-5.05302 -4.75852,-5.05302 -2.58853,0 -4.774,2.2785 -4.774,5.05302"
     id="path1621"
     style="stroke-width:0.992" />
  <path
     class="TimeSig"
     d="m 170.80612,56.450871 c -6.06043,0 -8.23043,1.782505 -9.62548,3.270505 -0.29452,-2.077 -0.496,-3.673505 -0.496,-5.254505 0,-1.596495 0.20148,-2.976 0.496,-4.758545 0.58905,-3.673475 3.06905,-8.246 8.432,-8.246 2.48,0 3.968,0.806 4.96,1.89105 -2.07695,0.89895 -3.76652,3.56495 -3.76652,5.85895 0,3.56505 2.77452,6.339545 6.35505,6.339545 3.56495,0 6.448,-2.774495 6.448,-6.339545 v -0.201475 c 0,0 0,0 0,-0.108525 0,-0.883475 -0.20148,-2.371475 -0.60453,-3.162 -1.28652,-3.580425 -5.456,-8.83495 -15.376,-8.83495 -8.928,0 -15.376,8.52495 -17.36,13.097475 -0.992,2.371525 -2.48,7.238525 -2.48,12.787525 0,6.060505 1.68951,12.89605 7.533,18.057525 5.76605,4.37095 9.42405,4.572525 12.89605,4.572525 3.48748,0 16.47643,-4.076525 16.47643,-15.577545 0,-9.718505 -7.64148,-13.39201 -13.888,-13.39201 m -3.67348,24.79998 c -3.27052,0 -5.952,-4.464 -5.952,-10.028425 0,-5.54905 2.68148,-10.10605 5.952,-10.10605 3.27053,0 6.06053,4.557 6.06053,10.10605 0,5.564425 -2.79,10.028425 -6.06053,10.028425"
     id="path1623"
     style="stroke-width:0.992" />
  <path
     class="TimeSig"
     d="m 164.15617,122.91485 v 7.33158 h -8.23053 c -0.69747,0 -1.39495,0.60442 -1.39495,1.39495 v 1.89105 c 0,0.79042 0.69748,1.37947 1.39495,1.37947 h 30.05453 c 0.806,0 1.39495,-0.58905 1.39495,-1.37947 v -1.89105 c 0,-0.79053 -0.58895,-1.39495 -1.39495,-1.39495 h -8.928 v -7.33158 h 8.928 c 0.806,0 1.39495,-0.69747 1.39495,-1.488 v -1.89097 c 0,-0.6975 -0.58895,-1.3795 -1.39495,-1.3795 h -8.928 v -15.779 c 0,-0.589 -0.29453,-1.085 -0.682,-1.28651 l -1.19348,-0.60449 c -0.20157,-0.093 -0.29452,-0.093 -0.496,-0.093 -0.10852,0 -0.10852,0 -0.20157,0 -0.29443,0 -0.69748,0.093 -0.89895,0.29449 l -9.02105,8.23051 c -0.29443,0.31 -0.40295,0.6975 -0.40295,1.1005 v 8.1375 h -11.50102 c 0,0 11.11354,-11.904 22.81597,-27.590054 0.40305,-0.496 0.496,-0.992 0.496,-1.379475 0,-0.496 -0.20148,-0.89895 -0.29443,-0.992 l -2.18557,-2.185475 c -0.29443,-0.201475 -0.58895,-0.40305 -0.992,-0.40305 -0.58895,0 -13.99643,0 -14.78695,0 -0.69748,0 -1.19348,0.604525 -1.28653,1.193575 0,0 -0.496,7.34695 -3.069,15.375969 -2.58849,8.04451 -5.56449,13.00451 -8.13749,16.66251 0,0 -0.29451,0.496 -0.29451,1.1005 0,0.2015 0,0.38755 0.093,0.58902 0.29451,0.69748 0.992,1.78253 0.992,1.78253 0,0 0.20151,0.60442 1.085,0.60442 h 17.06553"
     id="path1625"
     style="stroke-width:0.992" />
  <path
     class="TimeSig"
     d="m 170.80612,316.85087 c -6.06043,0 -8.23043,1.78251 -9.62548,3.27051 -0.29452,-2.077 -0.496,-3.67351 -0.496,-5.25451 0,-1.59649 0.20148,-2.976 0.496,-4.75854 0.58905,-3.67348 3.06905,-8.246 8.432,-8.246 2.48,0 3.968,0.806 4.96,1.89105 -2.07695,0.89895 -3.76652,3.56495 -3.76652,5.85895 0,3.56505 2.77452,6.33954 6.35505,6.33954 3.56495,0 6.448,-2.77449 6.448,-6.33954 v -0.20148 c 0,0 0,0 0,-0.10852 0,-0.88348 -0.20148,-2.37148 -0.60453,-3.162 -1.28652,-3.58043 -5.456,-8.83495 -15.376,-8.83495 -8.928,0 -15.376,8.52495 -17.36,13.09747 -0.992,2.37153 -2.48,7.23853 -2.48,12.78753 0,6.0605 1.68951,12.89605 7.533,18.05752 5.76605,4.37095 9.42405,4.57253 12.89605,4.57253 3.48748,0 16.47643,-4.07653 16.47643,-15.57755 0,-9.7185 -7.64148,-13.39201 -13.888,-13.39201 m -3.67348,24.79998 c -3.27052,0 -5.952,-4.464 -5.952,-10.02842 0,-5.54905 2.68148,-10.10605 5.952,-10.10605 3.27053,0 6.06053,4.557 6.06053,10.10605 0,5.56442 -2.79,10.02842 -6.06053,10.02842"
     id="path1627"
     style="stroke-width:0.992" />
  <path
     class="TimeSig"
     d="m 164.15617,383.31485 v 7.33158 h -8.23053 c -0.69747,0 -1.39495,0.60442 -1.39495,1.39495 v 1.89105 c 0,0.79042 0.69748,1.37947 1.39495,1.37947 h 30.05453 c 0.806,0 1.39495,-0.58905 1.39495,-1.37947 v -1.89105 c 0,-0.79053 -0.58895,-1.39495 -1.39495,-1.39495 h -8.928 v -7.33158 h 8.928 c 0.806,0 1.39495,-0.69747 1.39495,-1.488 v -1.89097 c 0,-0.6975 -0.58895,-1.3795 -1.39495,-1.3795 h -8.928 v -15.779 c 0,-0.589 -0.29453,-1.085 -0.682,-1.28651 l -1.19348,-0.60449 c -0.20157,-0.093 -0.29452,-0.093 -0.496,-0.093 -0.10852,0 -0.10852,0 -0.20157,0 -0.29443,0 -0.69748,0.093 -0.89895,0.29449 l -9.02105,8.23051 c -0.29443,0.31 -0.40295,0.6975 -0.40295,1.1005 v 8.1375 h -11.50102 c 0,0 11.11354,-11.904 22.81597,-27.59005 0.40305,-0.496 0.496,-0.992 0.496,-1.37948 0,-0.496 -0.20148,-0.89895 -0.29443,-0.992 l -2.18557,-2.18547 c -0.29443,-0.20148 -0.58895,-0.40305 -0.992,-0.40305 -0.58895,0 -13.99643,0 -14.78695,0 -0.69748,0 -1.19348,0.60452 -1.28653,1.19357 0,0 -0.496,7.34695 -3.069,15.37597 -2.58849,8.04451 -5.56449,13.00451 -8.13749,16.66251 0,0 -0.29451,0.496 -0.29451,1.1005 0,0.2015 0,0.38755 0.093,0.58902 0.29451,0.69748 0.992,1.78253 0.992,1.78253 0,0 0.20151,0.60442 1.085,0.60442 h 17.06553"
     id="path1629"
     style="stroke-width:0.992" />
  <path
     class="Rest"
     d="m 3467.2736,84.521376 c 0,1.395 0,1.395 1.395,1.395 h 29.4656 c 1.3794,0 1.3794,0 1.3794,-1.395 V 73.810851 c 0,-1.39495 0,-1.39495 -1.3794,-1.39495 h -29.4656 c -1.395,0 -1.395,0 -1.395,1.39495 v 10.710525"
     id="path1631"
     style="stroke-width:0.992" />
  <path
     class="Rest"
     d="m 1758.7436,84.521376 c 0,1.395 0,1.395 1.395,1.395 h 29.4656 c 1.3794,0 1.3794,0 1.3794,-1.395 V 73.810851 c 0,-1.39495 0,-1.39495 -1.3794,-1.39495 h -29.4656 c -1.395,0 -1.395,0 -1.395,1.39495 v 10.710525"
     id="path1633"
     style="stroke-width:0.992" />
  <path
     class="Bracket"
     d="m 3.3985167,215.71338 c 6.4615805,-6.85506 19.0475803,-20.84566 19.0475803,-46.748 0,-32.75741 -14.0468748,-65.85175 -14.0468748,-86.304004 0,-21.969402 12.5859998,-42.47775 13.3164198,-43.152 0,-0.393402 0,-0.393402 0,-0.730348 0,-0.393402 0,-0.730707 -0.337125,-1.067652 -0.393295,0 -1.12375,0 -1.460875,0.67425 -0.337125,0.393402 -19.77800025,19.778 -19.77800025,49.276348 0,31.633656 12.58600025,53.939996 12.58600025,95.293996 0,7.92235 -3.2588753,20.50835 -12.24887525,31.68975 -0.337125,0 -0.337125,0.67425 -0.337125,1.06766 -0.337125,0.33694 0,0.73034 0.337125,1.06765 8.98999995,11.12494 12.24887525,23.71094 12.24887525,31.63329 0,41.354 -12.58600025,63.66071 -12.58600025,95.294 0,29.16148 19.44087525,48.93949 19.77800025,49.27662 0.337125,0.73044 1.06758,1.06756 1.460875,0.73044 0.337125,-0.33713 0.67425,-0.73044 0.337125,-1.06757 0,0 0,-0.39331 0,-0.73043 -0.73042,-0.73046 -13.3164198,-21.23888 -13.3164198,-43.152 0,-20.50835 14.0468748,-53.60306 14.0468748,-86.304 0,-26.23966 -12.5859998,-39.94941 -19.0475803,-46.748"
     id="path1635"
     style="stroke-width:3.596" />
</svg>
