<?xml version="1.0" encoding="UTF-8" standalone="no"?>
<svg
   xmlns:dc="http://purl.org/dc/elements/1.1/"
   xmlns:cc="http://creativecommons.org/ns#"
   xmlns:rdf="http://www.w3.org/1999/02/22-rdf-syntax-ns#"
   xmlns:svg="http://www.w3.org/2000/svg"
   xmlns="http://www.w3.org/2000/svg"
   xmlns:sodipodi="http://sodipodi.sourceforge.net/DTD/sodipodi-0.dtd"
   xmlns:inkscape="http://www.inkscape.org/namespaces/inkscape"
   width="3659.6021"
   height="197.9039"
   viewBox="0 0 3659.6021 197.9039"
   version="1.2"
   id="svg1389"
   sodipodi:docname="Strofa Jagershut.svg"
   inkscape:version="1.0.2-2 (e86c870879, 2021-01-15)"
   inkscape:export-filename="C:\Users\slagt\Music\Strofe\Strofa Jagershut\Strofa Jagershut.png"
   inkscape:export-xdpi="95"
   inkscape:export-ydpi="95">
  <metadata
     id="metadata1395">
    <rdf:RDF>
      <cc:Work
         rdf:about="">
        <dc:format>image/svg+xml</dc:format>
        <dc:type
           rdf:resource="http://purl.org/dc/dcmitype/StillImage" />
      </cc:Work>
    </rdf:RDF>
  </metadata>
  <defs
     id="defs1393" />
  <sodipodi:namedview
     pagecolor="#ffffff"
     bordercolor="#666666"
     borderopacity="1"
     objecttolerance="10"
     gridtolerance="10"
     guidetolerance="10"
     inkscape:pageopacity="0"
     inkscape:pageshadow="2"
     inkscape:window-width="1920"
     inkscape:window-height="991"
     id="namedview1391"
     showgrid="false"
     inkscape:zoom="0.27542658"
     inkscape:cx="1767.602"
     inkscape:cy="890.31535"
     inkscape:window-x="-9"
     inkscape:window-y="-9"
     inkscape:window-maximized="1"
     inkscape:current-layer="svg1389" />
  <title
     id="title1203">Strofa Jagershut</title>
  <desc
     id="desc1205">Generated by MuseScore Studio 4.4.4</desc>
  <polyline
     class="StaffLines"
     fill="none"
     stroke="#000000"
     stroke-width="2.73"
     stroke-linejoin="bevel"
     points="336.598,634.198 3996.2,634.198"
     id="polyline1207"
     transform="translate(-336.598,-598.28462)" />
  <polyline
     class="StaffLines"
     fill="none"
     stroke="#000000"
     stroke-width="2.73"
     stroke-linejoin="bevel"
     points="336.598,658.998 3996.2,658.998"
     id="polyline1209"
     transform="translate(-336.598,-598.28462)" />
  <polyline
     class="StaffLines"
     fill="none"
     stroke="#000000"
     stroke-width="2.73"
     stroke-linejoin="bevel"
     points="336.598,683.798 3996.2,683.798"
     id="polyline1211"
     transform="translate(-336.598,-598.28462)" />
  <polyline
     class="StaffLines"
     fill="none"
     stroke="#000000"
     stroke-width="2.73"
     stroke-linejoin="bevel"
     points="336.598,708.598 3996.2,708.598"
     id="polyline1213"
     transform="translate(-336.598,-598.28462)" />
  <polyline
     class="StaffLines"
     fill="none"
     stroke="#000000"
     stroke-width="2.73"
     stroke-linejoin="bevel"
     points="336.598,733.398 3996.2,733.398"
     id="polyline1215"
     transform="translate(-336.598,-598.28462)" />
  <polyline
     class="BarLine"
     fill="none"
     stroke="#000000"
     stroke-width="4.46"
     stroke-linejoin="bevel"
     points="2865.18,632.834 2865.18,734.762"
     id="polyline1221"
     transform="translate(-336.598,-598.28462)" />
  <polyline
     class="BarLine"
     fill="none"
     stroke="#000000"
     stroke-width="4.46"
     stroke-linejoin="bevel"
     points="2445.26,632.834 2445.26,734.762"
     id="polyline1223"
     transform="translate(-336.598,-598.28462)" />
  <polyline
     class="BarLine"
     fill="none"
     stroke="#000000"
     stroke-width="4.46"
     stroke-linejoin="bevel"
     points="3647.35,632.834 3647.35,734.762"
     id="polyline1225"
     transform="translate(-336.598,-598.28462)" />
  <polyline
     class="BarLine"
     fill="none"
     stroke="#000000"
     stroke-width="4.46"
     stroke-linejoin="bevel"
     points="1315.98,632.834 1315.98,734.762"
     id="polyline1227"
     transform="translate(-336.598,-598.28462)" />
  <polyline
     class="BarLine"
     fill="none"
     stroke="#000000"
     stroke-width="4.46"
     stroke-linejoin="bevel"
     points="934.511,632.834 934.511,734.762"
     id="polyline1229"
     transform="translate(-336.598,-598.28462)" />
  <polyline
     class="BarLine"
     fill="none"
     stroke="#000000"
     stroke-width="4.46"
     stroke-linejoin="bevel"
     points="3188.98,632.834 3188.98,734.762"
     id="polyline1231"
     transform="translate(-336.598,-598.28462)" />
  <polyline
     class="BarLine"
     fill="none"
     stroke="#000000"
     stroke-width="4.46"
     stroke-linejoin="bevel"
     points="1735.9,632.834 1735.9,734.762"
     id="polyline1233"
     transform="translate(-336.598,-598.28462)" />
  <polyline
     class="BarLine"
     fill="none"
     stroke="#000000"
     stroke-width="4.46"
     stroke-linejoin="bevel"
     points="2117.38,632.834 2117.38,734.762"
     id="polyline1235"
     transform="translate(-336.598,-598.28462)" />
  <polyline
     class="BarLine"
     fill="none"
     stroke="#000000"
     stroke-width="4.46"
     stroke-linejoin="bevel"
     points="3971.15,632.834 3971.15,734.762"
     id="polyline1237"
     transform="translate(-336.598,-598.28462)" />
  <polyline
     class="BarLine"
     fill="none"
     stroke="#000000"
     stroke-width="13.64"
     stroke-linejoin="bevel"
     points="3989.38,632.834 3989.38,734.762"
     id="polyline1239"
     transform="translate(-336.598,-598.28462)" />
  <polyline
     class="LedgerLine"
     fill="none"
     stroke="#000000"
     stroke-width="3.97"
     stroke-linejoin="bevel"
     points="3787.73,758.198 3836.32,758.198"
     id="polyline1241"
     transform="translate(-336.598,-598.28462)" />
  <polyline
     class="LedgerLine"
     fill="none"
     stroke="#000000"
     stroke-width="3.97"
     stroke-linejoin="bevel"
     points="1456.37,758.198 1504.96,758.198"
     id="polyline1243"
     transform="translate(-336.598,-598.28462)" />
  <polyline
     class="LedgerLine"
     fill="none"
     stroke="#000000"
     stroke-width="3.97"
     stroke-linejoin="bevel"
     points="3672.39,758.198 3720.99,758.198"
     id="polyline1245"
     transform="translate(-336.598,-598.28462)" />
  <polyline
     class="LedgerLine"
     fill="none"
     stroke="#000000"
     stroke-width="3.97"
     stroke-linejoin="bevel"
     points="3787.73,782.998 3836.32,782.998"
     id="polyline1247"
     transform="translate(-336.598,-598.28462)" />
  <polyline
     class="Stem"
     fill="none"
     stroke="#000000"
     stroke-width="2.48"
     stroke-linejoin="bevel"
     points="2899.65,663.165 2899.65,745.798"
     id="polyline1249"
     transform="translate(-336.598,-598.28462)" />
  <polyline
     class="Stem"
     fill="none"
     stroke="#000000"
     stroke-width="2.48"
     stroke-linejoin="bevel"
     points="3014.98,638.365 3014.98,720.998"
     id="polyline1251"
     transform="translate(-336.598,-598.28462)" />
  <polyline
     class="Stem"
     fill="none"
     stroke="#000000"
     stroke-width="2.48"
     stroke-linejoin="bevel"
     points="3223.45,650.765 3223.45,727.295"
     id="polyline1253"
     transform="translate(-336.598,-598.28462)" />
  <polyline
     class="Stem"
     fill="none"
     stroke="#000000"
     stroke-width="2.48"
     stroke-linejoin="bevel"
     points="3300.34,663.165 3300.34,733.302"
     id="polyline1255"
     transform="translate(-336.598,-598.28462)" />
  <polyline
     class="Stem"
     fill="none"
     stroke="#000000"
     stroke-width="2.48"
     stroke-linejoin="bevel"
     points="636.477,692.23 636.477,615.598"
     id="polyline1257"
     transform="translate(-336.598,-598.28462)" />
  <polyline
     class="Stem"
     fill="none"
     stroke="#000000"
     stroke-width="2.48"
     stroke-linejoin="bevel"
     points="3377.24,675.565 3377.24,751.998"
     id="polyline1259"
     transform="translate(-336.598,-598.28462)" />
  <polyline
     class="Stem"
     fill="none"
     stroke="#000000"
     stroke-width="2.48"
     stroke-linejoin="bevel"
     points="779.737,687.965 779.737,751.902"
     id="polyline1261"
     transform="translate(-336.598,-598.28462)" />
  <polyline
     class="Stem"
     fill="none"
     stroke="#000000"
     stroke-width="2.48"
     stroke-linejoin="bevel"
     points="3492.57,687.965 3492.57,751.902"
     id="polyline1263"
     transform="translate(-336.598,-598.28462)" />
  <polyline
     class="Stem"
     fill="none"
     stroke="#000000"
     stroke-width="2.48"
     stroke-linejoin="bevel"
     points="856.628,675.565 856.628,745.895"
     id="polyline1265"
     transform="translate(-336.598,-598.28462)" />
  <polyline
     class="Stem"
     fill="none"
     stroke="#000000"
     stroke-width="2.48"
     stroke-linejoin="bevel"
     points="3569.46,675.565 3569.46,745.895"
     id="polyline1267"
     transform="translate(-336.598,-598.28462)" />
  <polyline
     class="Stem"
     fill="none"
     stroke="#000000"
     stroke-width="2.48"
     stroke-linejoin="bevel"
     points="968.983,663.165 968.983,745.798"
     id="polyline1269"
     transform="translate(-336.598,-598.28462)" />
  <polyline
     class="Stem"
     fill="none"
     stroke="#000000"
     stroke-width="2.48"
     stroke-linejoin="bevel"
     points="3681.82,687.965 3681.82,758.198"
     id="polyline1271"
     transform="translate(-336.598,-598.28462)" />
  <polyline
     class="Stem"
     fill="none"
     stroke="#000000"
     stroke-width="2.48"
     stroke-linejoin="bevel"
     points="1084.32,675.565 1084.32,751.998"
     id="polyline1273"
     transform="translate(-336.598,-598.28462)" />
  <polyline
     class="Stem"
     fill="none"
     stroke="#000000"
     stroke-width="2.48"
     stroke-linejoin="bevel"
     points="3826.9,779.03 3826.9,615.598"
     id="polyline1275"
     transform="translate(-336.598,-598.28462)" />
  <polyline
     class="Stem"
     fill="none"
     stroke="#000000"
     stroke-width="2.48"
     stroke-linejoin="bevel"
     points="1199.66,687.965 1199.66,758.198"
     id="polyline1277"
     transform="translate(-336.598,-598.28462)" />
  <polyline
     class="Stem"
     fill="none"
     stroke="#000000"
     stroke-width="2.48"
     stroke-linejoin="bevel"
     points="1380.2,692.23 1380.2,615.598"
     id="polyline1279"
     transform="translate(-336.598,-598.28462)" />
  <polyline
     class="Stem"
     fill="none"
     stroke="#000000"
     stroke-width="2.48"
     stroke-linejoin="bevel"
     points="1495.54,754.23 1495.54,634.198"
     id="polyline1281"
     transform="translate(-336.598,-598.28462)" />
  <polyline
     class="Stem"
     fill="none"
     stroke="#000000"
     stroke-width="2.48"
     stroke-linejoin="bevel"
     points="1610.87,717.03 1610.87,640.205"
     id="polyline1283"
     transform="translate(-336.598,-598.28462)" />
  <polyline
     class="Stem"
     fill="none"
     stroke="#000000"
     stroke-width="2.48"
     stroke-linejoin="bevel"
     points="1687.76,692.23 1687.76,628.192"
     id="polyline1285"
     transform="translate(-336.598,-598.28462)" />
  <polyline
     class="Stem"
     fill="none"
     stroke="#000000"
     stroke-width="2.48"
     stroke-linejoin="bevel"
     points="1800.12,704.63 1800.12,621.798"
     id="polyline1287"
     transform="translate(-336.598,-598.28462)" />
  <polyline
     class="Stem"
     fill="none"
     stroke="#000000"
     stroke-width="2.48"
     stroke-linejoin="bevel"
     points="1915.46,717.03 1915.46,634.198"
     id="polyline1289"
     transform="translate(-336.598,-598.28462)" />
  <polyline
     class="Stem"
     fill="none"
     stroke="#000000"
     stroke-width="2.48"
     stroke-linejoin="bevel"
     points="2030.79,704.63 2030.79,621.798"
     id="polyline1291"
     transform="translate(-336.598,-598.28462)" />
  <polyline
     class="Stem"
     fill="none"
     stroke="#000000"
     stroke-width="2.48"
     stroke-linejoin="bevel"
     points="2181.59,692.23 2181.59,615.598"
     id="polyline1293"
     transform="translate(-336.598,-598.28462)" />
  <polyline
     class="Stem"
     fill="none"
     stroke="#000000"
     stroke-width="2.48"
     stroke-linejoin="bevel"
     points="2633.51,663.165 2633.51,745.798"
     id="polyline1295"
     transform="translate(-336.598,-598.28462)" />
  <polyline
     class="Stem"
     fill="none"
     stroke="#000000"
     stroke-width="2.48"
     stroke-linejoin="bevel"
     points="2327.8,692.23 2327.8,615.598"
     id="polyline1297"
     transform="translate(-336.598,-598.28462)" />
  <polyline
     class="Stem"
     fill="none"
     stroke="#000000"
     stroke-width="2.48"
     stroke-linejoin="bevel"
     points="2479.73,687.965 2479.73,751.902"
     id="polyline1299"
     transform="translate(-336.598,-598.28462)" />
  <polyline
     class="Stem"
     fill="none"
     stroke="#000000"
     stroke-width="2.48"
     stroke-linejoin="bevel"
     points="2556.62,675.565 2556.62,745.895"
     id="polyline1301"
     transform="translate(-336.598,-598.28462)" />
  <polyline
     class="Stem"
     fill="none"
     stroke="#000000"
     stroke-width="2.48"
     stroke-linejoin="bevel"
     points="2748.85,675.565 2748.85,751.998"
     id="polyline1303"
     transform="translate(-336.598,-598.28462)" />
  <path
     class="Note"
     d="m 441.899,89.682881 c 0,4.262495 3.069,9.02102 11.11348,9.02102 10.30757,0 21.12652,-8.43202 21.12652,-17.158525 0,-5.859 -4.96,-9.129475 -11.11348,-9.129475 -9.62547,0 -21.12652,8.137475 -21.12652,17.26698"
     id="path1305"
     style="stroke-width:0.992" />
  <path
     class="Note"
     d="m 3343.982,89.682881 c 0,4.262495 3.069,9.02102 11.1135,9.02102 10.3075,0 21.1265,-8.43202 21.1265,-17.158525 0,-5.859 -4.96,-9.129475 -11.1135,-9.129475 -9.6255,0 -21.1265,8.137475 -21.1265,17.26698"
     id="path1307"
     style="stroke-width:0.992" />
  <path
     class="Note"
     d="m 1814.012,102.08288 c 0,4.2625 3.069,9.02102 11.1135,9.02102 10.3075,0 21.1265,-8.43202 21.1265,-17.158524 0,-5.859 -4.96,-9.129475 -11.1135,-9.129475 -9.6255,0 -21.1265,8.137475 -21.1265,17.266979"
     id="path1309"
     style="stroke-width:0.992" />
  <path
     class="Note"
     d="m 1012.622,102.08288 c 0,4.2625 3.069,9.02102 11.1135,9.02102 10.3075,0 21.1265,-8.43202 21.1265,-17.158524 0,-5.859 -4.96,-9.129475 -11.1135,-9.129475 -9.6255,0 -21.1265,8.137475 -21.1265,17.266979"
     id="path1311"
     style="stroke-width:0.992" />
  <path
     class="Note"
     d="m 290.02052,84.815901 c -9.62547,0 -21.12652,8.044475 -21.12652,17.266979 0,4.2625 3.069,9.02102 11.11348,9.02102 10.30757,0 21.12652,-8.43202 21.12652,-17.158524 0,-5.859 -4.96,-9.129475 -11.11348,-9.129475 M 276.334,106.43838 c -3.2705,0 -3.968,-2.666 -3.968,-3.565 0,-4.867004 16.66252,-13.392004 21.328,-13.392004 2.38705,0 3.968,1.395 3.968,3.565 0,4.96 -16.77095,13.392004 -21.328,13.392004"
     id="path1313"
     style="stroke-width:0.992" />
  <path
     class="Note"
     d="m 1547.872,126.88288 c 0,4.2625 3.069,9.02102 11.1135,9.02102 10.3075,0 21.1265,-8.43202 21.1265,-17.15852 0,-5.859 -4.96,-9.12948 -11.1135,-9.12948 -9.6255,0 -21.1265,8.13748 -21.1265,17.26698"
     id="path1315"
     style="stroke-width:0.992" />
  <path
     class="Note"
     d="m 518.79,77.282881 c 0,4.262495 3.069,9.02102 11.11348,9.02102 10.30757,0 21.12652,-8.43202 21.12652,-17.158525 0,-5.859 -4.96,-9.129475 -11.11348,-9.129475 -9.62547,0 -21.12652,8.137475 -21.12652,17.26698"
     id="path1317"
     style="stroke-width:0.992" />
  <path
     class="Note"
     d="m 631.145,64.882881 c 0,4.262495 3.069,9.02102 11.11348,9.02102 10.30757,0 21.12652,-8.43202 21.12652,-17.158525 0,-5.859 -4.96,-9.129475 -11.11348,-9.129475 -9.62547,0 -21.12652,8.137475 -21.12652,17.26698"
     id="path1319"
     style="stroke-width:0.992" />
  <path
     class="Note"
     d="m 746.482,77.282881 c 0,4.262495 3.069,9.02102 11.11348,9.02102 10.30757,0 21.12652,-8.43202 21.12652,-17.158525 0,-5.859 -4.96,-9.129475 -11.11348,-9.129475 -9.62547,0 -21.12652,8.137475 -21.12652,17.26698"
     id="path1321"
     style="stroke-width:0.992" />
  <path
     class="Note"
     d="m 2411.012,77.282881 c 0,4.262495 3.069,9.02102 11.1135,9.02102 10.3075,0 21.1265,-8.43202 21.1265,-17.158525 0,-5.859 -4.96,-9.129475 -11.1135,-9.129475 -9.6255,0 -21.1265,8.137475 -21.1265,17.26698"
     id="path1323"
     style="stroke-width:0.992" />
  <path
     class="Note"
     d="m 3480.4385,171.6159 c -9.6255,0 -21.1265,8.04448 -21.1265,17.26698 0,4.2625 3.069,9.02102 11.1135,9.02102 10.3075,0 21.1265,-8.43202 21.1265,-17.15852 0,-5.859 -4.96,-9.12948 -11.1135,-9.12948 m -13.6865,21.62248 c -3.2705,0 -3.968,-2.666 -3.968,-3.565 0,-4.867 16.6625,-13.392 21.328,-13.392 2.387,0 3.968,1.395 3.968,3.565 0,4.96 -16.771,13.392 -21.328,13.392"
     id="path1325"
     style="stroke-width:0.992" />
  <path
     class="Note"
     d="m 1432.532,114.48288 c 0,4.2625 3.069,9.02102 11.1135,9.02102 10.3075,0 21.1265,-8.43202 21.1265,-17.15852 0,-5.859 -4.96,-9.129479 -11.1135,-9.129479 -9.6255,0 -21.1265,8.137479 -21.1265,17.266979"
     id="path1327"
     style="stroke-width:0.992" />
  <path
     class="Note"
     d="m 1663.212,114.48288 c 0,4.2625 3.069,9.02102 11.1135,9.02102 10.3075,0 21.1265,-8.43202 21.1265,-17.15852 0,-5.859 -4.96,-9.129479 -11.1135,-9.129479 -9.6255,0 -21.1265,8.137479 -21.1265,17.266979"
     id="path1329"
     style="stroke-width:0.992" />
  <path
     class="Note"
     d="m 2561.812,64.882881 c 0,4.262495 3.069,9.02102 11.1135,9.02102 10.3075,0 21.1265,-8.43202 21.1265,-17.158525 0,-5.859 -4.96,-9.129475 -11.1135,-9.129475 -9.6255,0 -21.1265,8.137475 -21.1265,17.26698"
     id="path1331"
     style="stroke-width:0.992" />
  <path
     class="Note"
     d="m 1960.222,102.08288 c 0,4.2625 3.069,9.02102 11.1135,9.02102 10.3075,0 21.1265,-8.43202 21.1265,-17.158524 0,-5.859 -4.96,-9.129475 -11.1135,-9.129475 -9.6255,0 -21.1265,8.137475 -21.1265,17.266979"
     id="path1333"
     style="stroke-width:0.992" />
  <path
     class="Note"
     d="m 2698.2685,22.815901 c -9.6255,0 -21.1265,8.044475 -21.1265,17.26698 0,4.262495 3.069,9.02102 11.1135,9.02102 10.3075,0 21.1265,-8.43202 21.1265,-17.158525 0,-5.859 -4.96,-9.129475 -11.1135,-9.129475 m -13.6865,21.622475 c -3.2705,0 -3.968,-2.666 -3.968,-3.565 0,-4.867 16.6625,-13.392 21.328,-13.392 2.387,0 3.968,1.395 3.968,3.565 0,4.96 -16.771,13.392 -21.328,13.392"
     id="path1335"
     style="stroke-width:0.992" />
  <path
     class="Note"
     d="m 1320.182,102.08288 c 0,4.2625 3.069,9.02102 11.1135,9.02102 10.3075,0 21.1265,-8.43202 21.1265,-17.158524 0,-5.859 -4.96,-9.129475 -11.1135,-9.129475 -9.6255,0 -21.1265,8.137475 -21.1265,17.266979"
     id="path1337"
     style="stroke-width:0.992" />
  <path
     class="Note"
     d="m 3480.4385,84.815901 c -9.6255,0 -21.1265,8.044475 -21.1265,17.266979 0,4.2625 3.069,9.02102 11.1135,9.02102 10.3075,0 21.1265,-8.43202 21.1265,-17.158524 0,-5.859 -4.96,-9.129475 -11.1135,-9.129475 m -13.6865,21.622479 c -3.2705,0 -3.968,-2.666 -3.968,-3.565 0,-4.867004 16.6625,-13.392004 21.328,-13.392004 2.387,0 3.968,1.395 3.968,3.565 0,4.96 -16.771,13.392004 -21.328,13.392004"
     id="path1339"
     style="stroke-width:0.992" />
  <path
     class="Note"
     d="m 2141.892,89.682881 c 0,4.262495 3.069,9.02102 11.1135,9.02102 10.3075,0 21.1265,-8.43202 21.1265,-17.158525 0,-5.859 -4.96,-9.129475 -11.1135,-9.129475 -9.6255,0 -21.1265,8.137475 -21.1265,17.26698"
     id="path1341"
     style="stroke-width:0.992" />
  <path
     class="Note"
     d="m 1243.292,126.88288 c 0,4.2625 3.069,9.02102 11.1135,9.02102 10.3075,0 21.1265,-8.43202 21.1265,-17.15852 0,-5.859 -4.96,-9.12948 -11.1135,-9.12948 -9.6255,0 -21.1265,8.13748 -21.1265,17.26698"
     id="path1343"
     style="stroke-width:0.992" />
  <path
     class="Note"
     d="m 861.822,89.682881 c 0,4.262495 3.069,9.02102 11.11348,9.02102 10.30757,0 21.12652,-8.43202 21.12652,-17.158525 0,-5.859 -4.96,-9.129475 -11.11348,-9.129475 -9.62547,0 -21.12652,8.137475 -21.12652,17.26698"
     id="path1345"
     style="stroke-width:0.992" />
  <path
     class="Note"
     d="m 3154.732,89.682881 c 0,4.262495 3.069,9.02102 11.1135,9.02102 10.3075,0 21.1265,-8.43202 21.1265,-17.158525 0,-5.859 -4.96,-9.129475 -11.1135,-9.129475 -9.6255,0 -21.1265,8.137475 -21.1265,17.26698"
     id="path1347"
     style="stroke-width:0.992" />
  <path
     class="Note"
     d="m 2962.502,64.882881 c 0,4.262495 3.069,9.02102 11.1135,9.02102 10.3075,0 21.1265,-8.43202 21.1265,-17.158525 0,-5.859 -4.96,-9.129475 -11.1135,-9.129475 -9.6255,0 -21.1265,8.137475 -21.1265,17.26698"
     id="path1349"
     style="stroke-width:0.992" />
  <path
     class="Note"
     d="m 3039.402,77.282881 c 0,4.262495 3.069,9.02102 11.1135,9.02102 10.3075,0 21.1265,-8.43202 21.1265,-17.158525 0,-5.859 -4.96,-9.129475 -11.1135,-9.129475 -9.6255,0 -21.1265,8.137475 -21.1265,17.26698"
     id="path1351"
     style="stroke-width:0.992" />
  <path
     class="Note"
     d="m 2218.782,77.282881 c 0,4.262495 3.069,9.02102 11.1135,9.02102 10.3075,0 21.1265,-8.43202 21.1265,-17.158525 0,-5.859 -4.96,-9.129475 -11.1135,-9.129475 -9.6255,0 -21.1265,8.137475 -21.1265,17.26698"
     id="path1353"
     style="stroke-width:0.992" />
  <path
     class="Note"
     d="m 3231.622,77.282881 c 0,4.262495 3.069,9.02102 11.1135,9.02102 10.3075,0 21.1265,-8.43202 21.1265,-17.158525 0,-5.859 -4.96,-9.129475 -11.1135,-9.129475 -9.6255,0 -21.1265,8.137475 -21.1265,17.26698"
     id="path1355"
     style="stroke-width:0.992" />
  <path
     class="Note"
     d="m 2885.612,52.482881 c 0,4.262495 3.069,9.02102 11.1135,9.02102 10.3075,0 21.1265,-8.43202 21.1265,-17.158525 0,-5.859 -4.96,-9.129475 -11.1135,-9.129475 -9.6255,0 -21.1265,8.137475 -21.1265,17.26698"
     id="path1357"
     style="stroke-width:0.992" />
  <path
     class="Note"
     d="m 1127.952,126.88288 c 0,4.2625 3.069,9.02102 11.1135,9.02102 10.3075,0 21.1265,-8.43202 21.1265,-17.15852 0,-5.859 -4.96,-9.12948 -11.1135,-9.12948 -9.6255,0 -21.1265,8.13748 -21.1265,17.26698"
     id="path1359"
     style="stroke-width:0.992" />
  <path
     class="Note"
     d="m 2295.672,64.882881 c 0,4.262495 3.069,9.02102 11.1135,9.02102 10.3075,0 21.1265,-8.43202 21.1265,-17.158525 0,-5.859 -4.96,-9.129475 -11.1135,-9.129475 -9.6255,0 -21.1265,8.137475 -21.1265,17.26698"
     id="path1361"
     style="stroke-width:0.992" />
  <path
     class="Note"
     d="m 1127.952,164.08288 c 0,4.2625 3.069,9.02102 11.1135,9.02102 10.3075,0 21.1265,-8.43202 21.1265,-17.15852 0,-5.859 -4.96,-9.12948 -11.1135,-9.12948 -9.6255,0 -21.1265,8.13748 -21.1265,17.26698"
     id="path1363"
     style="stroke-width:0.992" />
  <path
     class="Clef"
     d="m 30.798525,161.1999 c 0,6.55653 4.96,15.19 18.352,15.19 4.665475,0 8.742,-1.19347 12.30695,-3.37905 C 66.820525,169.24443 68.2,162.6879 68.2,156.44138 c 0,-3.85948 -0.58895,-8.32348 -1.58095,-13.98095 -0.294525,-1.984 -0.89905,-4.96 -1.488,-8.83505 9.718425,-3.17748 16.95695,-13.29895 16.95695,-23.5135 0,-14.973029 -10.617475,-25.094504 -25.094525,-25.094504 -0.992,-5.952 -1.984,-11.81105 -2.774425,-17.36 10.416,-11.020525 17.654425,-23.420525 17.654425,-39.184 0,-9.036525 -2.774425,-16.368 -4.37095,-19.948128 C 65.13105,3.472 62.248,0 60.465475,0 59.768,0 56.69905,1.193376 53.428525,5.053248 c -6.35505,7.548128 -8.137475,20.242653 -8.137475,28.566128 0,5.36295 0.496,10.23 2.185475,21.343475 -0.108525,0.09305 -5.27,5.347475 -7.34705,7.03705 C 31.09305,70.338851 18.6,82.428851 18.6,102.28438 c 0,18.53805 16.166525,33.12352 34.62705,33.12352 2.867475,0 5.54895,-0.29452 7.827475,-0.69747 1.89095,9.53242 3.084525,16.47642 3.084525,21.73095 0,10.32305 -5.36305,15.77905 -15.376,15.77905 -2.38705,0 -4.464,-0.496 -4.665575,-0.496 -0.09295,-0.10853 -0.294425,-0.20158 -0.294425,-0.29453 0,-0.20147 0.201475,-0.31 0.496,-0.31 4.665475,-0.79052 9.315475,-4.75852 9.315475,-11.098 0,-5.36305 -4.06105,-11.02052 -11.50105,-11.02052 -6.944,0 -11.31495,5.65747 -11.31495,12.19852 M 51.537475,28.767901 c 0.89905,-3.968 5.456,-14.384 10.617575,-14.384 1.488,0 3.859475,4.758425 3.859475,11.702425 0,10.32305 -7.626,18.057575 -14.47705,24.8 -0.58895,-3.968 -1.08495,-7.827475 -1.08495,-11.99695 0,-3.673475 0.294525,-7.052525 1.08495,-10.121475 M 60.264,130.74243 c -1.984,0.40295 -3.859475,0.60442 -5.750525,0.60442 -14.182425,0 -26.28797,-9.92 -26.28797,-24.90847 0,-12.090054 8.52502,-22.909004 17.26702,-30.457529 1.674,-1.488 3.270525,-2.867475 4.758525,-4.355475 0.883475,5.347475 1.58095,10.01295 2.278425,14.089475 -9.036425,2.681475 -15.174425,12.198525 -15.174425,21.529529 0,6.944 5.456,16.461 13.392,16.461 0.790425,0 1.689475,-0.40295 1.689475,-1.28653 0,-0.89895 -0.992,-1.39495 -2.185475,-2.18547 -3.87505,-2.387 -6.060525,-4.96 -6.060525,-9.827 0,-6.045 4.572525,-10.912054 10.32295,-12.291529 L 60.264,130.74243 m 14.089475,-18.35205 c 0,7.0525 -2.88295,14.291 -9.92,17.17405 -2.07695,-11.90405 -4.758425,-27.68305 -5.456,-32.054104 8.928,0 15.376,6.060544 15.376,14.880054"
     id="path1365"
     style="stroke-width:0.992" />
  <path
     class="KeySig"
     d="m 123.78352,25.497376 c 0.60453,-0.09305 1.10053,-0.790525 1.10053,-1.39505 v -5.843475 c 0,-0.992 -0.69757,-1.39495 -1.59653,-1.39495 L 120.017,17.561376 V 2.7743264 h -2.77452 V 18.150326 l -8.83498,1.798 V 5.9519008 H 105.633 V 20.537376 l -3.875,0.790525 c -0.589,0.108425 -1.085,0.790425 -1.085,1.39495 v 5.750525 c 0,1.085 0.7905,1.395 1.6895,1.395 l 3.2705,-0.697505 v 16.36801 l -3.875,0.790495 c -0.589,0.09305 -1.085,0.790525 -1.085,1.39505 v 5.750425 c 0,1.08505 0.7905,1.379575 1.6895,1.379575 l 3.2705,-0.682 v 14.771475 h 2.7745 v -15.376 l 8.83498,-1.782525 V 65.781901 H 120.017 V 51.196426 l 3.76652,-0.697575 c 0.60453,-0.108425 1.10053,-0.790425 1.10053,-1.39495 v -5.843525 c 0,-0.992 -0.69757,-1.395 -1.59653,-1.395 l -3.27052,0.697505 v -16.36801 l 3.76652,-0.697495 m -15.37602,3.069 8.83498,-1.782505 v 16.36801 l -8.83498,1.891 V 28.566376"
     id="path1367"
     style="stroke-width:0.992" />
  <path
     class="KeySig"
     d="m 150.95452,62.697376 c 0.60453,-0.09305 1.10053,-0.790525 1.10053,-1.39505 v -5.843475 c 0,-0.992 -0.69757,-1.39495 -1.59653,-1.39495 l -3.27052,0.697475 v -14.78705 h -2.77452 v 15.376 l -8.83498,1.798 V 43.151901 h -2.7745 v 14.585475 l -3.875,0.790525 c -0.589,0.108425 -1.085,0.790425 -1.085,1.39495 v 5.750525 c 0,1.085 0.7905,1.395 1.6895,1.395 l 3.2705,-0.697505 v 16.36801 l -3.875,0.790495 c -0.589,0.09305 -1.085,0.790525 -1.085,1.39505 v 5.750425 c 0,1.08505 0.7905,1.379575 1.6895,1.379575 l 3.2705,-0.682 V 106.1439 h 2.7745 V 90.767901 l 8.83498,-1.782525 V 102.9819 H 147.188 V 88.396426 l 3.76652,-0.697575 c 0.60453,-0.108425 1.10053,-0.790425 1.10053,-1.39495 v -5.843525 c 0,-0.992 -0.69757,-1.395 -1.59653,-1.395 l -3.27052,0.697505 v -16.36801 l 3.76652,-0.697495 m -15.37602,3.069 8.83498,-1.782505 v 16.36801 l -8.83498,1.891 V 65.766376"
     id="path1369"
     style="stroke-width:0.992" />
  <path
     class="TimeSig"
     d="m 206.35148,59.628376 c 4.96,-1.891 8.432,-5.068505 8.432,-10.524475 0,-0.883575 -0.29443,-12.105575 -17.36,-12.105575 -17.06548,0 -16.56948,12.105575 -16.56948,12.105575 h 0.093 l -0.093,0.201475 c 0,3.565 2.883,6.355 6.448,6.355 3.56505,0 6.35505,-2.79 6.35505,-6.355 0,-2.88305 -2.18557,-5.657475 -4.96005,-6.246525 0.093,-0.108525 0.186,-0.201475 0.2945,-0.294525 1.37955,-0.992 3.2705,-1.488 5.16155,-1.488 4.154,0 8.618,2.48 8.618,7.827575 0,6.246475 -4.65,7.145475 -5.84357,7.34697 -1.19348,0.201505 -6.74243,0.589 -7.93598,0.589 -1.1935,0 -1.2865,1.395 -1.2865,1.395 v 1.984005 c 0,0 0.186,1.085 1.2865,1.1935 1.68955,0.093 3.96798,0.093 7.14555,0.589 4.35547,0.589 6.634,3.565 6.634,10.50905 0,6.649475 -4.464,8.432 -8.618,8.432 -2.79,0 -5.36305,-0.790525 -6.44805,-1.58105 3.27048,-0.201475 5.95205,-3.06895 5.95205,-6.35495 0,-3.56505 -2.79,-6.44805 -6.35505,-6.44805 -3.565,0 -6.448,2.883 -6.448,6.44805 0,8.137475 7.44,12.214 14.78705,12.214 9.51695,0 19.84,-3.286 19.84,-14.089575 0,-7.238475 -4.96,-10.322975 -9.33105,-11.702475 h 0.20148"
     id="path1371"
     style="stroke-width:0.992" />
  <path
     class="TimeSig"
     d="m 196.09052,122.91485 v 7.33158 H 187.86 c -0.69748,0 -1.39495,0.60442 -1.39495,1.39495 v 1.89105 c 0,0.79042 0.69747,1.37947 1.39495,1.37947 h 30.05452 c 0.806,0 1.39496,-0.58905 1.39496,-1.37947 v -1.89105 c 0,-0.79053 -0.58896,-1.39495 -1.39496,-1.39495 h -8.81947 v -7.33158 h 8.81947 c 0.806,0 1.39496,-0.69747 1.39496,-1.488 v -1.89097 c 0,-0.6975 -0.58896,-1.3795 -1.39496,-1.3795 h -8.81947 v -15.779 c 0,-0.589 -0.29453,-1.085 -0.79053,-1.28651 l -1.19347,-0.60449 c -0.20157,-0.093 -0.496,-0.18605 -0.69757,-0.18605 -0.29443,0.093 -0.69748,0.18605 -0.89896,0.38754 l -9.02104,8.23051 c -0.29443,0.31 -0.40296,0.6975 -0.40296,1.1005 v 8.1375 H 184.6825 c 0,0 11.02055,-11.904 22.72298,-27.590054 0.40304,-0.496 0.496,-0.992 0.496,-1.379475 0,-0.496 -0.20148,-0.89895 -0.29443,-0.992 l -2.18557,-2.185475 c -0.20148,-0.201475 -0.58896,-0.40305 -0.992,-0.40305 -0.58896,0 -13.99643,0 -14.67843,0 -0.806,0 -1.302,0.604525 -1.39505,1.193575 0,0 -0.496,7.34695 -3.069,15.375969 -2.5885,8.04451 -5.5645,13.00451 -8.1375,16.66251 0,0 -0.2945,0.496 -0.2945,1.1005 0,0.2015 0,0.38755 0.093,0.58902 0.403,0.69748 0.992,1.78253 0.992,1.78253 0,0 0.2015,0.60442 1.085,0.60442 h 17.06552"
     id="path1373"
     style="stroke-width:0.992" />
  <path
     class="Beam"
     fill-rule="evenodd"
     d="m 1273.032,35.838376 79.37,-12.4 v 12.551 l -79.37,12.4 v -12.551"
     id="path1375" />
  <path
     class="Beam"
     fill-rule="evenodd"
     d="m 2885.612,122.69538 79.37,6.2 v 12.437 l -79.37,-6.2 v -12.437"
     id="path1377" />
  <path
     class="Beam"
     fill-rule="evenodd"
     d="m 441.899,147.49538 79.371,-6.2 v 12.437 l -79.371,6.2 v -12.437"
     id="path1379" />
  <path
     class="Beam"
     fill-rule="evenodd"
     d="m 2141.892,147.49538 79.37,-6.2 v 12.437 l -79.37,6.2 v -12.437"
     id="path1381" />
  <path
     class="Beam"
     fill-rule="evenodd"
     d="m 3154.732,147.49538 79.37,-6.2 v 12.437 l -79.37,6.2 v -12.437"
     id="path1383" />
  <path
     class="NoteDot"
     d="m 1858.632,97.913376 c 0,2.774504 2.1855,4.960004 4.96,4.960004 2.7745,0 4.96,-2.1855 4.96,-4.960004 0,-2.774505 -2.1855,-4.96 -4.96,-4.96 -2.7745,0 -4.96,2.185495 -4.96,4.96"
     id="path1385"
     style="stroke-width:0.992" />
  <path
     class="NoteDot"
     d="m 2004.842,97.913376 c 0,2.774504 2.1855,4.960004 4.96,4.960004 2.7745,0 4.96,-2.1855 4.96,-4.960004 0,-2.774505 -2.1855,-4.96 -4.96,-4.96 -2.7745,0 -4.96,2.185495 -4.96,4.96"
     id="path1387"
     style="stroke-width:0.992" />
</svg>
