<?xml version="1.0" encoding="UTF-8" standalone="no"?>
<svg
   xmlns:dc="http://purl.org/dc/elements/1.1/"
   xmlns:cc="http://creativecommons.org/ns#"
   xmlns:rdf="http://www.w3.org/1999/02/22-rdf-syntax-ns#"
   xmlns:svg="http://www.w3.org/2000/svg"
   xmlns="http://www.w3.org/2000/svg"
   xmlns:sodipodi="http://sodipodi.sourceforge.net/DTD/sodipodi-0.dtd"
   xmlns:inkscape="http://www.inkscape.org/namespaces/inkscape"
   width="295.79709mm"
   height="17.3978mm"
   viewBox="0 0 4192.3998 246.583"
   version="1.2"
   id="svg3194"
   sodipodi:docname="Dossium Canto Vingerwijzing Musica.svg"
   inkscape:version="1.0.2-2 (e86c870879, 2021-01-15)">
  <metadata
     id="metadata3200">
    <rdf:RDF>
      <cc:Work
         rdf:about="">
        <dc:format>image/svg+xml</dc:format>
        <dc:type
           rdf:resource="http://purl.org/dc/dcmitype/StillImage" />
      </cc:Work>
    </rdf:RDF>
  </metadata>
  <defs
     id="defs3198" />
  <sodipodi:namedview
     pagecolor="#ffffff"
     bordercolor="#666666"
     borderopacity="1"
     objecttolerance="10"
     gridtolerance="10"
     guidetolerance="10"
     inkscape:pageopacity="0"
     inkscape:pageshadow="2"
     inkscape:window-width="1920"
     inkscape:window-height="991"
     id="namedview3196"
     showgrid="false"
     inkscape:zoom="1.0328497"
     inkscape:cx="542.45332"
     inkscape:cy="249.9976"
     inkscape:window-x="-9"
     inkscape:window-y="-9"
     inkscape:window-maximized="1"
     inkscape:current-layer="svg3194" />
  <title
     id="title2892">Dossium Canto Vingerwijzing Musica</title>
  <desc
     id="desc2894">Generated by MuseScore Studio 4.5.2</desc>
  <polyline
     class="StaffLines"
     fill="none"
     stroke="#000000"
     stroke-width="2.73"
     stroke-linejoin="bevel"
     points="124,634.198 4316.4,634.198"
     id="polyline2896"
     transform="translate(-124,-551.109)" />
  <polyline
     class="StaffLines"
     fill="none"
     stroke="#000000"
     stroke-width="2.73"
     stroke-linejoin="bevel"
     points="124,658.998 4316.4,658.998"
     id="polyline2898"
     transform="translate(-124,-551.109)" />
  <polyline
     class="StaffLines"
     fill="none"
     stroke="#000000"
     stroke-width="2.73"
     stroke-linejoin="bevel"
     points="124,683.798 4316.4,683.798"
     id="polyline2900"
     transform="translate(-124,-551.109)" />
  <polyline
     class="StaffLines"
     fill="none"
     stroke="#000000"
     stroke-width="2.73"
     stroke-linejoin="bevel"
     points="124,708.598 4316.4,708.598"
     id="polyline2902"
     transform="translate(-124,-551.109)" />
  <polyline
     class="StaffLines"
     fill="none"
     stroke="#000000"
     stroke-width="2.73"
     stroke-linejoin="bevel"
     points="124,733.398 4316.4,733.398"
     id="polyline2904"
     transform="translate(-124,-551.109)" />
  <polyline
     class="BarLine"
     fill="none"
     stroke="#000000"
     stroke-width="4.46"
     stroke-linejoin="bevel"
     points="2124.62,632.834 2124.62,734.762"
     id="polyline2914"
     transform="translate(-124,-551.109)" />
  <path
     class="BarLine"
     d="m 3070.093,120.289 c 0,-2.883 -2.294,-5.2545 -5.1615,-5.2545 -2.883,0 -5.1615,2.3715 -5.1615,5.2545 0,2.883 2.2785,5.2545 5.1615,5.2545 2.8675,0 5.1615,-2.3715 5.1615,-5.2545"
     id="path2916"
     style="stroke-width:0.992" />
  <path
     class="BarLine"
     d="m 3070.093,145.089 c 0,-2.883 -2.294,-5.2545 -5.1615,-5.2545 -2.883,0 -5.1615,2.3715 -5.1615,5.2545 0,2.883 2.2785,5.2545 5.1615,5.2545 2.8675,0 5.1615,-2.3715 5.1615,-5.2545"
     id="path2918"
     style="stroke-width:0.992" />
  <polyline
     class="BarLine"
     fill="none"
     stroke="#000000"
     stroke-width="4.46"
     stroke-linejoin="bevel"
     points="3205.49,632.834 3205.49,734.762"
     id="polyline2920"
     transform="translate(-124,-551.109)" />
  <polyline
     class="BarLine"
     fill="none"
     stroke="#000000"
     stroke-width="13.64"
     stroke-linejoin="bevel"
     points="3223.71,632.834 3223.71,734.762"
     id="polyline2922"
     transform="translate(-124,-551.109)" />
  <polyline
     class="BarLine"
     fill="none"
     stroke="#000000"
     stroke-width="4.46"
     stroke-linejoin="bevel"
     points="3876.51,632.834 3876.51,734.762"
     id="polyline2924"
     transform="translate(-124,-551.109)" />
  <path
     class="BarLine"
     d="m 1078.943,120.289 c 0,-2.883 -2.294,-5.2545 -5.1615,-5.2545 -2.883,0 -5.1615,2.3715 -5.1615,5.2545 0,2.883 2.2785,5.2545 5.1615,5.2545 2.8675,0 5.1615,-2.3715 5.1615,-5.2545"
     id="path2926"
     style="stroke-width:0.992" />
  <path
     class="BarLine"
     d="m 1078.943,145.089 c 0,-2.883 -2.294,-5.2545 -5.1615,-5.2545 -2.883,0 -5.1615,2.3715 -5.1615,5.2545 0,2.883 2.2785,5.2545 5.1615,5.2545 2.8675,0 5.1615,-2.3715 5.1615,-5.2545"
     id="path2928"
     style="stroke-width:0.992" />
  <polyline
     class="BarLine"
     fill="none"
     stroke="#000000"
     stroke-width="4.46"
     stroke-linejoin="bevel"
     points="1214.34,632.834 1214.34,734.762"
     id="polyline2930"
     transform="translate(-124,-551.109)" />
  <polyline
     class="BarLine"
     fill="none"
     stroke="#000000"
     stroke-width="13.64"
     stroke-linejoin="bevel"
     points="1232.56,632.834 1232.56,734.762"
     id="polyline2932"
     transform="translate(-124,-551.109)" />
  <polyline
     class="BarLine"
     fill="none"
     stroke="#000000"
     stroke-width="4.46"
     stroke-linejoin="bevel"
     points="1885.36,632.834 1885.36,734.762"
     id="polyline2934"
     transform="translate(-124,-551.109)" />
  <polyline
     class="BarLine"
     fill="none"
     stroke="#000000"
     stroke-width="13.64"
     stroke-linejoin="bevel"
     points="2332.07,632.834 2332.07,734.762"
     id="polyline2936"
     transform="translate(-124,-551.109)" />
  <polyline
     class="BarLine"
     fill="none"
     stroke="#000000"
     stroke-width="4.46"
     stroke-linejoin="bevel"
     points="2350.3,632.834 2350.3,734.762"
     id="polyline2938"
     transform="translate(-124,-551.109)" />
  <path
     class="BarLine"
     d="m 2248.033,120.289 c 0,-2.883 -2.294,-5.2545 -5.1615,-5.2545 -2.883,0 -5.1615,2.3715 -5.1615,5.2545 0,2.883 2.2785,5.2545 5.1615,5.2545 2.8675,0 5.1615,-2.3715 5.1615,-5.2545"
     id="path2940"
     style="stroke-width:0.992" />
  <path
     class="BarLine"
     d="m 2248.033,145.089 c 0,-2.883 -2.294,-5.2545 -5.1615,-5.2545 -2.883,0 -5.1615,2.3715 -5.1615,5.2545 0,2.883 2.2785,5.2545 5.1615,5.2545 2.8675,0 5.1615,-2.3715 5.1615,-5.2545"
     id="path2942"
     style="stroke-width:0.992" />
  <polyline
     class="BarLine"
     fill="none"
     stroke="#000000"
     stroke-width="4.46"
     stroke-linejoin="bevel"
     points="4291.35,632.834 4291.35,734.762"
     id="polyline2944"
     transform="translate(-124,-551.109)" />
  <polyline
     class="BarLine"
     fill="none"
     stroke="#000000"
     stroke-width="13.64"
     stroke-linejoin="bevel"
     points="4309.58,632.834 4309.58,734.762"
     id="polyline2946"
     transform="translate(-124,-551.109)" />
  <polyline
     class="BarLine"
     fill="none"
     stroke="#000000"
     stroke-width="4.46"
     stroke-linejoin="bevel"
     points="3637.25,632.834 3637.25,734.762"
     id="polyline2948"
     transform="translate(-124,-551.109)" />
  <path
     class="BarLine"
     d="m 1284.463,120.289 c 0,-2.883 -2.294,-5.2545 -5.1615,-5.2545 -2.883,0 -5.1615,2.3715 -5.1615,5.2545 0,2.883 2.2785,5.2545 5.1615,5.2545 2.8675,0 5.1615,-2.3715 5.1615,-5.2545"
     id="path2950"
     style="stroke-width:0.992" />
  <path
     class="BarLine"
     d="m 1284.463,145.089 c 0,-2.883 -2.294,-5.2545 -5.1615,-5.2545 -2.883,0 -5.1615,2.3715 -5.1615,5.2545 0,2.883 2.2785,5.2545 5.1615,5.2545 2.8675,0 5.1615,-2.3715 5.1615,-5.2545"
     id="path2952"
     style="stroke-width:0.992" />
  <polyline
     class="BarLine"
     fill="none"
     stroke="#000000"
     stroke-width="4.46"
     stroke-linejoin="bevel"
     points="1419.85,632.834 1419.85,734.762"
     id="polyline2954"
     transform="translate(-124,-551.109)" />
  <polyline
     class="BarLine"
     fill="none"
     stroke="#000000"
     stroke-width="13.64"
     stroke-linejoin="bevel"
     points="1438.08,632.834 1438.08,734.762"
     id="polyline2956"
     transform="translate(-124,-551.109)" />
  <polyline
     class="BarLine"
     fill="none"
     stroke="#000000"
     stroke-width="4.46"
     stroke-linejoin="bevel"
     points="991.424,632.834 991.424,734.762"
     id="polyline2958"
     transform="translate(-124,-551.109)" />
  <polyline
     class="BarLine"
     fill="none"
     stroke="#000000"
     stroke-width="4.46"
     stroke-linejoin="bevel"
     points="2982.57,632.834 2982.57,734.762"
     id="polyline2960"
     transform="translate(-124,-551.109)" />
  <polyline
     class="BarLine"
     fill="none"
     stroke="#000000"
     stroke-width="4.46"
     stroke-linejoin="bevel"
     points="4115.77,632.834 4115.77,734.762"
     id="polyline2962"
     transform="translate(-124,-551.109)" />
  <polyline
     class="BarLine"
     fill="none"
     stroke="#000000"
     stroke-width="4.46"
     stroke-linejoin="bevel"
     points="2653.83,632.834 2653.83,734.762"
     id="polyline2964"
     transform="translate(-124,-551.109)" />
  <path
     class="BarLine"
     d="m 3275.613,120.289 c 0,-2.883 -2.294,-5.2545 -5.1615,-5.2545 -2.883,0 -5.1615,2.3715 -5.1615,5.2545 0,2.883 2.2785,5.2545 5.1615,5.2545 2.8675,0 5.1615,-2.3715 5.1615,-5.2545"
     id="path2966"
     style="stroke-width:0.992" />
  <path
     class="BarLine"
     d="m 3275.613,145.089 c 0,-2.883 -2.294,-5.2545 -5.1615,-5.2545 -2.883,0 -5.1615,2.3715 -5.1615,5.2545 0,2.883 2.2785,5.2545 5.1615,5.2545 2.8675,0 5.1615,-2.3715 5.1615,-5.2545"
     id="path2968"
     style="stroke-width:0.992" />
  <polyline
     class="BarLine"
     fill="none"
     stroke="#000000"
     stroke-width="4.46"
     stroke-linejoin="bevel"
     points="3411,632.834 3411,734.762"
     id="polyline2970"
     transform="translate(-124,-551.109)" />
  <polyline
     class="BarLine"
     fill="none"
     stroke="#000000"
     stroke-width="13.64"
     stroke-linejoin="bevel"
     points="3429.23,632.834 3429.23,734.762"
     id="polyline2972"
     transform="translate(-124,-551.109)" />
  <polyline
     class="BarLine"
     fill="none"
     stroke="#000000"
     stroke-width="4.46"
     stroke-linejoin="bevel"
     points="662.685,632.834 662.685,734.762"
     id="polyline2974"
     transform="translate(-124,-551.109)" />
  <polyline
     class="BarLine"
     fill="none"
     stroke="#000000"
     stroke-width="4.46"
     stroke-linejoin="bevel"
     points="1646.1,632.834 1646.1,734.762"
     id="polyline2976"
     transform="translate(-124,-551.109)" />
  <polyline
     class="Stem"
     fill="none"
     stroke="#000000"
     stroke-width="2.48"
     stroke-linejoin="bevel"
     points="2897.11,692.23 2897.11,618.698"
     id="polyline2978"
     transform="translate(-124,-551.109)" />
  <polyline
     class="Stem"
     fill="none"
     stroke="#000000"
     stroke-width="2.48"
     stroke-linejoin="bevel"
     points="2941.9,704.63 2941.9,621.715"
     id="polyline2980"
     transform="translate(-124,-551.109)" />
  <polyline
     class="Stem"
     fill="none"
     stroke="#000000"
     stroke-width="2.48"
     stroke-linejoin="bevel"
     points="3046.79,717.03 3046.79,634.198"
     id="polyline2982"
     transform="translate(-124,-551.109)" />
  <polyline
     class="Stem"
     fill="none"
     stroke="#000000"
     stroke-width="2.48"
     stroke-linejoin="bevel"
     points="3113.98,729.43 3113.98,646.598"
     id="polyline2984"
     transform="translate(-124,-551.109)" />
  <polyline
     class="Stem"
     fill="none"
     stroke="#000000"
     stroke-width="2.48"
     stroke-linejoin="bevel"
     points="413.106,650.765 413.106,733.398"
     id="polyline2986"
     transform="translate(-124,-551.109)" />
  <polyline
     class="Stem"
     fill="none"
     stroke="#000000"
     stroke-width="2.48"
     stroke-linejoin="bevel"
     points="3262.77,687.965 3262.77,758.198"
     id="polyline2988"
     transform="translate(-124,-551.109)" />
  <polyline
     class="Stem"
     fill="none"
     stroke="#000000"
     stroke-width="2.48"
     stroke-linejoin="bevel"
     points="480.292,687.965 480.292,758.198"
     id="polyline2990"
     transform="translate(-124,-551.109)" />
  <polyline
     class="Stem"
     fill="none"
     stroke="#000000"
     stroke-width="2.48"
     stroke-linejoin="bevel"
     points="3498.04,717.03 3498.04,634.198"
     id="polyline2992"
     transform="translate(-124,-551.109)" />
  <polyline
     class="Stem"
     fill="none"
     stroke="#000000"
     stroke-width="2.48"
     stroke-linejoin="bevel"
     points="547.478,675.565 547.478,739.598"
     id="polyline2994"
     transform="translate(-124,-551.109)" />
  <polyline
     class="Stem"
     fill="none"
     stroke="#000000"
     stroke-width="2.48"
     stroke-linejoin="bevel"
     points="3565.22,729.43 3565.22,646.598"
     id="polyline2996"
     transform="translate(-124,-551.109)" />
  <polyline
     class="Stem"
     fill="none"
     stroke="#000000"
     stroke-width="2.48"
     stroke-linejoin="bevel"
     points="3701.46,717.03 3701.46,634.198"
     id="polyline2998"
     transform="translate(-124,-551.109)" />
  <polyline
     class="Stem"
     fill="none"
     stroke="#000000"
     stroke-width="2.48"
     stroke-linejoin="bevel"
     points="592.268,675.565 592.268,739.598"
     id="polyline3000"
     transform="translate(-124,-551.109)" />
  <polyline
     class="Stem"
     fill="none"
     stroke="#000000"
     stroke-width="2.48"
     stroke-linejoin="bevel"
     points="3768.65,704.63 3768.65,621.798"
     id="polyline3002"
     transform="translate(-124,-551.109)" />
  <polyline
     class="Stem"
     fill="none"
     stroke="#000000"
     stroke-width="2.48"
     stroke-linejoin="bevel"
     points="726.901,704.63 726.901,621.798"
     id="polyline3004"
     transform="translate(-124,-551.109)" />
  <polyline
     class="Stem"
     fill="none"
     stroke="#000000"
     stroke-width="2.48"
     stroke-linejoin="bevel"
     points="3835.84,692.23 3835.84,615.598"
     id="polyline3006"
     transform="translate(-124,-551.109)" />
  <polyline
     class="Stem"
     fill="none"
     stroke="#000000"
     stroke-width="2.48"
     stroke-linejoin="bevel"
     points="3910.98,687.965 3910.98,758.198"
     id="polyline3008"
     transform="translate(-124,-551.109)" />
  <polyline
     class="Stem"
     fill="none"
     stroke="#000000"
     stroke-width="2.48"
     stroke-linejoin="bevel"
     points="794.087,692.23 794.087,615.797"
     id="polyline3010"
     transform="translate(-124,-551.109)" />
  <polyline
     class="Stem"
     fill="none"
     stroke="#000000"
     stroke-width="2.48"
     stroke-linejoin="bevel"
     points="3978.17,675.565 3978.17,751.998"
     id="polyline3012"
     transform="translate(-124,-551.109)" />
  <polyline
     class="Stem"
     fill="none"
     stroke="#000000"
     stroke-width="2.48"
     stroke-linejoin="bevel"
     points="861.171,679.83 861.171,615.682"
     id="polyline3014"
     transform="translate(-124,-551.109)" />
  <polyline
     class="Stem"
     fill="none"
     stroke="#000000"
     stroke-width="2.48"
     stroke-linejoin="bevel"
     points="4075.1,741.83 4075.1,658.998"
     id="polyline3016"
     transform="translate(-124,-551.109)" />
  <polyline
     class="Stem"
     fill="none"
     stroke="#000000"
     stroke-width="2.48"
     stroke-linejoin="bevel"
     points="4179.98,729.43 4179.98,646.598"
     id="polyline3018"
     transform="translate(-124,-551.109)" />
  <polyline
     class="Stem"
     fill="none"
     stroke="#000000"
     stroke-width="2.48"
     stroke-linejoin="bevel"
     points="905.962,692.23 905.962,618.698"
     id="polyline3020"
     transform="translate(-124,-551.109)" />
  <polyline
     class="Stem"
     fill="none"
     stroke="#000000"
     stroke-width="2.48"
     stroke-linejoin="bevel"
     points="950.752,704.63 950.752,621.715"
     id="polyline3022"
     transform="translate(-124,-551.109)" />
  <polyline
     class="Stem"
     fill="none"
     stroke="#000000"
     stroke-width="2.48"
     stroke-linejoin="bevel"
     points="1055.64,717.03 1055.64,634.198"
     id="polyline3024"
     transform="translate(-124,-551.109)" />
  <polyline
     class="Stem"
     fill="none"
     stroke="#000000"
     stroke-width="2.48"
     stroke-linejoin="bevel"
     points="1122.83,729.43 1122.83,646.598"
     id="polyline3026"
     transform="translate(-124,-551.109)" />
  <polyline
     class="Stem"
     fill="none"
     stroke="#000000"
     stroke-width="2.48"
     stroke-linejoin="bevel"
     points="1271.62,687.965 1271.62,758.198"
     id="polyline3028"
     transform="translate(-124,-551.109)" />
  <polyline
     class="Stem"
     fill="none"
     stroke="#000000"
     stroke-width="2.48"
     stroke-linejoin="bevel"
     points="1506.89,717.03 1506.89,634.198"
     id="polyline3030"
     transform="translate(-124,-551.109)" />
  <polyline
     class="Stem"
     fill="none"
     stroke="#000000"
     stroke-width="2.48"
     stroke-linejoin="bevel"
     points="1574.07,729.43 1574.07,646.598"
     id="polyline3032"
     transform="translate(-124,-551.109)" />
  <polyline
     class="Stem"
     fill="none"
     stroke="#000000"
     stroke-width="2.48"
     stroke-linejoin="bevel"
     points="1710.32,717.03 1710.32,634.198"
     id="polyline3034"
     transform="translate(-124,-551.109)" />
  <polyline
     class="Stem"
     fill="none"
     stroke="#000000"
     stroke-width="2.48"
     stroke-linejoin="bevel"
     points="1844.69,692.23 1844.69,615.598"
     id="polyline3036"
     transform="translate(-124,-551.109)" />
  <polyline
     class="Stem"
     fill="none"
     stroke="#000000"
     stroke-width="2.48"
     stroke-linejoin="bevel"
     points="1919.83,687.965 1919.83,758.198"
     id="polyline3038"
     transform="translate(-124,-551.109)" />
  <polyline
     class="Stem"
     fill="none"
     stroke="#000000"
     stroke-width="2.48"
     stroke-linejoin="bevel"
     points="1987.02,675.565 1987.02,751.998"
     id="polyline3040"
     transform="translate(-124,-551.109)" />
  <polyline
     class="Stem"
     fill="none"
     stroke="#000000"
     stroke-width="2.48"
     stroke-linejoin="bevel"
     points="2054.2,663.165 2054.2,745.798"
     id="polyline3042"
     transform="translate(-124,-551.109)" />
  <polyline
     class="Stem"
     fill="none"
     stroke="#000000"
     stroke-width="2.48"
     stroke-linejoin="bevel"
     points="2159.09,650.765 2159.09,733.398"
     id="polyline3044"
     transform="translate(-124,-551.109)" />
  <polyline
     class="Stem"
     fill="none"
     stroke="#000000"
     stroke-width="2.48"
     stroke-linejoin="bevel"
     points="1777.5,704.63 1777.5,621.798"
     id="polyline3046"
     transform="translate(-124,-551.109)" />
  <polyline
     class="Stem"
     fill="none"
     stroke="#000000"
     stroke-width="2.48"
     stroke-linejoin="bevel"
     points="2404.25,650.765 2404.25,733.398"
     id="polyline3048"
     transform="translate(-124,-551.109)" />
  <polyline
     class="Stem"
     fill="none"
     stroke="#000000"
     stroke-width="2.48"
     stroke-linejoin="bevel"
     points="2471.44,687.965 2471.44,758.198"
     id="polyline3050"
     transform="translate(-124,-551.109)" />
  <polyline
     class="Stem"
     fill="none"
     stroke="#000000"
     stroke-width="2.48"
     stroke-linejoin="bevel"
     points="2538.63,675.565 2538.63,739.598"
     id="polyline3052"
     transform="translate(-124,-551.109)" />
  <polyline
     class="Stem"
     fill="none"
     stroke="#000000"
     stroke-width="2.48"
     stroke-linejoin="bevel"
     points="2583.42,675.565 2583.42,739.598"
     id="polyline3054"
     transform="translate(-124,-551.109)" />
  <polyline
     class="Stem"
     fill="none"
     stroke="#000000"
     stroke-width="2.48"
     stroke-linejoin="bevel"
     points="2718.05,704.63 2718.05,621.798"
     id="polyline3056"
     transform="translate(-124,-551.109)" />
  <polyline
     class="Stem"
     fill="none"
     stroke="#000000"
     stroke-width="2.48"
     stroke-linejoin="bevel"
     points="2785.24,692.23 2785.24,615.797"
     id="polyline3058"
     transform="translate(-124,-551.109)" />
  <polyline
     class="Stem"
     fill="none"
     stroke="#000000"
     stroke-width="2.48"
     stroke-linejoin="bevel"
     points="2852.32,679.83 2852.32,615.682"
     id="polyline3060"
     transform="translate(-124,-551.109)" />
  <path
     class="Hook"
     d="m 668.847,87.010475 c 0,0.294525 0.093,0.790525 0.7905,1.08505 4.2625,1.39495 12.80298,6.758 19.25098,17.762955 1.78252,3.06904 4.66557,7.34704 4.66557,15.57757 0,7.14547 -1.89105,14.47695 -4.464,21.62243 -0.20157,0.60452 -0.40305,1.10052 -0.31,1.488 0,0.40304 0.10843,0.69757 0.496,0.89904 0.20147,0.093 0.40295,0.093 0.496,0.093 0.69747,0 1.19347,-0.38748 1.59643,-1.08496 4.66557,-8.246 6.24652,-18.75504 6.15357,-25.00147 0,-0.496 0,-0.79053 0,-1.19357 -0.496,-12.80296 -7.84305,-22.226955 -7.84305,-22.226955 0.29452,0 -9.12948,-12.198525 -11.811,-16.368 C 674.21,74.006 672.5205,68.364 672.319,67.961 c -0.093,-0.294495 -0.992,-3.875 -0.992,-3.875 -0.093,-0.3875 -0.589,-0.790505 -1.1935,-0.790505 -0.6975,0 -1.2865,0.604505 -1.2865,1.286505 v 22.428475"
     id="path3062"
     style="stroke-width:0.992" />
  <path
     class="Hook"
     d="m 2660,87.010475 c 0,0.294525 0.093,0.790525 0.7905,1.08505 4.2625,1.39495 12.803,6.758 19.251,17.762955 1.7825,3.06904 4.6655,7.34704 4.6655,15.57757 0,7.14547 -1.891,14.47695 -4.464,21.62243 -0.2015,0.60452 -0.403,1.10052 -0.31,1.488 0,0.40304 0.1085,0.69757 0.496,0.89904 0.2015,0.093 0.403,0.093 0.496,0.093 0.6975,0 1.1935,-0.38748 1.5965,-1.08496 4.6655,-8.246 6.2465,-18.75504 6.1535,-25.00147 0,-0.496 0,-0.79053 0,-1.19357 -0.496,-12.80296 -7.843,-22.226955 -7.843,-22.226955 0.2945,0 -9.1295,-12.198525 -11.811,-16.368 C 2665.363,74.006 2663.6735,68.364 2663.472,67.961 c -0.093,-0.294495 -0.992,-3.875 -0.992,-3.875 -0.093,-0.3875 -0.589,-0.790505 -1.1935,-0.790505 C 2660.589,63.295495 2660,63.9 2660,64.582 v 22.428475"
     id="path3064"
     style="stroke-width:0.992" />
  <path
     class="Note"
     d="m 2742.13,149.2585 c 0,4.2625 3.069,9.02102 11.1135,9.02102 10.3075,0 21.1265,-8.43202 21.1265,-17.15852 0,-5.859 -4.96,-9.12948 -11.1135,-9.12948 -9.6255,0 -21.1265,8.13748 -21.1265,17.26698"
     id="path3066"
     style="stroke-width:0.992" />
  <path
     class="Note"
     d="m 2697.34,136.8585 c 0,4.2625 3.069,9.02102 11.1135,9.02102 10.3075,0 21.1265,-8.43202 21.1265,-17.15852 0,-5.859 -4.96,-9.12948 -11.1135,-9.12948 -9.6255,0 -21.1265,8.13748 -21.1265,17.26698"
     id="path3068"
     style="stroke-width:0.992" />
  <path
     class="Note"
     d="m 3852.93,124.4585 c 0,4.2625 3.069,9.02102 11.1135,9.02102 10.3075,0 21.1265,-8.43202 21.1265,-17.15852 0,-5.859 -4.96,-9.12948 -11.1135,-9.12948 -9.6255,0 -21.1265,8.13748 -21.1265,17.26698"
     id="path3070"
     style="stroke-width:0.992" />
  <path
     class="Note"
     d="m 3920.11,198.8585 c 0,4.2625 3.069,9.02102 11.1135,9.02102 10.3075,0 21.1265,-8.43202 21.1265,-17.15852 0,-5.859 -4.96,-9.12948 -11.1135,-9.12948 -9.6255,0 -21.1265,8.13748 -21.1265,17.26698"
     id="path3072"
     style="stroke-width:0.992" />
  <path
     class="Note"
     d="m 287.866,99.658505 c 0,4.262495 3.069,9.021015 11.11348,9.021015 10.30757,0 21.12652,-8.43202 21.12652,-17.15852 0,-5.859 -4.96,-9.129475 -11.11348,-9.129475 -9.62547,0 -21.12652,8.137475 -21.12652,17.26698"
     id="path3074"
     style="stroke-width:0.992" />
  <path
     class="Note"
     d="m 355.052,136.8585 c 0,4.2625 3.069,9.02102 11.11348,9.02102 10.30757,0 21.12652,-8.43202 21.12652,-17.15852 0,-5.859 -4.96,-9.12948 -11.11348,-9.12948 -9.62547,0 -21.12652,8.13748 -21.12652,17.26698"
     id="path3076"
     style="stroke-width:0.992" />
  <path
     class="Note"
     d="m 422.238,124.4585 c 0,4.2625 3.069,9.02102 11.11348,9.02102 10.30757,0 21.12652,-8.43202 21.12652,-17.15852 0,-5.859 -4.96,-9.12948 -11.11348,-9.12948 -9.62547,0 -21.12652,8.13748 -21.12652,17.26698"
     id="path3078"
     style="stroke-width:0.992" />
  <path
     class="Note"
     d="m 2346.2,136.8585 c 0,4.2625 3.069,9.02102 11.1135,9.02102 10.3075,0 21.1265,-8.43202 21.1265,-17.15852 0,-5.859 -4.96,-9.12948 -11.1135,-9.12948 -9.6255,0 -21.1265,8.13748 -21.1265,17.26698"
     id="path3080"
     style="stroke-width:0.992" />
  <path
     class="Note"
     d="m 467.028,124.4585 c 0,4.2625 3.069,9.02102 11.11348,9.02102 10.30757,0 21.12652,-8.43202 21.12652,-17.15852 0,-5.859 -4.96,-9.12948 -11.11348,-9.12948 -9.62547,0 -21.12652,8.13748 -21.12652,17.26698"
     id="path3082"
     style="stroke-width:0.992" />
  <path
     class="Note"
     d="m 571.917,161.6585 c 0,4.2625 3.069,9.02102 11.11348,9.02102 10.30757,0 21.12652,-8.43202 21.12652,-17.15852 0,-5.859 -4.96,-9.12948 -11.11348,-9.12948 -9.62547,0 -21.12652,8.13748 -21.12652,17.26698"
     id="path3084"
     style="stroke-width:0.992" />
  <path
     class="Note"
     d="m 639.103,149.2585 c 0,4.2625 3.069,9.02102 11.11348,9.02102 10.30757,0 21.12652,-8.43202 21.12652,-17.15852 0,-5.859 -4.96,-9.12948 -11.11348,-9.12948 -9.62547,0 -21.12652,8.13748 -21.12652,17.26698"
     id="path3086"
     style="stroke-width:0.992" />
  <path
     class="Note"
     d="m 706.187,136.8585 c 0,4.2625 3.069,9.02102 11.11348,9.02102 10.30757,0 21.12652,-8.43202 21.12652,-17.15852 0,-5.859 -4.96,-9.12948 -11.11348,-9.12948 -9.62547,0 -21.12652,8.13748 -21.12652,17.26698"
     id="path3088"
     style="stroke-width:0.992" />
  <path
     class="Note"
     d="m 900.66,174.0585 c 0,4.2625 3.069,9.02102 11.11348,9.02102 10.30757,0 21.12652,-8.43202 21.12652,-17.15852 0,-5.859 -4.96,-9.12948 -11.11348,-9.12948 -9.62547,0 -21.12652,8.13748 -21.12652,17.26698"
     id="path3090"
     style="stroke-width:0.992" />
  <path
     class="Note"
     d="m 795.768,161.6585 c 0,4.2625 3.069,9.02102 11.11348,9.02102 10.30757,0 21.12652,-8.43202 21.12652,-17.15852 0,-5.859 -4.96,-9.12948 -11.11348,-9.12948 -9.62547,0 -21.12652,8.13748 -21.12652,17.26698"
     id="path3092"
     style="stroke-width:0.992" />
  <path
     class="Note"
     d="m 750.977,149.2585 c 0,4.2625 3.069,9.02102 11.11348,9.02102 10.30757,0 21.12652,-8.43202 21.12652,-17.15852 0,-5.859 -4.96,-9.12948 -11.11348,-9.12948 -9.62547,0 -21.12652,8.13748 -21.12652,17.26698"
     id="path3094"
     style="stroke-width:0.992" />
  <path
     class="Note"
     d="m 2786.92,161.6585 c 0,4.2625 3.069,9.02102 11.1135,9.02102 10.3075,0 21.1265,-8.43202 21.1265,-17.15852 0,-5.859 -4.96,-9.12948 -11.1135,-9.12948 -9.6255,0 -21.1265,8.13748 -21.1265,17.26698"
     id="path3096"
     style="stroke-width:0.992" />
  <path
     class="Note"
     d="m 1861.78,124.4585 c 0,4.2625 3.069,9.02102 11.1135,9.02102 10.3075,0 21.1265,-8.43202 21.1265,-17.15852 0,-5.859 -4.96,-9.12948 -11.1135,-9.12948 -9.6255,0 -21.1265,8.13748 -21.1265,17.26698"
     id="path3098"
     style="stroke-width:0.992" />
  <path
     class="Note"
     d="m 1794.59,136.8585 c 0,4.2625 3.069,9.02102 11.1135,9.02102 10.3075,0 21.1265,-8.43202 21.1265,-17.15852 0,-5.859 -4.96,-9.12948 -11.1135,-9.12948 -9.6255,0 -21.1265,8.13748 -21.1265,17.26698"
     id="path3100"
     style="stroke-width:0.992" />
  <path
     class="Note"
     d="m 2458.18,124.4585 c 0,4.2625 3.069,9.02102 11.1135,9.02102 10.3075,0 21.1265,-8.43202 21.1265,-17.15852 0,-5.859 -4.96,-9.12948 -11.1135,-9.12948 -9.6255,0 -21.1265,8.13748 -21.1265,17.26698"
     id="path3102"
     style="stroke-width:0.992" />
  <path
     class="Note"
     d="m 2891.8,174.0585 c 0,4.2625 3.069,9.02102 11.1135,9.02102 10.3075,0 21.1265,-8.43202 21.1265,-17.15852 0,-5.859 -4.96,-9.12948 -11.1135,-9.12948 -9.6255,0 -21.1265,8.13748 -21.1265,17.26698"
     id="path3104"
     style="stroke-width:0.992" />
  <path
     class="Note"
     d="m 2054.9765,82.391525 c -9.6255,0 -21.1265,8.044475 -21.1265,17.26698 0,4.262495 3.069,9.021015 11.1135,9.021015 10.3075,0 21.1265,-8.43202 21.1265,-17.15852 0,-5.859 -4.96,-9.129475 -11.1135,-9.129475 M 2052.295,99.86 c -0.2945,0.186 -7.533,4.154 -11.005,4.154 -3.2705,0 -3.968,-2.666 -3.968,-3.565 0,-4.1695 9.92,-9.021 10.323,-9.222505 0.3875,-0.201495 7.44,-4.169495 11.005,-4.169495 2.387,0 3.968,1.395 3.968,3.565 0,4.278 -10.013,9.036505 -10.323,9.238"
     id="path3106"
     style="stroke-width:0.992" />
  <path
     class="Note"
     d="m 2980.1165,169.19152 c -9.6255,0 -21.1265,8.04448 -21.1265,17.26698 0,4.2625 3.069,9.02102 11.1135,9.02102 10.3075,0 21.1265,-8.43202 21.1265,-17.15852 0,-5.859 -4.96,-9.12948 -11.1135,-9.12948 M 2977.435,186.66 c -0.2945,0.186 -7.533,4.154 -11.005,4.154 -3.2705,0 -3.968,-2.666 -3.968,-3.565 0,-4.1695 9.92,-9.021 10.323,-9.2225 0.3875,-0.2015 7.44,-4.1695 11.005,-4.1695 2.387,0 3.968,1.395 3.968,3.565 0,4.278 -10.013,9.0365 -10.323,9.238"
     id="path3108"
     style="stroke-width:0.992" />
  <path
     class="Note"
     d="m 1689.7,149.2585 c 0,4.2625 3.069,9.02102 11.1135,9.02102 10.3075,0 21.1265,-8.43202 21.1265,-17.15852 0,-5.859 -4.96,-9.12948 -11.1135,-9.12948 -9.6255,0 -21.1265,8.13748 -21.1265,17.26698"
     id="path3110"
     style="stroke-width:0.992" />
  <path
     class="Note"
     d="m 1622.52,161.6585 c 0,4.2625 3.069,9.02102 11.1135,9.02102 10.3075,0 21.1265,-8.43202 21.1265,-17.15852 0,-5.859 -4.96,-9.12948 -11.1135,-9.12948 -9.6255,0 -21.1265,8.13748 -21.1265,17.26698"
     id="path3112"
     style="stroke-width:0.992" />
  <path
     class="Note"
     d="m 1928.96,112.0585 c 0,4.2625 3.069,9.02102 11.1135,9.02102 10.3075,0 21.1265,-8.43202 21.1265,-17.15852 0,-5.859 -4.96,-9.129475 -11.1135,-9.129475 -9.6255,0 -21.1265,8.137475 -21.1265,17.266975"
     id="path3114"
     style="stroke-width:0.992" />
  <path
     class="Note"
     d="m 1555.33,174.0585 c 0,4.2625 3.069,9.02102 11.1135,9.02102 10.3075,0 21.1265,-8.43202 21.1265,-17.15852 0,-5.859 -4.96,-9.12948 -11.1135,-9.12948 -9.6255,0 -21.1265,8.13748 -21.1265,17.26698"
     id="path3116"
     style="stroke-width:0.992" />
  <path
     class="Note"
     d="m 1440.2165,169.19152 c -9.6255,0 -21.1265,8.04448 -21.1265,17.26698 0,4.2625 3.069,9.02102 11.1135,9.02102 10.3075,0 21.1265,-8.43202 21.1265,-17.15852 0,-5.859 -4.96,-9.12948 -11.1135,-9.12948 M 1437.535,186.66 c -0.2945,0.186 -7.533,4.154 -11.005,4.154 -3.2705,0 -3.968,-2.666 -3.968,-3.565 0,-4.1695 9.92,-9.021 10.323,-9.2225 0.3875,-0.2015 7.44,-4.1695 11.005,-4.1695 2.387,0 3.968,1.395 3.968,3.565 0,4.278 -10.013,9.0365 -10.323,9.238"
     id="path3118"
     style="stroke-width:0.992" />
  <path
     class="Note"
     d="m 1351.9,174.0585 c 0,4.2625 3.069,9.02102 11.1135,9.02102 10.3075,0 21.1265,-8.43202 21.1265,-17.15852 0,-5.859 -4.96,-9.12948 -11.1135,-9.12948 -9.6255,0 -21.1265,8.13748 -21.1265,17.26698"
     id="path3120"
     style="stroke-width:0.992" />
  <path
     class="Note"
     d="m 4046.1265,169.19152 c -9.6255,0 -21.1265,8.04448 -21.1265,17.26698 0,4.2625 3.069,9.02102 11.1135,9.02102 10.3075,0 21.1265,-8.43202 21.1265,-17.15852 0,-5.859 -4.96,-9.12948 -11.1135,-9.12948 M 4043.445,186.66 c -0.2945,0.186 -7.533,4.154 -11.005,4.154 -3.2705,0 -3.968,-2.666 -3.968,-3.565 0,-4.1695 9.92,-9.021 10.323,-9.2225 0.3875,-0.2015 7.44,-4.1695 11.005,-4.1695 2.387,0 3.968,1.395 3.968,3.565 0,4.278 -10.013,9.0365 -10.323,9.238"
     id="path3122"
     style="stroke-width:0.992" />
  <path
     class="Note"
     d="m 3343.05,174.0585 c 0,4.2625 3.069,9.02102 11.1135,9.02102 10.3075,0 21.1265,-8.43202 21.1265,-17.15852 0,-5.859 -4.96,-9.12948 -11.1135,-9.12948 -9.6255,0 -21.1265,8.13748 -21.1265,17.26698"
     id="path3124"
     style="stroke-width:0.992" />
  <path
     class="Note"
     d="m 2563.07,161.6585 c 0,4.2625 3.069,9.02102 11.1135,9.02102 10.3075,0 21.1265,-8.43202 21.1265,-17.15852 0,-5.859 -4.96,-9.12948 -11.1135,-9.12948 -9.6255,0 -21.1265,8.13748 -21.1265,17.26698"
     id="path3126"
     style="stroke-width:0.992" />
  <path
     class="Note"
     d="m 3431.3665,169.19152 c -9.6255,0 -21.1265,8.04448 -21.1265,17.26698 0,4.2625 3.069,9.02102 11.1135,9.02102 10.3075,0 21.1265,-8.43202 21.1265,-17.15852 0,-5.859 -4.96,-9.12948 -11.1135,-9.12948 M 3428.685,186.66 c -0.2945,0.186 -7.533,4.154 -11.005,4.154 -3.2705,0 -3.968,-2.666 -3.968,-3.565 0,-4.1695 9.92,-9.021 10.323,-9.2225 0.3875,-0.2015 7.44,-4.1695 11.005,-4.1695 2.387,0 3.968,1.395 3.968,3.565 0,4.278 -10.013,9.0365 -10.323,9.238"
     id="path3128"
     style="stroke-width:0.992" />
  <path
     class="Note"
     d="m 1167.5065,119.59152 c -9.6255,0 -21.1265,8.04448 -21.1265,17.26698 0,4.2625 3.069,9.02102 11.1135,9.02102 10.3075,0 21.1265,-8.43202 21.1265,-17.15852 0,-5.859 -4.96,-9.12948 -11.1135,-9.12948 M 1164.825,137.06 c -0.2945,0.186 -7.533,4.154 -11.005,4.154 -3.2705,0 -3.968,-2.666 -3.968,-3.565 0,-4.1695 9.92,-9.021 10.323,-9.2225 0.3875,-0.2015 7.44,-4.1695 11.005,-4.1695 2.387,0 3.968,1.395 3.968,3.565 0,4.278 -10.013,9.0365 -10.323,9.238"
     id="path3130"
     style="stroke-width:0.992" />
  <path
     class="Note"
     d="m 3546.48,174.0585 c 0,4.2625 3.069,9.02102 11.1135,9.02102 10.3075,0 21.1265,-8.43202 21.1265,-17.15852 0,-5.859 -4.96,-9.12948 -11.1135,-9.12948 -9.6255,0 -21.1265,8.13748 -21.1265,17.26698"
     id="path3132"
     style="stroke-width:0.992" />
  <path
     class="Note"
     d="m 2279.01,99.658505 c 0,4.262495 3.069,9.021015 11.1135,9.021015 10.3075,0 21.1265,-8.43202 21.1265,-17.15852 0,-5.859 -4.96,-9.129475 -11.1135,-9.129475 -9.6255,0 -21.1265,8.137475 -21.1265,17.26698"
     id="path3134"
     style="stroke-width:0.992" />
  <path
     class="Note"
     d="m 3613.67,161.6585 c 0,4.2625 3.069,9.02102 11.1135,9.02102 10.3075,0 21.1265,-8.43202 21.1265,-17.15852 0,-5.859 -4.96,-9.12948 -11.1135,-9.12948 -9.6255,0 -21.1265,8.13748 -21.1265,17.26698"
     id="path3136"
     style="stroke-width:0.992" />
  <path
     class="Note"
     d="m 2630.25,149.2585 c 0,4.2625 3.069,9.02102 11.1135,9.02102 10.3075,0 21.1265,-8.43202 21.1265,-17.15852 0,-5.859 -4.96,-9.12948 -11.1135,-9.12948 -9.6255,0 -21.1265,8.13748 -21.1265,17.26698"
     id="path3138"
     style="stroke-width:0.992" />
  <path
     class="Note"
     d="m 3680.85,149.2585 c 0,4.2625 3.069,9.02102 11.1135,9.02102 10.3075,0 21.1265,-8.43202 21.1265,-17.15852 0,-5.859 -4.96,-9.12948 -11.1135,-9.12948 -9.6255,0 -21.1265,8.13748 -21.1265,17.26698"
     id="path3140"
     style="stroke-width:0.992" />
  <path
     class="Note"
     d="m 988.96652,169.19152 c -9.62547,0 -21.12652,8.04448 -21.12652,17.26698 0,4.2625 3.069,9.02102 11.11348,9.02102 10.30757,0 21.12652,-8.43202 21.12652,-17.15852 0,-5.859 -4.96,-9.12948 -11.11348,-9.12948 M 986.28505,186.66 c -0.29453,0.186 -7.53305,4.154 -11.00505,4.154 -3.2705,0 -3.968,-2.666 -3.968,-3.565 0,-4.1695 9.92,-9.021 10.32305,-9.2225 0.38747,-0.2015 7.44,-4.1695 11.00495,-4.1695 2.38705,0 3.968,1.395 3.968,3.565 0,4.278 -10.01295,9.0365 -10.32295,9.238"
     id="path3142"
     style="stroke-width:0.992" />
  <path
     class="Note"
     d="m 3158.6565,119.59152 c -9.6255,0 -21.1265,8.04448 -21.1265,17.26698 0,4.2625 3.069,9.02102 11.1135,9.02102 10.3075,0 21.1265,-8.43202 21.1265,-17.15852 0,-5.859 -4.96,-9.12948 -11.1135,-9.12948 M 3155.975,137.06 c -0.2945,0.186 -7.533,4.154 -11.005,4.154 -3.2705,0 -3.968,-2.666 -3.968,-3.565 0,-4.1695 9.92,-9.021 10.323,-9.2225 0.3875,-0.2015 7.44,-4.1695 11.005,-4.1695 2.387,0 3.968,1.395 3.968,3.565 0,4.278 -10.013,9.0365 -10.323,9.238"
     id="path3144"
     style="stroke-width:0.992" />
  <path
     class="Note"
     d="m 2413.39,124.4585 c 0,4.2625 3.069,9.02102 11.1135,9.02102 10.3075,0 21.1265,-8.43202 21.1265,-17.15852 0,-5.859 -4.96,-9.12948 -11.1135,-9.12948 -9.6255,0 -21.1265,8.13748 -21.1265,17.26698"
     id="path3146"
     style="stroke-width:0.992" />
  <path
     class="Note"
     d="m 3785.74,136.8585 c 0,4.2625 3.069,9.02102 11.1135,9.02102 10.3075,0 21.1265,-8.43202 21.1265,-17.15852 0,-5.859 -4.96,-9.12948 -11.1135,-9.12948 -9.6255,0 -21.1265,8.13748 -21.1265,17.26698"
     id="path3148"
     style="stroke-width:0.992" />
  <path
     class="Clef"
     d="m 60.558525,228.61848 c 0,-3.67348 -3.363475,-5.25443 -6.634,-5.25443 -4.169475,0 -8.246,2.57295 -8.246,7.03695 0,1.89105 0.697475,3.286 2.092525,4.66548 -2.588525,0.992 -5.161575,2.976 -5.161575,6.06052 0,3.27052 2.976,5.456 7.34705,5.456 5.347475,0 9.114,-2.976 9.114,-7.254 0,-2.27852 -0.992,-4.154 -2.774525,-5.456 2.88305,-1.28652 4.262525,-2.86748 4.262525,-5.25452 m -9.92,15.872 c -2.17,0 -3.658,-1.37948 -3.658,-3.472 0,-1.984 0.883475,-3.56496 2.57295,-4.55696 0.40305,0.20148 0.496,0.20148 0.790525,0.38748 1.193475,0.60452 1.193475,0.60452 1.39505,0.806 1.875475,1.08505 2.681475,2.07705 2.681475,3.472 0,1.87548 -1.596525,3.36348 -3.782,3.36348 m 3.782,-11.904 c -1.488,-0.79043 -1.89105,-0.992 -2.185475,-1.19348 L 52.033475,231.3 c -1.488,-0.89905 -1.984,-1.59653 -1.984,-2.77453 0,-1.798 1.39505,-3.08452 3.37905,-3.08452 1.875475,0 3.06895,1.19348 3.06895,3.27052 0,1.59653 -0.58895,2.68148 -2.07695,3.87496 M 82.088,157.2875 c 0,-14.97302 -10.617475,-25.0945 -25.094525,-25.0945 -0.992,-5.952 -1.89095,-11.81105 -2.774425,-17.36 10.416,-11.02052 17.747475,-23.513475 17.747475,-39.184 0,-9.036525 -2.774525,-16.368 -4.464,-19.948128 -2.371475,-5.053248 -5.254525,-8.525248 -6.944,-8.525248 -0.682,0 -3.859475,1.193376 -7.03705,5.053248 C 47.073475,59.777 45.29105,72.363 45.29105,80.70195 c 0,5.36305 0.496,10.214525 2.185475,21.43653 -0.108525,0 -5.27,5.25452 -7.34705,7.03704 C 31.09305,117.51448 18.6,129.60448 18.6,149.3515 c 0,18.64655 16.166525,33.23202 34.62705,33.23202 2.867475,0 5.54895,-0.29452 7.936,-0.69747 1.782425,9.43947 2.976,16.47643 2.976,21.73095 0,10.32305 -5.36305,15.77905 -15.376,15.77905 -2.38705,0 -4.464,-0.496 -4.665575,-0.60453 -0.09295,0 -0.294425,-0.093 -0.294425,-0.186 0,-0.20147 0.201475,-0.31 0.496,-0.40304 4.665475,-0.69748 9.315475,-4.75843 9.315475,-11.00496 0,-5.36304 -4.06105,-11.02052 -11.50105,-11.02052 -6.944,0 -11.31495,5.65748 -11.31495,12.19852 0,6.55653 4.96,15.19 18.352,15.19 12.80295,0 19.049475,-7.254 19.049475,-19.94852 0,-3.85948 -0.58895,-8.32348 -1.58095,-13.98095 -0.294525,-1.984 -0.790525,-5.06853 -1.488,-8.83505 C 74.849475,177.53048 82.088,167.50205 82.088,157.2875 M 51.537475,75.943525 c 0.992,-3.968 5.456,-14.384 10.617575,-14.384 1.488,0 3.968,4.758425 3.968,11.702425 0,10.214525 -7.734525,17.964525 -14.585575,24.8 -0.58895,-3.968 -1.08495,-7.936 -1.08495,-11.99695 0,-3.766525 0.387475,-7.052525 1.08495,-10.121475 m 2.976,102.578955 c -14.182425,0 -26.28797,-9.92 -26.28797,-24.90848 0,-12.09005 8.52502,-22.909 17.26702,-30.55048 1.674,-1.39504 3.270525,-2.77452 4.758525,-4.26252 0.883475,5.34748 1.58095,9.92 2.278425,14.08948 -9.036425,2.57304 -15.174425,12.19852 -15.174425,21.42102 0,7.0525 5.456,16.5695 13.392,16.5695 0.790425,0 1.689475,-0.40295 1.689475,-1.39495 0,-0.79053 -0.89905,-1.37957 -2.185475,-2.17005 -3.87505,-2.294 -6.060525,-4.96 -6.060525,-9.734 0,-6.045 4.572525,-10.91205 10.32295,-12.29152 L 60.264,177.825 c -1.984,0.40305 -3.766525,0.69748 -5.750525,0.69748 m 9.92,-1.89096 c -2.07695,-11.79552 -4.758425,-27.57452 -5.456,-31.94557 10.01305,0 14.29105,6.94405 15.174525,11.71805 0.108525,0.7905 0.294525,1.8755 0.294525,3.069 0,7.1455 -2.976,14.29105 -10.01305,17.15852"
     id="path3150"
     style="stroke-width:0.992" />
  <path
     class="KeySig"
     d="m 120.60505,124.846 c -0.58905,-3.85952 -2.976,-7.533 -8.02905,-7.533 -4.96,0 -7.843,3.06895 -8.339,3.67348 l 0.403,-31.85253 c 0,-0.790425 -0.589,-1.379475 -1.395,-1.379475 h -1.178 c -0.806,0 -1.395,0.58905 -1.395,1.379475 l 0.496,59.62853 c 0,0.79052 0.589,1.37957 1.395,1.37957 0.186,0 0.589,-0.0931 0.7905,-0.186 0.3875,-0.20157 6.8355,-3.37905 12.1985,-9.42405 3.76652,-4.278 5.25452,-9.1295 5.25452,-13.206 0,-0.8835 -0.093,-1.674 -0.20147,-2.48 m -6.83557,3.875 c 0,1.488 -0.40296,6.045 -2.88296,9.827 -1.68952,2.573 -5.05302,5.25448 -6.94402,6.74248 l 0.2945,-19.34398 c 0.2015,-0.899 1.6895,-3.76655 5.6575,-3.76655 3.58055,0 3.87498,3.36355 3.87498,5.45605 0,0.496 0,0.7905 0,1.085"
     id="path3152"
     style="stroke-width:0.992" />
  <path
     class="KeySig"
     d="m 148.18005,87.646 c -0.58905,-3.859525 -2.976,-7.533 -8.02905,-7.533 -4.96,0 -7.843,3.06895 -8.339,3.673475 l 0.403,-31.852525 c 0,-0.790425 -0.589,-1.379475 -1.395,-1.379475 h -1.178 c -0.806,0 -1.395,0.58905 -1.395,1.379475 l 0.496,59.62853 c 0,0.79052 0.589,1.37957 1.395,1.37957 0.186,0 0.589,-0.093 0.7905,-0.186 0.3875,-0.20157 6.8355,-3.37905 12.1985,-9.42405 3.76652,-4.278 5.25452,-9.129505 5.25452,-13.206 0,-0.883505 -0.093,-1.674 -0.20147,-2.48 m -6.83557,3.875 c 0,1.488 -0.40296,6.045 -2.88296,9.827 -1.68952,2.573 -5.05302,5.25448 -6.94402,6.74248 l 0.2945,-19.343985 c 0.2015,-0.899 1.6895,-3.766545 5.6575,-3.766545 3.58055,0 3.87498,3.363545 3.87498,5.45605 0,0.496 0,0.790495 0,1.085"
     id="path3154"
     style="stroke-width:0.992" />
  <path
     class="KeySig"
     d="m 175.75505,137.246 c -0.58905,-3.85952 -2.976,-7.533 -8.02905,-7.533 -4.96,0 -7.843,3.06895 -8.339,3.67348 l 0.403,-31.85253 c 0,-0.79043 -0.589,-1.37947 -1.395,-1.37947 h -1.178 c -0.806,0 -1.395,0.58904 -1.395,1.37947 l 0.496,59.62853 c 0,0.79052 0.589,1.37957 1.395,1.37957 0.186,0 0.589,-0.093 0.7905,-0.186 0.3875,-0.20157 6.8355,-3.37905 12.1985,-9.42405 3.76652,-4.278 5.25452,-9.1295 5.25452,-13.206 0,-0.8835 -0.093,-1.674 -0.20147,-2.48 m -6.83557,3.875 c 0,1.488 -0.40296,6.045 -2.88296,9.827 -1.68952,2.573 -5.05302,5.25448 -6.94402,6.74248 l 0.2945,-19.34398 c 0.2015,-0.899 1.6895,-3.76655 5.6575,-3.76655 3.58055,0 3.87498,3.36355 3.87498,5.45605 0,0.496 0,0.7905 0,1.085"
     id="path3156"
     style="stroke-width:0.992" />
  <path
     class="TimeSig"
     d="m 224.08348,103.6265 c -6.06043,0 -8.23043,1.7825 -9.62548,3.2705 -0.29452,-2.077 -0.496,-3.6735 -0.496,-5.2545 0,-1.5965 0.20148,-2.976005 0.496,-4.75855 0.58905,-3.673475 3.06905,-8.246 8.432,-8.246 2.48,0 3.968,0.806 4.96,1.89105 -2.07695,0.89895 -3.76652,3.56495 -3.76652,5.85895 0,3.56505 2.77452,6.33955 6.35504,6.33955 3.56496,0 6.448,-2.7745 6.448,-6.33955 v -0.201475 c 0,0 0,0 0,-0.108525 0,-0.883475 -0.20147,-2.371475 -0.60452,-3.162 -1.28652,-3.580425 -5.456,-8.83495 -15.376,-8.83495 -8.928,0 -15.376,8.52495 -17.36,13.097475 -0.992,2.371525 -2.48,7.238525 -2.48,12.787525 0,6.0605 1.6895,12.89605 7.533,18.05752 5.76605,4.37096 9.42405,4.57253 12.89605,4.57253 3.48747,0 16.47643,-4.07653 16.47643,-15.57755 0,-9.7185 -7.64148,-13.392 -13.888,-13.392 M 220.41,128.42648 c -3.27052,0 -5.952,-4.464 -5.952,-10.02843 0,-5.54905 2.68148,-10.10605 5.952,-10.10605 3.27052,0 6.06052,4.557 6.06052,10.10605 0,5.56443 -2.79,10.02843 -6.06052,10.02843"
     id="path3158"
     style="stroke-width:0.992" />
  <path
     class="TimeSig"
     d="m 231.43105,155.4585 c 3.27043,-2.48 5.54895,-5.6575 5.54895,-9.6255 0,-7.14548 -7.82748,-12.98905 -17.45295,-12.98905 -9.62557,0 -17.46855,5.84357 -17.46855,12.98905 0,3.968 0.992,7.533 5.6575,10.509 -4.464,2.5885 -6.944,6.262 -6.944,11.02048 0,8.02904 8.432,14.47704 18.75505,14.47704 10.30747,0 18.73947,-6.448 18.73947,-14.47704 0,-4.75848 -1.674,-9.22248 -6.83547,-11.90398 m -11.904,20.83198 c -6.35505,0 -11.81105,-3.472 -11.81105,-9.03643 0,-6.63405 5.16148,-8.23055 5.16148,-8.23055 6.74252,2.2785 16.368,5.6575 16.368,11.1135 0,2.68148 -3.472,6.15348 -9.71843,6.15348 m 6.33947,-23.51348 c -6.74252,-2.1855 -14.18252,-5.456 -14.18252,-9.92 0,-3.87505 3.56505,-5.456 7.84305,-5.456 6.15347,0 10.30747,2.88295 10.30747,7.44 0,4.7585 -2.17,7.037 -3.968,7.936"
     id="path3160"
     style="stroke-width:0.992" />
  <path
     class="Beam"
     fill-rule="evenodd"
     d="m 735.931,58.275 92.061,6.2 v 12.428 l -92.061,-6.2 V 58.275"
     id="path3162" />
  <path
     class="Beam"
     fill-rule="evenodd"
     d="m 2727.08,58.275 92.06,6.2 v 12.428 l -92.06,-6.2 V 58.275"
     id="path3164" />
  <path
     class="Beam"
     fill-rule="evenodd"
     d="m 2413.39,182.289 h 47.27 v 12.4 h -47.27 v -12.4"
     id="path3166" />
  <path
     class="Beam"
     fill-rule="evenodd"
     d="m 422.238,182.289 h 47.27 v 12.4 h -47.27 v -12.4"
     id="path3168" />
  <path
     class="VoltaSegment"
     d="m 899.58,16.988 h -1.92 c -3.47,2.594 -7.38,3.687 -13.93,3.797 v 3.078 h 2.32 c 4.89,0 4.95,0.109 4.89,4.625 v 19.516 c 0,3.406 0,3.578 -0.38,4.125 -0.5,0.609 -1.61,0.828 -4.58,0.828 h -1.75 v 2.968 h 21.94 v -2.968 h -1.76 c -2.91,0 -3.96,-0.219 -4.46,-0.828 -0.37,-0.547 -0.37,-0.766 -0.37,-4.125 V 16.988 m 19.23,29.422 c -2.86,0 -5.17,2.312 -5.17,5.172 0,2.797 2.31,5.172 5.13,5.172 2.9,0 5.21,-2.313 5.21,-5.172 0,-2.86 -2.31,-5.172 -5.17,-5.172"
     id="path3170" />
  <polyline
     class="VoltaSegment"
     fill="none"
     stroke="#000000"
     stroke-width="2.73"
     stroke-linejoin="miter"
     stroke-miterlimit="2"
     points="992.292,607.034 992.292,552.474 1213.47,552.474 1213.47,607.034"
     id="polyline3172"
     transform="translate(-124,-551.109)" />
  <path
     class="VoltaSegment"
     d="m 1154.13,41.3 -0.6,2.75 c -0.5,2.204 -0.83,2.907 -1.27,3.188 -0.55,0.391 -0.66,0.391 -4.13,0.437 h -10.6 c 1.92,-1.656 3.35,-2.687 5.5,-4.125 7.75,-5 9.34,-6.218 10.93,-8.25 1.88,-2.468 2.97,-5.39 2.97,-7.968 0,-5.891 -5.76,-10.344 -13.51,-10.344 -7.49,0 -13.27,4.844 -13.27,11.109 0,3.844 2.16,6.328 5.45,6.328 2.86,0 4.68,-1.812 4.68,-4.671 0,-2.375 -1.05,-3.75 -3.58,-4.954 -0.61,-0.281 -0.88,-0.609 -0.88,-1.046 0,-1.766 2.97,-3.625 5.72,-3.625 3.84,0 6.05,2.359 6.05,6.437 0,4.563 -1.77,7.797 -7.6,14.016 -6.15,6.547 -8.29,9.015 -11.04,12.984 v 2.578 c 1.42,-0.156 2.03,-0.219 2.86,-0.219 h 20.67 c 1.05,0 1.7,0.063 3.36,0.219 L 1157.1,41.3 h -2.97 m 13.41,5.11 c -2.86,0 -5.17,2.312 -5.17,5.172 0,2.797 2.31,5.172 5.12,5.172 2.91,0 5.22,-2.313 5.22,-5.172 0,-2.86 -2.31,-5.172 -5.17,-5.172"
     id="path3174" />
  <polyline
     class="VoltaSegment"
     fill="none"
     stroke="#000000"
     stroke-width="2.73"
     stroke-linejoin="miter"
     stroke-miterlimit="2"
     points="1238.02,607.034 1238.02,552.474 1418.99,552.474"
     id="polyline3176"
     transform="translate(-124,-551.109)" />
  <path
     class="VoltaSegment"
     d="m 2890.73,16.988 h -1.92 c -3.47,2.594 -7.38,3.687 -13.93,3.797 v 3.078 h 2.32 c 4.89,0 4.95,0.109 4.89,4.625 v 19.516 c 0,3.406 0,3.578 -0.38,4.125 -0.5,0.609 -1.61,0.828 -4.58,0.828 h -1.75 v 2.968 h 21.94 v -2.968 h -1.76 c -2.91,0 -3.96,-0.219 -4.46,-0.828 -0.37,-0.547 -0.37,-0.766 -0.37,-4.125 V 16.988 m 19.23,29.422 c -2.86,0 -5.17,2.312 -5.17,5.172 0,2.797 2.31,5.172 5.12,5.172 2.91,0 5.22,-2.313 5.22,-5.172 0,-2.86 -2.31,-5.172 -5.17,-5.172"
     id="path3178" />
  <polyline
     class="VoltaSegment"
     fill="none"
     stroke="#000000"
     stroke-width="2.73"
     stroke-linejoin="miter"
     stroke-miterlimit="2"
     points="2983.44,607.034 2983.44,552.474 3204.62,552.474 3204.62,607.034"
     id="polyline3180"
     transform="translate(-124,-551.109)" />
  <path
     class="VoltaSegment"
     d="m 3145.28,41.3 -0.61,2.75 c -0.5,2.204 -0.82,2.907 -1.26,3.188 -0.55,0.391 -0.66,0.391 -4.13,0.437 h -10.61 c 1.93,-1.656 3.36,-2.687 5.5,-4.125 7.75,-5 9.35,-6.218 10.94,-8.25 1.88,-2.468 2.97,-5.39 2.97,-7.968 0,-5.891 -5.77,-10.344 -13.52,-10.344 -7.48,0 -13.26,4.844 -13.26,11.109 0,3.844 2.16,6.328 5.45,6.328 2.86,0 4.67,-1.812 4.67,-4.671 0,-2.375 -1.04,-3.75 -3.57,-4.954 -0.61,-0.281 -0.88,-0.609 -0.88,-1.046 0,-1.766 2.97,-3.625 5.72,-3.625 3.84,0 6.05,2.359 6.05,6.437 0,4.563 -1.77,7.797 -7.6,14.016 -6.15,6.547 -8.29,9.015 -11.04,12.984 v 2.578 c 1.42,-0.156 2.03,-0.219 2.86,-0.219 h 20.67 c 1.04,0 1.7,0.063 3.36,0.219 l 1.26,-14.844 h -2.97 m 13.41,5.11 c -2.86,0 -5.17,2.312 -5.17,5.172 0,2.797 2.31,5.172 5.12,5.172 2.91,0 5.22,-2.313 5.22,-5.172 0,-2.86 -2.31,-5.172 -5.17,-5.172"
     id="path3182" />
  <polyline
     class="VoltaSegment"
     fill="none"
     stroke="#000000"
     stroke-width="2.73"
     stroke-linejoin="miter"
     stroke-miterlimit="2"
     points="3229.17,607.034 3229.17,552.474 3410.13,552.474 3410.13,607.034"
     id="polyline3184"
     transform="translate(-124,-551.109)" />
  <path
     class="NoteDot"
     d="m 2078.48,95.489 c 0,2.774505 2.1855,4.96 4.96,4.96 2.7745,0 4.96,-2.185495 4.96,-4.96 0,-2.774505 -2.1855,-4.96 -4.96,-4.96 -2.7745,0 -4.96,2.185495 -4.96,4.96"
     id="path3186"
     style="stroke-width:0.992" />
  <path
     class="NoteDot"
     d="m 1191.01,120.289 c 0,2.7745 2.1855,4.96 4.96,4.96 2.7745,0 4.96,-2.1855 4.96,-4.96 0,-2.7745 -2.1855,-4.96 -4.96,-4.96 -2.7745,0 -4.96,2.1855 -4.96,4.96"
     id="path3188"
     style="stroke-width:0.992" />
  <path
     class="NoteDot"
     d="m 4069.62,169.889 c 0,2.7745 2.1855,4.96 4.96,4.96 2.7745,0 4.96,-2.1855 4.96,-4.96 0,-2.7745 -2.1855,-4.96 -4.96,-4.96 -2.7745,0 -4.96,2.1855 -4.96,4.96"
     id="path3190"
     style="stroke-width:0.992" />
  <path
     class="NoteDot"
     d="m 3182.16,120.289 c 0,2.7745 2.1855,4.96 4.96,4.96 2.7745,0 4.96,-2.1855 4.96,-4.96 0,-2.7745 -2.1855,-4.96 -4.96,-4.96 -2.7745,0 -4.96,2.1855 -4.96,4.96"
     id="path3192"
     style="stroke-width:0.992" />
</svg>
