<?xml version="1.0" encoding="UTF-8" standalone="no"?>
<svg
   xmlns:dc="http://purl.org/dc/elements/1.1/"
   xmlns:cc="http://creativecommons.org/ns#"
   xmlns:rdf="http://www.w3.org/1999/02/22-rdf-syntax-ns#"
   xmlns:svg="http://www.w3.org/2000/svg"
   xmlns="http://www.w3.org/2000/svg"
   xmlns:sodipodi="http://sodipodi.sourceforge.net/DTD/sodipodi-0.dtd"
   xmlns:inkscape="http://www.inkscape.org/namespaces/inkscape"
   width="3783.6021"
   height="606.21912"
   viewBox="0 0 3783.6021 606.21913"
   version="1.2"
   id="svg440"
   sodipodi:docname="Dossium Canto Moeder Musica.svg"
   inkscape:version="1.0.2-2 (e86c870879, 2021-01-15)">
  <metadata
     id="metadata446">
    <rdf:RDF>
      <cc:Work
         rdf:about="">
        <dc:format>image/svg+xml</dc:format>
        <dc:type
           rdf:resource="http://purl.org/dc/dcmitype/StillImage" />
      </cc:Work>
    </rdf:RDF>
  </metadata>
  <defs
     id="defs444" />
  <sodipodi:namedview
     pagecolor="#ffffff"
     bordercolor="#666666"
     borderopacity="1"
     objecttolerance="10"
     gridtolerance="10"
     guidetolerance="10"
     inkscape:pageopacity="0"
     inkscape:pageshadow="2"
     inkscape:window-width="1920"
     inkscape:window-height="991"
     id="namedview442"
     showgrid="false"
     inkscape:zoom="0.27542658"
     inkscape:cx="1891.602"
     inkscape:cy="904.03498"
     inkscape:window-x="-9"
     inkscape:window-y="-9"
     inkscape:window-maximized="1"
     inkscape:current-layer="svg440" />
  <title
     id="title2">Dossium Canto Moeder Musica</title>
  <desc
     id="desc4">Generated by MuseScore Studio 4.4.4</desc>
  <polyline
     class="StaffLines"
     fill="none"
     stroke="#000000"
     stroke-width="2.73"
     stroke-linejoin="bevel"
     points="336.599,634.198 3996.2,634.198"
     id="polyline6"
     transform="translate(-212.598,-584.565)" />
  <polyline
     class="StaffLines"
     fill="none"
     stroke="#000000"
     stroke-width="2.73"
     stroke-linejoin="bevel"
     points="336.599,658.998 3996.2,658.998"
     id="polyline8"
     transform="translate(-212.598,-584.565)" />
  <polyline
     class="StaffLines"
     fill="none"
     stroke="#000000"
     stroke-width="2.73"
     stroke-linejoin="bevel"
     points="336.599,683.798 3996.2,683.798"
     id="polyline10"
     transform="translate(-212.598,-584.565)" />
  <polyline
     class="StaffLines"
     fill="none"
     stroke="#000000"
     stroke-width="2.73"
     stroke-linejoin="bevel"
     points="336.599,708.598 3996.2,708.598"
     id="polyline12"
     transform="translate(-212.598,-584.565)" />
  <polyline
     class="StaffLines"
     fill="none"
     stroke="#000000"
     stroke-width="2.73"
     stroke-linejoin="bevel"
     points="336.599,733.398 3996.2,733.398"
     id="polyline14"
     transform="translate(-212.598,-584.565)" />
  <polyline
     class="StaffLines"
     fill="none"
     stroke="#000000"
     stroke-width="2.73"
     stroke-linejoin="bevel"
     points="212.598,1027.29 3996.2,1027.29"
     id="polyline16"
     transform="translate(-212.598,-584.565)" />
  <polyline
     class="StaffLines"
     fill="none"
     stroke="#000000"
     stroke-width="2.73"
     stroke-linejoin="bevel"
     points="212.598,1052.09 3996.2,1052.09"
     id="polyline18"
     transform="translate(-212.598,-584.565)" />
  <polyline
     class="StaffLines"
     fill="none"
     stroke="#000000"
     stroke-width="2.73"
     stroke-linejoin="bevel"
     points="212.598,1076.89 3996.2,1076.89"
     id="polyline20"
     transform="translate(-212.598,-584.565)" />
  <polyline
     class="StaffLines"
     fill="none"
     stroke="#000000"
     stroke-width="2.73"
     stroke-linejoin="bevel"
     points="212.598,1101.69 3996.2,1101.69"
     id="polyline22"
     transform="translate(-212.598,-584.565)" />
  <polyline
     class="StaffLines"
     fill="none"
     stroke="#000000"
     stroke-width="2.73"
     stroke-linejoin="bevel"
     points="212.598,1126.49 3996.2,1126.49"
     id="polyline24"
     transform="translate(-212.598,-584.565)" />
  <path
     class="MeasureNumber"
     d="m 20.438,364.966 c -2.125,0.234 -4.719,0.406 -6.953,0.406 -1.125,0 -2.407,-0.047 -3.844,-0.125 -1.328,-0.078 -2.641,-0.156 -4,-0.235 l -1,-0.046 -3.875,8.437 1.469,0.484 0.968,-1.609 c 1.875,-3.109 2.75,-3.547 6.829,-3.516 h 6.765 l -4.359,6.25 C 7.313,382.2 7.313,382.2 5.36,385.403 c -1.766,2.844 -2.485,4.594 -2.485,6.031 0,1.407 0.891,2.282 2.282,2.282 1.484,0 2.234,-0.719 2.765,-2.594 2,-7.516 3.203,-10.125 8.75,-19.11 l 3.766,-5.843 v -1.203"
     id="path34" />
  <path
     class="TieSegment"
     stroke="#000000"
     stroke-width="1.24"
     stroke-linecap="round"
     stroke-linejoin="round"
     fill-rule="evenodd"
     d="m 3351.522,461.725 c 32.97,-38.54 131.89,-38.54 164.87,0 -32.98,-30.6 -131.9,-30.6 -164.87,0"
     id="path36" />
  <polyline
     class="BarLine"
     fill="none"
     stroke="#000000"
     stroke-width="4.46"
     stroke-linejoin="bevel"
     points="3573.16,632.834 3573.16,734.762"
     id="polyline38"
     transform="translate(-212.598,-584.565)" />
  <polyline
     class="BarLine"
     fill="none"
     stroke="#000000"
     stroke-width="4.46"
     stroke-linejoin="bevel"
     points="1798.18,1025.92 1798.18,1127.85"
     id="polyline40"
     transform="translate(-212.598,-584.565)" />
  <polyline
     class="BarLine"
     fill="none"
     stroke="#000000"
     stroke-width="4.46"
     stroke-linejoin="bevel"
     points="3993.97,632.834 3993.97,734.762"
     id="polyline42"
     transform="translate(-212.598,-584.565)" />
  <polyline
     class="BarLine"
     fill="none"
     stroke="#000000"
     stroke-width="4.46"
     stroke-linejoin="bevel"
     points="3202.7,1025.92 3202.7,1127.85"
     id="polyline44"
     transform="translate(-212.598,-584.565)" />
  <polyline
     class="BarLine"
     fill="none"
     stroke="#000000"
     stroke-width="4.46"
     stroke-linejoin="bevel"
     points="2010.12,632.834 2010.12,734.762"
     id="polyline46"
     transform="translate(-212.598,-584.565)" />
  <polyline
     class="BarLine"
     fill="none"
     stroke="#000000"
     stroke-width="4.46"
     stroke-linejoin="bevel"
     points="1363.1,632.834 1363.1,734.762"
     id="polyline48"
     transform="translate(-212.598,-584.565)" />
  <polyline
     class="BarLine"
     fill="none"
     stroke="#000000"
     stroke-width="4.46"
     stroke-linejoin="bevel"
     points="2725.22,1025.92 2725.22,1127.85"
     id="polyline50"
     transform="translate(-212.598,-584.565)" />
  <polyline
     class="BarLine"
     fill="none"
     stroke="#000000"
     stroke-width="4.46"
     stroke-linejoin="bevel"
     points="2644.34,632.834 2644.34,734.762"
     id="polyline52"
     transform="translate(-212.598,-584.565)" />
  <polyline
     class="BarLine"
     fill="none"
     stroke="#000000"
     stroke-width="4.46"
     stroke-linejoin="bevel"
     points="3971.15,1025.92 3971.15,1127.85"
     id="polyline54"
     transform="translate(-212.598,-584.565)" />
  <polyline
     class="BarLine"
     fill="none"
     stroke="#000000"
     stroke-width="13.64"
     stroke-linejoin="bevel"
     points="3989.38,1025.92 3989.38,1127.85"
     id="polyline56"
     transform="translate(-212.598,-584.565)" />
  <polyline
     class="BarLine"
     fill="none"
     stroke="#000000"
     stroke-width="4.46"
     stroke-linejoin="bevel"
     points="800.919,1025.92 800.919,1127.85"
     id="polyline58"
     transform="translate(-212.598,-584.565)" />
  <polyline
     class="BarLine"
     fill="none"
     stroke="#000000"
     stroke-width="4.46"
     stroke-linejoin="bevel"
     points="3680.18,1025.92 3680.18,1127.85"
     id="polyline60"
     transform="translate(-212.598,-584.565)" />
  <polyline
     class="BarLine"
     fill="none"
     stroke="#000000"
     stroke-width="4.46"
     stroke-linejoin="bevel"
     points="2286.65,1025.92 2286.65,1127.85"
     id="polyline62"
     transform="translate(-212.598,-584.565)" />
  <path
     class="BarLine"
     d="m 1073.8951,479.925 c 0,-2.883 -2.2941,-5.25451 -5.1616,-5.25451 -2.883,0 -5.1615,2.37151 -5.1615,5.25451 0,2.883 2.2785,5.25451 5.1615,5.25451 2.8675,0 5.1616,-2.37151 5.1616,-5.25451"
     id="path64"
     style="stroke-width:0.992001" />
  <path
     class="BarLine"
     d="m 1073.8951,504.725 c 0,-2.883 -2.2941,-5.25451 -5.1616,-5.25451 -2.883,0 -5.1615,2.37151 -5.1615,5.25451 0,2.883 2.2785,5.25451 5.1615,5.25451 2.8675,0 5.1616,-2.37151 5.1616,-5.25451"
     id="path66"
     style="stroke-width:0.992001" />
  <polyline
     class="BarLine"
     fill="none"
     stroke="#000000"
     stroke-width="4.46"
     stroke-linejoin="bevel"
     points="1297.88,1025.92 1297.88,1127.85"
     id="polyline68"
     transform="translate(-212.598,-584.565)" />
  <polyline
     class="BarLine"
     fill="none"
     stroke="#000000"
     stroke-width="13.64"
     stroke-linejoin="bevel"
     points="1316.11,1025.92 1316.11,1127.85"
     id="polyline70"
     transform="translate(-212.598,-584.565)" />
  <path
     class="BarLine"
     d="m 2841.6251,86.833 c 0,-2.883003 -2.2941,-5.25451 -5.1616,-5.25451 -2.883,0 -5.1615,2.371507 -5.1615,5.25451 0,2.883003 2.2785,5.25451 5.1615,5.25451 2.8675,0 5.1616,-2.371507 5.1616,-5.25451"
     id="path72"
     style="stroke-width:0.992001" />
  <path
     class="BarLine"
     d="m 2841.6251,111.633 c 0,-2.883 -2.2941,-5.25451 -5.1616,-5.25451 -2.883,0 -5.1615,2.37151 -5.1615,5.25451 0,2.883 2.2785,5.25451 5.1615,5.25451 2.8675,0 5.1616,-2.37151 5.1616,-5.25451"
     id="path74"
     style="stroke-width:0.992001" />
  <polyline
     class="BarLine"
     fill="none"
     stroke="#000000"
     stroke-width="4.46"
     stroke-linejoin="bevel"
     points="3065.62,632.834 3065.62,734.762"
     id="polyline76"
     transform="translate(-212.598,-584.565)" />
  <polyline
     class="BarLine"
     fill="none"
     stroke="#000000"
     stroke-width="13.64"
     stroke-linejoin="bevel"
     points="3083.84,632.834 3083.84,734.762"
     id="polyline78"
     transform="translate(-212.598,-584.565)" />
  <polyline
     class="BarLine"
     fill="none"
     stroke="#000000"
     stroke-width="13.64"
     stroke-linejoin="bevel"
     points="3083.84,632.834 3083.84,734.762"
     id="polyline80"
     transform="translate(-212.598,-584.565)" />
  <polyline
     class="BarLine"
     fill="none"
     stroke="#000000"
     stroke-width="4.46"
     stroke-linejoin="bevel"
     points="3102.07,632.834 3102.07,734.762"
     id="polyline82"
     transform="translate(-212.598,-584.565)" />
  <path
     class="BarLine"
     d="m 2911.2051,86.833 c 0,-2.883003 -2.2941,-5.25451 -5.1616,-5.25451 -2.883,0 -5.1615,2.371507 -5.1615,5.25451 0,2.883003 2.2785,5.25451 5.1615,5.25451 2.8675,0 5.1616,-2.371507 5.1616,-5.25451"
     id="path84"
     style="stroke-width:0.992001" />
  <path
     class="BarLine"
     d="m 2911.2051,111.633 c 0,-2.883 -2.2941,-5.25451 -5.1616,-5.25451 -2.883,0 -5.1615,2.37151 -5.1615,5.25451 0,2.883 2.2785,5.25451 5.1615,5.25451 2.8675,0 5.1616,-2.37151 5.1616,-5.25451"
     id="path86"
     style="stroke-width:0.992001" />
  <polyline
     class="LedgerLine"
     fill="none"
     stroke="#000000"
     stroke-width="3.97"
     stroke-linejoin="bevel"
     points="1405.47,1002.49 1454.06,1002.49"
     id="polyline88"
     transform="translate(-212.598,-584.565)" />
  <polyline
     class="Stem"
     fill="none"
     stroke="#000000"
     stroke-width="2.48"
     stroke-linejoin="bevel"
     points="3870.87,675.565 3870.87,751.999"
     id="polyline90"
     transform="translate(-212.598,-584.565)" />
  <polyline
     class="Stem"
     fill="none"
     stroke="#000000"
     stroke-width="2.48"
     stroke-linejoin="bevel"
     points="387.656,1097.72 387.656,1027.41"
     id="polyline92"
     transform="translate(-212.598,-584.565)" />
  <polyline
     class="Stem"
     fill="none"
     stroke="#000000"
     stroke-width="2.48"
     stroke-linejoin="bevel"
     points="447.375,1110.12 447.375,1033.36"
     id="polyline94"
     transform="translate(-212.598,-584.565)" />
  <polyline
     class="Stem"
     fill="none"
     stroke="#000000"
     stroke-width="2.48"
     stroke-linejoin="bevel"
     points="531.188,1056.25 531.188,1138.89"
     id="polyline96"
     transform="translate(-212.598,-584.565)" />
  <polyline
     class="Stem"
     fill="none"
     stroke="#000000"
     stroke-width="2.48"
     stroke-linejoin="bevel"
     points="615.458,704.63 615.458,621.798"
     id="polyline98"
     transform="translate(-212.598,-584.565)" />
  <polyline
     class="Stem"
     fill="none"
     stroke="#000000"
     stroke-width="2.48"
     stroke-linejoin="bevel"
     points="665.557,1056.25 665.557,1138.89"
     id="polyline100"
     transform="translate(-212.598,-584.565)" />
  <polyline
     class="Stem"
     fill="none"
     stroke="#000000"
     stroke-width="2.48"
     stroke-linejoin="bevel"
     points="791.458,729.43 791.458,621.76"
     id="polyline102"
     transform="translate(-212.598,-584.565)" />
  <polyline
     class="Stem"
     fill="none"
     stroke="#000000"
     stroke-width="2.48"
     stroke-linejoin="bevel"
     points="865.135,1110.12 865.135,1027.41"
     id="polyline104"
     transform="translate(-212.598,-584.565)" />
  <polyline
     class="Stem"
     fill="none"
     stroke="#000000"
     stroke-width="2.48"
     stroke-linejoin="bevel"
     points="924.855,1122.52 924.855,1033.36"
     id="polyline106"
     transform="translate(-212.598,-584.565)" />
  <polyline
     class="Stem"
     fill="none"
     stroke="#000000"
     stroke-width="2.48"
     stroke-linejoin="bevel"
     points="902.374,717.03 902.374,618.303"
     id="polyline108"
     transform="translate(-212.598,-584.565)" />
  <polyline
     class="Stem"
     fill="none"
     stroke="#000000"
     stroke-width="2.48"
     stroke-linejoin="bevel"
     points="1008.67,1068.65 1008.67,1145.09"
     id="polyline110"
     transform="translate(-212.598,-584.565)" />
  <polyline
     class="Stem"
     fill="none"
     stroke="#000000"
     stroke-width="2.48"
     stroke-linejoin="bevel"
     points="987.93,704.63 987.93,615.637"
     id="polyline112"
     transform="translate(-212.598,-584.565)" />
  <polyline
     class="Stem"
     fill="none"
     stroke="#000000"
     stroke-width="2.48"
     stroke-linejoin="bevel"
     points="1143.04,1068.65 1143.04,1145.09"
     id="polyline114"
     transform="translate(-212.598,-584.565)" />
  <polyline
     class="Stem"
     fill="none"
     stroke="#000000"
     stroke-width="2.48"
     stroke-linejoin="bevel"
     points="1073.49,692.23 1073.49,596.869"
     id="polyline116"
     transform="translate(-212.598,-584.565)" />
  <polyline
     class="Stem"
     fill="none"
     stroke="#000000"
     stroke-width="2.48"
     stroke-linejoin="bevel"
     points="1355.17,1081.05 1355.17,1151.16"
     id="polyline118"
     transform="translate(-212.598,-584.565)" />
  <polyline
     class="Stem"
     fill="none"
     stroke="#000000"
     stroke-width="2.48"
     stroke-linejoin="bevel"
     points="1414.89,1056.25 1414.89,1145.21"
     id="polyline120"
     transform="translate(-212.598,-584.565)" />
  <polyline
     class="Stem"
     fill="none"
     stroke="#000000"
     stroke-width="2.48"
     stroke-linejoin="bevel"
     points="1130.51,679.83 1130.51,590.928"
     id="polyline122"
     transform="translate(-212.598,-584.565)" />
  <polyline
     class="Stem"
     fill="none"
     stroke="#000000"
     stroke-width="2.48"
     stroke-linejoin="bevel"
     points="1528.45,1068.65 1528.45,1145.09"
     id="polyline124"
     transform="translate(-212.598,-584.565)" />
  <polyline
     class="Stem"
     fill="none"
     stroke="#000000"
     stroke-width="2.48"
     stroke-linejoin="bevel"
     points="1157.79,675.565 1157.79,751.999"
     id="polyline126"
     transform="translate(-212.598,-584.565)" />
  <polyline
     class="Stem"
     fill="none"
     stroke="#000000"
     stroke-width="2.48"
     stroke-linejoin="bevel"
     points="1662.82,1068.65 1662.82,1145.09"
     id="polyline128"
     transform="translate(-212.598,-584.565)" />
  <polyline
     class="Stem"
     fill="none"
     stroke="#000000"
     stroke-width="2.48"
     stroke-linejoin="bevel"
     points="1309.64,704.63 1309.64,621.898"
     id="polyline130"
     transform="translate(-212.598,-584.565)" />
  <polyline
     class="Stem"
     fill="none"
     stroke="#000000"
     stroke-width="2.48"
     stroke-linejoin="bevel"
     points="1832.65,1068.65 1832.65,1145.09"
     id="polyline132"
     transform="translate(-212.598,-584.565)" />
  <polyline
     class="Stem"
     fill="none"
     stroke="#000000"
     stroke-width="2.48"
     stroke-linejoin="bevel"
     points="1427.32,692.23 1427.32,615.598"
     id="polyline134"
     transform="translate(-212.598,-584.565)" />
  <polyline
     class="Stem"
     fill="none"
     stroke="#000000"
     stroke-width="2.48"
     stroke-linejoin="bevel"
     points="2032.73,1085.32 2032.73,1008.79"
     id="polyline136"
     transform="translate(-212.598,-584.565)" />
  <polyline
     class="Stem"
     fill="none"
     stroke="#000000"
     stroke-width="2.48"
     stroke-linejoin="bevel"
     points="1549.43,717.03 1549.43,596.932"
     id="polyline138"
     transform="translate(-212.598,-584.565)" />
  <polyline
     class="Stem"
     fill="none"
     stroke="#000000"
     stroke-width="2.48"
     stroke-linejoin="bevel"
     points="2098.82,1097.72 2098.82,1014.89"
     id="polyline140"
     transform="translate(-212.598,-584.565)" />
  <polyline
     class="Stem"
     fill="none"
     stroke="#000000"
     stroke-width="2.48"
     stroke-linejoin="bevel"
     points="2233.19,1110.12 2233.19,1027.39"
     id="polyline142"
     transform="translate(-212.598,-584.565)" />
  <polyline
     class="Stem"
     fill="none"
     stroke="#000000"
     stroke-width="2.48"
     stroke-linejoin="bevel"
     points="1606.45,704.63 1606.45,593.898"
     id="polyline144"
     transform="translate(-212.598,-584.565)" />
  <polyline
     class="Stem"
     fill="none"
     stroke="#000000"
     stroke-width="2.48"
     stroke-linejoin="bevel"
     points="2350.87,1122.52 2350.87,1039.69"
     id="polyline146"
     transform="translate(-212.598,-584.565)" />
  <polyline
     class="Stem"
     fill="none"
     stroke="#000000"
     stroke-width="2.48"
     stroke-linejoin="bevel"
     points="1663.48,692.23 1663.48,590.864"
     id="polyline148"
     transform="translate(-212.598,-584.565)" />
  <polyline
     class="Stem"
     fill="none"
     stroke="#000000"
     stroke-width="2.48"
     stroke-linejoin="bevel"
     points="2455.49,1068.65 2455.49,1145.09"
     id="polyline150"
     transform="translate(-212.598,-584.565)" />
  <polyline
     class="Stem"
     fill="none"
     stroke="#000000"
     stroke-width="2.48"
     stroke-linejoin="bevel"
     points="1690.76,687.965 1690.76,776.669"
     id="polyline152"
     transform="translate(-212.598,-584.565)" />
  <polyline
     class="Stem"
     fill="none"
     stroke="#000000"
     stroke-width="2.48"
     stroke-linejoin="bevel"
     points="2589.86,1068.65 2589.86,1145.09"
     id="polyline154"
     transform="translate(-212.598,-584.565)" />
  <polyline
     class="Stem"
     fill="none"
     stroke="#000000"
     stroke-width="2.48"
     stroke-linejoin="bevel"
     points="2789.44,1097.72 2789.44,1027.41"
     id="polyline156"
     transform="translate(-212.598,-584.565)" />
  <polyline
     class="Stem"
     fill="none"
     stroke="#000000"
     stroke-width="2.48"
     stroke-linejoin="bevel"
     points="1747.78,675.565 1747.78,770.728"
     id="polyline158"
     transform="translate(-212.598,-584.565)" />
  <polyline
     class="Stem"
     fill="none"
     stroke="#000000"
     stroke-width="2.48"
     stroke-linejoin="bevel"
     points="2849.16,1110.12 2849.16,1033.36"
     id="polyline160"
     transform="translate(-212.598,-584.565)" />
  <polyline
     class="Stem"
     fill="none"
     stroke="#000000"
     stroke-width="2.48"
     stroke-linejoin="bevel"
     points="1804.8,663.165 1804.8,745.799"
     id="polyline162"
     transform="translate(-212.598,-584.565)" />
  <polyline
     class="Stem"
     fill="none"
     stroke="#000000"
     stroke-width="2.48"
     stroke-linejoin="bevel"
     points="2932.97,1056.25 2932.97,1138.89"
     id="polyline164"
     transform="translate(-212.598,-584.565)" />
  <polyline
     class="Stem"
     fill="none"
     stroke="#000000"
     stroke-width="2.48"
     stroke-linejoin="bevel"
     points="3067.34,1056.25 3067.34,1138.89"
     id="polyline166"
     transform="translate(-212.598,-584.565)" />
  <polyline
     class="Stem"
     fill="none"
     stroke="#000000"
     stroke-width="2.48"
     stroke-linejoin="bevel"
     points="1956.66,692.23 1956.66,615.698"
     id="polyline168"
     transform="translate(-212.598,-584.565)" />
  <polyline
     class="Stem"
     fill="none"
     stroke="#000000"
     stroke-width="2.48"
     stroke-linejoin="bevel"
     points="3237.17,1081.05 3237.17,1151.16"
     id="polyline170"
     transform="translate(-212.598,-584.565)" />
  <polyline
     class="Stem"
     fill="none"
     stroke="#000000"
     stroke-width="2.48"
     stroke-linejoin="bevel"
     points="3296.89,1056.25 3296.89,1145.21"
     id="polyline172"
     transform="translate(-212.598,-584.565)" />
  <polyline
     class="Stem"
     fill="none"
     stroke="#000000"
     stroke-width="2.48"
     stroke-linejoin="bevel"
     points="2044.59,687.965 2044.59,758.199"
     id="polyline174"
     transform="translate(-212.598,-584.565)" />
  <polyline
     class="Stem"
     fill="none"
     stroke="#000000"
     stroke-width="2.48"
     stroke-linejoin="bevel"
     points="3410.45,1068.65 3410.45,1145.09"
     id="polyline176"
     transform="translate(-212.598,-584.565)" />
  <polyline
     class="Stem"
     fill="none"
     stroke="#000000"
     stroke-width="2.48"
     stroke-linejoin="bevel"
     points="2196.44,704.63 2196.44,596.932"
     id="polyline178"
     transform="translate(-212.598,-584.565)" />
  <polyline
     class="Stem"
     fill="none"
     stroke="#000000"
     stroke-width="2.48"
     stroke-linejoin="bevel"
     points="3544.82,1068.65 3544.82,1145.09"
     id="polyline180"
     transform="translate(-212.598,-584.565)" />
  <polyline
     class="Stem"
     fill="none"
     stroke="#000000"
     stroke-width="2.48"
     stroke-linejoin="bevel"
     points="3714.65,1068.65 3714.65,1145.09"
     id="polyline182"
     transform="translate(-212.598,-584.565)" />
  <polyline
     class="Stem"
     fill="none"
     stroke="#000000"
     stroke-width="2.48"
     stroke-linejoin="bevel"
     points="2253.47,692.23 2253.47,593.898"
     id="polyline184"
     transform="translate(-212.598,-584.565)" />
  <polyline
     class="Stem"
     fill="none"
     stroke="#000000"
     stroke-width="2.48"
     stroke-linejoin="bevel"
     points="2310.49,679.83 2310.49,590.864"
     id="polyline186"
     transform="translate(-212.598,-584.565)" />
  <polyline
     class="Stem"
     fill="none"
     stroke="#000000"
     stroke-width="2.48"
     stroke-linejoin="bevel"
     points="2367.52,692.23 2367.52,597.128"
     id="polyline188"
     transform="translate(-212.598,-584.565)" />
  <polyline
     class="Stem"
     fill="none"
     stroke="#000000"
     stroke-width="2.48"
     stroke-linejoin="bevel"
     points="2424.54,704.63 2424.54,603.069"
     id="polyline190"
     transform="translate(-212.598,-584.565)" />
  <polyline
     class="Stem"
     fill="none"
     stroke="#000000"
     stroke-width="2.48"
     stroke-linejoin="bevel"
     points="2481.56,692.23 2481.56,615.598"
     id="polyline192"
     transform="translate(-212.598,-584.565)" />
  <polyline
     class="Stem"
     fill="none"
     stroke="#000000"
     stroke-width="2.48"
     stroke-linejoin="bevel"
     points="2573.93,687.965 2573.93,765.291"
     id="polyline194"
     transform="translate(-212.598,-584.565)" />
  <polyline
     class="Stem"
     fill="none"
     stroke="#000000"
     stroke-width="2.48"
     stroke-linejoin="bevel"
     points="2678.82,663.165 2678.82,745.799"
     id="polyline196"
     transform="translate(-212.598,-584.565)" />
  <polyline
     class="Stem"
     fill="none"
     stroke="#000000"
     stroke-width="2.48"
     stroke-linejoin="bevel"
     points="2800.92,675.565 2800.92,751.999"
     id="polyline198"
     transform="translate(-212.598,-584.565)" />
  <polyline
     class="Stem"
     fill="none"
     stroke="#000000"
     stroke-width="2.48"
     stroke-linejoin="bevel"
     points="2923.03,675.565 2923.03,751.999"
     id="polyline200"
     transform="translate(-212.598,-584.565)" />
  <polyline
     class="Stem"
     fill="none"
     stroke="#000000"
     stroke-width="2.48"
     stroke-linejoin="bevel"
     points="3156.03,663.165 3156.03,745.799"
     id="polyline202"
     transform="translate(-212.598,-584.565)" />
  <polyline
     class="Stem"
     fill="none"
     stroke="#000000"
     stroke-width="2.48"
     stroke-linejoin="bevel"
     points="3310.82,687.965 3310.82,765.291"
     id="polyline204"
     transform="translate(-212.598,-584.565)" />
  <polyline
     class="Stem"
     fill="none"
     stroke="#000000"
     stroke-width="2.48"
     stroke-linejoin="bevel"
     points="3397.59,704.63 3397.59,621.798"
     id="polyline206"
     transform="translate(-212.598,-584.565)" />
  <polyline
     class="Stem"
     fill="none"
     stroke="#000000"
     stroke-width="2.48"
     stroke-linejoin="bevel"
     points="3519.7,717.03 3519.7,634.298"
     id="polyline208"
     transform="translate(-212.598,-584.565)" />
  <polyline
     class="Stem"
     fill="none"
     stroke="#000000"
     stroke-width="2.48"
     stroke-linejoin="bevel"
     points="3656.39,729.43 3656.39,646.598"
     id="polyline210"
     transform="translate(-212.598,-584.565)" />
  <polyline
     class="Stem"
     fill="none"
     stroke="#000000"
     stroke-width="2.48"
     stroke-linejoin="bevel"
     points="3748.76,675.565 3748.76,751.999"
     id="polyline212"
     transform="translate(-212.598,-584.565)" />
  <path
     class="Hook"
     d="m 2360.092,180.826 c 0,0.79051 0.6975,1.581 1.488,1.581 0.7905,0 1.2865,-0.79049 1.488,-1.581 1.488,-10.21451 4.557,-13.19054 8.5251,-16.95707 5.3629,-5.06843 19.158,-12.71001 19.158,-31.06203 0,-3.27043 -0.2945,-6.944 -0.7905,-10.61748 0.2945,-1.28653 0.496,-3.06896 0.496,-5.64201 0,-7.84296 -4.5726,-13.29896 -7.8431,-15.88749 -0.403,-0.29452 -0.992,-0.496 -1.5964,-0.496 -0.3876,0 -1.674,0.31 -1.674,0.806 0,0.29453 0.5889,0.682 0.992,1.08495 3.472,3.67358 6.0449,7.05253 6.0449,13.68654 0,1.302 -0.093,2.58853 -0.3874,3.782 l -0.2015,0.29453 c -2.0926,8.32348 -16.5696,17.15854 -24.2111,18.84802 -0.6975,0.29452 -1.488,2.48 -1.488,2.68148 V 180.826 m 3.6735,-24.80002 c 0.093,-0.496 0.2015,-0.89905 0.2945,-1.19348 0.589,-2.48 1.488,-6.15358 7.2385,-10.61759 5.7506,-4.464 12.6015,-10.01296 15.283,-14.77149 -0.2015,7.62601 -1.984,12.40002 -4.6655,15.7635 -6.0449,7.44 -13.392,9.53253 -18.1505,10.81906"
     id="path214"
     style="stroke-width:0.992001" />
  <path
     class="Hook"
     d="m 1818.892,461.92956 c 0,0.29453 0.7905,0.682 1.488,0.992 2.573,0.88348 10.3231,5.84348 16.2751,14.67854 3.3634,5.05296 4.154,8.63349 4.154,11.99697 0,0.60452 0,1.10052 -0.093,1.68947 0,2.38705 -0.6975,7.44001 -2.1855,11.40801 -0.093,0.496 -0.3874,1.10053 -0.3874,1.59653 0,0.38748 0.186,0.79053 0.682,1.08505 0.2014,0.093 0.4029,0.093 0.496,0.093 0.6974,0 1.1004,-0.79052 1.488,-1.37947 1.798,-2.77453 4.3709,-8.13749 4.3709,-13.70202 0,-2.86748 -0.2014,-5.25453 -0.496,-7.33148 1.1006,-3.67358 1.8911,-7.34706 1.8911,-12.19854 0,-5.16148 -1.3951,-9.82706 -4.774,-14.29106 -4.65,-6.15348 -9.7186,-11.20644 -13.4851,-16.77097 -3.7665,-5.456 -6.541,-15.67054 -6.541,-15.67054 -0.2015,-0.6975 -0.31,-1.19351 -1.395,-1.19351 -1.1935,0 -1.488,0.49601 -1.488,1.19351 v 37.80456 m 20.7391,9.11401 c -2.6816,-3.472 -5.6576,-6.634 -10.5246,-11.50106 -3.8595,-3.87495 -5.6575,-7.23843 -6.2465,-9.82696 -0.2015,-0.496 -0.2945,-1.19348 -0.403,-1.984 5.0685,0.10852 11.5165,6.85096 15.0815,11.51654 3.875,5.05295 4.7586,9.12948 4.7586,12.78748 0,0.992 -0.093,1.98401 -0.186,2.97601 -0.806,-1.58106 -1.6896,-2.86748 -2.48,-3.96801"
     id="path216"
     style="stroke-width:0.992001" />
  <path
     class="Hook"
     d="m 1742.822,68.837563 c 0,0.294525 0.7905,0.682001 1.488,0.992001 2.573,0.883476 10.3231,5.843481 16.2751,14.67854 3.3634,5.052955 4.154,8.633483 4.154,11.996962 0,0.604525 0,1.100526 -0.093,1.689477 0,2.387047 -0.6975,7.440007 -2.1855,11.408007 -0.093,0.496 -0.3874,1.10053 -0.3874,1.59653 0,0.38748 0.186,0.79053 0.682,1.08505 0.2014,0.093 0.4029,0.093 0.496,0.093 0.6974,0 1.1004,-0.79052 1.488,-1.37947 1.798,-2.77453 4.3709,-8.13749 4.3709,-13.702018 0,-2.867478 -0.2014,-5.254531 -0.496,-7.331483 1.1006,-3.673578 1.8911,-7.347057 1.8911,-12.198537 0,-5.16148 -1.3951,-9.82706 -4.774,-14.291064 -4.65,-6.153482 -9.7186,-11.206437 -13.4851,-16.770967 -3.7665,-5.456006 -6.541,-15.670541 -6.541,-15.670541 -0.2015,-0.697501 -0.31,-1.193506 -1.395,-1.193506 -1.1935,0 -1.488,0.496005 -1.488,1.193506 v 37.804563 m 20.7391,9.114009 c -2.6816,-3.472003 -5.6576,-6.634007 -10.5246,-11.501061 -3.8595,-3.874954 -5.6575,-7.238433 -6.2465,-9.82696 -0.2015,-0.496001 -0.2945,-1.193477 -0.403,-1.984002 5.0685,0.108525 11.5165,6.850957 15.0815,11.516536 3.875,5.052955 4.7586,9.129484 4.7586,12.787488 0,0.992001 -0.093,1.984002 -0.186,2.976003 -0.806,-1.581051 -1.6896,-2.867478 -2.48,-3.968004"
     id="path218"
     style="stroke-width:0.992001" />
  <path
     class="Hook"
     d="m 3096.982,180.826 c 0,0.79051 0.6975,1.581 1.488,1.581 0.7905,0 1.2865,-0.79049 1.488,-1.581 1.488,-10.21451 4.557,-13.19054 8.5251,-16.95707 5.3629,-5.06843 19.158,-12.71001 19.158,-31.06203 0,-3.27043 -0.2945,-6.944 -0.7905,-10.61748 0.2945,-1.28653 0.496,-3.06896 0.496,-5.64201 0,-7.84296 -4.5726,-13.29896 -7.8431,-15.88749 -0.403,-0.29452 -0.992,-0.496 -1.5964,-0.496 -0.3876,0 -1.674,0.31 -1.674,0.806 0,0.29453 0.5889,0.682 0.992,1.08495 3.472,3.67358 6.0449,7.05253 6.0449,13.68654 0,1.302 -0.093,2.58853 -0.3874,3.782 l -0.2015,0.29453 c -2.0926,8.32348 -16.5696,17.15854 -24.2111,18.84802 -0.6975,0.29452 -1.488,2.48 -1.488,2.68148 V 180.826 m 3.6735,-24.80002 c 0.093,-0.496 0.2015,-0.89905 0.2945,-1.19348 0.589,-2.48 1.488,-6.15358 7.2385,-10.61759 5.7506,-4.464 12.6015,-10.01296 15.283,-14.77149 -0.2015,7.62601 -1.984,12.40002 -4.6655,15.7635 -6.0449,7.44 -13.392,9.53253 -18.1505,10.81906"
     id="path220"
     style="stroke-width:0.992001" />
  <path
     class="Hook"
     d="m 1095.802,75.037563 c 0,0.294525 0.7905,0.682001 1.488,0.992001 2.573,0.883476 10.3231,5.843481 16.2751,14.67854 3.3634,5.052955 4.154,8.633483 4.154,11.996966 0,0.60452 0,1.10052 -0.093,1.68947 0,2.38705 -0.6975,7.44001 -2.1855,11.40801 -0.093,0.496 -0.3874,1.10053 -0.3874,1.59653 0,0.38748 0.186,0.79053 0.682,1.08505 0.2014,0.093 0.4029,0.093 0.496,0.093 0.6974,0 1.1004,-0.79052 1.488,-1.37947 1.798,-2.77453 4.3709,-8.13749 4.3709,-13.70202 0,-2.86748 -0.2014,-5.254529 -0.496,-7.331481 1.1006,-3.673578 1.8911,-7.347057 1.8911,-12.198537 0,-5.16148 -1.3951,-9.82706 -4.774,-14.291064 -4.65,-6.153482 -9.7186,-11.206437 -13.4851,-16.770967 -3.7665,-5.456006 -6.541,-15.670541 -6.541,-15.670541 -0.2015,-0.697501 -0.31,-1.193506 -1.395,-1.193506 -1.1935,0 -1.488,0.496005 -1.488,1.193506 v 37.804563 m 20.7391,9.114009 c -2.6816,-3.472003 -5.6576,-6.634007 -10.5246,-11.501061 -3.8595,-3.874954 -5.6575,-7.238433 -6.2465,-9.82696 -0.2015,-0.496001 -0.2945,-1.193477 -0.403,-1.984002 5.0685,0.108525 11.5165,6.850957 15.0815,11.516536 3.875,5.052955 4.7586,9.129484 4.7586,12.787488 0,0.992001 -0.093,1.984002 -0.186,2.976003 -0.806,-1.581051 -1.6896,-2.867478 -2.48,-3.968004"
     id="path222"
     style="stroke-width:0.992001" />
  <path
     class="Hook"
     d="m 2019.352,480.52956 c 0,0.29453 0.7905,0.682 1.488,0.992 2.573,0.88348 10.3231,5.84348 16.2751,14.67854 3.3634,5.05296 4.154,8.63349 4.154,11.99697 0,0.60452 0,1.10052 -0.093,1.68947 0,2.38705 -0.6975,7.44001 -2.1855,11.40801 -0.093,0.496 -0.3874,1.10053 -0.3874,1.59653 0,0.38748 0.186,0.79053 0.682,1.08505 0.2014,0.0929 0.4029,0.0929 0.496,0.0929 0.6974,0 1.1004,-0.79052 1.488,-1.37947 1.798,-2.77453 4.3709,-8.13749 4.3709,-13.70202 0,-2.86748 -0.2014,-5.25453 -0.496,-7.33148 1.1006,-3.67358 1.8911,-7.34706 1.8911,-12.19854 0,-5.16148 -1.3951,-9.82706 -4.774,-14.29106 -4.65,-6.15348 -9.7186,-11.20644 -13.4851,-16.77097 -3.7665,-5.456 -6.541,-15.67054 -6.541,-15.67054 -0.2015,-0.6975 -0.31,-1.19351 -1.395,-1.19351 -1.1935,0 -1.488,0.49601 -1.488,1.19351 v 37.80456 m 20.7391,9.11401 c -2.6816,-3.472 -5.6576,-6.634 -10.5246,-11.50106 -3.8595,-3.87495 -5.6575,-7.23843 -6.2465,-9.82696 -0.2015,-0.496 -0.2945,-1.19348 -0.403,-1.984 5.0685,0.10852 11.5165,6.85096 15.0815,11.51654 3.875,5.05295 4.7586,9.12948 4.7586,12.78748 0,0.992 -0.093,1.98401 -0.186,2.97601 -0.806,-1.58106 -1.6896,-2.86748 -2.48,-3.96801"
     id="path224"
     style="stroke-width:0.992001" />
  <path
     class="Hook"
     d="m 3305.862,87.437563 c 0,0.294525 0.7905,0.682001 1.488,0.992001 2.573,0.883476 10.3231,5.843481 16.2751,14.678536 3.3634,5.05296 4.154,8.63349 4.154,11.99697 0,0.60452 0,1.10052 -0.093,1.68947 0,2.38705 -0.6975,7.44001 -2.1855,11.40801 -0.093,0.496 -0.3874,1.10053 -0.3874,1.59653 0,0.38748 0.186,0.79053 0.682,1.08505 0.2014,0.093 0.4029,0.093 0.496,0.093 0.6974,0 1.1004,-0.79052 1.488,-1.37947 1.798,-2.77453 4.3709,-8.13749 4.3709,-13.70202 0,-2.86748 -0.2014,-5.25453 -0.496,-7.33148 1.1006,-3.67358 1.8911,-7.34706 1.8911,-12.198538 0,-5.16148 -1.3951,-9.82706 -4.774,-14.291064 -4.65,-6.153482 -9.7186,-11.206437 -13.4851,-16.770967 -3.7665,-5.456006 -6.541,-15.670541 -6.541,-15.670541 -0.2015,-0.697501 -0.31,-1.193506 -1.395,-1.193506 -1.1935,0 -1.488,0.496005 -1.488,1.193506 v 37.804563 m 20.7391,9.114009 c -2.6816,-3.472003 -5.6576,-6.634007 -10.5246,-11.501061 -3.8595,-3.874954 -5.6575,-7.238433 -6.2465,-9.82696 -0.2015,-0.496001 -0.2945,-1.193477 -0.403,-1.984002 5.0685,0.108525 11.5165,6.850957 15.0815,11.516536 3.875,5.052955 4.7586,9.129484 4.7586,12.787488 0,0.992001 -0.093,1.984002 -0.186,2.976007 -0.806,-1.581055 -1.6896,-2.867482 -2.48,-3.968008"
     id="path226"
     style="stroke-width:0.992001" />
  <path
     class="Note"
     d="m 943.952,91.002509 c 0,4.262499 3.069,9.021031 11.11349,9.021031 10.30758,0 21.12654,-8.43203 21.12654,-17.158544 0,-5.859006 -4.96,-9.129484 -11.11348,-9.129484 -9.62549,0 -21.12655,8.137483 -21.12655,17.266997"
     id="path228"
     style="stroke-width:0.992001" />
  <path
     class="Note"
     d="m 3023.332,496.49451 c 0,4.2625 3.069,9.02103 11.1135,9.02103 10.3076,0 21.1265,-8.43203 21.1265,-17.15854 0,-5.85901 -4.96,-9.12949 -11.1135,-9.12949 -9.6254,0 -21.1265,8.13749 -21.1265,17.267"
     id="path230"
     style="stroke-width:0.992001" />
  <path
     class="Note"
     d="m 3657.032,91.002509 c 0,4.262499 3.069,9.021031 11.1135,9.021031 10.3076,0 21.1265,-8.43203 21.1265,-17.158544 0,-5.859006 -4.96,-9.129484 -11.1135,-9.129484 -9.6254,0 -21.1265,8.137483 -21.1265,17.266997"
     id="path232"
     style="stroke-width:0.992001" />
  <path
     class="Note"
     d="m 3083.052,471.69451 c 0,4.2625 3.069,9.02103 11.1135,9.02103 10.3076,0 21.1265,-8.43203 21.1265,-17.15854 0,-5.85901 -4.96,-9.12949 -11.1135,-9.12949 -9.6254,0 -21.1265,8.13748 -21.1265,17.267"
     id="path234"
     style="stroke-width:0.992001" />
  <path
     class="Note"
     d="m 371.875,128.20251 c 0,4.2625 3.069,9.02103 11.11349,9.02103 10.30758,0 21.12654,-8.43203 21.12654,-17.15854 0,-5.85901 -4.96,-9.12949 -11.11348,-9.12949 -9.62549,0 -21.12655,8.13748 -21.12655,17.267"
     id="path236"
     style="stroke-width:0.992001" />
  <path
     class="Note"
     d="m 547.875,153.00251 c 0,4.2625 3.069,9.02103 11.11349,9.02103 10.30758,0 21.12654,-8.43203 21.12654,-17.15854 0,-5.85901 -4.96,-9.12949 -11.11348,-9.12949 -9.62549,0 -21.12655,8.13748 -21.12655,17.267"
     id="path238"
     style="stroke-width:0.992001" />
  <path
     class="Note"
     d="m 794.832,484.09451 c 0,4.2625 3.069,9.02103 11.11349,9.02103 10.30758,0 21.12654,-8.43203 21.12654,-17.15854 0,-5.85901 -4.96,-9.12949 -11.11348,-9.12949 -9.62549,0 -21.12655,8.13748 -21.12655,17.267"
     id="path240"
     style="stroke-width:0.992001" />
  <path
     class="Note"
     d="m 658.792,140.60251 c 0,4.2625 3.069,9.02103 11.11349,9.02103 10.30758,0 21.12654,-8.43203 21.12654,-17.15854 0,-5.85901 -4.96,-9.12949 -11.11348,-9.12949 -9.62549,0 -21.12655,8.13748 -21.12655,17.267"
     id="path242"
     style="stroke-width:0.992001" />
  <path
     class="Note"
     d="m 744.347,128.20251 c 0,4.2625 3.069,9.02103 11.11349,9.02103 10.30758,0 21.12654,-8.43203 21.12654,-17.15854 0,-5.85901 -4.96,-9.12949 -11.11348,-9.12949 -9.62549,0 -21.12655,8.13748 -21.12655,17.267"
     id="path244"
     style="stroke-width:0.992001" />
  <path
     class="Note"
     d="m 829.902,115.80251 c 0,4.2625 3.069,9.02103 11.11349,9.02103 10.30758,0 21.12654,-8.43203 21.12654,-17.15854 0,-5.85901 -4.96,-9.129488 -11.11348,-9.129488 -9.62549,0 -21.12655,8.137478 -21.12655,17.266998"
     id="path246"
     style="stroke-width:0.992001" />
  <path
     class="Note"
     d="m 3196.612,484.09451 c 0,4.2625 3.069,9.02103 11.1135,9.02103 10.3076,0 21.1265,-8.43203 21.1265,-17.15854 0,-5.85901 -4.96,-9.12949 -11.1135,-9.12949 -9.6254,0 -21.1265,8.13748 -21.1265,17.267"
     id="path248"
     style="stroke-width:0.992001" />
  <path
     class="Note"
     d="m 886.932,103.40251 c 0,4.2625 3.069,9.02103 11.11349,9.02103 10.30758,0 21.12654,-8.43203 21.12654,-17.158544 0,-5.859006 -4.96,-9.129484 -11.11348,-9.129484 -9.62549,0 -21.12655,8.137483 -21.12655,17.266998"
     id="path250"
     style="stroke-width:0.992001" />
  <path
     class="Note"
     d="m 1713.072,115.80251 c 0,4.2625 3.069,9.02103 11.1135,9.02103 10.3076,0 21.1265,-8.43203 21.1265,-17.15854 0,-5.85901 -4.96,-9.129488 -11.1135,-9.129488 -9.6254,0 -21.1265,8.137478 -21.1265,17.266998"
     id="path252"
     style="stroke-width:0.992001" />
  <path
     class="Note"
     d="m 1066.062,128.20251 c 0,4.2625 3.069,9.02103 11.1135,9.02103 10.3076,0 21.1265,-8.43203 21.1265,-17.15854 0,-5.85901 -4.96,-9.12949 -11.1135,-9.12949 -9.6254,0 -21.1265,8.13748 -21.1265,17.267"
     id="path254"
     style="stroke-width:0.992001" />
  <path
     class="Note"
     d="m 1183.732,115.80251 c 0,4.2625 3.069,9.02103 11.1135,9.02103 10.3076,0 21.1265,-8.43203 21.1265,-17.15854 0,-5.85901 -4.96,-9.129488 -11.1135,-9.129488 -9.6254,0 -21.1265,8.137478 -21.1265,17.266998"
     id="path256"
     style="stroke-width:0.992001" />
  <path
     class="Note"
     d="m 1305.842,140.60251 c 0,4.2625 3.069,9.02103 11.1135,9.02103 10.3076,0 21.1265,-8.43203 21.1265,-17.15854 0,-5.85901 -4.96,-9.12949 -11.1135,-9.12949 -9.6254,0 -21.1265,8.13748 -21.1265,17.267"
     id="path258"
     style="stroke-width:0.992001" />
  <path
     class="Note"
     d="m 144.073,521.29451 c 0,4.2625 3.069,9.02103 11.11349,9.02103 10.30758,0 21.12654,-8.43203 21.12654,-17.15854 0,-5.85901 -4.96,-9.12949 -11.11348,-9.12949 -9.62549,0 -21.12655,8.13748 -21.12655,17.267"
     id="path260"
     style="stroke-width:0.992001" />
  <path
     class="Note"
     d="m 1362.872,128.20251 c 0,4.2625 3.069,9.02103 11.1135,9.02103 10.3076,0 21.1265,-8.43203 21.1265,-17.15854 0,-5.85901 -4.96,-9.12949 -11.1135,-9.12949 -9.6254,0 -21.1265,8.13748 -21.1265,17.267"
     id="path262"
     style="stroke-width:0.992001" />
  <path
     class="Note"
     d="m 1419.892,115.80251 c 0,4.2625 3.069,9.02103 11.1135,9.02103 10.3076,0 21.1265,-8.43203 21.1265,-17.15854 0,-5.85901 -4.96,-9.129488 -11.1135,-9.129488 -9.6254,0 -21.1265,8.137478 -21.1265,17.266998"
     id="path264"
     style="stroke-width:0.992001" />
  <path
     class="Note"
     d="m 1476.922,103.40251 c 0,4.2625 3.069,9.02103 11.1135,9.02103 10.3076,0 21.1265,-8.43203 21.1265,-17.158544 0,-5.859006 -4.96,-9.129484 -11.1135,-9.129484 -9.6254,0 -21.1265,8.137483 -21.1265,17.266998"
     id="path266"
     style="stroke-width:0.992001" />
  <path
     class="Note"
     d="m 3330.982,484.09451 c 0,4.2625 3.069,9.02103 11.1135,9.02103 10.3076,0 21.1265,-8.43203 21.1265,-17.15854 0,-5.85901 -4.96,-9.12949 -11.1135,-9.12949 -9.6254,0 -21.1265,8.13748 -21.1265,17.267"
     id="path268"
     style="stroke-width:0.992001" />
  <path
     class="Note"
     d="m 1533.942,91.002509 c 0,4.262499 3.069,9.021031 11.1135,9.021031 10.3076,0 21.1265,-8.43203 21.1265,-17.158544 0,-5.859006 -4.96,-9.129484 -11.1135,-9.129484 -9.6254,0 -21.1265,8.137483 -21.1265,17.266997"
     id="path270"
     style="stroke-width:0.992001" />
  <path
     class="Note"
     d="m 1590.962,78.602509 c 0,4.262499 3.069,9.021029 11.1135,9.021029 10.3076,0 21.1265,-8.432028 21.1265,-17.158542 0,-5.859006 -4.96,-9.129484 -11.1135,-9.129484 -9.6254,0 -21.1265,8.137483 -21.1265,17.266997"
     id="path272"
     style="stroke-width:0.992001" />
  <path
     class="Note"
     d="m 2123.932,115.80251 c 0,4.2625 3.069,9.02103 11.1135,9.02103 10.3076,0 21.1265,-8.43203 21.1265,-17.15854 0,-5.85901 -4.96,-9.129488 -11.1135,-9.129488 -9.6254,0 -21.1265,8.137478 -21.1265,17.266998"
     id="path274"
     style="stroke-width:0.992001" />
  <path
     class="Note"
     d="m 1830.752,103.40251 c 0,4.2625 3.069,9.02103 11.1135,9.02103 10.3076,0 21.1265,-8.43203 21.1265,-17.158544 0,-5.859006 -4.96,-9.129484 -11.1135,-9.129484 -9.6254,0 -21.1265,8.137483 -21.1265,17.266998"
     id="path276"
     style="stroke-width:0.992001" />
  <path
     class="Note"
     d="m 1952.862,128.20251 c 0,4.2625 3.069,9.02103 11.1135,9.02103 10.3076,0 21.1265,-8.43203 21.1265,-17.15854 0,-5.85901 -4.96,-9.12949 -11.1135,-9.12949 -9.6254,0 -21.1265,8.13748 -21.1265,17.267"
     id="path278"
     style="stroke-width:0.992001" />
  <path
     class="Note"
     d="m 929.202,484.09451 c 0,4.2625 3.069,9.02103 11.11349,9.02103 10.30758,0 21.12654,-8.43203 21.12654,-17.15854 0,-5.85901 -4.96,-9.12949 -11.11348,-9.12949 -9.62549,0 -21.12655,8.13748 -21.12655,17.267"
     id="path280"
     style="stroke-width:0.992001" />
  <path
     class="Note"
     d="m 3096.982,103.40251 c 0,4.2625 3.069,9.02103 11.1135,9.02103 10.3076,0 21.1265,-8.43203 21.1265,-17.158544 0,-5.859006 -4.96,-9.129484 -11.1135,-9.129484 -9.6254,0 -21.1265,8.137483 -21.1265,17.266998"
     id="path282"
     style="stroke-width:0.992001" />
  <path
     class="Note"
     d="m 3521.9385,466.82751 c -9.6254,0 -21.1265,8.04448 -21.1265,17.267 0,4.2625 3.069,9.02103 11.1135,9.02103 10.3076,0 21.1265,-8.43203 21.1265,-17.15854 0,-5.85901 -4.96,-9.12949 -11.1135,-9.12949 m -13.6865,21.6225 c -3.2705,0 -3.968,-2.666 -3.968,-3.56501 0,-4.867 16.6625,-13.39201 21.328,-13.39201 2.3871,0 3.968,1.395 3.968,3.56501 0,4.96 -16.7709,13.39201 -21.328,13.39201"
     id="path284"
     style="stroke-width:0.992001" />
  <path
     class="Note"
     d="m 1141.332,496.49451 c 0,4.2625 3.069,9.02103 11.1135,9.02103 10.3076,0 21.1265,-8.43203 21.1265,-17.15854 0,-5.85901 -4.96,-9.12949 -11.1135,-9.12949 -9.6254,0 -21.1265,8.13749 -21.1265,17.267"
     id="path286"
     style="stroke-width:0.992001" />
  <path
     class="Note"
     d="m 2066.912,103.40251 c 0,4.2625 3.069,9.02103 11.1135,9.02103 10.3076,0 21.1265,-8.43203 21.1265,-17.158544 0,-5.859006 -4.96,-9.129484 -11.1135,-9.129484 -9.6254,0 -21.1265,8.137483 -21.1265,17.266998"
     id="path288"
     style="stroke-width:0.992001" />
  <path
     class="Note"
     d="m 3534.922,91.002509 c 0,4.262499 3.069,9.021031 11.1135,9.021031 10.3076,0 21.1265,-8.43203 21.1265,-17.158544 0,-5.859006 -4.96,-9.129484 -11.1135,-9.129484 -9.6254,0 -21.1265,8.137483 -21.1265,17.266997"
     id="path290"
     style="stroke-width:0.992001" />
  <path
     class="Note"
     d="m 2009.882,115.80251 c 0,4.2625 3.069,9.02103 11.1135,9.02103 10.3076,0 21.1265,-8.43203 21.1265,-17.15854 0,-5.85901 -4.96,-9.129488 -11.1135,-9.129488 -9.6254,0 -21.1265,8.137478 -21.1265,17.266998"
     id="path292"
     style="stroke-width:0.992001" />
  <path
     class="Note"
     d="m 1201.052,471.69451 c 0,4.2625 3.069,9.02103 11.1135,9.02103 10.3076,0 21.1265,-8.43203 21.1265,-17.15854 0,-5.85901 -4.96,-9.12949 -11.1135,-9.12949 -9.6254,0 -21.1265,8.13748 -21.1265,17.267"
     id="path294"
     style="stroke-width:0.992001" />
  <path
     class="Note"
     d="m 203.793,533.69451 c 0,4.2625 3.069,9.02103 11.11349,9.02103 10.30758,0 21.12654,-8.43203 21.12654,-17.15854 0,-5.85901 -4.96,-9.12949 -11.11348,-9.12949 -9.62549,0 -21.12655,8.13748 -21.12655,17.267"
     id="path296"
     style="stroke-width:0.992001" />
  <path
     class="Note"
     d="m 1314.612,484.09451 c 0,4.2625 3.069,9.02103 11.1135,9.02103 10.3076,0 21.1265,-8.43203 21.1265,-17.15854 0,-5.85901 -4.96,-9.12949 -11.1135,-9.12949 -9.6254,0 -21.1265,8.13748 -21.1265,17.267"
     id="path298"
     style="stroke-width:0.992001" />
  <path
     class="Note"
     d="m 1448.982,484.09451 c 0,4.2625 3.069,9.02103 11.1135,9.02103 10.3076,0 21.1265,-8.43203 21.1265,-17.15854 0,-5.85901 -4.96,-9.12949 -11.1135,-9.12949 -9.6254,0 -21.1265,8.13748 -21.1265,17.267"
     id="path300"
     style="stroke-width:0.992001" />
  <path
     class="Note"
     d="m 2942.192,78.602509 c 0,4.262499 3.069,9.021029 11.1135,9.021029 10.3076,0 21.1265,-8.432028 21.1265,-17.158542 0,-5.859006 -4.96,-9.129484 -11.1135,-9.129484 -9.6254,0 -21.1265,8.137483 -21.1265,17.266997"
     id="path302"
     style="stroke-width:0.992001" />
  <path
     class="Note"
     d="m 2709.192,91.002509 c 0,4.262499 3.069,9.021031 11.1135,9.021031 10.3076,0 21.1265,-8.43203 21.1265,-17.158544 0,-5.859006 -4.96,-9.129484 -11.1135,-9.129484 -9.6254,0 -21.1265,8.137483 -21.1265,17.266997"
     id="path304"
     style="stroke-width:0.992001" />
  <path
     class="Note"
     d="m 3412.812,153.00251 c 0,4.2625 3.069,9.02103 11.1135,9.02103 10.3076,0 21.1265,-8.43203 21.1265,-17.15854 0,-5.85901 -4.96,-9.12949 -11.1135,-9.12949 -9.6254,0 -21.1265,8.13748 -21.1265,17.267"
     id="path306"
     style="stroke-width:0.992001" />
  <path
     class="Note"
     d="m 1618.812,484.09451 c 0,4.2625 3.069,9.02103 11.1135,9.02103 10.3076,0 21.1265,-8.43203 21.1265,-17.15854 0,-5.85901 -4.96,-9.12949 -11.1135,-9.12949 -9.6254,0 -21.1265,8.13748 -21.1265,17.267"
     id="path308"
     style="stroke-width:0.992001" />
  <path
     class="Note"
     d="m 317.35,471.69451 c 0,4.2625 3.069,9.02103 11.11349,9.02103 10.30758,0 21.12654,-8.43203 21.12654,-17.15854 0,-5.85901 -4.96,-9.12949 -11.11348,-9.12949 -9.62549,0 -21.12655,8.13748 -21.12655,17.267"
     id="path310"
     style="stroke-width:0.992001" />
  <path
     class="Note"
     d="m 1789.152,508.89451 c 0,4.2625 3.069,9.02103 11.1135,9.02103 10.3076,0 21.1265,-8.43203 21.1265,-17.15854 0,-5.85901 -4.96,-9.12949 -11.1135,-9.12949 -9.6254,0 -21.1265,8.13748 -21.1265,17.267"
     id="path312"
     style="stroke-width:0.992001" />
  <path
     class="Note"
     d="m 3276.112,140.60251 c 0,4.2625 3.069,9.02103 11.1135,9.02103 10.3076,0 21.1265,-8.43203 21.1265,-17.15854 0,-5.85901 -4.96,-9.12949 -11.1135,-9.12949 -9.6254,0 -21.1265,8.13748 -21.1265,17.267"
     id="path314"
     style="stroke-width:0.992001" />
  <path
     class="Note"
     d="m 1855.242,521.29451 c 0,4.2625 3.069,9.02103 11.1135,9.02103 10.3076,0 21.1265,-8.43203 21.1265,-17.15854 0,-5.85901 -4.96,-9.12949 -11.1135,-9.12949 -9.6254,0 -21.1265,8.13748 -21.1265,17.267"
     id="path316"
     style="stroke-width:0.992001" />
  <path
     class="Note"
     d="m 451.719,471.69451 c 0,4.2625 3.069,9.02103 11.11349,9.02103 10.30758,0 21.12654,-8.43203 21.12654,-17.15854 0,-5.85901 -4.96,-9.12949 -11.11348,-9.12949 -9.62549,0 -21.12655,8.13748 -21.12655,17.267"
     id="path318"
     style="stroke-width:0.992001" />
  <path
     class="Note"
     d="m 1989.612,533.69451 c 0,4.2625 3.069,9.02103 11.1135,9.02103 10.3076,0 21.1265,-8.43203 21.1265,-17.15854 0,-5.85901 -4.96,-9.12949 -11.1135,-9.12949 -9.6254,0 -21.1265,8.13748 -21.1265,17.267"
     id="path320"
     style="stroke-width:0.992001" />
  <path
     class="Note"
     d="m 2587.082,91.002509 c 0,4.262499 3.069,9.021031 11.1135,9.021031 10.3076,0 21.1265,-8.43203 21.1265,-17.158544 0,-5.859006 -4.96,-9.129484 -11.1135,-9.129484 -9.6254,0 -21.1265,8.137483 -21.1265,17.266997"
     id="path322"
     style="stroke-width:0.992001" />
  <path
     class="Note"
     d="m 2464.982,78.602509 c 0,4.262499 3.069,9.021029 11.1135,9.021029 10.3076,0 21.1265,-8.432028 21.1265,-17.158542 0,-5.859006 -4.96,-9.129484 -11.1135,-9.129484 -9.6254,0 -21.1265,8.137483 -21.1265,17.266997"
     id="path324"
     style="stroke-width:0.992001" />
  <path
     class="Note"
     d="m 2107.282,546.09451 c 0,4.2625 3.069,9.02103 11.1135,9.02103 10.3076,0 21.1265,-8.43203 21.1265,-17.15854 0,-5.85901 -4.96,-9.12949 -11.1135,-9.12949 -9.6254,0 -21.1265,8.13748 -21.1265,17.267"
     id="path326"
     style="stroke-width:0.992001" />
  <path
     class="Note"
     d="m 3154.012,128.20251 c 0,4.2625 3.069,9.02103 11.1135,9.02103 10.3076,0 21.1265,-8.43203 21.1265,-17.15854 0,-5.85901 -4.96,-9.12949 -11.1135,-9.12949 -9.6254,0 -21.1265,8.13748 -21.1265,17.267"
     id="path328"
     style="stroke-width:0.992001" />
  <path
     class="Note"
     d="m 2241.652,484.09451 c 0,4.2625 3.069,9.02103 11.1135,9.02103 10.3076,0 21.1265,-8.43203 21.1265,-17.15854 0,-5.85901 -4.96,-9.12949 -11.1135,-9.12949 -9.6254,0 -21.1265,8.13748 -21.1265,17.267"
     id="path330"
     style="stroke-width:0.992001" />
  <path
     class="Note"
     d="m 2376.022,484.09451 c 0,4.2625 3.069,9.02103 11.1135,9.02103 10.3076,0 21.1265,-8.43203 21.1265,-17.15854 0,-5.85901 -4.96,-9.12949 -11.1135,-9.12949 -9.6254,0 -21.1265,8.13748 -21.1265,17.267"
     id="path332"
     style="stroke-width:0.992001" />
  <path
     class="Note"
     d="m 2360.092,103.40251 c 0,4.2625 3.069,9.02103 11.1135,9.02103 10.3076,0 21.1265,-8.43203 21.1265,-17.158544 0,-5.859006 -4.96,-9.129484 -11.1135,-9.129484 -9.6254,0 -21.1265,8.137483 -21.1265,17.266998"
     id="path334"
     style="stroke-width:0.992001" />
  <path
     class="Note"
     d="m 621.553,533.69451 c 0,4.2625 3.069,9.02103 11.11349,9.02103 10.30758,0 21.12654,-8.43203 21.12654,-17.15854 0,-5.85901 -4.96,-9.12949 -11.11348,-9.12949 -9.62549,0 -21.12655,8.13748 -21.12655,17.267"
     id="path336"
     style="stroke-width:0.992001" />
  <path
     class="Note"
     d="m 2545.852,521.29451 c 0,4.2625 3.069,9.02103 11.1135,9.02103 10.3076,0 21.1265,-8.43203 21.1265,-17.15854 0,-5.85901 -4.96,-9.12949 -11.1135,-9.12949 -9.6254,0 -21.1265,8.13748 -21.1265,17.267"
     id="path338"
     style="stroke-width:0.992001" />
  <path
     class="Note"
     d="m 2605.572,533.69451 c 0,4.2625 3.069,9.02103 11.1135,9.02103 10.3076,0 21.1265,-8.43203 21.1265,-17.15854 0,-5.85901 -4.96,-9.12949 -11.1135,-9.12949 -9.6254,0 -21.1265,8.13748 -21.1265,17.267"
     id="path340"
     style="stroke-width:0.992001" />
  <path
     class="Note"
     d="m 2719.132,471.69451 c 0,4.2625 3.069,9.02103 11.1135,9.02103 10.3076,0 21.1265,-8.43203 21.1265,-17.15854 0,-5.85901 -4.96,-9.12949 -11.1135,-9.12949 -9.6254,0 -21.1265,8.13748 -21.1265,17.267"
     id="path342"
     style="stroke-width:0.992001" />
  <path
     class="Note"
     d="m 681.272,546.09451 c 0,4.2625 3.069,9.02103 11.11349,9.02103 10.30758,0 21.12654,-8.43203 21.12654,-17.15854 0,-5.85901 -4.96,-9.12949 -11.11348,-9.12949 -9.62549,0 -21.12655,8.13748 -21.12655,17.267"
     id="path344"
     style="stroke-width:0.992001" />
  <path
     class="Note"
     d="m 2853.502,471.69451 c 0,4.2625 3.069,9.02103 11.1135,9.02103 10.3076,0 21.1265,-8.43203 21.1265,-17.15854 0,-5.85901 -4.96,-9.12949 -11.1135,-9.12949 -9.6254,0 -21.1265,8.13748 -21.1265,17.267"
     id="path346"
     style="stroke-width:0.992001" />
  <path
     class="Note"
     d="m 2237.982,115.80251 c 0,4.2625 3.069,9.02103 11.1135,9.02103 10.3076,0 21.1265,-8.43203 21.1265,-17.15854 0,-5.85901 -4.96,-9.129488 -11.1135,-9.129488 -9.6254,0 -21.1265,8.137478 -21.1265,17.266998"
     id="path348"
     style="stroke-width:0.992001" />
  <path
     class="Note"
     d="m 2180.962,128.20251 c 0,4.2625 3.069,9.02103 11.1135,9.02103 10.3076,0 21.1265,-8.43203 21.1265,-17.15854 0,-5.85901 -4.96,-9.12949 -11.1135,-9.12949 -9.6254,0 -21.1265,8.13748 -21.1265,17.267"
     id="path350"
     style="stroke-width:0.992001" />
  <path
     class="Clef"
     d="m 206.08906,123.7385 c 0,-14.88004 -10.61748,-25.001526 -25.09455,-25.001526 -0.992,-5.952006 -1.89095,-11.904012 -2.77442,-17.360017 10.41601,-11.020536 17.74749,-23.513499 17.74749,-39.18404 0,-9.129484 -2.77453,-16.368016 -4.46401,-19.948148 -2.37147,-5.053253 -5.25453,-8.634376 -6.944,-8.634376 -0.682,0 -3.85948,1.302497 -7.03706,5.162373 -6.44801,7.548135 -8.23043,20.134148 -8.23043,28.473107 0,5.363055 0.496,10.214535 2.18547,21.436546 -0.10852,0 -5.27,5.25453 -7.34705,7.037057 -9.03644,8.338959 -21.5295,20.428971 -21.5295,40.176014 0,18.64657 16.16654,33.23206 34.62708,33.23206 2.86748,0 5.54896,-0.29453 7.93601,-0.69748 1.78243,9.53244 2.97601,16.47645 2.97601,21.73098 0,10.32306 -5.36306,15.77906 -15.28307,15.77906 -2.48,0 -4.55695,-0.496 -4.66548,-0.60452 -0.186,0 -0.38747,-0.0931 -0.38747,-0.186 0,-0.20148 0.20147,-0.31 0.496,-0.40305 4.66548,-0.69748 9.31548,-4.66548 9.31548,-11.00497 0,-5.36305 -4.06105,-11.02053 -11.50106,-11.02053 -6.85096,0 -11.31496,5.65748 -11.31496,12.19854 0,6.55653 4.96,15.19001 18.35202,15.19001 12.80296,0 19.04949,-7.25401 19.04949,-19.94854 0,-3.85948 -0.58895,-8.32349 -1.58095,-13.98097 -0.29453,-1.984 -0.79053,-5.06853 -1.488,-8.83506 9.71843,-3.27052 16.95696,-13.29896 16.95696,-23.60652 M 175.53851,42.487443 c 0.992,-3.968004 5.456,-14.384015 10.61758,-14.384015 1.48801,0 3.96801,4.75843 3.96801,11.702437 0,10.214536 -7.73454,17.964543 -14.58559,24.800025 -0.58895,-3.968004 -1.08495,-7.936008 -1.08495,-11.996962 0,-3.766529 0.38747,-7.052532 1.08495,-10.121485 m 2.976,102.579057 c -14.18244,0 -26.288,-9.92001 -26.288,-24.9085 0,-12.09007 8.63356,-22.909027 17.26704,-30.55051 1.674,-1.395051 3.27053,-2.883052 4.75853,-4.262529 0.88348,5.347481 1.68948,9.92001 2.27843,14.089489 -9.03644,2.57305 -15.17444,12.19854 -15.17444,21.42104 0,7.05251 5.456,16.56952 13.39201,16.56952 0.79043,0 1.68948,-0.40295 1.68948,-1.39495 0,-0.79052 -0.89905,-1.37957 -2.18548,-2.17005 -3.87505,-2.294 -6.06053,-4.96001 -6.06053,-9.73401 0,-6.04501 4.57253,-10.91206 10.32296,-12.29154 l 5.75053,32.53456 c -1.984,0.496 -3.76653,0.69748 -5.75053,0.69748 m 9.92001,-1.89096 c -2.07695,-11.79553 -4.75843,-27.57455 -5.456,-31.9456 10.01306,0 14.29106,6.94405 15.17454,11.71806 0.10852,0.7905 0.29452,1.8755 0.29452,3.069 0,7.14551 -2.976,14.38402 -10.01306,17.15854 m -3.87495,51.98701 c 0,-3.67348 -3.36348,-5.25443 -6.63401,-5.25443 -4.16948,0 -8.24601,2.57295 -8.24601,7.03695 0,1.89106 0.69748,3.28601 2.18548,4.66548 -2.57295,0.992 -5.25453,2.97601 -5.25453,6.06053 0,3.27053 2.976,5.45601 7.34706,5.45601 5.34748,0 9.11401,-2.976 9.11401,-7.25401 0,-2.27852 -0.99201,-4.154 -2.77453,-5.456 2.88305,-1.28653 4.26253,-2.86748 4.26253,-5.25453 m -6.13801,3.968 c -1.488,-0.79043 -1.89105,-0.992 -2.18548,-1.19348 l -0.10852,-0.093 c -1.58105,-0.89905 -2.07705,-1.59652 -2.07705,-2.77452 0,-1.79801 1.39505,-3.08453 3.37905,-3.08453 1.984,0 3.06895,1.19347 3.06895,3.27053 0,1.59652 -0.58895,2.68147 -2.07695,3.87495 m -3.782,11.90401 c -2.17001,0 -3.65801,-1.37947 -3.65801,-3.472 0,-1.87548 0.88348,-3.56495 2.57296,-4.55696 0.40305,0.20148 0.496,0.29453 0.79052,0.38748 1.19348,0.60453 1.19348,0.60453 1.39505,0.806 1.98401,1.08505 2.68148,2.07705 2.68148,3.472 0,1.87548 -1.59653,3.36348 -3.782,3.36348"
     id="path352"
     style="stroke-width:0.992001" />
  <path
     class="Clef"
     d="m 82.088064,516.8305 c 0,-14.88004 -10.617486,-25.00153 -25.09455,-25.00153 -0.992001,-5.952 -1.890952,-11.90401 -2.774428,-17.36001 10.41601,-11.02054 17.747493,-23.5135 17.747493,-39.18404 0,-9.12949 -2.774528,-16.36802 -4.464005,-19.94815 -2.371477,-5.05325 -5.25453,-8.63438 -6.944007,-8.63438 -0.682001,0 -3.859479,1.3025 -7.037057,5.16238 -6.448006,7.54813 -8.230433,20.13414 -8.230433,28.4731 0,5.36306 0.496,10.21454 2.185477,21.43655 -0.108525,0 -5.270005,5.25453 -7.347057,7.03706 C 31.093062,477.15043 18.6,489.24045 18.6,508.98749 c 0,18.64657 16.166541,33.23206 34.627085,33.23206 2.867478,0 5.548955,-0.29453 7.936008,-0.69748 1.782427,9.53244 2.976003,16.47645 2.976003,21.73098 0,10.32306 -5.363056,15.77906 -15.283066,15.77906 -2.480002,0 -4.556954,-0.496 -4.665479,-0.60452 -0.186001,0 -0.387476,-0.0931 -0.387476,-0.186 0,-0.20148 0.201475,-0.31 0.496001,-0.40305 4.665479,-0.69748 9.315484,-4.66548 9.315484,-11.00497 0,-5.36305 -4.061054,-11.02053 -11.501061,-11.02053 -6.850957,0 -11.314962,5.65748 -11.314962,12.19854 0,6.55653 4.960005,15.19001 18.352019,15.19001 12.802963,0 19.049494,-7.25401 19.049494,-19.94854 0,-3.85948 -0.588951,-8.32349 -1.580952,-13.98097 -0.294525,-1.984 -0.790526,-5.06853 -1.488001,-8.83506 9.718435,-3.27052 16.956967,-13.29896 16.956967,-23.60652 M 51.537508,435.57944 c 0.992001,-3.968 5.456006,-14.38401 10.617586,-14.38401 1.488001,0 3.968004,4.75843 3.968004,11.70244 0,10.21453 -7.734533,17.96454 -14.58559,24.80002 -0.588951,-3.968 -1.084951,-7.93601 -1.084951,-11.99696 0,-3.76653 0.387475,-7.05253 1.084951,-10.12149 m 2.976003,102.57906 c -14.182439,0 -26.287996,-9.92001 -26.287996,-24.9085 0,-12.09007 8.633553,-22.90903 17.267037,-30.55051 1.674002,-1.39505 3.270528,-2.88305 4.75853,-4.26253 0.883476,5.34748 1.689476,9.92001 2.278427,14.08949 -9.036434,2.57305 -15.17444,12.19854 -15.17444,21.42104 0,7.05251 5.456005,16.56952 13.392013,16.56952 0.790426,0 1.689477,-0.40295 1.689477,-1.39495 0,-0.79052 -0.899051,-1.37957 -2.185477,-2.17005 -3.875054,-2.294 -6.060531,-4.96001 -6.060531,-9.73401 0,-6.04501 4.572529,-10.91206 10.32296,-12.29154 l 5.750531,32.53456 c -1.984002,0.496 -3.766529,0.69748 -5.750531,0.69748 m 9.92001,-1.89096 c -2.076952,-11.79553 -4.75843,-27.57455 -5.456005,-31.9456 10.01306,0 14.291064,6.94405 15.17454,11.71806 0.108525,0.7905 0.294525,1.8755 0.294525,3.069 0,7.14551 -2.976003,14.38402 -10.01306,17.15854 m -3.874954,51.98701 c 0,-3.67348 -3.363478,-5.25443 -6.634007,-5.25443 -4.169479,0 -8.246008,2.57295 -8.246008,7.03695 0,1.89106 0.697476,3.28601 2.185477,4.66548 -2.572952,0.992 -5.25453,2.97601 -5.25453,6.06053 0,3.27053 2.976003,5.45601 7.347057,5.45601 5.347481,0 9.11401,-2.976 9.11401,-7.25401 0,-2.27852 -0.992001,-4.154 -2.774528,-5.456 2.883053,-1.28653 4.262529,-2.86748 4.262529,-5.25453 m -6.138006,3.968 c -1.488002,-0.79043 -1.891052,-0.992 -2.185477,-1.19348 l -0.108525,-0.093 c -1.581052,-0.89905 -2.077052,-1.59652 -2.077052,-2.77452 0,-1.79801 1.395051,-3.08453 3.379053,-3.08453 1.984002,0 3.068953,1.19347 3.068953,3.27053 0,1.59652 -0.588951,2.68147 -2.076952,3.87495 m -3.782004,11.90401 c -2.170002,0 -3.658004,-1.37947 -3.658004,-3.472 0,-1.87548 0.883476,-3.56495 2.572953,-4.55696 0.40305,0.20148 0.496001,0.29453 0.790526,0.38748 1.193476,0.60453 1.193476,0.60453 1.395051,0.806 1.984002,1.08505 2.681478,2.07705 2.681478,3.472 0,1.87548 -1.596527,3.36348 -3.782004,3.36348"
     id="path354"
     style="stroke-width:0.992001" />
  <path
     class="TimeSig"
     d="m 254.2005,70.17049 c -6.06043,0 -8.23043,1.782507 -9.62549,3.270508 -0.29452,-2.077002 -0.496,-3.673508 -0.496,-5.25451 0,-5.657501 1.98401,-13.004558 8.92801,-13.004558 2.48001,0 3.96801,0.806001 4.96001,1.891052 -2.07695,0.898951 -3.76653,3.564954 -3.76653,5.858956 0,3.565053 2.77453,6.339551 6.35506,6.339551 3.56495,0 6.448,-2.774498 6.448,-6.339551 v -0.31 c 0,-0.883476 -0.20147,-2.371478 -0.60452,-3.162003 -1.28653,-3.580429 -5.45601,-8.83496 -15.37602,-8.83496 -8.92801,0 -15.37601,8.524959 -17.36002,13.097489 -0.992,2.371527 -2.48,7.238532 -2.48,12.787538 0,6.060511 1.68951,12.896062 7.53301,18.057543 5.76605,4.370954 9.42406,4.572529 12.89606,4.572529 3.48748,0 16.47644,-4.076529 16.47644,-15.57756 0,-9.718515 -7.64148,-13.392024 -13.88801,-13.392024 m -3.67348,24.800005 c -3.27053,0 -5.95201,-4.464004 -5.95201,-10.028435 0,-5.549056 2.68148,-10.10606 5.95201,-10.10606 3.27053,0 6.06053,4.557004 6.06053,10.10606 0,5.564431 -2.79,10.028435 -6.06053,10.028435"
     id="path356"
     style="stroke-width:0.992001" />
  <path
     class="TimeSig"
     d="m 261.54808,122.00249 c 3.27043,-2.48 5.54896,-5.6575 5.54896,-9.6255 0,-7.14548 -7.82749,-12.989064 -17.45297,-12.989064 -9.62558,0 -17.46856,5.843584 -17.46856,12.989064 0,3.968 0.992,7.53301 5.6575,10.50901 -4.46401,2.58851 -6.94401,6.26201 -6.94401,11.02049 0,8.02905 8.43201,14.47706 18.75507,14.47706 10.30749,0 18.73949,-6.44801 18.73949,-14.47706 0,-4.75848 -1.674,-9.22249 -6.83548,-11.904 m -5.56453,-2.68149 c -6.74253,-2.18551 -14.18254,-5.45601 -14.18254,-9.92001 0,-3.87506 3.56506,-5.45601 7.84306,-5.45601 6.15348,0 10.30749,2.88295 10.30749,7.44001 0,4.7585 -2.17001,7.037 -3.96801,7.93601 m -6.33948,23.51349 c -6.35506,0 -11.81106,-3.472 -11.81106,-9.03643 0,-6.63406 5.16148,-8.23055 5.16148,-8.23055 6.74253,2.27849 16.36802,5.6575 16.36802,11.1135 0,2.68148 -3.37896,6.15348 -9.71844,6.15348"
     id="path358"
     style="stroke-width:0.992001" />
  <path
     class="Beam"
     fill-rule="evenodd"
     d="m 577.62,31.03 198.952,-6.2 v 12.406 l -198.952,6.2 V 31.03"
     id="path360" />
  <path
     class="Beam"
     fill-rule="evenodd"
     d="m 577.62,49.63 198.952,-6.2 v 12.406 l -198.952,6.2 V 49.63"
     id="path362" />
  <path
     class="Beam"
     fill-rule="evenodd"
     d="M 688.536,64.774 776.572,62.03 V 74.436 L 688.536,77.18 V 64.774"
     id="path364" />
  <path
     class="Beam"
     fill-rule="evenodd"
     d="m 859.652,6.2 59.5,-6.2 v 12.467 l -59.5,6.2 V 6.2"
     id="path366" />
  <path
     class="Beam"
     fill-rule="evenodd"
     d="m 859.652,24.8 59.5,-6.2 v 12.467 l -59.5,6.2 V 24.8"
     id="path368" />
  <path
     class="Beam"
     fill-rule="evenodd"
     d="m 859.652,43.4 59.5,-6.2 v 12.467 l -59.5,6.2 V 43.4"
     id="path370" />
  <path
     class="Beam"
     fill-rule="evenodd"
     d="m 1335.592,6.225 116.53,-6.2 v 12.417 l -116.53,6.2 V 6.225"
     id="path372" />
  <path
     class="Beam"
     fill-rule="evenodd"
     d="m 1335.592,24.825 116.53,-6.2 v 12.417 l -116.53,6.2 V 24.825"
     id="path374" />
  <path
     class="Beam"
     fill-rule="evenodd"
     d="m 1392.612,40.391 59.51,-3.166 v 12.417 l -59.51,3.166 V 40.391"
     id="path376" />
  <path
     class="Beam"
     fill-rule="evenodd"
     d="m 1476.922,186 59.5,-6.2 v 12.467 l -59.5,6.2 V 186"
     id="path378" />
  <path
     class="Beam"
     fill-rule="evenodd"
     d="m 1476.922,167.4 59.5,-6.2 v 12.467 l -59.5,6.2 V 167.4"
     id="path380" />
  <path
     class="Beam"
     fill-rule="evenodd"
     d="m 1476.922,148.8 59.5,-6.2 v 12.467 l -59.5,6.2 V 148.8"
     id="path382" />
  <path
     class="Beam"
     fill-rule="evenodd"
     d="m 1982.602,6.225 116.53,-6.2 v 12.417 l -116.53,6.2 V 6.225"
     id="path384" />
  <path
     class="Beam"
     fill-rule="evenodd"
     d="m 1982.602,24.825 116.53,-6.2 v 12.417 l -116.53,6.2 V 24.825"
     id="path386" />
  <path
     class="Beam"
     fill-rule="evenodd"
     d="m 2039.632,40.391 59.5,-3.166 v 12.417 l -59.5,3.166 V 40.391"
     id="path388" />
  <path
     class="Beam"
     fill-rule="evenodd"
     d="m 173.818,436.495 62.199,6.2 v 12.46 l -62.199,-6.2 v -12.46"
     id="path390" />
  <path
     class="Beam"
     fill-rule="evenodd"
     d="m 173.818,455.095 27.28,2.72 v 12.46 l -27.28,-2.72 v -12.46"
     id="path392" />
  <path
     class="Beam"
     fill-rule="evenodd"
     d="m 1141.332,560.495 62.2,-6.2 v 12.46 l -62.2,6.2 v -12.46"
     id="path394" />
  <path
     class="Beam"
     fill-rule="evenodd"
     d="m 1141.332,541.895 27.28,-2.72 v 12.46 l -27.28,2.72 v -12.46"
     id="path396" />
  <path
     class="Beam"
     fill-rule="evenodd"
     d="m 2575.602,436.495 62.2,6.2 v 12.46 l -62.2,-6.2 v -12.46"
     id="path398" />
  <path
     class="Beam"
     fill-rule="evenodd"
     d="m 2575.602,455.095 27.28,2.72 v 12.46 l -27.28,-2.72 v -12.46"
     id="path400" />
  <path
     class="Beam"
     fill-rule="evenodd"
     d="m 2153.682,6.2 59.5,6.2 v 12.467 l -59.5,-6.2 V 6.2"
     id="path402" />
  <path
     class="Beam"
     fill-rule="evenodd"
     d="m 2153.682,24.8 59.5,6.2 v 12.467 l -59.5,-6.2 V 24.8"
     id="path404" />
  <path
     class="Beam"
     fill-rule="evenodd"
     d="m 2153.682,43.4 59.5,6.2 v 12.467 l -59.5,-6.2 V 43.4"
     id="path406" />
  <path
     class="Beam"
     fill-rule="evenodd"
     d="m 651.297,436.495 62.2,6.2 v 12.46 l -62.2,-6.2 v -12.46"
     id="path408" />
  <path
     class="Beam"
     fill-rule="evenodd"
     d="m 651.297,455.095 27.28,2.72 v 12.46 l -27.28,-2.72 v -12.46"
     id="path410" />
  <path
     class="Beam"
     fill-rule="evenodd"
     d="m 3023.332,560.495 62.2,-6.2 v 12.46 l -62.2,6.2 v -12.46"
     id="path412" />
  <path
     class="Beam"
     fill-rule="evenodd"
     d="m 3023.332,541.895 27.28,-2.72 v 12.46 l -27.28,2.72 v -12.46"
     id="path414" />
  <path
     class="VoltaSegment"
     d="m 620.475,376.62 h -1.922 c -3.469,2.594 -7.375,3.688 -13.922,3.797 v 3.078 h 2.313 c 4.89,0 4.953,0.11 4.89,4.625 v 19.516 c 0,3.406 0,3.578 -0.375,4.125 -0.5,0.609 -1.609,0.828 -4.578,0.828 h -1.75 v 2.966 h 21.938 v -2.966 h -1.766 c -2.906,0 -3.953,-0.219 -4.453,-0.828 -0.375,-0.547 -0.375,-0.766 -0.375,-4.125 V 376.62 m 19.234,29.422 c -2.859,0 -5.172,2.313 -5.172,5.172 0,2.797 2.313,5.171 5.125,5.171 2.907,0 5.219,-2.312 5.219,-5.171 0,-2.859 -2.312,-5.172 -5.172,-5.172"
     id="path416" />
  <polyline
     class="VoltaSegment"
     fill="none"
     stroke="#000000"
     stroke-width="2.73"
     stroke-linejoin="miter"
     stroke-miterlimit="2"
     points="801.787,1000.12 801.787,945.563 1297.01,945.563 1297.01,1000.12"
     id="polyline418"
     transform="translate(-212.598,-584.565)" />
  <path
     class="VoltaSegment"
     d="m 1149.082,400.933 -0.61,2.75 c -0.5,2.203 -0.83,2.906 -1.26,3.187 -0.55,0.391 -0.66,0.391 -4.13,0.438 h -10.61 c 1.92,-1.656 3.36,-2.688 5.5,-4.125 7.75,-5 9.34,-6.219 10.94,-8.25 1.87,-2.469 2.97,-5.391 2.97,-7.969 0,-5.891 -5.77,-10.344 -13.52,-10.344 -7.48,0 -13.26,4.844 -13.26,11.11 0,3.843 2.15,6.328 5.45,6.328 2.86,0 4.67,-1.813 4.67,-4.672 0,-2.375 -1.05,-3.75 -3.58,-4.953 -0.61,-0.281 -0.87,-0.61 -0.87,-1.047 0,-1.766 2.97,-3.625 5.72,-3.625 3.84,0 6.04,2.359 6.04,6.437 0,4.563 -1.76,7.797 -7.59,14.016 -6.16,6.547 -8.3,9.016 -11.05,12.984 v 2.577 c 1.42,-0.15 2.03,-0.22 2.86,-0.22 h 20.67 c 1.05,0 1.71,0.07 3.36,0.22 l 1.27,-14.842 h -2.97 m 13.41,5.109 c -2.86,0 -5.18,2.313 -5.18,5.172 0,2.797 2.32,5.171 5.13,5.171 2.91,0 5.22,-2.312 5.22,-5.171 0,-2.859 -2.31,-5.172 -5.17,-5.172"
     id="path420" />
  <polyline
     class="VoltaSegment"
     fill="none"
     stroke="#000000"
     stroke-width="2.73"
     stroke-linejoin="miter"
     stroke-miterlimit="2"
     points="1321.57,1000.12 1321.57,945.563 1797.31,945.563"
     id="polyline422"
     transform="translate(-212.598,-584.565)" />
  <path
     class="NoteDot"
     d="m 2986.812,62.033 c 0,2.774508 2.1855,4.960005 4.96,4.960005 2.7745,0 4.96,-2.185497 4.96,-4.960005 0,-2.774508 -2.1855,-4.960005 -4.96,-4.960005 -2.7745,0 -4.96,2.185497 -4.96,4.960005"
     id="path424"
     style="stroke-width:0.992001" />
  <path
     class="NoteDot"
     d="m 3127.682,455.125 c 0,2.77451 2.1855,4.96001 4.96,4.96001 2.7745,0 4.96,-2.1855 4.96,-4.96001 0,-2.77451 -2.1855,-4.96001 -4.96,-4.96001 -2.7745,0 -4.96,2.1855 -4.96,4.96001"
     id="path426"
     style="stroke-width:0.992001" />
  <path
     class="NoteDot"
     d="m 1245.672,455.125 c 0,2.77451 2.1855,4.96001 4.96,4.96001 2.7745,0 4.96,-2.1855 4.96,-4.96001 0,-2.77451 -2.1855,-4.96001 -4.96,-4.96001 -2.7745,0 -4.96,2.1855 -4.96,4.96001"
     id="path428"
     style="stroke-width:0.992001" />
  <path
     class="NoteDot"
     d="m 248.417,529.525 c 0,2.77451 2.18551,4.96 4.96,4.96 2.77451,0 4.96001,-2.18549 4.96001,-4.96 0,-2.77451 -2.1855,-4.96001 -4.96001,-4.96001 -2.77449,0 -4.96,2.1855 -4.96,4.96001"
     id="path430"
     style="stroke-width:0.992001" />
  <path
     class="NoteDot"
     d="m 725.897,529.525 c 0,2.77451 2.18551,4.96 4.96,4.96 2.77451,0 4.96001,-2.18549 4.96001,-4.96 0,-2.77451 -2.1855,-4.96001 -4.96001,-4.96001 -2.77449,0 -4.96,2.1855 -4.96,4.96001"
     id="path432"
     style="stroke-width:0.992001" />
  <path
     class="NoteDot"
     d="m 1663.432,479.925 c 0,2.77451 2.1855,4.96 4.96,4.96 2.7745,0 4.96,-2.18549 4.96,-4.96 0,-2.77451 -2.1855,-4.96001 -4.96,-4.96001 -2.7745,0 -4.96,2.1855 -4.96,4.96001"
     id="path434"
     style="stroke-width:0.992001" />
  <path
     class="NoteDot"
     d="m 3545.442,479.925 c 0,2.77451 2.1855,4.96 4.96,4.96 2.7745,0 4.96,-2.18549 4.96,-4.96 0,-2.77451 -2.1855,-4.96001 -4.96,-4.96001 -2.7745,0 -4.96,2.1855 -4.96,4.96001"
     id="path436"
     style="stroke-width:0.992001" />
  <path
     class="NoteDot"
     d="m 2650.202,529.525 c 0,2.77451 2.1855,4.96 4.96,4.96 2.7745,0 4.96,-2.18549 4.96,-4.96 0,-2.77451 -2.1855,-4.96001 -4.96,-4.96001 -2.7745,0 -4.96,2.1855 -4.96,4.96001"
     id="path438"
     style="stroke-width:0.992001" />
</svg>
