<?xml version="1.0" encoding="UTF-8" standalone="no"?>
<svg
   xmlns:dc="http://purl.org/dc/elements/1.1/"
   xmlns:cc="http://creativecommons.org/ns#"
   xmlns:rdf="http://www.w3.org/1999/02/22-rdf-syntax-ns#"
   xmlns:svg="http://www.w3.org/2000/svg"
   xmlns="http://www.w3.org/2000/svg"
   xmlns:sodipodi="http://sodipodi.sourceforge.net/DTD/sodipodi-0.dtd"
   xmlns:inkscape="http://www.inkscape.org/namespaces/inkscape"
   width="258.20526mm"
   height="12.445287mm"
   viewBox="0 0 3659.6022 176.38989"
   version="1.2"
   id="svg6635"
   sodipodi:docname="Dossium Canto Schaduwvrees Musica.svg"
   inkscape:version="1.0.2-2 (e86c870879, 2021-01-15)">
  <metadata
     id="metadata6641">
    <rdf:RDF>
      <cc:Work
         rdf:about="">
        <dc:format>image/svg+xml</dc:format>
        <dc:type
           rdf:resource="http://purl.org/dc/dcmitype/StillImage" />
      </cc:Work>
    </rdf:RDF>
  </metadata>
  <defs
     id="defs6639" />
  <sodipodi:namedview
     pagecolor="#ffffff"
     bordercolor="#666666"
     borderopacity="1"
     objecttolerance="10"
     gridtolerance="10"
     guidetolerance="10"
     inkscape:pageopacity="0"
     inkscape:pageshadow="2"
     inkscape:window-width="1920"
     inkscape:window-height="991"
     id="namedview6637"
     showgrid="false"
     inkscape:zoom="1.0328497"
     inkscape:cx="471.36053"
     inkscape:cy="237.41743"
     inkscape:window-x="-9"
     inkscape:window-y="-9"
     inkscape:window-maximized="1"
     inkscape:current-layer="svg6635" />
  <title
     id="title6377">Dossium Canto Schaduwvrees Musica</title>
  <desc
     id="desc6379">Generated by MuseScore Studio 4.5.1</desc>
  <polyline
     class="StaffLines"
     fill="none"
     stroke="#000000"
     stroke-width="2.73"
     stroke-linejoin="bevel"
     points="336.598,634.198 3996.2,634.198"
     id="polyline6383"
     transform="translate(-336.598,-598.28462)" />
  <polyline
     class="StaffLines"
     fill="none"
     stroke="#000000"
     stroke-width="2.73"
     stroke-linejoin="bevel"
     points="336.598,658.998 3996.2,658.998"
     id="polyline6385"
     transform="translate(-336.598,-598.28462)" />
  <polyline
     class="StaffLines"
     fill="none"
     stroke="#000000"
     stroke-width="2.73"
     stroke-linejoin="bevel"
     points="336.598,683.798 3996.2,683.798"
     id="polyline6387"
     transform="translate(-336.598,-598.28462)" />
  <polyline
     class="StaffLines"
     fill="none"
     stroke="#000000"
     stroke-width="2.73"
     stroke-linejoin="bevel"
     points="336.598,708.598 3996.2,708.598"
     id="polyline6389"
     transform="translate(-336.598,-598.28462)" />
  <polyline
     class="StaffLines"
     fill="none"
     stroke="#000000"
     stroke-width="2.73"
     stroke-linejoin="bevel"
     points="336.598,733.398 3996.2,733.398"
     id="polyline6391"
     transform="translate(-336.598,-598.28462)" />
  <path
     class="TieSegment"
     stroke="#000000"
     stroke-width="1.24"
     stroke-linecap="round"
     stroke-linejoin="round"
     fill-rule="evenodd"
     d="m 1545.422,128.41038 c 22.75,17.559 90.97,17.559 113.71,0 -22.74,25.495 -90.96,25.495 -113.71,0"
     id="path6401" />
  <path
     class="TieSegment"
     stroke="#000000"
     stroke-width="1.24"
     stroke-linecap="round"
     stroke-linejoin="round"
     fill-rule="evenodd"
     d="m 3258.132,128.41038 c 22.74,17.559 90.97,17.559 113.71,0 -22.74,25.495 -90.97,25.495 -113.71,0"
     id="path6403" />
  <path
     class="TieSegment"
     stroke="#000000"
     stroke-width="1.24"
     stroke-linecap="round"
     stroke-linejoin="round"
     fill-rule="evenodd"
     d="m 1911.992,67.41738 c 19.98,-25.008 79.94,-25.008 99.93,0 -19.99,-17.072 -79.95,-17.072 -99.93,0"
     id="path6405" />
  <path
     class="TieSegment"
     stroke="#000000"
     stroke-width="1.24"
     stroke-linecap="round"
     stroke-linejoin="round"
     fill-rule="evenodd"
     d="m 2255.912,30.21738 c 19.99,-24.357 79.94,-24.357 99.93,0 -19.99,-16.421 -79.94,-16.421 -99.93,0"
     id="path6407" />
  <path
     class="TieSegment"
     stroke="#000000"
     stroke-width="1.24"
     stroke-linecap="round"
     stroke-linejoin="round"
     fill-rule="evenodd"
     d="m 2911.002,42.61738 c 19.99,-25.008 79.94,-25.008 99.93,0 -19.99,-17.072 -79.94,-17.072 -99.93,0"
     id="path6409" />
  <polyline
     class="BarLine"
     fill="none"
     stroke="#000000"
     stroke-width="4.46"
     stroke-linejoin="bevel"
     points="3971.15,632.834 3971.15,734.762"
     id="polyline6411"
     transform="translate(-336.598,-598.28462)" />
  <polyline
     class="BarLine"
     fill="none"
     stroke="#000000"
     stroke-width="13.64"
     stroke-linejoin="bevel"
     points="3989.38,632.834 3989.38,734.762"
     id="polyline6413"
     transform="translate(-336.598,-598.28462)" />
  <polyline
     class="BarLine"
     fill="none"
     stroke="#000000"
     stroke-width="4.46"
     stroke-linejoin="bevel"
     points="919.79,632.834 919.79,734.762"
     id="polyline6415"
     transform="translate(-336.598,-598.28462)" />
  <polyline
     class="BarLine"
     fill="none"
     stroke="#000000"
     stroke-width="4.46"
     stroke-linejoin="bevel"
     points="3662.46,632.834 3662.46,734.762"
     id="polyline6417"
     transform="translate(-336.598,-598.28462)" />
  <polyline
     class="BarLine"
     fill="none"
     stroke="#000000"
     stroke-width="4.46"
     stroke-linejoin="bevel"
     points="3298.72,632.834 3298.72,734.762"
     id="polyline6419"
     transform="translate(-336.598,-598.28462)" />
  <polyline
     class="BarLine"
     fill="none"
     stroke="#000000"
     stroke-width="4.46"
     stroke-linejoin="bevel"
     points="1252.9,632.834 1252.9,734.762"
     id="polyline6421"
     transform="translate(-336.598,-598.28462)" />
  <polyline
     class="BarLine"
     fill="none"
     stroke="#000000"
     stroke-width="4.46"
     stroke-linejoin="bevel"
     points="1586.02,632.834 1586.02,734.762"
     id="polyline6423"
     transform="translate(-336.598,-598.28462)" />
  <polyline
     class="BarLine"
     fill="none"
     stroke="#000000"
     stroke-width="4.46"
     stroke-linejoin="bevel"
     points="2948.76,632.834 2948.76,734.762"
     id="polyline6425"
     transform="translate(-336.598,-598.28462)" />
  <polyline
     class="BarLine"
     fill="none"
     stroke="#000000"
     stroke-width="4.46"
     stroke-linejoin="bevel"
     points="2643.63,632.834 2643.63,734.762"
     id="polyline6427"
     transform="translate(-336.598,-598.28462)" />
  <polyline
     class="BarLine"
     fill="none"
     stroke="#000000"
     stroke-width="4.46"
     stroke-linejoin="bevel"
     points="2299.71,632.834 2299.71,734.762"
     id="polyline6429"
     transform="translate(-336.598,-598.28462)" />
  <polyline
     class="BarLine"
     fill="none"
     stroke="#000000"
     stroke-width="4.46"
     stroke-linejoin="bevel"
     points="1949.75,632.834 1949.75,734.762"
     id="polyline6431"
     transform="translate(-336.598,-598.28462)" />
  <polyline
     class="Stem"
     fill="none"
     stroke="#000000"
     stroke-width="2.48"
     stroke-linejoin="bevel"
     points="1287.38,663.165 1287.38,733.235"
     id="polyline6433"
     transform="translate(-336.598,-598.28462)" />
  <polyline
     class="Stem"
     fill="none"
     stroke="#000000"
     stroke-width="2.48"
     stroke-linejoin="bevel"
     points="3044.5,650.765 3044.5,733.398"
     id="polyline6435"
     transform="translate(-336.598,-598.28462)" />
  <polyline
     class="Stem"
     fill="none"
     stroke="#000000"
     stroke-width="2.48"
     stroke-linejoin="bevel"
     points="2983.24,663.165 2983.24,745.699"
     id="polyline6437"
     transform="translate(-336.598,-598.28462)" />
  <polyline
     class="Stem"
     fill="none"
     stroke="#000000"
     stroke-width="2.48"
     stroke-linejoin="bevel"
     points="3228.31,663.165 3228.31,745.699"
     id="polyline6439"
     transform="translate(-336.598,-598.28462)" />
  <polyline
     class="Stem"
     fill="none"
     stroke="#000000"
     stroke-width="2.48"
     stroke-linejoin="bevel"
     points="3793.76,704.63 3793.76,621.798"
     id="polyline6441"
     transform="translate(-336.598,-598.28462)" />
  <polyline
     class="Stem"
     fill="none"
     stroke="#000000"
     stroke-width="2.48"
     stroke-linejoin="bevel"
     points="1376.62,650.765 1376.62,733.398"
     id="polyline6443"
     transform="translate(-336.598,-598.28462)" />
  <polyline
     class="Stem"
     fill="none"
     stroke="#000000"
     stroke-width="2.48"
     stroke-linejoin="bevel"
     points="685.798,625.965 685.798,708.598"
     id="polyline6445"
     transform="translate(-336.598,-598.28462)" />
  <polyline
     class="Stem"
     fill="none"
     stroke="#000000"
     stroke-width="2.48"
     stroke-linejoin="bevel"
     points="1468.53,663.165 1468.53,745.798"
     id="polyline6447"
     transform="translate(-336.598,-598.28462)" />
  <polyline
     class="Stem"
     fill="none"
     stroke="#000000"
     stroke-width="2.48"
     stroke-linejoin="bevel"
     points="2831.27,663.165 2831.27,745.798"
     id="polyline6449"
     transform="translate(-336.598,-598.28462)" />
  <polyline
     class="Stem"
     fill="none"
     stroke="#000000"
     stroke-width="2.48"
     stroke-linejoin="bevel"
     points="2739.37,650.765 2739.37,733.398"
     id="polyline6451"
     transform="translate(-336.598,-598.28462)" />
  <polyline
     class="Stem"
     fill="none"
     stroke="#000000"
     stroke-width="2.48"
     stroke-linejoin="bevel"
     points="1332,650.765 1332,727.362"
     id="polyline6453"
     transform="translate(-336.598,-598.28462)" />
  <polyline
     class="Stem"
     fill="none"
     stroke="#000000"
     stroke-width="2.48"
     stroke-linejoin="bevel"
     points="802.298,663.165 802.298,745.798"
     id="polyline6455"
     transform="translate(-336.598,-598.28462)" />
  <polyline
     class="Stem"
     fill="none"
     stroke="#000000"
     stroke-width="2.48"
     stroke-linejoin="bevel"
     points="3608.01,704.63 3608.01,621.997"
     id="polyline6457"
     transform="translate(-336.598,-598.28462)" />
  <polyline
     class="Stem"
     fill="none"
     stroke="#000000"
     stroke-width="2.48"
     stroke-linejoin="bevel"
     points="1620.49,687.965 1620.49,764.299"
     id="polyline6459"
     transform="translate(-336.598,-598.28462)" />
  <polyline
     class="Stem"
     fill="none"
     stroke="#000000"
     stroke-width="2.48"
     stroke-linejoin="bevel"
     points="2678.11,650.765 2678.11,733.299"
     id="polyline6461"
     transform="translate(-336.598,-598.28462)" />
  <polyline
     class="Stem"
     fill="none"
     stroke="#000000"
     stroke-width="2.48"
     stroke-linejoin="bevel"
     points="1711.5,692.23 1711.5,615.598"
     id="polyline6463"
     transform="translate(-336.598,-598.28462)" />
  <polyline
     class="Stem"
     fill="none"
     stroke="#000000"
     stroke-width="2.48"
     stroke-linejoin="bevel"
     points="3516.11,692.23 3516.11,615.598"
     id="polyline6465"
     transform="translate(-336.598,-598.28462)" />
  <polyline
     class="Stem"
     fill="none"
     stroke="#000000"
     stroke-width="2.48"
     stroke-linejoin="bevel"
     points="1773.66,687.965 1773.66,758.198"
     id="polyline6467"
     transform="translate(-336.598,-598.28462)" />
  <polyline
     class="Stem"
     fill="none"
     stroke="#000000"
     stroke-width="2.48"
     stroke-linejoin="bevel"
     points="3726.67,704.63 3726.67,621.997"
     id="polyline6469"
     transform="translate(-336.598,-598.28462)" />
  <polyline
     class="Stem"
     fill="none"
     stroke="#000000"
     stroke-width="2.48"
     stroke-linejoin="bevel"
     points="954.262,663.165 954.262,733.235"
     id="polyline6471"
     transform="translate(-336.598,-598.28462)" />
  <polyline
     class="Stem"
     fill="none"
     stroke="#000000"
     stroke-width="2.48"
     stroke-linejoin="bevel"
     points="3425.09,687.965 3425.09,764.299"
     id="polyline6473"
     transform="translate(-336.598,-598.28462)" />
  <polyline
     class="Stem"
     fill="none"
     stroke="#000000"
     stroke-width="2.48"
     stroke-linejoin="bevel"
     points="2573.22,650.765 2573.22,727.319"
     id="polyline6475"
     transform="translate(-336.598,-598.28462)" />
  <polyline
     class="Stem"
     fill="none"
     stroke="#000000"
     stroke-width="2.48"
     stroke-linejoin="bevel"
     points="3333.19,663.165 3333.19,745.798"
     id="polyline6477"
     transform="translate(-336.598,-598.28462)" />
  <polyline
     class="Stem"
     fill="none"
     stroke="#000000"
     stroke-width="2.48"
     stroke-linejoin="bevel"
     points="998.886,650.765 998.886,727.362"
     id="polyline6479"
     transform="translate(-336.598,-598.28462)" />
  <polyline
     class="Stem"
     fill="none"
     stroke="#000000"
     stroke-width="2.48"
     stroke-linejoin="bevel"
     points="2013.97,704.63 2013.97,621.798"
     id="polyline6481"
     transform="translate(-336.598,-598.28462)" />
  <polyline
     class="Stem"
     fill="none"
     stroke="#000000"
     stroke-width="2.48"
     stroke-linejoin="bevel"
     points="2511.95,663.165 2511.95,733.278"
     id="polyline6483"
     transform="translate(-336.598,-598.28462)" />
  <polyline
     class="Stem"
     fill="none"
     stroke="#000000"
     stroke-width="2.48"
     stroke-linejoin="bevel"
     points="2229.29,687.965 2229.29,764.299"
     id="polyline6485"
     transform="translate(-336.598,-598.28462)" />
  <polyline
     class="Stem"
     fill="none"
     stroke="#000000"
     stroke-width="2.48"
     stroke-linejoin="bevel"
     points="1895.3,704.63 1895.3,621.997"
     id="polyline6487"
     transform="translate(-336.598,-598.28462)" />
  <polyline
     class="Stem"
     fill="none"
     stroke="#000000"
     stroke-width="2.48"
     stroke-linejoin="bevel"
     points="2395.45,663.165 2395.45,745.798"
     id="polyline6489"
     transform="translate(-336.598,-598.28462)" />
  <polyline
     class="Stem"
     fill="none"
     stroke="#000000"
     stroke-width="2.48"
     stroke-linejoin="bevel"
     points="2167.14,692.23 2167.14,615.598"
     id="polyline6491"
     transform="translate(-336.598,-598.28462)" />
  <polyline
     class="Stem"
     fill="none"
     stroke="#000000"
     stroke-width="2.48"
     stroke-linejoin="bevel"
     points="2334.18,687.965 2334.18,764.299"
     id="polyline6493"
     transform="translate(-336.598,-598.28462)" />
  <polyline
     class="Stem"
     fill="none"
     stroke="#000000"
     stroke-width="2.48"
     stroke-linejoin="bevel"
     points="1043.51,650.765 1043.51,733.398"
     id="polyline6495"
     transform="translate(-336.598,-598.28462)" />
  <polyline
     class="Stem"
     fill="none"
     stroke="#000000"
     stroke-width="2.48"
     stroke-linejoin="bevel"
     points="1135.41,663.165 1135.41,745.798"
     id="polyline6497"
     transform="translate(-336.598,-598.28462)" />
  <polyline
     class="Stem"
     fill="none"
     stroke="#000000"
     stroke-width="2.48"
     stroke-linejoin="bevel"
     points="3136.4,650.765 3136.4,733.398"
     id="polyline6499"
     transform="translate(-336.598,-598.28462)" />
  <polyline
     class="Stem"
     fill="none"
     stroke="#000000"
     stroke-width="2.48"
     stroke-linejoin="bevel"
     points="2076.13,687.965 2076.13,764.299"
     id="polyline6501"
     transform="translate(-336.598,-598.28462)" />
  <path
     class="Hook"
     d="m 1996.342,166.02038 c 0,0.682 0.589,1.2865 1.2865,1.2865 0.496,0 1.1005,-0.403 1.1935,-0.7905 0,-0.1085 0.899,-3.5805 0.992,-3.875 0.093,-0.403 0.992,-4.1695 4.557,-10.01305 3.875,-6.448 9.827,-11.11347 14.787,-18.05747 4.867,-6.944 7.843,-13.50053 7.843,-22.22696 0,-9.02104 -2.0925,-16.56957 -7.347,-26.19504 -0.2945,-0.69748 -0.899,-1.08496 -1.488,-1.08496 -0.2015,0 -0.403,0 -0.496,0.093 -0.496,0.20147 -0.6975,0.60452 -0.6975,1.19347 0,0.29453 0.1085,0.79053 0.2945,1.19357 3.968,9.22243 5.5645,14.47696 5.5645,21.62243 0,8.23053 -2.883,12.50853 -4.6655,15.57757 -6.448,11.00496 -16.864,16.368 -21.0335,17.76296 -0.6975,0.29452 -0.7905,0.79052 -0.7905,1.08504 v 22.42844"
     id="path6503"
     style="stroke-width:0.992" />
  <path
     class="Hook"
     d="m 2340.272,135.02038 c 0,0.682 0.589,1.2865 1.2865,1.2865 0.496,0 1.1005,-0.403 1.1935,-0.7905 0,-0.1085 0.899,-3.5805 0.992,-3.875 0.093,-0.403 0.992,-4.1695 4.557,-10.01305 3.875,-6.448 9.827,-11.11347 14.787,-18.05747 4.867,-6.944 7.843,-13.50053 7.843,-22.22696 0,-9.02104 -2.0925,-16.56957 -7.347,-26.19504 -0.2945,-0.69748 -0.899,-1.08496 -1.488,-1.08496 -0.2015,0 -0.403,0 -0.496,0.093 -0.496,0.20147 -0.6975,0.60452 -0.6975,1.19347 0,0.29453 0.1085,0.79053 0.2945,1.19357 3.968,9.22243 5.5645,14.47696 5.5645,21.62243 0,8.23053 -2.883,12.50853 -4.6655,15.57757 -6.448,11.00496 -16.864,16.368 -21.0335,17.76296 -0.6975,0.29452 -0.7905,0.79052 -0.7905,1.08504 v 22.42844"
     id="path6505"
     style="stroke-width:0.992" />
  <path
     class="Hook"
     d="m 2645.402,147.42038 c 0,0.682 0.589,1.2865 1.2865,1.2865 0.496,0 1.1005,-0.403 1.1935,-0.7905 0,-0.1085 0.899,-3.5805 0.992,-3.875 0.093,-0.403 0.992,-4.1695 4.557,-10.01305 3.875,-6.448 9.827,-11.11347 14.787,-18.05747 4.867,-6.944 7.843,-13.50053 7.843,-22.22696 0,-9.02104 -2.0925,-16.56957 -7.347,-26.19504 -0.2945,-0.69748 -0.899,-1.08496 -1.488,-1.08496 -0.2015,0 -0.403,0 -0.496,0.093 -0.496,0.20147 -0.6975,0.60452 -0.6975,1.19347 0,0.29453 0.1085,0.79053 0.2945,1.19357 3.968,9.22243 5.5645,14.47696 5.5645,21.62243 0,8.23053 -2.883,12.50853 -4.6655,15.57757 -6.448,11.00496 -16.864,16.368 -21.0335,17.76296 -0.6975,0.29448 -0.7905,0.79048 -0.7905,1.085 v 22.42848"
     id="path6507"
     style="stroke-width:0.992" />
  <path
     class="Hook"
     d="m 2890.472,147.42038 c 0,0.682 0.589,1.2865 1.2865,1.2865 0.496,0 1.1005,-0.403 1.1935,-0.7905 0,-0.1085 0.899,-3.5805 0.992,-3.875 0.093,-0.403 0.992,-4.1695 4.557,-10.01305 3.875,-6.448 9.827,-11.11347 14.787,-18.05747 4.867,-6.944 7.843,-13.50053 7.843,-22.22696 0,-9.02104 -2.0925,-16.56957 -7.347,-26.19504 -0.2945,-0.69748 -0.899,-1.08496 -1.488,-1.08496 -0.2015,0 -0.403,0 -0.496,0.093 -0.496,0.20147 -0.6975,0.60452 -0.6975,1.19347 0,0.29453 0.1085,0.79053 0.2945,1.19357 3.968,9.22243 5.5645,14.47696 5.5645,21.62243 0,8.23053 -2.883,12.50853 -4.6655,15.57757 -6.448,11.00496 -16.864,16.368 -21.0335,17.76296 -0.6975,0.29452 -0.7905,0.79052 -0.7905,1.08504 v 22.42844"
     id="path6509"
     style="stroke-width:0.992" />
  <path
     class="Hook"
     d="m 3087.252,166.02038 c 0,0.682 0.589,1.2865 1.2865,1.2865 0.496,0 1.1005,-0.403 1.1935,-0.7905 0,-0.1085 0.899,-3.5805 0.992,-3.875 0.093,-0.403 0.992,-4.1695 4.557,-10.01305 3.875,-6.448 9.827,-11.11347 14.787,-18.05747 4.867,-6.944 7.843,-13.50053 7.843,-22.22696 0,-9.02104 -2.0925,-16.56957 -7.347,-26.19504 -0.2945,-0.69748 -0.899,-1.08496 -1.488,-1.08496 -0.2015,0 -0.403,0 -0.496,0.093 -0.496,0.20147 -0.6975,0.60452 -0.6975,1.19347 0,0.29453 0.1085,0.79053 0.2945,1.19357 3.968,9.22243 5.5645,14.47696 5.5645,21.62243 0,8.23053 -2.883,12.50853 -4.6655,15.57757 -6.448,11.00496 -16.864,16.368 -21.0335,17.76296 -0.6975,0.29452 -0.7905,0.79052 -0.7905,1.08504 v 22.42844"
     id="path6511"
     style="stroke-width:0.992" />
  <path
     class="Hook"
     d="m 3270.172,46.03486 c 0,0.29452 0.093,0.79052 0.7905,1.08504 4.2625,1.39496 12.803,6.758 19.251,17.76296 1.7825,3.06904 4.6655,7.34704 4.6655,15.57757 0,7.14547 -1.891,14.47695 -4.464,21.62243 -0.2015,0.60452 -0.403,1.10052 -0.31,1.488 0,0.40304 0.1085,0.69757 0.496,0.89904 0.2015,0.093 0.403,0.093 0.496,0.093 0.6975,0 1.1935,-0.38748 1.5965,-1.08496 4.6655,-8.246 6.2465,-18.75504 6.1535,-25.00147 0,-0.496 0,-0.79053 0,-1.19357 -0.496,-12.80296 -7.843,-22.22696 -7.843,-22.22696 0.2945,0 -9.1295,-12.19852 -11.811,-16.368 -3.658,-5.65752 -5.3475,-11.29952 -5.549,-11.70252 -0.093,-0.2945 -0.992,-3.875 -0.992,-3.875 -0.093,-0.3875 -0.589,-0.7905 -1.1935,-0.7905 -0.6975,0 -1.2865,0.6045 -1.2865,1.2865 V 46.0349"
     id="path6513"
     style="stroke-width:0.992" />
  <path
     class="Hook"
     d="m 3388.832,46.03486 c 0,0.29452 0.093,0.79052 0.7905,1.08504 4.2625,1.39496 12.803,6.758 19.251,17.76296 1.7825,3.06904 4.6655,7.34704 4.6655,15.57757 0,7.14547 -1.891,14.47695 -4.464,21.62243 -0.2015,0.60452 -0.403,1.10052 -0.31,1.488 0,0.40304 0.1085,0.69757 0.496,0.89904 0.2015,0.093 0.403,0.093 0.496,0.093 0.6975,0 1.1935,-0.38748 1.5965,-1.08496 4.6655,-8.246 6.2465,-18.75504 6.1535,-25.00147 0,-0.496 0,-0.79053 0,-1.19357 -0.496,-12.80296 -7.843,-22.22696 -7.843,-22.22696 0.2945,0 -9.1295,-12.19852 -11.811,-16.368 -3.658,-5.65752 -5.3475,-11.29952 -5.549,-11.70252 -0.093,-0.2945 -0.992,-3.875 -0.992,-3.875 -0.093,-0.3875 -0.589,-0.7905 -1.1935,-0.7905 -0.6975,0 -1.2865,0.6045 -1.2865,1.2865 V 46.0349"
     id="path6515"
     style="stroke-width:0.992" />
  <path
     class="Hook"
     d="m 1282.652,166.02038 c 0,0.682 0.589,1.2865 1.2865,1.2865 0.496,0 1.1005,-0.403 1.1935,-0.7905 0,-0.1085 0.899,-3.5805 0.992,-3.875 0.093,-0.403 0.992,-4.1695 4.557,-10.01305 3.875,-6.448 9.827,-11.11347 14.787,-18.05747 4.867,-6.944 7.843,-13.50053 7.843,-22.22696 0,-9.02104 -2.0925,-16.56957 -7.347,-26.19504 -0.2945,-0.69748 -0.899,-1.08496 -1.488,-1.08496 -0.2015,0 -0.403,0 -0.496,0.093 -0.496,0.20147 -0.6975,0.60452 -0.6975,1.19347 0,0.29453 0.1085,0.79053 0.2945,1.19357 3.968,9.22243 5.5645,14.47696 5.5645,21.62243 0,8.23053 -2.883,12.50853 -4.6655,15.57757 -6.448,11.00496 -16.864,16.368 -21.0335,17.76296 -0.6975,0.29452 -0.7905,0.79052 -0.7905,1.08504 v 22.42844"
     id="path6517"
     style="stroke-width:0.992" />
  <path
     class="Hook"
     d="m 1738.292,166.02038 c 0,0.682 0.589,1.2865 1.2865,1.2865 0.496,0 1.1005,-0.403 1.1935,-0.7905 0,-0.1085 0.899,-3.5805 0.992,-3.875 0.093,-0.403 0.992,-4.1695 4.557,-10.01305 3.875,-6.448 9.827,-11.11347 14.787,-18.05747 4.867,-6.944 7.843,-13.50053 7.843,-22.22696 0,-9.02104 -2.0925,-16.56957 -7.347,-26.19504 -0.2945,-0.69748 -0.899,-1.08496 -1.488,-1.08496 -0.2015,0 -0.403,0 -0.496,0.093 -0.496,0.20147 -0.6975,0.60452 -0.6975,1.19347 0,0.29453 0.1085,0.79053 0.2945,1.19357 3.968,9.22243 5.5645,14.47696 5.5645,21.62243 0,8.23053 -2.883,12.50853 -4.6655,15.57757 -6.448,11.00496 -16.864,16.368 -21.0335,17.76296 -0.6975,0.29452 -0.7905,0.79052 -0.7905,1.08504 v 22.42844"
     id="path6519"
     style="stroke-width:0.992" />
  <path
     class="Hook"
     d="m 1891.452,166.02038 c 0,0.682 0.589,1.2865 1.2865,1.2865 0.496,0 1.1005,-0.403 1.1935,-0.7905 0,-0.1085 0.899,-3.5805 0.992,-3.875 0.093,-0.403 0.992,-4.1695 4.557,-10.01305 3.875,-6.448 9.827,-11.11347 14.787,-18.05747 4.867,-6.944 7.843,-13.50053 7.843,-22.22696 0,-9.02104 -2.0925,-16.56957 -7.347,-26.19504 -0.2945,-0.69748 -0.899,-1.08496 -1.488,-1.08496 -0.2015,0 -0.403,0 -0.496,0.093 -0.496,0.20147 -0.6975,0.60452 -0.6975,1.19347 0,0.29453 0.1085,0.79053 0.2945,1.19357 3.968,9.22243 5.5645,14.47696 5.5645,21.62243 0,8.23053 -2.883,12.50853 -4.6655,15.57757 -6.448,11.00496 -16.864,16.368 -21.0335,17.76296 -0.6975,0.29452 -0.7905,0.79052 -0.7905,1.08504 v 22.42844"
     id="path6521"
     style="stroke-width:0.992" />
  <path
     class="Hook"
     d="m 1557.462,46.03486 c 0,0.29452 0.093,0.79052 0.7905,1.08504 4.2625,1.39496 12.803,6.758 19.251,17.76296 1.7825,3.06904 4.6655,7.34704 4.6655,15.57757 0,7.14547 -1.891,14.47695 -4.464,21.62243 -0.2015,0.60452 -0.403,1.10052 -0.31,1.488 0,0.40304 0.1085,0.69757 0.496,0.89904 0.2015,0.093 0.403,0.093 0.496,0.093 0.6975,0 1.1935,-0.38748 1.5965,-1.08496 4.6655,-8.246 6.2465,-18.75504 6.1535,-25.00147 0,-0.496 0,-0.79053 0,-1.19357 -0.496,-12.80296 -7.843,-22.22696 -7.843,-22.22696 0.2945,0 -9.1295,-12.19852 -11.811,-16.368 -3.658,-5.65752 -5.3475,-11.29952 -5.549,-11.70252 -0.093,-0.2945 -0.992,-3.875 -0.992,-3.875 -0.093,-0.3875 -0.589,-0.7905 -1.1935,-0.7905 -0.6975,0 -1.2865,0.6045 -1.2865,1.2865 V 46.0349"
     id="path6523"
     style="stroke-width:0.992" />
  <path
     class="Note"
     d="m 2235.382,52.48288 c 0,4.2625 3.069,9.02102 11.1135,9.02102 10.3075,0 21.1265,-8.43202 21.1265,-17.15852 0,-5.859 -4.96,-9.12948 -11.1135,-9.12948 -9.6255,0 -21.1265,8.13748 -21.1265,17.26698"
     id="path6525"
     style="stroke-width:0.992" />
  <path
     class="Note"
     d="m 1435.822,89.68288 c 0,4.2625 3.069,9.02102 11.1135,9.02102 10.3075,0 21.1265,-8.43202 21.1265,-17.15852 0,-5.859 -4.96,-9.12948 -11.1135,-9.12948 -9.6255,0 -21.1265,8.13748 -21.1265,17.26698"
     id="path6527"
     style="stroke-width:0.992" />
  <path
     class="Note"
     d="m 1343.922,102.08288 c 0,4.2625 3.069,9.02102 11.1135,9.02102 10.3075,0 21.1265,-8.43202 21.1265,-17.15852 0,-5.859 -4.96,-9.12948 -11.1135,-9.12948 -9.6255,0 -21.1265,8.13748 -21.1265,17.26698"
     id="path6529"
     style="stroke-width:0.992" />
  <path
     class="Note"
     d="m 1891.452,89.68288 c 0,4.2625 3.069,9.02102 11.1135,9.02102 10.3075,0 21.1265,-8.43202 21.1265,-17.15852 0,-5.859 -4.96,-9.12948 -11.1135,-9.12948 -9.6255,0 -21.1265,8.13748 -21.1265,17.26698"
     id="path6531"
     style="stroke-width:0.992" />
  <path
     class="Note"
     d="m 1282.652,89.68288 c 0,4.2625 3.069,9.02102 11.1135,9.02102 10.3075,0 21.1265,-8.43202 21.1265,-17.15852 0,-5.859 -4.96,-9.12948 -11.1135,-9.12948 -9.6255,0 -21.1265,8.13748 -21.1265,17.26698"
     id="path6533"
     style="stroke-width:0.992" />
  <path
     class="Note"
     d="m 2340.272,52.48288 c 0,4.2625 3.069,9.02102 11.1135,9.02102 10.3075,0 21.1265,-8.43202 21.1265,-17.15852 0,-5.859 -4.96,-9.12948 -11.1135,-9.12948 -9.6255,0 -21.1265,8.13748 -21.1265,17.26698"
     id="path6535"
     style="stroke-width:0.992" />
  <path
     class="Note"
     d="m 994.162,52.48288 c 0,4.2625 3.069,9.02102 11.1135,9.02102 10.3075,0 21.1265,-8.43202 21.1265,-17.15852 0,-5.859 -4.96,-9.12948 -11.1135,-9.12948 -9.6255,0 -21.1265,8.13748 -21.1265,17.26698"
     id="path6537"
     style="stroke-width:0.992" />
  <path
     class="Note"
     d="m 2401.532,52.48288 c 0,4.2625 3.069,9.02102 11.1135,9.02102 10.3075,0 21.1265,-8.43202 21.1265,-17.15852 0,-5.859 -4.96,-9.12948 -11.1135,-9.12948 -9.6255,0 -21.1265,8.13748 -21.1265,17.26698"
     id="path6539"
     style="stroke-width:0.992" />
  <path
     class="Note"
     d="m 1130.692,64.88288 c 0,4.2625 3.069,9.02102 11.1135,9.02102 10.3075,0 21.1265,-8.43202 21.1265,-17.15852 0,-5.859 -4.96,-9.12948 -11.1135,-9.12948 -9.6255,0 -21.1265,8.13748 -21.1265,17.26698"
     id="path6541"
     style="stroke-width:0.992" />
  <path
     class="Note"
     d="m 2493.432,64.88288 c 0,4.2625 3.069,9.02102 11.1135,9.02102 10.3075,0 21.1265,-8.43202 21.1265,-17.15852 0,-5.859 -4.96,-9.12948 -11.1135,-9.12948 -9.6255,0 -21.1265,8.13748 -21.1265,17.26698"
     id="path6543"
     style="stroke-width:0.992" />
  <path
     class="Note"
     d="m 3447.2985,97.2159 c -9.6255,0 -21.1265,8.04448 -21.1265,17.26698 0,4.2625 3.069,9.02102 11.1135,9.02102 10.3075,0 21.1265,-8.43202 21.1265,-17.15852 0,-5.859 -4.96,-9.12948 -11.1135,-9.12948 m -2.6815,17.46848 c -0.2945,0.186 -7.533,4.154 -11.005,4.154 -3.2705,0 -3.968,-2.666 -3.968,-3.565 0,-4.1695 9.92,-9.021 10.323,-9.2225 0.3875,-0.2015 7.44,-4.1695 11.005,-4.1695 2.387,0 3.968,1.395 3.968,3.565 0,4.278 -10.013,9.0365 -10.323,9.238"
     id="path6545"
     style="stroke-width:0.992" />
  <path
     class="Note"
     d="m 1038.782,52.48288 c 0,4.2625 3.069,9.02102 11.1135,9.02102 10.3075,0 21.1265,-8.43202 21.1265,-17.15852 0,-5.859 -4.96,-9.12948 -11.1135,-9.12948 -9.6255,0 -21.1265,8.13748 -21.1265,17.26698"
     id="path6547"
     style="stroke-width:0.992" />
  <path
     class="Note"
     d="m 1646.392,114.48288 c 0,4.2625 3.069,9.02102 11.1135,9.02102 10.3075,0 21.1265,-8.43202 21.1265,-17.15852 0,-5.859 -4.96,-9.12948 -11.1135,-9.12948 -9.6255,0 -21.1265,8.13748 -21.1265,17.26698"
     id="path6549"
     style="stroke-width:0.992" />
  <path
     class="Note"
     d="m 1799.552,102.08288 c 0,4.2625 3.069,9.02102 11.1135,9.02102 10.3075,0 21.1265,-8.43202 21.1265,-17.15852 0,-5.859 -4.96,-9.12948 -11.1135,-9.12948 -9.6255,0 -21.1265,8.13748 -21.1265,17.26698"
     id="path6551"
     style="stroke-width:0.992" />
  <path
     class="Note"
     d="m 2174.112,64.88288 c 0,4.2625 3.069,9.02102 11.1135,9.02102 10.3075,0 21.1265,-8.43202 21.1265,-17.15852 0,-5.859 -4.96,-9.12948 -11.1135,-9.12948 -9.6255,0 -21.1265,8.13748 -21.1265,17.26698"
     id="path6553"
     style="stroke-width:0.992" />
  <path
     class="Note"
     d="m 2645.402,64.88288 c 0,4.2625 3.069,9.02102 11.1135,9.02102 10.3075,0 21.1265,-8.43202 21.1265,-17.15852 0,-5.859 -4.96,-9.12948 -11.1135,-9.12948 -9.6255,0 -21.1265,8.13748 -21.1265,17.26698"
     id="path6555"
     style="stroke-width:0.992" />
  <path
     class="Note"
     d="m 949.542,64.88288 c 0,4.2625 3.069,9.02102 11.1135,9.02102 10.3075,0 21.1265,-8.43202 21.1265,-17.15852 0,-5.859 -4.96,-9.12948 -11.1135,-9.12948 -9.6255,0 -21.1265,8.13748 -21.1265,17.26698"
     id="path6557"
     style="stroke-width:0.992" />
  <path
     class="Note"
     d="m 2706.662,52.48288 c 0,4.2625 3.069,9.02102 11.1135,9.02102 10.3075,0 21.1265,-8.43202 21.1265,-17.15852 0,-5.859 -4.96,-9.12948 -11.1135,-9.12948 -9.6255,0 -21.1265,8.13748 -21.1265,17.26698"
     id="path6559"
     style="stroke-width:0.992" />
  <path
     class="Note"
     d="m 1527.722,114.48288 c 0,4.2625 3.069,9.02102 11.1135,9.02102 10.3075,0 21.1265,-8.43202 21.1265,-17.15852 0,-5.859 -4.96,-9.12948 -11.1135,-9.12948 -9.6255,0 -21.1265,8.13748 -21.1265,17.26698"
     id="path6561"
     style="stroke-width:0.992" />
  <path
     class="Note"
     d="m 2798.562,52.48288 c 0,4.2625 3.069,9.02102 11.1135,9.02102 10.3075,0 21.1265,-8.43202 21.1265,-17.15852 0,-5.859 -4.96,-9.12948 -11.1135,-9.12948 -9.6255,0 -21.1265,8.13748 -21.1265,17.26698"
     id="path6563"
     style="stroke-width:0.992" />
  <path
     class="Note"
     d="m 1996.342,89.68288 c 0,4.2625 3.069,9.02102 11.1135,9.02102 10.3075,0 21.1265,-8.43202 21.1265,-17.15852 0,-5.859 -4.96,-9.12948 -11.1135,-9.12948 -9.6255,0 -21.1265,8.13748 -21.1265,17.26698"
     id="path6565"
     style="stroke-width:0.992" />
  <path
     class="Note"
     d="m 797.572,64.88288 c 0,4.2625 3.069,9.02102 11.1135,9.02102 10.3075,0 21.1265,-8.43202 21.1265,-17.15852 0,-5.859 -4.96,-9.12948 -11.1135,-9.12948 -9.6255,0 -21.1265,8.13748 -21.1265,17.26698"
     id="path6567"
     style="stroke-width:0.992" />
  <path
     class="Note"
     d="m 2890.472,64.88288 c 0,4.2625 3.069,9.02102 11.1135,9.02102 10.3075,0 21.1265,-8.43202 21.1265,-17.15852 0,-5.859 -4.96,-9.12948 -11.1135,-9.12948 -9.6255,0 -21.1265,8.13748 -21.1265,17.26698"
     id="path6569"
     style="stroke-width:0.992" />
  <path
     class="Note"
     d="m 705.672,52.48288 c 0,4.2625 3.069,9.02102 11.1135,9.02102 10.3075,0 21.1265,-8.43202 21.1265,-17.15852 0,-5.859 -4.96,-9.12948 -11.1135,-9.12948 -9.6255,0 -21.1265,8.13748 -21.1265,17.26698"
     id="path6571"
     style="stroke-width:0.992" />
  <path
     class="Note"
     d="m 661.048,52.48288 c 0,4.2625 3.069,9.02102 11.1135,9.02102 10.3075,0 21.1265,-8.43202 21.1265,-17.15852 0,-5.859 -4.96,-9.12948 -11.1135,-9.12948 -9.6255,0 -21.1265,8.13748 -21.1265,17.26698"
     id="path6573"
     style="stroke-width:0.992" />
  <path
     class="Note"
     d="m 3148.522,102.08288 c 0,4.2625 3.069,9.02102 11.1135,9.02102 10.3075,0 21.1265,-8.43202 21.1265,-17.15852 0,-5.859 -4.96,-9.12948 -11.1135,-9.12948 -9.6255,0 -21.1265,8.13748 -21.1265,17.26698"
     id="path6575"
     style="stroke-width:0.992" />
  <path
     class="Note"
     d="m 2995.352,64.88288 c 0,4.2625 3.069,9.02102 11.1135,9.02102 10.3075,0 21.1265,-8.43202 21.1265,-17.15852 0,-5.859 -4.96,-9.12948 -11.1135,-9.12948 -9.6255,0 -21.1265,8.13748 -21.1265,17.26698"
     id="path6577"
     style="stroke-width:0.992" />
  <path
     class="Note"
     d="m 1738.292,89.68288 c 0,4.2625 3.069,9.02102 11.1135,9.02102 10.3075,0 21.1265,-8.43202 21.1265,-17.15852 0,-5.859 -4.96,-9.12948 -11.1135,-9.12948 -9.6255,0 -21.1265,8.13748 -21.1265,17.26698"
     id="path6579"
     style="stroke-width:0.992" />
  <path
     class="Note"
     d="m 616.424,64.88288 c 0,4.2625 3.069,9.02102 11.11348,9.02102 10.30757,0 21.12652,-8.43202 21.12652,-17.15852 0,-5.859 -4.96,-9.12948 -11.11348,-9.12948 -9.62547,0 -21.12652,8.13748 -21.12652,17.26698"
     id="path6581"
     style="stroke-width:0.992" />
  <path
     class="Note"
     d="m 3087.252,89.68288 c 0,4.2625 3.069,9.02102 11.1135,9.02102 10.3075,0 21.1265,-8.43202 21.1265,-17.15852 0,-5.859 -4.96,-9.12948 -11.1135,-9.12948 -9.6255,0 -21.1265,8.13748 -21.1265,17.26698"
     id="path6583"
     style="stroke-width:0.992" />
  <path
     class="Note"
     d="m 2057.612,64.88288 c 0,4.2625 3.069,9.02102 11.1135,9.02102 10.3075,0 21.1265,-8.43202 21.1265,-17.15852 0,-5.859 -4.96,-9.12948 -11.1135,-9.12948 -9.6255,0 -21.1265,8.13748 -21.1265,17.26698"
     id="path6585"
     style="stroke-width:0.992" />
  <path
     class="Note"
     d="m 464.46,64.88288 c 0,4.2625 3.069,9.02102 11.11348,9.02102 10.30757,0 21.12652,-8.43202 21.12652,-17.15852 0,-5.859 -4.96,-9.12948 -11.11348,-9.12948 -9.62547,0 -21.12652,8.13748 -21.12652,17.26698"
     id="path6587"
     style="stroke-width:0.992" />
  <path
     class="Note"
     d="m 3240.422,114.48288 c 0,4.2625 3.069,9.02102 11.1135,9.02102 10.3075,0 21.1265,-8.43202 21.1265,-17.15852 0,-5.859 -4.96,-9.12948 -11.1135,-9.12948 -9.6255,0 -21.1265,8.13748 -21.1265,17.26698"
     id="path6589"
     style="stroke-width:0.992" />
  <path
     class="Note"
     d="m 347.96,27.68288 c 0,4.2625 3.069,9.02102 11.11348,9.02102 10.30757,0 21.12652,-8.43202 21.12652,-17.15852 0,-5.859 -4.96,-9.12948 -11.11348,-9.12948 -9.62547,0 -21.12652,8.13748 -21.12652,17.26698"
     id="path6591"
     style="stroke-width:0.992" />
  <path
     class="Note"
     d="m 3359.092,114.48288 c 0,4.2625 3.069,9.02102 11.1135,9.02102 10.3075,0 21.1265,-8.43202 21.1265,-17.15852 0,-5.859 -4.96,-9.12948 -11.1135,-9.12948 -9.6255,0 -21.1265,8.13748 -21.1265,17.26698"
     id="path6593"
     style="stroke-width:0.992" />
  <path
     class="Clef"
     d="m 74.35348,112.39038 c 0,7.0525 -2.88296,14.291 -9.92,17.17405 -2.07696,-11.90405 -4.75843,-27.68305 -5.456,-32.0541 8.928,0 15.376,6.06055 15.376,14.88005 M 60.264,130.74243 c -1.984,0.40295 -3.85948,0.60443 -5.75052,0.60443 -14.18243,0 -26.28798,-9.92 -26.28798,-24.90848 0,-12.09005 8.52502,-22.909 17.26702,-30.45752 1.674,-1.488 3.27053,-2.86748 4.75853,-4.35548 0.88347,5.34748 1.58095,10.01295 2.27843,14.08948 -9.03643,2.68147 -15.17443,12.19852 -15.17443,21.52952 0,6.944 5.456,16.461 13.392,16.461 0.79043,0 1.68947,-0.40295 1.68947,-1.28652 0,-0.89896 -0.992,-1.39496 -2.18547,-2.18548 -3.87505,-2.387 -6.06053,-4.96 -6.06053,-9.827 0,-6.045 4.464,-10.91205 10.32296,-12.29152 L 60.264,130.74243 M 51.53748,28.7679 c 0.89904,-3.968 5.456,-14.384 10.61757,-14.384 1.488,0 3.85947,4.85148 3.85947,11.70243 0,10.32305 -7.626,18.05757 -14.47704,24.8 -0.58896,-3.968 -1.08496,-7.82747 -1.08496,-11.99695 0,-3.67348 0.29453,-7.05252 1.08496,-10.12148 m -20.832,132.432 c 0,6.55653 5.05304,15.19 18.44504,15.19 4.66548,0 8.742,-1.19347 12.30696,-3.37904 C 66.82052,169.24443 68.2,162.6879 68.2,156.44138 c 0,-3.85948 -0.58895,-8.32348 -1.58095,-13.98095 -0.29453,-1.984 -0.89905,-4.96 -1.488,-8.83505 9.71843,-3.17748 16.95695,-13.29895 16.95695,-23.5135 0,-14.97302 -10.61748,-25.0945 -25.09452,-25.0945 -0.992,-5.952 -1.984,-11.81105 -2.88296,-17.36 10.52453,-11.02052 17.76296,-23.42052 17.76296,-39.184 0,-9.03652 -2.77443,-16.368 -4.37096,-19.94813 C 65.13105,3.472 62.248,0 60.46548,0 59.768,0 56.69905,1.19338 53.42852,5.05325 c -6.35504,7.54813 -8.13747,20.24265 -8.13747,28.56613 0,5.36295 0.496,10.23 2.18547,21.34348 -0.10852,0.093 -5.27,5.34747 -7.34704,7.03704 C 31.09305,70.4319 18.6,82.42886 18.6,102.28438 c 0,18.53805 16.16652,33.12352 34.62705,33.12352 2.86747,0 5.54895,-0.29452 7.82747,-0.69747 1.89096,9.53243 2.976,16.47643 2.976,21.73095 0,10.32305 -5.25452,15.77905 -15.26747,15.77905 -2.38705,0 -4.464,-0.496 -4.66557,-0.496 -0.093,-0.10853 -0.29443,-0.20157 -0.29443,-0.29453 0,-0.20147 0.20147,-0.31 0.496,-0.40304 4.66547,-0.69748 9.31547,-4.66548 9.31547,-11.00496 0,-5.36304 -4.06104,-11.02052 -11.50104,-11.02052 -6.944,0 -11.408,5.65748 -11.408,12.19852"
     id="path6595"
     style="stroke-width:0.992" />
  <path
     class="KeySig"
     d="m 120.60605,77.67038 c -0.58905,-3.85952 -2.976,-7.533 -8.02905,-7.533 -4.96,0 -7.843,3.06895 -8.339,3.67348 l 0.403,-31.85253 c 0,-0.79043 -0.589,-1.37947 -1.395,-1.37947 h -1.178 c -0.806,0 -1.395,0.58904 -1.395,1.37947 l 0.496,59.62853 c 0,0.79052 0.589,1.37957 1.395,1.37957 0.186,0 0.589,-0.093 0.7905,-0.186 0.3875,-0.20157 6.8355,-3.37905 12.1985,-9.42405 3.76652,-4.278 5.25452,-9.1295 5.25452,-13.206 0,-0.8835 -0.093,-1.674 -0.20147,-2.48 m -6.83557,3.875 c 0,1.488 -0.40296,6.045 -2.88296,9.827 -1.68952,2.573 -5.05302,5.25448 -6.94402,6.74248 l 0.2945,-19.34398 c 0.2015,-0.899 1.6895,-3.76655 5.6575,-3.76655 3.58055,0 3.87498,3.36355 3.87498,5.45605 0,0.496 0,0.7905 0,1.085"
     id="path6597"
     style="stroke-width:0.992" />
  <path
     class="KeySig"
     d="m 148.18005,40.47038 c -0.58905,-3.85952 -2.976,-7.533 -8.02905,-7.533 -4.96,0 -7.843,3.06895 -8.339,3.67348 l 0.403,-31.85253 c 0,-0.79043 -0.589,-1.37947 -1.395,-1.37947 h -1.178 c -0.806,0 -1.395,0.58904 -1.395,1.37947 l 0.496,59.62853 c 0,0.79052 0.589,1.37957 1.395,1.37957 0.186,0 0.589,-0.0931 0.7905,-0.186 0.3875,-0.20157 6.8355,-3.37905 12.1985,-9.42405 3.76652,-4.278 5.25452,-9.1295 5.25452,-13.206 0,-0.8835 -0.093,-1.674 -0.20147,-2.48 m -6.83557,3.875 c 0,1.488 -0.40296,6.045 -2.88296,9.827 -1.68952,2.573 -5.05302,5.25448 -6.94402,6.74248 l 0.2945,-19.34398 c 0.2015,-0.899 1.6895,-3.76655 5.6575,-3.76655 3.58055,0 3.87498,3.36355 3.87498,5.45605 0,0.496 0,0.7905 0,1.085"
     id="path6599"
     style="stroke-width:0.992" />
  <path
     class="KeySig"
     d="m 175.75505,90.07038 c -0.58905,-3.85952 -2.976,-7.533 -8.02905,-7.533 -4.96,0 -7.843,3.06895 -8.339,3.67348 l 0.403,-31.85253 c 0,-0.79043 -0.589,-1.37947 -1.395,-1.37947 h -1.178 c -0.806,0 -1.395,0.58904 -1.395,1.37947 l 0.496,59.62853 c 0,0.79052 0.589,1.37957 1.395,1.37957 0.186,0 0.589,-0.0931 0.7905,-0.186 0.3875,-0.20157 6.8355,-3.37905 12.1985,-9.42405 3.76652,-4.278 5.25452,-9.1295 5.25452,-13.206 0,-0.8835 -0.093,-1.674 -0.20147,-2.48 m -6.83557,3.875 c 0,1.488 -0.40296,6.045 -2.88296,9.827 -1.68952,2.573 -5.05302,5.25448 -6.94402,6.74248 l 0.2945,-19.34398 c 0.2015,-0.899 1.6895,-3.76655 5.6575,-3.76655 3.58055,0 3.87498,3.36355 3.87498,5.45605 0,0.496 0,0.7905 0,1.085"
     id="path6601"
     style="stroke-width:0.992" />
  <path
     class="KeySig"
     d="m 203.31405,52.87038 c -0.58905,-3.85952 -2.976,-7.533 -8.02905,-7.533 -4.96,0 -7.843,3.06895 -8.339,3.67348 l 0.403,-31.85253 c 0,-0.79043 -0.589,-1.37947 -1.395,-1.37947 h -1.178 c -0.806,0 -1.395,0.58904 -1.395,1.37947 l 0.496,59.62853 c 0,0.79052 0.589,1.37957 1.395,1.37957 0.186,0 0.589,-0.0931 0.7905,-0.186 0.3875,-0.20157 6.8355,-3.37905 12.1985,-9.42405 3.76652,-4.278 5.25452,-9.1295 5.25452,-13.206 0,-0.8835 -0.093,-1.674 -0.20147,-2.48 m -6.83557,3.875 c 0,1.488 -0.40296,6.045 -2.88296,9.827 -1.68952,2.573 -5.05302,5.25448 -6.94402,6.74248 l 0.2945,-19.34398 c 0.2015,-0.899 1.6895,-3.76655 5.6575,-3.76655 3.58055,0 3.87498,3.36355 3.87498,5.45605 0,0.496 0,0.7905 0,1.085"
     id="path6603"
     style="stroke-width:0.992" />
  <path
     class="KeySig"
     d="m 230.88805,102.47038 c -0.58905,-3.85952 -2.976,-7.533 -8.02905,-7.533 -4.96,0 -7.843,3.06895 -8.339,3.67348 l 0.403,-31.85253 c 0,-0.79043 -0.589,-1.37947 -1.395,-1.37947 h -1.178 c -0.806,0 -1.395,0.58904 -1.395,1.37947 l 0.496,59.62853 c 0,0.79052 0.589,1.37957 1.395,1.37957 0.186,0 0.589,-0.0931 0.7905,-0.186 0.3875,-0.20157 6.8355,-3.37905 12.1985,-9.42405 3.76652,-4.278 5.25452,-9.1295 5.25452,-13.206 0,-0.8835 -0.093,-1.674 -0.20147,-2.48 m -6.83557,3.875 c 0,1.488 -0.40296,6.045 -2.88296,9.827 -1.68952,2.573 -5.05302,5.25448 -6.94402,6.74248 l 0.2945,-19.34398 c 0.2015,-0.899 1.6895,-3.76655 5.6575,-3.76655 3.58055,0 3.87498,3.36355 3.87498,5.45605 0,0.496 0,0.7905 0,1.085"
     id="path6605"
     style="stroke-width:0.992" />
  <path
     class="TimeSig"
     d="m 285.41748,59.62838 c 7.936,-3.0845 8.432,-8.246 8.432,-10.02848 0,-0.20157 0,-0.38757 0,-0.496 0,-0.88357 -0.29443,-12.10557 -17.36,-12.10557 C 259.424,36.99833 259.92,49.1039 259.92,49.1039 h 0.093 l -0.093,0.20148 c 0,3.565 2.883,6.355 6.448,6.355 3.56505,0 6.35505,-2.79 6.35505,-6.355 0,-2.88305 -2.18557,-5.65748 -4.96005,-6.24652 0.093,-0.10853 0.186,-0.20148 0.2945,-0.29453 1.37955,-0.992 3.2705,-1.488 5.16155,-1.488 4.154,0 8.618,2.48 8.618,7.82757 0,6.24648 -4.65,7.14548 -5.84357,7.34698 -1.19348,0.2015 -6.74243,0.589 -7.93598,0.589 -1.1935,0 -1.2865,1.395 -1.2865,1.395 v 1.984 c 0,0 0.186,1.085 1.2865,1.1935 1.68955,0.093 3.96798,0.093 7.14555,0.589 4.35547,0.589 6.634,3.565 6.634,10.50905 0,6.64947 -4.464,8.432 -8.618,8.432 -2.79,0 -5.36305,-0.79053 -6.44805,-1.58105 3.27048,-0.20148 5.95205,-3.06895 5.95205,-6.35495 0,-3.56505 -2.79,-6.44805 -6.35505,-6.44805 -3.565,0 -6.448,2.883 -6.448,6.44805 0,0 0,0.20147 0,0.40295 0,1.28652 0.2945,4.86705 3.875,8.13748 3.8595,3.56504 8.72648,3.67357 10.91205,3.67357 9.51695,0 19.84,-3.286 19.84,-14.08957 0,-7.23848 -4.96,-10.32298 -9.33105,-11.70248 h 0.20148"
     id="path6607"
     style="stroke-width:0.992" />
  <path
     class="TimeSig"
     d="m 275.15652,122.91486 v 7.33157 H 266.926 c -0.69748,0 -1.39495,0.60443 -1.39495,1.39495 v 1.89105 c 0,0.79043 0.69747,1.37947 1.39495,1.37947 h 30.05452 c 0.806,0 1.39496,-0.58904 1.39496,-1.37947 v -1.89105 c 0,-0.79052 -0.58896,-1.39495 -1.39496,-1.39495 h -8.928 v -7.33157 h 8.928 c 0.806,0 1.39496,-0.69748 1.39496,-1.488 v -1.89098 c 0,-0.6975 -0.58896,-1.3795 -1.39496,-1.3795 h -8.928 v -15.779 c 0,-0.589 -0.29452,-1.085 -0.682,-1.2865 l -1.19347,-0.6045 c -0.20157,-0.093 -0.29453,-0.093 -0.496,-0.093 -0.10853,0 -0.10853,0 -0.20157,0 -0.29443,0 -0.69748,0.093 -0.89896,0.2945 l -9.02104,8.2305 c -0.29443,0.31 -0.40296,0.6975 -0.40296,1.1005 v 8.1375 H 263.6555 c 0,0 11.11355,-11.904 22.81598,-27.59005 0.40304,-0.496 0.496,-0.992 0.496,-1.37947 0,-0.496 -0.20148,-0.89896 -0.29443,-0.992 l -2.18557,-2.18548 c -0.29443,-0.20148 -0.58896,-0.40305 -0.992,-0.40305 -0.58896,0 -13.99643,0 -14.78696,0 -0.69747,0 -1.19347,0.60453 -1.28652,1.19357 0,0 -0.496,7.34696 -3.069,15.37598 -2.5885,8.0445 -5.5645,13.0045 -8.1375,16.6625 0,0 -0.2945,0.496 -0.2945,1.1005 0,0.2015 0,0.38755 0.093,0.58902 0.2945,0.69748 0.992,1.78253 0.992,1.78253 0,0 0.2015,0.60443 1.085,0.60443 h 17.06552"
     id="path6609"
     style="stroke-width:0.992" />
  <path
     class="Rest"
     d="m 3590.5215,65.37886 c -0.093,0 -0.2945,-0.10853 -0.403,-0.10853 -0.589,0 -1.085,0.31 -1.2865,0.806 -0.403,0.58905 -3.472,6.448 -7.936,9.71855 -1.2865,0.992 -2.883,1.6895 -4.464,1.984 1.085,-1.2865 1.7825,-2.88298 1.7825,-4.75855 0,-3.87495 -3.1775,-7.05243 -7.037,-7.05243 -3.968,0 -7.1455,3.17748 -7.1455,7.05243 0,3.06905 1.891,5.54905 4.464,6.63405 1.488,0.6975 3.472,1.1935 5.456,1.1935 2.883,0 5.952,-0.8835 8.6335,-2.8675 1.1935,-0.899 2.3715,-2.0925 3.472,-3.28605 l -11.315,35.32453 2.6815,0.79052 13.888,-43.74105 c 0.1085,-0.10843 0.1085,-0.31 0.1085,-0.496 0,-0.496 -0.31,-0.89895 -0.899,-1.19347"
     id="path6611"
     style="stroke-width:0.992" />
  <path
     class="Beam"
     fill-rule="evenodd"
     d="m 949.542,128.86038 47.1,-6.2 v 12.507 l -47.1,6.2 v -12.507"
     id="path6613" />
  <path
     class="Beam"
     fill-rule="evenodd"
     d="m 949.542,110.26038 47.1,-6.2 v 12.507 l -47.1,6.2 v -12.507"
     id="path6615" />
  <path
     class="Beam"
     fill-rule="evenodd"
     d="m 616.424,128.86038 47.108,-6.2 v 12.507 l -47.108,6.2 v -12.507"
     id="path6617" />
  <path
     class="Beam"
     fill-rule="evenodd"
     d="m 616.424,110.26038 47.108,-6.2 v 12.507 l -47.108,6.2 v -12.507"
     id="path6619" />
  <path
     class="Beam"
     fill-rule="evenodd"
     d="m 2174.112,128.88438 63.75,-6.2 v 12.459 l -63.75,6.2 v -12.459"
     id="path6621" />
  <path
     class="NoteDot"
     d="m 2538.062,48.31338 c 0,2.7745 2.1855,4.96 4.96,4.96 2.7745,0 4.96,-2.1855 4.96,-4.96 0,-2.7745 -2.1855,-4.96 -4.96,-4.96 -2.7745,0 -4.96,2.1855 -4.96,4.96"
     id="path6623"
     style="stroke-width:0.992" />
  <path
     class="NoteDot"
     d="m 1175.312,48.31338 c 0,2.7745 2.1855,4.96 4.96,4.96 2.7745,0 4.96,-2.1855 4.96,-4.96 0,-2.7745 -2.1855,-4.96 -4.96,-4.96 -2.7745,0 -4.96,2.1855 -4.96,4.96"
     id="path6625"
     style="stroke-width:0.992" />
  <path
     class="NoteDot"
     d="m 842.202,48.31338 c 0,2.7745 2.1855,4.96 4.96,4.96 2.7745,0 4.96,-2.1855 4.96,-4.96 0,-2.7745 -2.1855,-4.96 -4.96,-4.96 -2.7745,0 -4.96,2.1855 -4.96,4.96"
     id="path6627"
     style="stroke-width:0.992" />
  <path
     class="NoteDot"
     d="m 509.084,48.31338 c 0,2.7745 2.1855,4.96 4.96,4.96 2.7745,0 4.96,-2.1855 4.96,-4.96 0,-2.7745 -2.1855,-4.96 -4.96,-4.96 -2.7745,0 -4.96,2.1855 -4.96,4.96"
     id="path6629"
     style="stroke-width:0.992" />
  <path
     class="NoteDot"
     d="m 392.584,23.51338 c 0,2.7745 2.1855,4.96 4.96,4.96 2.7745,0 4.96,-2.1855 4.96,-4.96 0,-2.7745 -2.1855,-4.96 -4.96,-4.96 -2.7745,0 -4.96,2.1855 -4.96,4.96"
     id="path6631"
     style="stroke-width:0.992" />
  <path
     class="NoteDot"
     d="m 2102.232,48.31338 c 0,2.7745 2.1855,4.96 4.96,4.96 2.7745,0 4.96,-2.1855 4.96,-4.96 0,-2.7745 -2.1855,-4.96 -4.96,-4.96 -2.7745,0 -4.96,2.1855 -4.96,4.96"
     id="path6633"
     style="stroke-width:0.992" />
</svg>
