<?xml version="1.0" encoding="UTF-8" standalone="no"?>
<svg
   xmlns:dc="http://purl.org/dc/elements/1.1/"
   xmlns:cc="http://creativecommons.org/ns#"
   xmlns:rdf="http://www.w3.org/1999/02/22-rdf-syntax-ns#"
   xmlns:svg="http://www.w3.org/2000/svg"
   xmlns="http://www.w3.org/2000/svg"
   xmlns:sodipodi="http://sodipodi.sourceforge.net/DTD/sodipodi-0.dtd"
   xmlns:inkscape="http://www.inkscape.org/namespaces/inkscape"
   width="3695.4021"
   height="126.8757"
   viewBox="0 0 3695.4022 126.8757"
   version="1.2"
   id="svg5046"
   sodipodi:docname="Dossium Canto Vogelvrijen Musica.svg"
   inkscape:version="1.0.2-2 (e86c870879, 2021-01-15)">
  <metadata
     id="metadata5052">
    <rdf:RDF>
      <cc:Work
         rdf:about="">
        <dc:format>image/svg+xml</dc:format>
        <dc:type
           rdf:resource="http://purl.org/dc/dcmitype/StillImage" />
      </cc:Work>
    </rdf:RDF>
  </metadata>
  <defs
     id="defs5050" />
  <sodipodi:namedview
     pagecolor="#ffffff"
     bordercolor="#666666"
     borderopacity="1"
     objecttolerance="10"
     gridtolerance="10"
     guidetolerance="10"
     inkscape:pageopacity="0"
     inkscape:pageshadow="2"
     inkscape:window-width="1920"
     inkscape:window-height="991"
     id="namedview5048"
     showgrid="false"
     inkscape:zoom="0.29557974"
     inkscape:cx="1803.402"
     inkscape:cy="881.35808"
     inkscape:window-x="-9"
     inkscape:window-y="-9"
     inkscape:window-maximized="1"
     inkscape:current-layer="svg5046" />
  <title
     id="title4676">Dossium Canto Vogelvrijen Musica</title>
  <desc
     id="desc4678">Generated by MuseScore Studio 4.4.4</desc>
  <polyline
     class="StaffLines"
     fill="none"
     stroke="#000000"
     stroke-width="1.94"
     stroke-linejoin="bevel"
     points="300.798,634.198 3996.2,634.198"
     id="polyline4680"
     transform="translate(-300.798,-607.24189)" />
  <polyline
     class="StaffLines"
     fill="none"
     stroke="#000000"
     stroke-width="1.94"
     stroke-linejoin="bevel"
     points="300.798,651.838 3996.2,651.838"
     id="polyline4682"
     transform="translate(-300.798,-607.24189)" />
  <polyline
     class="StaffLines"
     fill="none"
     stroke="#000000"
     stroke-width="1.94"
     stroke-linejoin="bevel"
     points="300.798,669.478 3996.2,669.478"
     id="polyline4684"
     transform="translate(-300.798,-607.24189)" />
  <polyline
     class="StaffLines"
     fill="none"
     stroke="#000000"
     stroke-width="1.94"
     stroke-linejoin="bevel"
     points="300.798,687.118 3996.2,687.118"
     id="polyline4686"
     transform="translate(-300.798,-607.24189)" />
  <polyline
     class="StaffLines"
     fill="none"
     stroke="#000000"
     stroke-width="1.94"
     stroke-linejoin="bevel"
     points="300.798,704.758 3996.2,704.758"
     id="polyline4688"
     transform="translate(-300.798,-607.24189)" />
  <polyline
     class="BarLine"
     fill="none"
     stroke="#000000"
     stroke-width="3.18"
     stroke-linejoin="bevel"
     points="3344.2,633.228 3344.2,705.729"
     id="polyline4698"
     transform="translate(-300.798,-607.24189)" />
  <polyline
     class="BarLine"
     fill="none"
     stroke="#000000"
     stroke-width="3.18"
     stroke-linejoin="bevel"
     points="2123.38,633.228 2123.38,705.729"
     id="polyline4700"
     transform="translate(-300.798,-607.24189)" />
  <polyline
     class="BarLine"
     fill="none"
     stroke="#000000"
     stroke-width="3.18"
     stroke-linejoin="bevel"
     points="3978.38,633.228 3978.38,705.729"
     id="polyline4702"
     transform="translate(-300.798,-607.24189)" />
  <polyline
     class="BarLine"
     fill="none"
     stroke="#000000"
     stroke-width="9.7"
     stroke-linejoin="bevel"
     points="3991.35,633.228 3991.35,705.729"
     id="polyline4704"
     transform="translate(-300.798,-607.24189)" />
  <polyline
     class="BarLine"
     fill="none"
     stroke="#000000"
     stroke-width="3.18"
     stroke-linejoin="bevel"
     points="2625.38,633.228 2625.38,705.729"
     id="polyline4706"
     transform="translate(-300.798,-607.24189)" />
  <polyline
     class="BarLine"
     fill="none"
     stroke="#000000"
     stroke-width="3.18"
     stroke-linejoin="bevel"
     points="1556.96,633.228 1556.96,705.729"
     id="polyline4708"
     transform="translate(-300.798,-607.24189)" />
  <polyline
     class="BarLine"
     fill="none"
     stroke="#000000"
     stroke-width="3.18"
     stroke-linejoin="bevel"
     points="1054.96,633.228 1054.96,705.729"
     id="polyline4710"
     transform="translate(-300.798,-607.24189)" />
  <path
     class="Accidental"
     d="m 953.02029,46.007307 c 0.43,-0.06618 0.7828,-0.562292 0.7828,-0.992285 v -4.156407 c 0,-0.7056 -0.49618,-0.992215 -1.1356,-0.992215 l -2.32629,0.496107 V 29.844622 h -1.97349 v 10.9368 l -6.28423,1.2789 V 32.1048 H 940.11 v 10.374507 l -2.75625,0.562293 c -0.41895,0.07712 -0.77175,0.562222 -0.77175,0.992215 v 4.090292 c 0,0.77175 0.56228,0.99225 1.20173,0.99225 L 940.11,48.620229 v 11.642407 l -2.75625,0.562271 c -0.41895,0.06619 -0.77175,0.562293 -0.77175,0.992286 v 4.090222 c 0,0.771785 0.56228,0.981278 1.20173,0.981278 l 2.32627,-0.4851 V 76.9104 h 1.97348 V 65.9736 l 6.28423,-1.267893 V 74.6613 h 1.97349 V 64.286793 l 2.67909,-0.496178 c 0.43,-0.07712 0.7828,-0.562222 0.7828,-0.992215 v -4.156443 c 0,-0.7056 -0.49618,-0.99225 -1.1356,-0.99225 l -2.32629,0.496129 V 46.503429 l 2.67909,-0.496122 m -10.93681,2.18295 6.28423,-1.267878 v 11.642407 l -6.28423,1.34505 V 48.190257"
     id="path4712"
     style="stroke-width:0.7056" />
  <path
     class="Accidental"
     d="m 333.70259,40.505815 c -0.1323,-0.143308 -0.3528,-0.209493 -0.62848,-0.209493 l -0.14331,0.06618 c 0,0 -0.0661,0 -0.0661,0 l -8.89721,2.4696 v -12.348 H 321.994 v 34.9272 c 0,0.771786 0.63945,0.915093 1.26788,0.915093 l 8.89721,-2.4696 v 12.348 h 1.8963 c 0,-11.708585 0,-22.854843 0,-34.9272 0,-0.275678 -0.1323,-0.628478 -0.3528,-0.771785 m -9.73511,19.756821 V 48.686379 l 8.19161,-2.326272 v 11.6424 l -8.19161,2.260129"
     id="path4714"
     style="stroke-width:0.7056" />
  <path
     class="Accidental"
     d="m 2676.5803,19.547307 c 0.43,-0.06619 0.7828,-0.562292 0.7828,-0.992285 v -4.156407 c 0,-0.7056 -0.4962,-0.992215 -1.1356,-0.992215 l -2.3263,0.496107 V 3.3846221 h -1.9735 V 14.321422 l -6.2842,1.2789 V 5.6448 h -1.9735 v 10.374507 l -2.7563,0.562293 c -0.4189,0.07712 -0.7717,0.562222 -0.7717,0.992215 v 4.090292 c 0,0.77175 0.5623,0.99225 1.2017,0.99225 l 2.3263,-0.496128 v 11.642407 l -2.7563,0.562271 c -0.4189,0.06619 -0.7717,0.562293 -0.7717,0.992286 v 4.090222 c 0,0.771785 0.5623,0.981278 1.2017,0.981278 l 2.3263,-0.4851 V 50.4504 h 1.9735 V 39.5136 l 6.2842,-1.267893 V 48.2013 h 1.9735 V 37.826793 l 2.6791,-0.496178 c 0.43,-0.07712 0.7828,-0.562222 0.7828,-0.992215 v -4.156443 c 0,-0.7056 -0.4962,-0.99225 -1.1356,-0.99225 l -2.3263,0.496129 V 20.043429 l 2.6791,-0.496122 m -10.9368,2.18295 6.2842,-1.267878 v 11.642407 l -6.2842,1.34505 V 21.730257"
     id="path4716"
     style="stroke-width:0.7056" />
  <path
     class="Accidental"
     d="m 2555.7906,14.045815 c -0.1323,-0.143308 -0.3528,-0.209493 -0.6285,-0.209493 l -0.1433,0.06619 c 0,0 -0.066,0 -0.066,0 l -8.8972,2.4696 V 4.0241074 h -1.9735 V 38.951307 c 0,0.771786 0.6395,0.915093 1.2679,0.915093 l 8.8972,-2.4696 v 12.348 h 1.8963 c 0,-11.708585 0,-22.854843 0,-34.9272 0,-0.275678 -0.1323,-0.628478 -0.3528,-0.771785 m -9.7351,19.756821 V 22.226379 l 8.1916,-2.326272 v 11.6424 l -8.1916,2.260129"
     id="path4718"
     style="stroke-width:0.7056" />
  <path
     class="Accidental"
     d="m 386.59029,46.007307 c 0.43,-0.06618 0.7828,-0.562292 0.7828,-0.992285 v -4.156407 c 0,-0.7056 -0.49618,-0.992215 -1.1356,-0.992215 l -2.32629,0.496107 V 29.844622 h -1.97349 v 10.9368 l -6.28423,1.2789 V 32.1048 H 373.68 v 10.374507 l -2.75625,0.562293 c -0.41895,0.07712 -0.77175,0.562222 -0.77175,0.992215 v 4.090292 c 0,0.77175 0.56228,0.99225 1.20173,0.99225 L 373.68,48.620229 v 11.642407 l -2.75625,0.562271 c -0.41895,0.06619 -0.77175,0.562293 -0.77175,0.992286 v 4.090222 c 0,0.771785 0.56228,0.981278 1.20173,0.981278 l 2.32627,-0.4851 V 76.9104 h 1.97348 V 65.9736 l 6.28423,-1.267893 V 74.6613 h 1.97349 V 64.286793 l 2.67909,-0.496178 c 0.43,-0.07712 0.7828,-0.562222 0.7828,-0.992215 v -4.156443 c 0,-0.7056 -0.49618,-0.99225 -1.1356,-0.99225 l -2.32629,0.496129 V 46.503429 l 2.67909,-0.496122 m -10.93681,2.18295 6.28423,-1.267878 v 11.642407 l -6.28423,1.34505 V 48.190257"
     id="path4720"
     style="stroke-width:0.7056" />
  <path
     class="Accidental"
     d="m 1403.4703,46.007307 c 0.43,-0.06618 0.7828,-0.562292 0.7828,-0.992285 v -4.156407 c 0,-0.7056 -0.4962,-0.992215 -1.1356,-0.992215 l -2.3263,0.496107 V 29.844622 h -1.9735 v 10.9368 l -6.2842,1.2789 V 32.1048 h -1.9735 v 10.374507 l -2.7562,0.562293 c -0.419,0.07712 -0.7718,0.562222 -0.7718,0.992215 v 4.090292 c 0,0.77175 0.5623,0.99225 1.2017,0.99225 l 2.3263,-0.496128 v 11.642407 l -2.7562,0.562271 c -0.419,0.06619 -0.7718,0.562293 -0.7718,0.992286 v 4.090222 c 0,0.771785 0.5623,0.981278 1.2017,0.981278 l 2.3263,-0.4851 V 76.9104 h 1.9735 V 65.9736 l 6.2842,-1.267893 V 74.6613 h 1.9735 V 64.286793 l 2.6791,-0.496178 c 0.43,-0.07712 0.7828,-0.562222 0.7828,-0.992215 v -4.156443 c 0,-0.7056 -0.4962,-0.99225 -1.1356,-0.99225 l -2.3263,0.496129 V 46.503429 l 2.6791,-0.496122 m -10.9368,2.18295 6.2842,-1.267878 v 11.642407 l -6.2842,1.34505 V 48.190257"
     id="path4722"
     style="stroke-width:0.7056" />
  <path
     class="Accidental"
     d="m 1737.1606,40.505815 c -0.1323,-0.143308 -0.3528,-0.209493 -0.6285,-0.209493 l -0.1433,0.06618 c 0,0 -0.066,0 -0.066,0 l -8.8972,2.4696 v -12.348 h -1.9735 v 34.9272 c 0,0.771786 0.6394,0.915093 1.2679,0.915093 l 8.8972,-2.4696 v 12.348 h 1.8963 c 0,-11.708585 0,-22.854843 0,-34.9272 0,-0.275678 -0.1323,-0.628478 -0.3528,-0.771785 m -9.7351,19.756821 V 48.686379 l 8.1916,-2.326272 v 11.6424 l -8.1916,2.260129"
     id="path4724"
     style="stroke-width:0.7056" />
  <path
     class="Accidental"
     d="m 900.13059,40.505815 c -0.1323,-0.143308 -0.3528,-0.209493 -0.62848,-0.209493 l -0.14331,0.06618 c 0,0 -0.0661,0 -0.0661,0 l -8.89721,2.4696 v -12.348 H 888.422 v 34.9272 c 0,0.771786 0.63945,0.915093 1.26788,0.915093 l 8.89721,-2.4696 v 12.348 h 1.8963 c 0,-11.708585 0,-22.854843 0,-34.9272 0,-0.275678 -0.1323,-0.628478 -0.3528,-0.771785 m -9.73511,19.756821 V 48.686379 l 8.19161,-2.326272 v 11.6424 l -8.19161,2.260129"
     id="path4726"
     style="stroke-width:0.7056" />
  <path
     class="Accidental"
     d="m 1969.9003,46.007307 c 0.43,-0.06618 0.7828,-0.562292 0.7828,-0.992285 v -4.156407 c 0,-0.7056 -0.4962,-0.992215 -1.1356,-0.992215 l -2.3263,0.496107 V 29.844622 h -1.9735 v 10.9368 l -6.2842,1.2789 V 32.1048 h -1.9735 v 10.374507 l -2.7562,0.562293 c -0.419,0.07712 -0.7718,0.562222 -0.7718,0.992215 v 4.090292 c 0,0.77175 0.5623,0.99225 1.2017,0.99225 l 2.3263,-0.496128 v 11.642407 l -2.7562,0.562271 c -0.419,0.06619 -0.7718,0.562293 -0.7718,0.992286 v 4.090222 c 0,0.771785 0.5623,0.981278 1.2017,0.981278 l 2.3263,-0.4851 V 76.9104 h 1.9735 V 65.9736 l 6.2842,-1.267893 V 74.6613 h 1.9735 V 64.286793 l 2.6791,-0.496178 c 0.43,-0.07712 0.7828,-0.562222 0.7828,-0.992215 v -4.156443 c 0,-0.7056 -0.4962,-0.99225 -1.1356,-0.99225 l -2.3263,0.496129 V 46.503429 l 2.6791,-0.496122 m -10.9368,2.18295 6.2842,-1.267878 v 11.642407 l -6.2842,1.34505 V 48.190257"
     id="path4728"
     style="stroke-width:0.7056" />
  <path
     class="Accidental"
     d="m 2509.8103,19.547307 c 0.43,-0.06619 0.7828,-0.562292 0.7828,-0.992285 v -4.156407 c 0,-0.7056 -0.4962,-0.992215 -1.1356,-0.992215 l -2.3263,0.496107 V 3.3846221 h -1.9735 V 14.321422 l -6.2842,1.2789 V 5.6448 H 2496.9 v 10.374507 l -2.7562,0.562293 c -0.419,0.07712 -0.7718,0.562222 -0.7718,0.992215 v 4.090292 c 0,0.77175 0.5623,0.99225 1.2017,0.99225 l 2.3263,-0.496128 v 11.642407 l -2.7562,0.562271 c -0.419,0.06619 -0.7718,0.562293 -0.7718,0.992286 v 4.090222 c 0,0.771785 0.5623,0.981278 1.2017,0.981278 l 2.3263,-0.4851 V 50.4504 h 1.9735 V 39.5136 l 6.2842,-1.267893 V 48.2013 h 1.9735 V 37.826793 l 2.6791,-0.496178 c 0.43,-0.07712 0.7828,-0.562222 0.7828,-0.992215 v -4.156443 c 0,-0.7056 -0.4962,-0.99225 -1.1356,-0.99225 l -2.3263,0.496129 V 20.043429 l 2.6791,-0.496122 m -10.9368,2.18295 6.2842,-1.267878 v 11.642407 l -6.2842,1.34505 V 21.730257"
     id="path4730"
     style="stroke-width:0.7056" />
  <path
     class="Accidental"
     d="m 1917.0106,40.505815 c -0.1323,-0.143308 -0.3528,-0.209493 -0.6285,-0.209493 l -0.1433,0.06618 c 0,0 -0.066,0 -0.066,0 l -8.8972,2.4696 v -12.348 h -1.9735 v 34.9272 c 0,0.771786 0.6394,0.915093 1.2679,0.915093 l 8.8972,-2.4696 v 12.348 h 1.8963 c 0,-11.708585 0,-22.854843 0,-34.9272 0,-0.275678 -0.1323,-0.628478 -0.3528,-0.771785 m -9.7351,19.756821 V 48.686379 l 8.1916,-2.326272 v 11.6424 l -8.1916,2.260129"
     id="path4732"
     style="stroke-width:0.7056" />
  <path
     class="Accidental"
     d="m 617.18859,40.505815 c -0.1323,-0.143308 -0.3528,-0.209493 -0.62848,-0.209493 l -0.14331,0.06618 c 0,0 -0.0661,0 -0.0661,0 l -8.89721,2.4696 v -12.348 H 605.48 v 34.9272 c 0,0.771786 0.63945,0.915093 1.26788,0.915093 l 8.89721,-2.4696 v 12.348 h 1.8963 c 0,-11.708585 0,-22.854843 0,-34.9272 0,-0.275678 -0.1323,-0.628478 -0.3528,-0.771785 m -9.73511,19.756821 V 48.686379 l 8.19161,-2.326272 v 11.6424 l -8.19161,2.260129"
     id="path4734"
     style="stroke-width:0.7056" />
  <path
     class="Accidental"
     d="m 1350.5806,40.505815 c -0.1323,-0.143308 -0.3528,-0.209493 -0.6285,-0.209493 l -0.1433,0.06618 c 0,0 -0.066,0 -0.066,0 l -8.8972,2.4696 v -12.348 h -1.9735 v 34.9272 c 0,0.771786 0.6395,0.915093 1.2679,0.915093 l 8.8972,-2.4696 v 12.348 h 1.8963 c 0,-11.708585 0,-22.854843 0,-34.9272 0,-0.275678 -0.1323,-0.628478 -0.3528,-0.771785 m -9.7351,19.756821 V 48.686379 l 8.1916,-2.326272 v 11.6424 l -8.1916,2.260129"
     id="path4736"
     style="stroke-width:0.7056" />
  <path
     class="Accidental"
     d="m 2389.0206,14.045815 c -0.1323,-0.143308 -0.3528,-0.209493 -0.6285,-0.209493 l -0.1433,0.06619 c 0,0 -0.066,0 -0.066,0 l -8.8972,2.4696 V 4.0241074 h -1.9735 V 38.951307 c 0,0.771786 0.6395,0.915093 1.2679,0.915093 l 8.8972,-2.4696 v 12.348 h 1.8963 c 0,-11.708585 0,-22.854843 0,-34.9272 0,-0.275678 -0.1323,-0.628478 -0.3528,-0.771785 m -9.7351,19.756821 V 22.226379 l 8.1916,-2.326272 v 11.6424 l -8.1916,2.260129"
     id="path4738"
     style="stroke-width:0.7056" />
  <path
     class="Accidental"
     d="m 2843.3503,19.547307 c 0.43,-0.06619 0.7828,-0.562292 0.7828,-0.992285 v -4.156407 c 0,-0.7056 -0.4962,-0.992215 -1.1356,-0.992215 l -2.3263,0.496107 V 3.3846221 h -1.9735 V 14.321422 l -6.2842,1.2789 V 5.6448 h -1.9735 v 10.374507 l -2.7562,0.562293 c -0.419,0.07712 -0.7718,0.562222 -0.7718,0.992215 v 4.090292 c 0,0.77175 0.5623,0.99225 1.2017,0.99225 l 2.3263,-0.496128 v 11.642407 l -2.7562,0.562271 c -0.419,0.06619 -0.7718,0.562293 -0.7718,0.992286 v 4.090222 c 0,0.771785 0.5623,0.981278 1.2017,0.981278 l 2.3263,-0.4851 V 50.4504 h 1.9735 V 39.5136 l 6.2842,-1.267893 V 48.2013 h 1.9735 V 37.826793 l 2.6791,-0.496178 c 0.43,-0.07712 0.7828,-0.562222 0.7828,-0.992215 v -4.156443 c 0,-0.7056 -0.4962,-0.99225 -1.1356,-0.99225 l -2.3263,0.496129 V 20.043429 l 2.6791,-0.496122 m -10.9368,2.18295 6.2842,-1.267878 v 11.642407 l -6.2842,1.34505 V 21.730257"
     id="path4740"
     style="stroke-width:0.7056" />
  <path
     class="Accidental"
     d="m 2722.5606,14.045815 c -0.1323,-0.143308 -0.3528,-0.209493 -0.6285,-0.209493 l -0.1433,0.06619 c 0,0 -0.066,0 -0.066,0 l -8.8972,2.4696 V 4.0241074 h -1.9735 V 38.951307 c 0,0.771786 0.6395,0.915093 1.2679,0.915093 l 8.8972,-2.4696 v 12.348 h 1.8963 c 0,-11.708585 0,-22.854843 0,-34.9272 0,-0.275678 -0.1323,-0.628478 -0.3528,-0.771785 m -9.7351,19.756821 V 22.226379 l 8.1916,-2.326272 v 11.6424 l -8.1916,2.260129"
     id="path4742"
     style="stroke-width:0.7056" />
  <polyline
     class="LedgerLine"
     fill="none"
     stroke="#000000"
     stroke-width="2.82"
     stroke-linejoin="bevel"
     points="3639.13,616.558 3673.69,616.558"
     id="polyline4744"
     transform="translate(-300.798,-607.24189)" />
  <polyline
     class="LedgerLine"
     fill="none"
     stroke="#000000"
     stroke-width="2.82"
     stroke-linejoin="bevel"
     points="3855,616.558 3889.56,616.558"
     id="polyline4746"
     transform="translate(-300.798,-607.24189)" />
  <polyline
     class="LedgerLine"
     fill="none"
     stroke="#000000"
     stroke-width="2.82"
     stroke-linejoin="bevel"
     points="3500.57,616.558 3535.14,616.558"
     id="polyline4748"
     transform="translate(-300.798,-607.24189)" />
  <polyline
     class="LedgerLine"
     fill="none"
     stroke="#000000"
     stroke-width="2.82"
     stroke-linejoin="bevel"
     points="3777.69,616.558 3812.25,616.558"
     id="polyline4750"
     transform="translate(-300.798,-607.24189)" />
  <polyline
     class="LedgerLine"
     fill="none"
     stroke="#000000"
     stroke-width="2.82"
     stroke-linejoin="bevel"
     points="3362.02,616.558 3396.58,616.558"
     id="polyline4752"
     transform="translate(-300.798,-607.24189)" />
  <polyline
     class="Stem"
     fill="none"
     stroke="#000000"
     stroke-width="1.76"
     stroke-linejoin="bevel"
     points="2816.67,637.162 2816.67,700.348"
     id="polyline4754"
     transform="translate(-300.798,-607.24189)" />
  <polyline
     class="Stem"
     fill="none"
     stroke="#000000"
     stroke-width="1.76"
     stroke-linejoin="bevel"
     points="2864,637.162 2864,700.348"
     id="polyline4756"
     transform="translate(-300.798,-607.24189)" />
  <polyline
     class="Stem"
     fill="none"
     stroke="#000000"
     stroke-width="1.76"
     stroke-linejoin="bevel"
     points="2898.36,645.982 2898.36,700.348"
     id="polyline4758"
     transform="translate(-300.798,-607.24189)" />
  <polyline
     class="Stem"
     fill="none"
     stroke="#000000"
     stroke-width="1.76"
     stroke-linejoin="bevel"
     points="2932.73,637.162 2932.73,700.348"
     id="polyline4760"
     transform="translate(-300.798,-607.24189)" />
  <polyline
     class="Stem"
     fill="none"
     stroke="#000000"
     stroke-width="1.76"
     stroke-linejoin="bevel"
     points="513.052,654.802 513.052,713.578"
     id="polyline4762"
     transform="translate(-300.798,-607.24189)" />
  <polyline
     class="Stem"
     fill="none"
     stroke="#000000"
     stroke-width="1.76"
     stroke-linejoin="bevel"
     points="2983.44,637.162 2983.44,700.348"
     id="polyline4764"
     transform="translate(-300.798,-607.24189)" />
  <polyline
     class="Stem"
     fill="none"
     stroke="#000000"
     stroke-width="1.76"
     stroke-linejoin="bevel"
     points="3030.77,637.162 3030.77,700.348"
     id="polyline4766"
     transform="translate(-300.798,-607.24189)" />
  <polyline
     class="Stem"
     fill="none"
     stroke="#000000"
     stroke-width="1.76"
     stroke-linejoin="bevel"
     points="590.366,672.442 590.366,726.738"
     id="polyline4768"
     transform="translate(-300.798,-607.24189)" />
  <polyline
     class="Stem"
     fill="none"
     stroke="#000000"
     stroke-width="1.76"
     stroke-linejoin="bevel"
     points="3065.13,645.982 3065.13,700.348"
     id="polyline4770"
     transform="translate(-300.798,-607.24189)" />
  <polyline
     class="Stem"
     fill="none"
     stroke="#000000"
     stroke-width="1.76"
     stroke-linejoin="bevel"
     points="641.909,663.622 641.909,709.131"
     id="polyline4772"
     transform="translate(-300.798,-607.24189)" />
  <polyline
     class="Stem"
     fill="none"
     stroke="#000000"
     stroke-width="1.76"
     stroke-linejoin="bevel"
     points="3099.49,637.162 3099.49,700.348"
     id="polyline4774"
     transform="translate(-300.798,-607.24189)" />
  <polyline
     class="Stem"
     fill="none"
     stroke="#000000"
     stroke-width="1.76"
     stroke-linejoin="bevel"
     points="3150.21,637.162 3150.21,695.938"
     id="polyline4776"
     transform="translate(-300.798,-607.24189)" />
  <polyline
     class="Stem"
     fill="none"
     stroke="#000000"
     stroke-width="1.76"
     stroke-linejoin="bevel"
     points="693.452,663.622 693.452,706.963"
     id="polyline4778"
     transform="translate(-300.798,-607.24189)" />
  <polyline
     class="Stem"
     fill="none"
     stroke="#000000"
     stroke-width="1.76"
     stroke-linejoin="bevel"
     points="3227.52,637.162 3227.52,695.938"
     id="polyline4780"
     transform="translate(-300.798,-607.24189)" />
  <polyline
     class="Stem"
     fill="none"
     stroke="#000000"
     stroke-width="1.76"
     stroke-linejoin="bevel"
     points="744.995,654.802 744.995,704.796"
     id="polyline4782"
     transform="translate(-300.798,-607.24189)" />
  <polyline
     class="Stem"
     fill="none"
     stroke="#000000"
     stroke-width="1.76"
     stroke-linejoin="bevel"
     points="3368.72,619.522 3368.72,687.118"
     id="polyline4784"
     transform="translate(-300.798,-607.24189)" />
  <polyline
     class="Stem"
     fill="none"
     stroke="#000000"
     stroke-width="1.76"
     stroke-linejoin="bevel"
     points="796.538,654.802 796.538,713.578"
     id="polyline4786"
     transform="translate(-300.798,-607.24189)" />
  <polyline
     class="Stem"
     fill="none"
     stroke="#000000"
     stroke-width="1.76"
     stroke-linejoin="bevel"
     points="3403.64,628.342 3403.64,687.118"
     id="polyline4788"
     transform="translate(-300.798,-607.24189)" />
  <polyline
     class="Stem"
     fill="none"
     stroke="#000000"
     stroke-width="1.76"
     stroke-linejoin="bevel"
     points="3438,637.162 3438,687.118"
     id="polyline4790"
     transform="translate(-300.798,-607.24189)" />
  <polyline
     class="Stem"
     fill="none"
     stroke="#000000"
     stroke-width="1.76"
     stroke-linejoin="bevel"
     points="873.853,663.622 873.853,717.918"
     id="polyline4792"
     transform="translate(-300.798,-607.24189)" />
  <polyline
     class="Stem"
     fill="none"
     stroke="#000000"
     stroke-width="1.76"
     stroke-linejoin="bevel"
     points="3472.36,628.342 3472.36,687.118"
     id="polyline4794"
     transform="translate(-300.798,-607.24189)" />
  <polyline
     class="Stem"
     fill="none"
     stroke="#000000"
     stroke-width="1.76"
     stroke-linejoin="bevel"
     points="3507.28,619.522 3507.28,687.118"
     id="polyline4796"
     transform="translate(-300.798,-607.24189)" />
  <polyline
     class="Stem"
     fill="none"
     stroke="#000000"
     stroke-width="1.76"
     stroke-linejoin="bevel"
     points="925.396,663.622 925.396,717.918"
     id="polyline4798"
     transform="translate(-300.798,-607.24189)" />
  <polyline
     class="Stem"
     fill="none"
     stroke="#000000"
     stroke-width="1.76"
     stroke-linejoin="bevel"
     points="3542.19,628.342 3542.19,687.118"
     id="polyline4800"
     transform="translate(-300.798,-607.24189)" />
  <polyline
     class="Stem"
     fill="none"
     stroke="#000000"
     stroke-width="1.76"
     stroke-linejoin="bevel"
     points="976.939,672.442 976.939,722.398"
     id="polyline4802"
     transform="translate(-300.798,-607.24189)" />
  <polyline
     class="Stem"
     fill="none"
     stroke="#000000"
     stroke-width="1.76"
     stroke-linejoin="bevel"
     points="3576.56,637.162 3576.56,687.118"
     id="polyline4804"
     transform="translate(-300.798,-607.24189)" />
  <polyline
     class="Stem"
     fill="none"
     stroke="#000000"
     stroke-width="1.76"
     stroke-linejoin="bevel"
     points="1079.48,654.802 1079.48,713.578"
     id="polyline4806"
     transform="translate(-300.798,-607.24189)" />
  <polyline
     class="Stem"
     fill="none"
     stroke="#000000"
     stroke-width="1.76"
     stroke-linejoin="bevel"
     points="3610.92,628.342 3610.92,687.118"
     id="polyline4808"
     transform="translate(-300.798,-607.24189)" />
  <polyline
     class="Stem"
     fill="none"
     stroke="#000000"
     stroke-width="1.76"
     stroke-linejoin="bevel"
     points="3645.83,619.522 3645.83,687.118"
     id="polyline4810"
     transform="translate(-300.798,-607.24189)" />
  <polyline
     class="Stem"
     fill="none"
     stroke="#000000"
     stroke-width="1.76"
     stroke-linejoin="bevel"
     points="1156.79,672.442 1156.79,726.738"
     id="polyline4812"
     transform="translate(-300.798,-607.24189)" />
  <polyline
     class="Stem"
     fill="none"
     stroke="#000000"
     stroke-width="1.76"
     stroke-linejoin="bevel"
     points="3680.75,628.342 3680.75,687.118"
     id="polyline4814"
     transform="translate(-300.798,-607.24189)" />
  <polyline
     class="Stem"
     fill="none"
     stroke="#000000"
     stroke-width="1.76"
     stroke-linejoin="bevel"
     points="1208.34,663.622 1208.34,709.131"
     id="polyline4816"
     transform="translate(-300.798,-607.24189)" />
  <polyline
     class="Stem"
     fill="none"
     stroke="#000000"
     stroke-width="1.76"
     stroke-linejoin="bevel"
     points="3715.11,637.162 3715.11,687.118"
     id="polyline4818"
     transform="translate(-300.798,-607.24189)" />
  <polyline
     class="Stem"
     fill="none"
     stroke="#000000"
     stroke-width="1.76"
     stroke-linejoin="bevel"
     points="3749.47,628.342 3749.47,687.118"
     id="polyline4820"
     transform="translate(-300.798,-607.24189)" />
  <polyline
     class="Stem"
     fill="none"
     stroke="#000000"
     stroke-width="1.76"
     stroke-linejoin="bevel"
     points="1259.88,663.622 1259.88,706.963"
     id="polyline4822"
     transform="translate(-300.798,-607.24189)" />
  <polyline
     class="Stem"
     fill="none"
     stroke="#000000"
     stroke-width="1.76"
     stroke-linejoin="bevel"
     points="3784.39,619.522 3784.39,678.298"
     id="polyline4824"
     transform="translate(-300.798,-607.24189)" />
  <polyline
     class="Stem"
     fill="none"
     stroke="#000000"
     stroke-width="1.76"
     stroke-linejoin="bevel"
     points="1311.42,654.802 1311.42,704.796"
     id="polyline4826"
     transform="translate(-300.798,-607.24189)" />
  <polyline
     class="Stem"
     fill="none"
     stroke="#000000"
     stroke-width="1.76"
     stroke-linejoin="bevel"
     points="3861.7,619.522 3861.7,678.298"
     id="polyline4828"
     transform="translate(-300.798,-607.24189)" />
  <polyline
     class="Stem"
     fill="none"
     stroke="#000000"
     stroke-width="1.76"
     stroke-linejoin="bevel"
     points="1362.97,654.802 1362.97,713.578"
     id="polyline4830"
     transform="translate(-300.798,-607.24189)" />
  <polyline
     class="Stem"
     fill="none"
     stroke="#000000"
     stroke-width="1.76"
     stroke-linejoin="bevel"
     points="1440.28,663.622 1440.28,717.988"
     id="polyline4832"
     transform="translate(-300.798,-607.24189)" />
  <polyline
     class="Stem"
     fill="none"
     stroke="#000000"
     stroke-width="1.76"
     stroke-linejoin="bevel"
     points="1581.48,645.982 1581.48,704.758"
     id="polyline4834"
     transform="translate(-300.798,-607.24189)" />
  <polyline
     class="Stem"
     fill="none"
     stroke="#000000"
     stroke-width="1.76"
     stroke-linejoin="bevel"
     points="1658.79,663.622 1658.79,717.918"
     id="polyline4836"
     transform="translate(-300.798,-607.24189)" />
  <polyline
     class="Stem"
     fill="none"
     stroke="#000000"
     stroke-width="1.76"
     stroke-linejoin="bevel"
     points="1710.33,663.622 1710.33,709.094"
     id="polyline4838"
     transform="translate(-300.798,-607.24189)" />
  <polyline
     class="Stem"
     fill="none"
     stroke="#000000"
     stroke-width="1.76"
     stroke-linejoin="bevel"
     points="1761.88,654.802 1761.88,704.758"
     id="polyline4840"
     transform="translate(-300.798,-607.24189)" />
  <polyline
     class="Stem"
     fill="none"
     stroke="#000000"
     stroke-width="1.76"
     stroke-linejoin="bevel"
     points="2276.76,663.622 2276.76,709.094"
     id="polyline4842"
     transform="translate(-300.798,-607.24189)" />
  <polyline
     class="Stem"
     fill="none"
     stroke="#000000"
     stroke-width="1.76"
     stroke-linejoin="bevel"
     points="1813.42,645.982 1813.42,700.423"
     id="polyline4844"
     transform="translate(-300.798,-607.24189)" />
  <polyline
     class="Stem"
     fill="none"
     stroke="#000000"
     stroke-width="1.76"
     stroke-linejoin="bevel"
     points="1864.96,645.982 1864.96,704.758"
     id="polyline4846"
     transform="translate(-300.798,-607.24189)" />
  <polyline
     class="Stem"
     fill="none"
     stroke="#000000"
     stroke-width="1.76"
     stroke-linejoin="bevel"
     points="1942.28,654.802 1942.28,713.508"
     id="polyline4848"
     transform="translate(-300.798,-607.24189)" />
  <polyline
     class="Stem"
     fill="none"
     stroke="#000000"
     stroke-width="1.76"
     stroke-linejoin="bevel"
     points="1993.82,663.622 1993.82,717.918"
     id="polyline4850"
     transform="translate(-300.798,-607.24189)" />
  <polyline
     class="Stem"
     fill="none"
     stroke="#000000"
     stroke-width="1.76"
     stroke-linejoin="bevel"
     points="2045.36,663.622 2045.36,717.988"
     id="polyline4852"
     transform="translate(-300.798,-607.24189)" />
  <polyline
     class="Stem"
     fill="none"
     stroke="#000000"
     stroke-width="1.76"
     stroke-linejoin="bevel"
     points="2147.9,645.982 2147.9,704.758"
     id="polyline4854"
     transform="translate(-300.798,-607.24189)" />
  <polyline
     class="Stem"
     fill="none"
     stroke="#000000"
     stroke-width="1.76"
     stroke-linejoin="bevel"
     points="2225.22,663.622 2225.22,717.918"
     id="polyline4856"
     transform="translate(-300.798,-607.24189)" />
  <polyline
     class="Stem"
     fill="none"
     stroke="#000000"
     stroke-width="1.76"
     stroke-linejoin="bevel"
     points="2765.96,637.162 2765.96,700.348"
     id="polyline4858"
     transform="translate(-300.798,-607.24189)" />
  <polyline
     class="Stem"
     fill="none"
     stroke="#000000"
     stroke-width="1.76"
     stroke-linejoin="bevel"
     points="2328.3,654.802 2328.3,704.758"
     id="polyline4860"
     transform="translate(-300.798,-607.24189)" />
  <polyline
     class="Stem"
     fill="none"
     stroke="#000000"
     stroke-width="1.76"
     stroke-linejoin="bevel"
     points="2379.85,645.982 2379.85,700.423"
     id="polyline4862"
     transform="translate(-300.798,-607.24189)" />
  <polyline
     class="Stem"
     fill="none"
     stroke="#000000"
     stroke-width="1.76"
     stroke-linejoin="bevel"
     points="2431.39,645.982 2431.39,704.758"
     id="polyline4864"
     transform="translate(-300.798,-607.24189)" />
  <polyline
     class="Stem"
     fill="none"
     stroke="#000000"
     stroke-width="1.76"
     stroke-linejoin="bevel"
     points="2508.7,654.802 2508.7,713.578"
     id="polyline4866"
     transform="translate(-300.798,-607.24189)" />
  <polyline
     class="Stem"
     fill="none"
     stroke="#000000"
     stroke-width="1.76"
     stroke-linejoin="bevel"
     points="2649.9,637.162 2649.9,700.348"
     id="polyline4868"
     transform="translate(-300.798,-607.24189)" />
  <polyline
     class="Stem"
     fill="none"
     stroke="#000000"
     stroke-width="1.76"
     stroke-linejoin="bevel"
     points="2697.23,637.162 2697.23,700.348"
     id="polyline4870"
     transform="translate(-300.798,-607.24189)" />
  <polyline
     class="Stem"
     fill="none"
     stroke="#000000"
     stroke-width="1.76"
     stroke-linejoin="bevel"
     points="2731.59,645.982 2731.59,700.348"
     id="polyline4872"
     transform="translate(-300.798,-607.24189)" />
  <path
     class="Hook"
     d="m 1692.142,110.67996 c 0,0.4851 0.419,0.91508 0.9151,0.91508 0.3528,0 0.7828,-0.28666 0.8489,-0.56228 0,-0.0772 0.6395,-2.54678 0.7056,-2.75625 0.066,-0.28665 0.7056,-2.96573 3.2414,-7.12219 2.7562,-4.586398 6.9898,-7.904905 10.5178,-12.844105 3.528,-4.9392 5.5787,-9.602793 5.5787,-15.809815 0,-6.416585 -1.4112,-11.785778 -5.2259,-18.632285 -0.2095,-0.496108 -0.6394,-0.771715 -1.0584,-0.771715 -0.1433,0 -0.2866,0 -0.3528,0.06611 -0.3528,0.143307 -0.4961,0.429992 -0.4961,0.848907 0,0.209493 0.077,0.496178 0.2095,0.848978 2.8224,6.559822 3.9579,10.297315 3.9579,15.379822 0,5.854293 -2.0506,8.897193 -3.3185,11.080178 -4.5864,7.827715 -11.9952,11.6424 -14.9609,12.634615 -0.4961,0.143307 -0.5623,0.562292 -0.5623,0.771785 v 15.953155"
     id="path4874"
     style="stroke-width:0.7056" />
  <path
     class="Hook"
     d="m 1640.602,106.26996 c 0,0.4851 0.419,0.91508 0.9151,0.91508 0.3528,0 0.7828,-0.28666 0.8489,-0.56228 0,-0.0772 0.6395,-2.54678 0.7056,-2.75625 0.066,-0.28665 0.7056,-2.96573 3.2414,-7.122188 2.7562,-4.5864 6.9898,-7.904907 10.5178,-12.844107 3.528,-4.9392 5.5787,-9.602793 5.5787,-15.809815 0,-6.416585 -1.4112,-11.785778 -5.2259,-18.632285 -0.2095,-0.496108 -0.6394,-0.771715 -1.0584,-0.771715 -0.1433,0 -0.2866,0 -0.3528,0.06612 -0.3528,0.143307 -0.4961,0.429992 -0.4961,0.848907 0,0.209493 0.077,0.496178 0.2095,0.848978 2.8224,6.559822 3.9579,10.297315 3.9579,15.379822 0,5.854293 -2.0506,8.897193 -3.3185,11.080178 -4.5864,7.827715 -11.9952,11.6424 -14.9609,12.634615 -0.4961,0.143307 -0.5623,0.562292 -0.5623,0.771785 v 15.953165"
     id="path4876"
     style="stroke-width:0.7056" />
  <path
     class="Hook"
     d="m 1357.112,110.67996 c 0,0.4851 0.419,0.91508 0.9151,0.91508 0.3528,0 0.7828,-0.28666 0.8489,-0.56228 0,-0.0772 0.6395,-2.54678 0.7056,-2.75625 0.066,-0.28665 0.7056,-2.96573 3.2414,-7.12219 2.7562,-4.586398 6.9898,-7.904905 10.5178,-12.844105 3.528,-4.9392 5.5787,-9.602793 5.5787,-15.809815 0,-6.416585 -1.4112,-11.785778 -5.2259,-18.632285 -0.2095,-0.496108 -0.6394,-0.771715 -1.0584,-0.771715 -0.1433,0 -0.2866,0 -0.3528,0.06611 -0.3528,0.143307 -0.4961,0.429992 -0.4961,0.848907 0,0.209493 0.077,0.496178 0.2095,0.848978 2.8224,6.559822 3.9579,10.297315 3.9579,15.379822 0,5.854293 -2.0506,8.897193 -3.3185,11.080178 -4.5864,7.827715 -11.9952,11.6424 -14.9609,12.634615 -0.4961,0.143307 -0.5623,0.562292 -0.5623,0.771785 v 15.953155"
     id="path4878"
     style="stroke-width:0.7056" />
  <path
     class="Hook"
     d="m 855.112,119.49996 c 0,0.4851 0.41895,0.91508 0.91508,0.91508 0.3528,0 0.78277,-0.28666 0.84892,-0.56228 0,-0.0772 0.63945,-2.54678 0.7056,-2.75625 0.0661,-0.28665 0.7056,-2.96573 3.24135,-7.12219 2.75625,-4.5864 6.98985,-7.90491 10.51785,-12.844105 3.528,-4.9392 5.57869,-9.602793 5.57869,-15.809815 0,-6.416585 -1.4112,-11.785778 -5.22589,-18.632285 -0.20949,-0.496108 -0.63941,-0.771715 -1.0584,-0.771715 -0.14331,0 -0.28661,0 -0.3528,0.06611 -0.3528,0.143307 -0.49611,0.429992 -0.49611,0.848907 0,0.209493 0.0772,0.496178 0.2095,0.848978 2.8224,6.559822 3.95792,10.297315 3.95792,15.379822 0,5.854293 -2.05062,8.897193 -3.31851,11.080178 -4.5864,7.827715 -11.9952,11.642405 -14.96092,12.634615 -0.49613,0.14331 -0.56228,0.5623 -0.56228,0.77179 v 15.95316"
     id="path4880"
     style="stroke-width:0.7056" />
  <path
     class="Hook"
     d="m 572.173,110.67996 c 0,0.4851 0.41895,0.91508 0.91508,0.91508 0.3528,0 0.78277,-0.28666 0.84892,-0.56228 0,-0.0772 0.63945,-2.54678 0.7056,-2.75625 0.0661,-0.28665 0.7056,-2.96573 3.24135,-7.12219 2.75625,-4.586398 6.98985,-7.904905 10.51785,-12.844105 3.528,-4.9392 5.57869,-9.602793 5.57869,-15.809815 0,-6.416585 -1.4112,-11.785778 -5.22589,-18.632285 -0.20949,-0.496108 -0.63941,-0.771715 -1.0584,-0.771715 -0.14331,0 -0.28661,0 -0.3528,0.06611 -0.3528,0.143307 -0.49611,0.429992 -0.49611,0.848907 0,0.209493 0.0772,0.496178 0.2095,0.848978 2.8224,6.559822 3.95792,10.297315 3.95792,15.379822 0,5.854293 -2.05062,8.897193 -3.31851,11.080178 -4.5864,7.827715 -11.9952,11.6424 -14.96093,12.634615 -0.49612,0.143307 -0.56227,0.562292 -0.56227,0.771785 v 15.953155"
     id="path4882"
     style="stroke-width:0.7056" />
  <path
     class="Hook"
     d="m 288.686,119.49996 c 0,0.4851 0.41895,0.91508 0.91508,0.91508 0.3528,0 0.78277,-0.28666 0.84892,-0.56228 0,-0.0772 0.63945,-2.54678 0.7056,-2.75625 0.0661,-0.28665 0.7056,-2.96573 3.24135,-7.12219 2.75625,-4.5864 6.98985,-7.90491 10.51785,-12.844105 3.528,-4.9392 5.57869,-9.602793 5.57869,-15.809815 0,-6.416585 -1.4112,-11.785778 -5.22589,-18.632285 -0.20949,-0.496108 -0.63941,-0.771715 -1.0584,-0.771715 -0.14331,0 -0.28661,0 -0.3528,0.06611 -0.3528,0.143307 -0.49611,0.429992 -0.49611,0.848907 0,0.209493 0.0772,0.496178 0.2095,0.848978 2.8224,6.559822 3.95792,10.297315 3.95792,15.379822 0,5.854293 -2.05062,8.897193 -3.31851,11.080178 -4.5864,7.827715 -11.9952,11.642405 -14.96092,12.634615 -0.49613,0.14331 -0.56228,0.5623 -0.56228,0.77179 v 15.95316"
     id="path4884"
     style="stroke-width:0.7056" />
  <path
     class="Hook"
     d="m 1923.542,110.67996 c 0,0.4851 0.419,0.91508 0.9151,0.91508 0.3528,0 0.7828,-0.28666 0.8489,-0.56228 0,-0.0772 0.6395,-2.54678 0.7056,-2.75625 0.066,-0.28665 0.7056,-2.96573 3.2414,-7.12219 2.7562,-4.586398 6.9898,-7.904905 10.5178,-12.844105 3.528,-4.9392 5.5787,-9.602793 5.5787,-15.809815 0,-6.416585 -1.4112,-11.785778 -5.2259,-18.632285 -0.2095,-0.496108 -0.6394,-0.771715 -1.0584,-0.771715 -0.1433,0 -0.2866,0 -0.3528,0.06611 -0.3528,0.143307 -0.4961,0.429992 -0.4961,0.848907 0,0.209493 0.077,0.496178 0.2095,0.848978 2.8224,6.559822 3.9579,10.297315 3.9579,15.379822 0,5.854293 -2.0506,8.897193 -3.3185,11.080178 -4.5864,7.827715 -11.9952,11.6424 -14.9609,12.634615 -0.4961,0.143307 -0.5623,0.562292 -0.5623,0.771785 v 15.953155"
     id="path4886"
     style="stroke-width:0.7056" />
  <path
     class="Hook"
     d="m 623.716,110.67996 c 0,0.4851 0.41895,0.91508 0.91508,0.91508 0.3528,0 0.78277,-0.28666 0.84892,-0.56228 0,-0.0772 0.63945,-2.54678 0.7056,-2.75625 0.0661,-0.28665 0.7056,-2.96573 3.24135,-7.12219 2.75625,-4.586398 6.98985,-7.904905 10.51785,-12.844105 3.528,-4.9392 5.57869,-9.602793 5.57869,-15.809815 0,-6.416585 -1.4112,-11.785778 -5.22589,-18.632285 -0.20949,-0.496108 -0.63941,-0.771715 -1.0584,-0.771715 -0.14331,0 -0.28661,0 -0.3528,0.06611 -0.3528,0.143307 -0.49611,0.429992 -0.49611,0.848907 0,0.209493 0.0772,0.496178 0.2095,0.848978 2.8224,6.559822 3.95792,10.297315 3.95792,15.379822 0,5.854293 -2.05062,8.897193 -3.31851,11.080178 -4.5864,7.827715 -11.9952,11.6424 -14.96093,12.634615 -0.49612,0.143307 -0.56227,0.562292 -0.56227,0.771785 v 15.953155"
     id="path4888"
     style="stroke-width:0.7056" />
  <path
     class="Note"
     d="m 443.315,47.561836 c 0,3.031871 2.18295,6.416564 7.90491,6.416564 7.33168,0 15.02709,-5.997614 15.02709,-12.204693 0,-4.16745 -3.528,-6.493707 -7.90491,-6.493707 -6.8465,0 -15.02709,5.788107 -15.02709,12.281836"
     id="path4890"
     style="stroke-width:0.7056" />
  <path
     class="Note"
     d="m 1279.792,38.741836 c 0,3.031871 2.1829,6.416564 7.9049,6.416564 7.3317,0 15.0271,-5.997614 15.0271,-12.204693 0,-4.16745 -3.528,-6.493707 -7.9049,-6.493707 -6.8465,0 -15.0271,5.788107 -15.0271,12.281836"
     id="path4892"
     style="stroke-width:0.7056" />
  <path
     class="Note"
     d="m 3482.712,12.281836 c 0,3.031871 2.183,6.416564 7.9049,6.416564 7.3317,0 15.0271,-5.997614 15.0271,-12.2046926 C 3505.644,2.3262574 3502.116,0 3497.7391,0 c -6.8465,0 -15.0271,5.7881074 -15.0271,12.281836"
     id="path4894"
     style="stroke-width:0.7056" />
  <path
     class="Note"
     d="m 2596.682,38.741836 c 0,3.031871 2.1829,6.416564 7.9049,6.416564 7.3317,0 15.0271,-5.997614 15.0271,-12.204693 0,-4.16745 -3.528,-6.493707 -7.9049,-6.493707 -6.8465,0 -15.0271,5.788107 -15.0271,12.281836"
     id="path4896"
     style="stroke-width:0.7056" />
  <path
     class="Note"
     d="m 211.372,47.561836 c 0,3.031871 2.18295,6.416564 7.90491,6.416564 7.33168,0 15.02709,-5.997614 15.02709,-12.204693 0,-4.16745 -3.528,-6.493707 -7.90491,-6.493707 -6.8465,0 -15.02709,5.788107 -15.02709,12.281836"
     id="path4898"
     style="stroke-width:0.7056" />
  <path
     class="Note"
     d="m 288.686,65.201836 c 0,3.031871 2.18295,6.416564 7.90491,6.416564 7.33168,0 15.02709,-5.997614 15.02709,-12.204693 0,-4.16745 -3.528,-6.493707 -7.90491,-6.493707 -6.8465,0 -15.02709,5.788107 -15.02709,12.281836"
     id="path4900"
     style="stroke-width:0.7056" />
  <path
     class="Note"
     d="m 340.229,56.381836 c 0,3.031871 2.18295,6.416564 7.90491,6.416564 7.33168,0 15.02709,-5.997614 15.02709,-12.204693 0,-4.16745 -3.528,-6.493707 -7.90491,-6.493707 -6.8465,0 -15.02709,5.788107 -15.02709,12.281836"
     id="path4902"
     style="stroke-width:0.7056" />
  <path
     class="Note"
     d="m 1153.6291,44.1 c -6.8465,0 -15.0271,5.721957 -15.0271,12.281836 0,3.031871 2.183,6.416564 7.9049,6.416564 7.3317,0 15.0271,-5.997614 15.0271,-12.204693 0,-4.16745 -3.528,-6.493707 -7.9049,-6.493707 m -9.7351,15.379857 c -2.3263,0 -2.8224,-1.8963 -2.8224,-2.53575 0,-3.46185 11.8519,-9.5256 15.1704,-9.5256 1.6979,0 2.8224,0.99225 2.8224,2.53575 0,3.528 -11.929,9.5256 -15.1704,9.5256"
     id="path4904"
     style="stroke-width:0.7056" />
  <path
     class="Note"
     d="m 391.772,56.381836 c 0,3.031871 2.18295,6.416564 7.90491,6.416564 7.33168,0 15.02709,-5.997614 15.02709,-12.204693 0,-4.16745 -3.528,-6.493707 -7.90491,-6.493707 -6.8465,0 -15.02709,5.788107 -15.02709,12.281836"
     id="path4906"
     style="stroke-width:0.7056" />
  <path
     class="Note"
     d="m 906.652,56.381836 c 0,3.031871 2.18295,6.416564 7.90491,6.416564 7.33168,0 15.02709,-5.997614 15.02709,-12.204693 0,-4.16745 -3.528,-6.493707 -7.90491,-6.493707 -6.8465,0 -15.02709,5.788107 -15.02709,12.281836"
     id="path4908"
     style="stroke-width:0.7056" />
  <path
     class="Note"
     d="m 494.858,47.561836 c 0,3.031871 2.18295,6.416564 7.90491,6.416564 7.33168,0 15.02709,-5.997614 15.02709,-12.204693 0,-4.16745 -3.528,-6.493707 -7.90491,-6.493707 -6.8465,0 -15.02709,5.788107 -15.02709,12.281836"
     id="path4910"
     style="stroke-width:0.7056" />
  <path
     class="Note"
     d="m 572.173,56.381836 c 0,3.031871 2.18295,6.416564 7.90491,6.416564 7.33168,0 15.02709,-5.997614 15.02709,-12.204693 0,-4.16745 -3.528,-6.493707 -7.90491,-6.493707 -6.8465,0 -15.02709,5.788107 -15.02709,12.281836"
     id="path4912"
     style="stroke-width:0.7056" />
  <path
     class="Note"
     d="m 623.716,56.381836 c 0,3.031871 2.18295,6.416564 7.90491,6.416564 7.33168,0 15.02709,-5.997614 15.02709,-12.204693 0,-4.16745 -3.528,-6.493707 -7.90491,-6.493707 -6.8465,0 -15.02709,5.788107 -15.02709,12.281836"
     id="path4914"
     style="stroke-width:0.7056" />
  <path
     class="Note"
     d="m 675.259,65.201836 c 0,3.031871 2.18295,6.416564 7.90491,6.416564 7.33168,0 15.02709,-5.997614 15.02709,-12.204693 0,-4.16745 -3.528,-6.493707 -7.90491,-6.493707 -6.8465,0 -15.02709,5.788107 -15.02709,12.281836"
     id="path4916"
     style="stroke-width:0.7056" />
  <path
     class="Note"
     d="m 777.802,47.561836 c 0,3.031871 2.18295,6.416564 7.90491,6.416564 7.33168,0 15.02709,-5.997614 15.02709,-12.204693 0,-4.16745 -3.528,-6.493707 -7.90491,-6.493707 -6.8465,0 -15.02709,5.788107 -15.02709,12.281836"
     id="path4918"
     style="stroke-width:0.7056" />
  <path
     class="Note"
     d="m 855.112,65.201836 c 0,3.031871 2.18295,6.416564 7.90491,6.416564 7.33168,0 15.02709,-5.997614 15.02709,-12.204693 0,-4.16745 -3.528,-6.493707 -7.90491,-6.493707 -6.8465,0 -15.02709,5.788107 -15.02709,12.281836"
     id="path4920"
     style="stroke-width:0.7056" />
  <path
     class="Note"
     d="m 3575.0491,0 c -6.8465,0 -15.0271,5.7219574 -15.0271,12.281836 0,3.031871 2.1829,6.416564 7.9049,6.416564 7.3317,0 15.0271,-5.997614 15.0271,-12.2046926 C 3582.954,2.3262574 3579.426,0 3575.0491,0 m -9.7351,15.379857 c -2.3263,0 -2.8224,-1.8963 -2.8224,-2.53575 0,-3.4618496 11.8519,-9.5255996 15.1704,-9.5255996 1.6979,0 2.8224,0.99225 2.8224,2.53575 0,3.528 -11.929,9.5255996 -15.1704,9.5255996"
     id="path4922"
     style="stroke-width:0.7056" />
  <path
     class="Note"
     d="m 1061.282,47.561836 c 0,3.031871 2.1829,6.416564 7.9049,6.416564 7.3317,0 15.0271,-5.997614 15.0271,-12.204693 0,-4.16745 -3.528,-6.493707 -7.9049,-6.493707 -6.8465,0 -15.0271,5.788107 -15.0271,12.281836"
     id="path4924"
     style="stroke-width:0.7056" />
  <path
     class="Note"
     d="m 958.202,56.381836 c 0,3.031871 2.18295,6.416564 7.90491,6.416564 7.33168,0 15.02709,-5.997614 15.02709,-12.204693 0,-4.16745 -3.528,-6.493707 -7.90491,-6.493707 -6.8465,0 -15.02709,5.788107 -15.02709,12.281836"
     id="path4926"
     style="stroke-width:0.7056" />
  <path
     class="Note"
     d="m 1009.742,47.561836 c 0,3.031871 2.1829,6.416564 7.9049,6.416564 7.3317,0 15.0271,-5.997614 15.0271,-12.204693 0,-4.16745 -3.528,-6.493707 -7.9049,-6.493707 -6.8465,0 -15.0271,5.788107 -15.0271,12.281836"
     id="path4928"
     style="stroke-width:0.7056" />
  <path
     class="Note"
     d="m 2222.0491,35.28 c -6.8465,0 -15.0271,5.721957 -15.0271,12.281836 0,3.031871 2.1829,6.416564 7.9049,6.416564 7.3317,0 15.0271,-5.997614 15.0271,-12.204693 0,-4.16745 -3.528,-6.493707 -7.9049,-6.493707 m -9.7351,15.379857 c -2.3263,0 -2.8224,-1.8963 -2.8224,-2.53575 0,-3.46185 11.8519,-9.5256 15.1704,-9.5256 1.6979,0 2.8224,0.99225 2.8224,2.53575 0,3.528 -11.929,9.5256 -15.1704,9.5256"
     id="path4930"
     style="stroke-width:0.7056" />
  <path
     class="Note"
     d="m 2631.042,29.921836 c 0,3.031871 2.183,6.416564 7.9049,6.416564 7.3317,0 15.0271,-5.997614 15.0271,-12.204693 0,-4.16745 -3.528,-6.493707 -7.9049,-6.493707 -6.8465,0 -15.0271,5.788107 -15.0271,12.281836"
     id="path4932"
     style="stroke-width:0.7056" />
  <path
     class="Note"
     d="m 2681.762,29.921836 c 0,3.031871 2.1829,6.416564 7.9049,6.416564 7.3317,0 15.0271,-5.997614 15.0271,-12.204693 0,-4.16745 -3.528,-6.493707 -7.9049,-6.493707 -6.8465,0 -15.0271,5.788107 -15.0271,12.281836"
     id="path4934"
     style="stroke-width:0.7056" />
  <path
     class="Note"
     d="m 1640.602,47.561836 c 0,3.031871 2.183,6.416564 7.9049,6.416564 7.3317,0 15.0271,-5.997614 15.0271,-12.204693 0,-4.16745 -3.528,-6.493707 -7.9049,-6.493707 -6.8465,0 -15.0271,5.788107 -15.0271,12.281836"
     id="path4936"
     style="stroke-width:0.7056" />
  <path
     class="Note"
     d="m 1846.222,38.741836 c 0,3.031871 2.1829,6.416564 7.9049,6.416564 7.3317,0 15.0271,-5.997614 15.0271,-12.204693 0,-4.16745 -3.528,-6.493707 -7.9049,-6.493707 -6.8465,0 -15.0271,5.788107 -15.0271,12.281836"
     id="path4938"
     style="stroke-width:0.7056" />
  <path
     class="Note"
     d="m 2729.092,29.921836 c 0,3.031871 2.1829,6.416564 7.9049,6.416564 7.3317,0 15.0271,-5.997614 15.0271,-12.204693 0,-4.16745 -3.528,-6.493707 -7.9049,-6.493707 -6.8465,0 -15.0271,5.788107 -15.0271,12.281836"
     id="path4940"
     style="stroke-width:0.7056" />
  <path
     class="Note"
     d="m 2026.622,47.561836 c 0,3.031871 2.183,6.416564 7.9049,6.416564 7.3317,0 15.0271,-5.997614 15.0271,-12.204693 0,-4.16745 -3.528,-6.493707 -7.9049,-6.493707 -6.8465,0 -15.0271,5.788107 -15.0271,12.281836"
     id="path4942"
     style="stroke-width:0.7056" />
  <path
     class="Note"
     d="m 2763.452,38.741836 c 0,3.031871 2.183,6.416564 7.9049,6.416564 7.3317,0 15.0271,-5.997614 15.0271,-12.204693 0,-4.16745 -3.528,-6.493707 -7.9049,-6.493707 -6.8465,0 -15.0271,5.788107 -15.0271,12.281836"
     id="path4944"
     style="stroke-width:0.7056" />
  <path
     class="Note"
     d="m 2348.222,29.921836 c 0,3.031871 2.1829,6.416564 7.9049,6.416564 7.3317,0 15.0271,-5.997614 15.0271,-12.204693 0,-4.16745 -3.528,-6.493707 -7.9049,-6.493707 -6.8465,0 -15.0271,5.788107 -15.0271,12.281836"
     id="path4946"
     style="stroke-width:0.7056" />
  <path
     class="Note"
     d="m 2797.812,29.921836 c 0,3.031871 2.1829,6.416564 7.9049,6.416564 7.3317,0 15.0271,-5.997614 15.0271,-12.204693 0,-4.16745 -3.528,-6.493707 -7.9049,-6.493707 -6.8465,0 -15.0271,5.788107 -15.0271,12.281836"
     id="path4948"
     style="stroke-width:0.7056" />
  <path
     class="Note"
     d="m 2848.532,29.921836 c 0,3.031871 2.183,6.416564 7.9049,6.416564 7.3317,0 15.0271,-5.997614 15.0271,-12.204693 0,-4.16745 -3.528,-6.493707 -7.9049,-6.493707 -6.8465,0 -15.0271,5.788107 -15.0271,12.281836"
     id="path4950"
     style="stroke-width:0.7056" />
  <path
     class="Note"
     d="m 1563.282,38.741836 c 0,3.031871 2.1829,6.416564 7.9049,6.416564 7.3317,0 15.0271,-5.997614 15.0271,-12.204693 0,-4.16745 -3.528,-6.493707 -7.9049,-6.493707 -6.8465,0 -15.0271,5.788107 -15.0271,12.281836"
     id="path4952"
     style="stroke-width:0.7056" />
  <path
     class="Note"
     d="m 1923.542,56.381836 c 0,3.031871 2.183,6.416564 7.9049,6.416564 7.3317,0 15.0271,-5.997614 15.0271,-12.204693 0,-4.16745 -3.528,-6.493707 -7.9049,-6.493707 -6.8465,0 -15.0271,5.788107 -15.0271,12.281836"
     id="path4954"
     style="stroke-width:0.7056" />
  <path
     class="Note"
     d="m 2940.8691,17.64 c -6.8465,0 -15.0271,5.721957 -15.0271,12.281836 0,3.031871 2.1829,6.416564 7.9049,6.416564 7.3317,0 15.0271,-5.997614 15.0271,-12.204693 0,-4.16745 -3.528,-6.493707 -7.9049,-6.493707 m -9.7351,15.379857 c -2.3263,0 -2.8224,-1.8963 -2.8224,-2.53575 0,-3.46185 11.8519,-9.5256 15.1704,-9.5256 1.6979,0 2.8224,0.99225 2.8224,2.53575 0,3.528 -11.929,9.5256 -15.1704,9.5256"
     id="path4956"
     style="stroke-width:0.7056" />
  <path
     class="Note"
     d="m 1511.742,38.741836 c 0,3.031871 2.1829,6.416564 7.9049,6.416564 7.3317,0 15.0271,-5.997614 15.0271,-12.204693 0,-4.16745 -3.528,-6.493707 -7.9049,-6.493707 -6.8465,0 -15.0271,5.788107 -15.0271,12.281836"
     id="path4958"
     style="stroke-width:0.7056" />
  <path
     class="Note"
     d="m 2395.552,29.921836 c 0,3.031871 2.1829,6.416564 7.9049,6.416564 7.3317,0 15.0271,-5.997614 15.0271,-12.204693 0,-4.16745 -3.528,-6.493707 -7.9049,-6.493707 -6.8465,0 -15.0271,5.788107 -15.0271,12.281836"
     id="path4960"
     style="stroke-width:0.7056" />
  <path
     class="Note"
     d="m 1408.652,56.381836 c 0,3.031871 2.183,6.416564 7.9049,6.416564 7.3317,0 15.0271,-5.997614 15.0271,-12.204693 0,-4.16745 -3.528,-6.493707 -7.9049,-6.493707 -6.8465,0 -15.0271,5.788107 -15.0271,12.281836"
     id="path4962"
     style="stroke-width:0.7056" />
  <path
     class="Note"
     d="m 3067.042,12.281836 c 0,3.031871 2.183,6.416564 7.9049,6.416564 7.3317,0 15.0271,-5.997614 15.0271,-12.2046926 C 3089.974,2.3262574 3086.446,0 3082.0691,0 c -6.8465,0 -15.0271,5.7881074 -15.0271,12.281836"
     id="path4964"
     style="stroke-width:0.7056" />
  <path
     class="Note"
     d="m 1743.682,56.381836 c 0,3.031871 2.183,6.416564 7.9049,6.416564 7.3317,0 15.0271,-5.997614 15.0271,-12.204693 0,-4.16745 -3.528,-6.493707 -7.9049,-6.493707 -6.8465,0 -15.0271,5.788107 -15.0271,12.281836"
     id="path4966"
     style="stroke-width:0.7056" />
  <path
     class="Note"
     d="m 3101.962,21.101836 c 0,3.031871 2.183,6.416564 7.9049,6.416564 7.3317,0 15.0271,-5.997614 15.0271,-12.204693 0,-4.16745 -3.528,-6.493707 -7.9049,-6.493707 -6.8465,0 -15.0271,5.788107 -15.0271,12.281836"
     id="path4968"
     style="stroke-width:0.7056" />
  <path
     class="Note"
     d="m 2078.172,38.741836 c 0,3.031871 2.1829,6.416564 7.9049,6.416564 7.3317,0 15.0271,-5.997614 15.0271,-12.204693 0,-4.16745 -3.528,-6.493707 -7.9049,-6.493707 -6.8465,0 -15.0271,5.788107 -15.0271,12.281836"
     id="path4970"
     style="stroke-width:0.7056" />
  <path
     class="Note"
     d="m 3136.322,29.921836 c 0,3.031871 2.183,6.416564 7.9049,6.416564 7.3317,0 15.0271,-5.997614 15.0271,-12.204693 0,-4.16745 -3.528,-6.493707 -7.9049,-6.493707 -6.8465,0 -15.0271,5.788107 -15.0271,12.281836"
     id="path4972"
     style="stroke-width:0.7056" />
  <path
     class="Note"
     d="m 2429.912,38.741836 c 0,3.031871 2.183,6.416564 7.9049,6.416564 7.3317,0 15.0271,-5.997614 15.0271,-12.204693 0,-4.16745 -3.528,-6.493707 -7.9049,-6.493707 -6.8465,0 -15.0271,5.788107 -15.0271,12.281836"
     id="path4974"
     style="stroke-width:0.7056" />
  <path
     class="Note"
     d="m 3170.682,21.101836 c 0,3.031871 2.1829,6.416564 7.9049,6.416564 7.3317,0 15.0271,-5.997614 15.0271,-12.204693 0,-4.16745 -3.528,-6.493707 -7.9049,-6.493707 -6.8465,0 -15.0271,5.788107 -15.0271,12.281836"
     id="path4976"
     style="stroke-width:0.7056" />
  <path
     class="Note"
     d="m 1460.202,47.561836 c 0,3.031871 2.1829,6.416564 7.9049,6.416564 7.3317,0 15.0271,-5.997614 15.0271,-12.204693 0,-4.16745 -3.528,-6.493707 -7.9049,-6.493707 -6.8465,0 -15.0271,5.788107 -15.0271,12.281836"
     id="path4978"
     style="stroke-width:0.7056" />
  <path
     class="Note"
     d="m 1357.112,56.381836 c 0,3.031871 2.183,6.416564 7.9049,6.416564 7.3317,0 15.0271,-5.997614 15.0271,-12.204693 0,-4.16745 -3.528,-6.493707 -7.9049,-6.493707 -6.8465,0 -15.0271,5.788107 -15.0271,12.281836"
     id="path4980"
     style="stroke-width:0.7056" />
  <path
     class="Note"
     d="m 3205.602,12.281836 c 0,3.031871 2.1829,6.416564 7.9049,6.416564 7.3317,0 15.0271,-5.997614 15.0271,-12.2046926 C 3228.534,2.3262574 3225.006,0 3220.6291,0 c -6.8465,0 -15.0271,5.7881074 -15.0271,12.281836"
     id="path4982"
     style="stroke-width:0.7056" />
  <path
     class="Note"
     d="m 2464.272,29.921836 c 0,3.031871 2.1829,6.416564 7.9049,6.416564 7.3317,0 15.0271,-5.997614 15.0271,-12.204693 0,-4.16745 -3.528,-6.493707 -7.9049,-6.493707 -6.8465,0 -15.0271,5.788107 -15.0271,12.281836"
     id="path4984"
     style="stroke-width:0.7056" />
  <path
     class="Note"
     d="m 3240.512,21.101836 c 0,3.031871 2.1829,6.416564 7.9049,6.416564 7.3317,0 15.0271,-5.997614 15.0271,-12.204693 0,-4.16745 -3.528,-6.493707 -7.9049,-6.493707 -6.8465,0 -15.0271,5.788107 -15.0271,12.281836"
     id="path4986"
     style="stroke-width:0.7056" />
  <path
     class="Note"
     d="m 3274.872,29.921836 c 0,3.031871 2.183,6.416564 7.9049,6.416564 7.3317,0 15.0271,-5.997614 15.0271,-12.204693 0,-4.16745 -3.528,-6.493707 -7.9049,-6.493707 -6.8465,0 -15.0271,5.788107 -15.0271,12.281836"
     id="path4988"
     style="stroke-width:0.7056" />
  <path
     class="Note"
     d="m 2514.992,29.921836 c 0,3.031871 2.183,6.416564 7.9049,6.416564 7.3317,0 15.0271,-5.997614 15.0271,-12.204693 0,-4.16745 -3.528,-6.493707 -7.9049,-6.493707 -6.8465,0 -15.0271,5.788107 -15.0271,12.281836"
     id="path4990"
     style="stroke-width:0.7056" />
  <path
     class="Note"
     d="m 3309.242,21.101836 c 0,3.031871 2.183,6.416564 7.9049,6.416564 7.3317,0 15.0271,-5.997614 15.0271,-12.204693 0,-4.16745 -3.528,-6.493707 -7.9049,-6.493707 -6.8465,0 -15.0271,5.788107 -15.0271,12.281836"
     id="path4992"
     style="stroke-width:0.7056" />
  <path
     class="Note"
     d="m 1692.142,56.381836 c 0,3.031871 2.183,6.416564 7.9049,6.416564 7.3317,0 15.0271,-5.997614 15.0271,-12.204693 0,-4.16745 -3.528,-6.493707 -7.9049,-6.493707 -6.8465,0 -15.0271,5.788107 -15.0271,12.281836"
     id="path4994"
     style="stroke-width:0.7056" />
  <path
     class="Note"
     d="m 3344.152,12.281836 c 0,3.031871 2.183,6.416564 7.9049,6.416564 7.3317,0 15.0271,-5.997614 15.0271,-12.2046926 C 3367.084,2.3262574 3363.556,0 3359.1791,0 c -6.8465,0 -15.0271,5.7881074 -15.0271,12.281836"
     id="path4996"
     style="stroke-width:0.7056" />
  <path
     class="Note"
     d="m 2129.712,38.741836 c 0,3.031871 2.183,6.416564 7.9049,6.416564 7.3317,0 15.0271,-5.997614 15.0271,-12.204693 0,-4.16745 -3.528,-6.493707 -7.9049,-6.493707 -6.8465,0 -15.0271,5.788107 -15.0271,12.281836"
     id="path4998"
     style="stroke-width:0.7056" />
  <path
     class="Note"
     d="m 3379.072,21.101836 c 0,3.031871 2.183,6.416564 7.9049,6.416564 7.3317,0 15.0271,-5.997614 15.0271,-12.204693 0,-4.16745 -3.528,-6.493707 -7.9049,-6.493707 -6.8465,0 -15.0271,5.788107 -15.0271,12.281836"
     id="path5000"
     style="stroke-width:0.7056" />
  <path
     class="Note"
     d="m 2562.322,29.921836 c 0,3.031871 2.183,6.416564 7.9049,6.416564 7.3317,0 15.0271,-5.997614 15.0271,-12.204693 0,-4.16745 -3.528,-6.493707 -7.9049,-6.493707 -6.8465,0 -15.0271,5.788107 -15.0271,12.281836"
     id="path5002"
     style="stroke-width:0.7056" />
  <path
     class="Note"
     d="m 3413.432,29.921836 c 0,3.031871 2.1829,6.416564 7.9049,6.416564 7.3317,0 15.0271,-5.997614 15.0271,-12.204693 0,-4.16745 -3.528,-6.493707 -7.9049,-6.493707 -6.8465,0 -15.0271,5.788107 -15.0271,12.281836"
     id="path5004"
     style="stroke-width:0.7056" />
  <path
     class="Note"
     d="m 3447.792,21.101836 c 0,3.031871 2.183,6.416564 7.9049,6.416564 7.3317,0 15.0271,-5.997614 15.0271,-12.204693 0,-4.16745 -3.528,-6.493707 -7.9049,-6.493707 -6.8465,0 -15.0271,5.788107 -15.0271,12.281836"
     id="path5006"
     style="stroke-width:0.7056" />
  <path
     class="Note"
     d="m 1975.082,56.381836 c 0,3.031871 2.183,6.416564 7.9049,6.416564 7.3317,0 15.0271,-5.997614 15.0271,-12.204693 0,-4.16745 -3.528,-6.493707 -7.9049,-6.493707 -6.8465,0 -15.0271,5.788107 -15.0271,12.281836"
     id="path5008"
     style="stroke-width:0.7056" />
  <path
     class="Clef"
     d="m 21.906693,116.0712 c 0,4.66359 3.528,10.8045 13.0536,10.8045 3.318507,0 6.2181,-0.84891 8.753814,-2.40349 3.814686,-2.67902 4.795893,-7.34261 4.795893,-11.7857 0,-2.74521 -0.418915,-5.92041 -1.124515,-9.94452 -0.209492,-1.4112 -0.639485,-3.527997 -1.0584,-6.284283 C 53.239707,94.1976 58.3884,86.998293 58.3884,79.732782 c 0,-10.650167 -7.552107,-17.849475 -17.849493,-17.849475 -0.7056,-4.2336 -1.4112,-8.401085 -1.973422,-12.348 7.4088,-7.838792 12.557422,-16.658792 12.557422,-27.8712 0,-6.427592 -1.973422,-11.6424 -3.109014,-14.18891 C 46.327085,3.8808706 44.2764,1.4112706 43.008507,1.4112706 c -0.496107,0 -2.679022,0.8488368 -5.005314,3.5943264 -4.520286,5.36891 -5.788108,14.398403 -5.788108,20.31881 0,3.814615 0.3528,7.2765 1.554508,15.181408 C 33.6924,40.572 30.021093,44.309422 28.543707,45.5112 22.116185,51.442615 13.23,60.042115 13.23,74.165157 c 0,13.185936 11.499093,23.560443 24.629885,23.560443 2.039608,0 3.946915,-0.209493 5.567608,-0.496107 1.345014,6.780317 2.193992,11.719517 2.193992,15.457017 0,7.34268 -3.814685,11.22348 -10.9368,11.22348 -1.697885,0 -3.1752,-0.3528 -3.318578,-0.3528 -0.06611,-0.0772 -0.209422,-0.14338 -0.209422,-0.20949 0,-0.14331 0.143308,-0.2205 0.3528,-0.2205 3.318508,-0.56229 6.626008,-3.38469 6.626008,-7.8939 0,-3.81469 -2.888586,-7.83879 -8.180586,-7.83879 -4.9392,0 -8.048214,4.0241 -8.048214,8.67669 M 36.658107,21.8736 c 0.639486,-2.8224 3.8808,-10.2312 7.552178,-10.2312 1.0584,0 2.745208,3.384622 2.745208,8.323822 0,7.342685 -5.4243,12.844178 -10.297386,17.64 -0.418914,-2.8224 -0.771714,-5.567607 -0.771714,-8.533315 0,-2.612907 0.209492,-5.016392 0.771714,-7.199307 M 42.8652,94.407093 c -1.4112,0.286614 -2.745207,0.429922 -4.090293,0.429922 -10.087822,0 -18.698378,-7.056 -18.698378,-17.717158 0,-8.599535 6.063764,-16.29495 12.281864,-21.664142 1.1907,-1.0584 2.326292,-2.039608 3.384692,-3.098008 0.628408,3.803608 1.124515,7.122115 1.620622,10.021708 -6.427522,1.907307 -10.793422,8.676692 -10.793422,15.313742 0,4.9392 3.8808,11.70855 9.5256,11.70855 0.562222,0 1.201708,-0.286614 1.201708,-0.915092 0,-0.639415 -0.7056,-0.992215 -1.554508,-1.554508 -2.756285,-1.69785 -4.310792,-3.528 -4.310792,-6.98985 0,-4.29975 3.252392,-7.761635 7.342614,-8.742842 L 42.8652,94.407093 M 52.886907,81.353457 c 0,5.016379 -2.050614,10.16505 -7.056,12.215736 -1.477314,-8.467236 -3.384622,-19.690686 -3.8808,-22.799771 6.3504,0 10.9368,4.310807 10.9368,10.584035"
     id="path5010"
     style="stroke-width:0.7056" />
  <path
     class="KeySig"
     d="m 88.046293,19.547307 c 0.429992,-0.06619 0.782792,-0.562292 0.782792,-0.992285 v -4.156407 c 0,-0.7056 -0.496178,-0.992215 -1.135592,-0.992215 L 85.3672,13.902507 V 3.3846221 H 83.393707 V 14.321422 l -6.284228,1.2789 V 5.6448 H 75.136 V 16.019307 L 72.37975,16.5816 C 71.9608,16.658722 71.608,17.143822 71.608,17.573815 v 4.090292 c 0,0.77175 0.562275,0.99225 1.201729,0.99225 L 75.136,22.160229 v 11.642407 l -2.75625,0.562271 C 71.9608,34.431093 71.608,34.9272 71.608,35.357193 v 4.090222 c 0,0.771785 0.562275,0.981278 1.201729,0.981278 L 75.136,39.943593 V 50.4504 h 1.973479 V 39.5136 l 6.284228,-1.267893 V 48.2013 H 85.3672 V 37.826793 l 2.679093,-0.496178 c 0.429992,-0.07712 0.782792,-0.562222 0.782792,-0.992215 v -4.156443 c 0,-0.7056 -0.496178,-0.99225 -1.135592,-0.99225 L 85.3672,31.685836 V 20.043429 l 2.679093,-0.496122 m -10.936814,2.18295 6.284228,-1.267878 v 11.642407 l -6.284228,1.34505 V 21.730257"
     id="path5012"
     style="stroke-width:0.7056" />
  <path
     class="KeySig"
     d="m 107.37329,46.007307 c 0.43,-0.06618 0.7828,-0.562292 0.7828,-0.992285 v -4.156407 c 0,-0.7056 -0.49618,-0.992215 -1.1356,-0.992215 l -2.32629,0.496107 V 29.844622 h -1.97349 v 10.9368 l -6.284231,1.2789 V 32.1048 H 94.463 V 42.479307 L 91.70675,43.0416 C 91.2878,43.118722 90.935,43.603822 90.935,44.033815 v 4.090292 c 0,0.77175 0.562275,0.99225 1.201729,0.99225 L 94.463,48.620229 v 11.642407 l -2.75625,0.562271 C 91.2878,60.891093 90.935,61.3872 90.935,61.817193 v 4.090222 c 0,0.771785 0.562275,0.981278 1.201729,0.981278 L 94.463,66.403593 V 76.9104 h 1.973479 V 65.9736 l 6.284231,-1.267893 V 74.6613 h 1.97349 V 64.286793 l 2.67909,-0.496178 c 0.43,-0.07712 0.7828,-0.562222 0.7828,-0.992215 v -4.156443 c 0,-0.7056 -0.49618,-0.99225 -1.1356,-0.99225 l -2.32629,0.496129 V 46.503429 l 2.67909,-0.496122 m -10.936811,2.18295 6.284231,-1.267878 v 11.642407 l -6.284231,1.34505 V 48.190257"
     id="path5014"
     style="stroke-width:0.7056" />
  <path
     class="TimeSig"
     d="m 142.31089,58.851615 v -30.3408 c 0,-0.496108 -0.3528,-0.848908 -0.84898,-0.848908 h -6.98982 c -0.1433,0 -0.2756,0.06611 -0.41898,0.143308 -0.0771,0.06619 -0.20942,0.209492 -0.28662,0.275607 l -7.90494,13.693085 c -0.0661,0.143322 -0.0661,0.28665 -0.0661,0.41895 0,0.28665 0.20948,0.5733 0.41895,0.7056 l 1.34505,0.782772 c 0.14333,0.06615 0.28665,0.143328 0.41895,0.143328 0.28665,0 0.5733,-0.2205 0.7056,-0.429978 l 5.01636,-8.610557 v 24.067593 h -5.36916 c -0.4851,0 -0.8379,0.3528 -0.8379,0.848978 v 1.5435 c 0,0.496107 0.3528,0.848907 0.8379,0.848907 h 19.3378 c 0.49611,0 0.78279,-0.3528 0.78279,-0.848907 v -1.5435 c 0,-0.496178 -0.28668,-0.848978 -0.78279,-0.848978 h -5.35811"
     id="path5016"
     style="stroke-width:0.7056" />
  <path
     class="TimeSig"
     d="m 173.63271,47.705357 c -0.56222,1.5435 -1.97342,6.626043 -5.43531,6.626043 -4.5864,0 -5.57861,-2.822414 -9.38229,-2.822414 -0.56222,0 -1.13552,0.07717 -1.84112,0.209471 0,0 1.764,-2.679071 9.24992,-5.00535 7.47498,-2.326275 9.38229,-5.9976 9.38229,-10.2312 0,-2.965707 -1.33401,-8.82 -11.9952,-8.82 -10.65015,0 -12.63465,6.416515 -12.63465,9.668908 0,2.888564 2.40345,5.214842 5.292,5.214842 2.89956,0 5.22585,-2.326278 5.22585,-5.214842 0,-1.973493 -1.4112,-4.167415 -3.24131,-4.873015 -0.2205,-0.06618 -0.49618,-0.418985 -0.49618,-0.771785 0,-0.429993 0.3528,-0.915093 1.62069,-1.267893 0.3528,-0.143307 1.34509,-0.3528 2.40349,-0.3528 4.0131,0 4.79582,2.4696 4.79582,6.063785 0,8.257725 -9.81222,10.021729 -13.90251,16.162686 0,0 -2.1168,2.9547 -2.1168,6.273207 0,3.318507 1.69785,3.528 2.53575,3.528 1.13558,0 2.3373,-0.915093 2.3373,-2.182985 0,-0.286615 -0.0772,-0.562222 -0.2205,-0.915022 -0.41895,-0.992286 -0.56227,-1.764 -0.56227,-2.3373 0,-0.209493 0,-0.418986 0.0772,-0.628478 0.0661,-0.429922 0.62843,-1.135522 2.32626,-1.135522 2.03968,0 2.8224,2.403414 4.09029,4.2336 1.26789,1.841122 3.24139,2.965707 5.50149,2.965707 2.26011,0 5.292,-1.620693 6.5709,-4.2336 1.2679,-2.612907 2.88852,-7.904943 2.88852,-9.801243 0,-0.9261 -0.56222,-1.34505 -1.20171,-1.34505 -0.49611,0 -0.98121,0.28665 -1.26789,0.99225"
     id="path5018"
     style="stroke-width:0.7056" />
  <path
     class="TimeSig"
     d="m 159.41089,78.432229 c 2.32622,-1.764 3.94691,-4.024122 3.94691,-6.846522 0,-5.082507 -5.56761,-9.238985 -12.41411,-9.238985 -6.84658,0 -12.42521,4.156478 -12.42521,9.238985 0,2.8224 0.7056,5.35815 4.02412,7.47495 -3.1752,1.841179 -4.9392,4.4541 -4.9392,7.838758 0,5.710985 5.9976,10.297385 13.34029,10.297385 7.3316,0 13.3292,-4.5864 13.3292,-10.297385 0,-3.384658 -1.1907,-6.559858 -4.862,-8.467186 m -3.958,-1.907322 c -4.79589,-1.554528 -10.08789,-3.8808 -10.08789,-7.056 0,-2.756285 2.53579,-3.8808 5.57869,-3.8808 4.3769,0 7.3316,2.050615 7.3316,5.292 0,3.384672 -1.5435,5.00535 -2.8224,5.6448 m -4.5092,16.724908 c -4.52029,0 -8.40109,-2.4696 -8.40109,-6.427522 0,-4.718736 3.67131,-5.854307 3.67131,-5.854307 4.79589,1.620671 11.6424,4.024121 11.6424,7.904921 0,1.907308 -2.40342,4.376908 -6.91262,4.376908"
     id="path5020"
     style="stroke-width:0.7056" />
  <path
     class="Beam"
     fill-rule="evenodd"
     d="m 340.229,97.513107 104.85,-4.41 v 8.827003 l -104.85,4.41 v -8.827003"
     id="path5022" />
  <path
     class="Beam"
     fill-rule="evenodd"
     d="m 906.652,97.513107 104.85,-4.41 v 8.827003 l -104.85,4.41 v -8.827003"
     id="path5024" />
  <path
     class="Beam"
     fill-rule="evenodd"
     d="m 1975.082,97.501107 104.85,-8.82 v 8.851 l -104.85,8.820003 v -8.851003"
     id="path5026" />
  <path
     class="Beam"
     fill-rule="evenodd"
     d="m 3067.042,75.466107 h 175.24 v 8.82 h -175.24 v -8.82"
     id="path5028" />
  <path
     class="Beam"
     fill-rule="evenodd"
     d="m 3067.042,62.236107 h 175.24 v 8.82 h -175.24 v -8.82"
     id="path5030" />
  <path
     class="Beam"
     fill-rule="evenodd"
     d="m 2348.222,88.696107 h 215.86 v 8.82 h -215.86 v -8.82"
     id="path5032" />
  <path
     class="Beam"
     fill-rule="evenodd"
     d="m 2348.222,75.466107 h 215.86 v 8.82 h -215.86 v -8.82"
     id="path5034" />
  <path
     class="Beam"
     fill-rule="evenodd"
     d="m 2596.682,88.696107 h 202.9 v 8.82 h -202.9 v -8.82"
     id="path5036" />
  <path
     class="Beam"
     fill-rule="evenodd"
     d="m 2596.682,75.466107 h 202.9 v 8.82 h -202.9 v -8.82"
     id="path5038" />
  <path
     class="Beam"
     fill-rule="evenodd"
     d="m 3274.872,75.466107 h 174.69 v 8.82 h -174.69 v -8.82"
     id="path5040" />
  <path
     class="Beam"
     fill-rule="evenodd"
     d="m 3274.872,62.236107 h 174.69 v 8.82 h -174.69 v -8.82"
     id="path5042" />
  <path
     class="Beam"
     fill-rule="evenodd"
     d="m 1408.652,97.501107 104.85,-8.82 v 8.851 l -104.85,8.820003 v -8.851003"
     id="path5044" />
</svg>
