<?xml version="1.0" encoding="UTF-8" standalone="no"?>
<svg
   xmlns:dc="http://purl.org/dc/elements/1.1/"
   xmlns:cc="http://creativecommons.org/ns#"
   xmlns:rdf="http://www.w3.org/1999/02/22-rdf-syntax-ns#"
   xmlns:svg="http://www.w3.org/2000/svg"
   xmlns="http://www.w3.org/2000/svg"
   xmlns:sodipodi="http://sodipodi.sourceforge.net/DTD/sodipodi-0.dtd"
   xmlns:inkscape="http://www.inkscape.org/namespaces/inkscape"
   width="260.40527mm"
   height="35.108936mm"
   viewBox="0 0 3690.7835 497.60697"
   version="1.2"
   id="svg4205"
   sodipodi:docname="Dossium Canto Voorspeller Musica.svg"
   inkscape:version="1.0.2-2 (e86c870879, 2021-01-15)">
  <metadata
     id="metadata4211">
    <rdf:RDF>
      <cc:Work
         rdf:about="">
        <dc:format>image/svg+xml</dc:format>
        <dc:type
           rdf:resource="http://purl.org/dc/dcmitype/StillImage" />
      </cc:Work>
    </rdf:RDF>
  </metadata>
  <defs
     id="defs4209" />
  <sodipodi:namedview
     pagecolor="#ffffff"
     bordercolor="#666666"
     borderopacity="1"
     objecttolerance="10"
     gridtolerance="10"
     guidetolerance="10"
     inkscape:pageopacity="0"
     inkscape:pageshadow="2"
     inkscape:window-width="1920"
     inkscape:window-height="991"
     id="namedview4207"
     showgrid="false"
     inkscape:zoom="1.0328497"
     inkscape:cx="479.67563"
     inkscape:cy="-50.140571"
     inkscape:window-x="-9"
     inkscape:window-y="-9"
     inkscape:window-maximized="1"
     inkscape:current-layer="svg4205" />
  <title
     id="title3635">Dossium Canto Voorspeller Musica</title>
  <desc
     id="desc3637">Generated by MuseScore Studio 4.5.1</desc>
  <polyline
     class="StaffLines"
     fill="none"
     stroke="#000000"
     stroke-width="2.73"
     stroke-linejoin="bevel"
     points="336.598,634.198 3996.2,634.198"
     id="polyline3641"
     transform="translate(-305.41636,-514.793)" />
  <polyline
     class="StaffLines"
     fill="none"
     stroke="#000000"
     stroke-width="2.73"
     stroke-linejoin="bevel"
     points="336.598,658.998 3996.2,658.998"
     id="polyline3643"
     transform="translate(-305.41636,-514.793)" />
  <polyline
     class="StaffLines"
     fill="none"
     stroke="#000000"
     stroke-width="2.73"
     stroke-linejoin="bevel"
     points="336.598,683.798 3996.2,683.798"
     id="polyline3645"
     transform="translate(-305.41636,-514.793)" />
  <polyline
     class="StaffLines"
     fill="none"
     stroke="#000000"
     stroke-width="2.73"
     stroke-linejoin="bevel"
     points="336.598,708.598 3996.2,708.598"
     id="polyline3647"
     transform="translate(-305.41636,-514.793)" />
  <polyline
     class="StaffLines"
     fill="none"
     stroke="#000000"
     stroke-width="2.73"
     stroke-linejoin="bevel"
     points="336.598,733.398 3996.2,733.398"
     id="polyline3649"
     transform="translate(-305.41636,-514.793)" />
  <polyline
     class="StaffLines"
     fill="none"
     stroke="#000000"
     stroke-width="2.73"
     stroke-linejoin="bevel"
     points="336.598,894.598 3996.2,894.598"
     id="polyline3651"
     transform="translate(-305.41636,-514.793)" />
  <polyline
     class="StaffLines"
     fill="none"
     stroke="#000000"
     stroke-width="2.73"
     stroke-linejoin="bevel"
     points="336.598,919.398 3996.2,919.398"
     id="polyline3653"
     transform="translate(-305.41636,-514.793)" />
  <polyline
     class="StaffLines"
     fill="none"
     stroke="#000000"
     stroke-width="2.73"
     stroke-linejoin="bevel"
     points="336.598,944.198 3996.2,944.198"
     id="polyline3655"
     transform="translate(-305.41636,-514.793)" />
  <polyline
     class="StaffLines"
     fill="none"
     stroke="#000000"
     stroke-width="2.73"
     stroke-linejoin="bevel"
     points="336.598,968.998 3996.2,968.998"
     id="polyline3657"
     transform="translate(-305.41636,-514.793)" />
  <polyline
     class="StaffLines"
     fill="none"
     stroke="#000000"
     stroke-width="2.73"
     stroke-linejoin="bevel"
     points="336.598,993.798 3996.2,993.798"
     id="polyline3659"
     transform="translate(-305.41636,-514.793)" />
  <polyline
     class="BarLine"
     fill="none"
     stroke="#000000"
     stroke-width="4.46"
     stroke-linejoin="bevel"
     points="3971.15,632.834 3971.15,894.598"
     id="polyline3669"
     transform="translate(-305.41636,-514.793)" />
  <polyline
     class="BarLine"
     fill="none"
     stroke="#000000"
     stroke-width="13.64"
     stroke-linejoin="bevel"
     points="3989.38,632.834 3989.38,894.598"
     id="polyline3671"
     transform="translate(-305.41636,-514.793)" />
  <polyline
     class="BarLine"
     fill="none"
     stroke="#000000"
     stroke-width="13.64"
     stroke-linejoin="bevel"
     points="2008.68,632.834 2008.68,894.598"
     id="polyline3673"
     transform="translate(-305.41636,-514.793)" />
  <polyline
     class="BarLine"
     fill="none"
     stroke="#000000"
     stroke-width="4.46"
     stroke-linejoin="bevel"
     points="2026.91,632.834 2026.91,894.598"
     id="polyline3675"
     transform="translate(-305.41636,-514.793)" />
  <path
     class="BarLine"
     d="m 1743.2267,156.605 c 0,-2.883 -2.2941,-5.2545 -5.1616,-5.2545 -2.883,0 -5.1615,2.3715 -5.1615,5.2545 0,2.883 2.2785,5.2545 5.1615,5.2545 2.8675,0 5.1616,-2.3715 5.1616,-5.2545"
     id="path3677"
     style="stroke-width:0.992" />
  <path
     class="BarLine"
     d="m 1743.2267,181.405 c 0,-2.883 -2.2941,-5.2545 -5.1616,-5.2545 -2.883,0 -5.1615,2.3715 -5.1615,5.2545 0,2.883 2.2785,5.2545 5.1615,5.2545 2.8675,0 5.1616,-2.3715 5.1616,-5.2545"
     id="path3679"
     style="stroke-width:0.992" />
  <polyline
     class="BarLine"
     fill="none"
     stroke="#000000"
     stroke-width="4.46"
     stroke-linejoin="bevel"
     points="338.83,632.834 338.83,894.598"
     id="polyline3681"
     transform="translate(-305.41636,-514.793)" />
  <polyline
     class="BarLine"
     fill="none"
     stroke="#000000"
     stroke-width="4.46"
     stroke-linejoin="bevel"
     points="1040.65,632.834 1040.65,894.598"
     id="polyline3683"
     transform="translate(-305.41636,-514.793)" />
  <polyline
     class="BarLine"
     fill="none"
     stroke="#000000"
     stroke-width="4.46"
     stroke-linejoin="bevel"
     points="3495.35,632.834 3495.35,894.598"
     id="polyline3685"
     transform="translate(-305.41636,-514.793)" />
  <polyline
     class="BarLine"
     fill="none"
     stroke="#000000"
     stroke-width="4.46"
     stroke-linejoin="bevel"
     points="3861.32,632.834 3861.32,894.598"
     id="polyline3687"
     transform="translate(-305.41636,-514.793)" />
  <polyline
     class="BarLine"
     fill="none"
     stroke="#000000"
     stroke-width="4.46"
     stroke-linejoin="bevel"
     points="2517.5,632.834 2517.5,894.598"
     id="polyline3689"
     transform="translate(-305.41636,-514.793)" />
  <polyline
     class="BarLine"
     fill="none"
     stroke="#000000"
     stroke-width="4.46"
     stroke-linejoin="bevel"
     points="2292.48,632.834 2292.48,894.598"
     id="polyline3691"
     transform="translate(-305.41636,-514.793)" />
  <polyline
     class="BarLine"
     fill="none"
     stroke="#000000"
     stroke-width="4.46"
     stroke-linejoin="bevel"
     points="3333.51,632.834 3333.51,894.598"
     id="polyline3693"
     transform="translate(-305.41636,-514.793)" />
  <path
     class="BarLine"
     d="m 1193.3667,156.605 c 0,-2.883 -2.2941,-5.2545 -5.1616,-5.2545 -2.883,0 -5.1615,2.3715 -5.1615,5.2545 0,2.883 2.2785,5.2545 5.1615,5.2545 2.8675,0 5.1616,-2.3715 5.1616,-5.2545"
     id="path3695"
     style="stroke-width:0.992" />
  <path
     class="BarLine"
     d="m 1193.3667,181.405 c 0,-2.883 -2.2941,-5.2545 -5.1616,-5.2545 -2.883,0 -5.1615,2.3715 -5.1615,5.2545 0,2.883 2.2785,5.2545 5.1615,5.2545 2.8675,0 5.1616,-2.3715 5.1616,-5.2545"
     id="path3697"
     style="stroke-width:0.992" />
  <polyline
     class="BarLine"
     fill="none"
     stroke="#000000"
     stroke-width="4.46"
     stroke-linejoin="bevel"
     points="1510.18,632.834 1510.18,894.598"
     id="polyline3699"
     transform="translate(-305.41636,-514.793)" />
  <polyline
     class="BarLine"
     fill="none"
     stroke="#000000"
     stroke-width="13.64"
     stroke-linejoin="bevel"
     points="1528.41,632.834 1528.41,894.598"
     id="polyline3701"
     transform="translate(-305.41636,-514.793)" />
  <polyline
     class="BarLine"
     fill="none"
     stroke="#000000"
     stroke-width="13.64"
     stroke-linejoin="bevel"
     points="531.836,632.834 531.836,894.598"
     id="polyline3703"
     transform="translate(-305.41636,-514.793)" />
  <polyline
     class="BarLine"
     fill="none"
     stroke="#000000"
     stroke-width="4.46"
     stroke-linejoin="bevel"
     points="550.064,632.834 550.064,894.598"
     id="polyline3705"
     transform="translate(-305.41636,-514.793)" />
  <path
     class="BarLine"
     d="m 266.37869,156.605 c 0,-2.883 -2.29405,-5.2545 -5.16154,-5.2545 -2.883,0 -5.16151,2.3715 -5.16151,5.2545 0,2.883 2.27851,5.2545 5.16151,5.2545 2.86749,0 5.16154,-2.3715 5.16154,-5.2545"
     id="path3707"
     style="stroke-width:0.992" />
  <path
     class="BarLine"
     d="m 266.37869,181.405 c 0,-2.883 -2.29405,-5.2545 -5.16154,-5.2545 -2.883,0 -5.16151,2.3715 -5.16151,5.2545 0,2.883 2.27851,5.2545 5.16151,5.2545 2.86749,0 5.16154,-2.3715 5.16154,-5.2545"
     id="path3709"
     style="stroke-width:0.992" />
  <polyline
     class="BarLine"
     fill="none"
     stroke="#000000"
     stroke-width="4.46"
     stroke-linejoin="bevel"
     points="815.631,632.834 815.631,894.598"
     id="polyline3711"
     transform="translate(-305.41636,-514.793)" />
  <path
     class="BarLine"
     d="m 3359.8567,156.605 c 0,-2.883 -2.2941,-5.2545 -5.1616,-5.2545 -2.883,0 -5.1615,2.3715 -5.1615,5.2545 0,2.883 2.2785,5.2545 5.1615,5.2545 2.8675,0 5.1616,-2.3715 5.1616,-5.2545"
     id="path3713"
     style="stroke-width:0.992" />
  <path
     class="BarLine"
     d="m 3359.8567,181.405 c 0,-2.883 -2.2941,-5.2545 -5.1616,-5.2545 -2.883,0 -5.1615,2.3715 -5.1615,5.2545 0,2.883 2.2785,5.2545 5.1615,5.2545 2.8675,0 5.1616,-2.3715 5.1616,-5.2545"
     id="path3715"
     style="stroke-width:0.992" />
  <polyline
     class="BarLine"
     fill="none"
     stroke="#000000"
     stroke-width="4.46"
     stroke-linejoin="bevel"
     points="3676.67,632.834 3676.67,894.598"
     id="polyline3717"
     transform="translate(-305.41636,-514.793)" />
  <polyline
     class="BarLine"
     fill="none"
     stroke="#000000"
     stroke-width="13.64"
     stroke-linejoin="bevel"
     points="3694.89,632.834 3694.89,894.598"
     id="polyline3719"
     transform="translate(-305.41636,-514.793)" />
  <polyline
     class="BarLine"
     fill="none"
     stroke="#000000"
     stroke-width="4.46"
     stroke-linejoin="bevel"
     points="2742.52,632.834 2742.52,894.598"
     id="polyline3721"
     transform="translate(-305.41636,-514.793)" />
  <polyline
     class="BarLine"
     fill="none"
     stroke="#000000"
     stroke-width="13.64"
     stroke-linejoin="bevel"
     points="2972.13,632.834 2972.13,894.598"
     id="polyline3723"
     transform="translate(-305.41636,-514.793)" />
  <polyline
     class="BarLine"
     fill="none"
     stroke="#000000"
     stroke-width="4.46"
     stroke-linejoin="bevel"
     points="2990.36,632.834 2990.36,894.598"
     id="polyline3725"
     transform="translate(-305.41636,-514.793)" />
  <path
     class="BarLine"
     d="m 2706.6767,156.605 c 0,-2.883 -2.2941,-5.2545 -5.1616,-5.2545 -2.883,0 -5.1615,2.3715 -5.1615,5.2545 0,2.883 2.2785,5.2545 5.1615,5.2545 2.8675,0 5.1616,-2.3715 5.1616,-5.2545"
     id="path3727"
     style="stroke-width:0.992" />
  <path
     class="BarLine"
     d="m 2706.6767,181.405 c 0,-2.883 -2.2941,-5.2545 -5.1616,-5.2545 -2.883,0 -5.1615,2.3715 -5.1615,5.2545 0,2.883 2.2785,5.2545 5.1615,5.2545 2.8675,0 5.1616,-2.3715 5.1616,-5.2545"
     id="path3729"
     style="stroke-width:0.992" />
  <polyline
     class="BarLine"
     fill="none"
     stroke="#000000"
     stroke-width="4.46"
     stroke-linejoin="bevel"
     points="1779.08,632.834 1779.08,894.598"
     id="polyline3731"
     transform="translate(-305.41636,-514.793)" />
  <polyline
     class="BarLine"
     fill="none"
     stroke="#000000"
     stroke-width="4.46"
     stroke-linejoin="bevel"
     points="3171.68,632.834 3171.68,894.598"
     id="polyline3733"
     transform="translate(-305.41636,-514.793)" />
  <polyline
     class="BarLine"
     fill="none"
     stroke="#000000"
     stroke-width="4.46"
     stroke-linejoin="bevel"
     points="1265.67,632.834 1265.67,894.598"
     id="polyline3735"
     transform="translate(-305.41636,-514.793)" />
  <polyline
     class="BarLine"
     fill="none"
     stroke="#000000"
     stroke-width="13.64"
     stroke-linejoin="bevel"
     points="2008.68,893.234 2008.68,995.162"
     id="polyline3737"
     transform="translate(-305.41636,-514.793)" />
  <polyline
     class="BarLine"
     fill="none"
     stroke="#000000"
     stroke-width="4.46"
     stroke-linejoin="bevel"
     points="2026.91,893.234 2026.91,995.162"
     id="polyline3739"
     transform="translate(-305.41636,-514.793)" />
  <path
     class="BarLine"
     d="m 1743.2267,417.005 c 0,-2.883 -2.2941,-5.2545 -5.1616,-5.2545 -2.883,0 -5.1615,2.3715 -5.1615,5.2545 0,2.883 2.2785,5.2545 5.1615,5.2545 2.8675,0 5.1616,-2.3715 5.1616,-5.2545"
     id="path3741"
     style="stroke-width:0.992" />
  <path
     class="BarLine"
     d="m 1743.2267,441.805 c 0,-2.883 -2.2941,-5.2545 -5.1616,-5.2545 -2.883,0 -5.1615,2.3715 -5.1615,5.2545 0,2.883 2.2785,5.2545 5.1615,5.2545 2.8675,0 5.1616,-2.3715 5.1616,-5.2545"
     id="path3743"
     style="stroke-width:0.992" />
  <polyline
     class="BarLine"
     fill="none"
     stroke="#000000"
     stroke-width="4.46"
     stroke-linejoin="bevel"
     points="3333.51,893.234 3333.51,995.162"
     id="polyline3745"
     transform="translate(-305.41636,-514.793)" />
  <polyline
     class="BarLine"
     fill="none"
     stroke="#000000"
     stroke-width="4.46"
     stroke-linejoin="bevel"
     points="3171.68,893.234 3171.68,995.162"
     id="polyline3747"
     transform="translate(-305.41636,-514.793)" />
  <polyline
     class="BarLine"
     fill="none"
     stroke="#000000"
     stroke-width="4.46"
     stroke-linejoin="bevel"
     points="338.83,893.234 338.83,995.162"
     id="polyline3749"
     transform="translate(-305.41636,-514.793)" />
  <polyline
     class="BarLine"
     fill="none"
     stroke="#000000"
     stroke-width="13.64"
     stroke-linejoin="bevel"
     points="2972.13,893.234 2972.13,995.162"
     id="polyline3751"
     transform="translate(-305.41636,-514.793)" />
  <polyline
     class="BarLine"
     fill="none"
     stroke="#000000"
     stroke-width="4.46"
     stroke-linejoin="bevel"
     points="2990.36,893.234 2990.36,995.162"
     id="polyline3753"
     transform="translate(-305.41636,-514.793)" />
  <path
     class="BarLine"
     d="m 2706.6767,417.005 c 0,-2.883 -2.2941,-5.2545 -5.1616,-5.2545 -2.883,0 -5.1615,2.3715 -5.1615,5.2545 0,2.883 2.2785,5.2545 5.1615,5.2545 2.8675,0 5.1616,-2.3715 5.1616,-5.2545"
     id="path3755"
     style="stroke-width:0.992" />
  <path
     class="BarLine"
     d="m 2706.6767,441.805 c 0,-2.883 -2.2941,-5.2545 -5.1616,-5.2545 -2.883,0 -5.1615,2.3715 -5.1615,5.2545 0,2.883 2.2785,5.2545 5.1615,5.2545 2.8675,0 5.1616,-2.3715 5.1616,-5.2545"
     id="path3757"
     style="stroke-width:0.992" />
  <polyline
     class="BarLine"
     fill="none"
     stroke="#000000"
     stroke-width="4.46"
     stroke-linejoin="bevel"
     points="2517.5,893.234 2517.5,995.162"
     id="polyline3759"
     transform="translate(-305.41636,-514.793)" />
  <polyline
     class="BarLine"
     fill="none"
     stroke="#000000"
     stroke-width="4.46"
     stroke-linejoin="bevel"
     points="2742.52,893.234 2742.52,995.162"
     id="polyline3761"
     transform="translate(-305.41636,-514.793)" />
  <polyline
     class="BarLine"
     fill="none"
     stroke="#000000"
     stroke-width="4.46"
     stroke-linejoin="bevel"
     points="1265.67,893.234 1265.67,995.162"
     id="polyline3763"
     transform="translate(-305.41636,-514.793)" />
  <polyline
     class="BarLine"
     fill="none"
     stroke="#000000"
     stroke-width="13.64"
     stroke-linejoin="bevel"
     points="531.836,893.234 531.836,995.162"
     id="polyline3765"
     transform="translate(-305.41636,-514.793)" />
  <polyline
     class="BarLine"
     fill="none"
     stroke="#000000"
     stroke-width="4.46"
     stroke-linejoin="bevel"
     points="550.064,893.234 550.064,995.162"
     id="polyline3767"
     transform="translate(-305.41636,-514.793)" />
  <path
     class="BarLine"
     d="m 266.37869,417.005 c 0,-2.883 -2.29405,-5.2545 -5.16154,-5.2545 -2.883,0 -5.16151,2.3715 -5.16151,5.2545 0,2.883 2.27851,5.2545 5.16151,5.2545 2.86749,0 5.16154,-2.3715 5.16154,-5.2545"
     id="path3769"
     style="stroke-width:0.992" />
  <path
     class="BarLine"
     d="m 266.37869,441.805 c 0,-2.883 -2.29405,-5.2545 -5.16154,-5.2545 -2.883,0 -5.16151,2.3715 -5.16151,5.2545 0,2.883 2.27851,5.2545 5.16151,5.2545 2.86749,0 5.16154,-2.3715 5.16154,-5.2545"
     id="path3771"
     style="stroke-width:0.992" />
  <path
     class="BarLine"
     d="m 1193.3667,417.005 c 0,-2.883 -2.2941,-5.2545 -5.1616,-5.2545 -2.883,0 -5.1615,2.3715 -5.1615,5.2545 0,2.883 2.2785,5.2545 5.1615,5.2545 2.8675,0 5.1616,-2.3715 5.1616,-5.2545"
     id="path3773"
     style="stroke-width:0.992" />
  <path
     class="BarLine"
     d="m 1193.3667,441.805 c 0,-2.883 -2.2941,-5.2545 -5.1616,-5.2545 -2.883,0 -5.1615,2.3715 -5.1615,5.2545 0,2.883 2.2785,5.2545 5.1615,5.2545 2.8675,0 5.1616,-2.3715 5.1616,-5.2545"
     id="path3775"
     style="stroke-width:0.992" />
  <polyline
     class="BarLine"
     fill="none"
     stroke="#000000"
     stroke-width="4.46"
     stroke-linejoin="bevel"
     points="1510.18,893.234 1510.18,995.162"
     id="polyline3777"
     transform="translate(-305.41636,-514.793)" />
  <polyline
     class="BarLine"
     fill="none"
     stroke="#000000"
     stroke-width="13.64"
     stroke-linejoin="bevel"
     points="1528.41,893.234 1528.41,995.162"
     id="polyline3779"
     transform="translate(-305.41636,-514.793)" />
  <polyline
     class="BarLine"
     fill="none"
     stroke="#000000"
     stroke-width="4.46"
     stroke-linejoin="bevel"
     points="2292.48,893.234 2292.48,995.162"
     id="polyline3781"
     transform="translate(-305.41636,-514.793)" />
  <polyline
     class="BarLine"
     fill="none"
     stroke="#000000"
     stroke-width="4.46"
     stroke-linejoin="bevel"
     points="3971.15,893.234 3971.15,995.162"
     id="polyline3783"
     transform="translate(-305.41636,-514.793)" />
  <polyline
     class="BarLine"
     fill="none"
     stroke="#000000"
     stroke-width="13.64"
     stroke-linejoin="bevel"
     points="3989.38,893.234 3989.38,995.162"
     id="polyline3785"
     transform="translate(-305.41636,-514.793)" />
  <polyline
     class="BarLine"
     fill="none"
     stroke="#000000"
     stroke-width="4.46"
     stroke-linejoin="bevel"
     points="3861.32,893.234 3861.32,995.162"
     id="polyline3787"
     transform="translate(-305.41636,-514.793)" />
  <path
     class="BarLine"
     d="m 3359.8567,417.005 c 0,-2.883 -2.2941,-5.2545 -5.1616,-5.2545 -2.883,0 -5.1615,2.3715 -5.1615,5.2545 0,2.883 2.2785,5.2545 5.1615,5.2545 2.8675,0 5.1616,-2.3715 5.1616,-5.2545"
     id="path3789"
     style="stroke-width:0.992" />
  <path
     class="BarLine"
     d="m 3359.8567,441.805 c 0,-2.883 -2.2941,-5.2545 -5.1616,-5.2545 -2.883,0 -5.1615,2.3715 -5.1615,5.2545 0,2.883 2.2785,5.2545 5.1615,5.2545 2.8675,0 5.1616,-2.3715 5.1616,-5.2545"
     id="path3791"
     style="stroke-width:0.992" />
  <polyline
     class="BarLine"
     fill="none"
     stroke="#000000"
     stroke-width="4.46"
     stroke-linejoin="bevel"
     points="3676.67,893.234 3676.67,995.162"
     id="polyline3793"
     transform="translate(-305.41636,-514.793)" />
  <polyline
     class="BarLine"
     fill="none"
     stroke="#000000"
     stroke-width="13.64"
     stroke-linejoin="bevel"
     points="3694.89,893.234 3694.89,995.162"
     id="polyline3795"
     transform="translate(-305.41636,-514.793)" />
  <polyline
     class="BarLine"
     fill="none"
     stroke="#000000"
     stroke-width="4.46"
     stroke-linejoin="bevel"
     points="815.631,893.234 815.631,995.162"
     id="polyline3797"
     transform="translate(-305.41636,-514.793)" />
  <polyline
     class="BarLine"
     fill="none"
     stroke="#000000"
     stroke-width="4.46"
     stroke-linejoin="bevel"
     points="1040.65,893.234 1040.65,995.162"
     id="polyline3799"
     transform="translate(-305.41636,-514.793)" />
  <polyline
     class="BarLine"
     fill="none"
     stroke="#000000"
     stroke-width="4.46"
     stroke-linejoin="bevel"
     points="3495.35,893.234 3495.35,995.162"
     id="polyline3801"
     transform="translate(-305.41636,-514.793)" />
  <polyline
     class="BarLine"
     fill="none"
     stroke="#000000"
     stroke-width="4.46"
     stroke-linejoin="bevel"
     points="1779.08,893.234 1779.08,995.162"
     id="polyline3803"
     transform="translate(-305.41636,-514.793)" />
  <polyline
     class="LedgerLine"
     fill="none"
     stroke="#000000"
     stroke-width="3.97"
     stroke-linejoin="bevel"
     points="1558.04,609.398 1606.63,609.398"
     id="polyline3805"
     transform="translate(-305.41636,-514.793)" />
  <polyline
     class="LedgerLine"
     fill="none"
     stroke="#000000"
     stroke-width="3.97"
     stroke-linejoin="bevel"
     points="3034.89,758.198 3083.48,758.198"
     id="polyline3807"
     transform="translate(-305.41636,-514.793)" />
  <polyline
     class="LedgerLine"
     fill="none"
     stroke="#000000"
     stroke-width="3.97"
     stroke-linejoin="bevel"
     points="3886.37,869.798 3934.96,869.798"
     id="polyline3809"
     transform="translate(-305.41636,-514.793)" />
  <polyline
     class="LedgerLine"
     fill="none"
     stroke="#000000"
     stroke-width="3.97"
     stroke-linejoin="bevel"
     points="1804.12,869.798 1852.72,869.798"
     id="polyline3811"
     transform="translate(-305.41636,-514.793)" />
  <polyline
     class="LedgerLine"
     fill="none"
     stroke="#000000"
     stroke-width="3.97"
     stroke-linejoin="bevel"
     points="1705.47,869.798 1754.07,869.798"
     id="polyline3813"
     transform="translate(-305.41636,-514.793)" />
  <polyline
     class="LedgerLine"
     fill="none"
     stroke="#000000"
     stroke-width="3.97"
     stroke-linejoin="bevel"
     points="1353.91,869.798 1402.5,869.798"
     id="polyline3815"
     transform="translate(-305.41636,-514.793)" />
  <polyline
     class="LedgerLine"
     fill="none"
     stroke="#000000"
     stroke-width="3.97"
     stroke-linejoin="bevel"
     points="2668.92,869.798 2717.51,869.798"
     id="polyline3817"
     transform="translate(-305.41636,-514.793)" />
  <polyline
     class="LedgerLine"
     fill="none"
     stroke="#000000"
     stroke-width="3.97"
     stroke-linejoin="bevel"
     points="2767.57,869.798 2816.16,869.798"
     id="polyline3819"
     transform="translate(-305.41636,-514.793)" />
  <polyline
     class="LedgerLine"
     fill="none"
     stroke="#000000"
     stroke-width="3.97"
     stroke-linejoin="bevel"
     points="1192.07,869.798 1240.66,869.798"
     id="polyline3821"
     transform="translate(-305.41636,-514.793)" />
  <polyline
     class="LedgerLine"
     fill="none"
     stroke="#000000"
     stroke-width="3.97"
     stroke-linejoin="bevel"
     points="1417.09,844.998 1465.68,844.998"
     id="polyline3823"
     transform="translate(-305.41636,-514.793)" />
  <polyline
     class="LedgerLine"
     fill="none"
     stroke="#000000"
     stroke-width="3.97"
     stroke-linejoin="bevel"
     points="1417.09,869.798 1465.68,869.798"
     id="polyline3825"
     transform="translate(-305.41636,-514.793)" />
  <polyline
     class="LedgerLine"
     fill="none"
     stroke="#000000"
     stroke-width="3.97"
     stroke-linejoin="bevel"
     points="3583.58,869.798 3632.17,869.798"
     id="polyline3827"
     transform="translate(-305.41636,-514.793)" />
  <polyline
     class="Stem"
     fill="none"
     stroke="#000000"
     stroke-width="2.48"
     stroke-linejoin="bevel"
     points="913.288,650.765 913.288,770.598"
     id="polyline3829"
     transform="translate(-305.41636,-514.793)" />
  <polyline
     class="Stem"
     fill="none"
     stroke="#000000"
     stroke-width="2.48"
     stroke-linejoin="bevel"
     points="3797.14,687.965 3797.14,758.198"
     id="polyline3831"
     transform="translate(-305.41636,-514.793)" />
  <polyline
     class="Stem"
     fill="none"
     stroke="#000000"
     stroke-width="2.48"
     stroke-linejoin="bevel"
     points="1693.84,625.965 1693.84,758.198"
     id="polyline3833"
     transform="translate(-305.41636,-514.793)" />
  <polyline
     class="Stem"
     fill="none"
     stroke="#000000"
     stroke-width="2.48"
     stroke-linejoin="bevel"
     points="3593,675.565 3593,751.998"
     id="polyline3835"
     transform="translate(-305.41636,-514.793)" />
  <polyline
     class="Stem"
     fill="none"
     stroke="#000000"
     stroke-width="2.48"
     stroke-linejoin="bevel"
     points="3074.06,754.23 3074.06,671.398"
     id="polyline3837"
     transform="translate(-305.41636,-514.793)" />
  <polyline
     class="Stem"
     fill="none"
     stroke="#000000"
     stroke-width="2.48"
     stroke-linejoin="bevel"
     points="3529.82,650.765 3529.82,733.398"
     id="polyline3839"
     transform="translate(-305.41636,-514.793)" />
  <polyline
     class="Stem"
     fill="none"
     stroke="#000000"
     stroke-width="2.48"
     stroke-linejoin="bevel"
     points="2144.05,650.765 2144.05,789.099"
     id="polyline3841"
     transform="translate(-305.41636,-514.793)" />
  <polyline
     class="Stem"
     fill="none"
     stroke="#000000"
     stroke-width="2.48"
     stroke-linejoin="bevel"
     points="604.02,638.365 604.02,770.598"
     id="polyline3843"
     transform="translate(-305.41636,-514.793)" />
  <polyline
     class="Stem"
     fill="none"
     stroke="#000000"
     stroke-width="2.48"
     stroke-linejoin="bevel"
     points="1567.47,613.565 1567.47,758.198"
     id="polyline3845"
     transform="translate(-305.41636,-514.793)" />
  <polyline
     class="Stem"
     fill="none"
     stroke="#000000"
     stroke-width="2.48"
     stroke-linejoin="bevel"
     points="1006.22,704.63 1006.22,603.198"
     id="polyline3847"
     transform="translate(-305.41636,-514.793)" />
  <polyline
     class="Stem"
     fill="none"
     stroke="#000000"
     stroke-width="2.48"
     stroke-linejoin="bevel"
     points="3431.17,650.765 3431.17,733.398"
     id="polyline3849"
     transform="translate(-305.41636,-514.793)" />
  <polyline
     class="Stem"
     fill="none"
     stroke="#000000"
     stroke-width="2.48"
     stroke-linejoin="bevel"
     points="3763.7,704.63 3763.7,621.798"
     id="polyline3851"
     transform="translate(-305.41636,-514.793)" />
  <polyline
     class="Stem"
     fill="none"
     stroke="#000000"
     stroke-width="2.48"
     stroke-linejoin="bevel"
     points="1939.92,638.365 1939.92,758.198"
     id="polyline3853"
     transform="translate(-305.41636,-514.793)" />
  <polyline
     class="Stem"
     fill="none"
     stroke="#000000"
     stroke-width="2.48"
     stroke-linejoin="bevel"
     points="3137.24,704.63 3137.24,621.798"
     id="polyline3855"
     transform="translate(-305.41636,-514.793)" />
  <polyline
     class="Stem"
     fill="none"
     stroke="#000000"
     stroke-width="2.48"
     stroke-linejoin="bevel"
     points="667.206,650.765 667.206,789.099"
     id="polyline3857"
     transform="translate(-305.41636,-514.793)" />
  <polyline
     class="Stem"
     fill="none"
     stroke="#000000"
     stroke-width="2.48"
     stroke-linejoin="bevel"
     points="3367.98,638.365 3367.98,720.998"
     id="polyline3859"
     transform="translate(-305.41636,-514.793)" />
  <polyline
     class="Stem"
     fill="none"
     stroke="#000000"
     stroke-width="2.48"
     stroke-linejoin="bevel"
     points="2080.87,638.365 2080.87,770.598"
     id="polyline3861"
     transform="translate(-305.41636,-514.793)" />
  <polyline
     class="Stem"
     fill="none"
     stroke="#000000"
     stroke-width="2.48"
     stroke-linejoin="bevel"
     points="2390.14,650.765 2390.14,770.598"
     id="polyline3863"
     transform="translate(-305.41636,-514.793)" />
  <polyline
     class="Stem"
     fill="none"
     stroke="#000000"
     stroke-width="2.48"
     stroke-linejoin="bevel"
     points="1813.55,625.965 1813.55,758.198"
     id="polyline3865"
     transform="translate(-305.41636,-514.793)" />
  <polyline
     class="Stem"
     fill="none"
     stroke="#000000"
     stroke-width="2.48"
     stroke-linejoin="bevel"
     points="730.391,650.765 730.391,770.598"
     id="polyline3867"
     transform="translate(-305.41636,-514.793)" />
  <polyline
     class="Stem"
     fill="none"
     stroke="#000000"
     stroke-width="2.48"
     stroke-linejoin="bevel"
     points="3206.15,675.565 3206.15,751.998"
     id="polyline3869"
     transform="translate(-305.41636,-514.793)" />
  <polyline
     class="Stem"
     fill="none"
     stroke="#000000"
     stroke-width="2.48"
     stroke-linejoin="bevel"
     points="3269.33,687.965 3269.33,758.198"
     id="polyline3871"
     transform="translate(-305.41636,-514.793)" />
  <polyline
     class="Stem"
     fill="none"
     stroke="#000000"
     stroke-width="2.48"
     stroke-linejoin="bevel"
     points="1876.73,638.365 1876.73,758.198"
     id="polyline3873"
     transform="translate(-305.41636,-514.793)" />
  <polyline
     class="Stem"
     fill="none"
     stroke="#000000"
     stroke-width="2.48"
     stroke-linejoin="bevel"
     points="2483.07,704.63 2483.07,603.198"
     id="polyline3875"
     transform="translate(-305.41636,-514.793)" />
  <polyline
     class="Stem"
     fill="none"
     stroke="#000000"
     stroke-width="2.48"
     stroke-linejoin="bevel"
     points="2207.24,650.765 2207.24,770.598"
     id="polyline3877"
     transform="translate(-305.41636,-514.793)" />
  <polyline
     class="Stem"
     fill="none"
     stroke="#000000"
     stroke-width="2.48"
     stroke-linejoin="bevel"
     points="850.103,638.365 850.103,770.598"
     id="polyline3879"
     transform="translate(-305.41636,-514.793)" />
  <polyline
     class="Stem"
     fill="none"
     stroke="#000000"
     stroke-width="2.48"
     stroke-linejoin="bevel"
     points="3895.79,675.565 3895.79,751.998"
     id="polyline3881"
     transform="translate(-305.41636,-514.793)" />
  <polyline
     class="Stem"
     fill="none"
     stroke="#000000"
     stroke-width="2.48"
     stroke-linejoin="bevel"
     points="1630.65,625.965 1630.65,764.299"
     id="polyline3883"
     transform="translate(-305.41636,-514.793)" />
  <polyline
     class="Stem"
     fill="none"
     stroke="#000000"
     stroke-width="2.48"
     stroke-linejoin="bevel"
     points="2326.95,638.365 2326.95,770.598"
     id="polyline3885"
     transform="translate(-305.41636,-514.793)" />
  <polyline
     class="Stem"
     fill="none"
     stroke="#000000"
     stroke-width="2.48"
     stroke-linejoin="bevel"
     points="3074.06,952.63 3074.06,875.998"
     id="polyline3887"
     transform="translate(-305.41636,-514.793)" />
  <polyline
     class="Stem"
     fill="none"
     stroke="#000000"
     stroke-width="2.48"
     stroke-linejoin="bevel"
     points="1714.9,861.565 1714.9,944.198"
     id="polyline3889"
     transform="translate(-305.41636,-514.793)" />
  <polyline
     class="Stem"
     fill="none"
     stroke="#000000"
     stroke-width="2.48"
     stroke-linejoin="bevel"
     points="3431.17,886.365 3431.17,968.998"
     id="polyline3891"
     transform="translate(-305.41636,-514.793)" />
  <polyline
     class="Stem"
     fill="none"
     stroke="#000000"
     stroke-width="2.48"
     stroke-linejoin="bevel"
     points="3529.82,911.165 3529.82,993.798"
     id="polyline3893"
     transform="translate(-305.41636,-514.793)" />
  <polyline
     class="Stem"
     fill="none"
     stroke="#000000"
     stroke-width="2.48"
     stroke-linejoin="bevel"
     points="1876.73,911.165 1876.73,993.798"
     id="polyline3895"
     transform="translate(-305.41636,-514.793)" />
  <polyline
     class="Stem"
     fill="none"
     stroke="#000000"
     stroke-width="2.48"
     stroke-linejoin="bevel"
     points="3593,873.965 3593,956.598"
     id="polyline3897"
     transform="translate(-305.41636,-514.793)" />
  <polyline
     class="Stem"
     fill="none"
     stroke="#000000"
     stroke-width="2.48"
     stroke-linejoin="bevel"
     points="1630.65,886.365 1630.65,968.998"
     id="polyline3899"
     transform="translate(-305.41636,-514.793)" />
  <polyline
     class="Stem"
     fill="none"
     stroke="#000000"
     stroke-width="2.48"
     stroke-linejoin="bevel"
     points="633.764,952.63 633.764,875.998"
     id="polyline3901"
     transform="translate(-305.41636,-514.793)" />
  <polyline
     class="Stem"
     fill="none"
     stroke="#000000"
     stroke-width="2.48"
     stroke-linejoin="bevel"
     points="2390.14,923.565 2390.14,1006.2"
     id="polyline3903"
     transform="translate(-305.41636,-514.793)" />
  <polyline
     class="Stem"
     fill="none"
     stroke="#000000"
     stroke-width="2.48"
     stroke-linejoin="bevel"
     points="3733.95,911.165 3733.95,993.798"
     id="polyline3905"
     transform="translate(-305.41636,-514.793)" />
  <polyline
     class="Stem"
     fill="none"
     stroke="#000000"
     stroke-width="2.48"
     stroke-linejoin="bevel"
     points="1201.49,861.565 1201.49,944.198"
     id="polyline3907"
     transform="translate(-305.41636,-514.793)" />
  <polyline
     class="Stem"
     fill="none"
     stroke="#000000"
     stroke-width="2.48"
     stroke-linejoin="bevel"
     points="3797.14,886.365 3797.14,968.998"
     id="polyline3909"
     transform="translate(-305.41636,-514.793)" />
  <polyline
     class="Stem"
     fill="none"
     stroke="#000000"
     stroke-width="2.48"
     stroke-linejoin="bevel"
     points="667.206,935.965 667.206,1012.4"
     id="polyline3911"
     transform="translate(-305.41636,-514.793)" />
  <polyline
     class="Stem"
     fill="none"
     stroke="#000000"
     stroke-width="2.48"
     stroke-linejoin="bevel"
     points="2615.16,886.365 2615.16,968.998"
     id="polyline3913"
     transform="translate(-305.41636,-514.793)" />
  <polyline
     class="Stem"
     fill="none"
     stroke="#000000"
     stroke-width="2.48"
     stroke-linejoin="bevel"
     points="3895.79,873.965 3895.79,956.598"
     id="polyline3915"
     transform="translate(-305.41636,-514.793)" />
  <polyline
     class="Stem"
     fill="none"
     stroke="#000000"
     stroke-width="2.48"
     stroke-linejoin="bevel"
     points="2903.36,935.965 2903.36,1012.4"
     id="polyline3917"
     transform="translate(-305.41636,-514.793)" />
  <polyline
     class="Stem"
     fill="none"
     stroke="#000000"
     stroke-width="2.48"
     stroke-linejoin="bevel"
     points="1567.47,911.165 1567.47,993.798"
     id="polyline3919"
     transform="translate(-305.41636,-514.793)" />
  <polyline
     class="Stem"
     fill="none"
     stroke="#000000"
     stroke-width="2.48"
     stroke-linejoin="bevel"
     points="879.847,952.63 879.847,875.998"
     id="polyline3921"
     transform="translate(-305.41636,-514.793)" />
  <polyline
     class="Stem"
     fill="none"
     stroke="#000000"
     stroke-width="2.48"
     stroke-linejoin="bevel"
     points="913.288,923.565 913.288,1006.2"
     id="polyline3923"
     transform="translate(-305.41636,-514.793)" />
  <polyline
     class="Stem"
     fill="none"
     stroke="#000000"
     stroke-width="2.48"
     stroke-linejoin="bevel"
     points="2453.32,898.765 2453.32,981.398"
     id="polyline3925"
     transform="translate(-305.41636,-514.793)" />
  <polyline
     class="Stem"
     fill="none"
     stroke="#000000"
     stroke-width="2.48"
     stroke-linejoin="bevel"
     points="976.474,898.765 976.474,981.398"
     id="polyline3927"
     transform="translate(-305.41636,-514.793)" />
  <polyline
     class="Stem"
     fill="none"
     stroke="#000000"
     stroke-width="2.48"
     stroke-linejoin="bevel"
     points="2840.18,911.165 2840.18,993.798"
     id="polyline3929"
     transform="translate(-305.41636,-514.793)" />
  <polyline
     class="Stem"
     fill="none"
     stroke="#000000"
     stroke-width="2.48"
     stroke-linejoin="bevel"
     points="1075.12,911.165 1075.12,993.798"
     id="polyline3931"
     transform="translate(-305.41636,-514.793)" />
  <polyline
     class="Stem"
     fill="none"
     stroke="#000000"
     stroke-width="2.48"
     stroke-linejoin="bevel"
     points="1138.31,886.365 1138.31,968.998"
     id="polyline3933"
     transform="translate(-305.41636,-514.793)" />
  <polyline
     class="Stem"
     fill="none"
     stroke="#000000"
     stroke-width="2.48"
     stroke-linejoin="bevel"
     points="2144.05,935.965 2144.05,1012.4"
     id="polyline3935"
     transform="translate(-305.41636,-514.793)" />
  <polyline
     class="Stem"
     fill="none"
     stroke="#000000"
     stroke-width="2.48"
     stroke-linejoin="bevel"
     points="751.453,911.165 751.453,993.798"
     id="polyline3937"
     transform="translate(-305.41636,-514.793)" />
  <polyline
     class="Stem"
     fill="none"
     stroke="#000000"
     stroke-width="2.48"
     stroke-linejoin="bevel"
     points="2776.99,873.965 2776.99,956.598"
     id="polyline3939"
     transform="translate(-305.41636,-514.793)" />
  <polyline
     class="Stem"
     fill="none"
     stroke="#000000"
     stroke-width="2.48"
     stroke-linejoin="bevel"
     points="1300.14,911.165 1300.14,993.798"
     id="polyline3941"
     transform="translate(-305.41636,-514.793)" />
  <polyline
     class="Stem"
     fill="none"
     stroke="#000000"
     stroke-width="2.48"
     stroke-linejoin="bevel"
     points="1363.33,873.965 1363.33,956.598"
     id="polyline3943"
     transform="translate(-305.41636,-514.793)" />
  <polyline
     class="Stem"
     fill="none"
     stroke="#000000"
     stroke-width="2.48"
     stroke-linejoin="bevel"
     points="1426.52,849.165 1426.52,944.198"
     id="polyline3945"
     transform="translate(-305.41636,-514.793)" />
  <polyline
     class="Stem"
     fill="none"
     stroke="#000000"
     stroke-width="2.48"
     stroke-linejoin="bevel"
     points="1939.92,935.965 1939.92,1012.4"
     id="polyline3947"
     transform="translate(-305.41636,-514.793)" />
  <polyline
     class="Stem"
     fill="none"
     stroke="#000000"
     stroke-width="2.48"
     stroke-linejoin="bevel"
     points="3367.98,911.165 3367.98,993.798"
     id="polyline3949"
     transform="translate(-305.41636,-514.793)" />
  <polyline
     class="Stem"
     fill="none"
     stroke="#000000"
     stroke-width="2.48"
     stroke-linejoin="bevel"
     points="2551.97,911.165 2551.97,993.798"
     id="polyline3951"
     transform="translate(-305.41636,-514.793)" />
  <polyline
     class="Stem"
     fill="none"
     stroke="#000000"
     stroke-width="2.48"
     stroke-linejoin="bevel"
     points="2678.34,861.565 2678.34,944.198"
     id="polyline3953"
     transform="translate(-305.41636,-514.793)" />
  <polyline
     class="Stem"
     fill="none"
     stroke="#000000"
     stroke-width="2.48"
     stroke-linejoin="bevel"
     points="2110.61,952.63 2110.61,875.998"
     id="polyline3955"
     transform="translate(-305.41636,-514.793)" />
  <polyline
     class="Stem"
     fill="none"
     stroke="#000000"
     stroke-width="2.48"
     stroke-linejoin="bevel"
     points="2356.7,952.63 2356.7,875.998"
     id="polyline3957"
     transform="translate(-305.41636,-514.793)" />
  <polyline
     class="Stem"
     fill="none"
     stroke="#000000"
     stroke-width="2.48"
     stroke-linejoin="bevel"
     points="3107.5,911.165 3107.5,993.798"
     id="polyline3959"
     transform="translate(-305.41636,-514.793)" />
  <polyline
     class="Stem"
     fill="none"
     stroke="#000000"
     stroke-width="2.48"
     stroke-linejoin="bevel"
     points="2228.3,911.165 2228.3,993.798"
     id="polyline3961"
     transform="translate(-305.41636,-514.793)" />
  <polyline
     class="Stem"
     fill="none"
     stroke="#000000"
     stroke-width="2.48"
     stroke-linejoin="bevel"
     points="1813.55,873.965 1813.55,956.598"
     id="polyline3963"
     transform="translate(-305.41636,-514.793)" />
  <polyline
     class="Stem"
     fill="none"
     stroke="#000000"
     stroke-width="2.48"
     stroke-linejoin="bevel"
     points="3235.89,952.63 3235.89,875.998"
     id="polyline3965"
     transform="translate(-305.41636,-514.793)" />
  <polyline
     class="Stem"
     fill="none"
     stroke="#000000"
     stroke-width="2.48"
     stroke-linejoin="bevel"
     points="3269.33,923.565 3269.33,1006.2"
     id="polyline3967"
     transform="translate(-305.41636,-514.793)" />
  <path
     class="Hook"
     d="m 1837.3936,274.312 c 0,0.682 0.589,1.2865 1.2865,1.2865 0.496,0 1.1005,-0.403 1.1935,-0.7905 0,-0.1085 0.899,-3.5805 0.992,-3.875 0.093,-0.403 0.992,-4.1695 4.557,-10.01305 3.875,-6.448 9.827,-11.11347 14.787,-18.05747 4.8671,-6.944 7.8431,-13.50053 7.8431,-22.22696 0,-9.02104 -2.0925,-16.56957 -7.3471,-26.19504 -0.2945,-0.69748 -0.8989,-1.08496 -1.488,-1.08496 -0.2014,0 -0.4029,0 -0.496,0.093 -0.496,0.20147 -0.6974,0.60452 -0.6974,1.19347 0,0.29453 0.1085,0.79053 0.2945,1.19357 3.968,9.22243 5.5644,14.47696 5.5644,21.62243 0,8.23053 -2.8829,12.50853 -4.6655,15.57757 -6.448,11.00496 -16.864,16.368 -21.0335,17.76296 -0.6975,0.29452 -0.7905,0.79052 -0.7905,1.08504 V 274.312"
     id="path3969"
     style="stroke-width:0.992" />
  <path
     class="Hook"
     d="m 360.54964,274.312 c 0,0.682 0.589,1.2865 1.28651,1.2865 0.496,0 1.10049,-0.403 1.19349,-0.7905 0,-0.1085 0.899,-3.5805 0.992,-3.875 0.093,-0.403 0.992,-4.1695 4.557,-10.01305 3.875,-6.448 9.827,-11.11347 14.787,-18.05747 4.86705,-6.944 7.84305,-13.50053 7.84305,-22.22696 0,-9.02104 -2.09252,-16.56957 -7.34705,-26.19504 -0.29452,-0.69748 -0.89895,-1.08496 -1.488,-1.08496 -0.20147,0 -0.40295,0 -0.496,0.093 -0.496,0.20147 -0.69747,0.60452 -0.69747,1.19347 0,0.29453 0.10852,0.79053 0.29452,1.19357 3.968,9.22243 5.56443,14.47696 5.56443,21.62243 0,8.23053 -2.88295,12.50853 -4.66548,15.57757 -6.448,11.00496 -16.864,16.368 -21.0335,17.76296 -0.6975,0.29452 -0.7905,0.79052 -0.7905,1.08504 V 274.312"
     id="path3971"
     style="stroke-width:0.992" />
  <path
     class="Hook"
     d="m 1323.9936,249.512 c 0,0.682 0.589,1.2865 1.2865,1.2865 0.496,0 1.1005,-0.403 1.1935,-0.7905 0,-0.1085 0.899,-3.5805 0.992,-3.875 0.093,-0.403 0.992,-4.1695 4.557,-10.01305 3.875,-6.448 9.827,-11.11347 14.787,-18.05747 4.8671,-6.944 7.8431,-13.50053 7.8431,-22.22696 0,-9.02104 -2.0925,-16.56957 -7.3471,-26.19504 -0.2945,-0.69748 -0.8989,-1.08496 -1.488,-1.08496 -0.2014,0 -0.4029,0 -0.496,0.093 -0.496,0.20147 -0.6974,0.60452 -0.6974,1.19347 0,0.29453 0.1085,0.79053 0.2945,1.19357 3.968,9.22243 5.5644,14.47696 5.5644,21.62243 0,8.23053 -2.8829,12.50853 -4.6655,15.57757 -6.448,11.00496 -16.864,16.368 -21.0335,17.76296 -0.6975,0.29452 -0.7905,0.79052 -0.7905,1.08504 V 249.512"
     id="path3973"
     style="stroke-width:0.992" />
  <path
     class="Note"
     d="m 1570.0736,173.1745 c 0,4.2625 3.069,9.02102 11.1135,9.02102 10.3076,0 21.1265,-8.43202 21.1265,-17.15852 0,-5.859 -4.96,-9.12948 -11.1134,-9.12948 -9.6255,0 -21.1266,8.13748 -21.1266,17.26698"
     id="path3975"
     style="stroke-width:0.992" />
  <path
     class="Note"
     d="m 1570.0736,123.5745 c 0,4.2625 3.069,9.02102 11.1135,9.02102 10.3076,0 21.1265,-8.43202 21.1265,-17.15852 0,-5.859 -4.96,-9.12948 -11.1134,-9.12948 -9.6255,0 -21.1266,8.13748 -21.1266,17.26698"
     id="path3977"
     style="stroke-width:0.992" />
  <path
     class="Note"
     d="m 297.36364,197.9745 c 0,4.2625 3.069,9.02102 11.11348,9.02102 10.30757,0 21.12652,-8.43202 21.12652,-17.15852 0,-5.859 -4.96,-9.12948 -11.11347,-9.12948 -9.62548,0 -21.12653,8.13748 -21.12653,17.26698"
     id="path3979"
     style="stroke-width:0.992" />
  <path
     class="Note"
     d="m 297.36364,123.5745 c 0,4.2625 3.069,9.02102 11.11348,9.02102 10.30757,0 21.12652,-8.43202 21.12652,-17.15852 0,-5.859 -4.96,-9.12948 -11.11347,-9.12948 -9.62548,0 -21.12653,8.13748 -21.12653,17.26698"
     id="path3981"
     style="stroke-width:0.992" />
  <path
     class="Note"
     d="m 360.54964,135.9745 c 0,4.2625 3.069,9.02102 11.11348,9.02102 10.30757,0 21.12652,-8.43202 21.12652,-17.15852 0,-5.859 -4.96,-9.12948 -11.11347,-9.12948 -9.62548,0 -21.12653,8.13748 -21.12653,17.26698"
     id="path3983"
     style="stroke-width:0.992" />
  <path
     class="Note"
     d="m 423.73464,197.9745 c 0,4.2625 3.069,9.02102 11.11348,9.02102 10.30757,0 21.12652,-8.43202 21.12652,-17.15852 0,-5.859 -4.96,-9.12948 -11.11347,-9.12948 -9.62548,0 -21.12653,8.13748 -21.12653,17.26698"
     id="path3985"
     style="stroke-width:0.992" />
  <path
     class="Note"
     d="m 423.73464,135.9745 c 0,4.2625 3.069,9.02102 11.11348,9.02102 10.30757,0 21.12652,-8.43202 21.12652,-17.15852 0,-5.859 -4.96,-9.12948 -11.11347,-9.12948 -9.62548,0 -21.12653,8.13748 -21.12653,17.26698"
     id="path3987"
     style="stroke-width:0.992" />
  <path
     class="Note"
     d="m 2899.4936,160.7745 c 0,4.2625 3.069,9.02102 11.1135,9.02102 10.3076,0 21.1265,-8.43202 21.1265,-17.15852 0,-5.859 -4.96,-9.12948 -11.1134,-9.12948 -9.6255,0 -21.1266,8.13748 -21.1266,17.26698"
     id="path3989"
     style="stroke-width:0.992" />
  <path
     class="Note"
     d="m 2020.2936,123.5745 c 0,4.2625 3.069,9.02102 11.1135,9.02102 10.3076,0 21.1265,-8.43202 21.1265,-17.15852 0,-5.859 -4.96,-9.12948 -11.1134,-9.12948 -9.6255,0 -21.1266,8.13748 -21.1266,17.26698"
     id="path3991"
     style="stroke-width:0.992" />
  <path
     class="Note"
     d="m 1774.2136,197.9745 c 0,4.2625 3.069,9.02102 11.1135,9.02102 10.3076,0 21.1265,-8.43202 21.1265,-17.15852 0,-5.859 -4.96,-9.12948 -11.1134,-9.12948 -9.6255,0 -21.1266,8.13748 -21.1266,17.26698"
     id="path3993"
     style="stroke-width:0.992" />
  <path
     class="Note"
     d="m 2983.8002,155.90752 c -9.6255,0 -21.1266,8.04448 -21.1266,17.26698 0,4.2625 3.069,9.02102 11.1135,9.02102 10.3076,0 21.1265,-8.43202 21.1265,-17.15852 0,-5.859 -4.96,-9.12948 -11.1134,-9.12948 m -2.6815,17.46848 c -0.2945,0.186 -7.5331,4.154 -11.0051,4.154 -3.2705,0 -3.968,-2.666 -3.968,-3.565 0,-4.1695 9.92,-9.021 10.3231,-9.2225 0.3875,-0.2015 7.44,-4.1695 11.0049,-4.1695 2.3871,0 3.968,1.395 3.968,3.565 0,4.278 -10.0129,9.0365 -10.3229,9.238"
     id="path3995"
     style="stroke-width:0.992" />
  <path
     class="Note"
     d="m 1633.2636,123.5745 c 0,4.2625 3.069,9.02102 11.1135,9.02102 10.3076,0 21.1265,-8.43202 21.1265,-17.15852 0,-5.859 -4.96,-9.12948 -11.1134,-9.12948 -9.6255,0 -21.1266,8.13748 -21.1266,17.26698"
     id="path3997"
     style="stroke-width:0.992" />
  <path
     class="Note"
     d="m 1506.8936,173.1745 c 0,4.2625 3.069,9.02102 11.1135,9.02102 10.3076,0 21.1265,-8.43202 21.1265,-17.15852 0,-5.859 -4.96,-9.12948 -11.1134,-9.12948 -9.6255,0 -21.1266,8.13748 -21.1266,17.26698"
     id="path3999"
     style="stroke-width:0.992" />
  <path
     class="Note"
     d="m 1774.2136,123.5745 c 0,4.2625 3.069,9.02102 11.1135,9.02102 10.3076,0 21.1265,-8.43202 21.1265,-17.15852 0,-5.859 -4.96,-9.12948 -11.1134,-9.12948 -9.6255,0 -21.1266,8.13748 -21.1266,17.26698"
     id="path4001"
     style="stroke-width:0.992" />
  <path
     class="Note"
     d="m 1837.3936,135.9745 c 0,4.2625 3.069,9.02102 11.1135,9.02102 10.3076,0 21.1265,-8.43202 21.1265,-17.15852 0,-5.859 -4.96,-9.12948 -11.1134,-9.12948 -9.6255,0 -21.1266,8.13748 -21.1266,17.26698"
     id="path4003"
     style="stroke-width:0.992" />
  <path
     class="Note"
     d="m 3061.3236,123.5745 c 0,4.2625 3.069,9.02102 11.1135,9.02102 10.3076,0 21.1265,-8.43202 21.1265,-17.15852 0,-5.859 -4.96,-9.12948 -11.1134,-9.12948 -9.6255,0 -21.1266,8.13748 -21.1266,17.26698"
     id="path4005"
     style="stroke-width:0.992" />
  <path
     class="Note"
     d="m 669.81764,160.7745 c 0,4.2625 3.069,9.02102 11.11348,9.02102 10.30757,0 21.12652,-8.43202 21.12652,-17.15852 0,-5.859 -4.96,-9.12948 -11.11347,-9.12948 -9.62548,0 -21.12653,8.13748 -21.12653,17.26698"
     id="path4007"
     style="stroke-width:0.992" />
  <path
     class="Note"
     d="m 669.81764,197.9745 c 0,4.2625 3.069,9.02102 11.11348,9.02102 10.30757,0 21.12652,-8.43202 21.12652,-17.15852 0,-5.859 -4.96,-9.12948 -11.11347,-9.12948 -9.62548,0 -21.12653,8.13748 -21.12653,17.26698"
     id="path4009"
     style="stroke-width:0.992" />
  <path
     class="Note"
     d="m 3145.6402,118.70752 c -9.6255,0 -21.1266,8.04448 -21.1266,17.26698 0,4.2625 3.069,9.02102 11.1135,9.02102 10.3076,0 21.1265,-8.43202 21.1265,-17.15852 0,-5.859 -4.96,-9.12948 -11.1134,-9.12948 m -2.6815,17.46848 c -0.2945,0.186 -7.5331,4.154 -11.0051,4.154 -3.2705,0 -3.968,-2.666 -3.968,-3.565 0,-4.1695 9.92,-9.021 10.3231,-9.2225 0.3875,-0.2015 7.44,-4.1695 11.0049,-4.1695 2.3871,0 3.968,1.395 3.968,3.565 0,4.278 -10.0129,9.0365 -10.3229,9.238"
     id="path4011"
     style="stroke-width:0.992" />
  <path
     class="Note"
     d="m 1633.2636,173.1745 c 0,4.2625 3.069,9.02102 11.1135,9.02102 10.3076,0 21.1265,-8.43202 21.1265,-17.15852 0,-5.859 -4.96,-9.12948 -11.1134,-9.12948 -9.6255,0 -21.1266,8.13748 -21.1266,17.26698"
     id="path4013"
     style="stroke-width:0.992" />
  <path
     class="Note"
     d="m 1387.1836,111.1745 c 0,4.2625 3.069,9.02102 11.1135,9.02102 10.3076,0 21.1265,-8.43202 21.1265,-17.15852 0,-5.859 -4.96,-9.129475 -11.1134,-9.129475 -9.6255,0 -21.1266,8.137475 -21.1266,17.266975"
     id="path4015"
     style="stroke-width:0.992" />
  <path
     class="Note"
     d="m 1387.1836,173.1745 c 0,4.2625 3.069,9.02102 11.1135,9.02102 10.3076,0 21.1265,-8.43202 21.1265,-17.15852 0,-5.859 -4.96,-9.12948 -11.1134,-9.12948 -9.6255,0 -21.1266,8.13748 -21.1266,17.26698"
     id="path4017"
     style="stroke-width:0.992" />
  <path
     class="Note"
     d="m 606.63164,135.9745 c 0,4.2625 3.069,9.02102 11.11348,9.02102 10.30757,0 21.12652,-8.43202 21.12652,-17.15852 0,-5.859 -4.96,-9.12948 -11.11347,-9.12948 -9.62548,0 -21.12653,8.13748 -21.12653,17.26698"
     id="path4019"
     style="stroke-width:0.992" />
  <path
     class="Note"
     d="m 3223.1636,135.9745 c 0,4.2625 3.069,9.02102 11.1135,9.02102 10.3076,0 21.1265,-8.43202 21.1265,-17.15852 0,-5.859 -4.96,-9.12948 -11.1134,-9.12948 -9.6255,0 -21.1266,8.13748 -21.1266,17.26698"
     id="path4021"
     style="stroke-width:0.992" />
  <path
     class="Note"
     d="m 2083.4836,197.9745 c 0,4.2625 3.069,9.02102 11.1135,9.02102 10.3076,0 21.1265,-8.43202 21.1265,-17.15852 0,-5.859 -4.96,-9.12948 -11.1134,-9.12948 -9.6255,0 -21.1266,8.13748 -21.1266,17.26698"
     id="path4023"
     style="stroke-width:0.992" />
  <path
     class="Note"
     d="m 606.63164,197.9745 c 0,4.2625 3.069,9.02102 11.11348,9.02102 10.30757,0 21.12652,-8.43202 21.12652,-17.15852 0,-5.859 -4.96,-9.12948 -11.11347,-9.12948 -9.62548,0 -21.12653,8.13748 -21.12653,17.26698"
     id="path4025"
     style="stroke-width:0.992" />
  <path
     class="Note"
     d="m 3307.4702,143.50752 c -9.6255,0 -21.1266,8.04448 -21.1266,17.26698 0,4.2625 3.069,9.02102 11.1135,9.02102 10.3076,0 21.1265,-8.43202 21.1265,-17.15852 0,-5.859 -4.96,-9.12948 -11.1134,-9.12948 m -2.6815,17.46848 c -0.2945,0.186 -7.5331,4.154 -11.0051,4.154 -3.2705,0 -3.968,-2.666 -3.968,-3.565 0,-4.1695 9.92,-9.021 10.3231,-9.2225 0.3875,-0.2015 7.44,-4.1695 11.0049,-4.1695 2.3871,0 3.968,1.395 3.968,3.565 0,4.278 -10.0129,9.0365 -10.3229,9.238"
     id="path4027"
     style="stroke-width:0.992" />
  <path
     class="Note"
     d="m 1900.5836,197.9745 c 0,4.2625 3.069,9.02102 11.1135,9.02102 10.3076,0 21.1265,-8.43202 21.1265,-17.15852 0,-5.859 -4.96,-9.12948 -11.1134,-9.12948 -9.6255,0 -21.1266,8.13748 -21.1266,17.26698"
     id="path4029"
     style="stroke-width:0.992" />
  <path
     class="Note"
     d="m 360.54964,197.9745 c 0,4.2625 3.069,9.02102 11.11348,9.02102 10.30757,0 21.12652,-8.43202 21.12652,-17.15852 0,-5.859 -4.96,-9.12948 -11.11347,-9.12948 -9.62548,0 -21.12653,8.13748 -21.12653,17.26698"
     id="path4031"
     style="stroke-width:0.992" />
  <path
     class="Note"
     d="m 2821.9702,180.70752 c -9.6255,0 -21.1266,8.04448 -21.1266,17.26698 0,4.2625 3.069,9.02102 11.1135,9.02102 10.3076,0 21.1265,-8.43202 21.1265,-17.15852 0,-5.859 -4.96,-9.12948 -11.1134,-9.12948 m -2.6815,17.46848 c -0.2945,0.186 -7.5331,4.154 -11.0051,4.154 -3.2705,0 -3.968,-2.666 -3.968,-3.565 0,-4.1695 9.92,-9.021 10.3231,-9.2225 0.3875,-0.2015 7.44,-4.1695 11.0049,-4.1695 2.3871,0 3.968,1.395 3.968,3.565 0,4.278 -10.0129,9.0365 -10.3229,9.238"
     id="path4033"
     style="stroke-width:0.992" />
  <path
     class="Note"
     d="m 1323.9936,111.1745 c 0,4.2625 3.069,9.02102 11.1135,9.02102 10.3076,0 21.1265,-8.43202 21.1265,-17.15852 0,-5.859 -4.96,-9.129475 -11.1134,-9.129475 -9.6255,0 -21.1266,8.137475 -21.1266,17.266975"
     id="path4035"
     style="stroke-width:0.992" />
  <path
     class="Note"
     d="m 2083.4836,135.9745 c 0,4.2625 3.069,9.02102 11.1135,9.02102 10.3076,0 21.1265,-8.43202 21.1265,-17.15852 0,-5.859 -4.96,-9.12948 -11.1134,-9.12948 -9.6255,0 -21.1266,8.13748 -21.1266,17.26698"
     id="path4037"
     style="stroke-width:0.992" />
  <path
     class="Note"
     d="m 3427.2936,197.9745 c 0,4.2625 3.069,9.02102 11.1135,9.02102 10.3076,0 21.1265,-8.43202 21.1265,-17.15852 0,-5.859 -4.96,-9.12948 -11.1134,-9.12948 -9.6255,0 -21.1266,8.13748 -21.1266,17.26698"
     id="path4039"
     style="stroke-width:0.992" />
  <path
     class="Note"
     d="m 1900.5836,135.9745 c 0,4.2625 3.069,9.02102 11.1135,9.02102 10.3076,0 21.1265,-8.43202 21.1265,-17.15852 0,-5.859 -4.96,-9.12948 -11.1134,-9.12948 -9.6255,0 -21.1266,8.13748 -21.1266,17.26698"
     id="path4041"
     style="stroke-width:0.992" />
  <path
     class="Note"
     d="m 2146.6636,160.7745 c 0,4.2625 3.069,9.02102 11.1135,9.02102 10.3076,0 21.1265,-8.43202 21.1265,-17.15852 0,-5.859 -4.96,-9.12948 -11.1134,-9.12948 -9.6255,0 -21.1266,8.13748 -21.1266,17.26698"
     id="path4043"
     style="stroke-width:0.992" />
  <path
     class="Note"
     d="m 3511.6102,155.90752 c -9.6255,0 -21.1266,8.04448 -21.1266,17.26698 0,4.2625 3.069,9.02102 11.1135,9.02102 10.3076,0 21.1265,-8.43202 21.1265,-17.15852 0,-5.859 -4.96,-9.12948 -11.1134,-9.12948 m -2.6815,17.46848 c -0.2945,0.186 -7.5331,4.154 -11.0051,4.154 -3.2705,0 -3.968,-2.666 -3.968,-3.565 0,-4.1695 9.92,-9.021 10.3231,-9.2225 0.3875,-0.2015 7.44,-4.1695 11.0049,-4.1695 2.3871,0 3.968,1.395 3.968,3.565 0,4.278 -10.0129,9.0365 -10.3229,9.238"
     id="path4045"
     style="stroke-width:0.992" />
  <path
     class="Note"
     d="m 2020.2936,197.9745 c 0,4.2625 3.069,9.02102 11.1135,9.02102 10.3076,0 21.1265,-8.43202 21.1265,-17.15852 0,-5.859 -4.96,-9.12948 -11.1134,-9.12948 -9.6255,0 -21.1266,8.13748 -21.1266,17.26698"
     id="path4047"
     style="stroke-width:0.992" />
  <path
     class="Note"
     d="m 1323.9936,173.1745 c 0,4.2625 3.069,9.02102 11.1135,9.02102 10.3076,0 21.1265,-8.43202 21.1265,-17.15852 0,-5.859 -4.96,-9.12948 -11.1134,-9.12948 -9.6255,0 -21.1266,8.13748 -21.1266,17.26698"
     id="path4049"
     style="stroke-width:0.992" />
  <path
     class="Note"
     d="m 543.44664,123.5745 c 0,4.2625 3.069,9.02102 11.11348,9.02102 10.30757,0 21.12652,-8.43202 21.12652,-17.15852 0,-5.859 -4.96,-9.12948 -11.11347,-9.12948 -9.62548,0 -21.12653,8.13748 -21.12653,17.26698"
     id="path4051"
     style="stroke-width:0.992" />
  <path
     class="Note"
     d="m 2737.6536,247.5745 c 0,4.2625 3.069,9.02102 11.1135,9.02102 10.3076,0 21.1265,-8.43202 21.1265,-17.15852 0,-5.859 -4.96,-9.12948 -11.1134,-9.12948 -9.6255,0 -21.1266,8.13748 -21.1266,17.26698"
     id="path4053"
     style="stroke-width:0.992" />
  <path
     class="Note"
     d="m 543.44664,197.9745 c 0,4.2625 3.069,9.02102 11.11348,9.02102 10.30757,0 21.12652,-8.43202 21.12652,-17.15852 0,-5.859 -4.96,-9.12948 -11.11347,-9.12948 -9.62548,0 -21.12653,8.13748 -21.12653,17.26698"
     id="path4055"
     style="stroke-width:0.992" />
  <path
     class="Note"
     d="m 3610.2602,143.50752 c -9.6255,0 -21.1266,8.04448 -21.1266,17.26698 0,4.2625 3.069,9.02102 11.1135,9.02102 10.3076,0 21.1265,-8.43202 21.1265,-17.15852 0,-5.859 -4.96,-9.12948 -11.1134,-9.12948 m -2.6815,17.46848 c -0.2945,0.186 -7.5331,4.154 -11.0051,4.154 -3.2705,0 -3.968,-2.666 -3.968,-3.565 0,-4.1695 9.92,-9.021 10.3231,-9.2225 0.3875,-0.2015 7.44,-4.1695 11.0049,-4.1695 2.3871,0 3.968,1.395 3.968,3.565 0,4.278 -10.0129,9.0365 -10.3229,9.238"
     id="path4057"
     style="stroke-width:0.992" />
  <path
     class="Note"
     d="m 1506.8936,111.1745 c 0,4.2625 3.069,9.02102 11.1135,9.02102 10.3076,0 21.1265,-8.43202 21.1265,-17.15852 0,-5.859 -4.96,-9.129475 -11.1134,-9.129475 -9.6255,0 -21.1266,8.137475 -21.1266,17.266975"
     id="path4059"
     style="stroke-width:0.992" />
  <path
     class="Note"
     d="m 2146.6636,197.9745 c 0,4.2625 3.069,9.02102 11.1135,9.02102 10.3076,0 21.1265,-8.43202 21.1265,-17.15852 0,-5.859 -4.96,-9.12948 -11.1134,-9.12948 -9.6255,0 -21.1266,8.13748 -21.1266,17.26698"
     id="path4061"
     style="stroke-width:0.992" />
  <path
     class="Note"
     d="m 1837.3936,197.9745 c 0,4.2625 3.069,9.02102 11.1135,9.02102 10.3076,0 21.1265,-8.43202 21.1265,-17.15852 0,-5.859 -4.96,-9.12948 -11.1134,-9.12948 -9.6255,0 -21.1266,8.13748 -21.1266,17.26698"
     id="path4063"
     style="stroke-width:0.992" />
  <path
     class="Note"
     d="m 1260.8136,98.774505 c 0,4.262495 3.069,9.021015 11.1135,9.021015 10.3076,0 21.1265,-8.432015 21.1265,-17.15852 0,-5.859 -4.96,-9.129475 -11.1134,-9.129475 -9.6255,0 -21.1266,8.137475 -21.1266,17.26698"
     id="path4065"
     style="stroke-width:0.992" />
  <path
     class="Note"
     d="m 1260.8136,173.1745 c 0,4.2625 3.069,9.02102 11.1135,9.02102 10.3076,0 21.1265,-8.43202 21.1265,-17.15852 0,-5.859 -4.96,-9.12948 -11.1134,-9.12948 -9.6255,0 -21.1266,8.13748 -21.1266,17.26698"
     id="path4067"
     style="stroke-width:0.992" />
  <path
     class="Note"
     d="m 2083.4836,408.7745 c 0,4.2625 3.069,9.02102 11.1135,9.02102 10.3076,0 21.1265,-8.43202 21.1265,-17.15852 0,-5.859 -4.96,-9.12948 -11.1134,-9.12948 -9.6255,0 -21.1266,8.13748 -21.1266,17.26698"
     id="path4069"
     style="stroke-width:0.992" />
  <path
     class="Note"
     d="m 2146.6636,383.9745 c 0,4.2625 3.069,9.02102 11.1135,9.02102 10.3076,0 21.1265,-8.43202 21.1265,-17.15852 0,-5.859 -4.96,-9.12948 -11.1134,-9.12948 -9.6255,0 -21.1266,8.13748 -21.1266,17.26698"
     id="path4071"
     style="stroke-width:0.992" />
  <path
     class="Note"
     d="m 3061.3236,396.3745 c 0,4.2625 3.069,9.02102 11.1135,9.02102 10.3076,0 21.1265,-8.43202 21.1265,-17.15852 0,-5.859 -4.96,-9.12948 -11.1134,-9.12948 -9.6255,0 -21.1266,8.13748 -21.1266,17.26698"
     id="path4073"
     style="stroke-width:0.992" />
  <path
     class="Note"
     d="m 2245.3136,396.3745 c 0,4.2625 3.069,9.02102 11.1135,9.02102 10.3076,0 21.1265,-8.43202 21.1265,-17.15852 0,-5.859 -4.96,-9.12948 -11.1134,-9.12948 -9.6255,0 -21.1266,8.13748 -21.1266,17.26698"
     id="path4075"
     style="stroke-width:0.992" />
  <path
     class="Note"
     d="m 2308.5036,371.5745 c 0,4.2625 3.069,9.02102 11.1135,9.02102 10.3076,0 21.1265,-8.43202 21.1265,-17.15852 0,-5.859 -4.96,-9.12948 -11.1134,-9.12948 -9.6255,0 -21.1266,8.13748 -21.1266,17.26698"
     id="path4077"
     style="stroke-width:0.992" />
  <path
     class="Note"
     d="m 2371.6836,346.7745 c 0,4.2625 3.069,9.02102 11.1135,9.02102 10.3076,0 21.1265,-8.43202 21.1265,-17.15852 0,-5.859 -4.96,-9.12948 -11.1134,-9.12948 -9.6255,0 -21.1266,8.13748 -21.1266,17.26698"
     id="path4079"
     style="stroke-width:0.992" />
  <path
     class="Note"
     d="m 3145.6402,354.30752 c -9.6255,0 -21.1266,8.04448 -21.1266,17.26698 0,4.2625 3.069,9.02102 11.1135,9.02102 10.3076,0 21.1265,-8.43202 21.1265,-17.15852 0,-5.859 -4.96,-9.12948 -11.1134,-9.12948 m -2.6815,17.46848 c -0.2945,0.186 -7.5331,4.154 -11.0051,4.154 -3.2705,0 -3.968,-2.666 -3.968,-3.565 0,-4.1695 9.92,-9.021 10.3231,-9.2225 0.3875,-0.2015 7.44,-4.1695 11.0049,-4.1695 2.3871,0 3.968,1.395 3.968,3.565 0,4.278 -10.0129,9.0365 -10.3229,9.238"
     id="path4081"
     style="stroke-width:0.992" />
  <path
     class="Note"
     d="m 3427.2936,396.3745 c 0,4.2625 3.069,9.02102 11.1135,9.02102 10.3076,0 21.1265,-8.43202 21.1265,-17.15852 0,-5.859 -4.96,-9.12948 -11.1134,-9.12948 -9.6255,0 -21.1266,8.13748 -21.1266,17.26698"
     id="path4083"
     style="stroke-width:0.992" />
  <path
     class="Note"
     d="m 2470.3336,359.1745 c 0,4.2625 3.069,9.02102 11.1135,9.02102 10.3076,0 21.1265,-8.43202 21.1265,-17.15852 0,-5.859 -4.96,-9.12948 -11.1134,-9.12948 -9.6255,0 -21.1266,8.13748 -21.1266,17.26698"
     id="path4085"
     style="stroke-width:0.992" />
  <path
     class="Note"
     d="m 2533.5236,396.3745 c 0,4.2625 3.069,9.02102 11.1135,9.02102 10.3076,0 21.1265,-8.43202 21.1265,-17.15852 0,-5.859 -4.96,-9.12948 -11.1134,-9.12948 -9.6255,0 -21.1266,8.13748 -21.1266,17.26698"
     id="path4087"
     style="stroke-width:0.992" />
  <path
     class="Note"
     d="m 2596.7036,421.1745 c 0,4.2625 3.069,9.02102 11.1135,9.02102 10.3076,0 21.1265,-8.43202 21.1265,-17.15852 0,-5.859 -4.96,-9.12948 -11.1134,-9.12948 -9.6255,0 -21.1266,8.13748 -21.1266,17.26698"
     id="path4089"
     style="stroke-width:0.992" />
  <path
     class="Note"
     d="m 1570.0736,396.3745 c 0,4.2625 3.069,9.02102 11.1135,9.02102 10.3076,0 21.1265,-8.43202 21.1265,-17.15852 0,-5.859 -4.96,-9.12948 -11.1134,-9.12948 -9.6255,0 -21.1266,8.13748 -21.1266,17.26698"
     id="path4091"
     style="stroke-width:0.992" />
  <path
     class="Note"
     d="m 3223.1636,396.3745 c 0,4.2625 3.069,9.02102 11.1135,9.02102 10.3076,0 21.1265,-8.43202 21.1265,-17.15852 0,-5.859 -4.96,-9.12948 -11.1134,-9.12948 -9.6255,0 -21.1266,8.13748 -21.1266,17.26698"
     id="path4093"
     style="stroke-width:0.992" />
  <path
     class="Note"
     d="m 2737.6536,445.9745 c 0,4.2625 3.069,9.02102 11.1135,9.02102 10.3076,0 21.1265,-8.43202 21.1265,-17.15852 0,-5.859 -4.96,-9.12948 -11.1134,-9.12948 -9.6255,0 -21.1266,8.13748 -21.1266,17.26698"
     id="path4095"
     style="stroke-width:0.992" />
  <path
     class="Note"
     d="m 894.83364,346.7745 c 0,4.2625 3.069,9.02102 11.11348,9.02102 10.30757,0 21.12652,-8.43202 21.12652,-17.15852 0,-5.859 -4.96,-9.12948 -11.11347,-9.12948 -9.62548,0 -21.12653,8.13748 -21.12653,17.26698"
     id="path4097"
     style="stroke-width:0.992" />
  <path
     class="Note"
     d="m 297.36364,445.9745 c 0,4.2625 3.069,9.02102 11.11348,9.02102 10.30757,0 21.12652,-8.43202 21.12652,-17.15852 0,-5.859 -4.96,-9.12948 -11.11347,-9.12948 -9.62548,0 -21.12653,8.13748 -21.12653,17.26698"
     id="path4099"
     style="stroke-width:0.992" />
  <path
     class="Note"
     d="m 1837.3936,421.1745 c 0,4.2625 3.069,9.02102 11.1135,9.02102 10.3076,0 21.1265,-8.43202 21.1265,-17.15852 0,-5.859 -4.96,-9.12948 -11.1134,-9.12948 -9.6255,0 -21.1266,8.13748 -21.1266,17.26698"
     id="path4101"
     style="stroke-width:0.992" />
  <path
     class="Note"
     d="m 3307.4702,341.90752 c -9.6255,0 -21.1266,8.04448 -21.1266,17.26698 0,4.2625 3.069,9.02102 11.1135,9.02102 10.3076,0 21.1265,-8.43202 21.1265,-17.15852 0,-5.859 -4.96,-9.12948 -11.1134,-9.12948 m -2.6815,17.46848 c -0.2945,0.186 -7.5331,4.154 -11.0051,4.154 -3.2705,0 -3.968,-2.666 -3.968,-3.565 0,-4.1695 9.92,-9.021 10.3231,-9.2225 0.3875,-0.2015 7.44,-4.1695 11.0049,-4.1695 2.3871,0 3.968,1.395 3.968,3.565 0,4.278 -10.0129,9.0365 -10.3229,9.238"
     id="path4103"
     style="stroke-width:0.992" />
  <path
     class="Note"
     d="m 1633.2636,421.1745 c 0,4.2625 3.069,9.02102 11.1135,9.02102 10.3076,0 21.1265,-8.43202 21.1265,-17.15852 0,-5.859 -4.96,-9.12948 -11.1134,-9.12948 -9.6255,0 -21.1266,8.13748 -21.1266,17.26698"
     id="path4105"
     style="stroke-width:0.992" />
  <path
     class="Note"
     d="m 1323.9936,371.5745 c 0,4.2625 3.069,9.02102 11.1135,9.02102 10.3076,0 21.1265,-8.43202 21.1265,-17.15852 0,-5.859 -4.96,-9.12948 -11.1134,-9.12948 -9.6255,0 -21.1266,8.13748 -21.1266,17.26698"
     id="path4107"
     style="stroke-width:0.992" />
  <path
     class="Note"
     d="m 2821.9702,379.10752 c -9.6255,0 -21.1266,8.04448 -21.1266,17.26698 0,4.2625 3.069,9.02102 11.1135,9.02102 10.3076,0 21.1265,-8.43202 21.1265,-17.15852 0,-5.859 -4.96,-9.12948 -11.1134,-9.12948 m -2.6815,17.46848 c -0.2945,0.186 -7.5331,4.154 -11.0051,4.154 -3.2705,0 -3.968,-2.666 -3.968,-3.565 0,-4.1695 9.92,-9.021 10.3231,-9.2225 0.3875,-0.2015 7.44,-4.1695 11.0049,-4.1695 2.3871,0 3.968,1.395 3.968,3.565 0,4.278 -10.0129,9.0365 -10.3229,9.238"
     id="path4109"
     style="stroke-width:0.992" />
  <path
     class="Note"
     d="m 360.54964,421.1745 c 0,4.2625 3.069,9.02102 11.11348,9.02102 10.30757,0 21.12652,-8.43202 21.12652,-17.15852 0,-5.859 -4.96,-9.12948 -11.11347,-9.12948 -9.62548,0 -21.12653,8.13748 -21.12653,17.26698"
     id="path4111"
     style="stroke-width:0.992" />
  <path
     class="Note"
     d="m 1506.8936,359.1745 c 0,4.2625 3.069,9.02102 11.1135,9.02102 10.3076,0 21.1265,-8.43202 21.1265,-17.15852 0,-5.859 -4.96,-9.12948 -11.1134,-9.12948 -9.6255,0 -21.1266,8.13748 -21.1266,17.26698"
     id="path4113"
     style="stroke-width:0.992" />
  <path
     class="Note"
     d="m 2020.2936,445.9745 c 0,4.2625 3.069,9.02102 11.1135,9.02102 10.3076,0 21.1265,-8.43202 21.1265,-17.15852 0,-5.859 -4.96,-9.12948 -11.1134,-9.12948 -9.6255,0 -21.1266,8.13748 -21.1266,17.26698"
     id="path4115"
     style="stroke-width:0.992" />
  <path
     class="Note"
     d="m 444.79664,396.3745 c 0,4.2625 3.069,9.02102 11.11348,9.02102 10.30757,0 21.12652,-8.43202 21.12652,-17.15852 0,-5.859 -4.96,-9.12948 -11.11347,-9.12948 -9.62548,0 -21.12653,8.13748 -21.12653,17.26698"
     id="path4117"
     style="stroke-width:0.992" />
  <path
     class="Note"
     d="m 543.44664,445.9745 c 0,4.2625 3.069,9.02102 11.11348,9.02102 10.30757,0 21.12652,-8.43202 21.12652,-17.15852 0,-5.859 -4.96,-9.12948 -11.11347,-9.12948 -9.62548,0 -21.12653,8.13748 -21.12653,17.26698"
     id="path4119"
     style="stroke-width:0.992" />
  <path
     class="Note"
     d="m 606.63164,408.7745 c 0,4.2625 3.069,9.02102 11.11348,9.02102 10.30757,0 21.12652,-8.43202 21.12652,-17.15852 0,-5.859 -4.96,-9.12948 -11.11347,-9.12948 -9.62548,0 -21.12653,8.13748 -21.12653,17.26698"
     id="path4121"
     style="stroke-width:0.992" />
  <path
     class="Note"
     d="m 669.81764,383.9745 c 0,4.2625 3.069,9.02102 11.11348,9.02102 10.30757,0 21.12652,-8.43202 21.12652,-17.15852 0,-5.859 -4.96,-9.12948 -11.11347,-9.12948 -9.62548,0 -21.12653,8.13748 -21.12653,17.26698"
     id="path4123"
     style="stroke-width:0.992" />
  <path
     class="Note"
     d="m 3511.6102,354.30752 c -9.6255,0 -21.1266,8.04448 -21.1266,17.26698 0,4.2625 3.069,9.02102 11.1135,9.02102 10.3076,0 21.1265,-8.43202 21.1265,-17.15852 0,-5.859 -4.96,-9.12948 -11.1134,-9.12948 m -2.6815,17.46848 c -0.2945,0.186 -7.5331,4.154 -11.0051,4.154 -3.2705,0 -3.968,-2.666 -3.968,-3.565 0,-4.1695 9.92,-9.021 10.3231,-9.2225 0.3875,-0.2015 7.44,-4.1695 11.0049,-4.1695 2.3871,0 3.968,1.395 3.968,3.565 0,4.278 -10.0129,9.0365 -10.3229,9.238"
     id="path4125"
     style="stroke-width:0.992" />
  <path
     class="Note"
     d="m 2899.4936,445.9745 c 0,4.2625 3.069,9.02102 11.1135,9.02102 10.3076,0 21.1265,-8.43202 21.1265,-17.15852 0,-5.859 -4.96,-9.12948 -11.1134,-9.12948 -9.6255,0 -21.1266,8.13748 -21.1266,17.26698"
     id="path4127"
     style="stroke-width:0.992" />
  <path
     class="Note"
     d="m 768.46364,396.3745 c 0,4.2625 3.069,9.02102 11.11348,9.02102 10.30757,0 21.12652,-8.43202 21.12652,-17.15852 0,-5.859 -4.96,-9.12948 -11.11347,-9.12948 -9.62548,0 -21.12653,8.13748 -21.12653,17.26698"
     id="path4129"
     style="stroke-width:0.992" />
  <path
     class="Note"
     d="m 831.65364,371.5745 c 0,4.2625 3.069,9.02102 11.11348,9.02102 10.30757,0 21.12652,-8.43202 21.12652,-17.15852 0,-5.859 -4.96,-9.12948 -11.11347,-9.12948 -9.62548,0 -21.12653,8.13748 -21.12653,17.26698"
     id="path4131"
     style="stroke-width:0.992" />
  <path
     class="Note"
     d="m 1260.8136,396.3745 c 0,4.2625 3.069,9.02102 11.1135,9.02102 10.3076,0 21.1265,-8.43202 21.1265,-17.15852 0,-5.859 -4.96,-9.12948 -11.1134,-9.12948 -9.6255,0 -21.1266,8.13748 -21.1266,17.26698"
     id="path4133"
     style="stroke-width:0.992" />
  <path
     class="Note"
     d="m 993.48364,396.3745 c 0,4.2625 3.069,9.02102 11.11346,9.02102 10.3076,0 21.1265,-8.43202 21.1265,-17.15852 0,-5.859 -4.96,-9.12948 -11.1134,-9.12948 -9.6255,0 -21.12656,8.13748 -21.12656,17.26698"
     id="path4135"
     style="stroke-width:0.992" />
  <path
     class="Note"
     d="m 2983.8002,391.50752 c -9.6255,0 -21.1266,8.04448 -21.1266,17.26698 0,4.2625 3.069,9.02102 11.1135,9.02102 10.3076,0 21.1265,-8.43202 21.1265,-17.15852 0,-5.859 -4.96,-9.12948 -11.1134,-9.12948 m -2.6815,17.46848 c -0.2945,0.186 -7.5331,4.154 -11.0051,4.154 -3.2705,0 -3.968,-2.666 -3.968,-3.565 0,-4.1695 9.92,-9.021 10.3231,-9.2225 0.3875,-0.2015 7.44,-4.1695 11.0049,-4.1695 2.3871,0 3.968,1.395 3.968,3.565 0,4.278 -10.0129,9.0365 -10.3229,9.238"
     id="path4137"
     style="stroke-width:0.992" />
  <path
     class="Note"
     d="m 1056.6736,359.1745 c 0,4.2625 3.069,9.02102 11.1135,9.02102 10.3076,0 21.1265,-8.43202 21.1265,-17.15852 0,-5.859 -4.96,-9.12948 -11.1134,-9.12948 -9.6255,0 -21.1266,8.13748 -21.1266,17.26698"
     id="path4139"
     style="stroke-width:0.992" />
  <path
     class="Note"
     d="m 1119.8636,334.3745 c 0,4.2625 3.069,9.02102 11.1135,9.02102 10.3076,0 21.1265,-8.43202 21.1265,-17.15852 0,-5.859 -4.96,-9.12948 -11.1134,-9.12948 -9.6255,0 -21.1266,8.13748 -21.1266,17.26698"
     id="path4141"
     style="stroke-width:0.992" />
  <path
     class="Note"
     d="m 3610.2602,341.90752 c -9.6255,0 -21.1266,8.04448 -21.1266,17.26698 0,4.2625 3.069,9.02102 11.1135,9.02102 10.3076,0 21.1265,-8.43202 21.1265,-17.15852 0,-5.859 -4.96,-9.12948 -11.1134,-9.12948 m -2.6815,17.46848 c -0.2945,0.186 -7.5331,4.154 -11.0051,4.154 -3.2705,0 -3.968,-2.666 -3.968,-3.565 0,-4.1695 9.92,-9.021 10.3231,-9.2225 0.3875,-0.2015 7.44,-4.1695 11.0049,-4.1695 2.3871,0 3.968,1.395 3.968,3.565 0,4.278 -10.0129,9.0365 -10.3229,9.238"
     id="path4143"
     style="stroke-width:0.992" />
  <path
     class="Note"
     d="m 1408.2436,346.7745 c 0,4.2625 3.069,9.02102 11.1135,9.02102 10.3076,0 21.1265,-8.43202 21.1265,-17.15852 0,-5.859 -4.96,-9.12948 -11.1134,-9.12948 -9.6255,0 -21.1266,8.13748 -21.1266,17.26698"
     id="path4145"
     style="stroke-width:0.992" />
  <path
     class="Note"
     d="m 1921.6436,396.3745 c 0,4.2625 3.069,9.02102 11.1135,9.02102 10.3076,0 21.1265,-8.43202 21.1265,-17.15852 0,-5.859 -4.96,-9.12948 -11.1134,-9.12948 -9.6255,0 -21.1266,8.13748 -21.1266,17.26698"
     id="path4147"
     style="stroke-width:0.992" />
  <path
     class="Note"
     d="m 1774.2136,445.9745 c 0,4.2625 3.069,9.02102 11.1135,9.02102 10.3076,0 21.1265,-8.43202 21.1265,-17.15852 0,-5.859 -4.96,-9.12948 -11.1134,-9.12948 -9.6255,0 -21.1266,8.13748 -21.1266,17.26698"
     id="path4149"
     style="stroke-width:0.992" />
  <path
     class="Clef"
     d="m 109.99912,195.882 c 0,7.0525 -2.88295,14.291 -9.92,17.17405 -2.076953,-11.90405 -4.758429,-27.68305 -5.456003,-32.0541 8.928003,0 15.376003,6.06055 15.376003,14.88005 m -14.089478,18.35205 c -1.984,0.40295 -3.859475,0.60443 -5.750525,0.60443 -14.182426,0 -26.28797,-9.92 -26.28797,-24.90848 0,-12.09005 8.52502,-22.909 17.26702,-30.45752 1.674,-1.488 3.270524,-2.86748 4.758524,-4.35548 0.883476,5.34748 1.580951,10.01295 2.278426,14.08948 -9.036426,2.68147 -15.174426,12.19852 -15.174426,21.52952 0,6.944 5.456,16.461 13.392,16.461 0.790426,0 1.689476,-0.40295 1.689476,-1.28652 0,-0.89896 -0.992,-1.39496 -2.185476,-2.18548 -3.875049,-2.387 -6.060524,-4.96 -6.060524,-9.827 0,-6.045 4.464,-10.91205 10.32295,-12.29152 l 5.750525,32.62757 M 87.183117,112.25952 c 0.89905,-3.968 5.456,-14.383995 10.617574,-14.383995 1.488,0 3.859479,4.851475 3.859479,11.702425 0,10.32305 -7.626003,18.05757 -14.477053,24.8 -0.58895,-3.968 -1.08495,-7.82747 -1.08495,-11.99695 0,-3.67348 0.294524,-7.05252 1.08495,-10.12148 m -20.832,132.432 c 0,6.55653 5.05305,15.19 18.44505,15.19 4.665475,0 8.742,-1.19347 12.30695,-3.37904 5.363053,-3.76643 6.742523,-10.32296 6.742523,-16.56948 0,-3.85948 -0.58895,-8.32348 -1.58095,-13.98095 -0.29452,-1.984 -0.89905,-4.96 -1.488,-8.83505 9.71843,-3.17748 16.95695,-13.29895 16.95695,-23.5135 0,-14.97302 -10.61747,-25.0945 -25.094523,-25.0945 -0.992,-5.952 -1.984,-11.81105 -2.88295,-17.36 10.524523,-11.02052 17.762953,-23.42052 17.762953,-39.184 0,-9.03652 -2.77443,-16.368 -4.37095,-19.948128 -2.37148,-5.053248 -5.254528,-8.525248 -7.037053,-8.525248 -0.697475,0 -3.766426,1.193376 -7.03695,5.053248 -6.35505,7.548128 -8.137476,20.242648 -8.137476,28.566128 0,5.36295 0.496,10.23 2.185476,21.34348 -0.108525,0.093 -5.27,5.34747 -7.34705,7.03704 -9.036426,8.432 -21.529475,20.42896 -21.529475,40.28448 0,18.53805 16.166525,33.12352 34.627049,33.12352 2.867476,0 5.548951,-0.29452 7.827476,-0.69747 1.89095,9.53243 2.976,16.47643 2.976,21.73095 0,10.32305 -5.254525,15.77905 -15.267476,15.77905 -2.387049,0 -4.464,-0.496 -4.665574,-0.496 -0.09295,-0.10853 -0.294426,-0.20157 -0.294426,-0.29453 0,-0.20147 0.201476,-0.31 0.496,-0.40304 4.665476,-0.69748 9.315476,-4.66548 9.315476,-11.00496 0,-5.36304 -4.06105,-11.02052 -11.50105,-11.02052 -6.944,0 -11.408,5.65748 -11.408,12.19852"
     id="path4151"
     style="stroke-width:0.992" />
  <path
     class="Clef"
     d="m 79.448691,379.71195 c -7.548524,0 -13.593574,4.35557 -13.702,4.35557 -5.750544,4.26243 -8.029049,9.33096 -8.928049,12.80298 -0.496,1.7825 -0.682,3.565 -0.682,5.2545 0,2.387 0.387505,4.557 1.286505,6.448 1.193495,2.6815 3.472,4.557 6.448,5.549 1.193544,0.403 2.47997,0.60448 3.766495,0.60448 2.185475,0 4.464,-0.60448 6.355049,-1.68948 3.068951,-1.6895 4.96,-5.2545 4.96,-9.1295 0,-3.472 -1.798,-6.6495 -4.774,-8.525 -2.077049,-1.39498 -4.061049,-1.78255 -5.750524,-1.78255 -1.193476,0 -2.278525,0.186 -3.177476,0.496 -0.992,0.38757 -2.666049,1.37955 -3.472049,2.07705 0.31,-1.89105 1.488,-4.75852 2.588475,-6.35505 1.08505,-1.58095 3.270525,-3.56495 4.96,-4.464 2.48,-1.37947 5.657574,-1.984 9.129574,-1.984 10.121476,0 15.081476,8.13757 15.081476,24.80005 0,9.23805 -3.472,18.05752 -6.448,23.91648 -3.286,6.54104 -7.641476,12.80304 -11.516525,16.27504 -10.322951,9.424 -20.041495,13.888 -20.134495,13.888 0,0 -1.193505,0.682 -1.193505,1.87548 0,0.20148 0.093,0.29452 0.093,0.496 0.31,0.992 1.193505,1.19348 1.798,1.19348 0.093,0 0.387505,-0.093 0.496,-0.093 0.093,0 11.408049,-4.66547 20.429,-11.718 5.068525,-3.658 9.625475,-7.626 13.593475,-11.904 3.56505,-3.85947 6.649574,-8.02904 9.129574,-12.19852 4.355479,-7.44 6.835479,-15.17452 6.835479,-21.824 0,-8.2305 -2.17,-15.08148 -6.24653,-19.93305 -4.665473,-5.56443 -11.702523,-8.432 -20.924949,-8.432 m 31.139479,12.586 c 0,2.79005 2.18547,4.96005 4.774,4.96005 2.57295,0 4.75852,-2.17 4.75852,-4.96005 0,-2.77443 -2.18557,-5.05295 -4.75852,-5.05295 -2.58853,0 -4.774,2.27852 -4.774,5.05295 m 0,24.50557 c 0,2.77453 2.18547,5.06853 4.774,5.06853 2.57295,0 4.75852,-2.294 4.75852,-5.06853 0,-2.77452 -2.18557,-5.05302 -4.75852,-5.05302 -2.58853,0 -4.774,2.2785 -4.774,5.05302"
     id="path4153"
     style="stroke-width:0.992" />
  <path
     class="TimeSig"
     d="m 169.45712,143.12 c 7.936,-3.0845 8.432,-8.246 8.432,-10.02848 0,-0.20157 0,-0.38757 0,-0.496 0,-0.88357 -0.29443,-12.10557 -17.36,-12.10557 -17.06548,0 -16.56948,12.10557 -16.56948,12.10557 h 0.093 l -0.093,0.20148 c 0,3.565 2.883,6.355 6.448,6.355 3.56505,0 6.35505,-2.79 6.35505,-6.355 0,-2.88305 -2.18557,-5.65748 -4.96005,-6.24652 0.093,-0.10853 0.186,-0.20148 0.29451,-0.29453 1.37954,-0.992 3.27049,-1.488 5.16154,-1.488 4.154,0 8.618,2.48 8.618,7.82757 0,6.24648 -4.65,7.14548 -5.84357,7.34698 -1.19348,0.2015 -6.74243,0.589 -7.93597,0.589 -1.19351,0 -1.28651,1.395 -1.28651,1.395 v 1.984 c 0,0 0.186,1.085 1.28651,1.1935 1.68954,0.093 3.96797,0.093 7.14554,0.589 4.35548,0.589 6.634,3.565 6.634,10.50905 0,6.64947 -4.464,8.432 -8.618,8.432 -2.79,0 -5.36305,-0.79053 -6.44805,-1.58105 3.27048,-0.20148 5.95205,-3.06895 5.95205,-6.35495 0,-3.56505 -2.79,-6.44805 -6.35505,-6.44805 -3.565,0 -6.448,2.883 -6.448,6.44805 0,0 0,0.20147 0,0.40295 0,1.28652 0.29451,4.86705 3.875,8.13748 3.85951,3.56504 8.72648,3.67357 10.91205,3.67357 9.51695,0 19.84,-3.286 19.84,-14.08957 0,-7.23848 -4.96,-10.32298 -9.33105,-11.70248 h 0.20148"
     id="path4155"
     style="stroke-width:0.992" />
  <path
     class="TimeSig"
     d="m 159.19617,206.40648 v 7.33157 h -8.23053 c -0.69747,0 -1.39495,0.60443 -1.39495,1.39495 v 1.89105 c 0,0.79043 0.69748,1.37947 1.39495,1.37947 h 30.05453 c 0.806,0 1.39495,-0.58904 1.39495,-1.37947 V 215.133 c 0,-0.79052 -0.58895,-1.39495 -1.39495,-1.39495 h -8.928 v -7.33157 h 8.928 c 0.806,0 1.39495,-0.69748 1.39495,-1.488 v -1.89098 c 0,-0.6975 -0.58895,-1.3795 -1.39495,-1.3795 h -8.928 v -15.779 c 0,-0.589 -0.29453,-1.085 -0.682,-1.2865 l -1.19348,-0.6045 c -0.20157,-0.093 -0.29452,-0.093 -0.496,-0.093 -0.10852,0 -0.10852,0 -0.20157,0 -0.29443,0 -0.69748,0.093 -0.89895,0.2945 l -9.02105,8.2305 c -0.29443,0.31 -0.40295,0.6975 -0.40295,1.1005 v 8.1375 h -11.50102 c 0,0 11.11354,-11.904 22.81597,-27.59005 0.40305,-0.496 0.496,-0.992 0.496,-1.37947 0,-0.496 -0.20148,-0.89896 -0.29443,-0.992 l -2.18557,-2.18548 c -0.29443,-0.20148 -0.58895,-0.40305 -0.992,-0.40305 -0.58895,0 -13.99643,0 -14.78695,0 -0.69748,0 -1.19348,0.60453 -1.28653,1.19357 0,0 -0.496,7.34696 -3.069,15.37598 -2.58849,8.0445 -5.56449,13.0045 -8.13749,16.6625 0,0 -0.29451,0.496 -0.29451,1.1005 0,0.2015 0,0.38755 0.093,0.58902 0.29451,0.69748 0.992,1.78253 0.992,1.78253 0,0 0.20151,0.60443 1.085,0.60443 h 17.06553"
     id="path4157"
     style="stroke-width:0.992" />
  <path
     class="TimeSig"
     d="m 169.45712,403.52 c 7.936,-3.0845 8.432,-8.246 8.432,-10.02848 0,-0.20157 0,-0.38757 0,-0.496 0,-0.88357 -0.29443,-12.10557 -17.36,-12.10557 -17.06548,0 -16.56948,12.10557 -16.56948,12.10557 h 0.093 l -0.093,0.20148 c 0,3.565 2.883,6.355 6.448,6.355 3.56505,0 6.35505,-2.79 6.35505,-6.355 0,-2.88305 -2.18557,-5.65748 -4.96005,-6.24652 0.093,-0.10853 0.186,-0.20148 0.29451,-0.29453 1.37954,-0.992 3.27049,-1.488 5.16154,-1.488 4.154,0 8.618,2.48 8.618,7.82757 0,6.24648 -4.65,7.14548 -5.84357,7.34698 -1.19348,0.2015 -6.74243,0.589 -7.93597,0.589 -1.19351,0 -1.28651,1.395 -1.28651,1.395 v 1.984 c 0,0 0.186,1.085 1.28651,1.1935 1.68954,0.093 3.96797,0.093 7.14554,0.589 4.35548,0.589 6.634,3.565 6.634,10.50905 0,6.64947 -4.464,8.432 -8.618,8.432 -2.79,0 -5.36305,-0.79053 -6.44805,-1.58105 3.27048,-0.20148 5.95205,-3.06895 5.95205,-6.35495 0,-3.56505 -2.79,-6.44805 -6.35505,-6.44805 -3.565,0 -6.448,2.883 -6.448,6.44805 0,0 0,0.20147 0,0.40295 0,1.28652 0.29451,4.86705 3.875,8.13748 3.85951,3.56504 8.72648,3.67357 10.91205,3.67357 9.51695,0 19.84,-3.286 19.84,-14.08957 0,-7.23848 -4.96,-10.32298 -9.33105,-11.70248 h 0.20148"
     id="path4159"
     style="stroke-width:0.992" />
  <path
     class="TimeSig"
     d="m 159.19617,466.80648 v 7.33157 h -8.23053 c -0.69747,0 -1.39495,0.60443 -1.39495,1.39495 v 1.89105 c 0,0.79043 0.69748,1.37947 1.39495,1.37947 h 30.05453 c 0.806,0 1.39495,-0.58904 1.39495,-1.37947 V 475.533 c 0,-0.79052 -0.58895,-1.39495 -1.39495,-1.39495 h -8.928 v -7.33157 h 8.928 c 0.806,0 1.39495,-0.69748 1.39495,-1.488 v -1.89098 c 0,-0.6975 -0.58895,-1.3795 -1.39495,-1.3795 h -8.928 v -15.779 c 0,-0.589 -0.29453,-1.085 -0.682,-1.2865 l -1.19348,-0.6045 c -0.20157,-0.093 -0.29452,-0.093 -0.496,-0.093 -0.10852,0 -0.10852,0 -0.20157,0 -0.29443,0 -0.69748,0.093 -0.89895,0.2945 l -9.02105,8.2305 c -0.29443,0.31 -0.40295,0.6975 -0.40295,1.1005 v 8.1375 h -11.50102 c 0,0 11.11354,-11.904 22.81597,-27.59005 0.40305,-0.496 0.496,-0.992 0.496,-1.37947 0,-0.496 -0.20148,-0.89896 -0.29443,-0.992 l -2.18557,-2.18548 c -0.29443,-0.20148 -0.58895,-0.40305 -0.992,-0.40305 -0.58895,0 -13.99643,0 -14.78695,0 -0.69748,0 -1.19348,0.60453 -1.28653,1.19357 0,0 -0.496,7.34696 -3.069,15.37598 -2.58849,8.0445 -5.56449,13.0045 -8.13749,16.6625 0,0 -0.29451,0.496 -0.29451,1.1005 0,0.2015 0,0.38755 0.093,0.58902 0.29451,0.69748 0.992,1.78253 0.992,1.78253 0,0 0.20151,0.60443 1.085,0.60443 h 17.06553"
     id="path4161"
     style="stroke-width:0.992" />
  <path
     class="Rest"
     d="m 1058.0486,143.709 c -0.806,0 -1.395,0.589 -1.395,1.395 v 10.71048 c 0,0.79052 0.589,1.37957 1.395,1.37957 h 29.4656 c 0.7905,0 1.3794,-0.58905 1.3794,-1.37957 V 145.104 c 0,-0.806 -0.5889,-1.395 -1.3794,-1.395 h -29.4656"
     id="path4163"
     style="stroke-width:0.992" />
  <path
     class="Rest"
     d="m 2309.8786,143.709 c -0.806,0 -1.395,0.589 -1.395,1.395 v 10.71048 c 0,0.79052 0.589,1.37957 1.395,1.37957 h 29.4656 c 0.7905,0 1.3794,-0.58905 1.3794,-1.37957 V 145.104 c 0,-0.806 -0.5889,-1.395 -1.3794,-1.395 h -29.4656"
     id="path4165"
     style="stroke-width:0.992" />
  <path
     class="Rest"
     d="m 833.02864,143.709 c -0.806,0 -1.395,0.589 -1.395,1.395 v 10.71048 c 0,0.79052 0.589,1.37957 1.395,1.37957 h 29.46553 c 0.79052,0 1.37947,-0.58905 1.37947,-1.37957 V 145.104 c 0,-0.806 -0.58895,-1.395 -1.37947,-1.395 h -29.46553"
     id="path4167"
     style="stroke-width:0.992" />
  <path
     class="Rest"
     d="m 2534.8986,143.709 c -0.806,0 -1.395,0.589 -1.395,1.395 v 10.71048 c 0,0.79052 0.589,1.37957 1.395,1.37957 h 29.4656 c 0.7905,0 1.3794,-0.58905 1.3794,-1.37957 V 145.104 c 0,-0.806 -0.5889,-1.395 -1.3794,-1.395 h -29.4656"
     id="path4169"
     style="stroke-width:0.992" />
  <path
     class="Tempo"
     d="m 157.76964,58.415 c 0.593,-0.094 0.984,-0.188 1.375,-0.188 1,0 1.984,0.485 2.578,1.485 0.203,0.39 0.297,0.89 0.297,1.375 0,1 -0.5,1.984 -1.188,2.687 -2.766,2.969 -10.203,7.125 -14.156,8.203 -0.391,0.203 -0.797,0.203 -1.188,0.203 -1.187,0 -2.187,-0.5 -2.781,-1.39 -0.187,-0.391 -0.297,-0.891 -0.297,-1.375 0,-0.891 0.406,-1.781 1.188,-2.672 2.984,-3.172 10,-6.938 14.172,-8.328 m 7.015,-44.438 h -3.156 v 42.266 c -1.188,-0.594 -2.484,-0.984 -3.969,-1.188 -3.656,0 -6.437,0.5 -9.703,2.172 -5.141,2.782 -8.406,7.438 -8.406,11.297 0,4.156 3.359,6.422 7.219,6.922 3.671,0 6.437,-0.5 9.703,-2.281 5.047,-2.672 8.312,-7.125 8.312,-11.078 v -48.11"
     id="path4171" />
  <path
     class="Tempo"
     d="m 186.62864,51.93 h 30.234 v -6.906 h -30.234 v 6.906 m 0,12.36 h 30.234 v -6.906 h -30.234 v 6.906 m 74.109,-19.141 c 3.969,-1.5 7.094,-3.844 7.094,-8.578 0,-5.531 -5.234,-9.25 -13.031,-9.25 -9.297,0 -15.297,4.984 -15.297,12.781 0,4.75 2.219,8.219 6.969,10.75 -1.86,0.594 -2.641,0.828 -3.672,1.375 -3,1.563 -4.61,4.313 -4.61,7.797 0,6.485 5.813,10.625 14.938,10.625 9.656,0 16.203,-5.531 16.203,-13.75 0,-5.64 -2.766,-9.359 -8.594,-11.75 m -3.359,-1.265 c -2.516,-0.594 -4.375,-1.141 -5.516,-1.563 -2.75,-1.016 -4.562,-3.469 -4.562,-6.109 0,-3.313 2.765,-5.766 6.484,-5.766 4.016,0 6.547,2.641 6.547,6.844 0,2.703 -1.031,4.984 -2.953,6.594 m -7.672,8.578 c 2.453,0.672 5.453,1.562 6.953,2.047 3.781,1.312 5.219,2.937 5.219,6 0,4.078 -3.359,7.015 -8.094,7.015 -4.859,0 -7.797,-2.875 -7.797,-7.672 0,-3.187 1.016,-5.218 3.719,-7.39 m 38.078,-25.141 c -9,0 -15.594,9.188 -15.594,21.672 0,12.469 6.594,21.656 15.594,21.656 8.813,0 15.547,-9.187 15.547,-21.359 0,-7.078 -1.625,-12.297 -5.172,-16.75 -2.812,-3.406 -6.359,-5.219 -10.375,-5.219 m -0.062,3.125 c 1.797,0 3.25,1.078 3.906,3 0.781,1.984 1.25,8.281 1.25,15.719 0,6.187 -0.469,12.656 -1.016,14.703 -0.656,2.391 -2.093,3.656 -4.14,3.656 -1.86,0 -3.235,-1.015 -3.953,-3 -0.782,-1.984 -1.266,-8.344 -1.266,-15.531 0,-6.313 0.484,-12.844 1.016,-14.891 0.671,-2.39 2.109,-3.656 4.203,-3.656"
     id="path4173" />
  <path
     class="VoltaSegment"
     d="m 767.39364,16.987 h -1.93 c -3.46,2.594 -7.37,3.688 -13.92,3.797 v 3.078 h 2.31 c 4.9,0 4.96,0.11 4.9,4.625 v 19.516 c 0,3.406 0,3.578 -0.38,4.125 -0.5,0.609 -1.61,0.828 -4.58,0.828 h -1.75 v 2.969 h 21.94 v -2.969 h -1.77 c -2.9,0 -3.95,-0.219 -4.45,-0.828 -0.37,-0.547 -0.37,-0.766 -0.37,-4.125 V 16.987 m 19.23,29.422 c -2.86,0 -5.17,2.313 -5.17,5.172 0,2.797 2.31,5.172 5.12,5.172 2.91,0 5.22,-2.312 5.22,-5.172 0,-2.859 -2.31,-5.172 -5.17,-5.172"
     id="path4175" />
  <polyline
     class="VoltaSegment"
     fill="none"
     stroke="#000000"
     stroke-width="2.73"
     stroke-linejoin="miter"
     stroke-miterlimit="2"
     points="1041.52,570.718 1041.52,516.158 1509.31,516.158 1509.31,570.718"
     id="polyline4177"
     transform="translate(-305.41636,-514.793)" />
  <path
     class="VoltaSegment"
     d="m 1268.5636,41.3 -0.61,2.75 c -0.5,2.203 -0.83,2.906 -1.27,3.187 -0.55,0.391 -0.66,0.391 -4.12,0.438 h -10.61 c 1.92,-1.656 3.36,-2.688 5.5,-4.125 7.75,-5 9.34,-6.219 10.93,-8.25 1.88,-2.469 2.97,-5.391 2.97,-7.969 0,-5.89 -5.76,-10.344 -13.51,-10.344 -7.49,0 -13.27,4.844 -13.27,11.11 0,3.844 2.16,6.328 5.45,6.328 2.86,0 4.68,-1.813 4.68,-4.672 0,-2.375 -1.05,-3.75 -3.58,-4.953 -0.61,-0.281 -0.88,-0.609 -0.88,-1.047 0,-1.766 2.97,-3.625 5.72,-3.625 3.85,0 6.05,2.359 6.05,6.438 0,4.562 -1.77,7.796 -7.6,14.015 -6.15,6.547 -8.29,9.016 -11.04,12.985 v 2.578 c 1.42,-0.157 2.03,-0.219 2.86,-0.219 h 20.67 c 1.05,0 1.7,0.062 3.36,0.219 l 1.26,-14.844 h -2.96 m 13.4,5.109 c -2.86,0 -5.17,2.313 -5.17,5.172 0,2.797 2.31,5.172 5.12,5.172 2.91,0 5.22,-2.312 5.22,-5.172 0,-2.859 -2.31,-5.172 -5.17,-5.172"
     id="path4179" />
  <polyline
     class="VoltaSegment"
     fill="none"
     stroke="#000000"
     stroke-width="2.73"
     stroke-linejoin="miter"
     stroke-miterlimit="2"
     points="1533.86,570.718 1533.86,516.158 2003.23,516.158"
     id="polyline4181"
     transform="translate(-305.41636,-514.793)" />
  <path
     class="VoltaSegment"
     d="m 3060.2536,41.787 h -1.93 c -3.46,2.594 -7.37,3.688 -13.92,3.797 v 3.078 h 2.32 c 4.89,0 4.95,0.11 4.89,4.625 v 19.516 c 0,3.406 0,3.578 -0.38,4.125 -0.5,0.609 -1.61,0.828 -4.58,0.828 h -1.75 v 2.969 h 21.94 v -2.969 h -1.77 c -2.9,0 -3.95,-0.219 -4.45,-0.828 -0.37,-0.547 -0.37,-0.766 -0.37,-4.125 V 41.787 m 19.23,29.422 c -2.86,0 -5.17,2.313 -5.17,5.172 0,2.797 2.31,5.172 5.12,5.172 2.91,0 5.22,-2.312 5.22,-5.172 0,-2.859 -2.31,-5.172 -5.17,-5.172"
     id="path4183" />
  <polyline
     class="VoltaSegment"
     fill="none"
     stroke="#000000"
     stroke-width="2.73"
     stroke-linejoin="miter"
     stroke-miterlimit="2"
     points="3334.38,595.518 3334.38,540.958 3675.8,540.958 3675.8,595.518"
     id="polyline4185"
     transform="translate(-305.41636,-514.793)" />
  <path
     class="NoteDot"
     d="m 1431.8036,156.605 c 0,2.7745 2.1855,4.96 4.96,4.96 2.7745,0 4.96,-2.1855 4.96,-4.96 0,-2.7745 -2.1855,-4.96 -4.96,-4.96 -2.7745,0 -4.96,2.1855 -4.96,4.96"
     id="path4187"
     style="stroke-width:0.992" />
  <path
     class="NoteDot"
     d="m 468.35964,131.805 c 0,2.7745 2.18551,4.96 4.96,4.96 2.77451,0 4.96,-2.1855 4.96,-4.96 0,-2.7745 -2.18549,-4.96 -4.96,-4.96 -2.77449,0 -4.96,2.1855 -4.96,4.96"
     id="path4189"
     style="stroke-width:0.992" />
  <path
     class="NoteDot"
     d="m 1945.2036,131.805 c 0,2.7745 2.1855,4.96 4.96,4.96 2.7745,0 4.96,-2.1855 4.96,-4.96 0,-2.7745 -2.1855,-4.96 -4.96,-4.96 -2.7745,0 -4.96,2.1855 -4.96,4.96"
     id="path4191"
     style="stroke-width:0.992" />
  <path
     class="NoteDot"
     d="m 468.35964,181.405 c 0,2.7745 2.18551,4.96 4.96,4.96 2.77451,0 4.96,-2.1855 4.96,-4.96 0,-2.7745 -2.18549,-4.96 -4.96,-4.96 -2.77449,0 -4.96,2.1855 -4.96,4.96"
     id="path4193"
     style="stroke-width:0.992" />
  <path
     class="NoteDot"
     d="m 1945.2036,181.405 c 0,2.7745 2.1855,4.96 4.96,4.96 2.7745,0 4.96,-2.1855 4.96,-4.96 0,-2.7745 -2.1855,-4.96 -4.96,-4.96 -2.7745,0 -4.96,2.1855 -4.96,4.96"
     id="path4195"
     style="stroke-width:0.992" />
  <path
     class="NoteDot"
     d="m 3633.7536,156.605 c 0,2.7745 2.1855,4.96 4.96,4.96 2.7745,0 4.96,-2.1855 4.96,-4.96 0,-2.7745 -2.1855,-4.96 -4.96,-4.96 -2.7745,0 -4.96,2.1855 -4.96,4.96"
     id="path4197"
     style="stroke-width:0.992" />
  <path
     class="NoteDot"
     d="m 1431.8036,107.005 c 0,2.7745 2.1855,4.96 4.96,4.96 2.7745,0 4.96,-2.1855 4.96,-4.96 0,-2.7745 -2.1855,-4.96 -4.96,-4.96 -2.7745,0 -4.96,2.1855 -4.96,4.96"
     id="path4199"
     style="stroke-width:0.992" />
  <path
     class="NoteDot"
     d="m 3633.7536,342.605 c 0,2.7745 2.1855,4.96 4.96,4.96 2.7745,0 4.96,-2.1855 4.96,-4.96 0,-2.7745 -2.1855,-4.96 -4.96,-4.96 -2.7745,0 -4.96,2.1855 -4.96,4.96"
     id="path4201"
     style="stroke-width:0.992" />
  <path
     class="Bracket"
     d="m 3.3985167,299.205 c 6.4615805,-6.85505 19.0475803,-20.84565 19.0475803,-46.748 0,-32.7574 -14.0468748,-65.85175 -14.0468748,-86.304 0,-21.9694 12.5859998,-42.47775 13.3164198,-43.152 0,-0.3934 0,-0.3934 0,-0.73035 0,-0.3934 0,-0.7307 -0.337125,-1.06765 -0.393295,0 -1.12375,0 -1.460875,0.67425 -0.337125,0.3934 -19.77800025,19.778 -19.77800025,49.27635 0,31.63365 12.58600025,53.94 12.58600025,95.294 0,7.92235 -3.2588753,20.50835 -12.24887525,31.68975 -0.337125,0 -0.337125,0.67425 -0.337125,1.06765 -0.337125,0.33695 0,0.73035 0.337125,1.06765 8.98999995,11.12495 12.24887525,23.71095 12.24887525,31.6333 0,41.354 -12.58600025,63.6607 -12.58600025,95.294 0,29.16147 19.44087525,48.93949 19.77800025,49.27661 0.337125,0.73044 1.06758,1.06757 1.460875,0.73044 0.337125,-0.33712 0.67425,-0.73044 0.337125,-1.06756 0,0 0,-0.39331 0,-0.73044 -0.73042,-0.73046 -13.3164198,-21.23887 -13.3164198,-43.152 0,-20.50835 14.0468748,-53.60305 14.0468748,-86.304 0,-26.23965 -12.5859998,-39.9494 -19.0475803,-46.748"
     id="path4203"
     style="stroke-width:3.596" />
</svg>
