<?xml version="1.0" encoding="UTF-8" standalone="no"?>
<svg
   xmlns:dc="http://purl.org/dc/elements/1.1/"
   xmlns:cc="http://creativecommons.org/ns#"
   xmlns:rdf="http://www.w3.org/1999/02/22-rdf-syntax-ns#"
   xmlns:svg="http://www.w3.org/2000/svg"
   xmlns="http://www.w3.org/2000/svg"
   xmlns:sodipodi="http://sodipodi.sourceforge.net/DTD/sodipodi-0.dtd"
   xmlns:inkscape="http://www.inkscape.org/namespaces/inkscape"
   width="3659.6021"
   height="215.57401"
   viewBox="0 0 3659.6021 215.57401"
   version="1.2"
   id="svg1269"
   sodipodi:docname="Dossium Canto Uitvlucht Musica.svg"
   inkscape:version="1.0.2-2 (e86c870879, 2021-01-15)"
   inkscape:export-filename="C:\Users\slagt\Music\Dossia\Dossium Canto Uitvlucht\Dossium Canto Uitvlucht Musica.png"
   inkscape:export-xdpi="95"
   inkscape:export-ydpi="95">
  <metadata
     id="metadata1275">
    <rdf:RDF>
      <cc:Work
         rdf:about="">
        <dc:format>image/svg+xml</dc:format>
        <dc:type
           rdf:resource="http://purl.org/dc/dcmitype/StillImage" />
      </cc:Work>
    </rdf:RDF>
  </metadata>
  <defs
     id="defs1273" />
  <sodipodi:namedview
     pagecolor="#ffffff"
     bordercolor="#666666"
     borderopacity="1"
     objecttolerance="10"
     gridtolerance="10"
     guidetolerance="10"
     inkscape:pageopacity="0"
     inkscape:pageshadow="2"
     inkscape:window-width="1920"
     inkscape:window-height="991"
     id="namedview1271"
     showgrid="false"
     inkscape:zoom="0.25330292"
     inkscape:cx="1767.602"
     inkscape:cy="929.49945"
     inkscape:window-x="-9"
     inkscape:window-y="-9"
     inkscape:window-maximized="1"
     inkscape:current-layer="svg1269" />
  <title
     id="title1055">Dossium Canto Uitvlucht Musica</title>
  <desc
     id="desc1057">Generated by MuseScore Studio 4.4.4</desc>
  <polyline
     class="StaffLines"
     fill="none"
     stroke="#000000"
     stroke-width="2.73"
     stroke-linejoin="bevel"
     points="336.598,634.198 3996.2,634.198"
     id="polyline1059"
     transform="translate(-336.598,-559.10052)" />
  <polyline
     class="StaffLines"
     fill="none"
     stroke="#000000"
     stroke-width="2.73"
     stroke-linejoin="bevel"
     points="336.598,658.998 3996.2,658.998"
     id="polyline1061"
     transform="translate(-336.598,-559.10052)" />
  <polyline
     class="StaffLines"
     fill="none"
     stroke="#000000"
     stroke-width="2.73"
     stroke-linejoin="bevel"
     points="336.598,683.798 3996.2,683.798"
     id="polyline1063"
     transform="translate(-336.598,-559.10052)" />
  <polyline
     class="StaffLines"
     fill="none"
     stroke="#000000"
     stroke-width="2.73"
     stroke-linejoin="bevel"
     points="336.598,708.598 3996.2,708.598"
     id="polyline1065"
     transform="translate(-336.598,-559.10052)" />
  <polyline
     class="StaffLines"
     fill="none"
     stroke="#000000"
     stroke-width="2.73"
     stroke-linejoin="bevel"
     points="336.598,733.398 3996.2,733.398"
     id="polyline1067"
     transform="translate(-336.598,-559.10052)" />
  <polyline
     class="BarLine"
     fill="none"
     stroke="#000000"
     stroke-width="4.46"
     stroke-linejoin="bevel"
     points="2563.05,632.834 2563.05,734.762"
     id="polyline1077"
     transform="translate(-336.598,-559.10052)" />
  <polyline
     class="BarLine"
     fill="none"
     stroke="#000000"
     stroke-width="4.46"
     stroke-linejoin="bevel"
     points="829.888,632.834 829.888,734.762"
     id="polyline1079"
     transform="translate(-336.598,-559.10052)" />
  <polyline
     class="BarLine"
     fill="none"
     stroke="#000000"
     stroke-width="4.46"
     stroke-linejoin="bevel"
     points="3971.15,632.834 3971.15,734.762"
     id="polyline1081"
     transform="translate(-336.598,-559.10052)" />
  <polyline
     class="BarLine"
     fill="none"
     stroke="#000000"
     stroke-width="13.64"
     stroke-linejoin="bevel"
     points="3989.38,632.834 3989.38,734.762"
     id="polyline1083"
     transform="translate(-336.598,-559.10052)" />
  <polyline
     class="BarLine"
     fill="none"
     stroke="#000000"
     stroke-width="4.46"
     stroke-linejoin="bevel"
     points="1118.75,632.834 1118.75,734.762"
     id="polyline1085"
     transform="translate(-336.598,-559.10052)" />
  <polyline
     class="BarLine"
     fill="none"
     stroke="#000000"
     stroke-width="4.46"
     stroke-linejoin="bevel"
     points="3754.69,632.834 3754.69,734.762"
     id="polyline1087"
     transform="translate(-336.598,-559.10052)" />
  <polyline
     class="BarLine"
     fill="none"
     stroke="#000000"
     stroke-width="4.46"
     stroke-linejoin="bevel"
     points="2851.91,632.834 2851.91,734.762"
     id="polyline1089"
     transform="translate(-336.598,-559.10052)" />
  <polyline
     class="BarLine"
     fill="none"
     stroke="#000000"
     stroke-width="4.46"
     stroke-linejoin="bevel"
     points="1407.61,632.834 1407.61,734.762"
     id="polyline1091"
     transform="translate(-336.598,-559.10052)" />
  <polyline
     class="BarLine"
     fill="none"
     stroke="#000000"
     stroke-width="4.46"
     stroke-linejoin="bevel"
     points="1696.47,632.834 1696.47,734.762"
     id="polyline1093"
     transform="translate(-336.598,-559.10052)" />
  <polyline
     class="BarLine"
     fill="none"
     stroke="#000000"
     stroke-width="4.46"
     stroke-linejoin="bevel"
     points="3429.63,632.834 3429.63,734.762"
     id="polyline1095"
     transform="translate(-336.598,-559.10052)" />
  <polyline
     class="BarLine"
     fill="none"
     stroke="#000000"
     stroke-width="4.46"
     stroke-linejoin="bevel"
     points="2274.19,632.834 2274.19,734.762"
     id="polyline1097"
     transform="translate(-336.598,-559.10052)" />
  <polyline
     class="BarLine"
     fill="none"
     stroke="#000000"
     stroke-width="4.46"
     stroke-linejoin="bevel"
     points="1985.33,632.834 1985.33,734.762"
     id="polyline1099"
     transform="translate(-336.598,-559.10052)" />
  <polyline
     class="BarLine"
     fill="none"
     stroke="#000000"
     stroke-width="4.46"
     stroke-linejoin="bevel"
     points="3140.77,632.834 3140.77,734.762"
     id="polyline1101"
     transform="translate(-336.598,-559.10052)" />
  <polyline
     class="LedgerLine"
     fill="none"
     stroke="#000000"
     stroke-width="3.97"
     stroke-linejoin="bevel"
     points="3599.48,609.398 3648.07,609.398"
     id="polyline1103"
     transform="translate(-336.598,-559.10052)" />
  <polyline
     class="LedgerLine"
     fill="none"
     stroke="#000000"
     stroke-width="3.97"
     stroke-linejoin="bevel"
     points="2155.17,609.398 2203.77,609.398"
     id="polyline1105"
     transform="translate(-336.598,-559.10052)" />
  <polyline
     class="LedgerLine"
     fill="none"
     stroke="#000000"
     stroke-width="3.97"
     stroke-linejoin="bevel"
     points="3310.62,609.398 3359.21,609.398"
     id="polyline1107"
     transform="translate(-336.598,-559.10052)" />
  <polyline
     class="LedgerLine"
     fill="none"
     stroke="#000000"
     stroke-width="3.97"
     stroke-linejoin="bevel"
     points="2299.24,609.398 2347.83,609.398"
     id="polyline1109"
     transform="translate(-336.598,-559.10052)" />
  <polyline
     class="LedgerLine"
     fill="none"
     stroke="#000000"
     stroke-width="3.97"
     stroke-linejoin="bevel"
     points="3454.68,609.398 3503.27,609.398"
     id="polyline1111"
     transform="translate(-336.598,-559.10052)" />
  <polyline
     class="LedgerLine"
     fill="none"
     stroke="#000000"
     stroke-width="3.97"
     stroke-linejoin="bevel"
     points="3671.87,609.398 3720.47,609.398"
     id="polyline1113"
     transform="translate(-336.598,-559.10052)" />
  <polyline
     class="LedgerLine"
     fill="none"
     stroke="#000000"
     stroke-width="3.97"
     stroke-linejoin="bevel"
     points="3599.48,584.598 3648.07,584.598"
     id="polyline1115"
     transform="translate(-336.598,-559.10052)" />
  <polyline
     class="LedgerLine"
     fill="none"
     stroke="#000000"
     stroke-width="3.97"
     stroke-linejoin="bevel"
     points="3527.08,609.398 3575.67,609.398"
     id="polyline1117"
     transform="translate(-336.598,-559.10052)" />
  <polyline
     class="LedgerLine"
     fill="none"
     stroke="#000000"
     stroke-width="3.97"
     stroke-linejoin="bevel"
     points="1143.8,609.398 1192.39,609.398"
     id="polyline1119"
     transform="translate(-336.598,-559.10052)" />
  <polyline
     class="LedgerLine"
     fill="none"
     stroke="#000000"
     stroke-width="3.97"
     stroke-linejoin="bevel"
     points="999.734,609.398 1048.33,609.398"
     id="polyline1121"
     transform="translate(-336.598,-559.10052)" />
  <polyline
     class="Stem"
     fill="none"
     stroke="#000000"
     stroke-width="2.48"
     stroke-linejoin="bevel"
     points="3789.16,625.965 3789.16,708.598"
     id="polyline1123"
     transform="translate(-336.598,-559.10052)" />
  <polyline
     class="Stem"
     fill="none"
     stroke="#000000"
     stroke-width="2.48"
     stroke-linejoin="bevel"
     points="605.244,704.63 605.244,621.798"
     id="polyline1125"
     transform="translate(-336.598,-559.10052)" />
  <polyline
     class="Stem"
     fill="none"
     stroke="#000000"
     stroke-width="2.48"
     stroke-linejoin="bevel"
     points="647.899,687.965 647.899,758.198"
     id="polyline1127"
     transform="translate(-336.598,-559.10052)" />
  <polyline
     class="Stem"
     fill="none"
     stroke="#000000"
     stroke-width="2.48"
     stroke-linejoin="bevel"
     points="720.298,663.165 720.298,745.798"
     id="polyline1129"
     transform="translate(-336.598,-559.10052)" />
  <polyline
     class="Stem"
     fill="none"
     stroke="#000000"
     stroke-width="2.48"
     stroke-linejoin="bevel"
     points="864.36,663.165 864.36,745.798"
     id="polyline1131"
     transform="translate(-336.598,-559.10052)" />
  <polyline
     class="Stem"
     fill="none"
     stroke="#000000"
     stroke-width="2.48"
     stroke-linejoin="bevel"
     points="936.759,625.965 936.759,708.598"
     id="polyline1133"
     transform="translate(-336.598,-559.10052)" />
  <polyline
     class="Stem"
     fill="none"
     stroke="#000000"
     stroke-width="2.48"
     stroke-linejoin="bevel"
     points="1009.16,601.165 1009.16,683.798"
     id="polyline1135"
     transform="translate(-336.598,-559.10052)" />
  <polyline
     class="Stem"
     fill="none"
     stroke="#000000"
     stroke-width="2.48"
     stroke-linejoin="bevel"
     points="1153.22,601.165 1153.22,683.798"
     id="polyline1137"
     transform="translate(-336.598,-559.10052)" />
  <polyline
     class="Stem"
     fill="none"
     stroke="#000000"
     stroke-width="2.48"
     stroke-linejoin="bevel"
     points="1225.62,625.965 1225.62,708.598"
     id="polyline1139"
     transform="translate(-336.598,-559.10052)" />
  <polyline
     class="Stem"
     fill="none"
     stroke="#000000"
     stroke-width="2.48"
     stroke-linejoin="bevel"
     points="1298.02,663.165 1298.02,745.798"
     id="polyline1141"
     transform="translate(-336.598,-559.10052)" />
  <polyline
     class="Stem"
     fill="none"
     stroke="#000000"
     stroke-width="2.48"
     stroke-linejoin="bevel"
     points="1442.08,687.965 1442.08,758.198"
     id="polyline1143"
     transform="translate(-336.598,-559.10052)" />
  <polyline
     class="Stem"
     fill="none"
     stroke="#000000"
     stroke-width="2.48"
     stroke-linejoin="bevel"
     points="1544.22,704.63 1544.22,621.798"
     id="polyline1145"
     transform="translate(-336.598,-559.10052)" />
  <polyline
     class="Stem"
     fill="none"
     stroke="#000000"
     stroke-width="2.48"
     stroke-linejoin="bevel"
     points="1760.69,704.63 1760.69,621.798"
     id="polyline1147"
     transform="translate(-336.598,-559.10052)" />
  <polyline
     class="Stem"
     fill="none"
     stroke="#000000"
     stroke-width="2.48"
     stroke-linejoin="bevel"
     points="1803.34,687.965 1803.34,758.198"
     id="polyline1149"
     transform="translate(-336.598,-559.10052)" />
  <polyline
     class="Stem"
     fill="none"
     stroke="#000000"
     stroke-width="2.48"
     stroke-linejoin="bevel"
     points="1875.74,663.165 1875.74,745.798"
     id="polyline1151"
     transform="translate(-336.598,-559.10052)" />
  <polyline
     class="Stem"
     fill="none"
     stroke="#000000"
     stroke-width="2.48"
     stroke-linejoin="bevel"
     points="2019.8,663.165 2019.8,745.798"
     id="polyline1153"
     transform="translate(-336.598,-559.10052)" />
  <polyline
     class="Stem"
     fill="none"
     stroke="#000000"
     stroke-width="2.48"
     stroke-linejoin="bevel"
     points="2092.2,625.965 2092.2,708.598"
     id="polyline1155"
     transform="translate(-336.598,-559.10052)" />
  <polyline
     class="Stem"
     fill="none"
     stroke="#000000"
     stroke-width="2.48"
     stroke-linejoin="bevel"
     points="2164.6,601.165 2164.6,683.798"
     id="polyline1157"
     transform="translate(-336.598,-559.10052)" />
  <polyline
     class="Stem"
     fill="none"
     stroke="#000000"
     stroke-width="2.48"
     stroke-linejoin="bevel"
     points="3608.9,576.365 3608.9,683.798"
     id="polyline1159"
     transform="translate(-336.598,-559.10052)" />
  <polyline
     class="Stem"
     fill="none"
     stroke="#000000"
     stroke-width="2.48"
     stroke-linejoin="bevel"
     points="2308.66,601.165 2308.66,683.798"
     id="polyline1161"
     transform="translate(-336.598,-559.10052)" />
  <polyline
     class="Stem"
     fill="none"
     stroke="#000000"
     stroke-width="2.48"
     stroke-linejoin="bevel"
     points="2381.06,625.965 2381.06,708.598"
     id="polyline1163"
     transform="translate(-336.598,-559.10052)" />
  <polyline
     class="Stem"
     fill="none"
     stroke="#000000"
     stroke-width="2.48"
     stroke-linejoin="bevel"
     points="2453.46,663.165 2453.46,745.798"
     id="polyline1165"
     transform="translate(-336.598,-559.10052)" />
  <polyline
     class="Stem"
     fill="none"
     stroke="#000000"
     stroke-width="2.48"
     stroke-linejoin="bevel"
     points="2597.52,687.965 2597.52,758.198"
     id="polyline1167"
     transform="translate(-336.598,-559.10052)" />
  <polyline
     class="Stem"
     fill="none"
     stroke="#000000"
     stroke-width="2.48"
     stroke-linejoin="bevel"
     points="2699.66,704.63 2699.66,621.798"
     id="polyline1169"
     transform="translate(-336.598,-559.10052)" />
  <polyline
     class="Stem"
     fill="none"
     stroke="#000000"
     stroke-width="2.48"
     stroke-linejoin="bevel"
     points="2916.13,704.63 2916.13,621.798"
     id="polyline1171"
     transform="translate(-336.598,-559.10052)" />
  <polyline
     class="Stem"
     fill="none"
     stroke="#000000"
     stroke-width="2.48"
     stroke-linejoin="bevel"
     points="2958.78,687.965 2958.78,758.198"
     id="polyline1173"
     transform="translate(-336.598,-559.10052)" />
  <polyline
     class="Stem"
     fill="none"
     stroke="#000000"
     stroke-width="2.48"
     stroke-linejoin="bevel"
     points="3031.18,663.165 3031.18,745.798"
     id="polyline1175"
     transform="translate(-336.598,-559.10052)" />
  <polyline
     class="Stem"
     fill="none"
     stroke="#000000"
     stroke-width="2.48"
     stroke-linejoin="bevel"
     points="3175.24,663.165 3175.24,745.798"
     id="polyline1177"
     transform="translate(-336.598,-559.10052)" />
  <polyline
     class="Stem"
     fill="none"
     stroke="#000000"
     stroke-width="2.48"
     stroke-linejoin="bevel"
     points="3247.64,625.965 3247.64,708.598"
     id="polyline1179"
     transform="translate(-336.598,-559.10052)" />
  <polyline
     class="Stem"
     fill="none"
     stroke="#000000"
     stroke-width="2.48"
     stroke-linejoin="bevel"
     points="3320.04,601.165 3320.04,683.798"
     id="polyline1181"
     transform="translate(-336.598,-559.10052)" />
  <polyline
     class="Stem"
     fill="none"
     stroke="#000000"
     stroke-width="2.48"
     stroke-linejoin="bevel"
     points="3464.1,625.965 3464.1,708.598"
     id="polyline1183"
     transform="translate(-336.598,-559.10052)" />
  <polyline
     class="Stem"
     fill="none"
     stroke="#000000"
     stroke-width="2.48"
     stroke-linejoin="bevel"
     points="3536.5,601.165 3536.5,683.798"
     id="polyline1185"
     transform="translate(-336.598,-559.10052)" />
  <polyline
     class="Stem"
     fill="none"
     stroke="#000000"
     stroke-width="2.48"
     stroke-linejoin="bevel"
     points="3681.3,601.165 3681.3,683.798"
     id="polyline1187"
     transform="translate(-336.598,-559.10052)" />
  <path
     class="Note"
     d="m 403.58652,86.8 c -9.62547,0 -21.12652,8.044475 -21.12652,17.26698 0,4.2625 3.069,9.02102 11.11348,9.02102 10.30757,0 21.12652,-8.43202 21.12652,-17.158525 C 414.7,90.070475 409.74,86.8 403.58652,86.8 M 389.9,108.42248 c -3.2705,0 -3.968,-2.666 -3.968,-3.565 0,-4.867005 16.66252,-13.392005 21.328,-13.392005 2.38705,0 3.968,1.395 3.968,3.565 0,4.96 -16.77095,13.392005 -21.328,13.392005"
     id="path1189"
     style="stroke-width:0.992" />
  <path
     class="Note"
     d="m 2353.2085,136.4 c -9.6255,0 -21.1265,8.04448 -21.1265,17.26698 0,4.2625 3.069,9.02102 11.1135,9.02102 10.3075,0 21.1265,-8.43202 21.1265,-17.15852 0,-5.859 -4.96,-9.12948 -11.1135,-9.12948 m -13.6865,21.62248 c -3.2705,0 -3.968,-2.666 -3.968,-3.565 0,-4.867 16.6625,-13.392 21.328,-13.392 2.387,0 3.968,1.395 3.968,3.565 0,4.96 -16.771,13.392 -21.328,13.392"
     id="path1191"
     style="stroke-width:0.992" />
  <path
     class="Note"
     d="m 3472.4485,49.6 c -9.6255,0 -21.1265,8.044475 -21.1265,17.26698 0,4.262495 3.069,9.02102 11.1135,9.02102 10.3075,0 21.1265,-8.43202 21.1265,-17.158525 0,-5.859 -4.96,-9.129475 -11.1135,-9.129475 m -13.6865,21.622475 c -3.2705,0 -3.968,-2.666 -3.968,-3.565 0,-4.867 16.6625,-13.392 21.328,-13.392 2.387,0 3.968,1.395 3.968,3.565 0,4.96 -16.771,13.392 -21.328,13.392"
     id="path1193"
     style="stroke-width:0.992" />
  <path
     class="Note"
     d="m 1197.7685,136.4 c -9.6255,0 -21.1265,8.04448 -21.1265,17.26698 0,4.2625 3.069,9.02102 11.1135,9.02102 10.3075,0 21.1265,-8.43202 21.1265,-17.15852 0,-5.859 -4.96,-9.12948 -11.1135,-9.12948 m -13.6865,21.62248 c -3.2705,0 -3.968,-2.666 -3.968,-3.565 0,-4.867 16.6625,-13.392 21.328,-13.392 2.387,0 3.968,1.395 3.968,3.565 0,4.96 -16.771,13.392 -21.328,13.392"
     id="path1195"
     style="stroke-width:0.992" />
  <path
     class="Note"
     d="m 1681.962,104.06698 c 0,4.2625 3.069,9.02102 11.1135,9.02102 10.3075,0 21.1265,-8.43202 21.1265,-17.158525 0,-5.859 -4.96,-9.129475 -11.1135,-9.129475 -9.6255,0 -21.1265,8.137475 -21.1265,17.26698"
     id="path1197"
     style="stroke-width:0.992" />
  <path
     class="Note"
     d="m 2548.542,153.66698 c 0,4.2625 3.069,9.02102 11.1135,9.02102 10.3075,0 21.1265,-8.43202 21.1265,-17.15852 0,-5.859 -4.96,-9.12948 -11.1135,-9.12948 -9.6255,0 -21.1265,8.13748 -21.1265,17.26698"
     id="path1199"
     style="stroke-width:0.992" />
  <path
     class="Note"
     d="m 2043.222,66.86698 c 0,4.262495 3.069,9.02102 11.1135,9.02102 10.3075,0 21.1265,-8.43202 21.1265,-17.158525 0,-5.859 -4.96,-9.129475 -11.1135,-9.129475 -9.6255,0 -21.1265,8.137475 -21.1265,17.26698"
     id="path1201"
     style="stroke-width:0.992" />
  <path
     class="Note"
     d="m 2620.942,128.86698 c 0,4.2625 3.069,9.02102 11.1135,9.02102 10.3075,0 21.1265,-8.43202 21.1265,-17.15852 0,-5.859 -4.96,-9.12948 -11.1135,-9.12948 -9.6255,0 -21.1265,8.13748 -21.1265,17.26698"
     id="path1203"
     style="stroke-width:0.992" />
  <path
     class="Note"
     d="m 1754.362,66.86698 c 0,4.262495 3.069,9.02102 11.1135,9.02102 10.3075,0 21.1265,-8.43202 21.1265,-17.158525 0,-5.859 -4.96,-9.129475 -11.1135,-9.129475 -9.6255,0 -21.1265,8.137475 -21.1265,17.26698"
     id="path1205"
     style="stroke-width:0.992" />
  <path
     class="Note"
     d="m 2714.4685,86.8 c -9.6255,0 -21.1265,8.044475 -21.1265,17.26698 0,4.2625 3.069,9.02102 11.1135,9.02102 10.3075,0 21.1265,-8.43202 21.1265,-17.158525 0,-5.859 -4.96,-9.129475 -11.1135,-9.129475 m -13.6865,21.62248 c -3.2705,0 -3.968,-2.666 -3.968,-3.565 0,-4.867005 16.6625,-13.392005 21.328,-13.392005 2.387,0 3.968,1.395 3.968,3.565 0,4.96 -16.771,13.392005 -21.328,13.392005"
     id="path1207"
     style="stroke-width:0.992" />
  <path
     class="Note"
     d="m 1104.242,128.86698 c 0,4.2625 3.069,9.02102 11.1135,9.02102 10.3075,0 21.1265,-8.43202 21.1265,-17.15852 0,-5.859 -4.96,-9.12948 -11.1135,-9.12948 -9.6255,0 -21.1265,8.13748 -21.1265,17.26698"
     id="path1209"
     style="stroke-width:0.992" />
  <path
     class="Note"
     d="m 981.30852,86.8 c -9.62547,0 -21.12652,8.044475 -21.12652,17.26698 0,4.2625 3.069,9.02102 11.11348,9.02102 10.30757,0 21.12652,-8.43202 21.12652,-17.158525 0,-5.859 -4.96,-9.129475 -11.11348,-9.129475 M 967.622,108.42248 c -3.2705,0 -3.968,-2.666 -3.968,-3.565 0,-4.867005 16.66252,-13.392005 21.328,-13.392005 2.38705,0 3.968,1.395 3.968,3.565 0,4.96 -16.77095,13.392005 -21.328,13.392005"
     id="path1211"
     style="stroke-width:0.992" />
  <path
     class="Note"
     d="m 2136.7485,86.8 c -9.6255,0 -21.1265,8.044475 -21.1265,17.26698 0,4.2625 3.069,9.02102 11.1135,9.02102 10.3075,0 21.1265,-8.43202 21.1265,-17.158525 0,-5.859 -4.96,-9.129475 -11.1135,-9.129475 m -13.6865,21.62248 c -3.2705,0 -3.968,-2.666 -3.968,-3.565 0,-4.867005 16.6625,-13.392005 21.328,-13.392005 2.387,0 3.968,1.395 3.968,3.565 0,4.96 -16.771,13.392005 -21.328,13.392005"
     id="path1213"
     style="stroke-width:0.992" />
  <path
     class="Note"
     d="m 2837.402,104.06698 c 0,4.2625 3.069,9.02102 11.1135,9.02102 10.3075,0 21.1265,-8.43202 21.1265,-17.158525 0,-5.859 -4.96,-9.129475 -11.1135,-9.129475 -9.6255,0 -21.1265,8.137475 -21.1265,17.26698"
     id="path1215"
     style="stroke-width:0.992" />
  <path
     class="Note"
     d="m 1465.502,128.86698 c 0,4.2625 3.069,9.02102 11.1135,9.02102 10.3075,0 21.1265,-8.43202 21.1265,-17.15852 0,-5.859 -4.96,-9.12948 -11.1135,-9.12948 -9.6255,0 -21.1265,8.13748 -21.1265,17.26698"
     id="path1217"
     style="stroke-width:0.992" />
  <path
     class="Note"
     d="m 2909.802,66.86698 c 0,4.262495 3.069,9.02102 11.1135,9.02102 10.3075,0 21.1265,-8.43202 21.1265,-17.158525 0,-5.859 -4.96,-9.129475 -11.1135,-9.129475 -9.6255,0 -21.1265,8.137475 -21.1265,17.26698"
     id="path1219"
     style="stroke-width:0.992" />
  <path
     class="Note"
     d="m 1393.102,153.66698 c 0,4.2625 3.069,9.02102 11.1135,9.02102 10.3075,0 21.1265,-8.43202 21.1265,-17.15852 0,-5.859 -4.96,-9.12948 -11.1135,-9.12948 -9.6255,0 -21.1265,8.13748 -21.1265,17.26698"
     id="path1221"
     style="stroke-width:0.992" />
  <path
     class="Note"
     d="m 887.782,66.86698 c 0,4.262495 3.069,9.02102 11.11348,9.02102 10.30757,0 21.12652,-8.43202 21.12652,-17.158525 0,-5.859 -4.96,-9.129475 -11.11348,-9.129475 -9.62547,0 -21.12652,8.137475 -21.12652,17.26698"
     id="path1223"
     style="stroke-width:0.992" />
  <path
     class="Note"
     d="m 3003.3285,24.8 c -9.6255,0 -21.1265,8.044475 -21.1265,17.26698 0,4.262495 3.069,9.02102 11.1135,9.02102 10.3075,0 21.1265,-8.43202 21.1265,-17.158525 0,-5.859 -4.96,-9.129475 -11.1135,-9.129475 m -13.6865,21.622475 c -3.2705,0 -3.968,-2.666 -3.968,-3.565 0,-4.867 16.6625,-13.392 21.328,-13.392 2.387,0 3.968,1.395 3.968,3.565 0,4.96 -16.771,13.392 -21.328,13.392"
     id="path1225"
     style="stroke-width:0.992" />
  <path
     class="Note"
     d="m 815.382,42.06698 c 0,4.262495 3.069,9.02102 11.11348,9.02102 10.30757,0 21.12652,-8.43202 21.12652,-17.158525 0,-5.859 -4.96,-9.129475 -11.11348,-9.129475 -9.62547,0 -21.12652,8.137475 -21.12652,17.26698"
     id="path1227"
     style="stroke-width:0.992" />
  <path
     class="Note"
     d="m 1559.0285,86.8 c -9.6255,0 -21.1265,8.044475 -21.1265,17.26698 0,4.2625 3.069,9.02102 11.1135,9.02102 10.3075,0 21.1265,-8.43202 21.1265,-17.158525 0,-5.859 -4.96,-9.129475 -11.1135,-9.129475 m -13.6865,21.62248 c -3.2705,0 -3.968,-2.666 -3.968,-3.565 0,-4.867005 16.6625,-13.392005 21.328,-13.392005 2.387,0 3.968,1.395 3.968,3.565 0,4.96 -16.771,13.392005 -21.328,13.392005"
     id="path1229"
     style="stroke-width:0.992" />
  <path
     class="Note"
     d="m 692.44852,24.8 c -9.62547,0 -21.12652,8.044475 -21.12652,17.26698 0,4.262495 3.069,9.02102 11.11348,9.02102 10.30757,0 21.12652,-8.43202 21.12652,-17.158525 0,-5.859 -4.96,-9.129475 -11.11348,-9.129475 M 678.762,46.422475 c -3.2705,0 -3.968,-2.666 -3.968,-3.565 0,-4.867 16.66252,-13.392 21.328,-13.392 2.38705,0 3.968,1.395 3.968,3.565 0,4.96 -16.77095,13.392 -21.328,13.392"
     id="path1231"
     style="stroke-width:0.992" />
  <path
     class="Note"
     d="m 3126.262,66.86698 c 0,4.262495 3.069,9.02102 11.1135,9.02102 10.3075,0 21.1265,-8.43202 21.1265,-17.158525 0,-5.859 -4.96,-9.129475 -11.1135,-9.129475 -9.6255,0 -21.1265,8.137475 -21.1265,17.26698"
     id="path1233"
     style="stroke-width:0.992" />
  <path
     class="Note"
     d="m 2259.682,128.86698 c 0,4.2625 3.069,9.02102 11.1135,9.02102 10.3075,0 21.1265,-8.43202 21.1265,-17.15852 0,-5.859 -4.96,-9.12948 -11.1135,-9.12948 -9.6255,0 -21.1265,8.13748 -21.1265,17.26698"
     id="path1235"
     style="stroke-width:0.992" />
  <path
     class="Note"
     d="m 598.921,66.86698 c 0,4.262495 3.069,9.02102 11.11348,9.02102 10.30757,0 21.12652,-8.43202 21.12652,-17.158525 0,-5.859 -4.96,-9.129475 -11.11348,-9.129475 -9.62547,0 -21.12652,8.137475 -21.12652,17.26698"
     id="path1237"
     style="stroke-width:0.992" />
  <path
     class="Note"
     d="m 3198.662,42.06698 c 0,4.262495 3.069,9.02102 11.1135,9.02102 10.3075,0 21.1265,-8.43202 21.1265,-17.158525 0,-5.859 -4.96,-9.129475 -11.1135,-9.129475 -9.6255,0 -21.1265,8.137475 -21.1265,17.26698"
     id="path1239"
     style="stroke-width:0.992" />
  <path
     class="Note"
     d="m 1847.8885,24.8 c -9.6255,0 -21.1265,8.044475 -21.1265,17.26698 0,4.262495 3.069,9.02102 11.1135,9.02102 10.3075,0 21.1265,-8.43202 21.1265,-17.158525 0,-5.859 -4.96,-9.129475 -11.1135,-9.129475 m -13.6865,21.622475 c -3.2705,0 -3.968,-2.666 -3.968,-3.565 0,-4.867 16.6625,-13.392 21.328,-13.392 2.387,0 3.968,1.395 3.968,3.565 0,4.96 -16.771,13.392 -21.328,13.392"
     id="path1241"
     style="stroke-width:0.992" />
  <path
     class="Note"
     d="m 526.522,104.06698 c 0,4.2625 3.069,9.02102 11.11348,9.02102 10.30757,0 21.12652,-8.43202 21.12652,-17.158525 0,-5.859 -4.96,-9.129475 -11.11348,-9.129475 -9.62547,0 -21.12652,8.137475 -21.12652,17.26698"
     id="path1243"
     style="stroke-width:0.992" />
  <path
     class="Note"
     d="m 310.061,128.86698 c 0,4.2625 3.069,9.02102 11.11348,9.02102 10.30757,0 21.12652,-8.43202 21.12652,-17.15852 0,-5.859 -4.96,-9.12948 -11.11348,-9.12948 -9.62547,0 -21.12652,8.13748 -21.12652,17.26698"
     id="path1245"
     style="stroke-width:0.992" />
  <path
     class="Note"
     d="m 3271.062,17.26698 c 0,4.262495 3.069,9.02102 11.1135,9.02102 10.3075,0 21.1265,-8.43202 21.1265,-17.1585248 C 3303.302,3.2704752 3298.342,0 3292.1885,0 3282.563,0 3271.062,8.1374752 3271.062,17.26698"
     id="path1247"
     style="stroke-width:0.992" />
  <path
     class="Note"
     d="m 1970.822,42.06698 c 0,4.262495 3.069,9.02102 11.1135,9.02102 10.3075,0 21.1265,-8.43202 21.1265,-17.158525 0,-5.859 -4.96,-9.129475 -11.1135,-9.129475 -9.6255,0 -21.1265,8.137475 -21.1265,17.26698"
     id="path1249"
     style="stroke-width:0.992" />
  <path
     class="Note"
     d="m 237.662,153.66698 c 0,4.2625 3.069,9.02102 11.11348,9.02102 10.30757,0 21.12652,-8.43202 21.12652,-17.15852 0,-5.859 -4.96,-9.12948 -11.11348,-9.12948 -9.62547,0 -21.12652,8.13748 -21.12652,17.26698"
     id="path1251"
     style="stroke-width:0.992" />
  <path
     class="Note"
     d="m 3343.462,42.06698 c 0,4.262495 3.069,9.02102 11.1135,9.02102 10.3075,0 21.1265,-8.43202 21.1265,-17.158525 0,-5.859 -4.96,-9.129475 -11.1135,-9.129475 -9.6255,0 -21.1265,8.137475 -21.1265,17.26698"
     id="path1253"
     style="stroke-width:0.992" />
  <path
     class="Clef"
     d="m 30.798525,200.384 c 0,6.55652 4.96,15.19 18.352,15.19 4.665475,0 8.742,-1.19348 12.30695,-3.37905 C 66.820525,208.42852 68.2,201.872 68.2,195.62548 c 0,-3.85948 -0.58895,-8.32348 -1.58095,-13.98096 -0.294525,-1.984 -0.89905,-4.96 -1.488,-8.83504 9.718425,-3.17748 16.95695,-13.29896 16.95695,-23.5135 0,-14.97303 -10.617475,-25.0945 -25.094525,-25.0945 -0.992,-5.952 -1.984,-11.81105 -2.774425,-17.36 10.416,-11.02053 17.654425,-23.42053 17.654425,-39.184005 0,-9.036525 -2.774425,-16.368 -4.37095,-19.948128 -2.371475,-5.053248 -5.254525,-8.525248 -7.03705,-8.525248 -0.697475,0 -3.766425,1.193376 -7.03695,5.053248 -6.35505,7.548128 -8.137475,20.242653 -8.137475,28.566128 0,5.362951 0.496,10.23 2.185475,21.343475 -0.108525,0.09305 -5.27,5.347476 -7.34705,7.03705 C 31.09305,109.52295 18.6,121.61295 18.6,141.46848 c 0,18.53804 16.166525,33.12352 34.62705,33.12352 2.867475,0 5.54895,-0.29452 7.827475,-0.69748 1.89095,9.53243 3.084525,16.47643 3.084525,21.73096 0,10.32304 -5.36305,15.77904 -15.376,15.77904 -2.38705,0 -4.464,-0.496 -4.665575,-0.496 -0.09295,-0.10852 -0.294425,-0.20157 -0.294425,-0.29452 0,-0.20148 0.201475,-0.31 0.496,-0.31 4.665475,-0.79052 9.315475,-4.75852 9.315475,-11.098 0,-5.36305 -4.06105,-11.02052 -11.50105,-11.02052 -6.944,0 -11.31495,5.65747 -11.31495,12.19852 M 51.537475,67.952 c 0.89905,-3.968 5.456,-14.384 10.617575,-14.384 1.488,0 3.859475,4.758426 3.859475,11.702426 0,10.323049 -7.626,18.057574 -14.47705,24.8 -0.58895,-3.968 -1.08495,-7.827476 -1.08495,-11.996951 0,-3.673475 0.294525,-7.052525 1.08495,-10.121475 M 60.264,169.92652 c -1.984,0.40296 -3.859475,0.60443 -5.750525,0.60443 -14.182425,0 -26.28797,-9.92 -26.28797,-24.90847 0,-12.09005 8.52502,-22.909 17.26702,-30.45753 1.674,-1.488 3.270525,-2.86747 4.758525,-4.35547 0.883475,5.34747 1.58095,10.01295 2.278425,14.08947 -9.036425,2.68148 -15.174425,12.19853 -15.174425,21.52953 0,6.944 5.456,16.461 13.392,16.461 0.790425,0 1.689475,-0.40296 1.689475,-1.28653 0,-0.89895 -0.992,-1.39495 -2.185475,-2.18547 -3.87505,-2.387 -6.060525,-4.96 -6.060525,-9.827 0,-6.045 4.572525,-10.91205 10.32295,-12.29153 L 60.264,169.92652 m 14.089475,-18.35204 c 0,7.0525 -2.88295,14.291 -9.92,17.17404 -2.07695,-11.90404 -4.758425,-27.68304 -5.456,-32.05409 8.928,0 15.376,6.06054 15.376,14.88005"
     id="path1255"
     style="stroke-width:0.992" />
  <path
     class="KeySig"
     d="m 112.577,109.32148 c -4.96,0 -7.843,3.06895 -8.339,3.67347 l 0.403,-31.852524 c 0,-0.790426 -0.589,-1.379476 -1.395,-1.379476 h -1.178 c -0.806,0 -1.395,0.58905 -1.395,1.379476 l 0.496,59.628524 c 0,0.79053 0.589,1.37957 1.395,1.37957 0.186,0 0.589,-0.093 0.7905,-0.186 8.52502,-4.278 17.45302,-12.40004 17.45302,-22.63004 0,-5.14605 -2.37147,-10.013 -8.23052,-10.013 m -8.6335,27.97747 0.2945,-19.34398 c 0.2015,-0.899 1.6895,-3.76654 5.6575,-3.76654 3.58055,0 3.87498,3.36354 3.87498,5.45605 0,8.8195 -3.27048,12.493 -9.82698,17.65447"
     id="path1257"
     style="stroke-width:0.992" />
  <path
     class="TimeSig"
     d="m 164.85852,112.49895 v 7.33157 H 156.628 c -0.69748,0 -1.39495,0.60443 -1.39495,1.39496 v 1.89104 c 0,0.79043 0.69747,1.37948 1.39495,1.37948 h 30.05452 c 0.806,0 1.39496,-0.58905 1.39496,-1.37948 v -1.89104 c 0,-0.79053 -0.58896,-1.39496 -1.39496,-1.39496 h -8.81947 v -7.33157 h 8.81947 c 0.806,0 1.39496,-0.69747 1.39496,-1.488 v -1.89097 c 0,-0.6975 -0.58896,-1.3795 -1.39496,-1.3795 h -8.81947 V 91.961475 c 0,-0.589 -0.29453,-1.085 -0.79053,-1.286505 l -1.19347,-0.604495 c -0.20157,-0.093 -0.496,-0.186049 -0.69757,-0.186049 -0.29443,0.09305 -0.69748,0.186049 -0.89896,0.387544 l -9.02104,8.230505 c -0.29443,0.31 -0.40296,0.6975 -0.40296,1.1005 v 8.137505 H 153.4505 c 0,0 11.02055,-11.904005 22.72298,-27.590054 0.40304,-0.496 0.496,-0.992 0.496,-1.379476 0,-0.496 -0.20148,-0.89895 -0.29443,-0.992 l -2.18557,-2.185475 c -0.20148,-0.201475 -0.58896,-0.403049 -0.992,-0.403049 -0.58896,0 -13.99643,0 -14.67843,0 -0.806,0 -1.302,0.604524 -1.39505,1.193574 0,0 -0.496,7.34695 -3.069,15.37597 -2.5885,8.044505 -5.5645,13.00451 -8.1375,16.66251 0,0 -0.2945,0.496 -0.2945,1.1005 0,0.2015 0,0.38754 0.093,0.58902 0.403,0.69748 0.992,1.78252 0.992,1.78252 0,0 0.2015,0.60443 1.085,0.60443 h 17.06552"
     id="path1259"
     style="stroke-width:0.992" />
  <path
     class="TimeSig"
     d="m 164.85852,162.09895 v 7.33157 H 156.628 c -0.69748,0 -1.39495,0.60443 -1.39495,1.39496 v 1.89104 c 0,0.79043 0.69747,1.37948 1.39495,1.37948 h 30.05452 c 0.806,0 1.39496,-0.58905 1.39496,-1.37948 v -1.89104 c 0,-0.79053 -0.58896,-1.39496 -1.39496,-1.39496 h -8.81947 v -7.33157 h 8.81947 c 0.806,0 1.39496,-0.69747 1.39496,-1.488 v -1.89097 c 0,-0.6975 -0.58896,-1.3795 -1.39496,-1.3795 h -8.81947 v -15.779 c 0,-0.589 -0.29453,-1.085 -0.79053,-1.28651 l -1.19347,-0.60449 c -0.20157,-0.093 -0.496,-0.18605 -0.69757,-0.18605 -0.29443,0.0931 -0.69748,0.18605 -0.89896,0.38754 l -9.02104,8.23051 c -0.29443,0.31 -0.40296,0.6975 -0.40296,1.1005 v 8.1375 H 153.4505 c 0,0 11.02055,-11.904 22.72298,-27.59005 0.40304,-0.496 0.496,-0.992 0.496,-1.37948 0,-0.496 -0.20148,-0.89895 -0.29443,-0.992 l -2.18557,-2.18547 c -0.20148,-0.20148 -0.58896,-0.40305 -0.992,-0.40305 -0.58896,0 -13.99643,0 -14.67843,0 -0.806,0 -1.302,0.60452 -1.39505,1.19357 0,0 -0.496,7.34695 -3.069,15.37597 -2.5885,8.04451 -5.5645,13.00451 -8.1375,16.66251 0,0 -0.2945,0.496 -0.2945,1.1005 0,0.2015 0,0.38754 0.093,0.58902 0.403,0.69748 0.992,1.78252 0.992,1.78252 0,0 0.2015,0.60443 1.085,0.60443 h 17.06552"
     id="path1261"
     style="stroke-width:0.992" />
  <path
     class="Rest"
     d="m 2463.498,141.15852 c -0.093,-0.093 -0.2945,-0.29452 -0.589,-0.682 l -11.408,-14.08954 c -0.1085,-0.1085 -0.2015,-0.403 -0.2015,-0.6045 0,-0.2945 0.093,-0.682 0.2015,-0.8835 l 10.106,-15.28298 c 0.1085,-0.20157 0.2015,-0.496 0.2015,-0.69757 v -0.88348 c 0,-0.29452 -0.093,-0.60452 -0.2945,-0.79052 l -16.0735,-21.730955 c 0,0 -0.3875,-0.604525 -0.992,-0.604525 -0.2945,0 -0.496,0 -0.7905,0.31 -0.403,0.294525 -0.496,0.682 -0.496,0.992 0,0.58905 0.2945,1.08505 0.2945,1.08505 l 7.5485,10.32295 c 0.186,0.294525 0.2945,0.682 0.2945,1.178 0,0.40305 -0.1085,0.89905 -0.2945,1.193476 l -10.0285,15.283054 c -0.093,0.20149 -0.2015,0.589 -0.2015,0.79049 v 0.899 c 0,0.29451 0.1085,0.589 0.31,0.79051 l 11.098,13.795 c -0.3875,-0.1085 -1.2865,-0.31 -2.48,-0.31 -5.053,0 -9.021,4.16952 -9.021,9.23804 0,1.37948 0.2945,2.77443 1.085,3.85948 2.0925,3.17748 9.5325,12.60148 9.5325,12.60148 0,0 0.496,0.60452 1.1935,0.60452 0.186,0 0.3875,0 0.589,-0.20148 0.496,-0.40304 0.6975,-0.79052 0.6975,-1.19357 0,-0.40295 -0.2015,-0.69747 -0.2945,-0.89895 -0.31,-0.496 -3.472,-6.24652 -3.472,-6.24652 0,0 -0.6975,-1.39496 -0.6975,-3.17748 0,-3.17748 2.3715,-5.75052 5.549,-5.75052 1.2865,0 2.387,0.40304 3.1775,0.89904 l 3.875,2.48 c 0,0 0.3875,0.186 0.7905,0.186 0.3875,0 0.6975,-0.093 0.992,-0.496 0.2015,-0.29452 0.2945,-0.58904 0.2945,-0.88357 0,-0.29443 -0.093,-0.496 -0.2945,-0.79043 l -0.2015,-0.31"
     id="path1263"
     style="stroke-width:0.992" />
  <path
     class="Rest"
     d="m 1308.058,141.15852 c -0.093,-0.093 -0.2945,-0.29452 -0.589,-0.682 l -11.408,-14.08954 c -0.1085,-0.1085 -0.2015,-0.403 -0.2015,-0.6045 0,-0.2945 0.093,-0.682 0.2015,-0.8835 l 10.106,-15.28298 c 0.1085,-0.20157 0.2015,-0.496 0.2015,-0.69757 v -0.88348 c 0,-0.29452 -0.093,-0.60452 -0.2945,-0.79052 l -16.0735,-21.730955 c 0,0 -0.3875,-0.604525 -0.992,-0.604525 -0.2945,0 -0.496,0 -0.7905,0.31 -0.403,0.294525 -0.496,0.682 -0.496,0.992 0,0.58905 0.2945,1.08505 0.2945,1.08505 l 7.5485,10.32295 c 0.186,0.294525 0.2945,0.682 0.2945,1.178 0,0.40305 -0.1085,0.89905 -0.2945,1.193476 l -10.0285,15.283054 c -0.093,0.20149 -0.2015,0.589 -0.2015,0.79049 v 0.899 c 0,0.29451 0.1085,0.589 0.31,0.79051 l 11.098,13.795 c -0.3875,-0.1085 -1.2865,-0.31 -2.48,-0.31 -5.053,0 -9.021,4.16952 -9.021,9.23804 0,1.37948 0.2945,2.77443 1.085,3.85948 2.0925,3.17748 9.5325,12.60148 9.5325,12.60148 0,0 0.496,0.60452 1.1935,0.60452 0.186,0 0.3875,0 0.589,-0.20148 0.496,-0.40304 0.6975,-0.79052 0.6975,-1.19357 0,-0.40295 -0.2015,-0.69747 -0.2945,-0.89895 -0.31,-0.496 -3.472,-6.24652 -3.472,-6.24652 0,0 -0.6975,-1.39496 -0.6975,-3.17748 0,-3.17748 2.3715,-5.75052 5.549,-5.75052 1.2865,0 2.387,0.40304 3.1775,0.89904 l 3.875,2.48 c 0,0 0.3875,0.186 0.7905,0.186 0.3875,0 0.6975,-0.093 0.992,-0.496 0.2015,-0.29452 0.2945,-0.58904 0.2945,-0.88357 0,-0.29443 -0.093,-0.496 -0.2945,-0.79043 l -0.2015,-0.31"
     id="path1265"
     style="stroke-width:0.992" />
  <path
     class="Rest"
     d="m 3582.738,141.15852 c -0.093,-0.093 -0.2945,-0.29452 -0.589,-0.682 l -11.408,-14.08954 c -0.1085,-0.1085 -0.2015,-0.403 -0.2015,-0.6045 0,-0.2945 0.093,-0.682 0.2015,-0.8835 l 10.106,-15.28298 c 0.1085,-0.20157 0.2015,-0.496 0.2015,-0.69757 v -0.88348 c 0,-0.29452 -0.093,-0.60452 -0.2945,-0.79052 l -16.0735,-21.730955 c 0,0 -0.3875,-0.604525 -0.992,-0.604525 -0.2945,0 -0.496,0 -0.7905,0.31 -0.403,0.294525 -0.496,0.682 -0.496,0.992 0,0.58905 0.2945,1.08505 0.2945,1.08505 l 7.5485,10.32295 c 0.186,0.294525 0.2945,0.682 0.2945,1.178 0,0.40305 -0.1085,0.89905 -0.2945,1.193476 l -10.0285,15.283054 c -0.093,0.20149 -0.2015,0.589 -0.2015,0.79049 v 0.899 c 0,0.29451 0.1085,0.589 0.31,0.79051 l 11.098,13.795 c -0.3875,-0.1085 -1.2865,-0.31 -2.48,-0.31 -5.053,0 -9.021,4.16952 -9.021,9.23804 0,1.37948 0.2945,2.77443 1.085,3.85948 2.0925,3.17748 9.5325,12.60148 9.5325,12.60148 0,0 0.496,0.60452 1.1935,0.60452 0.186,0 0.3875,0 0.589,-0.20148 0.496,-0.40304 0.6975,-0.79052 0.6975,-1.19357 0,-0.40295 -0.2015,-0.69747 -0.2945,-0.89895 -0.31,-0.496 -3.472,-6.24652 -3.472,-6.24652 0,0 -0.6975,-1.39496 -0.6975,-3.17748 0,-3.17748 2.3715,-5.75052 5.549,-5.75052 1.2865,0 2.387,0.40304 3.1775,0.89904 l 3.875,2.48 c 0,0 0.3875,0.186 0.7905,0.186 0.3875,0 0.6975,-0.093 0.992,-0.496 0.2015,-0.29452 0.2945,-0.58904 0.2945,-0.88357 0,-0.29443 -0.093,-0.496 -0.2945,-0.79043 l -0.2015,-0.31"
     id="path1267"
     style="stroke-width:0.992" />
</svg>
