<?xml version="1.0" encoding="UTF-8" standalone="no"?>
<svg
   xmlns:dc="http://purl.org/dc/elements/1.1/"
   xmlns:cc="http://creativecommons.org/ns#"
   xmlns:rdf="http://www.w3.org/1999/02/22-rdf-syntax-ns#"
   xmlns:svg="http://www.w3.org/2000/svg"
   xmlns="http://www.w3.org/2000/svg"
   xmlns:sodipodi="http://sodipodi.sourceforge.net/DTD/sodipodi-0.dtd"
   xmlns:inkscape="http://www.inkscape.org/namespaces/inkscape"
   width="3783.6021"
   height="194.092"
   viewBox="0 0 3783.6021 194.092"
   version="1.2"
   id="svg1665"
   sodipodi:docname="Canto Klooster.svg"
   inkscape:version="1.0.2-2 (e86c870879, 2021-01-15)"
   inkscape:export-filename="C:\Users\slagt\Music\Strofe\Strofa Klooster\Canto Klooster.png"
   inkscape:export-xdpi="95"
   inkscape:export-ydpi="95">
  <metadata
     id="metadata1671">
    <rdf:RDF>
      <cc:Work
         rdf:about="">
        <dc:format>image/svg+xml</dc:format>
        <dc:type
           rdf:resource="http://purl.org/dc/dcmitype/StillImage" />
      </cc:Work>
    </rdf:RDF>
  </metadata>
  <defs
     id="defs1669" />
  <sodipodi:namedview
     pagecolor="#ffffff"
     bordercolor="#666666"
     borderopacity="1"
     objecttolerance="10"
     gridtolerance="10"
     guidetolerance="10"
     inkscape:pageopacity="0"
     inkscape:pageshadow="2"
     inkscape:window-width="1920"
     inkscape:window-height="991"
     id="namedview1667"
     showgrid="false"
     inkscape:zoom="0.25330292"
     inkscape:cx="1891.602"
     inkscape:cy="879.89947"
     inkscape:window-x="-9"
     inkscape:window-y="-9"
     inkscape:window-maximized="1"
     inkscape:current-layer="svg1665" />
  <title
     id="title1253">Canto Klooster</title>
  <desc
     id="desc1255">Generated by MuseScore Studio 4.4.4</desc>
  <polyline
     class="StaffLines"
     fill="none"
     stroke="#000000"
     stroke-width="2.73"
     stroke-linejoin="bevel"
     points="212.598,646.598 3996.2,646.598"
     id="polyline1257"
     transform="translate(-212.598,-608.70051)" />
  <polyline
     class="StaffLines"
     fill="none"
     stroke="#000000"
     stroke-width="2.73"
     stroke-linejoin="bevel"
     points="212.598,671.398 3996.2,671.398"
     id="polyline1259"
     transform="translate(-212.598,-608.70051)" />
  <polyline
     class="StaffLines"
     fill="none"
     stroke="#000000"
     stroke-width="2.73"
     stroke-linejoin="bevel"
     points="212.598,696.198 3996.2,696.198"
     id="polyline1261"
     transform="translate(-212.598,-608.70051)" />
  <polyline
     class="StaffLines"
     fill="none"
     stroke="#000000"
     stroke-width="2.73"
     stroke-linejoin="bevel"
     points="212.598,720.998 3996.2,720.998"
     id="polyline1263"
     transform="translate(-212.598,-608.70051)" />
  <polyline
     class="StaffLines"
     fill="none"
     stroke="#000000"
     stroke-width="2.73"
     stroke-linejoin="bevel"
     points="212.598,745.798 3996.2,745.798"
     id="polyline1265"
     transform="translate(-212.598,-608.70051)" />
  <polyline
     class="BarLine"
     fill="none"
     stroke="#000000"
     stroke-width="4.46"
     stroke-linejoin="bevel"
     points="1007.38,645.234 1007.38,747.162"
     id="polyline1275"
     transform="translate(-212.598,-608.70051)" />
  <polyline
     class="BarLine"
     fill="none"
     stroke="#000000"
     stroke-width="4.46"
     stroke-linejoin="bevel"
     points="2797.53,645.234 2797.53,747.162"
     id="polyline1277"
     transform="translate(-212.598,-608.70051)" />
  <polyline
     class="BarLine"
     fill="none"
     stroke="#000000"
     stroke-width="4.46"
     stroke-linejoin="bevel"
     points="1908.83,645.234 1908.83,747.162"
     id="polyline1279"
     transform="translate(-212.598,-608.70051)" />
  <polyline
     class="BarLine"
     fill="none"
     stroke="#000000"
     stroke-width="4.46"
     stroke-linejoin="bevel"
     points="3677.75,645.234 3677.75,747.162"
     id="polyline1281"
     transform="translate(-212.598,-608.70051)" />
  <polyline
     class="BarLine"
     fill="none"
     stroke="#000000"
     stroke-width="4.46"
     stroke-linejoin="bevel"
     points="1606.93,645.234 1606.93,747.162"
     id="polyline1283"
     transform="translate(-212.598,-608.70051)" />
  <polyline
     class="BarLine"
     fill="none"
     stroke="#000000"
     stroke-width="4.46"
     stroke-linejoin="bevel"
     points="3384.34,645.234 3384.34,747.162"
     id="polyline1285"
     transform="translate(-212.598,-608.70051)" />
  <polyline
     class="BarLine"
     fill="none"
     stroke="#000000"
     stroke-width="4.46"
     stroke-linejoin="bevel"
     points="1309.28,645.234 1309.28,747.162"
     id="polyline1287"
     transform="translate(-212.598,-608.70051)" />
  <polyline
     class="BarLine"
     fill="none"
     stroke="#000000"
     stroke-width="4.46"
     stroke-linejoin="bevel"
     points="713.979,645.234 713.979,747.162"
     id="polyline1289"
     transform="translate(-212.598,-608.70051)" />
  <polyline
     class="BarLine"
     fill="none"
     stroke="#000000"
     stroke-width="4.46"
     stroke-linejoin="bevel"
     points="2202.23,645.234 2202.23,747.162"
     id="polyline1291"
     transform="translate(-212.598,-608.70051)" />
  <polyline
     class="BarLine"
     fill="none"
     stroke="#000000"
     stroke-width="4.46"
     stroke-linejoin="bevel"
     points="3090.94,645.234 3090.94,747.162"
     id="polyline1293"
     transform="translate(-212.598,-608.70051)" />
  <polyline
     class="BarLine"
     fill="none"
     stroke="#000000"
     stroke-width="4.46"
     stroke-linejoin="bevel"
     points="2504.13,645.234 2504.13,747.162"
     id="polyline1295"
     transform="translate(-212.598,-608.70051)" />
  <polyline
     class="BarLine"
     fill="none"
     stroke="#000000"
     stroke-width="4.46"
     stroke-linejoin="bevel"
     points="3971.15,645.234 3971.15,747.162"
     id="polyline1297"
     transform="translate(-212.598,-608.70051)" />
  <polyline
     class="BarLine"
     fill="none"
     stroke="#000000"
     stroke-width="13.64"
     stroke-linejoin="bevel"
     points="3989.38,645.234 3989.38,747.162"
     id="polyline1299"
     transform="translate(-212.598,-608.70051)" />
  <polyline
     class="LedgerLine"
     fill="none"
     stroke="#000000"
     stroke-width="3.97"
     stroke-linejoin="bevel"
     points="3702.79,621.798 3751.39,621.798"
     id="polyline1301"
     transform="translate(-212.598,-608.70051)" />
  <polyline
     class="LedgerLine"
     fill="none"
     stroke="#000000"
     stroke-width="3.97"
     stroke-linejoin="bevel"
     points="3115.98,621.798 3164.58,621.798"
     id="polyline1303"
     transform="translate(-212.598,-608.70051)" />
  <polyline
     class="Stem"
     fill="none"
     stroke="#000000"
     stroke-width="2.48"
     stroke-linejoin="bevel"
     points="1671.15,717.03 1671.15,621.798"
     id="polyline1305"
     transform="translate(-212.598,-608.70051)" />
  <polyline
     class="Stem"
     fill="none"
     stroke="#000000"
     stroke-width="2.48"
     stroke-linejoin="bevel"
     points="2664.28,675.565 2664.28,801.499"
     id="polyline1307"
     transform="translate(-212.598,-608.70051)" />
  <polyline
     class="Stem"
     fill="none"
     stroke="#000000"
     stroke-width="2.48"
     stroke-linejoin="bevel"
     points="2727.11,650.765 2727.11,770.599"
     id="polyline1309"
     transform="translate(-212.598,-608.70051)" />
  <polyline
     class="Stem"
     fill="none"
     stroke="#000000"
     stroke-width="2.48"
     stroke-linejoin="bevel"
     points="2832,650.765 2832,770.599"
     id="polyline1311"
     transform="translate(-212.598,-608.70051)" />
  <polyline
     class="Stem"
     fill="none"
     stroke="#000000"
     stroke-width="2.48"
     stroke-linejoin="bevel"
     points="446.556,700.365 446.556,770.599"
     id="polyline1313"
     transform="translate(-212.598,-608.70051)" />
  <polyline
     class="Stem"
     fill="none"
     stroke="#000000"
     stroke-width="2.48"
     stroke-linejoin="bevel"
     points="1733.99,741.83 1733.99,634.397"
     id="polyline1315"
     transform="translate(-212.598,-608.70051)" />
  <polyline
     class="Stem"
     fill="none"
     stroke="#000000"
     stroke-width="2.48"
     stroke-linejoin="bevel"
     points="2894.84,663.165 2894.84,789.099"
     id="polyline1317"
     transform="translate(-212.598,-608.70051)" />
  <polyline
     class="Stem"
     fill="none"
     stroke="#000000"
     stroke-width="2.48"
     stroke-linejoin="bevel"
     points="539.139,717.03 539.139,634.397"
     id="polyline1319"
     transform="translate(-212.598,-608.70051)" />
  <polyline
     class="Stem"
     fill="none"
     stroke="#000000"
     stroke-width="2.48"
     stroke-linejoin="bevel"
     points="2957.68,675.565 2957.68,801.499"
     id="polyline1321"
     transform="translate(-212.598,-608.70051)" />
  <polyline
     class="Stem"
     fill="none"
     stroke="#000000"
     stroke-width="2.48"
     stroke-linejoin="bevel"
     points="3020.52,650.765 3020.52,770.599"
     id="polyline1323"
     transform="translate(-212.598,-608.70051)" />
  <polyline
     class="Stem"
     fill="none"
     stroke="#000000"
     stroke-width="2.48"
     stroke-linejoin="bevel"
     points="606.223,704.63 606.223,628.197"
     id="polyline1325"
     transform="translate(-212.598,-608.70051)" />
  <polyline
     class="Stem"
     fill="none"
     stroke="#000000"
     stroke-width="2.48"
     stroke-linejoin="bevel"
     points="1801.07,729.43 1801.07,628.197"
     id="polyline1327"
     transform="translate(-212.598,-608.70051)" />
  <polyline
     class="Stem"
     fill="none"
     stroke="#000000"
     stroke-width="2.48"
     stroke-linejoin="bevel"
     points="643.563,700.365 643.563,770.599"
     id="polyline1329"
     transform="translate(-212.598,-608.70051)" />
  <polyline
     class="Stem"
     fill="none"
     stroke="#000000"
     stroke-width="2.48"
     stroke-linejoin="bevel"
     points="3125.41,625.965 3125.41,733.398"
     id="polyline1331"
     transform="translate(-212.598,-608.70051)" />
  <polyline
     class="Stem"
     fill="none"
     stroke="#000000"
     stroke-width="2.48"
     stroke-linejoin="bevel"
     points="748.451,675.565 748.451,758.199"
     id="polyline1333"
     transform="translate(-212.598,-608.70051)" />
  <polyline
     class="Stem"
     fill="none"
     stroke="#000000"
     stroke-width="2.48"
     stroke-linejoin="bevel"
     points="3188.25,638.365 3188.25,745.699"
     id="polyline1335"
     transform="translate(-212.598,-608.70051)" />
  <polyline
     class="Stem"
     fill="none"
     stroke="#000000"
     stroke-width="2.48"
     stroke-linejoin="bevel"
     points="1868.15,717.03 1868.15,621.798"
     id="polyline1337"
     transform="translate(-212.598,-608.70051)" />
  <polyline
     class="Stem"
     fill="none"
     stroke="#000000"
     stroke-width="2.48"
     stroke-linejoin="bevel"
     points="811.29,687.965 811.29,764.299"
     id="polyline1339"
     transform="translate(-212.598,-608.70051)" />
  <polyline
     class="Stem"
     fill="none"
     stroke="#000000"
     stroke-width="2.48"
     stroke-linejoin="bevel"
     points="3251.09,650.765 3251.09,758.099"
     id="polyline1341"
     transform="translate(-212.598,-608.70051)" />
  <polyline
     class="Stem"
     fill="none"
     stroke="#000000"
     stroke-width="2.48"
     stroke-linejoin="bevel"
     points="3313.92,675.565 3313.92,770.599"
     id="polyline1343"
     transform="translate(-212.598,-608.70051)" />
  <polyline
     class="Stem"
     fill="none"
     stroke="#000000"
     stroke-width="2.48"
     stroke-linejoin="bevel"
     points="874.129,700.365 874.129,776.699"
     id="polyline1345"
     transform="translate(-212.598,-608.70051)" />
  <polyline
     class="Stem"
     fill="none"
     stroke="#000000"
     stroke-width="2.48"
     stroke-linejoin="bevel"
     points="1943.3,650.765 1943.3,770.599"
     id="polyline1347"
     transform="translate(-212.598,-608.70051)" />
  <polyline
     class="Stem"
     fill="none"
     stroke="#000000"
     stroke-width="2.48"
     stroke-linejoin="bevel"
     points="936.967,675.565 936.967,758.199"
     id="polyline1349"
     transform="translate(-212.598,-608.70051)" />
  <polyline
     class="Stem"
     fill="none"
     stroke="#000000"
     stroke-width="2.48"
     stroke-linejoin="bevel"
     points="3418.81,650.765 3418.81,770.599"
     id="polyline1351"
     transform="translate(-212.598,-608.70051)" />
  <polyline
     class="Stem"
     fill="none"
     stroke="#000000"
     stroke-width="2.48"
     stroke-linejoin="bevel"
     points="1041.86,700.365 1041.86,770.599"
     id="polyline1353"
     transform="translate(-212.598,-608.70051)" />
  <polyline
     class="Stem"
     fill="none"
     stroke="#000000"
     stroke-width="2.48"
     stroke-linejoin="bevel"
     points="3481.65,663.165 3481.65,789.099"
     id="polyline1355"
     transform="translate(-212.598,-608.70051)" />
  <polyline
     class="Stem"
     fill="none"
     stroke="#000000"
     stroke-width="2.48"
     stroke-linejoin="bevel"
     points="3544.49,675.565 3544.49,801.499"
     id="polyline1357"
     transform="translate(-212.598,-608.70051)" />
  <polyline
     class="Stem"
     fill="none"
     stroke="#000000"
     stroke-width="2.48"
     stroke-linejoin="bevel"
     points="1134.44,717.03 1134.44,634.397"
     id="polyline1359"
     transform="translate(-212.598,-608.70051)" />
  <polyline
     class="Stem"
     fill="none"
     stroke="#000000"
     stroke-width="2.48"
     stroke-linejoin="bevel"
     points="2006.14,663.165 2006.14,789.099"
     id="polyline1361"
     transform="translate(-212.598,-608.70051)" />
  <polyline
     class="Stem"
     fill="none"
     stroke="#000000"
     stroke-width="2.48"
     stroke-linejoin="bevel"
     points="3712.22,625.965 3712.22,758.199"
     id="polyline1363"
     transform="translate(-212.598,-608.70051)" />
  <polyline
     class="Stem"
     fill="none"
     stroke="#000000"
     stroke-width="2.48"
     stroke-linejoin="bevel"
     points="1201.52,704.63 1201.52,628.197"
     id="polyline1365"
     transform="translate(-212.598,-608.70051)" />
  <polyline
     class="Stem"
     fill="none"
     stroke="#000000"
     stroke-width="2.48"
     stroke-linejoin="bevel"
     points="3775.06,638.365 3775.06,764.299"
     id="polyline1367"
     transform="translate(-212.598,-608.70051)" />
  <polyline
     class="Stem"
     fill="none"
     stroke="#000000"
     stroke-width="2.48"
     stroke-linejoin="bevel"
     points="1238.86,700.365 1238.86,770.599"
     id="polyline1369"
     transform="translate(-212.598,-608.70051)" />
  <polyline
     class="Stem"
     fill="none"
     stroke="#000000"
     stroke-width="2.48"
     stroke-linejoin="bevel"
     points="3837.89,650.765 3837.89,776.699"
     id="polyline1371"
     transform="translate(-212.598,-608.70051)" />
  <polyline
     class="Stem"
     fill="none"
     stroke="#000000"
     stroke-width="2.48"
     stroke-linejoin="bevel"
     points="1343.75,675.565 1343.75,770.599"
     id="polyline1373"
     transform="translate(-212.598,-608.70051)" />
  <polyline
     class="Stem"
     fill="none"
     stroke="#000000"
     stroke-width="2.48"
     stroke-linejoin="bevel"
     points="3900.73,675.565 3900.73,782.999"
     id="polyline1375"
     transform="translate(-212.598,-608.70051)" />
  <polyline
     class="Stem"
     fill="none"
     stroke="#000000"
     stroke-width="2.48"
     stroke-linejoin="bevel"
     points="2068.97,675.565 2068.97,801.499"
     id="polyline1377"
     transform="translate(-212.598,-608.70051)" />
  <polyline
     class="Stem"
     fill="none"
     stroke="#000000"
     stroke-width="2.48"
     stroke-linejoin="bevel"
     points="2131.81,650.765 2131.81,770.599"
     id="polyline1379"
     transform="translate(-212.598,-608.70051)" />
  <polyline
     class="Stem"
     fill="none"
     stroke="#000000"
     stroke-width="2.48"
     stroke-linejoin="bevel"
     points="1406.59,687.965 1406.59,789.099"
     id="polyline1381"
     transform="translate(-212.598,-608.70051)" />
  <polyline
     class="Stem"
     fill="none"
     stroke="#000000"
     stroke-width="2.48"
     stroke-linejoin="bevel"
     points="2266.45,717.03 2266.45,621.798"
     id="polyline1383"
     transform="translate(-212.598,-608.70051)" />
  <polyline
     class="Stem"
     fill="none"
     stroke="#000000"
     stroke-width="2.48"
     stroke-linejoin="bevel"
     points="2329.29,741.83 2329.29,634.397"
     id="polyline1385"
     transform="translate(-212.598,-608.70051)" />
  <polyline
     class="Stem"
     fill="none"
     stroke="#000000"
     stroke-width="2.48"
     stroke-linejoin="bevel"
     points="2396.37,729.43 2396.37,628.197"
     id="polyline1387"
     transform="translate(-212.598,-608.70051)" />
  <polyline
     class="Stem"
     fill="none"
     stroke="#000000"
     stroke-width="2.48"
     stroke-linejoin="bevel"
     points="1499.17,717.03 1499.17,615.797"
     id="polyline1389"
     transform="translate(-212.598,-608.70051)" />
  <polyline
     class="Stem"
     fill="none"
     stroke="#000000"
     stroke-width="2.48"
     stroke-linejoin="bevel"
     points="3607.33,650.765 3607.33,770.599"
     id="polyline1391"
     transform="translate(-212.598,-608.70051)" />
  <polyline
     class="Stem"
     fill="none"
     stroke="#000000"
     stroke-width="2.48"
     stroke-linejoin="bevel"
     points="2463.45,717.03 2463.45,621.798"
     id="polyline1393"
     transform="translate(-212.598,-608.70051)" />
  <polyline
     class="Stem"
     fill="none"
     stroke="#000000"
     stroke-width="2.48"
     stroke-linejoin="bevel"
     points="1536.51,675.565 1536.51,770.599"
     id="polyline1395"
     transform="translate(-212.598,-608.70051)" />
  <polyline
     class="Stem"
     fill="none"
     stroke="#000000"
     stroke-width="2.48"
     stroke-linejoin="bevel"
     points="2538.6,650.765 2538.6,770.599"
     id="polyline1397"
     transform="translate(-212.598,-608.70051)" />
  <polyline
     class="Stem"
     fill="none"
     stroke="#000000"
     stroke-width="2.48"
     stroke-linejoin="bevel"
     points="2601.44,663.165 2601.44,789.099"
     id="polyline1399"
     transform="translate(-212.598,-608.70051)" />
  <path
     class="Hook"
     d="m 1855.132,192.80549 c 0,0.682 0.589,1.28651 1.2865,1.28651 0.496,0 1.1005,-0.40301 1.1935,-0.79051 0,-0.1085 0.899,-3.58051 0.992,-3.875 0.093,-0.403 0.992,-4.16951 4.557,-10.01306 3.875,-6.44801 9.827,-11.11349 14.787,-18.0575 4.96,-6.944 7.8431,-13.50054 7.8431,-22.22697 0,-9.02106 -1.984,-16.56959 -7.3471,-26.19508 -0.2945,-0.69747 -0.8989,-1.08495 -1.488,-1.08495 -0.2015,0 -0.4029,0 -0.496,0.0929 -0.496,0.20148 -0.6975,0.60453 -0.6975,1.19348 0,0.29453 0.1086,0.69758 0.2946,1.19358 3.968,9.22243 5.5644,14.47696 5.5644,21.62244 0,8.23054 -2.883,12.50854 -4.6655,15.57759 -6.448,11.00496 -16.864,16.36802 -21.0335,17.76297 -0.6975,0.20148 -0.7905,0.79053 -0.7905,1.08505 v 22.4285"
     id="path1401"
     style="stroke-width:0.992001" />
  <path
     class="Hook"
     d="m 3267.812,180.40549 c 0,0.682 0.589,1.28651 1.2865,1.28651 0.496,0 1.1005,-0.40301 1.1935,-0.79051 0,-0.1085 0.899,-3.58051 0.992,-3.875 0.093,-0.403 0.992,-4.16951 4.557,-10.01306 3.875,-6.44801 9.827,-11.11349 14.787,-18.0575 4.96,-6.944 7.8431,-13.50054 7.8431,-22.22697 0,-9.02106 -1.984,-16.56959 -7.3471,-26.19508 -0.2945,-0.69747 -0.8989,-1.08495 -1.488,-1.08495 -0.2015,0 -0.4029,0 -0.496,0.093 -0.496,0.20148 -0.6975,0.60453 -0.6975,1.19348 0,0.29453 0.1086,0.69758 0.2946,1.19358 3.968,9.22243 5.5644,14.47696 5.5644,21.62244 0,8.23054 -2.883,12.50854 -4.6655,15.57759 -6.448,11.00496 -16.864,16.36802 -21.0335,17.76297 -0.6975,0.20148 -0.7905,0.79053 -0.7905,1.08505 v 22.4285"
     id="path1403"
     style="stroke-width:0.992001" />
  <path
     class="Hook"
     d="m 3037.252,149.40549 c 0,0.682 0.589,1.28651 1.2865,1.28651 0.496,0 1.1005,-0.40301 1.1935,-0.79051 0,-0.1085 0.899,-3.58051 0.992,-3.875 0.093,-0.403 0.992,-4.16951 4.557,-10.01306 3.875,-6.44801 9.827,-11.11349 14.787,-18.0575 4.96,-6.944 7.8431,-13.50054 7.8431,-22.22697 0,-9.02106 -1.984,-16.56959 -7.3471,-26.19508 -0.2945,-0.69747 -0.8989,-1.08495 -1.488,-1.08495 -0.2015,0 -0.4029,0 -0.496,0.093 -0.496,0.20148 -0.6975,0.60453 -0.6975,1.19348 0,0.29453 0.1086,0.69758 0.2946,1.19358 3.968,9.22243 5.5644,14.47696 5.5644,21.62244 0,8.23054 -2.883,12.50854 -4.6655,15.57759 -6.448,11.00496 -16.864,16.36802 -21.0335,17.76297 -0.6975,0.20148 -0.7905,0.79053 -0.7905,1.08505 v 22.4285"
     id="path1405"
     style="stroke-width:0.992001" />
  <path
     class="Hook"
     d="m 2387.602,180.40549 c 0,0.682 0.589,1.28651 1.2865,1.28651 0.496,0 1.1005,-0.40301 1.1935,-0.79051 0,-0.1085 0.899,-3.58051 0.992,-3.875 0.093,-0.403 0.992,-4.16951 4.557,-10.01306 3.875,-6.44801 9.827,-11.11349 14.787,-18.0575 4.96,-6.944 7.8431,-13.50054 7.8431,-22.22697 0,-9.02106 -1.984,-16.56959 -7.3471,-26.19508 -0.2945,-0.69747 -0.8989,-1.08495 -1.488,-1.08495 -0.2015,0 -0.4029,0 -0.496,0.093 -0.496,0.20148 -0.6975,0.60453 -0.6975,1.19348 0,0.29453 0.1086,0.69758 0.2946,1.19358 3.968,9.22243 5.5644,14.47696 5.5644,21.62244 0,8.23054 -2.883,12.50854 -4.6655,15.57759 -6.448,11.00496 -16.864,16.36802 -21.0335,17.76297 -0.6975,0.20148 -0.7905,0.79053 -0.7905,1.08505 v 22.4285"
     id="path1407"
     style="stroke-width:0.992001" />
  <path
     class="Hook"
     d="m 1792.302,180.40549 c 0,0.682 0.589,1.28651 1.2865,1.28651 0.496,0 1.1005,-0.40301 1.1935,-0.79051 0,-0.1085 0.899,-3.58051 0.992,-3.875 0.093,-0.403 0.992,-4.16951 4.557,-10.01306 3.875,-6.44801 9.827,-11.11349 14.787,-18.0575 4.96,-6.944 7.8431,-13.50054 7.8431,-22.22697 0,-9.02106 -1.984,-16.56959 -7.3471,-26.19508 -0.2945,-0.69747 -0.8989,-1.08495 -1.488,-1.08495 -0.2015,0 -0.4029,0 -0.496,0.093 -0.496,0.20148 -0.6975,0.60453 -0.6975,1.19348 0,0.29453 0.1086,0.69758 0.2946,1.19358 3.968,9.22243 5.5644,14.47696 5.5644,21.62244 0,8.23054 -2.883,12.50854 -4.6655,15.57759 -6.448,11.00496 -16.864,16.36802 -21.0335,17.76297 -0.6975,0.20148 -0.7905,0.79053 -0.7905,1.08505 v 22.4285"
     id="path1409"
     style="stroke-width:0.992001" />
  <path
     class="Hook"
     d="m 325.301,48.01899 c 0,0.29452 0.093,0.88357 0.7905,1.08505 4.26251,1.39495 12.80299,6.75801 19.251,17.76297 1.78252,3.06905 4.66557,7.34705 4.66557,15.57759 0,7.14548 -1.798,14.47696 -4.464,21.62244 -0.20157,0.60453 -0.31,1.10053 -0.31,1.48801 0,0.69757 0.40295,0.992 1.10043,0.992 0.58905,0 1.08505,-0.38748 1.488,-1.08495 4.464,-7.93601 6.15358,-17.17402 6.15358,-26.19508 -0.496,-12.80296 -7.84306,-22.22697 -7.84306,-22.22697 0.29453,0 -9.12948,-12.19854 -11.81101,-16.36802 -3.658,-5.65753 -5.3475,-11.29954 -5.54901,-11.70254 -0.093,-0.29449 -0.992,-3.875 -0.992,-3.875 -0.093,-0.3875 -0.589,-0.79051 -1.19349,-0.79051 -0.69751,0 -1.28651,0.60451 -1.28651,1.28651 v 22.4285"
     id="path1411"
     style="stroke-width:0.992001" />
  <path
     class="Hook"
     d="m 2974.412,137.00449 c 0,0.682 0.589,1.28651 1.2865,1.28651 0.496,0 1.1005,-0.40301 1.1935,-0.79051 0,-0.1085 0.899,-3.58051 0.992,-3.875 0.093,-0.403 0.992,-4.16951 4.557,-10.01306 3.875,-6.44801 9.827,-11.11349 14.787,-18.0575 4.96,-6.944 7.8431,-13.50054 7.8431,-22.22697 0,-9.02106 -1.984,-16.56959 -7.3471,-26.19508 -0.2945,-0.69747 -0.8989,-1.08495 -1.488,-1.08495 -0.2015,0 -0.4029,0 -0.496,0.093 -0.496,0.20148 -0.6975,0.60453 -0.6975,1.19348 0,0.29453 0.1086,0.69758 0.2946,1.19358 3.968,9.22243 5.5644,14.47696 5.5644,21.62244 0,8.23054 -2.883,12.50854 -4.6655,15.57759 -6.448,11.00496 -16.864,16.36802 -21.0335,17.76297 -0.6975,0.20148 -0.7905,0.79053 -0.7905,1.08505 v 22.4285"
     id="path1413"
     style="stroke-width:0.992001" />
  <path
     class="Hook"
     d="m 392.385,41.81899 c 0,0.29452 0.093,0.88357 0.7905,1.08505 4.26251,1.39495 12.80299,6.75801 19.251,17.76297 1.78252,3.06905 4.66557,7.34705 4.66557,15.57759 0,7.14548 -1.798,14.47696 -4.464,21.62244 -0.20157,0.60453 -0.31,1.10053 -0.31,1.48801 0,0.69757 0.40295,0.992 1.10043,0.992 0.58905,0 1.08505,-0.38748 1.488,-1.08495 4.464,-7.93601 6.15358,-17.17402 6.15358,-26.19508 -0.496,-12.80296 -7.84306,-22.22697 -7.84306,-22.22697 0.29453,0 -9.12948,-12.19854 -11.81101,-16.36802 -3.658,-5.65753 -5.3475,-11.29954 -5.54901,-11.70254 -0.093,-0.29449 -0.992,-3.875 -0.992,-3.875 -0.093,-0.3875 -0.589,-0.79051 -1.19349,-0.79051 -0.69751,0 -1.28651,0.60451 -1.28651,1.28651 v 22.4285"
     id="path1415"
     style="stroke-width:0.992001" />
  <path
     class="Hook"
     d="m 2115.452,48.01899 c 0,0.29452 0.093,0.88357 0.7905,1.08505 4.2625,1.39495 12.803,6.75801 19.251,17.76297 1.7825,3.06905 4.6656,7.34705 4.6656,15.57759 0,7.14548 -1.798,14.47696 -4.464,21.62244 -0.2016,0.60453 -0.31,1.10053 -0.31,1.48801 0,0.69757 0.4029,0.992 1.1004,0.992 0.589,0 1.085,-0.38748 1.488,-1.08495 4.464,-7.93601 6.1536,-17.17402 6.1536,-26.19508 -0.496,-12.80296 -7.8431,-22.22697 -7.8431,-22.22697 0.2945,0 -9.1295,-12.19854 -11.811,-16.36802 -3.658,-5.65753 -5.3475,-11.29954 -5.549,-11.70254 -0.093,-0.29449 -0.992,-3.875 -0.992,-3.875 -0.093,-0.3875 -0.589,-0.79051 -1.1935,-0.79051 -0.6975,0 -1.2865,0.60451 -1.2865,1.28651 v 22.4285"
     id="path1417"
     style="stroke-width:0.992001" />
  <path
     class="Hook"
     d="m 2182.532,41.81899 c 0,0.29452 0.093,0.88357 0.7905,1.08505 4.2625,1.39495 12.803,6.75801 19.251,17.76297 1.7825,3.06905 4.6656,7.34705 4.6656,15.57759 0,7.14548 -1.798,14.47696 -4.464,21.62244 -0.2016,0.60453 -0.31,1.10053 -0.31,1.48801 0,0.69757 0.4029,0.992 1.1004,0.992 0.589,0 1.085,-0.38748 1.488,-1.08495 4.464,-7.93601 6.1536,-17.17402 6.1536,-26.19508 -0.496,-12.80296 -7.8431,-22.22697 -7.8431,-22.22697 0.2945,0 -9.1295,-12.19854 -11.811,-16.36802 -3.658,-5.65753 -5.3475,-11.29954 -5.549,-11.70254 -0.093,-0.29449 -0.992,-3.875 -0.992,-3.875 -0.093,-0.3875 -0.589,-0.79051 -1.1935,-0.79051 -0.6975,0 -1.2865,0.60451 -1.2865,1.28651 v 22.4285"
     id="path1419"
     style="stroke-width:0.992001" />
  <path
     class="Hook"
     d="m 1192.752,180.40549 c 0,0.682 0.589,1.28651 1.2865,1.28651 0.496,0 1.1005,-0.40301 1.1935,-0.79051 0,-0.1085 0.899,-3.58051 0.992,-3.875 0.093,-0.403 0.992,-4.16951 4.557,-10.01306 3.875,-6.44801 9.827,-11.11349 14.787,-18.0575 4.96,-6.944 7.8431,-13.50054 7.8431,-22.22697 0,-9.02106 -1.984,-16.56959 -7.3471,-26.19508 -0.2945,-0.69747 -0.8989,-1.08495 -1.488,-1.08495 -0.2015,0 -0.4029,0 -0.496,0.093 -0.496,0.20148 -0.6975,0.60453 -0.6975,1.19348 0,0.29453 0.1086,0.69758 0.2946,1.19358 3.968,9.22243 5.5644,14.47696 5.5644,21.62244 0,8.23054 -2.883,12.50854 -4.6655,15.57759 -6.448,11.00496 -16.864,16.36802 -21.0335,17.76297 -0.6975,0.20148 -0.7905,0.79053 -0.7905,1.08505 v 22.4285"
     id="path1421"
     style="stroke-width:0.992001" />
  <path
     class="Hook"
     d="m 597.452,155.60549 c 0,0.682 0.589,1.28651 1.28651,1.28651 0.496,0 1.10049,-0.40301 1.19349,-0.79051 0,-0.1085 0.899,-3.58051 0.992,-3.875 0.093,-0.403 0.992,-4.16951 4.55701,-10.01306 3.875,-6.44801 9.82701,-11.11349 14.78701,-18.0575 4.96001,-6.944 7.84306,-13.50054 7.84306,-22.22697 0,-9.02106 -1.984,-16.56959 -7.34706,-26.19508 -0.29452,-0.69747 -0.89895,-1.08495 -1.488,-1.08495 -0.20147,0 -0.40295,0 -0.496,0.093 -0.496,0.20148 -0.69747,0.60453 -0.69747,1.19348 0,0.29453 0.10852,0.69758 0.29452,1.19358 3.968,9.22243 5.56443,14.47696 5.56443,21.62244 0,8.23054 -2.88295,12.50854 -4.66548,15.57759 -6.448,11.00496 -16.86401,16.36802 -21.03352,17.76297 -0.6975,0.20148 -0.7905,0.79053 -0.7905,1.08505 v 22.4285"
     id="path1423"
     style="stroke-width:0.992001" />
  <path
     class="Hook"
     d="m 1520.152,48.01899 c 0,0.29452 0.093,0.88357 0.7905,1.08505 4.2625,1.39495 12.803,6.75801 19.251,17.76297 1.7825,3.06905 4.6656,7.34705 4.6656,15.57759 0,7.14548 -1.798,14.47696 -4.464,21.62244 -0.2016,0.60453 -0.31,1.10053 -0.31,1.48801 0,0.69757 0.4029,0.992 1.1004,0.992 0.589,0 1.085,-0.38748 1.488,-1.08495 4.464,-7.93601 6.1536,-17.17402 6.1536,-26.19508 -0.496,-12.80296 -7.8431,-22.22697 -7.8431,-22.22697 0.2945,0 -9.1295,-12.19854 -11.811,-16.36802 -3.658,-5.65753 -5.3475,-11.29954 -5.549,-11.70254 -0.093,-0.29449 -0.992,-3.875 -0.992,-3.875 -0.093,-0.3875 -0.589,-0.79051 -1.1935,-0.79051 -0.6975,0 -1.2865,0.60451 -1.2865,1.28651 v 22.4285"
     id="path1425"
     style="stroke-width:0.992001" />
  <path
     class="Hook"
     d="m 660.291,168.00549 c 0,0.682 0.589,1.28651 1.28651,1.28651 0.496,0 1.10049,-0.40301 1.19349,-0.79051 0,-0.1085 0.899,-3.58051 0.992,-3.875 0.093,-0.403 0.992,-4.16951 4.55701,-10.01306 3.875,-6.44801 9.82701,-11.11349 14.78701,-18.0575 4.96001,-6.944 7.84306,-13.50054 7.84306,-22.22697 0,-9.02106 -1.984,-16.56959 -7.34706,-26.19508 -0.29452,-0.69747 -0.89895,-1.08495 -1.488,-1.08495 -0.20147,0 -0.40295,0 -0.496,0.0929 -0.496,0.20148 -0.69747,0.60453 -0.69747,1.19348 0,0.29453 0.10852,0.69758 0.29452,1.19358 3.968,9.22243 5.56443,14.47696 5.56443,21.62244 0,8.23054 -2.88295,12.50854 -4.66548,15.57759 -6.448,11.00496 -16.86402,16.36802 -21.03352,17.76297 -0.6975,0.20148 -0.7905,0.79053 -0.7905,1.08505 v 22.4285"
     id="path1427"
     style="stroke-width:0.992001" />
  <path
     class="Hook"
     d="m 2743.842,192.80549 c 0,0.682 0.589,1.28651 1.2865,1.28651 0.496,0 1.1005,-0.40301 1.1935,-0.79051 0,-0.1085 0.899,-3.58051 0.992,-3.875 0.093,-0.403 0.992,-4.16951 4.557,-10.01306 3.875,-6.44801 9.827,-11.11349 14.787,-18.0575 4.96,-6.944 7.8431,-13.50054 7.8431,-22.22697 0,-9.02106 -1.984,-16.56959 -7.3471,-26.19508 -0.2945,-0.69747 -0.8989,-1.08495 -1.488,-1.08495 -0.2015,0 -0.4029,0 -0.496,0.0929 -0.496,0.20148 -0.6975,0.60453 -0.6975,1.19348 0,0.29453 0.1086,0.69758 0.2946,1.19358 3.968,9.22243 5.5644,14.47696 5.5644,21.62244 0,8.23054 -2.883,12.50854 -4.6655,15.57759 -6.448,11.00496 -16.864,16.36802 -21.0335,17.76297 -0.6975,0.20148 -0.7905,0.79053 -0.7905,1.08505 v 22.4285"
     id="path1429"
     style="stroke-width:0.992001" />
  <path
     class="Hook"
     d="m 1285.332,29.41899 c 0,0.29452 0.093,0.88357 0.7905,1.08505 4.2625,1.39495 12.803,6.75801 19.251,17.76297 1.7825,3.06905 4.6656,7.34705 4.6656,15.57759 0,7.14548 -1.798,14.47696 -4.464,21.62244 -0.2016,0.60453 -0.31,1.10053 -0.31,1.48801 0,0.69757 0.4029,0.992 1.1004,0.992 0.589,0 1.085,-0.38748 1.488,-1.08495 4.464,-7.93601 6.1536,-17.17402 6.1536,-26.19508 -0.496,-12.80296 -7.8431,-22.22697 -7.8431,-22.22697 0.2945,0 -9.1295,-12.19854 -11.811,-16.36802 -3.658,-5.65753 -5.3475,-11.29954 -5.549,-11.70254 -0.093,-0.29449 -0.992,-3.875 -0.992,-3.875 -0.093,-0.3875 -0.589,-0.79051 -1.1935,-0.79051 -0.6975,0 -1.2865,0.60451 -1.2865,1.28651 v 22.4285"
     id="path1431"
     style="stroke-width:0.992001" />
  <path
     class="Hook"
     d="m 2681.002,180.40549 c 0,0.682 0.589,1.28651 1.2865,1.28651 0.496,0 1.1005,-0.40301 1.1935,-0.79051 0,-0.1085 0.899,-3.58051 0.992,-3.875 0.093,-0.403 0.992,-4.16951 4.557,-10.01306 3.875,-6.44801 9.827,-11.11349 14.787,-18.0575 4.96,-6.944 7.8431,-13.50054 7.8431,-22.22697 0,-9.02106 -1.984,-16.56959 -7.3471,-26.19508 -0.2945,-0.69747 -0.8989,-1.08495 -1.488,-1.08495 -0.2015,0 -0.4029,0 -0.496,0.093 -0.496,0.20148 -0.6975,0.60453 -0.6975,1.19348 0,0.29453 0.1086,0.69758 0.2946,1.19358 3.968,9.22243 5.5644,14.47696 5.5644,21.62244 0,8.23054 -2.883,12.50854 -4.6655,15.57759 -6.448,11.00496 -16.864,16.36802 -21.0335,17.76297 -0.6975,0.20148 -0.7905,0.79053 -0.7905,1.08505 v 22.4285"
     id="path1433"
     style="stroke-width:0.992001" />
  <path
     class="Hook"
     d="m 920.602,48.01899 c 0,0.29452 0.093,0.88357 0.7905,1.08505 4.26251,1.39495 12.80299,6.75801 19.251,17.76297 1.78252,3.06905 4.66557,7.34705 4.66557,15.57759 0,7.14548 -1.798,14.47696 -4.464,21.62244 -0.20157,0.60453 -0.31,1.10053 -0.31,1.48801 0,0.69757 0.40295,0.992 1.10043,0.992 0.58905,0 1.08505,-0.38748 1.488,-1.08495 4.464,-7.93601 6.15358,-17.17402 6.15358,-26.19508 -0.496,-12.80296 -7.84306,-22.22697 -7.84306,-22.22697 0.29453,0 -9.12948,-12.19854 -11.81101,-16.36802 -3.658,-5.65753 -5.3475,-11.29954 -5.54901,-11.70254 -0.093,-0.29449 -0.992,-3.875 -0.992,-3.875 -0.093,-0.3875 -0.589,-0.79051 -1.19349,-0.79051 -0.69751,0 -1.28651,0.60451 -1.28651,1.28651 v 22.4285"
     id="path1435"
     style="stroke-width:0.992001" />
  <path
     class="Hook"
     d="m 1587.232,41.81899 c 0,0.29452 0.093,0.88357 0.7905,1.08505 4.2625,1.39495 12.803,6.75801 19.251,17.76297 1.7825,3.06905 4.6656,7.34705 4.6656,15.57759 0,7.14548 -1.798,14.47696 -4.464,21.62244 -0.2016,0.60453 -0.31,1.10053 -0.31,1.48801 0,0.69757 0.4029,0.992 1.1004,0.992 0.589,0 1.085,-0.38748 1.488,-1.08495 4.464,-7.93601 6.1536,-17.17402 6.1536,-26.19508 -0.496,-12.80296 -7.8431,-22.22697 -7.8431,-22.22697 0.2945,0 -9.1295,-12.19854 -11.811,-16.36802 -3.658,-5.65753 -5.3475,-11.29954 -5.549,-11.70254 -0.093,-0.29449 -0.992,-3.875 -0.992,-3.875 -0.093,-0.3875 -0.589,-0.79051 -1.1935,-0.79051 -0.6975,0 -1.2865,0.60451 -1.2865,1.28651 v 22.4285"
     id="path1437"
     style="stroke-width:0.992001" />
  <path
     class="Hook"
     d="m 987.682,41.81899 c 0,0.29452 0.093,0.88357 0.7905,1.08505 4.26251,1.39495 12.803,6.75801 19.251,17.76297 1.7825,3.06905 4.6656,7.34705 4.6656,15.57759 0,7.14548 -1.798,14.47696 -4.464,21.62244 -0.2016,0.60453 -0.31,1.10053 -0.31,1.48801 0,0.69757 0.4029,0.992 1.1004,0.992 0.589,0 1.085,-0.38748 1.488,-1.08495 4.464,-7.93601 6.1536,-17.17402 6.1536,-26.19508 -0.496,-12.80296 -7.8431,-22.22697 -7.8431,-22.22697 0.2945,0 -9.12946,-12.19854 -11.81099,-16.36802 -3.658,-5.65753 -5.3475,-11.29954 -5.54901,-11.70254 -0.093,-0.29449 -0.992,-3.875 -0.992,-3.875 -0.093,-0.3875 -0.589,-0.79051 -1.19349,-0.79051 -0.69751,0 -1.28651,0.60451 -1.28651,1.28651 v 22.4285"
     id="path1439"
     style="stroke-width:0.992001" />
  <path
     class="Hook"
     d="m 3330.652,192.80549 c 0,0.682 0.589,1.28651 1.2865,1.28651 0.496,0 1.1005,-0.40301 1.1935,-0.79051 0,-0.1085 0.899,-3.58051 0.992,-3.875 0.093,-0.403 0.992,-4.16951 4.557,-10.01306 3.875,-6.44801 9.827,-11.11349 14.787,-18.0575 4.96,-6.944 7.8431,-13.50054 7.8431,-22.22697 0,-9.02106 -1.984,-16.56959 -7.3471,-26.19508 -0.2945,-0.69747 -0.8989,-1.08495 -1.488,-1.08495 -0.2015,0 -0.4029,0 -0.496,0.0929 -0.496,0.20148 -0.6975,0.60453 -0.6975,1.19348 0,0.29453 0.1086,0.69758 0.2946,1.19358 3.968,9.22243 5.5644,14.47696 5.5644,21.62244 0,8.23054 -2.883,12.50854 -4.6655,15.57759 -6.448,11.00496 -16.864,16.36802 -21.0335,17.76297 -0.6975,0.20148 -0.7905,0.79053 -0.7905,1.08505 v 22.4285"
     id="path1441"
     style="stroke-width:0.992001" />
  <path
     class="Hook"
     d="m 2450.442,192.80549 c 0,0.682 0.589,1.28651 1.2865,1.28651 0.496,0 1.1005,-0.40301 1.1935,-0.79051 0,-0.1085 0.899,-3.58051 0.992,-3.875 0.093,-0.403 0.992,-4.16951 4.557,-10.01306 3.875,-6.44801 9.827,-11.11349 14.787,-18.0575 4.96,-6.944 7.8431,-13.50054 7.8431,-22.22697 0,-9.02106 -1.984,-16.56959 -7.3471,-26.19508 -0.2945,-0.69747 -0.8989,-1.08495 -1.488,-1.08495 -0.2015,0 -0.4029,0 -0.496,0.0929 -0.496,0.20148 -0.6975,0.60453 -0.6975,1.19348 0,0.29453 0.1086,0.69758 0.2946,1.19358 3.968,9.22243 5.5644,14.47696 5.5644,21.62244 0,8.23054 -2.883,12.50854 -4.6655,15.57759 -6.448,11.00496 -16.864,16.36802 -21.0335,17.76297 -0.6975,0.20148 -0.7905,0.79053 -0.7905,1.08505 v 22.4285"
     id="path1443"
     style="stroke-width:0.992001" />
  <path
     class="Hook"
     d="m 3561.222,155.60549 c 0,0.682 0.589,1.28651 1.2865,1.28651 0.496,0 1.1005,-0.40301 1.1935,-0.79051 0,-0.1085 0.899,-3.58051 0.992,-3.875 0.093,-0.403 0.992,-4.16951 4.557,-10.01306 3.875,-6.44801 9.827,-11.11349 14.787,-18.0575 4.96,-6.944 7.8431,-13.50054 7.8431,-22.22697 0,-9.02106 -1.984,-16.56959 -7.3471,-26.19508 -0.2945,-0.69747 -0.8989,-1.08495 -1.488,-1.08495 -0.2015,0 -0.4029,0 -0.496,0.093 -0.496,0.20148 -0.6975,0.60453 -0.6975,1.19348 0,0.29453 0.1086,0.69758 0.2946,1.19358 3.968,9.22243 5.5644,14.47696 5.5644,21.62244 0,8.23054 -2.883,12.50854 -4.6655,15.57759 -6.448,11.00496 -16.864,16.36802 -21.0335,17.76297 -0.6975,0.20148 -0.7905,0.79053 -0.7905,1.08505 v 22.4285"
     id="path1445"
     style="stroke-width:0.992001" />
  <path
     class="Hook"
     d="m 3624.052,168.00549 c 0,0.682 0.589,1.28651 1.2865,1.28651 0.496,0 1.1005,-0.40301 1.1935,-0.79051 0,-0.1085 0.899,-3.58051 0.992,-3.875 0.093,-0.403 0.992,-4.16951 4.557,-10.01306 3.875,-6.44801 9.827,-11.11349 14.787,-18.0575 4.96,-6.944 7.8431,-13.50054 7.8431,-22.22697 0,-9.02106 -1.984,-16.56959 -7.3471,-26.19508 -0.2945,-0.69747 -0.8989,-1.08495 -1.488,-1.08495 -0.2015,0 -0.4029,0 -0.496,0.0929 -0.496,0.20148 -0.6975,0.60453 -0.6975,1.19348 0,0.29453 0.1086,0.69758 0.2946,1.19358 3.968,9.22243 5.5644,14.47696 5.5644,21.62244 0,8.23054 -2.883,12.50854 -4.6655,15.57759 -6.448,11.00496 -16.864,16.36802 -21.0335,17.76297 -0.6975,0.20148 -0.7905,0.79053 -0.7905,1.08505 v 22.4285"
     id="path1447"
     style="stroke-width:0.992001" />
  <path
     class="Note"
     d="m 534.613,66.867 c 0,4.2625 3.069,9.02103 11.11349,9.02103 10.30758,0 21.12654,-8.43203 21.12654,-17.15854 0,-5.85901 -4.96,-9.12949 -11.11348,-9.12949 -9.62549,0 -21.12655,8.13749 -21.12655,17.267"
     id="path1449"
     style="stroke-width:0.992001" />
  <path
     class="Note"
     d="m 597.452,79.267 c 0,4.2625 3.069,9.02103 11.11349,9.02103 10.30758,0 21.12654,-8.43203 21.12654,-17.15854 0,-5.85901 -4.96,-9.12949 -11.11348,-9.12949 -9.62549,0 -21.12655,8.13748 -21.12655,17.267"
     id="path1451"
     style="stroke-width:0.992001" />
  <path
     class="Note"
     d="m 660.291,91.667 c 0,4.2625 3.069,9.02103 11.11349,9.02103 10.30758,0 21.12654,-8.43203 21.12654,-17.15854 0,-5.85901 -4.96,-9.12949 -11.11348,-9.12949 -9.62549,0 -21.12655,8.13748 -21.12655,17.267"
     id="path1453"
     style="stroke-width:0.992001" />
  <path
     class="Note"
     d="m 723.129,66.867 c 0,4.2625 3.069,9.02103 11.11349,9.02103 10.30758,0 21.12654,-8.43203 21.12654,-17.15854 0,-5.85901 -4.96,-9.12949 -11.11348,-9.12949 -9.62549,0 -21.12655,8.13749 -21.12655,17.267"
     id="path1455"
     style="stroke-width:0.992001" />
  <path
     class="Note"
     d="m 1427.562,116.467 c 0,4.2625 3.069,9.02103 11.1135,9.02103 10.3076,0 21.1265,-8.43203 21.1265,-17.15854 0,-5.85901 -4.96,-9.12949 -11.1135,-9.12949 -9.6254,0 -21.1265,8.13749 -21.1265,17.267"
     id="path1457"
     style="stroke-width:0.992001" />
  <path
     class="Note"
     d="m 890.852,116.467 c 0,4.2625 3.069,9.02103 11.11349,9.02103 10.30758,0 21.12654,-8.43203 21.12654,-17.15854 0,-5.85901 -4.96,-9.12949 -11.11348,-9.12949 -9.62549,0 -21.12655,8.13749 -21.12655,17.267"
     id="path1459"
     style="stroke-width:0.992001" />
  <path
     class="Note"
     d="m 957.942,104.067 c 0,4.2625 3.069,9.02103 11.11349,9.02103 10.30758,0 21.12654,-8.43203 21.12654,-17.15854 0,-5.85901 -4.96,-9.12949 -11.11348,-9.12949 -9.62549,0 -21.12655,8.13748 -21.12655,17.267"
     id="path1461"
     style="stroke-width:0.992001" />
  <path
     class="Note"
     d="m 1025.022,91.667 c 0,4.2625 3.069,9.02103 11.1135,9.02103 10.3076,0 21.1265,-8.43203 21.1265,-17.15854 0,-5.85901 -4.96,-9.12949 -11.1135,-9.12949 -9.6254,0 -21.1265,8.13748 -21.1265,17.267"
     id="path1463"
     style="stroke-width:0.992001" />
  <path
     class="Note"
     d="m 1129.912,91.667 c 0,4.2625 3.069,9.02103 11.1135,9.02103 10.3076,0 21.1265,-8.43203 21.1265,-17.15854 0,-5.85901 -4.96,-9.12949 -11.1135,-9.12949 -9.6254,0 -21.1265,8.13748 -21.1265,17.267"
     id="path1465"
     style="stroke-width:0.992001" />
  <path
     class="Note"
     d="m 1129.912,66.867 c 0,4.2625 3.069,9.02103 11.1135,9.02103 10.3076,0 21.1265,-8.43203 21.1265,-17.15854 0,-5.85901 -4.96,-9.12949 -11.1135,-9.12949 -9.6254,0 -21.1265,8.13749 -21.1265,17.267"
     id="path1467"
     style="stroke-width:0.992001" />
  <path
     class="Note"
     d="m 1192.752,104.067 c 0,4.2625 3.069,9.02103 11.1135,9.02103 10.3076,0 21.1265,-8.43203 21.1265,-17.15854 0,-5.85901 -4.96,-9.12949 -11.1135,-9.12949 -9.6254,0 -21.1265,8.13748 -21.1265,17.267"
     id="path1469"
     style="stroke-width:0.992001" />
  <path
     class="Note"
     d="m 1192.752,79.267 c 0,4.2625 3.069,9.02103 11.1135,9.02103 10.3076,0 21.1265,-8.43203 21.1265,-17.15854 0,-5.85901 -4.96,-9.12949 -11.1135,-9.12949 -9.6254,0 -21.1265,8.13748 -21.1265,17.267"
     id="path1471"
     style="stroke-width:0.992001" />
  <path
     class="Note"
     d="m 1255.592,116.467 c 0,4.2625 3.069,9.02103 11.1135,9.02103 10.3076,0 21.1265,-8.43203 21.1265,-17.15854 0,-5.85901 -4.96,-9.12949 -11.1135,-9.12949 -9.6254,0 -21.1265,8.13749 -21.1265,17.267"
     id="path1473"
     style="stroke-width:0.992001" />
  <path
     class="Note"
     d="m 1255.592,91.667 c 0,4.2625 3.069,9.02103 11.1135,9.02103 10.3076,0 21.1265,-8.43203 21.1265,-17.15854 0,-5.85901 -4.96,-9.12949 -11.1135,-9.12949 -9.6254,0 -21.1265,8.13748 -21.1265,17.267"
     id="path1475"
     style="stroke-width:0.992001" />
  <path
     class="Note"
     d="m 1322.672,91.667 c 0,4.2625 3.069,9.02103 11.1135,9.02103 10.3076,0 21.1265,-8.43203 21.1265,-17.15854 0,-5.85901 -4.96,-9.12949 -11.1135,-9.12949 -9.6254,0 -21.1265,8.13748 -21.1265,17.267"
     id="path1477"
     style="stroke-width:0.992001" />
  <path
     class="Note"
     d="m 1322.672,66.867 c 0,4.2625 3.069,9.02103 11.1135,9.02103 10.3076,0 21.1265,-8.43203 21.1265,-17.15854 0,-5.85901 -4.96,-9.12949 -11.1135,-9.12949 -9.6254,0 -21.1265,8.13749 -21.1265,17.267"
     id="path1479"
     style="stroke-width:0.992001" />
  <path
     class="Note"
     d="m 1427.562,91.667 c 0,4.2625 3.069,9.02103 11.1135,9.02103 10.3076,0 21.1265,-8.43203 21.1265,-17.15854 0,-5.85901 -4.96,-9.12949 -11.1135,-9.12949 -9.6254,0 -21.1265,8.13748 -21.1265,17.267"
     id="path1481"
     style="stroke-width:0.992001" />
  <path
     class="Note"
     d="m 1490.402,141.267 c 0,4.2625 3.069,9.02103 11.1135,9.02103 10.3076,0 21.1265,-8.43203 21.1265,-17.15854 0,-5.85901 -4.96,-9.12949 -11.1135,-9.12949 -9.6254,0 -21.1265,8.13748 -21.1265,17.267"
     id="path1483"
     style="stroke-width:0.992001" />
  <path
     class="Note"
     d="m 1490.402,116.467 c 0,4.2625 3.069,9.02103 11.1135,9.02103 10.3076,0 21.1265,-8.43203 21.1265,-17.15854 0,-5.85901 -4.96,-9.12949 -11.1135,-9.12949 -9.6254,0 -21.1265,8.13749 -21.1265,17.267"
     id="path1485"
     style="stroke-width:0.992001" />
  <path
     class="Note"
     d="m 1557.482,128.867 c 0,4.2625 3.069,9.02103 11.1135,9.02103 10.3076,0 21.1265,-8.43203 21.1265,-17.15854 0,-5.85901 -4.96,-9.12949 -11.1135,-9.12949 -9.6254,0 -21.1265,8.13749 -21.1265,17.267"
     id="path1487"
     style="stroke-width:0.992001" />
  <path
     class="Note"
     d="m 1557.482,104.067 c 0,4.2625 3.069,9.02103 11.1135,9.02103 10.3076,0 21.1265,-8.43203 21.1265,-17.15854 0,-5.85901 -4.96,-9.12949 -11.1135,-9.12949 -9.6254,0 -21.1265,8.13748 -21.1265,17.267"
     id="path1489"
     style="stroke-width:0.992001" />
  <path
     class="Note"
     d="m 1624.572,116.467 c 0,4.2625 3.069,9.02103 11.1135,9.02103 10.3076,0 21.1265,-8.43203 21.1265,-17.15854 0,-5.85901 -4.96,-9.12949 -11.1135,-9.12949 -9.6254,0 -21.1265,8.13749 -21.1265,17.267"
     id="path1491"
     style="stroke-width:0.992001" />
  <path
     class="Note"
     d="m 1624.572,91.667 c 0,4.2625 3.069,9.02103 11.1135,9.02103 10.3076,0 21.1265,-8.43203 21.1265,-17.15854 0,-5.85901 -4.96,-9.12949 -11.1135,-9.12949 -9.6254,0 -21.1265,8.13748 -21.1265,17.267"
     id="path1493"
     style="stroke-width:0.992001" />
  <path
     class="Note"
     d="m 1729.462,91.667 c 0,4.2625 3.069,9.02103 11.1135,9.02103 10.3076,0 21.1265,-8.43203 21.1265,-17.15854 0,-5.85901 -4.96,-9.12949 -11.1135,-9.12949 -9.6254,0 -21.1265,8.13748 -21.1265,17.267"
     id="path1495"
     style="stroke-width:0.992001" />
  <path
     class="Note"
     d="m 1729.462,66.867 c 0,4.2625 3.069,9.02103 11.1135,9.02103 10.3076,0 21.1265,-8.43203 21.1265,-17.15854 0,-5.85901 -4.96,-9.12949 -11.1135,-9.12949 -9.6254,0 -21.1265,8.13749 -21.1265,17.267"
     id="path1497"
     style="stroke-width:0.992001" />
  <path
     class="Note"
     d="m 1792.302,104.067 c 0,4.2625 3.069,9.02103 11.1135,9.02103 10.3076,0 21.1265,-8.43203 21.1265,-17.15854 0,-5.85901 -4.96,-9.12949 -11.1135,-9.12949 -9.6254,0 -21.1265,8.13748 -21.1265,17.267"
     id="path1499"
     style="stroke-width:0.992001" />
  <path
     class="Note"
     d="m 1792.302,79.267 c 0,4.2625 3.069,9.02103 11.1135,9.02103 10.3076,0 21.1265,-8.43203 21.1265,-17.15854 0,-5.85901 -4.96,-9.12949 -11.1135,-9.12949 -9.6254,0 -21.1265,8.13748 -21.1265,17.267"
     id="path1501"
     style="stroke-width:0.992001" />
  <path
     class="Note"
     d="m 1792.302,54.467 c 0,4.2625 3.069,9.02103 11.1135,9.02103 10.3076,0 21.1265,-8.43203 21.1265,-17.15854 0,-5.85901 -4.96,-9.12949 -11.1135,-9.12949 -9.6254,0 -21.1265,8.13749 -21.1265,17.267"
     id="path1503"
     style="stroke-width:0.992001" />
  <path
     class="Note"
     d="m 2513.272,91.667 c 0,4.2625 3.069,9.02103 11.1135,9.02103 10.3076,0 21.1265,-8.43203 21.1265,-17.15854 0,-5.85901 -4.96,-9.12949 -11.1135,-9.12949 -9.6254,0 -21.1265,8.13748 -21.1265,17.267"
     id="path1505"
     style="stroke-width:0.992001" />
  <path
     class="Note"
     d="m 2513.272,66.867 c 0,4.2625 3.069,9.02103 11.1135,9.02103 10.3076,0 21.1265,-8.43203 21.1265,-17.15854 0,-5.85901 -4.96,-9.12949 -11.1135,-9.12949 -9.6254,0 -21.1265,8.13749 -21.1265,17.267"
     id="path1507"
     style="stroke-width:0.992001" />
  <path
     class="Note"
     d="m 2513.272,42.067 c 0,4.2625 3.069,9.02103 11.1135,9.02103 10.3076,0 21.1265,-8.43203 21.1265,-17.15854 0,-5.85901 -4.96,-9.12949 -11.1135,-9.12949 -9.6254,0 -21.1265,8.13748 -21.1265,17.267"
     id="path1509"
     style="stroke-width:0.992001" />
  <path
     class="Note"
     d="m 2085.702,141.267 c 0,4.2625 3.069,9.02103 11.1135,9.02103 10.3076,0 21.1265,-8.43203 21.1265,-17.15854 0,-5.85901 -4.96,-9.12949 -11.1135,-9.12949 -9.6254,0 -21.1265,8.13748 -21.1265,17.267"
     id="path1511"
     style="stroke-width:0.992001" />
  <path
     class="Note"
     d="m 2152.792,128.867 c 0,4.2625 3.069,9.02103 11.1135,9.02103 10.3076,0 21.1265,-8.43203 21.1265,-17.15854 0,-5.85901 -4.96,-9.12949 -11.1135,-9.12949 -9.6254,0 -21.1265,8.13749 -21.1265,17.267"
     id="path1513"
     style="stroke-width:0.992001" />
  <path
     class="Note"
     d="m 2085.702,116.467 c 0,4.2625 3.069,9.02103 11.1135,9.02103 10.3076,0 21.1265,-8.43203 21.1265,-17.15854 0,-5.85901 -4.96,-9.12949 -11.1135,-9.12949 -9.6254,0 -21.1265,8.13749 -21.1265,17.267"
     id="path1515"
     style="stroke-width:0.992001" />
  <path
     class="Note"
     d="m 2618.162,91.667 c 0,4.2625 3.069,9.02103 11.1135,9.02103 10.3076,0 21.1265,-8.43203 21.1265,-17.15854 0,-5.85901 -4.96,-9.12949 -11.1135,-9.12949 -9.6254,0 -21.1265,8.13748 -21.1265,17.267"
     id="path1517"
     style="stroke-width:0.992001" />
  <path
     class="Note"
     d="m 2618.162,66.867 c 0,4.2625 3.069,9.02103 11.1135,9.02103 10.3076,0 21.1265,-8.43203 21.1265,-17.15854 0,-5.85901 -4.96,-9.12949 -11.1135,-9.12949 -9.6254,0 -21.1265,8.13749 -21.1265,17.267"
     id="path1519"
     style="stroke-width:0.992001" />
  <path
     class="Note"
     d="m 2618.162,42.067 c 0,4.2625 3.069,9.02103 11.1135,9.02103 10.3076,0 21.1265,-8.43203 21.1265,-17.15854 0,-5.85901 -4.96,-9.12949 -11.1135,-9.12949 -9.6254,0 -21.1265,8.13748 -21.1265,17.267"
     id="path1521"
     style="stroke-width:0.992001" />
  <path
     class="Note"
     d="m 2152.792,104.067 c 0,4.2625 3.069,9.02103 11.1135,9.02103 10.3076,0 21.1265,-8.43203 21.1265,-17.15854 0,-5.85901 -4.96,-9.12949 -11.1135,-9.12949 -9.6254,0 -21.1265,8.13748 -21.1265,17.267"
     id="path1523"
     style="stroke-width:0.992001" />
  <path
     class="Note"
     d="m 2681.002,104.067 c 0,4.2625 3.069,9.02103 11.1135,9.02103 10.3076,0 21.1265,-8.43203 21.1265,-17.15854 0,-5.85901 -4.96,-9.12949 -11.1135,-9.12949 -9.6254,0 -21.1265,8.13748 -21.1265,17.267"
     id="path1525"
     style="stroke-width:0.992001" />
  <path
     class="Note"
     d="m 2681.002,79.267 c 0,4.2625 3.069,9.02103 11.1135,9.02103 10.3076,0 21.1265,-8.43203 21.1265,-17.15854 0,-5.85901 -4.96,-9.12949 -11.1135,-9.12949 -9.6254,0 -21.1265,8.13748 -21.1265,17.267"
     id="path1527"
     style="stroke-width:0.992001" />
  <path
     class="Note"
     d="m 2681.002,54.467 c 0,4.2625 3.069,9.02103 11.1135,9.02103 10.3076,0 21.1265,-8.43203 21.1265,-17.15854 0,-5.85901 -4.96,-9.12949 -11.1135,-9.12949 -9.6254,0 -21.1265,8.13749 -21.1265,17.267"
     id="path1529"
     style="stroke-width:0.992001" />
  <path
     class="Note"
     d="m 2324.762,91.667 c 0,4.2625 3.069,9.02103 11.1135,9.02103 10.3076,0 21.1265,-8.43203 21.1265,-17.15854 0,-5.85901 -4.96,-9.12949 -11.1135,-9.12949 -9.6254,0 -21.1265,8.13748 -21.1265,17.267"
     id="path1531"
     style="stroke-width:0.992001" />
  <path
     class="Note"
     d="m 2743.842,116.467 c 0,4.2625 3.069,9.02103 11.1135,9.02103 10.3076,0 21.1265,-8.43203 21.1265,-17.15854 0,-5.85901 -4.96,-9.12949 -11.1135,-9.12949 -9.6254,0 -21.1265,8.13749 -21.1265,17.267"
     id="path1533"
     style="stroke-width:0.992001" />
  <path
     class="Note"
     d="m 2743.842,91.667 c 0,4.2625 3.069,9.02103 11.1135,9.02103 10.3076,0 21.1265,-8.43203 21.1265,-17.15854 0,-5.85901 -4.96,-9.12949 -11.1135,-9.12949 -9.6254,0 -21.1265,8.13748 -21.1265,17.267"
     id="path1535"
     style="stroke-width:0.992001" />
  <path
     class="Note"
     d="m 2743.842,66.867 c 0,4.2625 3.069,9.02103 11.1135,9.02103 10.3076,0 21.1265,-8.43203 21.1265,-17.15854 0,-5.85901 -4.96,-9.12949 -11.1135,-9.12949 -9.6254,0 -21.1265,8.13749 -21.1265,17.267"
     id="path1537"
     style="stroke-width:0.992001" />
  <path
     class="Note"
     d="m 2324.762,66.867 c 0,4.2625 3.069,9.02103 11.1135,9.02103 10.3076,0 21.1265,-8.43203 21.1265,-17.15854 0,-5.85901 -4.96,-9.12949 -11.1135,-9.12949 -9.6254,0 -21.1265,8.13749 -21.1265,17.267"
     id="path1539"
     style="stroke-width:0.992001" />
  <path
     class="Note"
     d="m 2806.682,91.667 c 0,4.2625 3.069,9.02103 11.1135,9.02103 10.3076,0 21.1265,-8.43203 21.1265,-17.15854 0,-5.85901 -4.96,-9.12949 -11.1135,-9.12949 -9.6254,0 -21.1265,8.13748 -21.1265,17.267"
     id="path1541"
     style="stroke-width:0.992001" />
  <path
     class="Note"
     d="m 2806.682,66.867 c 0,4.2625 3.069,9.02103 11.1135,9.02103 10.3076,0 21.1265,-8.43203 21.1265,-17.15854 0,-5.85901 -4.96,-9.12949 -11.1135,-9.12949 -9.6254,0 -21.1265,8.13749 -21.1265,17.267"
     id="path1543"
     style="stroke-width:0.992001" />
  <path
     class="Note"
     d="m 2806.682,42.067 c 0,4.2625 3.069,9.02103 11.1135,9.02103 10.3076,0 21.1265,-8.43203 21.1265,-17.15854 0,-5.85901 -4.96,-9.12949 -11.1135,-9.12949 -9.6254,0 -21.1265,8.13748 -21.1265,17.267"
     id="path1545"
     style="stroke-width:0.992001" />
  <path
     class="Note"
     d="m 2022.862,91.667 c 0,4.2625 3.069,9.02103 11.1135,9.02103 10.3076,0 21.1265,-8.43203 21.1265,-17.15854 0,-5.85901 -4.96,-9.12949 -11.1135,-9.12949 -9.6254,0 -21.1265,8.13748 -21.1265,17.267"
     id="path1547"
     style="stroke-width:0.992001" />
  <path
     class="Note"
     d="m 2324.762,42.067 c 0,4.2625 3.069,9.02103 11.1135,9.02103 10.3076,0 21.1265,-8.43203 21.1265,-17.15854 0,-5.85901 -4.96,-9.12949 -11.1135,-9.12949 -9.6254,0 -21.1265,8.13748 -21.1265,17.267"
     id="path1549"
     style="stroke-width:0.992001" />
  <path
     class="Note"
     d="m 2022.862,116.467 c 0,4.2625 3.069,9.02103 11.1135,9.02103 10.3076,0 21.1265,-8.43203 21.1265,-17.15854 0,-5.85901 -4.96,-9.12949 -11.1135,-9.12949 -9.6254,0 -21.1265,8.13749 -21.1265,17.267"
     id="path1551"
     style="stroke-width:0.992001" />
  <path
     class="Note"
     d="m 2911.572,42.067 c 0,4.2625 3.069,9.02103 11.1135,9.02103 10.3076,0 21.1265,-8.43203 21.1265,-17.15854 0,-5.85901 -4.96,-9.12949 -11.1135,-9.12949 -9.6254,0 -21.1265,8.13748 -21.1265,17.267"
     id="path1553"
     style="stroke-width:0.992001" />
  <path
     class="Note"
     d="m 2911.572,17.267 c 0,4.2625 3.069,9.02103 11.1135,9.02103 10.3076,0 21.1265,-8.43203 21.1265,-17.15854 0,-5.85901 -4.96,-9.12949 -11.1135,-9.12949 -9.6254,0 -21.1265,8.13748 -21.1265,17.267"
     id="path1555"
     style="stroke-width:0.992001" />
  <path
     class="Note"
     d="m 2974.412,54.467 c 0,4.2625 3.069,9.02103 11.1135,9.02103 10.3076,0 21.1265,-8.43203 21.1265,-17.15854 0,-5.85901 -4.96,-9.12949 -11.1135,-9.12949 -9.6254,0 -21.1265,8.13749 -21.1265,17.267"
     id="path1557"
     style="stroke-width:0.992001" />
  <path
     class="Note"
     d="m 2974.412,29.667 c 0,4.2625 3.069,9.02103 11.1135,9.02103 10.3076,0 21.1265,-8.43203 21.1265,-17.15854 0,-5.85901 -4.96,-9.12949 -11.1135,-9.12949 -9.6254,0 -21.1265,8.13748 -21.1265,17.267"
     id="path1559"
     style="stroke-width:0.992001" />
  <path
     class="Note"
     d="m 2219.872,116.467 c 0,4.2625 3.069,9.02103 11.1135,9.02103 10.3076,0 21.1265,-8.43203 21.1265,-17.15854 0,-5.85901 -4.96,-9.12949 -11.1135,-9.12949 -9.6254,0 -21.1265,8.13749 -21.1265,17.267"
     id="path1561"
     style="stroke-width:0.992001" />
  <path
     class="Note"
     d="m 3037.252,66.867 c 0,4.2625 3.069,9.02103 11.1135,9.02103 10.3076,0 21.1265,-8.43203 21.1265,-17.15854 0,-5.85901 -4.96,-9.12949 -11.1135,-9.12949 -9.6254,0 -21.1265,8.13749 -21.1265,17.267"
     id="path1563"
     style="stroke-width:0.992001" />
  <path
     class="Note"
     d="m 3037.252,42.067 c 0,4.2625 3.069,9.02103 11.1135,9.02103 10.3076,0 21.1265,-8.43203 21.1265,-17.15854 0,-5.85901 -4.96,-9.12949 -11.1135,-9.12949 -9.6254,0 -21.1265,8.13748 -21.1265,17.267"
     id="path1565"
     style="stroke-width:0.992001" />
  <path
     class="Note"
     d="m 2387.602,104.067 c 0,4.2625 3.069,9.02103 11.1135,9.02103 10.3076,0 21.1265,-8.43203 21.1265,-17.15854 0,-5.85901 -4.96,-9.12949 -11.1135,-9.12949 -9.6254,0 -21.1265,8.13748 -21.1265,17.267"
     id="path1567"
     style="stroke-width:0.992001" />
  <path
     class="Note"
     d="m 3100.082,91.667 c 0,4.2625 3.069,9.02103 11.1135,9.02103 10.3076,0 21.1265,-8.43203 21.1265,-17.15854 0,-5.85901 -4.96,-9.12949 -11.1135,-9.12949 -9.6254,0 -21.1265,8.13748 -21.1265,17.267"
     id="path1569"
     style="stroke-width:0.992001" />
  <path
     class="Note"
     d="m 3100.082,66.867 c 0,4.2625 3.069,9.02103 11.1135,9.02103 10.3076,0 21.1265,-8.43203 21.1265,-17.15854 0,-5.85901 -4.96,-9.12949 -11.1135,-9.12949 -9.6254,0 -21.1265,8.13749 -21.1265,17.267"
     id="path1571"
     style="stroke-width:0.992001" />
  <path
     class="Note"
     d="m 1917.972,42.067 c 0,4.2625 3.069,9.02103 11.1135,9.02103 10.3076,0 21.1265,-8.43203 21.1265,-17.15854 0,-5.85901 -4.96,-9.12949 -11.1135,-9.12949 -9.6254,0 -21.1265,8.13748 -21.1265,17.267"
     id="path1573"
     style="stroke-width:0.992001" />
  <path
     class="Note"
     d="m 1917.972,66.867 c 0,4.2625 3.069,9.02103 11.1135,9.02103 10.3076,0 21.1265,-8.43203 21.1265,-17.15854 0,-5.85901 -4.96,-9.12949 -11.1135,-9.12949 -9.6254,0 -21.1265,8.13749 -21.1265,17.267"
     id="path1575"
     style="stroke-width:0.992001" />
  <path
     class="Note"
     d="m 2387.602,79.267 c 0,4.2625 3.069,9.02103 11.1135,9.02103 10.3076,0 21.1265,-8.43203 21.1265,-17.15854 0,-5.85901 -4.96,-9.12949 -11.1135,-9.12949 -9.6254,0 -21.1265,8.13748 -21.1265,17.267"
     id="path1577"
     style="stroke-width:0.992001" />
  <path
     class="Note"
     d="m 3204.972,91.667 c 0,4.2625 3.069,9.02103 11.1135,9.02103 10.3076,0 21.1265,-8.43203 21.1265,-17.15854 0,-5.85901 -4.96,-9.12949 -11.1135,-9.12949 -9.6254,0 -21.1265,8.13748 -21.1265,17.267"
     id="path1579"
     style="stroke-width:0.992001" />
  <path
     class="Note"
     d="m 3204.972,66.867 c 0,4.2625 3.069,9.02103 11.1135,9.02103 10.3076,0 21.1265,-8.43203 21.1265,-17.15854 0,-5.85901 -4.96,-9.12949 -11.1135,-9.12949 -9.6254,0 -21.1265,8.13749 -21.1265,17.267"
     id="path1581"
     style="stroke-width:0.992001" />
  <path
     class="Note"
     d="m 3204.972,42.067 c 0,4.2625 3.069,9.02103 11.1135,9.02103 10.3076,0 21.1265,-8.43203 21.1265,-17.15854 0,-5.85901 -4.96,-9.12949 -11.1135,-9.12949 -9.6254,0 -21.1265,8.13748 -21.1265,17.267"
     id="path1583"
     style="stroke-width:0.992001" />
  <path
     class="Note"
     d="m 2387.602,54.467 c 0,4.2625 3.069,9.02103 11.1135,9.02103 10.3076,0 21.1265,-8.43203 21.1265,-17.15854 0,-5.85901 -4.96,-9.12949 -11.1135,-9.12949 -9.6254,0 -21.1265,8.13749 -21.1265,17.267"
     id="path1585"
     style="stroke-width:0.992001" />
  <path
     class="Note"
     d="m 3267.812,104.067 c 0,4.2625 3.069,9.02103 11.1135,9.02103 10.3076,0 21.1265,-8.43203 21.1265,-17.15854 0,-5.85901 -4.96,-9.12949 -11.1135,-9.12949 -9.6254,0 -21.1265,8.13748 -21.1265,17.267"
     id="path1587"
     style="stroke-width:0.992001" />
  <path
     class="Note"
     d="m 3267.812,79.267 c 0,4.2625 3.069,9.02103 11.1135,9.02103 10.3076,0 21.1265,-8.43203 21.1265,-17.15854 0,-5.85901 -4.96,-9.12949 -11.1135,-9.12949 -9.6254,0 -21.1265,8.13748 -21.1265,17.267"
     id="path1589"
     style="stroke-width:0.992001" />
  <path
     class="Note"
     d="m 3267.812,54.467 c 0,4.2625 3.069,9.02103 11.1135,9.02103 10.3076,0 21.1265,-8.43203 21.1265,-17.15854 0,-5.85901 -4.96,-9.12949 -11.1135,-9.12949 -9.6254,0 -21.1265,8.13749 -21.1265,17.267"
     id="path1591"
     style="stroke-width:0.992001" />
  <path
     class="Note"
     d="m 828.022,91.667 c 0,4.2625 3.069,9.02103 11.11349,9.02103 10.30758,0 21.12654,-8.43203 21.12654,-17.15854 0,-5.85901 -4.96,-9.12949 -11.11348,-9.12949 -9.62549,0 -21.12655,8.13748 -21.12655,17.267"
     id="path1593"
     style="stroke-width:0.992001" />
  <path
     class="Note"
     d="m 232.718,91.667 c 0,4.2625 3.069,9.02103 11.11349,9.02103 10.30758,0 21.12654,-8.43203 21.12654,-17.15854 0,-5.85901 -4.96,-9.12949 -11.11348,-9.12949 -9.62549,0 -21.12655,8.13748 -21.12655,17.267"
     id="path1595"
     style="stroke-width:0.992001" />
  <path
     class="Note"
     d="m 3330.652,116.467 c 0,4.2625 3.069,9.02103 11.1135,9.02103 10.3076,0 21.1265,-8.43203 21.1265,-17.15854 0,-5.85901 -4.96,-9.12949 -11.1135,-9.12949 -9.6254,0 -21.1265,8.13749 -21.1265,17.267"
     id="path1597"
     style="stroke-width:0.992001" />
  <path
     class="Note"
     d="m 3330.652,91.667 c 0,4.2625 3.069,9.02103 11.1135,9.02103 10.3076,0 21.1265,-8.43203 21.1265,-17.15854 0,-5.85901 -4.96,-9.12949 -11.1135,-9.12949 -9.6254,0 -21.1265,8.13748 -21.1265,17.267"
     id="path1599"
     style="stroke-width:0.992001" />
  <path
     class="Note"
     d="m 3330.652,66.867 c 0,4.2625 3.069,9.02103 11.1135,9.02103 10.3076,0 21.1265,-8.43203 21.1265,-17.15854 0,-5.85901 -4.96,-9.12949 -11.1135,-9.12949 -9.6254,0 -21.1265,8.13749 -21.1265,17.267"
     id="path1601"
     style="stroke-width:0.992001" />
  <path
     class="Note"
     d="m 1729.462,42.067 c 0,4.2625 3.069,9.02103 11.1135,9.02103 10.3076,0 21.1265,-8.43203 21.1265,-17.15854 0,-5.85901 -4.96,-9.12949 -11.1135,-9.12949 -9.6254,0 -21.1265,8.13748 -21.1265,17.267"
     id="path1603"
     style="stroke-width:0.992001" />
  <path
     class="Note"
     d="m 3393.492,91.667 c 0,4.2625 3.069,9.02103 11.1135,9.02103 10.3076,0 21.1265,-8.43203 21.1265,-17.15854 0,-5.85901 -4.96,-9.12949 -11.1135,-9.12949 -9.6254,0 -21.1265,8.13748 -21.1265,17.267"
     id="path1605"
     style="stroke-width:0.992001" />
  <path
     class="Note"
     d="m 3393.492,66.867 c 0,4.2625 3.069,9.02103 11.1135,9.02103 10.3076,0 21.1265,-8.43203 21.1265,-17.15854 0,-5.85901 -4.96,-9.12949 -11.1135,-9.12949 -9.6254,0 -21.1265,8.13749 -21.1265,17.267"
     id="path1607"
     style="stroke-width:0.992001" />
  <path
     class="Note"
     d="m 3393.492,42.067 c 0,4.2625 3.069,9.02103 11.1135,9.02103 10.3076,0 21.1265,-8.43203 21.1265,-17.15854 0,-5.85901 -4.96,-9.12949 -11.1135,-9.12949 -9.6254,0 -21.1265,8.13748 -21.1265,17.267"
     id="path1609"
     style="stroke-width:0.992001" />
  <path
     class="Note"
     d="m 1917.972,91.667 c 0,4.2625 3.069,9.02103 11.1135,9.02103 10.3076,0 21.1265,-8.43203 21.1265,-17.15854 0,-5.85901 -4.96,-9.12949 -11.1135,-9.12949 -9.6254,0 -21.1265,8.13748 -21.1265,17.267"
     id="path1611"
     style="stroke-width:0.992001" />
  <path
     class="Note"
     d="m 1855.132,66.867 c 0,4.2625 3.069,9.02103 11.1135,9.02103 10.3076,0 21.1265,-8.43203 21.1265,-17.15854 0,-5.85901 -4.96,-9.12949 -11.1135,-9.12949 -9.6254,0 -21.1265,8.13749 -21.1265,17.267"
     id="path1613"
     style="stroke-width:0.992001" />
  <path
     class="Note"
     d="m 2219.872,91.667 c 0,4.2625 3.069,9.02103 11.1135,9.02103 10.3076,0 21.1265,-8.43203 21.1265,-17.15854 0,-5.85901 -4.96,-9.12949 -11.1135,-9.12949 -9.6254,0 -21.1265,8.13748 -21.1265,17.267"
     id="path1615"
     style="stroke-width:0.992001" />
  <path
     class="Note"
     d="m 1855.132,91.667 c 0,4.2625 3.069,9.02103 11.1135,9.02103 10.3076,0 21.1265,-8.43203 21.1265,-17.15854 0,-5.85901 -4.96,-9.12949 -11.1135,-9.12949 -9.6254,0 -21.1265,8.13748 -21.1265,17.267"
     id="path1617"
     style="stroke-width:0.992001" />
  <path
     class="Note"
     d="m 3498.382,66.867 c 0,4.2625 3.069,9.02103 11.1135,9.02103 10.3076,0 21.1265,-8.43203 21.1265,-17.15854 0,-5.85901 -4.96,-9.12949 -11.1135,-9.12949 -9.6254,0 -21.1265,8.13749 -21.1265,17.267"
     id="path1619"
     style="stroke-width:0.992001" />
  <path
     class="Note"
     d="m 3498.382,42.067 c 0,4.2625 3.069,9.02103 11.1135,9.02103 10.3076,0 21.1265,-8.43203 21.1265,-17.15854 0,-5.85901 -4.96,-9.12949 -11.1135,-9.12949 -9.6254,0 -21.1265,8.13748 -21.1265,17.267"
     id="path1621"
     style="stroke-width:0.992001" />
  <path
     class="Note"
     d="m 3498.382,17.267 c 0,4.2625 3.069,9.02103 11.1135,9.02103 10.3076,0 21.1265,-8.43203 21.1265,-17.15854 0,-5.85901 -4.96,-9.12949 -11.1135,-9.12949 -9.6254,0 -21.1265,8.13748 -21.1265,17.267"
     id="path1623"
     style="stroke-width:0.992001" />
  <path
     class="Note"
     d="m 362.64,104.067 c 0,4.2625 3.069,9.02103 11.11349,9.02103 10.30758,0 21.12654,-8.43203 21.12654,-17.15854 0,-5.85901 -4.96,-9.12949 -11.11348,-9.12949 -9.62549,0 -21.12655,8.13748 -21.12655,17.267"
     id="path1625"
     style="stroke-width:0.992001" />
  <path
     class="Note"
     d="m 2450.442,116.467 c 0,4.2625 3.069,9.02103 11.1135,9.02103 10.3076,0 21.1265,-8.43203 21.1265,-17.15854 0,-5.85901 -4.96,-9.12949 -11.1135,-9.12949 -9.6254,0 -21.1265,8.13749 -21.1265,17.267"
     id="path1627"
     style="stroke-width:0.992001" />
  <path
     class="Note"
     d="m 3561.222,79.267 c 0,4.2625 3.069,9.02103 11.1135,9.02103 10.3076,0 21.1265,-8.43203 21.1265,-17.15854 0,-5.85901 -4.96,-9.12949 -11.1135,-9.12949 -9.6254,0 -21.1265,8.13748 -21.1265,17.267"
     id="path1629"
     style="stroke-width:0.992001" />
  <path
     class="Note"
     d="m 3561.222,54.467 c 0,4.2625 3.069,9.02103 11.1135,9.02103 10.3076,0 21.1265,-8.43203 21.1265,-17.15854 0,-5.85901 -4.96,-9.12949 -11.1135,-9.12949 -9.6254,0 -21.1265,8.13749 -21.1265,17.267"
     id="path1631"
     style="stroke-width:0.992001" />
  <path
     class="Note"
     d="m 3561.222,29.667 c 0,4.2625 3.069,9.02103 11.1135,9.02103 10.3076,0 21.1265,-8.43203 21.1265,-17.15854 0,-5.85901 -4.96,-9.12949 -11.1135,-9.12949 -9.6254,0 -21.1265,8.13748 -21.1265,17.267"
     id="path1633"
     style="stroke-width:0.992001" />
  <path
     class="Note"
     d="m 429.725,91.667 c 0,4.2625 3.069,9.02103 11.11349,9.02103 10.30758,0 21.12654,-8.43203 21.12654,-17.15854 0,-5.85901 -4.96,-9.12949 -11.11348,-9.12949 -9.62549,0 -21.12655,8.13748 -21.12655,17.267"
     id="path1635"
     style="stroke-width:0.992001" />
  <path
     class="Note"
     d="m 2450.442,91.667 c 0,4.2625 3.069,9.02103 11.1135,9.02103 10.3076,0 21.1265,-8.43203 21.1265,-17.15854 0,-5.85901 -4.96,-9.12949 -11.1135,-9.12949 -9.6254,0 -21.1265,8.13748 -21.1265,17.267"
     id="path1637"
     style="stroke-width:0.992001" />
  <path
     class="Note"
     d="m 3624.052,91.667 c 0,4.2625 3.069,9.02103 11.1135,9.02103 10.3076,0 21.1265,-8.43203 21.1265,-17.15854 0,-5.85901 -4.96,-9.12949 -11.1135,-9.12949 -9.6254,0 -21.1265,8.13748 -21.1265,17.267"
     id="path1639"
     style="stroke-width:0.992001" />
  <path
     class="Note"
     d="m 3624.052,66.867 c 0,4.2625 3.069,9.02103 11.1135,9.02103 10.3076,0 21.1265,-8.43203 21.1265,-17.15854 0,-5.85901 -4.96,-9.12949 -11.1135,-9.12949 -9.6254,0 -21.1265,8.13749 -21.1265,17.267"
     id="path1641"
     style="stroke-width:0.992001" />
  <path
     class="Note"
     d="m 3624.052,42.067 c 0,4.2625 3.069,9.02103 11.1135,9.02103 10.3076,0 21.1265,-8.43203 21.1265,-17.15854 0,-5.85901 -4.96,-9.12949 -11.1135,-9.12949 -9.6254,0 -21.1265,8.13748 -21.1265,17.267"
     id="path1643"
     style="stroke-width:0.992001" />
  <path
     class="Note"
     d="m 2450.442,66.867 c 0,4.2625 3.069,9.02103 11.1135,9.02103 10.3076,0 21.1265,-8.43203 21.1265,-17.15854 0,-5.85901 -4.96,-9.12949 -11.1135,-9.12949 -9.6254,0 -21.1265,8.13749 -21.1265,17.267"
     id="path1645"
     style="stroke-width:0.992001" />
  <path
     class="Note"
     d="m 3686.892,116.467 c 0,4.2625 3.069,9.02103 11.1135,9.02103 10.3076,0 21.1265,-8.43203 21.1265,-17.15854 0,-5.85901 -4.96,-9.12949 -11.1135,-9.12949 -9.6254,0 -21.1265,8.13749 -21.1265,17.267"
     id="path1647"
     style="stroke-width:0.992001" />
  <path
     class="Note"
     d="m 3686.892,91.667 c 0,4.2625 3.069,9.02103 11.1135,9.02103 10.3076,0 21.1265,-8.43203 21.1265,-17.15854 0,-5.85901 -4.96,-9.12949 -11.1135,-9.12949 -9.6254,0 -21.1265,8.13748 -21.1265,17.267"
     id="path1649"
     style="stroke-width:0.992001" />
  <path
     class="Note"
     d="m 3686.892,66.867 c 0,4.2625 3.069,9.02103 11.1135,9.02103 10.3076,0 21.1265,-8.43203 21.1265,-17.15854 0,-5.85901 -4.96,-9.12949 -11.1135,-9.12949 -9.6254,0 -21.1265,8.13749 -21.1265,17.267"
     id="path1651"
     style="stroke-width:0.992001" />
  <path
     class="Note"
     d="m 1855.132,116.467 c 0,4.2625 3.069,9.02103 11.1135,9.02103 10.3076,0 21.1265,-8.43203 21.1265,-17.15854 0,-5.85901 -4.96,-9.12949 -11.1135,-9.12949 -9.6254,0 -21.1265,8.13749 -21.1265,17.267"
     id="path1653"
     style="stroke-width:0.992001" />
  <path
     class="Note"
     d="m 295.556,116.467 c 0,4.2625 3.069,9.02103 11.11349,9.02103 10.30758,0 21.12654,-8.43203 21.12654,-17.15854 0,-5.85901 -4.96,-9.12949 -11.11348,-9.12949 -9.62549,0 -21.12655,8.13749 -21.12655,17.267"
     id="path1655"
     style="stroke-width:0.992001" />
  <path
     class="Clef"
     d="m 30.798537,163.18407 c 0,6.55653 4.960005,15.19001 18.352019,15.19001 4.665479,0 8.742008,-1.19347 12.306962,-3.37905 5.363055,-3.76643 6.742532,-10.32296 6.742532,-16.56949 0,-3.85948 -0.588951,-8.32349 -1.580952,-13.98097 -0.294525,-1.984 -0.899051,-4.96 -1.488001,-8.83506 9.718435,-3.17747 16.956967,-13.29896 16.956967,-23.51352 0,-14.97304 -10.617486,-25.09453 -25.09455,-25.09453 -0.992001,-5.952 -1.984002,-11.81106 -2.774428,-17.36001 10.41601,-11.02054 17.654443,-23.42055 17.654443,-39.18404 0,-9.03654 -2.774428,-16.36802 -4.370955,-19.94815 C 65.131097,5.45601 62.248044,1.984 60.465517,1.984 c -0.697475,0 -3.766429,1.19338 -7.036957,5.05326 -6.355056,7.54813 -8.137483,20.24267 -8.137483,28.56615 0,5.36296 0.496,10.23001 2.185477,21.3435 -0.108525,0.0931 -5.270005,5.34748 -7.347057,7.03706 C 31.093062,72.32292 18.6,84.41294 18.6,104.26848 c 0,18.53807 16.166541,33.12356 34.627085,33.12356 2.867478,0 5.548955,-0.29452 7.827483,-0.69748 1.890952,9.53244 3.084528,16.47645 3.084528,21.73098 0,10.32306 -5.363056,15.77906 -15.376016,15.77906 -2.387052,0 -4.464004,-0.496 -4.665579,-0.496 -0.09295,-0.10852 -0.294426,-0.20157 -0.294426,-0.29452 0,-0.20148 0.201475,-0.31 0.496001,-0.31 4.665479,-0.79053 9.315484,-4.75853 9.315484,-11.09802 0,-5.36305 -4.061054,-11.02053 -11.501061,-11.02053 -6.944007,0 -11.314962,5.65748 -11.314962,12.19854 M 51.537508,30.75193 c 0.899051,-3.968 5.456006,-14.38401 10.617586,-14.38401 1.488001,0 3.859479,4.75843 3.859479,11.70244 0,10.32306 -7.626008,18.05759 -14.477065,24.80002 -0.588951,-3.968 -1.084951,-7.82748 -1.084951,-11.99696 0,-3.67348 0.294525,-7.05253 1.084951,-10.12149 m 8.726534,101.97463 c -1.984002,0.40295 -3.859479,0.60443 -5.750531,0.60443 -14.182439,0 -26.287996,-9.92001 -26.287996,-24.9085 0,-12.09007 8.525028,-22.90903 17.267037,-30.45756 1.674002,-1.488 3.270528,-2.86748 4.75853,-4.35548 0.883476,5.34748 1.580951,10.01296 2.278427,14.08949 -9.036434,2.68148 -15.17444,12.19854 -15.17444,21.52955 0,6.944 5.456005,16.46101 13.392013,16.46101 0.790426,0 1.689477,-0.40295 1.689477,-1.28652 0,-0.89895 -0.992001,-1.39495 -2.185477,-2.18548 -3.875054,-2.387 -6.060531,-4.96 -6.060531,-9.82701 0,-6.04501 4.572529,-10.91206 10.32296,-12.29154 l 5.750531,32.62761 m 14.089489,-18.35207 c 0,7.05251 -2.882953,14.29102 -9.92001,17.17407 -2.076952,-11.90406 -4.75843,-27.68308 -5.456005,-32.05413 8.928009,0 15.376015,6.06055 15.376015,14.88006"
     id="path1657"
     style="stroke-width:0.992001" />
  <path
     class="KeySig"
     d="m 112.57701,72.12147 c -4.96,0 -7.84301,3.06896 -8.33901,3.67348 l 0.403,-31.85255 c 0,-0.79043 -0.589,-1.37948 -1.395,-1.37948 h -1.178 c -0.806,0 -1.395,0.58905 -1.395,1.37948 l 0.496,59.62858 c 0,0.79053 0.589,1.37958 1.395,1.37958 0.186,0 0.589,-0.0931 0.79051,-0.186 8.52503,-4.27801 17.45304,-12.40007 17.45304,-22.63008 0,-5.14605 -2.37148,-10.01301 -8.23054,-10.01301 m -8.6335,27.97751 0.29449,-19.344 c 0.20151,-0.899 1.68951,-3.76655 5.65751,-3.76655 3.58055,0 3.87498,3.36355 3.87498,5.45605 0,8.81952 -3.27048,12.49302 -9.82698,17.6545"
     id="path1659"
     style="stroke-width:0.992001" />
  <path
     class="TimeSig"
     d="m 168.9355,58.43498 c -6.06043,0 -8.23043,1.78251 -9.62548,3.27051 -0.29453,-2.077 -0.49601,-3.67351 -0.49601,-5.25451 0,-5.6575 1.98401,-13.00456 8.92801,-13.00456 2.48001,0 3.96801,0.806 4.96001,1.89105 -2.07695,0.89895 -3.76653,3.56496 -3.76653,5.85896 0,3.56505 2.77453,6.33955 6.35506,6.33955 3.56495,0 6.448,-2.7745 6.448,-6.33955 v -0.31 c 0,-0.88348 -0.20147,-2.37148 -0.60452,-3.16201 -1.28653,-3.58042 -5.45601,-8.83495 -15.37602,-8.83495 -8.92801,0 -15.37601,8.52495 -17.36002,13.09748 -0.992,2.37153 -2.48,7.23854 -2.48,12.78754 0,6.06051 1.68951,12.89606 7.53301,18.05754 5.76605,4.37096 9.42406,4.57253 12.89606,4.57253 3.48748,0 16.47644,-4.07652 16.47644,-15.57756 0,-9.71851 -7.64148,-13.39202 -13.88801,-13.39202 m -3.67348,24.80001 c -3.27053,0 -5.952,-4.46401 -5.952,-10.02844 0,-5.54906 2.68147,-10.10606 5.952,-10.10606 3.27053,0 6.06053,4.557 6.06053,10.10606 0,5.56443 -2.79,10.02844 -6.06053,10.02844"
     id="path1661"
     style="stroke-width:0.992001" />
  <path
     class="TimeSig"
     d="m 176.28208,110.26698 c 3.27043,-2.48 5.54896,-5.6575 5.54896,-9.6255 0,-7.14548 -7.82749,-12.98906 -17.45297,-12.98906 -9.62558,0 -17.46856,5.84358 -17.46856,12.98906 0,3.968 0.992,7.53301 5.6575,10.50901 -4.46401,2.58851 -6.94401,6.26201 -6.94401,11.02049 0,8.02905 8.43201,14.47706 18.75507,14.47706 10.30749,0 18.73949,-6.44801 18.73949,-14.47706 0,-4.75848 -1.674,-9.22249 -6.83548,-11.904 m -5.56453,-2.68149 c -6.74253,-2.18551 -14.18254,-5.45601 -14.18254,-9.92001 0,-3.87506 3.56506,-5.45601 7.84306,-5.45601 6.15348,0 10.30749,2.88295 10.30749,7.44001 0,4.7585 -2.17001,7.037 -3.96801,7.93601 m -6.33948,23.51349 c -6.35506,0 -11.81106,-3.472 -11.81106,-9.03643 0,-6.63406 5.16148,-8.23055 5.16148,-8.23055 6.74253,2.27849 16.36802,5.6575 16.36802,11.1135 0,2.68148 -3.37896,6.15348 -9.71844,6.15348"
     id="path1663"
     style="stroke-width:0.992001" />
</svg>
