<?xml version="1.0" encoding="UTF-8" standalone="no"?>
<svg
   xmlns:dc="http://purl.org/dc/elements/1.1/"
   xmlns:cc="http://creativecommons.org/ns#"
   xmlns:rdf="http://www.w3.org/1999/02/22-rdf-syntax-ns#"
   xmlns:svg="http://www.w3.org/2000/svg"
   xmlns="http://www.w3.org/2000/svg"
   xmlns:sodipodi="http://sodipodi.sourceforge.net/DTD/sodipodi-0.dtd"
   xmlns:inkscape="http://www.inkscape.org/namespaces/inkscape"
   width="3783.6021"
   height="457.57199"
   viewBox="0 0 3783.6021 457.572"
   version="1.2"
   id="svg3729"
   sodipodi:docname="Dossium Canto Pelsjacht Musica.svg"
   inkscape:version="1.0.2-2 (e86c870879, 2021-01-15)">
  <metadata
     id="metadata3735">
    <rdf:RDF>
      <cc:Work
         rdf:about="">
        <dc:format>image/svg+xml</dc:format>
        <dc:type
           rdf:resource="http://purl.org/dc/dcmitype/StillImage" />
      </cc:Work>
    </rdf:RDF>
  </metadata>
  <defs
     id="defs3733" />
  <sodipodi:namedview
     pagecolor="#ffffff"
     bordercolor="#666666"
     borderopacity="1"
     objecttolerance="10"
     gridtolerance="10"
     guidetolerance="10"
     inkscape:pageopacity="0"
     inkscape:pageshadow="2"
     inkscape:window-width="1920"
     inkscape:window-height="991"
     id="namedview3731"
     showgrid="false"
     inkscape:zoom="0.55085316"
     inkscape:cx="761.09807"
     inkscape:cy="275.1633"
     inkscape:window-x="-9"
     inkscape:window-y="-9"
     inkscape:window-maximized="1"
     inkscape:current-layer="svg3729" />
  <title
     id="title3011">Dossium Canto Pelsjacht Musica</title>
  <desc
     id="desc3013">Generated by MuseScore Studio 4.4.4</desc>
  <polyline
     class="StaffLines"
     fill="none"
     stroke="#000000"
     stroke-width="2.73"
     stroke-linejoin="bevel"
     points="336.599,634.198 3996.2,634.198"
     id="polyline3015"
     transform="translate(-212.598,-592.038)" />
  <polyline
     class="StaffLines"
     fill="none"
     stroke="#000000"
     stroke-width="2.73"
     stroke-linejoin="bevel"
     points="336.599,658.998 3996.2,658.998"
     id="polyline3017"
     transform="translate(-212.598,-592.038)" />
  <polyline
     class="StaffLines"
     fill="none"
     stroke="#000000"
     stroke-width="2.73"
     stroke-linejoin="bevel"
     points="336.599,683.798 3996.2,683.798"
     id="polyline3019"
     transform="translate(-212.598,-592.038)" />
  <polyline
     class="StaffLines"
     fill="none"
     stroke="#000000"
     stroke-width="2.73"
     stroke-linejoin="bevel"
     points="336.599,708.598 3996.2,708.598"
     id="polyline3021"
     transform="translate(-212.598,-592.038)" />
  <polyline
     class="StaffLines"
     fill="none"
     stroke="#000000"
     stroke-width="2.73"
     stroke-linejoin="bevel"
     points="336.599,733.398 3996.2,733.398"
     id="polyline3023"
     transform="translate(-212.598,-592.038)" />
  <polyline
     class="StaffLines"
     fill="none"
     stroke="#000000"
     stroke-width="2.73"
     stroke-linejoin="bevel"
     points="212.598,906.999 3996.2,906.999"
     id="polyline3025"
     transform="translate(-212.598,-592.038)" />
  <polyline
     class="StaffLines"
     fill="none"
     stroke="#000000"
     stroke-width="2.73"
     stroke-linejoin="bevel"
     points="212.598,931.799 3996.2,931.799"
     id="polyline3027"
     transform="translate(-212.598,-592.038)" />
  <polyline
     class="StaffLines"
     fill="none"
     stroke="#000000"
     stroke-width="2.73"
     stroke-linejoin="bevel"
     points="212.598,956.599 3996.2,956.599"
     id="polyline3029"
     transform="translate(-212.598,-592.038)" />
  <polyline
     class="StaffLines"
     fill="none"
     stroke="#000000"
     stroke-width="2.73"
     stroke-linejoin="bevel"
     points="212.598,981.399 3996.2,981.399"
     id="polyline3031"
     transform="translate(-212.598,-592.038)" />
  <polyline
     class="StaffLines"
     fill="none"
     stroke="#000000"
     stroke-width="2.73"
     stroke-linejoin="bevel"
     points="212.598,1006.2 3996.2,1006.2"
     id="polyline3033"
     transform="translate(-212.598,-592.038)" />
  <polyline
     class="BarLine"
     fill="none"
     stroke="#000000"
     stroke-width="4.46"
     stroke-linejoin="bevel"
     points="1231.12,632.834 1231.12,734.762"
     id="polyline3045"
     transform="translate(-212.598,-592.038)" />
  <polyline
     class="BarLine"
     fill="none"
     stroke="#000000"
     stroke-width="4.46"
     stroke-linejoin="bevel"
     points="2890.61,632.834 2890.61,734.762"
     id="polyline3047"
     transform="translate(-212.598,-592.038)" />
  <polyline
     class="BarLine"
     fill="none"
     stroke="#000000"
     stroke-width="4.46"
     stroke-linejoin="bevel"
     points="1894.91,632.834 1894.91,734.762"
     id="polyline3049"
     transform="translate(-212.598,-592.038)" />
  <polyline
     class="BarLine"
     fill="none"
     stroke="#000000"
     stroke-width="4.46"
     stroke-linejoin="bevel"
     points="3588.09,632.834 3588.09,734.762"
     id="polyline3051"
     transform="translate(-212.598,-592.038)" />
  <polyline
     class="BarLine"
     fill="none"
     stroke="#000000"
     stroke-width="4.46"
     stroke-linejoin="bevel"
     points="2226.81,632.834 2226.81,734.762"
     id="polyline3053"
     transform="translate(-212.598,-592.038)" />
  <polyline
     class="BarLine"
     fill="none"
     stroke="#000000"
     stroke-width="4.46"
     stroke-linejoin="bevel"
     points="2558.71,632.834 2558.71,734.762"
     id="polyline3055"
     transform="translate(-212.598,-592.038)" />
  <polyline
     class="BarLine"
     fill="none"
     stroke="#000000"
     stroke-width="4.46"
     stroke-linejoin="bevel"
     points="1955.57,905.635 1955.57,1007.56"
     id="polyline3057"
     transform="translate(-212.598,-592.038)" />
  <polyline
     class="BarLine"
     fill="none"
     stroke="#000000"
     stroke-width="4.46"
     stroke-linejoin="bevel"
     points="3517.73,905.635 3517.73,1007.56"
     id="polyline3059"
     transform="translate(-212.598,-592.038)" />
  <polyline
     class="BarLine"
     fill="none"
     stroke="#000000"
     stroke-width="4.46"
     stroke-linejoin="bevel"
     points="899.216,632.834 899.216,734.762"
     id="polyline3061"
     transform="translate(-212.598,-592.038)" />
  <polyline
     class="BarLine"
     fill="none"
     stroke="#000000"
     stroke-width="4.46"
     stroke-linejoin="bevel"
     points="1563.01,632.834 1563.01,734.762"
     id="polyline3063"
     transform="translate(-212.598,-592.038)" />
  <polyline
     class="BarLine"
     fill="none"
     stroke="#000000"
     stroke-width="4.46"
     stroke-linejoin="bevel"
     points="1379.22,905.635 1379.22,1007.56"
     id="polyline3065"
     transform="translate(-212.598,-592.038)" />
  <polyline
     class="BarLine"
     fill="none"
     stroke="#000000"
     stroke-width="4.46"
     stroke-linejoin="bevel"
     points="2531.92,905.635 2531.92,1007.56"
     id="polyline3067"
     transform="translate(-212.598,-592.038)" />
  <polyline
     class="BarLine"
     fill="none"
     stroke="#000000"
     stroke-width="4.46"
     stroke-linejoin="bevel"
     points="3182.2,632.834 3182.2,734.762"
     id="polyline3069"
     transform="translate(-212.598,-592.038)" />
  <polyline
     class="BarLine"
     fill="none"
     stroke="#000000"
     stroke-width="4.46"
     stroke-linejoin="bevel"
     points="3971.15,905.635 3971.15,1007.56"
     id="polyline3071"
     transform="translate(-212.598,-592.038)" />
  <polyline
     class="BarLine"
     fill="none"
     stroke="#000000"
     stroke-width="13.64"
     stroke-linejoin="bevel"
     points="3989.38,905.635 3989.38,1007.56"
     id="polyline3073"
     transform="translate(-212.598,-592.038)" />
  <polyline
     class="BarLine"
     fill="none"
     stroke="#000000"
     stroke-width="4.46"
     stroke-linejoin="bevel"
     points="969.755,905.635 969.755,1007.56"
     id="polyline3075"
     transform="translate(-212.598,-592.038)" />
  <polyline
     class="BarLine"
     fill="none"
     stroke="#000000"
     stroke-width="4.46"
     stroke-linejoin="bevel"
     points="3108.27,905.635 3108.27,1007.56"
     id="polyline3077"
     transform="translate(-212.598,-592.038)" />
  <polyline
     class="BarLine"
     fill="none"
     stroke="#000000"
     stroke-width="4.46"
     stroke-linejoin="bevel"
     points="3993.97,632.834 3993.97,734.762"
     id="polyline3079"
     transform="translate(-212.598,-592.038)" />
  <polyline
     class="LedgerLine"
     fill="none"
     stroke="#000000"
     stroke-width="3.97"
     stroke-linejoin="bevel"
     points="3043.72,609.398 3092.32,609.398"
     id="polyline3097"
     transform="translate(-212.598,-592.038)" />
  <polyline
     class="LedgerLine"
     fill="none"
     stroke="#000000"
     stroke-width="3.97"
     stroke-linejoin="bevel"
     points="924.264,758.199 972.856,758.199"
     id="polyline3105"
     transform="translate(-212.598,-592.038)" />
  <polyline
     class="LedgerLine"
     fill="none"
     stroke="#000000"
     stroke-width="3.97"
     stroke-linejoin="bevel"
     points="1256.16,758.199 1304.76,758.199"
     id="polyline3139"
     transform="translate(-212.598,-592.038)" />
  <polyline
     class="LedgerLine"
     fill="none"
     stroke="#000000"
     stroke-width="3.97"
     stroke-linejoin="bevel"
     points="1588.06,758.199 1636.66,758.199"
     id="polyline3159"
     transform="translate(-212.598,-592.038)" />
  <polyline
     class="LedgerLine"
     fill="none"
     stroke="#000000"
     stroke-width="3.97"
     stroke-linejoin="bevel"
     points="1980.62,882.199 2029.21,882.199"
     id="polyline3171"
     transform="translate(-212.598,-592.038)" />
  <polyline
     class="LedgerLine"
     fill="none"
     stroke="#000000"
     stroke-width="3.97"
     stroke-linejoin="bevel"
     points="1699.29,882.199 1747.89,882.199"
     id="polyline3191"
     transform="translate(-212.598,-592.038)" />
  <polyline
     class="LedgerLine"
     fill="none"
     stroke="#000000"
     stroke-width="3.97"
     stroke-linejoin="bevel"
     points="1502.61,882.199 1551.2,882.199"
     id="polyline3213"
     transform="translate(-212.598,-592.038)" />
  <polyline
     class="LedgerLine"
     fill="none"
     stroke="#000000"
     stroke-width="3.97"
     stroke-linejoin="bevel"
     points="2251.86,758.199 2300.45,758.199"
     id="polyline3221"
     transform="translate(-212.598,-592.038)" />
  <polyline
     class="LedgerLine"
     fill="none"
     stroke="#000000"
     stroke-width="3.97"
     stroke-linejoin="bevel"
     points="1404.27,882.199 1452.86,882.199"
     id="polyline3223"
     transform="translate(-212.598,-592.038)" />
  <polyline
     class="LedgerLine"
     fill="none"
     stroke="#000000"
     stroke-width="3.97"
     stroke-linejoin="bevel"
     points="1181.8,882.199 1230.4,882.199"
     id="polyline3229"
     transform="translate(-212.598,-592.038)" />
  <polyline
     class="LedgerLine"
     fill="none"
     stroke="#000000"
     stroke-width="3.97"
     stroke-linejoin="bevel"
     points="2583.76,758.199 2632.35,758.199"
     id="polyline3261"
     transform="translate(-212.598,-592.038)" />
  <polyline
     class="Stem"
     fill="none"
     stroke="#000000"
     stroke-width="2.48"
     stroke-linejoin="bevel"
     points="2383.41,935.965 2383.41,1018.6"
     id="polyline3293"
     transform="translate(-212.598,-592.038)" />
  <polyline
     class="Stem"
     fill="none"
     stroke="#000000"
     stroke-width="2.48"
     stroke-linejoin="bevel"
     points="2596.13,977.431 2596.13,857.514"
     id="polyline3295"
     transform="translate(-212.598,-592.038)" />
  <polyline
     class="Stem"
     fill="none"
     stroke="#000000"
     stroke-width="2.48"
     stroke-linejoin="bevel"
     points="2694.48,989.831 2694.48,866.699"
     id="polyline3297"
     transform="translate(-212.598,-592.038)" />
  <polyline
     class="Stem"
     fill="none"
     stroke="#000000"
     stroke-width="2.48"
     stroke-linejoin="bevel"
     points="2792.82,1002.23 2792.82,875.883"
     id="polyline3299"
     transform="translate(-212.598,-592.038)" />
  <polyline
     class="Stem"
     fill="none"
     stroke="#000000"
     stroke-width="2.48"
     stroke-linejoin="bevel"
     points="601.788,663.165 601.788,770.599"
     id="polyline3301"
     transform="translate(-212.598,-592.038)" />
  <polyline
     class="Stem"
     fill="none"
     stroke="#000000"
     stroke-width="2.48"
     stroke-linejoin="bevel"
     points="2891.16,989.831 2891.16,851.397"
     id="polyline3303"
     transform="translate(-212.598,-592.038)" />
  <polyline
     class="Stem"
     fill="none"
     stroke="#000000"
     stroke-width="2.48"
     stroke-linejoin="bevel"
     points="2959.76,960.765 2959.76,1031"
     id="polyline3305"
     transform="translate(-212.598,-592.038)" />
  <polyline
     class="Stem"
     fill="none"
     stroke="#000000"
     stroke-width="2.48"
     stroke-linejoin="bevel"
     points="3172.48,989.831 3172.48,869.799"
     id="polyline3307"
     transform="translate(-212.598,-592.038)" />
  <polyline
     class="Stem"
     fill="none"
     stroke="#000000"
     stroke-width="2.48"
     stroke-linejoin="bevel"
     points="3359.48,1014.63 3359.48,888.399"
     id="polyline3309"
     transform="translate(-212.598,-592.038)" />
  <polyline
     class="Stem"
     fill="none"
     stroke="#000000"
     stroke-width="2.48"
     stroke-linejoin="bevel"
     points="3552.2,935.965 3552.2,1043.4"
     id="polyline3311"
     transform="translate(-212.598,-592.038)" />
  <polyline
     class="Stem"
     fill="none"
     stroke="#000000"
     stroke-width="2.48"
     stroke-linejoin="bevel"
     points="729.852,625.965 729.852,708.499"
     id="polyline3313"
     transform="translate(-212.598,-592.038)" />
  <polyline
     class="Stem"
     fill="none"
     stroke="#000000"
     stroke-width="2.48"
     stroke-linejoin="bevel"
     points="797.201,663.165 797.201,745.799"
     id="polyline3315"
     transform="translate(-212.598,-592.038)" />
  <polyline
     class="Stem"
     fill="none"
     stroke="#000000"
     stroke-width="2.48"
     stroke-linejoin="bevel"
     points="963.432,741.83 963.432,615.598"
     id="polyline3317"
     transform="translate(-212.598,-592.038)" />
  <polyline
     class="Stem"
     fill="none"
     stroke="#000000"
     stroke-width="2.48"
     stroke-linejoin="bevel"
     points="1061.75,638.365 1061.75,720.899"
     id="polyline3319"
     transform="translate(-212.598,-592.038)" />
  <polyline
     class="Stem"
     fill="none"
     stroke="#000000"
     stroke-width="2.48"
     stroke-linejoin="bevel"
     points="1129.1,663.165 1129.1,745.799"
     id="polyline3321"
     transform="translate(-212.598,-592.038)" />
  <polyline
     class="Stem"
     fill="none"
     stroke="#000000"
     stroke-width="2.48"
     stroke-linejoin="bevel"
     points="1295.33,766.631 1295.33,621.798"
     id="polyline3323"
     transform="translate(-212.598,-592.038)" />
  <polyline
     class="Stem"
     fill="none"
     stroke="#000000"
     stroke-width="2.48"
     stroke-linejoin="bevel"
     points="1393.65,650.765 1393.65,733.299"
     id="polyline3325"
     transform="translate(-212.598,-592.038)" />
  <polyline
     class="Stem"
     fill="none"
     stroke="#000000"
     stroke-width="2.48"
     stroke-linejoin="bevel"
     points="1461,687.965 1461,758.199"
     id="polyline3327"
     transform="translate(-212.598,-592.038)" />
  <polyline
     class="Stem"
     fill="none"
     stroke="#000000"
     stroke-width="2.48"
     stroke-linejoin="bevel"
     points="1627.23,754.231 1627.23,621.798"
     id="polyline3329"
     transform="translate(-212.598,-592.038)" />
  <polyline
     class="Stem"
     fill="none"
     stroke="#000000"
     stroke-width="2.48"
     stroke-linejoin="bevel"
     points="1725.55,650.765 1725.55,733.299"
     id="polyline3331"
     transform="translate(-212.598,-592.038)" />
  <polyline
     class="Stem"
     fill="none"
     stroke="#000000"
     stroke-width="2.48"
     stroke-linejoin="bevel"
     points="1792.9,687.965 1792.9,758.199"
     id="polyline3333"
     transform="translate(-212.598,-592.038)" />
  <polyline
     class="Stem"
     fill="none"
     stroke="#000000"
     stroke-width="2.48"
     stroke-linejoin="bevel"
     points="1929.39,663.165 1929.39,770.599"
     id="polyline3335"
     transform="translate(-212.598,-592.038)" />
  <polyline
     class="Stem"
     fill="none"
     stroke="#000000"
     stroke-width="2.48"
     stroke-linejoin="bevel"
     points="2057.45,625.965 2057.45,708.499"
     id="polyline3337"
     transform="translate(-212.598,-592.038)" />
  <polyline
     class="Stem"
     fill="none"
     stroke="#000000"
     stroke-width="2.48"
     stroke-linejoin="bevel"
     points="2124.8,663.165 2124.8,745.799"
     id="polyline3339"
     transform="translate(-212.598,-592.038)" />
  <polyline
     class="Stem"
     fill="none"
     stroke="#000000"
     stroke-width="2.48"
     stroke-linejoin="bevel"
     points="2291.03,741.83 2291.03,615.598"
     id="polyline3341"
     transform="translate(-212.598,-592.038)" />
  <polyline
     class="Stem"
     fill="none"
     stroke="#000000"
     stroke-width="2.48"
     stroke-linejoin="bevel"
     points="2389.35,638.365 2389.35,720.899"
     id="polyline3343"
     transform="translate(-212.598,-592.038)" />
  <polyline
     class="Stem"
     fill="none"
     stroke="#000000"
     stroke-width="2.48"
     stroke-linejoin="bevel"
     points="2456.7,663.165 2456.7,745.799"
     id="polyline3345"
     transform="translate(-212.598,-592.038)" />
  <polyline
     class="Stem"
     fill="none"
     stroke="#000000"
     stroke-width="2.48"
     stroke-linejoin="bevel"
     points="2622.93,766.631 2622.93,621.798"
     id="polyline3347"
     transform="translate(-212.598,-592.038)" />
  <polyline
     class="Stem"
     fill="none"
     stroke="#000000"
     stroke-width="2.48"
     stroke-linejoin="bevel"
     points="3418.72,625.965 3418.72,708.499"
     id="polyline3349"
     transform="translate(-212.598,-592.038)" />
  <polyline
     class="Stem"
     fill="none"
     stroke="#000000"
     stroke-width="2.48"
     stroke-linejoin="bevel"
     points="2721.25,650.765 2721.25,733.299"
     id="polyline3351"
     transform="translate(-212.598,-592.038)" />
  <polyline
     class="Stem"
     fill="none"
     stroke="#000000"
     stroke-width="2.48"
     stroke-linejoin="bevel"
     points="2788.6,687.965 2788.6,758.199"
     id="polyline3353"
     transform="translate(-212.598,-592.038)" />
  <polyline
     class="Stem"
     fill="none"
     stroke="#000000"
     stroke-width="2.48"
     stroke-linejoin="bevel"
     points="2925.08,650.765 2925.08,764.399"
     id="polyline3355"
     transform="translate(-212.598,-592.038)" />
  <polyline
     class="Stem"
     fill="none"
     stroke="#000000"
     stroke-width="2.48"
     stroke-linejoin="bevel"
     points="3053.15,613.565 3053.15,751.999"
     id="polyline3357"
     transform="translate(-212.598,-592.038)" />
  <polyline
     class="Stem"
     fill="none"
     stroke="#000000"
     stroke-width="2.48"
     stroke-linejoin="bevel"
     points="3216.68,663.165 3216.68,733.342"
     id="polyline3359"
     transform="translate(-212.598,-592.038)" />
  <polyline
     class="Stem"
     fill="none"
     stroke="#000000"
     stroke-width="2.48"
     stroke-linejoin="bevel"
     points="3284.02,625.965 3284.02,730.298"
     id="polyline3361"
     transform="translate(-212.598,-592.038)" />
  <polyline
     class="Stem"
     fill="none"
     stroke="#000000"
     stroke-width="2.48"
     stroke-linejoin="bevel"
     points="3351.37,638.365 3351.37,727.255"
     id="polyline3363"
     transform="translate(-212.598,-592.038)" />
  <polyline
     class="Stem"
     fill="none"
     stroke="#000000"
     stroke-width="2.48"
     stroke-linejoin="bevel"
     points="624.564,960.765 624.564,1031.08"
     id="polyline3365"
     transform="translate(-212.598,-592.038)" />
  <polyline
     class="Stem"
     fill="none"
     stroke="#000000"
     stroke-width="2.48"
     stroke-linejoin="bevel"
     points="3486.07,663.165 3486.07,745.799"
     id="polyline3367"
     transform="translate(-212.598,-592.038)" />
  <polyline
     class="Stem"
     fill="none"
     stroke="#000000"
     stroke-width="2.48"
     stroke-linejoin="bevel"
     points="3622.56,700.365 3622.56,764.23"
     id="polyline3369"
     transform="translate(-212.598,-592.038)" />
  <polyline
     class="Stem"
     fill="none"
     stroke="#000000"
     stroke-width="2.48"
     stroke-linejoin="bevel"
     points="3689.91,638.365 3689.91,755.099"
     id="polyline3371"
     transform="translate(-212.598,-592.038)" />
  <polyline
     class="Stem"
     fill="none"
     stroke="#000000"
     stroke-width="2.48"
     stroke-linejoin="bevel"
     points="3757.25,663.165 3757.25,745.967"
     id="polyline3373"
     transform="translate(-212.598,-592.038)" />
  <polyline
     class="Stem"
     fill="none"
     stroke="#000000"
     stroke-width="2.48"
     stroke-linejoin="bevel"
     points="3824.6,638.365 3824.6,720.899"
     id="polyline3375"
     transform="translate(-212.598,-592.038)" />
  <polyline
     class="Stem"
     fill="none"
     stroke="#000000"
     stroke-width="2.48"
     stroke-linejoin="bevel"
     points="3891.95,663.165 3891.95,745.799"
     id="polyline3377"
     transform="translate(-212.598,-592.038)" />
  <polyline
     class="Stem"
     fill="none"
     stroke="#000000"
     stroke-width="2.48"
     stroke-linejoin="bevel"
     points="427.878,985.565 427.878,1043.32"
     id="polyline3379"
     transform="translate(-212.598,-592.038)" />
  <polyline
     class="Stem"
     fill="none"
     stroke="#000000"
     stroke-width="2.48"
     stroke-linejoin="bevel"
     points="526.221,923.565 526.221,1037.2"
     id="polyline3381"
     transform="translate(-212.598,-592.038)" />
  <polyline
     class="Stem"
     fill="none"
     stroke="#000000"
     stroke-width="2.48"
     stroke-linejoin="bevel"
     points="722.906,923.565 722.906,1006.1"
     id="polyline3383"
     transform="translate(-212.598,-592.038)" />
  <polyline
     class="Stem"
     fill="none"
     stroke="#000000"
     stroke-width="2.48"
     stroke-linejoin="bevel"
     points="821.249,960.765 821.249,1031"
     id="polyline3385"
     transform="translate(-212.598,-592.038)" />
  <polyline
     class="Stem"
     fill="none"
     stroke="#000000"
     stroke-width="2.48"
     stroke-linejoin="bevel"
     points="1004.23,923.565 1004.23,1037.2"
     id="polyline3387"
     transform="translate(-212.598,-592.038)" />
  <polyline
     class="Stem"
     fill="none"
     stroke="#000000"
     stroke-width="2.48"
     stroke-linejoin="bevel"
     points="1191.23,886.365 1191.23,1024.8"
     id="polyline3389"
     transform="translate(-212.598,-592.038)" />
  <polyline
     class="Stem"
     fill="none"
     stroke="#000000"
     stroke-width="2.48"
     stroke-linejoin="bevel"
     points="1413.69,873.965 1413.69,950.476"
     id="polyline3391"
     transform="translate(-212.598,-592.038)" />
  <polyline
     class="Stem"
     fill="none"
     stroke="#000000"
     stroke-width="2.48"
     stroke-linejoin="bevel"
     points="1512.03,886.365 1512.03,956.599"
     id="polyline3393"
     transform="translate(-212.598,-592.038)" />
  <polyline
     class="Stem"
     fill="none"
     stroke="#000000"
     stroke-width="2.48"
     stroke-linejoin="bevel"
     points="1610.38,898.765 1610.38,962.722"
     id="polyline3395"
     transform="translate(-212.598,-592.038)" />
  <polyline
     class="Stem"
     fill="none"
     stroke="#000000"
     stroke-width="2.48"
     stroke-linejoin="bevel"
     points="1708.72,886.365 1708.72,968.9"
     id="polyline3397"
     transform="translate(-212.598,-592.038)" />
  <polyline
     class="Stem"
     fill="none"
     stroke="#000000"
     stroke-width="2.48"
     stroke-linejoin="bevel"
     points="1807.06,935.965 1807.06,1018.6"
     id="polyline3399"
     transform="translate(-212.598,-592.038)" />
  <polyline
     class="Stem"
     fill="none"
     stroke="#000000"
     stroke-width="2.48"
     stroke-linejoin="bevel"
     points="1990.04,886.365 1990.04,975.237"
     id="polyline3401"
     transform="translate(-212.598,-592.038)" />
  <polyline
     class="Stem"
     fill="none"
     stroke="#000000"
     stroke-width="2.48"
     stroke-linejoin="bevel"
     points="2088.38,898.765 2088.38,978.299"
     id="polyline3403"
     transform="translate(-212.598,-592.038)" />
  <polyline
     class="Stem"
     fill="none"
     stroke="#000000"
     stroke-width="2.48"
     stroke-linejoin="bevel"
     points="2186.73,911.165 2186.73,981.36"
     id="polyline3405"
     transform="translate(-212.598,-592.038)" />
  <polyline
     class="Stem"
     fill="none"
     stroke="#000000"
     stroke-width="2.48"
     stroke-linejoin="bevel"
     points="2285.07,898.765 2285.07,981.3"
     id="polyline3407"
     transform="translate(-212.598,-592.038)" />
  <path
     class="Hook"
     d="m 509.068,414.069 c 0,0.68201 0.589,1.28652 1.28651,1.28652 0.496,0 1.10049,-0.40301 1.19349,-0.79051 0,-0.1085 0.899,-3.58051 0.992,-3.875 0.093,-0.403 0.992,-4.16951 4.55701,-10.01306 3.875,-6.44801 9.82701,-11.11349 14.78701,-18.0575 4.96001,-6.944 7.84306,-13.50054 7.84306,-22.22697 0,-9.02106 -1.984,-16.56959 -7.34706,-26.19508 -0.29452,-0.69747 -0.89895,-1.08495 -1.488,-1.08495 -0.20147,0 -0.40295,0 -0.496,0.0929 -0.496,0.20148 -0.69747,0.60453 -0.69747,1.19348 0,0.29453 0.10852,0.69758 0.29452,1.19358 3.968,9.22243 5.56443,14.47696 5.56443,21.62244 0,8.23054 -2.88295,12.50853 -4.66548,15.57758 -6.448,11.00496 -16.86402,16.36803 -21.03352,17.76297 -0.6975,0.20148 -0.7905,0.79053 -0.7905,1.08506 v 22.4285"
     id="path3409"
     style="stroke-width:0.992001" />
  <path
     class="Hook"
     d="m 2677.322,281.6825 c 0,0.29452 0.093,0.88357 0.7905,1.08506 4.2625,1.39494 12.803,6.75801 19.251,17.76296 1.7825,3.06906 4.6656,7.34706 4.6656,15.57759 0,7.14549 -1.798,14.47697 -4.464,21.62244 -0.2016,0.60453 -0.31,1.10053 -0.31,1.48801 0,0.69757 0.4029,0.992 1.1004,0.992 0.589,0 1.085,-0.38748 1.488,-1.08495 4.464,-7.93601 6.1536,-17.17402 6.1536,-26.19508 -0.496,-12.80296 -7.8431,-22.22697 -7.8431,-22.22697 0.2945,0 -9.1295,-12.19854 -11.811,-16.36802 -3.658,-5.65753 -5.3475,-11.29954 -5.549,-11.70254 -0.093,-0.29449 -0.992,-3.875 -0.992,-3.875 -0.093,-0.3875 -0.589,-0.79051 -1.1935,-0.79051 -0.6975,0 -1.2865,0.60451 -1.2865,1.28651 v 22.4285"
     id="path3411"
     style="stroke-width:0.992001" />
  <path
     class="Hook"
     d="m 1511.712,141.267 c 0,0.682 0.589,1.28651 1.2865,1.28651 0.496,0 1.1005,-0.40301 1.1935,-0.79051 0,-0.1085 0.899,-3.58051 0.992,-3.875 0.093,-0.403 0.992,-4.16951 4.557,-10.01306 3.875,-6.44801 9.827,-11.11349 14.787,-18.0575 4.96,-6.94399 7.8431,-13.500535 7.8431,-22.226965 0,-9.02106 -1.984,-16.56959 -7.3471,-26.19508 -0.2945,-0.69747 -0.8989,-1.08495 -1.488,-1.08495 -0.2015,0 -0.4029,0 -0.496,0.093 -0.496,0.20148 -0.6975,0.60453 -0.6975,1.19348 0,0.29453 0.1086,0.69758 0.2946,1.19358 3.968,9.22243 5.5644,14.47696 5.5644,21.62244 0,8.23054 -2.883,12.50854 -4.6655,15.57759 -6.448,11.004955 -16.864,16.368015 -21.0335,17.762965 -0.6975,0.20148 -0.7905,0.79053 -0.7905,1.08505 v 22.4285"
     id="path3413"
     style="stroke-width:0.992001" />
  <path
     class="Hook"
     d="m 1494.882,376.86801 c 0,0.682 0.589,1.28651 1.2865,1.28651 0.496,0 1.1005,-0.40301 1.1935,-0.79051 0,-0.1085 0.899,-3.58051 0.992,-3.875 0.093,-0.403 0.992,-4.16951 4.557,-10.01306 3.875,-6.44801 9.827,-11.11349 14.787,-18.0575 4.96,-6.944 7.8431,-13.50054 7.8431,-22.22697 0,-9.02106 -1.984,-16.56959 -7.3471,-26.19508 -0.2945,-0.69747 -0.8989,-1.08495 -1.488,-1.08495 -0.2015,0 -0.4029,0 -0.496,0.0929 -0.496,0.20148 -0.6975,0.60453 -0.6975,1.19348 0,0.29453 0.1086,0.69758 0.2946,1.19358 3.968,9.22243 5.5644,14.47696 5.5644,21.62244 0,8.23054 -2.883,12.50854 -4.6655,15.57759 -6.448,11.00496 -16.864,16.36802 -21.0335,17.76297 -0.6975,0.20148 -0.7905,0.79053 -0.7905,1.08505 v 22.4285"
     id="path3415"
     style="stroke-width:0.992001" />
  <path
     class="Hook"
     d="m 1179.812,141.267 c 0,0.682 0.589,1.28651 1.2865,1.28651 0.496,0 1.1005,-0.40301 1.1935,-0.79051 0,-0.1085 0.899,-3.58051 0.992,-3.875 0.093,-0.403 0.992,-4.16951 4.557,-10.01306 3.875,-6.44801 9.827,-11.11349 14.787,-18.0575 4.96,-6.94399 7.8431,-13.500535 7.8431,-22.226965 0,-9.02106 -1.984,-16.56959 -7.3471,-26.19508 -0.2945,-0.69747 -0.8989,-1.08495 -1.488,-1.08495 -0.2015,0 -0.4029,0 -0.496,0.093 -0.496,0.20148 -0.6975,0.60453 -0.6975,1.19348 0,0.29453 0.1086,0.69758 0.2946,1.19358 3.968,9.22243 5.5644,14.47696 5.5644,21.62244 0,8.23054 -2.883,12.50854 -4.6655,15.57759 -6.448,11.004955 -16.864,16.368015 -21.0335,17.762965 -0.6975,0.20148 -0.7905,0.79053 -0.7905,1.08505 v 22.4285"
     id="path3417"
     style="stroke-width:0.992001" />
  <path
     class="Hook"
     d="m 3204.882,116.46701 c 0,0.682 0.589,1.28651 1.2865,1.28651 0.496,0 1.1005,-0.40301 1.1935,-0.79051 0,-0.1085 0.899,-3.58051 0.992,-3.875 0.093,-0.403 0.992,-4.16951 4.557,-10.01306 3.875,-6.448015 9.827,-11.113495 14.787,-18.057505 4.96,-6.944 7.8431,-13.50054 7.8431,-22.22697 0,-9.02106 -1.984,-16.56959 -7.3471,-26.195075 -0.2945,-0.697476 -0.8989,-1.084952 -1.488,-1.084952 -0.2015,0 -0.4029,0 -0.496,0.09295 -0.496,0.201475 -0.6975,0.604525 -0.6975,1.193477 0,0.29453 0.1086,0.69758 0.2946,1.19358 3.968,9.22243 5.5644,14.47696 5.5644,21.62244 0,8.23054 -2.883,12.50854 -4.6655,15.57759 -6.448,11.00496 -16.864,16.36802 -21.0335,17.76297 -0.6975,0.20148 -0.7905,0.79053 -0.7905,1.08505 v 22.428505"
     id="path3419"
     style="stroke-width:0.992001" />
  <path
     class="Hook"
     d="m 2071.232,389.26801 c 0,0.682 0.589,1.28651 1.2865,1.28651 0.496,0 1.1005,-0.40301 1.1935,-0.79051 0,-0.1085 0.899,-3.58051 0.992,-3.875 0.093,-0.403 0.992,-4.16951 4.557,-10.01306 3.875,-6.44801 9.827,-11.11349 14.787,-18.0575 4.96,-6.944 7.8431,-13.50054 7.8431,-22.22697 0,-9.02106 -1.984,-16.56959 -7.3471,-26.19508 -0.2945,-0.69747 -0.8989,-1.08495 -1.488,-1.08495 -0.2015,0 -0.4029,0 -0.496,0.093 -0.496,0.20148 -0.6975,0.60453 -0.6975,1.19348 0,0.29453 0.1086,0.69758 0.2946,1.19358 3.968,9.22243 5.5644,14.47696 5.5644,21.62244 0,8.23054 -2.883,12.50854 -4.6655,15.57759 -6.448,11.00496 -16.864,16.36802 -21.0335,17.76297 -0.6975,0.20148 -0.7905,0.79053 -0.7905,1.08505 v 22.4285"
     id="path3421"
     style="stroke-width:0.992001" />
  <path
     class="Hook"
     d="m 516.014,116.46701 c 0,0.682 0.589,1.28651 1.28651,1.28651 0.496,0 1.10049,-0.40301 1.19349,-0.79051 0,-0.1085 0.899,-3.58051 0.992,-3.875 0.093,-0.403 0.992,-4.16951 4.55701,-10.01306 3.875,-6.448015 9.82701,-11.113495 14.78701,-18.057505 4.96001,-6.944 7.84306,-13.50054 7.84306,-22.22697 0,-9.02106 -1.984,-16.56959 -7.34706,-26.195075 -0.29452,-0.697476 -0.89895,-1.084952 -1.488,-1.084952 -0.20147,0 -0.40295,0 -0.496,0.09295 -0.496,0.201475 -0.69747,0.604525 -0.69747,1.193477 0,0.29453 0.10852,0.69758 0.29452,1.19358 3.968,9.22243 5.56443,14.47696 5.56443,21.62244 0,8.23054 -2.88295,12.50854 -4.66548,15.57759 -6.448,11.00496 -16.86402,16.36802 -21.03352,17.76297 -0.6975,0.20148 -0.7905,0.79053 -0.7905,1.08505 v 22.428505"
     id="path3423"
     style="stroke-width:0.992001" />
  <path
     class="Hook"
     d="m 847.912,128.867 c 0,0.682 0.589,1.28651 1.28651,1.28651 0.496,0 1.10049,-0.40301 1.19349,-0.79051 0,-0.1085 0.899,-3.58051 0.992,-3.875 0.093,-0.403 0.992,-4.16951 4.55701,-10.01306 3.875,-6.44801 9.82701,-11.11349 14.78701,-18.057495 4.96001,-6.944 7.84306,-13.50054 7.84306,-22.22697 0,-9.02106 -1.984,-16.56959 -7.34706,-26.19508 -0.29452,-0.69747 -0.89895,-1.08495 -1.488,-1.08495 -0.20147,0 -0.40295,0 -0.496,0.093 -0.496,0.20148 -0.69747,0.60453 -0.69747,1.19348 0,0.29453 0.10852,0.69758 0.29452,1.19358 3.968,9.22243 5.56443,14.47696 5.56443,21.62244 0,8.23054 -2.88295,12.50854 -4.66548,15.57759 -6.448,11.00496 -16.86401,16.368015 -21.03352,17.762965 -0.6975,0.20148 -0.7905,0.79053 -0.7905,1.08505 v 22.4285"
     id="path3425"
     style="stroke-width:0.992001" />
  <path
     class="Hook"
     d="m 2175.512,128.867 c 0,0.682 0.589,1.28651 1.2865,1.28651 0.496,0 1.1005,-0.40301 1.1935,-0.79051 0,-0.1085 0.899,-3.58051 0.992,-3.875 0.093,-0.403 0.992,-4.16951 4.557,-10.01306 3.875,-6.44801 9.827,-11.11349 14.787,-18.057495 4.96,-6.944 7.8431,-13.50054 7.8431,-22.22697 0,-9.02106 -1.984,-16.56959 -7.3471,-26.19508 -0.2945,-0.69747 -0.8989,-1.08495 -1.488,-1.08495 -0.2015,0 -0.4029,0 -0.496,0.093 -0.496,0.20148 -0.6975,0.60453 -0.6975,1.19348 0,0.29453 0.1086,0.69758 0.2946,1.19358 3.968,9.22243 5.5644,14.47696 5.5644,21.62244 0,8.23054 -2.883,12.50854 -4.6655,15.57759 -6.448,11.00496 -16.864,16.368015 -21.0335,17.762965 -0.6975,0.20148 -0.7905,0.79053 -0.7905,1.08505 v 22.4285"
     id="path3427"
     style="stroke-width:0.992001" />
  <path
     class="Hook"
     d="m 2507.412,141.267 c 0,0.682 0.589,1.28651 1.2865,1.28651 0.496,0 1.1005,-0.40301 1.1935,-0.79051 0,-0.1085 0.899,-3.58051 0.992,-3.875 0.093,-0.403 0.992,-4.16951 4.557,-10.01306 3.875,-6.44801 9.827,-11.11349 14.787,-18.0575 4.96,-6.94399 7.8431,-13.500535 7.8431,-22.226965 0,-9.02106 -1.984,-16.56959 -7.3471,-26.19508 -0.2945,-0.69747 -0.8989,-1.08495 -1.488,-1.08495 -0.2015,0 -0.4029,0 -0.496,0.093 -0.496,0.20148 -0.6975,0.60453 -0.6975,1.19348 0,0.29453 0.1086,0.69758 0.2946,1.19358 3.968,9.22243 5.5644,14.47696 5.5644,21.62244 0,8.23054 -2.883,12.50854 -4.6655,15.57759 -6.448,11.004955 -16.864,16.368015 -21.0335,17.762965 -0.6975,0.20148 -0.7905,0.79053 -0.7905,1.08505 v 22.4285"
     id="path3429"
     style="stroke-width:0.992001" />
  <path
     class="Hook"
     d="m 1843.612,116.46701 c 0,0.682 0.589,1.28651 1.2865,1.28651 0.496,0 1.1005,-0.40301 1.1935,-0.79051 0,-0.1085 0.899,-3.58051 0.992,-3.875 0.093,-0.403 0.992,-4.16951 4.557,-10.01306 3.875,-6.448015 9.827,-11.113495 14.787,-18.057505 4.96,-6.944 7.8431,-13.50054 7.8431,-22.22697 0,-9.02106 -1.984,-16.56959 -7.3471,-26.195075 -0.2945,-0.697476 -0.8989,-1.084952 -1.488,-1.084952 -0.2015,0 -0.4029,0 -0.496,0.09295 -0.496,0.201475 -0.6975,0.604525 -0.6975,1.193477 0,0.29453 0.1086,0.69758 0.2946,1.19358 3.968,9.22243 5.5644,14.47696 5.5644,21.62244 0,8.23054 -2.883,12.50854 -4.6655,15.57759 -6.448,11.00496 -16.864,16.36802 -21.0335,17.76297 -0.6975,0.20148 -0.7905,0.79053 -0.7905,1.08505 v 22.428505"
     id="path3431"
     style="stroke-width:0.992001" />
  <path
     class="Hook"
     d="m 3610.762,128.867 c 0,0.682 0.589,1.28651 1.2865,1.28651 0.496,0 1.1005,-0.40301 1.1935,-0.79051 0,-0.1085 0.899,-3.58051 0.992,-3.875 0.093,-0.403 0.992,-4.16951 4.557,-10.01306 3.875,-6.44801 9.827,-11.11349 14.787,-18.057495 4.96,-6.944 7.8431,-13.50054 7.8431,-22.22697 0,-9.02106 -1.984,-16.56959 -7.3471,-26.19508 -0.2945,-0.69747 -0.8989,-1.08495 -1.488,-1.08495 -0.2015,0 -0.4029,0 -0.496,0.093 -0.496,0.20148 -0.6975,0.60453 -0.6975,1.19348 0,0.29453 0.1086,0.69758 0.2946,1.19358 3.968,9.22243 5.5644,14.47696 5.5644,21.62244 0,8.23054 -2.883,12.50854 -4.6655,15.57759 -6.448,11.00496 -16.864,16.368015 -21.0335,17.762965 -0.6975,0.20148 -0.7905,0.79053 -0.7905,1.08505 v 22.4285"
     id="path3433"
     style="stroke-width:0.992001" />
  <path
     class="Note"
     d="m 3272.232,71.129515 c 0,4.2625 3.069,9.02103 11.1135,9.02103 10.3076,0 21.1265,-8.43203 21.1265,-17.15854 0,-5.85901 -4.96,-9.12949 -11.1135,-9.12949 -9.6254,0 -21.1265,8.13749 -21.1265,17.267"
     id="path3435"
     style="stroke-width:0.992001" />
  <path
     class="Note"
     d="m 2549.232,368.73052 c 0,4.2625 3.069,9.02103 11.1135,9.02103 10.3076,0 21.1265,-8.43203 21.1265,-17.15855 0,-5.85901 -4.96,-9.12948 -11.1135,-9.12948 -9.6254,0 -21.1265,8.13749 -21.1265,17.267"
     id="path3437"
     style="stroke-width:0.992001" />
  <path
     class="Note"
     d="m 847.912,46.329515 c 0,4.2625 3.069,9.02103 11.11349,9.02103 10.30758,0 21.12654,-8.43203 21.12654,-17.15854 0,-5.85901 -4.96,-9.129488 -11.11348,-9.129488 -9.62549,0 -21.12655,8.137488 -21.12655,17.266998"
     id="path3439"
     style="stroke-width:0.992001" />
  <path
     class="Note"
     d="m 2647.582,405.93052 c 0,4.26249 3.069,9.02102 11.1135,9.02102 10.3076,0 21.1265,-8.43203 21.1265,-17.15854 0,-5.85901 -4.96,-9.12948 -11.1135,-9.12948 -9.6254,0 -21.1265,8.13747 -21.1265,17.267"
     id="path3441"
     style="stroke-width:0.992001" />
  <path
     class="Note"
     d="m 387.95,120.72952 c 0,4.2625 3.069,9.02103 11.11349,9.02103 10.30758,0 21.12654,-8.43203 21.12654,-17.15854 0,-5.85901 -4.96,-9.12949 -11.11348,-9.12949 -9.62549,0 -21.12655,8.13748 -21.12655,17.267"
     id="path3443"
     style="stroke-width:0.992001" />
  <path
     class="Note"
     d="m 2647.582,343.93052 c 0,4.26249 3.069,9.02102 11.1135,9.02102 10.3076,0 21.1265,-8.43203 21.1265,-17.15854 0,-5.85901 -4.96,-9.12948 -11.1135,-9.12948 -9.6254,0 -21.1265,8.13747 -21.1265,17.267"
     id="path3445"
     style="stroke-width:0.992001" />
  <path
     class="Note"
     d="m 387.95,95.929515 c 0,4.262495 3.069,9.021035 11.11349,9.021035 10.30758,0 21.12654,-8.432035 21.12654,-17.158545 0,-5.85901 -4.96,-9.12949 -11.11348,-9.12949 -9.62549,0 -21.12655,8.13749 -21.12655,17.267"
     id="path3447"
     style="stroke-width:0.992001" />
  <path
     class="Note"
     d="m 2711.242,83.529515 c 0,4.2625 3.069,9.02103 11.1135,9.02103 10.3076,0 21.1265,-8.43203 21.1265,-17.15854 0,-5.85901 -4.96,-9.12949 -11.1135,-9.12949 -9.6254,0 -21.1265,8.13749 -21.1265,17.267"
     id="path3449"
     style="stroke-width:0.992001" />
  <path
     class="Note"
     d="m 387.95,71.129515 c 0,4.2625 3.069,9.02103 11.11349,9.02103 10.30758,0 21.12654,-8.43203 21.12654,-17.15854 0,-5.85901 -4.96,-9.12949 -11.11348,-9.12949 -9.62549,0 -21.12655,8.13749 -21.12655,17.267"
     id="path3451"
     style="stroke-width:0.992001" />
  <path
     class="Note"
     d="m 2711.242,108.32952 c 0,4.2625 3.069,9.02103 11.1135,9.02103 10.3076,0 21.1265,-8.43203 21.1265,-17.15854 0,-5.859015 -4.96,-9.129495 -11.1135,-9.129495 -9.6254,0 -21.1265,8.13748 -21.1265,17.267005"
     id="path3453"
     style="stroke-width:0.992001" />
  <path
     class="Note"
     d="m 3678.112,71.129515 c 0,4.2625 3.069,9.02103 11.1135,9.02103 10.3076,0 21.1265,-8.43203 21.1265,-17.15854 0,-5.85901 -4.96,-9.12949 -11.1135,-9.12949 -9.6254,0 -21.1265,8.13749 -21.1265,17.267"
     id="path3455"
     style="stroke-width:0.992001" />
  <path
     class="Note"
     d="m 2574.762,95.929515 c 0,4.262495 3.069,9.021035 11.1135,9.021035 10.3076,0 21.1265,-8.432035 21.1265,-17.158545 0,-5.85901 -4.96,-9.12949 -11.1135,-9.12949 -9.6254,0 -21.1265,8.13749 -21.1265,17.267"
     id="path3457"
     style="stroke-width:0.992001" />
  <path
     class="Note"
     d="m 2507.412,58.729515 c 0,4.2625 3.069,9.02103 11.1135,9.02103 10.3076,0 21.1265,-8.43203 21.1265,-17.15854 0,-5.85901 -4.96,-9.12949 -11.1135,-9.12949 -9.6254,0 -21.1265,8.13748 -21.1265,17.267"
     id="path3459"
     style="stroke-width:0.992001" />
  <path
     class="Note"
     d="m 2745.922,368.73052 c 0,4.2625 3.069,9.02103 11.1135,9.02103 10.3076,0 21.1265,-8.43203 21.1265,-17.15855 0,-5.85901 -4.96,-9.12948 -11.1135,-9.12948 -9.6254,0 -21.1265,8.13749 -21.1265,17.267"
     id="path3461"
     style="stroke-width:0.992001" />
  <path
     class="Note"
     d="m 719.85,108.32952 c 0,4.2625 3.069,9.02103 11.11349,9.02103 10.30758,0 21.12654,-8.43203 21.12654,-17.15854 0,-5.859015 -4.96,-9.129495 -11.11348,-9.129495 -9.62549,0 -21.12655,8.13748 -21.12655,17.267005"
     id="path3463"
     style="stroke-width:0.992001" />
  <path
     class="Note"
     d="m 3610.762,46.329515 c 0,4.2625 3.069,9.02103 11.1135,9.02103 10.3076,0 21.1265,-8.43203 21.1265,-17.15854 0,-5.85901 -4.96,-9.129488 -11.1135,-9.129488 -9.6254,0 -21.1265,8.137488 -21.1265,17.266998"
     id="path3465"
     style="stroke-width:0.992001" />
  <path
     class="Note"
     d="m 3002.842,71.129515 c 0,4.2625 3.069,9.02103 11.1135,9.02103 10.3076,0 21.1265,-8.43203 21.1265,-17.15854 0,-5.85901 -4.96,-9.12949 -11.1135,-9.12949 -9.6254,0 -21.1265,8.13749 -21.1265,17.267"
     id="path3467"
     style="stroke-width:0.992001" />
  <path
     class="Note"
     d="m 214.04,393.53052 c 0,4.2625 3.069,9.02103 11.11349,9.02103 10.30758,0 21.12654,-8.43203 21.12654,-17.15854 0,-5.85902 -4.96,-9.12949 -11.11348,-9.12949 -9.62549,0 -21.12655,8.13748 -21.12655,17.267"
     id="path3469"
     style="stroke-width:0.992001" />
  <path
     class="Note"
     d="m 719.85,133.12952 c 0,4.2625 3.069,9.02103 11.11349,9.02103 10.30758,0 21.12654,-8.43203 21.12654,-17.15854 0,-5.85901 -4.96,-9.12949 -11.11348,-9.12949 -9.62549,0 -21.12655,8.13749 -21.12655,17.267"
     id="path3471"
     style="stroke-width:0.992001" />
  <path
     class="Note"
     d="m 2047.452,108.32952 c 0,4.2625 3.069,9.02103 11.1135,9.02103 10.3076,0 21.1265,-8.43203 21.1265,-17.15854 0,-5.859015 -4.96,-9.129495 -11.1135,-9.129495 -9.6254,0 -21.1265,8.13748 -21.1265,17.267005"
     id="path3473"
     style="stroke-width:0.992001" />
  <path
     class="Note"
     d="m 2379.342,120.72952 c 0,4.2625 3.069,9.02103 11.1135,9.02103 10.3076,0 21.1265,-8.43203 21.1265,-17.15854 0,-5.85901 -4.96,-9.12949 -11.1135,-9.12949 -9.6254,0 -21.1265,8.13748 -21.1265,17.267"
     id="path3475"
     style="stroke-width:0.992001" />
  <path
     class="Note"
     d="m 2928.902,405.93052 c 0,4.26249 3.069,9.02102 11.1135,9.02102 10.3076,0 21.1265,-8.43203 21.1265,-17.15854 0,-5.85901 -4.96,-9.12948 -11.1135,-9.12948 -9.6254,0 -21.1265,8.13747 -21.1265,17.267"
     id="path3477"
     style="stroke-width:0.992001" />
  <path
     class="Note"
     d="m 312.383,331.53052 c 0,4.2625 3.069,9.02103 11.11349,9.02103 10.30758,0 21.12654,-8.43203 21.12654,-17.15854 0,-5.85902 -4.96,-9.12949 -11.11348,-9.12949 -9.62549,0 -21.12655,8.13748 -21.12655,17.267"
     id="path3479"
     style="stroke-width:0.992001" />
  <path
     class="Note"
     d="m 2379.342,145.52951 c 0,4.2625 3.069,9.02103 11.1135,9.02103 10.3076,0 21.1265,-8.43203 21.1265,-17.15854 0,-5.85901 -4.96,-9.12949 -11.1135,-9.12949 -9.6254,0 -21.1265,8.1375 -21.1265,17.267"
     id="path3481"
     style="stroke-width:0.992001" />
  <path
     class="Note"
     d="m 410.726,368.73052 c 0,4.2625 3.069,9.02103 11.11349,9.02103 10.30758,0 21.12654,-8.43203 21.12654,-17.15855 0,-5.85901 -4.96,-9.12948 -11.11348,-9.12948 -9.62549,0 -21.12655,8.13749 -21.12655,17.267"
     id="path3483"
     style="stroke-width:0.992001" />
  <path
     class="Note"
     d="m 2928.902,368.73052 c 0,4.2625 3.069,9.02103 11.1135,9.02103 10.3076,0 21.1265,-8.43203 21.1265,-17.15855 0,-5.85901 -4.96,-9.12948 -11.1135,-9.12948 -9.6254,0 -21.1265,8.13749 -21.1265,17.267"
     id="path3485"
     style="stroke-width:0.992001" />
  <path
     class="Note"
     d="m 2928.902,343.93052 c 0,4.26249 3.069,9.02102 11.1135,9.02102 10.3076,0 21.1265,-8.43203 21.1265,-17.15854 0,-5.85901 -4.96,-9.12948 -11.1135,-9.12948 -9.6254,0 -21.1265,8.13747 -21.1265,17.267"
     id="path3487"
     style="stroke-width:0.992001" />
  <path
     class="Note"
     d="m 2379.342,182.73052 c 0,4.2625 3.069,9.02103 11.1135,9.02103 10.3076,0 21.1265,-8.43203 21.1265,-17.15854 0,-5.85901 -4.96,-9.12949 -11.1135,-9.12949 -9.6254,0 -21.1265,8.13749 -21.1265,17.267"
     id="path3489"
     style="stroke-width:0.992001" />
  <path
     class="Note"
     d="m 509.068,331.53052 c 0,4.2625 3.069,9.02103 11.11349,9.02103 10.30758,0 21.12654,-8.43203 21.12654,-17.15854 0,-5.85902 -4.96,-9.12949 -11.11348,-9.12949 -9.62549,0 -21.12655,8.13748 -21.12655,17.267"
     id="path3491"
     style="stroke-width:0.992001" />
  <path
     class="Note"
     d="m 2839.312,21.529514 c 0,4.2625 3.069,9.021029 11.1135,9.021029 10.3076,0 21.1265,-8.432028 21.1265,-17.158542 0,-5.859006 -4.96,-9.129484 -11.1135,-9.129484 -9.6254,0 -21.1265,8.137483 -21.1265,17.266997"
     id="path3493"
     style="stroke-width:0.992001" />
  <path
     class="Note"
     d="m 2242.862,71.129515 c 0,4.2625 3.069,9.02103 11.1135,9.02103 10.3076,0 21.1265,-8.43203 21.1265,-17.15854 0,-5.85901 -4.96,-9.12949 -11.1135,-9.12949 -9.6254,0 -21.1265,8.13749 -21.1265,17.267"
     id="path3495"
     style="stroke-width:0.992001" />
  <path
     class="Note"
     d="m 607.411,368.73052 c 0,4.2625 3.069,9.02103 11.11349,9.02103 10.30758,0 21.12654,-8.43203 21.12654,-17.15855 0,-5.85901 -4.96,-9.12948 -11.11348,-9.12948 -9.62549,0 -21.12655,8.13749 -21.12655,17.267"
     id="path3497"
     style="stroke-width:0.992001" />
  <path
     class="Note"
     d="m 2175.512,46.329515 c 0,4.2625 3.069,9.02103 11.1135,9.02103 10.3076,0 21.1265,-8.43203 21.1265,-17.15854 0,-5.85901 -4.96,-9.129488 -11.1135,-9.129488 -9.6254,0 -21.1265,8.137488 -21.1265,17.266998"
     id="path3499"
     style="stroke-width:0.992001" />
  <path
     class="Note"
     d="m 3137.532,46.329515 c 0,4.2625 3.069,9.02103 11.1135,9.02103 10.3076,0 21.1265,-8.43203 21.1265,-17.15854 0,-5.85901 -4.96,-9.129488 -11.1135,-9.129488 -9.6254,0 -21.1265,8.137488 -21.1265,17.266998"
     id="path3501"
     style="stroke-width:0.992001" />
  <path
     class="Note"
     d="m 719.85,157.93052 c 0,4.26249 3.069,9.02102 11.11349,9.02102 10.30758,0 21.12654,-8.43203 21.12654,-17.15853 0,-5.85902 -4.96,-9.12949 -11.11348,-9.12949 -9.62549,0 -21.12655,8.13748 -21.12655,17.267"
     id="path3503"
     style="stroke-width:0.992001" />
  <path
     class="Note"
     d="m 3115.902,430.73151 c 0,4.2625 3.069,9.02103 11.1135,9.02103 10.3076,0 21.1265,-8.43203 21.1265,-17.15854 0,-5.85901 -4.96,-9.12949 -11.1135,-9.12949 -9.6254,0 -21.1265,8.1375 -21.1265,17.267"
     id="path3505"
     style="stroke-width:0.992001" />
  <path
     class="Note"
     d="m 790.392,381.13051 c 0,4.2625 3.069,9.02103 11.11349,9.02103 10.30758,0 21.12654,-8.43203 21.12654,-17.15854 0,-5.85901 -4.96,-9.12949 -11.11348,-9.12949 -9.62549,0 -21.12655,8.1375 -21.12655,17.267"
     id="path3507"
     style="stroke-width:0.992001" />
  <path
     class="Note"
     d="m 3115.902,405.93052 c 0,4.26249 3.069,9.02102 11.1135,9.02102 10.3076,0 21.1265,-8.43203 21.1265,-17.15854 0,-5.85901 -4.96,-9.12948 -11.1135,-9.12948 -9.6254,0 -21.1265,8.13747 -21.1265,17.267"
     id="path3509"
     style="stroke-width:0.992001" />
  <path
     class="Note"
     d="m 790.392,356.33051 c 0,4.2625 3.069,9.02103 11.11349,9.02103 10.30758,0 21.12654,-8.43203 21.12654,-17.15854 0,-5.85901 -4.96,-9.12949 -11.11348,-9.12949 -9.62549,0 -21.12655,8.13748 -21.12655,17.267"
     id="path3511"
     style="stroke-width:0.992001" />
  <path
     class="Note"
     d="m 3115.902,381.13051 c 0,4.2625 3.069,9.02103 11.1135,9.02103 10.3076,0 21.1265,-8.43203 21.1265,-17.15854 0,-5.85901 -4.96,-9.12949 -11.1135,-9.12949 -9.6254,0 -21.1265,8.1375 -21.1265,17.267"
     id="path3513"
     style="stroke-width:0.992001" />
  <path
     class="Note"
     d="m 790.392,331.53052 c 0,4.2625 3.069,9.02103 11.11349,9.02103 10.30758,0 21.12654,-8.43203 21.12654,-17.15854 0,-5.85902 -4.96,-9.12949 -11.11348,-9.12949 -9.62549,0 -21.12655,8.13748 -21.12655,17.267"
     id="path3515"
     style="stroke-width:0.992001" />
  <path
     class="Note"
     d="m 583.363,71.129515 c 0,4.2625 3.069,9.02103 11.11349,9.02103 10.30758,0 21.12654,-8.43203 21.12654,-17.15854 0,-5.85901 -4.96,-9.12949 -11.11348,-9.12949 -9.62549,0 -21.12655,8.13749 -21.12655,17.267"
     id="path3517"
     style="stroke-width:0.992001" />
  <path
     class="Note"
     d="m 3408.722,108.32952 c 0,4.2625 3.069,9.02103 11.1135,9.02103 10.3076,0 21.1265,-8.43203 21.1265,-17.15854 0,-5.859015 -4.96,-9.129495 -11.1135,-9.129495 -9.6254,0 -21.1265,8.13748 -21.1265,17.267005"
     id="path3519"
     style="stroke-width:0.992001" />
  <path
     class="Note"
     d="m 516.014,33.929514 c 0,4.262501 3.069,9.021031 11.11349,9.021031 10.30758,0 21.12654,-8.43203 21.12654,-17.158544 0,-5.859006 -4.96,-9.129484 -11.11348,-9.129484 -9.62549,0 -21.12655,8.137483 -21.12655,17.266997"
     id="path3521"
     style="stroke-width:0.992001" />
  <path
     class="Note"
     d="m 977.392,356.33051 c 0,4.2625 3.069,9.02103 11.11349,9.02103 10.30758,0 21.12651,-8.43203 21.12651,-17.15854 0,-5.85901 -4.96,-9.12949 -11.11345,-9.12949 -9.62549,0 -21.12655,8.13748 -21.12655,17.267"
     id="path3523"
     style="stroke-width:0.992001" />
  <path
     class="Note"
     d="m 3359.4885,376.26352 c -9.6254,0 -21.1265,8.04448 -21.1265,17.267 0,4.2625 3.069,9.02103 11.1135,9.02103 10.3076,0 21.1265,-8.43203 21.1265,-17.15854 0,-5.85902 -4.96,-9.12949 -11.1135,-9.12949 m -13.6865,21.6225 c -3.2705,0 -3.968,-2.666 -3.968,-3.565 0,-4.86701 16.6625,-13.39202 21.328,-13.39202 2.3871,0 3.968,1.395 3.968,3.56501 0,4.95999 -16.7709,13.39201 -21.328,13.39201"
     id="path3525"
     style="stroke-width:0.992001" />
  <path
     class="Note"
     d="m 977.392,331.53052 c 0,4.2625 3.069,9.02103 11.11349,9.02103 10.30758,0 21.12651,-8.43203 21.12651,-17.15854 0,-5.85902 -4.96,-9.12949 -11.11345,-9.12949 -9.62549,0 -21.12655,8.13748 -21.12655,17.267"
     id="path3527"
     style="stroke-width:0.992001" />
  <path
     class="Note"
     d="m 3359.4885,351.46352 c -9.6254,0 -21.1265,8.04448 -21.1265,17.267 0,4.2625 3.069,9.02103 11.1135,9.02103 10.3076,0 21.1265,-8.43203 21.1265,-17.15855 0,-5.85901 -4.96,-9.12948 -11.1135,-9.12948 m -13.6865,21.6225 c -3.2705,0 -3.968,-2.666 -3.968,-3.565 0,-4.86701 16.6625,-13.39202 21.328,-13.39202 2.3871,0 3.968,1.395 3.968,3.565 0,4.96 -16.7709,13.39202 -21.328,13.39202"
     id="path3529"
     style="stroke-width:0.992001" />
  <path
     class="Note"
     d="m 977.392,294.33051 c 0,4.2625 3.069,9.02103 11.11349,9.02103 10.30758,0 21.12651,-8.43203 21.12651,-17.15854 0,-5.85901 -4.96,-9.12949 -11.11345,-9.12949 -9.62549,0 -21.12655,8.13748 -21.12655,17.267"
     id="path3531"
     style="stroke-width:0.992001" />
  <path
     class="Note"
     d="m 3359.4885,326.66352 c -9.6254,0 -21.1265,8.04448 -21.1265,17.267 0,4.26249 3.069,9.02102 11.1135,9.02102 10.3076,0 21.1265,-8.43203 21.1265,-17.15854 0,-5.85901 -4.96,-9.12948 -11.1135,-9.12948 m -13.6865,21.6225 c -3.2705,0 -3.968,-2.666 -3.968,-3.565 0,-4.86701 16.6625,-13.39202 21.328,-13.39202 2.3871,0 3.968,1.39499 3.968,3.565 0,4.96 -16.7709,13.39202 -21.328,13.39202"
     id="path3533"
     style="stroke-width:0.992001" />
  <path
     class="Note"
     d="m 2047.452,133.12952 c 0,4.2625 3.069,9.02103 11.1135,9.02103 10.3076,0 21.1265,-8.43203 21.1265,-17.15854 0,-5.85901 -4.96,-9.12949 -11.1135,-9.12949 -9.6254,0 -21.1265,8.13749 -21.1265,17.267"
     id="path3535"
     style="stroke-width:0.992001" />
  <path
     class="Note"
     d="m 2047.452,157.93052 c 0,4.26249 3.069,9.02102 11.1135,9.02102 10.3076,0 21.1265,-8.43203 21.1265,-17.15853 0,-5.85902 -4.96,-9.12949 -11.1135,-9.12949 -9.6254,0 -21.1265,8.13748 -21.1265,17.267"
     id="path3537"
     style="stroke-width:0.992001" />
  <path
     class="Note"
     d="m 1199.852,281.93052 c 0,4.26249 3.069,9.02102 11.1135,9.02102 10.3076,0 21.1265,-8.43203 21.1265,-17.15854 0,-5.85901 -4.96,-9.12948 -11.1135,-9.12948 -9.6254,0 -21.1265,8.13747 -21.1265,17.267"
     id="path3539"
     style="stroke-width:0.992001" />
  <path
     class="Note"
     d="m 3070.182,33.929514 c 0,4.262501 3.069,9.021031 11.1135,9.021031 10.3076,0 21.1265,-8.43203 21.1265,-17.158544 0,-5.859006 -4.96,-9.129484 -11.1135,-9.129484 -9.6254,0 -21.1265,8.137483 -21.1265,17.266997"
     id="path3541"
     style="stroke-width:0.992001" />
  <path
     class="Note"
     d="m 1910.962,71.129515 c 0,4.2625 3.069,9.02103 11.1135,9.02103 10.3076,0 21.1265,-8.43203 21.1265,-17.15854 0,-5.85901 -4.96,-9.12949 -11.1135,-9.12949 -9.6254,0 -21.1265,8.13749 -21.1265,17.267"
     id="path3543"
     style="stroke-width:0.992001" />
  <path
     class="Note"
     d="m 1298.192,294.33051 c 0,4.2625 3.069,9.02103 11.1135,9.02103 10.3076,0 21.1265,-8.43203 21.1265,-17.15854 0,-5.85901 -4.96,-9.12949 -11.1135,-9.12949 -9.6254,0 -21.1265,8.13748 -21.1265,17.267"
     id="path3545"
     style="stroke-width:0.992001" />
  <path
     class="Note"
     d="m 1843.612,33.929514 c 0,4.262501 3.069,9.021031 11.1135,9.021031 10.3076,0 21.1265,-8.43203 21.1265,-17.158544 0,-5.859006 -4.96,-9.129484 -11.1135,-9.129484 -9.6254,0 -21.1265,8.137483 -21.1265,17.266997"
     id="path3547"
     style="stroke-width:0.992001" />
  <path
     class="Note"
     d="m 1396.542,306.73052 c 0,4.2625 3.069,9.02103 11.1135,9.02103 10.3076,0 21.1265,-8.43203 21.1265,-17.15855 0,-5.85901 -4.96,-9.12948 -11.1135,-9.12948 -9.6254,0 -21.1265,8.13749 -21.1265,17.267"
     id="path3549"
     style="stroke-width:0.992001" />
  <path
     class="Note"
     d="m 2839.312,58.729515 c 0,4.2625 3.069,9.02103 11.1135,9.02103 10.3076,0 21.1265,-8.43203 21.1265,-17.15854 0,-5.85901 -4.96,-9.12949 -11.1135,-9.12949 -9.6254,0 -21.1265,8.13748 -21.1265,17.267"
     id="path3551"
     style="stroke-width:0.992001" />
  <path
     class="Note"
     d="m 1715.552,71.129515 c 0,4.2625 3.069,9.02103 11.1135,9.02103 10.3076,0 21.1265,-8.43203 21.1265,-17.15854 0,-5.85901 -4.96,-9.12949 -11.1135,-9.12949 -9.6254,0 -21.1265,8.13749 -21.1265,17.267"
     id="path3553"
     style="stroke-width:0.992001" />
  <path
     class="Note"
     d="m 1494.882,294.33051 c 0,4.2625 3.069,9.02103 11.1135,9.02103 10.3076,0 21.1265,-8.43203 21.1265,-17.15854 0,-5.85901 -4.96,-9.12949 -11.1135,-9.12949 -9.6254,0 -21.1265,8.13748 -21.1265,17.267"
     id="path3555"
     style="stroke-width:0.992001" />
  <path
     class="Note"
     d="m 1715.552,95.929515 c 0,4.262495 3.069,9.021035 11.1135,9.021035 10.3076,0 21.1265,-8.432035 21.1265,-17.158545 0,-5.85901 -4.96,-9.12949 -11.1135,-9.12949 -9.6254,0 -21.1265,8.13749 -21.1265,17.267"
     id="path3557"
     style="stroke-width:0.992001" />
  <path
     class="Note"
     d="m 1593.222,343.93052 c 0,4.26249 3.069,9.02102 11.1135,9.02102 10.3076,0 21.1265,-8.43203 21.1265,-17.15854 0,-5.85901 -4.96,-9.12948 -11.1135,-9.12948 -9.6254,0 -21.1265,8.13747 -21.1265,17.267"
     id="path3559"
     style="stroke-width:0.992001" />
  <path
     class="Note"
     d="m 1715.552,120.72952 c 0,4.2625 3.069,9.02103 11.1135,9.02103 10.3076,0 21.1265,-8.43203 21.1265,-17.15854 0,-5.85901 -4.96,-9.12949 -11.1135,-9.12949 -9.6254,0 -21.1265,8.13748 -21.1265,17.267"
     id="path3561"
     style="stroke-width:0.992001" />
  <path
     class="Note"
     d="m 3476.072,46.329515 c 0,4.2625 3.069,9.02103 11.1135,9.02103 10.3076,0 21.1265,-8.43203 21.1265,-17.15854 0,-5.85901 -4.96,-9.129488 -11.1135,-9.129488 -9.6254,0 -21.1265,8.137488 -21.1265,17.266998"
     id="path3563"
     style="stroke-width:0.992001" />
  <path
     class="Note"
     d="m 1579.062,95.929515 c 0,4.262495 3.069,9.021035 11.1135,9.021035 10.3076,0 21.1265,-8.432035 21.1265,-17.158545 0,-5.85901 -4.96,-9.12949 -11.1135,-9.12949 -9.6254,0 -21.1265,8.13749 -21.1265,17.267"
     id="path3565"
     style="stroke-width:0.992001" />
  <path
     class="Note"
     d="m 1776.202,294.33051 c 0,4.2625 3.069,9.02103 11.1135,9.02103 10.3076,0 21.1265,-8.43203 21.1265,-17.15854 0,-5.85901 -4.96,-9.12949 -11.1135,-9.12949 -9.6254,0 -21.1265,8.13748 -21.1265,17.267"
     id="path3567"
     style="stroke-width:0.992001" />
  <path
     class="Note"
     d="m 3204.882,33.929514 c 0,4.262501 3.069,9.021031 11.1135,9.021031 10.3076,0 21.1265,-8.43203 21.1265,-17.158544 0,-5.859006 -4.96,-9.129484 -11.1135,-9.129484 -9.6254,0 -21.1265,8.137483 -21.1265,17.266997"
     id="path3569"
     style="stroke-width:0.992001" />
  <path
     class="Note"
     d="m 1511.712,58.729515 c 0,4.2625 3.069,9.02103 11.1135,9.02103 10.3076,0 21.1265,-8.43203 21.1265,-17.15854 0,-5.85901 -4.96,-9.12949 -11.1135,-9.12949 -9.6254,0 -21.1265,8.13748 -21.1265,17.267"
     id="path3571"
     style="stroke-width:0.992001" />
  <path
     class="Note"
     d="m 1874.542,306.73052 c 0,4.2625 3.069,9.02103 11.1135,9.02103 10.3076,0 21.1265,-8.43203 21.1265,-17.15855 0,-5.85901 -4.96,-9.12948 -11.1135,-9.12948 -9.6254,0 -21.1265,8.13749 -21.1265,17.267"
     id="path3573"
     style="stroke-width:0.992001" />
  <path
     class="Note"
     d="m 2839.312,83.529515 c 0,4.2625 3.069,9.02103 11.1135,9.02103 10.3076,0 21.1265,-8.43203 21.1265,-17.15854 0,-5.85901 -4.96,-9.12949 -11.1135,-9.12949 -9.6254,0 -21.1265,8.13749 -21.1265,17.267"
     id="path3575"
     style="stroke-width:0.992001" />
  <path
     class="Note"
     d="m 1383.652,120.72952 c 0,4.2625 3.069,9.02103 11.1135,9.02103 10.3076,0 21.1265,-8.43203 21.1265,-17.15854 0,-5.85901 -4.96,-9.12949 -11.1135,-9.12949 -9.6254,0 -21.1265,8.13748 -21.1265,17.267"
     id="path3577"
     style="stroke-width:0.992001" />
  <path
     class="Note"
     d="m 1383.652,145.52951 c 0,4.2625 3.069,9.02103 11.1135,9.02103 10.3076,0 21.1265,-8.43203 21.1265,-17.15854 0,-5.85901 -4.96,-9.12949 -11.1135,-9.12949 -9.6254,0 -21.1265,8.1375 -21.1265,17.267"
     id="path3579"
     style="stroke-width:0.992001" />
  <path
     class="Note"
     d="m 1972.892,319.13051 c 0,4.2625 3.069,9.02103 11.1135,9.02103 10.3076,0 21.1265,-8.43203 21.1265,-17.15854 0,-5.85901 -4.96,-9.12949 -11.1135,-9.12949 -9.6254,0 -21.1265,8.1375 -21.1265,17.267"
     id="path3581"
     style="stroke-width:0.992001" />
  <path
     class="Note"
     d="m 1383.652,170.33052 c 0,4.26249 3.069,9.02103 11.1135,9.02103 10.3076,0 21.1265,-8.43203 21.1265,-17.15854 0,-5.85901 -4.96,-9.12949 -11.1135,-9.12949 -9.6254,0 -21.1265,8.13748 -21.1265,17.267"
     id="path3583"
     style="stroke-width:0.992001" />
  <path
     class="Note"
     d="m 1247.162,95.929515 c 0,4.262495 3.069,9.021035 11.1135,9.021035 10.3076,0 21.1265,-8.432035 21.1265,-17.158545 0,-5.85901 -4.96,-9.12949 -11.1135,-9.12949 -9.6254,0 -21.1265,8.13749 -21.1265,17.267"
     id="path3585"
     style="stroke-width:0.992001" />
  <path
     class="Note"
     d="m 2071.232,306.73052 c 0,4.2625 3.069,9.02103 11.1135,9.02103 10.3076,0 21.1265,-8.43203 21.1265,-17.15855 0,-5.85901 -4.96,-9.12948 -11.1135,-9.12948 -9.6254,0 -21.1265,8.13749 -21.1265,17.267"
     id="path3587"
     style="stroke-width:0.992001" />
  <path
     class="Note"
     d="m 3543.412,71.129515 c 0,4.2625 3.069,9.02103 11.1135,9.02103 10.3076,0 21.1265,-8.43203 21.1265,-17.15854 0,-5.85901 -4.96,-9.12949 -11.1135,-9.12949 -9.6254,0 -21.1265,8.13749 -21.1265,17.267"
     id="path3589"
     style="stroke-width:0.992001" />
  <path
     class="Note"
     d="m 1179.812,58.729515 c 0,4.2625 3.069,9.02103 11.1135,9.02103 10.3076,0 21.1265,-8.43203 21.1265,-17.15854 0,-5.85901 -4.96,-9.12949 -11.1135,-9.12949 -9.6254,0 -21.1265,8.13748 -21.1265,17.267"
     id="path3591"
     style="stroke-width:0.992001" />
  <path
     class="Note"
     d="m 2169.572,343.93052 c 0,4.26249 3.069,9.02102 11.1135,9.02102 10.3076,0 21.1265,-8.43203 21.1265,-17.15854 0,-5.85901 -4.96,-9.12948 -11.1135,-9.12948 -9.6254,0 -21.1265,8.13747 -21.1265,17.267"
     id="path3593"
     style="stroke-width:0.992001" />
  <path
     class="Note"
     d="m 1051.752,120.72952 c 0,4.2625 3.069,9.02103 11.1135,9.02103 10.3076,0 21.1265,-8.43203 21.1265,-17.15854 0,-5.85901 -4.96,-9.12949 -11.1135,-9.12949 -9.6254,0 -21.1265,8.13748 -21.1265,17.267"
     id="path3595"
     style="stroke-width:0.992001" />
  <path
     class="Note"
     d="m 1051.752,145.52951 c 0,4.2625 3.069,9.02103 11.1135,9.02103 10.3076,0 21.1265,-8.43203 21.1265,-17.15854 0,-5.85901 -4.96,-9.12949 -11.1135,-9.12949 -9.6254,0 -21.1265,8.1375 -21.1265,17.267"
     id="path3597"
     style="stroke-width:0.992001" />
  <path
     class="Note"
     d="m 2352.552,393.53052 c 0,4.2625 3.069,9.02103 11.1135,9.02103 10.3076,0 21.1265,-8.43203 21.1265,-17.15854 0,-5.85902 -4.96,-9.12949 -11.1135,-9.12949 -9.6254,0 -21.1265,8.13748 -21.1265,17.267"
     id="path3599"
     style="stroke-width:0.992001" />
  <path
     class="Note"
     d="m 2352.552,331.53052 c 0,4.2625 3.069,9.02103 11.1135,9.02103 10.3076,0 21.1265,-8.43203 21.1265,-17.15854 0,-5.85902 -4.96,-9.12949 -11.1135,-9.12949 -9.6254,0 -21.1265,8.13748 -21.1265,17.267"
     id="path3601"
     style="stroke-width:0.992001" />
  <path
     class="Note"
     d="m 1051.752,182.73052 c 0,4.2625 3.069,9.02103 11.1135,9.02103 10.3076,0 21.1265,-8.43203 21.1265,-17.15854 0,-5.85901 -4.96,-9.12949 -11.1135,-9.12949 -9.6254,0 -21.1265,8.13749 -21.1265,17.267"
     id="path3603"
     style="stroke-width:0.992001" />
  <path
     class="Note"
     d="m 2450.892,405.93052 c 0,4.26249 3.069,9.02102 11.1135,9.02102 10.3076,0 21.1265,-8.43203 21.1265,-17.15854 0,-5.85901 -4.96,-9.12948 -11.1135,-9.12948 -9.6254,0 -21.1265,8.13747 -21.1265,17.267"
     id="path3605"
     style="stroke-width:0.992001" />
  <path
     class="Note"
     d="m 2450.892,343.93052 c 0,4.26249 3.069,9.02102 11.1135,9.02102 10.3076,0 21.1265,-8.43203 21.1265,-17.15854 0,-5.85901 -4.96,-9.12948 -11.1135,-9.12948 -9.6254,0 -21.1265,8.13747 -21.1265,17.267"
     id="path3607"
     style="stroke-width:0.992001" />
  <path
     class="Note"
     d="m 2711.242,58.729515 c 0,4.2625 3.069,9.02103 11.1135,9.02103 10.3076,0 21.1265,-8.43203 21.1265,-17.15854 0,-5.85901 -4.96,-9.12949 -11.1135,-9.12949 -9.6254,0 -21.1265,8.13748 -21.1265,17.267"
     id="path3609"
     style="stroke-width:0.992001" />
  <path
     class="Note"
     d="m 915.262,71.129515 c 0,4.2625 3.069,9.02103 11.11349,9.02103 10.30758,0 21.12654,-8.43203 21.12654,-17.15854 0,-5.85901 -4.96,-9.12949 -11.11348,-9.12949 -9.62549,0 -21.12655,8.13749 -21.12655,17.267"
     id="path3611"
     style="stroke-width:0.992001" />
  <path
     class="Note"
     d="m 2549.232,418.33152 c 0,4.2625 3.069,9.02103 11.1135,9.02103 10.3076,0 21.1265,-8.43203 21.1265,-17.15855 0,-5.85901 -4.96,-9.12948 -11.1135,-9.12948 -9.6254,0 -21.1265,8.13749 -21.1265,17.267"
     id="path3613"
     style="stroke-width:0.992001" />
  <path
     class="Clef"
     d="m 154.79954,167.44659 c 0,6.55653 4.96,15.19001 18.35202,15.19001 4.66548,0 8.742,-1.19347 12.30696,-3.37905 5.36305,-3.76644 6.74253,-10.32296 6.74253,-16.56949 0,-3.85948 -0.58895,-8.32349 -1.58095,-13.98098 -0.29453,-1.984 -0.89905,-4.96 -1.488,-8.83506 9.71843,-3.17747 16.95696,-13.29895 16.95696,-23.51351 0,-14.97304 -10.61748,-25.094535 -25.09455,-25.094535 -0.992,-5.952 -1.984,-11.81106 -2.77442,-17.36001 10.41601,-11.02054 17.65444,-23.42055 17.65444,-39.184043 0,-9.036533 -2.77443,-16.368016 -4.37096,-19.948148 -2.37147,-5.053253 -5.25453,-8.525256 -7.03705,-8.525256 -0.69748,0 -3.76643,1.193377 -7.03696,5.053253 -6.35506,7.548135 -8.13748,20.242673 -8.13748,28.566154 0,5.36296 0.496,10.23001 2.18547,21.3435 -0.10852,0.0931 -5.27,5.34748 -7.34705,7.03706 -9.03644,8.33895 -21.5295,20.42897 -21.5295,40.284515 0,18.53807 16.16654,33.12356 34.62708,33.12356 2.86748,0 5.54896,-0.29454 7.82749,-0.69749 1.89095,9.53244 3.08453,16.47645 3.08453,21.73098 0,10.32306 -5.36306,15.77906 -15.37602,15.77906 -2.38705,0 -4.464,-0.496 -4.66558,-0.496 -0.093,-0.10852 -0.29442,-0.20157 -0.29442,-0.29452 0,-0.20148 0.20147,-0.31 0.496,-0.31 4.66548,-0.79053 9.31548,-4.75853 9.31548,-11.09802 0,-5.36305 -4.06105,-11.02053 -11.50106,-11.02053 -6.94401,0 -11.31496,5.65748 -11.31496,12.19854 M 175.53851,35.014448 c 0.89905,-3.968004 5.456,-14.384015 10.61758,-14.384015 1.48801,0 3.85948,4.75843 3.85948,11.702437 0,10.323065 -7.62601,18.057595 -14.47706,24.800025 -0.58895,-3.968 -1.08495,-7.82748 -1.08495,-11.99696 0,-3.67348 0.29452,-7.05253 1.08495,-10.121487 m 8.72653,101.974632 c -1.984,0.40295 -3.85948,0.60443 -5.75053,0.60443 -14.18244,0 -26.288,-9.92001 -26.288,-24.9085 0,-12.09007 8.52503,-22.909035 17.26704,-30.457565 1.674,-1.488 3.27053,-2.86748 4.75853,-4.35548 0.88348,5.34748 1.58095,10.01296 2.27843,14.08949 -9.03644,2.68148 -15.17444,12.198545 -15.17444,21.529555 0,6.944 5.456,16.46101 13.39201,16.46101 0.79043,0 1.68948,-0.40295 1.68948,-1.28652 0,-0.89895 -0.992,-1.39495 -2.18548,-2.18548 -3.87505,-2.387 -6.06053,-4.96002 -6.06053,-9.82701 0,-6.04501 4.57253,-10.91206 10.32296,-12.29154 l 5.75053,32.62761 m 14.08949,-18.35207 c 0,7.05251 -2.88295,14.29102 -9.92001,17.17407 -2.07695,-11.90406 -4.75843,-27.68308 -5.456,-32.05413 8.928,0 15.37601,6.06055 15.37601,14.88006"
     id="path3615"
     style="stroke-width:0.992001" />
  <path
     class="Clef"
     d="m 30.798537,440.24759 c 0,6.55653 4.960005,15.19001 18.352019,15.19001 4.665479,0 8.742008,-1.19348 12.306962,-3.37905 5.363055,-3.76643 6.742532,-10.32296 6.742532,-16.56949 0,-3.85948 -0.588951,-8.32349 -1.580952,-13.98097 -0.294525,-1.984 -0.899051,-4.96 -1.488001,-8.83506 9.718435,-3.17747 16.956967,-13.29896 16.956967,-23.51352 0,-14.97305 -10.617486,-25.09454 -25.09455,-25.09454 -0.992001,-5.952 -1.984002,-11.81106 -2.774428,-17.36 10.41601,-11.02054 17.654443,-23.42055 17.654443,-39.18404 0,-9.03654 -2.774428,-16.36802 -4.370955,-19.94815 -2.371477,-5.05325 -5.25453,-8.52526 -7.037057,-8.52526 -0.697475,0 -3.766429,1.19338 -7.036957,5.05326 -6.355056,7.54813 -8.137483,20.24267 -8.137483,28.56615 0,5.36296 0.496,10.23001 2.185477,21.3435 -0.108525,0.0931 -5.270005,5.34748 -7.347057,7.03706 C 31.093062,349.38643 18.6,361.47645 18.6,381.33199 c 0,18.53807 16.166541,33.12356 34.627085,33.12356 2.867478,0 5.548955,-0.29451 7.827483,-0.69747 1.890952,9.53244 3.084528,16.47645 3.084528,21.73097 0,10.32306 -5.363056,15.77907 -15.376016,15.77907 -2.387052,0 -4.464004,-0.496 -4.665579,-0.496 -0.09295,-0.10852 -0.294426,-0.20157 -0.294426,-0.29453 0,-0.20147 0.201475,-0.30999 0.496001,-0.30999 4.665479,-0.79053 9.315484,-4.75853 9.315484,-11.09802 0,-5.36305 -4.061054,-11.02053 -11.501061,-11.02053 -6.944007,0 -11.314962,5.65748 -11.314962,12.19854 M 51.537508,307.81544 c 0.899051,-3.968 5.456006,-14.384 10.617586,-14.384 1.488001,0 3.859479,4.75842 3.859479,11.70244 0,10.32306 -7.626008,18.05759 -14.477065,24.80002 -0.588951,-3.968 -1.084951,-7.82748 -1.084951,-11.99696 0,-3.67348 0.294525,-7.05253 1.084951,-10.12149 m 8.726534,101.97463 c -1.984002,0.40295 -3.859479,0.60443 -5.750531,0.60443 -14.182439,0 -26.287996,-9.92001 -26.287996,-24.9085 0,-12.09008 8.525028,-22.90904 17.267037,-30.45756 1.674002,-1.488 3.270528,-2.86748 4.75853,-4.35548 0.883476,5.34748 1.580951,10.01296 2.278427,14.08949 -9.036434,2.68148 -15.17444,12.19854 -15.17444,21.52955 0,6.944 5.456005,16.46101 13.392013,16.46101 0.790426,0 1.689477,-0.40295 1.689477,-1.28652 0,-0.89895 -0.992001,-1.39495 -2.185477,-2.18548 -3.875054,-2.387 -6.060531,-4.96 -6.060531,-9.82701 0,-6.04501 4.572529,-10.91206 10.32296,-12.29154 l 5.750531,32.62761 m 14.089489,-18.35207 c 0,7.05251 -2.882953,14.29102 -9.92001,17.17407 -2.076952,-11.90406 -4.75843,-27.68308 -5.456005,-32.05413 8.928009,0 15.376015,6.06055 15.376015,14.88006"
     id="path3617"
     style="stroke-width:0.992001" />
  <path
     class="KeySig"
     d="m 247.78355,31.743994 c 0.60452,-0.09305 1.10052,-0.790525 1.10052,-1.395051 v -5.843481 c 0,-0.992001 -0.69757,-1.394951 -1.59652,-1.394951 l -3.27053,0.697475 V 9.020922 h -2.77453 v 15.376015 l -8.83498,1.798002 V 12.1985 H 229.633 v 14.58549 l -3.875,0.790525 c -0.589,0.108426 -1.085,0.790426 -1.085,1.394952 v 5.75053 c 0,1.085002 0.7905,1.395002 1.68951,1.395002 l 3.27049,-0.697506 v 16.368022 l -3.875,0.7905 c -0.589,0.0931 -1.085,0.79053 -1.085,1.39505 v 5.75043 c 0,1.08505 0.7905,1.37958 1.68951,1.37958 l 3.27049,-0.682 v 14.77149 h 2.77451 v -15.37602 l 8.83498,-1.78252 v 13.99653 h 2.77453 v -14.58548 l 3.76653,-0.69758 c 0.60452,-0.10843 1.10052,-0.79043 1.10052,-1.39495 v -5.84353 c 0,-0.992 -0.69757,-1.395 -1.59652,-1.395 l -3.27053,0.6975 V 32.44149 l 3.76653,-0.697496 m -15.37604,3.069004 8.83498,-1.782507 v 16.368024 l -8.83498,1.891 V 34.812998"
     id="path3619"
     style="stroke-width:0.992001" />
  <path
     class="KeySig"
     d="m 274.95555,68.943995 c 0.60452,-0.093 1.10052,-0.79053 1.10052,-1.39505 v -5.84348 c 0,-0.992 -0.69757,-1.39495 -1.59652,-1.39495 l -3.27053,0.69747 v -14.78706 h -2.77453 v 15.37601 l -8.83498,1.798 V 49.398495 H 256.805 v 14.58549 l -3.875,0.79053 c -0.589,0.10843 -1.085,0.79043 -1.085,1.39495 v 5.75053 c 0,1.085 0.7905,1.395 1.68951,1.395 l 3.27049,-0.6975 v 16.36802 l -3.875,0.7905 c -0.589,0.0931 -1.085,0.79053 -1.085,1.39505 v 5.75043 c 0,1.08505 0.7905,1.37958 1.68951,1.37958 l 3.27049,-0.682 v 14.771495 h 2.77451 V 97.014545 l 8.83498,-1.78252 v 13.996535 h 2.77453 V 94.643075 l 3.76653,-0.69758 c 0.60452,-0.10843 1.10052,-0.79043 1.10052,-1.39495 v -5.84353 c 0,-0.992 -0.69757,-1.395 -1.59652,-1.395 l -3.27053,0.6975 v -16.36802 l 3.76653,-0.6975 m -15.37604,3.069 8.83498,-1.7825 v 16.36802 l -8.83498,1.891 v -16.47652"
     id="path3621"
     style="stroke-width:0.992001" />
  <path
     class="KeySig"
     d="m 123.78355,304.545 c 0.60452,-0.0931 1.10052,-0.79053 1.10052,-1.39506 v -5.84348 c 0,-0.992 -0.69757,-1.39495 -1.59652,-1.39495 l -3.27053,0.69748 v -14.78706 h -2.77453 v 15.37601 l -8.83498,1.798 V 284.9995 H 105.633 v 14.58549 l -3.875,0.79052 c -0.589,0.10843 -1.085,0.79044 -1.085,1.39495 v 5.75054 c 0,1.08499 0.7905,1.39499 1.68951,1.39499 l 3.27049,-0.69749 v 16.36802 l -3.875,0.7905 c -0.589,0.0931 -1.085,0.79053 -1.085,1.39505 v 5.75043 c 0,1.08505 0.7905,1.37958 1.68951,1.37958 l 3.27049,-0.68201 v 14.77149 h 2.77451 v -15.37602 l 8.83498,-1.78251 v 13.99653 h 2.77453 v -14.58549 l 3.76653,-0.69758 c 0.60452,-0.10843 1.10052,-0.79043 1.10052,-1.39495 v -5.84353 c 0,-0.992 -0.69757,-1.39499 -1.59652,-1.39499 l -3.27053,0.6975 V 305.2425 l 3.76653,-0.6975 m -15.37604,3.069 8.83498,-1.7825 v 16.36802 l -8.83498,1.891 V 307.614"
     id="path3623"
     style="stroke-width:0.992001" />
  <path
     class="KeySig"
     d="m 150.95555,341.745 c 0.60452,-0.0931 1.10052,-0.79053 1.10052,-1.39506 v -5.84348 c 0,-0.992 -0.69757,-1.39495 -1.59652,-1.39495 l -3.27053,0.69747 v -14.78706 h -2.77453 v 15.37602 l -8.83498,1.798 V 322.1995 H 132.805 v 14.58548 l -3.875,0.79053 c -0.589,0.10843 -1.085,0.79043 -1.085,1.39495 v 5.75054 c 0,1.08499 0.7905,1.39499 1.68951,1.39499 l 3.27049,-0.6975 v 16.36802 l -3.875,0.79051 c -0.589,0.0931 -1.085,0.79052 -1.085,1.39505 v 5.75043 c 0,1.08505 0.7905,1.37958 1.68951,1.37958 l 3.27049,-0.68201 v 14.7715 h 2.77451 v -15.37602 l 8.83498,-1.78252 v 13.99653 h 2.77453 v -14.58548 l 3.76653,-0.69758 c 0.60452,-0.10843 1.10052,-0.79043 1.10052,-1.39495 v -5.84353 c 0,-0.992 -0.69757,-1.395 -1.59652,-1.395 l -3.27053,0.6975 V 342.4425 l 3.76653,-0.6975 m -15.37604,3.069 8.83498,-1.7825 v 16.36802 l -8.83498,1.891 V 344.814"
     id="path3625"
     style="stroke-width:0.992001" />
  <path
     class="TimeSig"
     d="m 324.1675,62.697495 c -6.06043,0 -8.23043,1.78251 -9.62549,3.27051 -0.29452,-2.077 -0.496,-3.67351 -0.496,-5.25451 0,-5.6575 1.98401,-13.00456 8.92801,-13.00456 2.48001,0 3.96801,0.806 4.96001,1.89105 -2.07695,0.89895 -3.76653,3.56496 -3.76653,5.85896 0,3.56505 2.77453,6.33955 6.35506,6.33955 3.56495,0 6.448,-2.7745 6.448,-6.33955 v -0.31 c 0,-0.88348 -0.20147,-2.37148 -0.60452,-3.16201 -1.28653,-3.58042 -5.45601,-8.83495 -15.37602,-8.83495 -8.92801,0 -15.37601,8.52495 -17.36002,13.09748 -0.992,2.37153 -2.48,7.23854 -2.48,12.78754 0,6.06051 1.68951,12.89606 7.53301,18.05754 5.76605,4.37096 9.42406,4.57253 12.89606,4.57253 3.48748,0 16.47644,-4.07652 16.47644,-15.57756 0,-9.71851 -7.64148,-13.39202 -13.88801,-13.39202 m -3.67348,24.80001 c -3.27053,0 -5.95201,-4.46401 -5.95201,-10.02844 0,-5.54906 2.68148,-10.10606 5.95201,-10.10606 3.27053,0 6.06053,4.557 6.06053,10.10606 0,5.56443 -2.79,10.02844 -6.06053,10.02844"
     id="path3627"
     style="stroke-width:0.992001" />
  <path
     class="TimeSig"
     d="m 331.51508,114.5295 c 3.27043,-2.48 5.54896,-5.6575 5.54896,-9.6255 0,-7.145485 -7.82749,-12.989065 -17.45297,-12.989065 -9.62558,0 -17.46856,5.84358 -17.46856,12.989065 0,3.968 0.992,7.53301 5.6575,10.50901 -4.46401,2.58851 -6.94401,6.26201 -6.94401,11.02049 0,8.02905 8.43201,14.47706 18.75507,14.47706 10.30749,0 18.73949,-6.44802 18.73949,-14.47706 0,-4.75848 -1.674,-9.22249 -6.83548,-11.904 m -5.56453,-2.68149 c -6.74253,-2.18551 -14.18254,-5.45601 -14.18254,-9.92001 0,-3.875065 3.56506,-5.456015 7.84306,-5.456015 6.15348,0 10.30749,2.88295 10.30749,7.440015 0,4.7585 -2.17001,7.037 -3.96801,7.93601 m -6.33948,23.51349 c -6.35506,0 -11.81106,-3.472 -11.81106,-9.03643 0,-6.63406 5.16148,-8.23055 5.16148,-8.23055 6.74253,2.27849 16.36802,5.6575 16.36802,11.1135 0,2.68148 -3.37896,6.15348 -9.71844,6.15348"
     id="path3629"
     style="stroke-width:0.992001" />
  <path
     class="Rest"
     d="m 3586.1215,344.42646 c -0.093,0 -0.2944,-0.10852 -0.4029,-0.10852 -0.5891,0 -1.0851,0.31 -1.2866,0.806 -2.2785,4.55705 -7.0369,10.71055 -12.4,11.70256 1.0851,-1.2865 1.7825,-2.88298 1.7825,-4.75856 0,-3.87495 -3.1774,-7.05243 -7.037,-7.05243 -3.968,0 -7.1455,3.17748 -7.1455,7.05243 0,5.34756 5.2545,7.82755 9.92,7.82755 5.2545,0 8.7265,-2.48 12.1055,-6.15355 l -11.315,35.32456 2.6815,0.79053 13.888,-43.7411 c 0.1086,-0.10842 0.1086,-0.31 0.1086,-0.496 0,-0.49599 -0.31,-0.89895 -0.8991,-1.19348"
     id="path3631"
     style="stroke-width:0.992001" />
  <path
     class="Rest"
     d="m 3684.4715,344.42646 c -0.093,0 -0.2944,-0.10852 -0.4029,-0.10852 -0.5891,0 -1.0851,0.31 -1.2866,0.806 -2.2785,4.55705 -7.0369,10.71055 -12.4,11.70256 1.0851,-1.2865 1.7825,-2.88298 1.7825,-4.75856 0,-3.87495 -3.1774,-7.05243 -7.037,-7.05243 -3.968,0 -7.1455,3.17748 -7.1455,7.05243 0,5.34756 5.2545,7.82755 9.92,7.82755 5.2545,0 8.7265,-2.48 12.1055,-6.15355 l -11.315,35.32456 2.6815,0.79053 13.888,-43.7411 c 0.1086,-0.10842 0.1086,-0.31 0.1086,-0.496 0,-0.49599 -0.31,-0.89895 -0.8991,-1.19348"
     id="path3633"
     style="stroke-width:0.992001" />
  <path
     class="Beam"
     fill-rule="evenodd"
     d="m 1776.202,376.95801 199.17,6.19999 v 12.406 l -199.17,-6.19999 v -12.406"
     id="path3635" />
  <path
     class="Beam"
     fill-rule="evenodd"
     d="m 1199.852,352.149 199.17,12.4 v 12.424 l -199.17,-12.4 v -12.424"
     id="path3637" />
  <path
     class="Beam"
     fill-rule="evenodd"
     d="m 2382.292,259.134 199.17,18.60001 v 12.454 L 2382.292,271.588 v -12.454"
     id="path3639" />
  <path
     class="Beam"
     fill-rule="evenodd"
     d="m 214.04,445.15201 199.166,-12.4 v 12.42 l -199.166,12.4 v -12.42"
     id="path3641" />
  <path
     class="Beam"
     fill-rule="evenodd"
     d="m 3408.722,166.10401 137.17,-18.6 v 12.513 l -137.17,18.6 v -12.513"
     id="path3643" />
  <path
     class="Beam"
     fill-rule="evenodd"
     d="m 3002.842,135.154 137.17,-6.19999 v 12.413 l -137.17,6.2 V 135.154"
     id="path3645" />
  <path
     class="NoteDot"
     d="m 2423.972,178.56101 c 0,2.77451 2.1855,4.96001 4.96,4.96001 2.7745,0 4.96,-2.1855 4.96,-4.96001 0,-2.77451 -2.1855,-4.96 -4.96,-4.96 -2.7745,0 -4.96,2.18548 -4.96,4.96"
     id="path3651"
     style="stroke-width:0.992001" />
  <path
     class="NoteDot"
     d="m 2092.072,104.16001 c 0,2.77451 2.1855,4.96 4.96,4.96 2.7745,0 4.96,-2.18549 4.96,-4.96 0,-2.77451 -2.1855,-4.960015 -4.96,-4.960015 -2.7745,0 -4.96,2.185495 -4.96,4.960015"
     id="path3653"
     style="stroke-width:0.992001" />
  <path
     class="NoteDot"
     d="m 835.012,376.961 c 0,2.77452 2.18551,4.96001 4.96,4.96001 2.77451,0 4.96001,-2.18549 4.96001,-4.96001 0,-2.77451 -2.1855,-4.95999 -4.96001,-4.95999 -2.77449,0 -4.96,2.18549 -4.96,4.95999"
     id="path3655"
     style="stroke-width:0.992001" />
  <path
     class="NoteDot"
     d="m 835.012,352.161 c 0,2.77451 2.18551,4.96 4.96,4.96 2.77451,0 4.96001,-2.18549 4.96001,-4.96 0,-2.77451 -2.1855,-4.96001 -4.96001,-4.96001 -2.77449,0 -4.96,2.1855 -4.96,4.96001"
     id="path3657"
     style="stroke-width:0.992001" />
  <path
     class="NoteDot"
     d="m 835.012,327.36101 c 0,2.77451 2.18551,4.96001 4.96,4.96001 2.77451,0 4.96001,-2.1855 4.96001,-4.96001 0,-2.77451 -2.1855,-4.96001 -4.96001,-4.96001 -2.77449,0 -4.96,2.1855 -4.96,4.96001"
     id="path3659"
     style="stroke-width:0.992001" />
  <path
     class="NoteDot"
     d="m 2092.072,128.96001 c 0,2.77451 2.1855,4.96001 4.96,4.96001 2.7745,0 4.96,-2.1855 4.96,-4.96001 0,-2.77451 -2.1855,-4.96 -4.96,-4.96 -2.7745,0 -4.96,2.18549 -4.96,4.96"
     id="path3661"
     style="stroke-width:0.992001" />
  <path
     class="NoteDot"
     d="m 1022.012,352.161 c 0,2.77451 2.1855,4.96 4.96,4.96 2.7745,0 4.96,-2.18549 4.96,-4.96 0,-2.77451 -2.1855,-4.96001 -4.96,-4.96001 -2.7745,0 -4.96,2.1855 -4.96,4.96001"
     id="path3663"
     style="stroke-width:0.992001" />
  <path
     class="NoteDot"
     d="m 1022.012,327.36101 c 0,2.77451 2.1855,4.96001 4.96,4.96001 2.7745,0 4.96,-2.1855 4.96,-4.96001 0,-2.77451 -2.1855,-4.96001 -4.96,-4.96001 -2.7745,0 -4.96,2.1855 -4.96,4.96001"
     id="path3665"
     style="stroke-width:0.992001" />
  <path
     class="NoteDot"
     d="m 1022.012,277.761 c 0,2.77452 2.1855,4.96002 4.96,4.96002 2.7745,0 4.96,-2.1855 4.96,-4.96002 0,-2.77451 -2.1855,-4.96001 -4.96,-4.96001 -2.7745,0 -4.96,2.1855 -4.96,4.96001"
     id="path3667"
     style="stroke-width:0.992001" />
  <path
     class="NoteDot"
     d="m 764.474,104.16001 c 0,2.77451 2.18551,4.96 4.96,4.96 2.77451,0 4.96001,-2.18549 4.96001,-4.96 0,-2.77451 -2.1855,-4.960015 -4.96001,-4.960015 -2.77449,0 -4.96,2.185495 -4.96,4.960015"
     id="path3669"
     style="stroke-width:0.992001" />
  <path
     class="NoteDot"
     d="m 2883.932,54.560005 c 0,2.77451 2.1855,4.96 4.96,4.96 2.7745,0 4.96,-2.18549 4.96,-4.96 0,-2.77451 -2.1855,-4.96001 -4.96,-4.96001 -2.7745,0 -4.96,2.1855 -4.96,4.96001"
     id="path3671"
     style="stroke-width:0.992001" />
  <path
     class="NoteDot"
     d="m 764.474,128.96001 c 0,2.77451 2.18551,4.96001 4.96,4.96001 2.77451,0 4.96001,-2.1855 4.96001,-4.96001 0,-2.77451 -2.1855,-4.96 -4.96001,-4.96 -2.77449,0 -4.96,2.18549 -4.96,4.96"
     id="path3673"
     style="stroke-width:0.992001" />
  <path
     class="NoteDot"
     d="m 1096.372,178.56101 c 0,2.77451 2.1855,4.96001 4.96,4.96001 2.7745,0 4.96,-2.1855 4.96,-4.96001 0,-2.77451 -2.1855,-4.96 -4.96,-4.96 -2.7745,0 -4.96,2.18548 -4.96,4.96"
     id="path3675"
     style="stroke-width:0.992001" />
  <path
     class="NoteDot"
     d="m 1760.172,104.16001 c 0,2.77451 2.1855,4.96 4.96,4.96 2.7745,0 4.96,-2.18549 4.96,-4.96 0,-2.77451 -2.1855,-4.960015 -4.96,-4.960015 -2.7745,0 -4.96,2.185495 -4.96,4.960015"
     id="path3677"
     style="stroke-width:0.992001" />
  <path
     class="NoteDot"
     d="m 764.474,153.761 c 0,2.77451 2.18551,4.96001 4.96,4.96001 2.77451,0 4.96001,-2.18549 4.96001,-4.96001 0,-2.7745 -2.1855,-4.96001 -4.96001,-4.96001 -2.77449,0 -4.96,2.1855 -4.96,4.96001"
     id="path3679"
     style="stroke-width:0.992001" />
  <path
     class="NoteDot"
     d="m 1760.172,79.360005 c 0,2.77451 2.1855,4.96001 4.96,4.96001 2.7745,0 4.96,-2.1855 4.96,-4.96001 0,-2.77451 -2.1855,-4.96 -4.96,-4.96 -2.7745,0 -4.96,2.18549 -4.96,4.96"
     id="path3681"
     style="stroke-width:0.992001" />
  <path
     class="NoteDot"
     d="m 2973.522,401.761 c 0,2.77452 2.1855,4.96002 4.96,4.96002 2.7745,0 4.96,-2.1855 4.96,-4.96002 0,-2.77451 -2.1855,-4.96001 -4.96,-4.96001 -2.7745,0 -4.96,2.1855 -4.96,4.96001"
     id="path3683"
     style="stroke-width:0.992001" />
  <path
     class="NoteDot"
     d="m 2883.932,79.360005 c 0,2.77451 2.1855,4.96001 4.96,4.96001 2.7745,0 4.96,-2.1855 4.96,-4.96001 0,-2.77451 -2.1855,-4.96 -4.96,-4.96 -2.7745,0 -4.96,2.18549 -4.96,4.96"
     id="path3685"
     style="stroke-width:0.992001" />
  <path
     class="NoteDot"
     d="m 2973.522,352.161 c 0,2.77451 2.1855,4.96 4.96,4.96 2.7745,0 4.96,-2.18549 4.96,-4.96 0,-2.77451 -2.1855,-4.96001 -4.96,-4.96001 -2.7745,0 -4.96,2.1855 -4.96,4.96001"
     id="path3687"
     style="stroke-width:0.992001" />
  <path
     class="NoteDot"
     d="m 2755.872,54.560005 c 0,2.77451 2.1855,4.96 4.96,4.96 2.7745,0 4.96,-2.18549 4.96,-4.96 0,-2.77451 -2.1855,-4.96001 -4.96,-4.96001 -2.7745,0 -4.96,2.1855 -4.96,4.96001"
     id="path3689"
     style="stroke-width:0.992001" />
  <path
     class="NoteDot"
     d="m 2973.522,327.36101 c 0,2.77451 2.1855,4.96001 4.96,4.96001 2.7745,0 4.96,-2.1855 4.96,-4.96001 0,-2.77451 -2.1855,-4.96001 -4.96,-4.96001 -2.7745,0 -4.96,2.1855 -4.96,4.96001"
     id="path3691"
     style="stroke-width:0.992001" />
  <path
     class="NoteDot"
     d="m 2755.872,79.360005 c 0,2.77451 2.1855,4.96001 4.96,4.96001 2.7745,0 4.96,-2.1855 4.96,-4.96001 0,-2.77451 -2.1855,-4.96 -4.96,-4.96 -2.7745,0 -4.96,2.18549 -4.96,4.96"
     id="path3693"
     style="stroke-width:0.992001" />
  <path
     class="NoteDot"
     d="m 1096.372,104.16001 c 0,2.77451 2.1855,4.96 4.96,4.96 2.7745,0 4.96,-2.18549 4.96,-4.96 0,-2.77451 -2.1855,-4.960015 -4.96,-4.960015 -2.7745,0 -4.96,2.185495 -4.96,4.960015"
     id="path3695"
     style="stroke-width:0.992001" />
  <path
     class="NoteDot"
     d="m 1428.272,153.761 c 0,2.77451 2.1855,4.96001 4.96,4.96001 2.7745,0 4.96,-2.18549 4.96,-4.96001 0,-2.7745 -2.1855,-4.96001 -4.96,-4.96001 -2.7745,0 -4.96,2.1855 -4.96,4.96001"
     id="path3697"
     style="stroke-width:0.992001" />
  <path
     class="NoteDot"
     d="m 3160.522,426.562 c 0,2.77452 2.1855,4.96001 4.96,4.96001 2.7745,0 4.96,-2.18549 4.96,-4.96001 0,-2.77451 -2.1855,-4.95999 -4.96,-4.95999 -2.7745,0 -4.96,2.18549 -4.96,4.95999"
     id="path3699"
     style="stroke-width:0.992001" />
  <path
     class="NoteDot"
     d="m 1760.172,54.560005 c 0,2.77451 2.1855,4.96 4.96,4.96 2.7745,0 4.96,-2.18549 4.96,-4.96 0,-2.77451 -2.1855,-4.96001 -4.96,-4.96001 -2.7745,0 -4.96,2.1855 -4.96,4.96001"
     id="path3701"
     style="stroke-width:0.992001" />
  <path
     class="NoteDot"
     d="m 3160.522,401.761 c 0,2.77452 2.1855,4.96002 4.96,4.96002 2.7745,0 4.96,-2.1855 4.96,-4.96002 0,-2.77451 -2.1855,-4.96001 -4.96,-4.96001 -2.7745,0 -4.96,2.1855 -4.96,4.96001"
     id="path3703"
     style="stroke-width:0.992001" />
  <path
     class="NoteDot"
     d="m 432.575,104.16001 c 0,2.77451 2.18551,4.96 4.96,4.96 2.77451,0 4.96001,-2.18549 4.96001,-4.96 0,-2.77451 -2.1855,-4.960015 -4.96001,-4.960015 -2.77449,0 -4.96,2.185495 -4.96,4.960015"
     id="path3705"
     style="stroke-width:0.992001" />
  <path
     class="NoteDot"
     d="m 432.575,79.360005 c 0,2.77451 2.18551,4.96001 4.96,4.96001 2.77451,0 4.96001,-2.1855 4.96001,-4.96001 0,-2.77451 -2.1855,-4.96 -4.96001,-4.96 -2.77449,0 -4.96,2.18549 -4.96,4.96"
     id="path3707"
     style="stroke-width:0.992001" />
  <path
     class="NoteDot"
     d="m 1096.372,128.96001 c 0,2.77451 2.1855,4.96001 4.96,4.96001 2.7745,0 4.96,-2.1855 4.96,-4.96001 0,-2.77451 -2.1855,-4.96 -4.96,-4.96 -2.7745,0 -4.96,2.18549 -4.96,4.96"
     id="path3709"
     style="stroke-width:0.992001" />
  <path
     class="NoteDot"
     d="m 2755.872,104.16001 c 0,2.77451 2.1855,4.96 4.96,4.96 2.7745,0 4.96,-2.18549 4.96,-4.96 0,-2.77451 -2.1855,-4.960015 -4.96,-4.960015 -2.7745,0 -4.96,2.185495 -4.96,4.960015"
     id="path3711"
     style="stroke-width:0.992001" />
  <path
     class="NoteDot"
     d="m 2092.072,153.761 c 0,2.77451 2.1855,4.96001 4.96,4.96001 2.7745,0 4.96,-2.18549 4.96,-4.96001 0,-2.7745 -2.1855,-4.96001 -4.96,-4.96001 -2.7745,0 -4.96,2.1855 -4.96,4.96001"
     id="path3713"
     style="stroke-width:0.992001" />
  <path
     class="NoteDot"
     d="m 2423.972,104.16001 c 0,2.77451 2.1855,4.96 4.96,4.96 2.7745,0 4.96,-2.18549 4.96,-4.96 0,-2.77451 -2.1855,-4.960015 -4.96,-4.960015 -2.7745,0 -4.96,2.185495 -4.96,4.960015"
     id="path3715"
     style="stroke-width:0.992001" />
  <path
     class="NoteDot"
     d="m 3160.522,376.961 c 0,2.77452 2.1855,4.96001 4.96,4.96001 2.7745,0 4.96,-2.18549 4.96,-4.96001 0,-2.77451 -2.1855,-4.95999 -4.96,-4.95999 -2.7745,0 -4.96,2.18549 -4.96,4.95999"
     id="path3717"
     style="stroke-width:0.992001" />
  <path
     class="NoteDot"
     d="m 1428.272,104.16001 c 0,2.77451 2.1855,4.96 4.96,4.96 2.7745,0 4.96,-2.18549 4.96,-4.96 0,-2.77451 -2.1855,-4.960015 -4.96,-4.960015 -2.7745,0 -4.96,2.185495 -4.96,4.960015"
     id="path3719"
     style="stroke-width:0.992001" />
  <path
     class="NoteDot"
     d="m 1428.272,128.96001 c 0,2.77451 2.1855,4.96001 4.96,4.96001 2.7745,0 4.96,-2.1855 4.96,-4.96001 0,-2.77451 -2.1855,-4.96 -4.96,-4.96 -2.7745,0 -4.96,2.18549 -4.96,4.96"
     id="path3721"
     style="stroke-width:0.992001" />
  <path
     class="NoteDot"
     d="m 2423.972,128.96001 c 0,2.77451 2.1855,4.96001 4.96,4.96001 2.7745,0 4.96,-2.1855 4.96,-4.96001 0,-2.77451 -2.1855,-4.96 -4.96,-4.96 -2.7745,0 -4.96,2.18549 -4.96,4.96"
     id="path3723"
     style="stroke-width:0.992001" />
  <path
     class="NoteDot"
     d="m 2883.932,4.960005 c 0,2.774508 2.1855,4.960005 4.96,4.960005 2.7745,0 4.96,-2.185497 4.96,-4.960005 C 2893.852,2.185497 2891.6665,0 2888.892,0 c -2.7745,0 -4.96,2.185497 -4.96,4.960005"
     id="path3725"
     style="stroke-width:0.992001" />
  <path
     class="NoteDot"
     d="m 432.575,54.560005 c 0,2.77451 2.18551,4.96 4.96,4.96 2.77451,0 4.96001,-2.18549 4.96001,-4.96 0,-2.77451 -2.1855,-4.96001 -4.96001,-4.96001 -2.77449,0 -4.96,2.1855 -4.96,4.96001"
     id="path3727"
     style="stroke-width:0.992001" />
</svg>
