<?xml version="1.0" encoding="UTF-8" standalone="no"?>
<svg
   xmlns:dc="http://purl.org/dc/elements/1.1/"
   xmlns:cc="http://creativecommons.org/ns#"
   xmlns:rdf="http://www.w3.org/1999/02/22-rdf-syntax-ns#"
   xmlns:svg="http://www.w3.org/2000/svg"
   xmlns="http://www.w3.org/2000/svg"
   xmlns:sodipodi="http://sodipodi.sourceforge.net/DTD/sodipodi-0.dtd"
   xmlns:inkscape="http://www.inkscape.org/namespaces/inkscape"
   width="3983.6001"
   height="176.38991"
   viewBox="0 0 3983.6002 176.38991"
   version="1.2"
   id="svg2414"
   sodipodi:docname="Strofa Es.svg"
   inkscape:version="1.0.2-2 (e86c870879, 2021-01-15)"
   inkscape:export-filename="C:\Users\slagt\Music\Strofe\Strofa Es\Strofa Es.png"
   inkscape:export-xdpi="95"
   inkscape:export-ydpi="95">
  <metadata
     id="metadata2420">
    <rdf:RDF>
      <cc:Work
         rdf:about="">
        <dc:format>image/svg+xml</dc:format>
        <dc:type
           rdf:resource="http://purl.org/dc/dcmitype/StillImage" />
      </cc:Work>
    </rdf:RDF>
  </metadata>
  <defs
     id="defs2418" />
  <sodipodi:namedview
     pagecolor="#ffffff"
     bordercolor="#666666"
     borderopacity="1"
     objecttolerance="10"
     gridtolerance="10"
     guidetolerance="10"
     inkscape:pageopacity="0"
     inkscape:pageshadow="2"
     inkscape:window-width="1920"
     inkscape:window-height="991"
     id="namedview2416"
     showgrid="false"
     inkscape:zoom="0.26271947"
     inkscape:cx="1929.8"
     inkscape:cy="523.75238"
     inkscape:window-x="-9"
     inkscape:window-y="-9"
     inkscape:window-maximized="1"
     inkscape:current-layer="svg2414" />
  <title
     id="title2190">Strofa Es</title>
  <desc
     id="desc2192">Generated by MuseScore Studio 4.4.4</desc>
  <polyline
     class="StaffLines"
     fill="none"
     stroke="#000000"
     stroke-width="2.73"
     stroke-linejoin="bevel"
     points="246.4,616 4230,616"
     id="polyline2194"
     transform="translate(-246.4,-580.08662)" />
  <polyline
     class="StaffLines"
     fill="none"
     stroke="#000000"
     stroke-width="2.73"
     stroke-linejoin="bevel"
     points="246.4,640.8 4230,640.8"
     id="polyline2196"
     transform="translate(-246.4,-580.08662)" />
  <polyline
     class="StaffLines"
     fill="none"
     stroke="#000000"
     stroke-width="2.73"
     stroke-linejoin="bevel"
     points="246.4,665.6 4230,665.6"
     id="polyline2198"
     transform="translate(-246.4,-580.08662)" />
  <polyline
     class="StaffLines"
     fill="none"
     stroke="#000000"
     stroke-width="2.73"
     stroke-linejoin="bevel"
     points="246.4,690.4 4230,690.4"
     id="polyline2200"
     transform="translate(-246.4,-580.08662)" />
  <polyline
     class="StaffLines"
     fill="none"
     stroke="#000000"
     stroke-width="2.73"
     stroke-linejoin="bevel"
     points="246.4,715.2 4230,715.2"
     id="polyline2202"
     transform="translate(-246.4,-580.08662)" />
  <path
     class="TieSegment"
     stroke="#000000"
     stroke-width="1.24"
     stroke-linecap="round"
     stroke-linejoin="round"
     fill-rule="evenodd"
     d="m 3670.05,116.11038 c 19.99,11.267 79.94,11.267 99.93,0 -19.99,19.203 -79.94,19.203 -99.93,0"
     id="path2210" />
  <path
     class="TieSegment"
     stroke="#000000"
     stroke-width="1.24"
     stroke-linecap="round"
     stroke-linejoin="round"
     fill-rule="evenodd"
     d="m 840.4,116.00938 c 19.98,11.368 79.94,11.368 99.93,0 -19.99,19.304 -79.95,19.304 -99.93,0"
     id="path2212" />
  <polyline
     class="BarLine"
     fill="none"
     stroke="#000000"
     stroke-width="4.46"
     stroke-linejoin="bevel"
     points="1451.48,614.636 1451.48,716.564"
     id="polyline2214"
     transform="translate(-246.4,-580.08662)" />
  <polyline
     class="BarLine"
     fill="none"
     stroke="#000000"
     stroke-width="4.46"
     stroke-linejoin="bevel"
     points="3659.66,614.636 3659.66,716.564"
     id="polyline2216"
     transform="translate(-246.4,-580.08662)" />
  <polyline
     class="BarLine"
     fill="none"
     stroke="#000000"
     stroke-width="4.46"
     stroke-linejoin="bevel"
     points="2279.15,614.636 2279.15,716.564"
     id="polyline2218"
     transform="translate(-246.4,-580.08662)" />
  <polyline
     class="BarLine"
     fill="none"
     stroke="#000000"
     stroke-width="4.46"
     stroke-linejoin="bevel"
     points="3418.35,614.636 3418.35,716.564"
     id="polyline2220"
     transform="translate(-246.4,-580.08662)" />
  <polyline
     class="BarLine"
     fill="none"
     stroke="#000000"
     stroke-width="4.46"
     stroke-linejoin="bevel"
     points="830.013,614.636 830.013,716.564"
     id="polyline2222"
     transform="translate(-246.4,-580.08662)" />
  <polyline
     class="BarLine"
     fill="none"
     stroke="#000000"
     stroke-width="4.46"
     stroke-linejoin="bevel"
     points="1727.1,614.636 1727.1,716.564"
     id="polyline2224"
     transform="translate(-246.4,-580.08662)" />
  <polyline
     class="BarLine"
     fill="none"
     stroke="#000000"
     stroke-width="4.46"
     stroke-linejoin="bevel"
     points="2831.19,614.636 2831.19,716.564"
     id="polyline2226"
     transform="translate(-246.4,-580.08662)" />
  <polyline
     class="BarLine"
     fill="none"
     stroke="#000000"
     stroke-width="4.46"
     stroke-linejoin="bevel"
     points="1140.75,614.636 1140.75,716.564"
     id="polyline2228"
     transform="translate(-246.4,-580.08662)" />
  <polyline
     class="BarLine"
     fill="none"
     stroke="#000000"
     stroke-width="4.46"
     stroke-linejoin="bevel"
     points="2520.46,614.636 2520.46,716.564"
     id="polyline2230"
     transform="translate(-246.4,-580.08662)" />
  <polyline
     class="BarLine"
     fill="none"
     stroke="#000000"
     stroke-width="4.46"
     stroke-linejoin="bevel"
     points="4204.95,614.636 4204.95,716.564"
     id="polyline2232"
     transform="translate(-246.4,-580.08662)" />
  <polyline
     class="BarLine"
     fill="none"
     stroke="#000000"
     stroke-width="13.64"
     stroke-linejoin="bevel"
     points="4223.18,614.636 4223.18,716.564"
     id="polyline2234"
     transform="translate(-246.4,-580.08662)" />
  <polyline
     class="BarLine"
     fill="none"
     stroke="#000000"
     stroke-width="4.46"
     stroke-linejoin="bevel"
     points="3141.93,614.636 3141.93,716.564"
     id="polyline2236"
     transform="translate(-246.4,-580.08662)" />
  <polyline
     class="BarLine"
     fill="none"
     stroke="#000000"
     stroke-width="4.46"
     stroke-linejoin="bevel"
     points="3970.4,614.636 3970.4,716.564"
     id="polyline2238"
     transform="translate(-246.4,-580.08662)" />
  <polyline
     class="BarLine"
     fill="none"
     stroke="#000000"
     stroke-width="4.46"
     stroke-linejoin="bevel"
     points="2003.53,614.636 2003.53,716.564"
     id="polyline2240"
     transform="translate(-246.4,-580.08662)" />
  <polyline
     class="Stem"
     fill="none"
     stroke="#000000"
     stroke-width="2.48"
     stroke-linejoin="bevel"
     points="3347.94,644.966 3347.94,727.6"
     id="polyline2242"
     transform="translate(-246.4,-580.08662)" />
  <polyline
     class="Stem"
     fill="none"
     stroke="#000000"
     stroke-width="2.48"
     stroke-linejoin="bevel"
     points="3452.83,632.566 3452.83,715.2"
     id="polyline2244"
     transform="translate(-246.4,-580.08662)" />
  <polyline
     class="Stem"
     fill="none"
     stroke="#000000"
     stroke-width="2.48"
     stroke-linejoin="bevel"
     points="3585.49,674.032 3585.49,597.4"
     id="polyline2246"
     transform="translate(-246.4,-580.08662)" />
  <polyline
     class="Stem"
     fill="none"
     stroke="#000000"
     stroke-width="2.48"
     stroke-linejoin="bevel"
     points="3694.14,669.766 3694.14,740"
     id="polyline2248"
     transform="translate(-246.4,-580.08662)" />
  <polyline
     class="Stem"
     fill="none"
     stroke="#000000"
     stroke-width="2.48"
     stroke-linejoin="bevel"
     points="623.174,632.566 623.174,715.2"
     id="polyline2250"
     transform="translate(-246.4,-580.08662)" />
  <polyline
     class="Stem"
     fill="none"
     stroke="#000000"
     stroke-width="2.48"
     stroke-linejoin="bevel"
     points="3762.75,657.366 3762.75,733.8"
     id="polyline2252"
     transform="translate(-246.4,-580.08662)" />
  <polyline
     class="Stem"
     fill="none"
     stroke="#000000"
     stroke-width="2.48"
     stroke-linejoin="bevel"
     points="755.842,674.032 755.842,597.4"
     id="polyline2254"
     transform="translate(-246.4,-580.08662)" />
  <polyline
     class="Stem"
     fill="none"
     stroke="#000000"
     stroke-width="2.48"
     stroke-linejoin="bevel"
     points="3831.37,669.766 3831.37,740"
     id="polyline2256"
     transform="translate(-246.4,-580.08662)" />
  <polyline
     class="Stem"
     fill="none"
     stroke="#000000"
     stroke-width="2.48"
     stroke-linejoin="bevel"
     points="864.485,669.766 864.485,740"
     id="polyline2258"
     transform="translate(-246.4,-580.08662)" />
  <polyline
     class="Stem"
     fill="none"
     stroke="#000000"
     stroke-width="2.48"
     stroke-linejoin="bevel"
     points="3929.73,674.032 3929.73,597.4"
     id="polyline2260"
     transform="translate(-246.4,-580.08662)" />
  <polyline
     class="Stem"
     fill="none"
     stroke="#000000"
     stroke-width="2.48"
     stroke-linejoin="bevel"
     points="933.1,657.366 933.1,733.8"
     id="polyline2262"
     transform="translate(-246.4,-580.08662)" />
  <polyline
     class="Stem"
     fill="none"
     stroke="#000000"
     stroke-width="2.48"
     stroke-linejoin="bevel"
     points="4034.62,674.032 4034.62,597.4"
     id="polyline2264"
     transform="translate(-246.4,-580.08662)" />
  <polyline
     class="Stem"
     fill="none"
     stroke="#000000"
     stroke-width="2.48"
     stroke-linejoin="bevel"
     points="1001.72,669.766 1001.72,740"
     id="polyline2266"
     transform="translate(-246.4,-580.08662)" />
  <polyline
     class="Stem"
     fill="none"
     stroke="#000000"
     stroke-width="2.48"
     stroke-linejoin="bevel"
     points="1100.08,674.032 1100.08,597.4"
     id="polyline2268"
     transform="translate(-246.4,-580.08662)" />
  <polyline
     class="Stem"
     fill="none"
     stroke="#000000"
     stroke-width="2.48"
     stroke-linejoin="bevel"
     points="1204.96,674.032 1204.96,597.4"
     id="polyline2270"
     transform="translate(-246.4,-580.08662)" />
  <polyline
     class="Stem"
     fill="none"
     stroke="#000000"
     stroke-width="2.48"
     stroke-linejoin="bevel"
     points="1342.2,674.032 1342.2,597.4"
     id="polyline2272"
     transform="translate(-246.4,-580.08662)" />
  <polyline
     class="Stem"
     fill="none"
     stroke="#000000"
     stroke-width="2.48"
     stroke-linejoin="bevel"
     points="1381.07,669.766 1381.07,740"
     id="polyline2274"
     transform="translate(-246.4,-580.08662)" />
  <polyline
     class="Stem"
     fill="none"
     stroke="#000000"
     stroke-width="2.48"
     stroke-linejoin="bevel"
     points="1485.95,657.366 1485.95,733.8"
     id="polyline2276"
     transform="translate(-246.4,-580.08662)" />
  <polyline
     class="Stem"
     fill="none"
     stroke="#000000"
     stroke-width="2.48"
     stroke-linejoin="bevel"
     points="1554.57,644.966 1554.57,727.6"
     id="polyline2278"
     transform="translate(-246.4,-580.08662)" />
  <polyline
     class="Stem"
     fill="none"
     stroke="#000000"
     stroke-width="2.48"
     stroke-linejoin="bevel"
     points="1623.19,632.566 1623.19,715.2"
     id="polyline2280"
     transform="translate(-246.4,-580.08662)" />
  <polyline
     class="Stem"
     fill="none"
     stroke="#000000"
     stroke-width="2.48"
     stroke-linejoin="bevel"
     points="1791.32,674.032 1791.32,597.4"
     id="polyline2282"
     transform="translate(-246.4,-580.08662)" />
  <polyline
     class="Stem"
     fill="none"
     stroke="#000000"
     stroke-width="2.48"
     stroke-linejoin="bevel"
     points="1864.5,669.766 1864.5,740"
     id="polyline2284"
     transform="translate(-246.4,-580.08662)" />
  <polyline
     class="Stem"
     fill="none"
     stroke="#000000"
     stroke-width="2.48"
     stroke-linejoin="bevel"
     points="1933.11,657.366 1933.11,733.8"
     id="polyline2286"
     transform="translate(-246.4,-580.08662)" />
  <polyline
     class="Stem"
     fill="none"
     stroke="#000000"
     stroke-width="2.48"
     stroke-linejoin="bevel"
     points="2038,669.766 2038,740"
     id="polyline2288"
     transform="translate(-246.4,-580.08662)" />
  <polyline
     class="Stem"
     fill="none"
     stroke="#000000"
     stroke-width="2.48"
     stroke-linejoin="bevel"
     points="2136.36,674.032 2136.36,597.4"
     id="polyline2290"
     transform="translate(-246.4,-580.08662)" />
  <polyline
     class="Stem"
     fill="none"
     stroke="#000000"
     stroke-width="2.48"
     stroke-linejoin="bevel"
     points="2313.62,632.566 2313.62,715.2"
     id="polyline2292"
     transform="translate(-246.4,-580.08662)" />
  <polyline
     class="Stem"
     fill="none"
     stroke="#000000"
     stroke-width="2.48"
     stroke-linejoin="bevel"
     points="2446.29,674.032 2446.29,597.4"
     id="polyline2294"
     transform="translate(-246.4,-580.08662)" />
  <polyline
     class="Stem"
     fill="none"
     stroke="#000000"
     stroke-width="2.48"
     stroke-linejoin="bevel"
     points="2554.93,669.766 2554.93,740"
     id="polyline2296"
     transform="translate(-246.4,-580.08662)" />
  <polyline
     class="Stem"
     fill="none"
     stroke="#000000"
     stroke-width="2.48"
     stroke-linejoin="bevel"
     points="2623.54,657.366 2623.54,733.8"
     id="polyline2298"
     transform="translate(-246.4,-580.08662)" />
  <polyline
     class="Stem"
     fill="none"
     stroke="#000000"
     stroke-width="2.48"
     stroke-linejoin="bevel"
     points="2692.16,669.766 2692.16,740"
     id="polyline2300"
     transform="translate(-246.4,-580.08662)" />
  <polyline
     class="Stem"
     fill="none"
     stroke="#000000"
     stroke-width="2.48"
     stroke-linejoin="bevel"
     points="2790.52,674.032 2790.52,597.4"
     id="polyline2302"
     transform="translate(-246.4,-580.08662)" />
  <polyline
     class="Stem"
     fill="none"
     stroke="#000000"
     stroke-width="2.48"
     stroke-linejoin="bevel"
     points="2895.41,674.032 2895.41,597.4"
     id="polyline2304"
     transform="translate(-246.4,-580.08662)" />
  <polyline
     class="Stem"
     fill="none"
     stroke="#000000"
     stroke-width="2.48"
     stroke-linejoin="bevel"
     points="3032.64,674.032 3032.64,597.4"
     id="polyline2306"
     transform="translate(-246.4,-580.08662)" />
  <polyline
     class="Stem"
     fill="none"
     stroke="#000000"
     stroke-width="2.48"
     stroke-linejoin="bevel"
     points="3071.51,669.766 3071.51,740"
     id="polyline2308"
     transform="translate(-246.4,-580.08662)" />
  <polyline
     class="Stem"
     fill="none"
     stroke="#000000"
     stroke-width="2.48"
     stroke-linejoin="bevel"
     points="3176.4,657.366 3176.4,733.8"
     id="polyline2310"
     transform="translate(-246.4,-580.08662)" />
  <polyline
     class="Stem"
     fill="none"
     stroke="#000000"
     stroke-width="2.48"
     stroke-linejoin="bevel"
     points="3279.32,657.366 3279.32,733.8"
     id="polyline2312"
     transform="translate(-246.4,-580.08662)" />
  <path
     class="Note"
     d="m 499.58352,84.815901 c -9.62547,0 -21.12652,8.044475 -21.12652,17.266979 0,4.2625 3.069,9.02102 11.11348,9.02102 10.30757,0 21.12652,-8.43202 21.12652,-17.158524 0,-5.859 -4.96,-9.129475 -11.11348,-9.129475 M 485.897,106.43838 c -3.2705,0 -3.968,-2.666 -3.968,-3.565 0,-4.867004 16.66252,-13.392004 21.328,-13.392004 2.38705,0 3.968,1.395 3.968,3.565 0,4.96 -16.77095,13.392004 -21.328,13.392004"
     id="path2314"
     style="stroke-width:0.992" />
  <path
     class="Note"
     d="m 1064.81,102.08288 c 0,4.2625 3.069,9.02102 11.1135,9.02102 10.3075,0 21.1265,-8.43202 21.1265,-17.158524 0,-5.859 -4.96,-9.129475 -11.1135,-9.129475 -9.6255,0 -21.1265,8.137475 -21.1265,17.266979"
     id="path2316"
     style="stroke-width:0.992" />
  <path
     class="Note"
     d="m 3778.3565,84.815901 c -9.6255,0 -21.1265,8.044475 -21.1265,17.266979 0,4.2625 3.069,9.02102 11.1135,9.02102 10.3075,0 21.1265,-8.43202 21.1265,-17.158524 0,-5.859 -4.96,-9.129475 -11.1135,-9.129475 M 3764.67,106.43838 c -3.2705,0 -3.968,-2.666 -3.968,-3.565 0,-4.867004 16.6625,-13.392004 21.328,-13.392004 2.387,0 3.968,1.395 3.968,3.565 0,4.96 -16.771,13.392004 -21.328,13.392004"
     id="path2318"
     style="stroke-width:0.992" />
  <path
     class="Note"
     d="m 927.58,102.08288 c 0,4.2625 3.069,9.02102 11.11348,9.02102 10.30757,0 21.12652,-8.43202 21.12652,-17.158524 0,-5.859 -4.96,-9.129475 -11.11348,-9.129475 -9.62547,0 -21.12652,8.137475 -21.12652,17.266979"
     id="path2320"
     style="stroke-width:0.992" />
  <path
     class="Note"
     d="m 396.66052,35.215901 c -9.62547,0 -21.12652,8.044475 -21.12652,17.26698 0,4.262495 3.069,9.02102 11.11348,9.02102 10.30757,0 21.12652,-8.43202 21.12652,-17.158525 0,-5.859 -4.96,-9.129475 -11.11348,-9.129475 M 382.974,56.838376 c -3.2705,0 -3.968,-2.666 -3.968,-3.565 0,-4.867 16.66252,-13.392 21.328,-13.392 2.38705,0 3.968,1.395 3.968,3.565 0,4.96 -16.77095,13.392 -21.328,13.392"
     id="path2322"
     style="stroke-width:0.992" />
  <path
     class="Note"
     d="m 2190.0265,84.815901 c -9.6255,0 -21.1265,8.044475 -21.1265,17.266979 0,4.2625 3.069,9.02102 11.1135,9.02102 10.3075,0 21.1265,-8.43202 21.1265,-17.158524 0,-5.859 -4.96,-9.129475 -11.1135,-9.129475 M 2176.34,106.43838 c -3.2705,0 -3.968,-2.666 -3.968,-3.565 0,-4.867004 16.6625,-13.392004 21.328,-13.392004 2.387,0 3.968,1.395 3.968,3.565 0,4.96 -16.771,13.392004 -21.328,13.392004"
     id="path2324"
     style="stroke-width:0.992" />
  <path
     class="Note"
     d="m 616.845,89.682881 c 0,4.262495 3.069,9.02102 11.11348,9.02102 10.30757,0 21.12652,-8.43202 21.12652,-17.158525 0,-5.859 -4.96,-9.129475 -11.11348,-9.129475 -9.62547,0 -21.12652,8.137475 -21.12652,17.26698"
     id="path2326"
     style="stroke-width:0.992" />
  <path
     class="Note"
     d="m 685.46,77.282881 c 0,4.262495 3.069,9.02102 11.11348,9.02102 10.30757,0 21.12652,-8.43202 21.12652,-17.158525 0,-5.859 -4.96,-9.129475 -11.11348,-9.129475 -9.62547,0 -21.12652,8.137475 -21.12652,17.26698"
     id="path2328"
     style="stroke-width:0.992" />
  <path
     class="Note"
     d="m 2307.29,89.682881 c 0,4.262495 3.069,9.02102 11.1135,9.02102 10.3075,0 21.1265,-8.43202 21.1265,-17.158525 0,-5.859 -4.96,-9.129475 -11.1135,-9.129475 -9.6255,0 -21.1265,8.137475 -21.1265,17.26698"
     id="path2330"
     style="stroke-width:0.992" />
  <path
     class="Note"
     d="m 2755.25,102.08288 c 0,4.2625 3.069,9.02102 11.1135,9.02102 10.3075,0 21.1265,-8.43202 21.1265,-17.158524 0,-5.859 -4.96,-9.129475 -11.1135,-9.129475 -9.6255,0 -21.1265,8.137475 -21.1265,17.266979"
     id="path2332"
     style="stroke-width:0.992" />
  <path
     class="Note"
     d="m 822.69,102.08288 c 0,4.2625 3.069,9.02102 11.11348,9.02102 10.30757,0 21.12652,-8.43202 21.12652,-17.158524 0,-5.859 -4.96,-9.129475 -11.11348,-9.129475 -9.62547,0 -21.12652,8.137475 -21.12652,17.266979"
     id="path2334"
     style="stroke-width:0.992" />
  <path
     class="Note"
     d="m 2823.87,89.682881 c 0,4.262495 3.069,9.02102 11.1135,9.02102 10.3075,0 21.1265,-8.43202 21.1265,-17.158525 0,-5.859 -4.96,-9.129475 -11.1135,-9.129475 -9.6255,0 -21.1265,8.137475 -21.1265,17.26698"
     id="path2336"
     style="stroke-width:0.992" />
  <path
     class="Note"
     d="m 1685.47,77.282881 c 0,4.262495 3.069,9.02102 11.1135,9.02102 10.3075,0 21.1265,-8.43202 21.1265,-17.158525 0,-5.859 -4.96,-9.129475 -11.1135,-9.129475 -9.6255,0 -21.1265,8.137475 -21.1265,17.26698"
     id="path2338"
     style="stroke-width:0.992" />
  <path
     class="Note"
     d="m 1616.86,89.682881 c 0,4.262495 3.069,9.02102 11.1135,9.02102 10.3075,0 21.1265,-8.43202 21.1265,-17.158525 0,-5.859 -4.96,-9.129475 -11.1135,-9.129475 -9.6255,0 -21.1265,8.137475 -21.1265,17.26698"
     id="path2340"
     style="stroke-width:0.992" />
  <path
     class="Note"
     d="m 2375.9,77.282881 c 0,4.262495 3.069,9.02102 11.1135,9.02102 10.3075,0 21.1265,-8.43202 21.1265,-17.158525 0,-5.859 -4.96,-9.129475 -11.1135,-9.129475 -9.6255,0 -21.1265,8.137475 -21.1265,17.26698"
     id="path2342"
     style="stroke-width:0.992" />
  <path
     class="Note"
     d="m 2949.8865,60.015901 c -9.6255,0 -21.1265,8.044475 -21.1265,17.26698 0,4.262495 3.069,9.02102 11.1135,9.02102 10.3075,0 21.1265,-8.43202 21.1265,-17.158525 0,-5.859 -4.96,-9.129475 -11.1135,-9.129475 M 2936.2,81.638376 c -3.2705,0 -3.968,-2.666 -3.968,-3.565 0,-4.867 16.6625,-13.392 21.328,-13.392 2.387,0 3.968,1.395 3.968,3.565 0,4.96 -16.771,13.392 -21.328,13.392"
     id="path2344"
     style="stroke-width:0.992" />
  <path
     class="Note"
     d="m 754.08,89.682881 c 0,4.262495 3.069,9.02102 11.11348,9.02102 10.30757,0 21.12652,-8.43202 21.12652,-17.158525 0,-5.859 -4.96,-9.129475 -11.11348,-9.129475 -9.62547,0 -21.12652,8.137475 -21.12652,17.26698"
     id="path2346"
     style="stroke-width:0.992" />
  <path
     class="Note"
     d="m 3031.68,77.282881 c 0,4.262495 3.069,9.02102 11.1135,9.02102 10.3075,0 21.1265,-8.43202 21.1265,-17.158525 0,-5.859 -4.96,-9.129475 -11.1135,-9.129475 -9.6255,0 -21.1265,8.137475 -21.1265,17.26698"
     id="path2348"
     style="stroke-width:0.992" />
  <path
     class="Note"
     d="m 2444.52,89.682881 c 0,4.262495 3.069,9.02102 11.1135,9.02102 10.3075,0 21.1265,-8.43202 21.1265,-17.158525 0,-5.859 -4.96,-9.129475 -11.1135,-9.129475 -9.6255,0 -21.1265,8.137475 -21.1265,17.26698"
     id="path2350"
     style="stroke-width:0.992" />
  <path
     class="Note"
     d="m 3100.3,64.882881 c 0,4.262495 3.069,9.02102 11.1135,9.02102 10.3075,0 21.1265,-8.43202 21.1265,-17.158525 0,-5.859 -4.96,-9.129475 -11.1135,-9.129475 -9.6255,0 -21.1265,8.137475 -21.1265,17.26698"
     id="path2352"
     style="stroke-width:0.992" />
  <path
     class="Note"
     d="m 1396.6765,35.215901 c -9.6255,0 -21.1265,8.044475 -21.1265,17.26698 0,4.262495 3.069,9.02102 11.1135,9.02102 10.3075,0 21.1265,-8.43202 21.1265,-17.158525 0,-5.859 -4.96,-9.129475 -11.1135,-9.129475 M 1382.99,56.838376 c -3.2705,0 -3.968,-2.666 -3.968,-3.565 0,-4.867 16.6625,-13.392 21.328,-13.392 2.387,0 3.968,1.395 3.968,3.565 0,4.96 -16.771,13.392 -21.328,13.392"
     id="path2354"
     style="stroke-width:0.992" />
  <path
     class="Note"
     d="m 1306.93,64.882881 c 0,4.262495 3.069,9.02102 11.1135,9.02102 10.3075,0 21.1265,-8.43202 21.1265,-17.158525 0,-5.859 -4.96,-9.129475 -11.1135,-9.129475 -9.6255,0 -21.1265,8.137475 -21.1265,17.26698"
     id="path2356"
     style="stroke-width:0.992" />
  <path
     class="Note"
     d="m 1880.1065,84.815901 c -9.6255,0 -21.1265,8.044475 -21.1265,17.266979 0,4.2625 3.069,9.02102 11.1135,9.02102 10.3075,0 21.1265,-8.43202 21.1265,-17.158524 0,-5.859 -4.96,-9.129475 -11.1135,-9.129475 M 1866.42,106.43838 c -3.2705,0 -3.968,-2.666 -3.968,-3.565 0,-4.867004 16.6625,-13.392004 21.328,-13.392004 2.387,0 3.968,1.395 3.968,3.565 0,4.96 -16.771,13.392004 -21.328,13.392004"
     id="path2358"
     style="stroke-width:0.992" />
  <path
     class="Note"
     d="m 3226.3165,35.215901 c -9.6255,0 -21.1265,8.044475 -21.1265,17.26698 0,4.262495 3.069,9.02102 11.1135,9.02102 10.3075,0 21.1265,-8.43202 21.1265,-17.158525 0,-5.859 -4.96,-9.129475 -11.1135,-9.129475 M 3212.63,56.838376 c -3.2705,0 -3.968,-2.666 -3.968,-3.565 0,-4.867 16.6625,-13.392 21.328,-13.392 2.387,0 3.968,1.395 3.968,3.565 0,4.96 -16.771,13.392 -21.328,13.392"
     id="path2360"
     style="stroke-width:0.992" />
  <path
     class="Note"
     d="m 2513.14,102.08288 c 0,4.2625 3.069,9.02102 11.1135,9.02102 10.3075,0 21.1265,-8.43202 21.1265,-17.158524 0,-5.859 -4.96,-9.129475 -11.1135,-9.129475 -9.6255,0 -21.1265,8.137475 -21.1265,17.266979"
     id="path2362"
     style="stroke-width:0.992" />
  <path
     class="Note"
     d="m 3329.2365,84.815901 c -9.6255,0 -21.1265,8.044475 -21.1265,17.266979 0,4.2625 3.069,9.02102 11.1135,9.02102 10.3075,0 21.1265,-8.43202 21.1265,-17.158524 0,-5.859 -4.96,-9.129475 -11.1135,-9.129475 M 3315.55,106.43838 c -3.2705,0 -3.968,-2.666 -3.968,-3.565 0,-4.867004 16.6625,-13.392004 21.328,-13.392004 2.387,0 3.968,1.395 3.968,3.565 0,4.96 -16.771,13.392004 -21.328,13.392004"
     id="path2364"
     style="stroke-width:0.992" />
  <path
     class="Note"
     d="m 1238.31,77.282881 c 0,4.262495 3.069,9.02102 11.1135,9.02102 10.3075,0 21.1265,-8.43202 21.1265,-17.158525 0,-5.859 -4.96,-9.129475 -11.1135,-9.129475 -9.6255,0 -21.1265,8.137475 -21.1265,17.26698"
     id="path2366"
     style="stroke-width:0.992" />
  <path
     class="Note"
     d="m 1133.43,89.682881 c 0,4.262495 3.069,9.02102 11.1135,9.02102 10.3075,0 21.1265,-8.43202 21.1265,-17.158525 0,-5.859 -4.96,-9.129475 -11.1135,-9.129475 -9.6255,0 -21.1265,8.137475 -21.1265,17.26698"
     id="path2368"
     style="stroke-width:0.992" />
  <path
     class="Note"
     d="m 1535.0565,84.815901 c -9.6255,0 -21.1265,8.044475 -21.1265,17.266979 0,4.2625 3.069,9.02102 11.1135,9.02102 10.3075,0 21.1265,-8.43202 21.1265,-17.158524 0,-5.859 -4.96,-9.129475 -11.1135,-9.129475 M 1521.37,106.43838 c -3.2705,0 -3.968,-2.666 -3.968,-3.565 0,-4.867004 16.6625,-13.392004 21.328,-13.392004 2.387,0 3.968,1.395 3.968,3.565 0,4.96 -16.771,13.392004 -21.328,13.392004"
     id="path2370"
     style="stroke-width:0.992" />
  <path
     class="Note"
     d="m 3446.5,89.682881 c 0,4.262495 3.069,9.02102 11.1135,9.02102 10.3075,0 21.1265,-8.43202 21.1265,-17.158525 0,-5.859 -4.96,-9.129475 -11.1135,-9.129475 -9.6255,0 -21.1265,8.137475 -21.1265,17.26698"
     id="path2372"
     style="stroke-width:0.992" />
  <path
     class="Note"
     d="m 1790.36,89.682881 c 0,4.262495 3.069,9.02102 11.1135,9.02102 10.3075,0 21.1265,-8.43202 21.1265,-17.158525 0,-5.859 -4.96,-9.129475 -11.1135,-9.129475 -9.6255,0 -21.1265,8.137475 -21.1265,17.26698"
     id="path2374"
     style="stroke-width:0.992" />
  <path
     class="Note"
     d="m 3515.11,77.282881 c 0,4.262495 3.069,9.02102 11.1135,9.02102 10.3075,0 21.1265,-8.43202 21.1265,-17.158525 0,-5.859 -4.96,-9.129475 -11.1135,-9.129475 -9.6255,0 -21.1265,8.137475 -21.1265,17.26698"
     id="path2376"
     style="stroke-width:0.992" />
  <path
     class="Note"
     d="m 2087.1065,35.215901 c -9.6255,0 -21.1265,8.044475 -21.1265,17.26698 0,4.262495 3.069,9.02102 11.1135,9.02102 10.3075,0 21.1265,-8.43202 21.1265,-17.158525 0,-5.859 -4.96,-9.129475 -11.1135,-9.129475 M 2073.42,56.838376 c -3.2705,0 -3.968,-2.666 -3.968,-3.565 0,-4.867 16.6625,-13.392 21.328,-13.392 2.387,0 3.968,1.395 3.968,3.565 0,4.96 -16.771,13.392 -21.328,13.392"
     id="path2378"
     style="stroke-width:0.992" />
  <path
     class="Note"
     d="m 3583.73,89.682881 c 0,4.262495 3.069,9.02102 11.1135,9.02102 10.3075,0 21.1265,-8.43202 21.1265,-17.158525 0,-5.859 -4.96,-9.129475 -11.1135,-9.129475 -9.6255,0 -21.1265,8.137475 -21.1265,17.26698"
     id="path2380"
     style="stroke-width:0.992" />
  <path
     class="Note"
     d="m 2618.02,102.08288 c 0,4.2625 3.069,9.02102 11.1135,9.02102 10.3075,0 21.1265,-8.43202 21.1265,-17.158524 0,-5.859 -4.96,-9.129475 -11.1135,-9.129475 -9.6255,0 -21.1265,8.137475 -21.1265,17.266979"
     id="path2382"
     style="stroke-width:0.992" />
  <path
     class="Note"
     d="m 3652.34,102.08288 c 0,4.2625 3.069,9.02102 11.1135,9.02102 10.3075,0 21.1265,-8.43202 21.1265,-17.158524 0,-5.859 -4.96,-9.129475 -11.1135,-9.129475 -9.6255,0 -21.1265,8.137475 -21.1265,17.266979"
     id="path2384"
     style="stroke-width:0.992" />
  <path
     class="Clef"
     d="m 30.798525,161.1999 c 0,6.55653 4.96,15.19 18.352,15.19 4.665475,0 8.742,-1.19347 12.30695,-3.37905 C 66.820525,169.24443 68.2,162.6879 68.2,156.44138 c 0,-3.85948 -0.58895,-8.32348 -1.58095,-13.98095 -0.294525,-1.984 -0.89905,-4.96 -1.488,-8.83505 9.718425,-3.17748 16.95695,-13.29895 16.95695,-23.5135 0,-14.973029 -10.617475,-25.094504 -25.094525,-25.094504 -0.992,-5.952 -1.984,-11.81105 -2.774425,-17.36 10.416,-11.020525 17.654425,-23.420525 17.654425,-39.184 0,-9.036525 -2.774425,-16.368 -4.37095,-19.948128 C 65.13105,3.472 62.248,0 60.465475,0 59.768,0 56.69905,1.193376 53.428525,5.053248 c -6.35505,7.548128 -8.137475,20.242653 -8.137475,28.566128 0,5.36295 0.496,10.23 2.185475,21.343475 -0.108525,0.09305 -5.27,5.347475 -7.34705,7.03705 C 31.09305,70.338851 18.6,82.428851 18.6,102.28438 c 0,18.53805 16.166525,33.12352 34.62705,33.12352 2.867475,0 5.54895,-0.29452 7.827475,-0.69747 1.89095,9.53242 3.084525,16.47642 3.084525,21.73095 0,10.32305 -5.36305,15.77905 -15.376,15.77905 -2.38705,0 -4.464,-0.496 -4.665575,-0.496 -0.09295,-0.10853 -0.294425,-0.20158 -0.294425,-0.29453 0,-0.20147 0.201475,-0.31 0.496,-0.31 4.665475,-0.79052 9.315475,-4.75852 9.315475,-11.098 0,-5.36305 -4.06105,-11.02052 -11.50105,-11.02052 -6.944,0 -11.31495,5.65747 -11.31495,12.19852 M 51.537475,28.767901 c 0.89905,-3.968 5.456,-14.384 10.617575,-14.384 1.488,0 3.859475,4.758425 3.859475,11.702425 0,10.32305 -7.626,18.057575 -14.47705,24.8 -0.58895,-3.968 -1.08495,-7.827475 -1.08495,-11.99695 0,-3.673475 0.294525,-7.052525 1.08495,-10.121475 M 60.264,130.74243 c -1.984,0.40295 -3.859475,0.60442 -5.750525,0.60442 -14.182425,0 -26.28797,-9.92 -26.28797,-24.90847 0,-12.090054 8.52502,-22.909004 17.26702,-30.457529 1.674,-1.488 3.270525,-2.867475 4.758525,-4.355475 0.883475,5.347475 1.58095,10.01295 2.278425,14.089475 -9.036425,2.681475 -15.174425,12.198525 -15.174425,21.529529 0,6.944 5.456,16.461 13.392,16.461 0.790425,0 1.689475,-0.40295 1.689475,-1.28653 0,-0.89895 -0.992,-1.39495 -2.185475,-2.18547 -3.87505,-2.387 -6.060525,-4.96 -6.060525,-9.827 0,-6.045 4.572525,-10.912054 10.32295,-12.291529 L 60.264,130.74243 m 14.089475,-18.35205 c 0,7.0525 -2.88295,14.291 -9.92,17.17405 -2.07695,-11.90405 -4.758425,-27.68305 -5.456,-32.054104 8.928,0 15.376,6.060544 15.376,14.880054"
     id="path2386"
     style="stroke-width:0.992" />
  <path
     class="KeySig"
     d="m 112.576,70.137376 c -4.96,0 -7.843,3.06895 -8.339,3.673475 l 0.403,-31.852525 c 0,-0.790425 -0.589,-1.379475 -1.395,-1.379475 h -1.178 c -0.806,0 -1.395,0.58905 -1.395,1.379475 l 0.496,59.628524 c 0,0.79053 0.589,1.37958 1.395,1.37958 0.186,0 0.589,-0.0931 0.7905,-0.186 8.52502,-4.278004 17.45302,-12.400054 17.45302,-22.630054 0,-5.14605 -2.37147,-10.013 -8.23052,-10.013 m -8.6335,27.977475 0.2945,-19.34398 c 0.2015,-0.899 1.6895,-3.766545 5.6575,-3.766545 3.58055,0 3.87498,3.363545 3.87498,5.45605 0,8.819505 -3.27048,12.493 -9.82698,17.654475"
     id="path2388"
     style="stroke-width:0.992" />
  <path
     class="KeySig"
     d="m 140.151,32.937376 c -4.96,0 -7.843,3.06895 -8.339,3.673475 l 0.403,-31.8525246 c 0,-0.7904256 -0.589,-1.3794752 -1.395,-1.3794752 h -1.178 c -0.806,0 -1.395,0.5890496 -1.395,1.3794752 l 0.496,59.6285246 c 0,0.790525 0.589,1.379575 1.395,1.379575 0.186,0 0.589,-0.09305 0.7905,-0.186 8.52502,-4.278 17.45302,-12.40005 17.45302,-22.63005 0,-5.14605 -2.37147,-10.013 -8.23052,-10.013 m -8.6335,27.977475 0.2945,-19.34398 c 0.2015,-0.899 1.6895,-3.766545 5.6575,-3.766545 3.58055,0 3.87498,3.363545 3.87498,5.45605 0,8.819505 -3.27048,12.493 -9.82698,17.654475"
     id="path2390"
     style="stroke-width:0.992" />
  <path
     class="KeySig"
     d="m 167.725,82.537376 c -4.96,0 -7.843,3.06895 -8.339,3.673475 l 0.403,-31.852525 c 0,-0.790425 -0.589,-1.379475 -1.395,-1.379475 h -1.178 c -0.806,0 -1.395,0.58905 -1.395,1.379475 l 0.496,59.628524 c 0,0.79053 0.589,1.37958 1.395,1.37958 0.186,0 0.589,-0.093 0.7905,-0.186 8.52502,-4.278 17.45302,-12.40005 17.45302,-22.630054 0,-5.14605 -2.37147,-10.013 -8.23052,-10.013 m -8.6335,27.977474 0.2945,-19.343979 c 0.2015,-0.899 1.6895,-3.766545 5.6575,-3.766545 3.58055,0 3.87498,3.363545 3.87498,5.45605 0,8.819504 -3.27048,12.493004 -9.82698,17.654474"
     id="path2392"
     style="stroke-width:0.992" />
  <path
     class="KeySig"
     d="m 195.284,45.337376 c -4.96,0 -7.843,3.06895 -8.339,3.673475 l 0.403,-31.852525 c 0,-0.790425 -0.589,-1.379475 -1.395,-1.379475 h -1.178 c -0.806,0 -1.395,0.58905 -1.395,1.379475 l 0.496,59.628525 c 0,0.790525 0.589,1.379575 1.395,1.379575 0.186,0 0.589,-0.09305 0.7905,-0.186 8.52502,-4.278 17.45302,-12.40005 17.45302,-22.63005 0,-5.14605 -2.37147,-10.013 -8.23052,-10.013 m -8.6335,27.977475 0.2945,-19.34398 c 0.2015,-0.899 1.6895,-3.766545 5.6575,-3.766545 3.58055,0 3.87498,3.363545 3.87498,5.45605 0,8.819505 -3.27048,12.493 -9.82698,17.654475"
     id="path2394"
     style="stroke-width:0.992" />
  <path
     class="KeySig"
     d="m 222.859,94.937376 c -4.96,0 -7.843,3.06895 -8.339,3.673475 l 0.403,-31.852525 c 0,-0.790425 -0.589,-1.379475 -1.395,-1.379475 h -1.178 c -0.806,0 -1.395,0.58905 -1.395,1.379475 l 0.496,59.628524 c 0,0.79053 0.589,1.37958 1.395,1.37958 0.186,0 0.589,-0.0931 0.7905,-0.186 8.52502,-4.278 17.45302,-12.40005 17.45302,-22.63005 0,-5.146054 -2.37147,-10.013004 -8.23052,-10.013004 m -8.6335,27.977474 0.2945,-19.34398 c 0.2015,-0.899 1.6895,-3.766544 5.6575,-3.766544 3.58055,0 3.87498,3.363544 3.87498,5.456054 0,8.8195 -3.27048,12.493 -9.82698,17.65447"
     id="path2396"
     style="stroke-width:0.992" />
  <path
     class="KeySig"
     d="m 250.433,57.737376 c -4.96,0 -7.843,3.06895 -8.339,3.673475 l 0.403,-31.852525 c 0,-0.790425 -0.589,-1.379475 -1.395,-1.379475 h -1.178 c -0.806,0 -1.395,0.58905 -1.395,1.379475 l 0.496,59.628525 c 0,0.790525 0.589,1.379575 1.395,1.379575 0.186,0 0.589,-0.09305 0.7905,-0.186 8.52502,-4.278 17.45302,-12.40005 17.45302,-22.63005 0,-5.14605 -2.37147,-10.013 -8.23052,-10.013 m -8.6335,27.977475 0.2945,-19.34398 c 0.2015,-0.899 1.6895,-3.766545 5.6575,-3.766545 3.58055,0 3.87498,3.363545 3.87498,5.45605 0,8.819505 -3.27048,12.493 -9.82698,17.654475"
     id="path2398"
     style="stroke-width:0.992" />
  <path
     class="TimeSig"
     d="m 302.73052,73.314851 v 7.331575 H 294.5 c -0.69748,0 -1.39495,0.604425 -1.39495,1.39495 v 1.89105 c 0,0.790425 0.69747,1.379475 1.39495,1.379475 h 30.05452 c 0.806,0 1.39496,-0.58905 1.39496,-1.379475 v -1.89105 c 0,-0.790525 -0.58896,-1.39495 -1.39496,-1.39495 h -8.81947 v -7.331575 h 8.81947 c 0.806,0 1.39496,-0.697475 1.39496,-1.488 v -1.89097 c 0,-0.697505 -0.58896,-1.379505 -1.39496,-1.379505 h -8.81947 v -15.779 c 0,-0.589 -0.29453,-1.085 -0.79053,-1.286505 l -1.19347,-0.604495 c -0.20157,-0.093 -0.496,-0.18605 -0.69757,-0.18605 -0.29443,0.09305 -0.69748,0.18605 -0.89896,0.387545 l -9.02104,8.230505 c -0.29443,0.31 -0.40296,0.6975 -0.40296,1.1005 v 8.1375 H 291.3225 c 0,0 11.02055,-11.904 22.72298,-27.59005 0.40304,-0.496 0.496,-0.992 0.496,-1.379475 0,-0.496 -0.20148,-0.89895 -0.29443,-0.992 l -2.18557,-2.185475 c -0.20148,-0.201475 -0.58896,-0.40305 -0.992,-0.40305 -0.58896,0 -13.99643,0 -14.67843,0 -0.806,0 -1.302,0.604525 -1.39505,1.193575 0,0 -0.496,7.34695 -3.069,15.37597 -2.5885,8.044505 -5.5645,13.004505 -8.1375,16.662505 0,0 -0.2945,0.496 -0.2945,1.100505 0,0.201495 0,0.387545 0.093,0.58902 0.403,0.697475 0.992,1.782525 0.992,1.782525 0,0 0.2015,0.604425 1.085,0.604425 h 17.06552"
     id="path2400"
     style="stroke-width:0.992" />
  <path
     class="TimeSig"
     d="m 302.73052,122.91485 v 7.33158 H 294.5 c -0.69748,0 -1.39495,0.60442 -1.39495,1.39495 v 1.89105 c 0,0.79042 0.69747,1.37947 1.39495,1.37947 h 30.05452 c 0.806,0 1.39496,-0.58905 1.39496,-1.37947 v -1.89105 c 0,-0.79053 -0.58896,-1.39495 -1.39496,-1.39495 h -8.81947 v -7.33158 h 8.81947 c 0.806,0 1.39496,-0.69747 1.39496,-1.488 v -1.89097 c 0,-0.6975 -0.58896,-1.3795 -1.39496,-1.3795 h -8.81947 v -15.779 c 0,-0.589 -0.29453,-1.085 -0.79053,-1.28651 l -1.19347,-0.60449 c -0.20157,-0.093 -0.496,-0.18605 -0.69757,-0.18605 -0.29443,0.093 -0.69748,0.18605 -0.89896,0.38754 l -9.02104,8.23051 c -0.29443,0.31 -0.40296,0.6975 -0.40296,1.1005 v 8.1375 H 291.3225 c 0,0 11.02055,-11.904 22.72298,-27.590054 0.40304,-0.496 0.496,-0.992 0.496,-1.379475 0,-0.496 -0.20148,-0.89895 -0.29443,-0.992 l -2.18557,-2.185475 c -0.20148,-0.201475 -0.58896,-0.40305 -0.992,-0.40305 -0.58896,0 -13.99643,0 -14.67843,0 -0.806,0 -1.302,0.604525 -1.39505,1.193575 0,0 -0.496,7.34695 -3.069,15.375969 -2.5885,8.04451 -5.5645,13.00451 -8.1375,16.66251 0,0 -0.2945,0.496 -0.2945,1.1005 0,0.2015 0,0.38755 0.093,0.58902 0.403,0.69748 0.992,1.78253 0.992,1.78253 0,0 0.2015,0.60442 1.085,0.60442 h 17.06552"
     id="path2402"
     style="stroke-width:0.992" />
  <path
     class="Rest"
     d="m 1984.716,101.97443 c -0.093,-0.0931 -0.2945,-0.29453 -0.589,-0.682 l -11.408,-14.089549 c -0.1085,-0.108505 -0.2015,-0.403 -0.2015,-0.604505 0,-0.2945 0.093,-0.682 0.2015,-0.8835 l 10.106,-15.282975 c 0.1085,-0.201575 0.2015,-0.496 0.2015,-0.697575 v -0.883475 c 0,-0.294525 -0.093,-0.604525 -0.2945,-0.790525 l -16.0735,-21.73095 c 0,0 -0.3875,-0.604525 -0.992,-0.604525 -0.2945,0 -0.496,0 -0.7905,0.31 -0.403,0.294525 -0.496,0.682 -0.496,0.992 0,0.58905 0.2945,1.08505 0.2945,1.08505 l 7.5485,10.32295 c 0.186,0.294525 0.2945,0.682 0.2945,1.178 0,0.40305 -0.1085,0.89905 -0.2945,1.193475 l -10.0285,15.28305 c -0.093,0.201495 -0.2015,0.589 -0.2015,0.790495 v 0.899 c 0,0.294505 0.1085,0.589 0.31,0.790505 l 11.098,13.795 c -0.3875,-0.108495 -1.2865,-0.31 -2.48,-0.31 -5.053,0 -9.021,4.169525 -9.021,9.238054 0,1.37947 0.2945,2.77442 1.085,3.85947 2.0925,3.17748 9.5325,12.60148 9.5325,12.60148 0,0 0.496,0.60452 1.1935,0.60452 0.186,0 0.3875,0 0.589,-0.20147 0.496,-0.40305 0.6975,-0.79053 0.6975,-1.19358 0,-0.40295 -0.2015,-0.69747 -0.2945,-0.89895 -0.31,-0.496 -3.472,-6.24652 -3.472,-6.24652 0,0 -0.6975,-1.39495 -0.6975,-3.17748 0,-3.17747 2.3715,-5.75052 5.549,-5.75052 1.2865,0 2.387,0.40305 3.1775,0.89905 l 3.875,2.48 c 0,0 0.3875,0.186 0.7905,0.186 0.3875,0 0.6975,-0.0931 0.992,-0.496 0.2015,-0.29453 0.2945,-0.58905 0.2945,-0.88358 0,-0.29442 -0.093,-0.496 -0.2945,-0.79042 l -0.2015,-0.31"
     id="path2404"
     style="stroke-width:0.992" />
  <path
     class="Rest"
     d="m 3910.516,101.97443 c -0.093,-0.0931 -0.2945,-0.29453 -0.589,-0.682 l -11.408,-14.089549 c -0.1085,-0.108505 -0.2015,-0.403 -0.2015,-0.604505 0,-0.2945 0.093,-0.682 0.2015,-0.8835 l 10.106,-15.282975 c 0.1085,-0.201575 0.2015,-0.496 0.2015,-0.697575 v -0.883475 c 0,-0.294525 -0.093,-0.604525 -0.2945,-0.790525 l -16.0735,-21.73095 c 0,0 -0.3875,-0.604525 -0.992,-0.604525 -0.2945,0 -0.496,0 -0.7905,0.31 -0.403,0.294525 -0.496,0.682 -0.496,0.992 0,0.58905 0.2945,1.08505 0.2945,1.08505 l 7.5485,10.32295 c 0.186,0.294525 0.2945,0.682 0.2945,1.178 0,0.40305 -0.1085,0.89905 -0.2945,1.193475 l -10.0285,15.28305 c -0.093,0.201495 -0.2015,0.589 -0.2015,0.790495 v 0.899 c 0,0.294505 0.1085,0.589 0.31,0.790505 l 11.098,13.795 c -0.3875,-0.108495 -1.2865,-0.31 -2.48,-0.31 -5.053,0 -9.021,4.169525 -9.021,9.238054 0,1.37947 0.2945,2.77442 1.085,3.85947 2.0925,3.17748 9.5325,12.60148 9.5325,12.60148 0,0 0.496,0.60452 1.1935,0.60452 0.186,0 0.3875,0 0.589,-0.20147 0.496,-0.40305 0.6975,-0.79053 0.6975,-1.19358 0,-0.40295 -0.2015,-0.69747 -0.2945,-0.89895 -0.31,-0.496 -3.472,-6.24652 -3.472,-6.24652 0,0 -0.6975,-1.39495 -0.6975,-3.17748 0,-3.17747 2.3715,-5.75052 5.549,-5.75052 1.2865,0 2.387,0.40305 3.1775,0.89905 l 3.875,2.48 c 0,0 0.3875,0.186 0.7905,0.186 0.3875,0 0.6975,-0.0931 0.992,-0.496 0.2015,-0.29453 0.2945,-0.58905 0.2945,-0.88358 0,-0.29442 -0.093,-0.496 -0.2945,-0.79042 l -0.2015,-0.31"
     id="path2406"
     style="stroke-width:0.992" />
  <path
     class="Rest"
     d="m 2709.456,101.97443 c -0.093,-0.0931 -0.2945,-0.29453 -0.589,-0.682 l -11.408,-14.089549 c -0.1085,-0.108505 -0.2015,-0.403 -0.2015,-0.604505 0,-0.2945 0.093,-0.682 0.2015,-0.8835 l 10.106,-15.282975 c 0.1085,-0.201575 0.2015,-0.496 0.2015,-0.697575 v -0.883475 c 0,-0.294525 -0.093,-0.604525 -0.2945,-0.790525 l -16.0735,-21.73095 c 0,0 -0.3875,-0.604525 -0.992,-0.604525 -0.2945,0 -0.496,0 -0.7905,0.31 -0.403,0.294525 -0.496,0.682 -0.496,0.992 0,0.58905 0.2945,1.08505 0.2945,1.08505 l 7.5485,10.32295 c 0.186,0.294525 0.2945,0.682 0.2945,1.178 0,0.40305 -0.1085,0.89905 -0.2945,1.193475 l -10.0285,15.28305 c -0.093,0.201495 -0.2015,0.589 -0.2015,0.790495 v 0.899 c 0,0.294505 0.1085,0.589 0.31,0.790505 l 11.098,13.795 c -0.3875,-0.108495 -1.2865,-0.31 -2.48,-0.31 -5.053,0 -9.021,4.169525 -9.021,9.238054 0,1.37947 0.2945,2.77442 1.085,3.85947 2.0925,3.17748 9.5325,12.60148 9.5325,12.60148 0,0 0.496,0.60452 1.1935,0.60452 0.186,0 0.3875,0 0.589,-0.20147 0.496,-0.40305 0.6975,-0.79053 0.6975,-1.19358 0,-0.40295 -0.2015,-0.69747 -0.2945,-0.89895 -0.31,-0.496 -3.472,-6.24652 -3.472,-6.24652 0,0 -0.6975,-1.39495 -0.6975,-3.17748 0,-3.17747 2.3715,-5.75052 5.549,-5.75052 1.2865,0 2.387,0.40305 3.1775,0.89905 l 3.875,2.48 c 0,0 0.3875,0.186 0.7905,0.186 0.3875,0 0.6975,-0.0931 0.992,-0.496 0.2015,-0.29453 0.2945,-0.58905 0.2945,-0.88358 0,-0.29442 -0.093,-0.496 -0.2945,-0.79042 l -0.2015,-0.31"
     id="path2408"
     style="stroke-width:0.992" />
  <path
     class="Rest"
     d="m 1019.016,101.97443 c -0.093,-0.0931 -0.2945,-0.29453 -0.589,-0.682 l -11.408,-14.089549 c -0.1085,-0.108505 -0.2015,-0.403 -0.2015,-0.604505 0,-0.2945 0.093,-0.682 0.2015,-0.8835 l 10.106,-15.282975 c 0.1085,-0.201575 0.2015,-0.496 0.2015,-0.697575 v -0.883475 c 0,-0.294525 -0.093,-0.604525 -0.2945,-0.790525 l -16.0735,-21.73095 c 0,0 -0.3875,-0.604525 -0.992,-0.604525 -0.2945,0 -0.496,0 -0.7905,0.31 -0.403,0.294525 -0.496,0.682 -0.496,0.992 0,0.58905 0.2945,1.08505 0.2945,1.08505 l 7.5485,10.32295 c 0.186,0.294525 0.2945,0.682 0.2945,1.178 0,0.40305 -0.1085,0.89905 -0.2945,1.193475 l -10.0285,15.28305 c -0.093,0.201495 -0.2015,0.589 -0.2015,0.790495 v 0.899 c 0,0.294505 0.1085,0.589 0.31,0.790505 l 11.098,13.795 c -0.3875,-0.108495 -1.2865,-0.31 -2.48,-0.31 -5.053,0 -9.021,4.169525 -9.021,9.238054 0,1.37947 0.2945,2.77442 1.085,3.85947 2.0925,3.17748 9.5325,12.60148 9.5325,12.60148 0,0 0.496,0.60452 1.1935,0.60452 0.186,0 0.3875,0 0.589,-0.20147 0.496,-0.40305 0.6975,-0.79053 0.6975,-1.19358 0,-0.40295 -0.2015,-0.69747 -0.2945,-0.89895 -0.31,-0.496 -3.472,-6.24652 -3.472,-6.24652 0,0 -0.6975,-1.39495 -0.6975,-3.17748 0,-3.17747 2.3715,-5.75052 5.549,-5.75052 1.2865,0 2.387,0.40305 3.1775,0.89905 l 3.875,2.48 c 0,0 0.3875,0.186 0.7905,0.186 0.3875,0 0.6975,-0.0931 0.992,-0.496 0.2015,-0.29453 0.2945,-0.58905 0.2945,-0.88358 0,-0.29442 -0.093,-0.496 -0.2945,-0.79042 l -0.2015,-0.31"
     id="path2410"
     style="stroke-width:0.992" />
  <path
     class="NoteDot"
     d="m 3801.86,97.913376 c 0,2.774504 2.1855,4.960004 4.96,4.960004 2.7745,0 4.96,-2.1855 4.96,-4.960004 0,-2.774505 -2.1855,-4.96 -4.96,-4.96 -2.7745,0 -4.96,2.185495 -4.96,4.96"
     id="path2412"
     style="stroke-width:0.992" />
</svg>
