<?xml version="1.0" encoding="UTF-8" standalone="no"?>
<svg
   xmlns:dc="http://purl.org/dc/elements/1.1/"
   xmlns:cc="http://creativecommons.org/ns#"
   xmlns:rdf="http://www.w3.org/1999/02/22-rdf-syntax-ns#"
   xmlns:svg="http://www.w3.org/2000/svg"
   xmlns="http://www.w3.org/2000/svg"
   xmlns:sodipodi="http://sodipodi.sourceforge.net/DTD/sodipodi-0.dtd"
   xmlns:inkscape="http://www.inkscape.org/namespaces/inkscape"
   width="171.30902mm"
   height="18.97394mm"
   viewBox="0 0 2428.0019 268.92199"
   version="1.2"
   id="svg1261"
   sodipodi:docname="Dossium Canto Profeet Musica.svg"
   inkscape:version="1.0.2-2 (e86c870879, 2021-01-15)">
  <metadata
     id="metadata1267">
    <rdf:RDF>
      <cc:Work
         rdf:about="">
        <dc:format>image/svg+xml</dc:format>
        <dc:type
           rdf:resource="http://purl.org/dc/dcmitype/StillImage" />
      </cc:Work>
    </rdf:RDF>
  </metadata>
  <defs
     id="defs1265" />
  <sodipodi:namedview
     pagecolor="#ffffff"
     bordercolor="#666666"
     borderopacity="1"
     objecttolerance="10"
     gridtolerance="10"
     guidetolerance="10"
     inkscape:pageopacity="0"
     inkscape:pageshadow="2"
     inkscape:window-width="1920"
     inkscape:window-height="991"
     id="namedview1263"
     showgrid="false"
     inkscape:zoom="0.73068151"
     inkscape:cx="307.20053"
     inkscape:cy="255.88442"
     inkscape:window-x="-9"
     inkscape:window-y="-9"
     inkscape:window-maximized="1"
     inkscape:current-layer="svg1261" />
  <title
     id="title1051">Dossium Canto Profeet Musica</title>
  <desc
     id="desc1053">Generated by MuseScore Studio 4.5.2</desc>
  <polyline
     class="StaffLines"
     fill="none"
     stroke="#000000"
     stroke-width="2.73"
     stroke-linejoin="bevel"
     points="336.598,634.198 2764.6,634.198"
     id="polyline1055"
     transform="translate(-336.598,-528.77)" />
  <polyline
     class="StaffLines"
     fill="none"
     stroke="#000000"
     stroke-width="2.73"
     stroke-linejoin="bevel"
     points="336.598,658.998 2764.6,658.998"
     id="polyline1057"
     transform="translate(-336.598,-528.77)" />
  <polyline
     class="StaffLines"
     fill="none"
     stroke="#000000"
     stroke-width="2.73"
     stroke-linejoin="bevel"
     points="336.598,683.798 2764.6,683.798"
     id="polyline1059"
     transform="translate(-336.598,-528.77)" />
  <polyline
     class="StaffLines"
     fill="none"
     stroke="#000000"
     stroke-width="2.73"
     stroke-linejoin="bevel"
     points="336.598,708.598 2764.6,708.598"
     id="polyline1061"
     transform="translate(-336.598,-528.77)" />
  <polyline
     class="StaffLines"
     fill="none"
     stroke="#000000"
     stroke-width="2.73"
     stroke-linejoin="bevel"
     points="336.598,733.398 2764.6,733.398"
     id="polyline1063"
     transform="translate(-336.598,-528.77)" />
  <polyline
     class="BarLine"
     fill="none"
     stroke="#000000"
     stroke-width="4.46"
     stroke-linejoin="bevel"
     points="2739.55,632.834 2739.55,734.762"
     id="polyline1073"
     transform="translate(-336.598,-528.77)" />
  <polyline
     class="BarLine"
     fill="none"
     stroke="#000000"
     stroke-width="13.64"
     stroke-linejoin="bevel"
     points="2757.78,632.834 2757.78,734.762"
     id="polyline1075"
     transform="translate(-336.598,-528.77)" />
  <polyline
     class="BarLine"
     fill="none"
     stroke="#000000"
     stroke-width="4.46"
     stroke-linejoin="bevel"
     points="938.378,632.834 938.378,734.762"
     id="polyline1077"
     transform="translate(-336.598,-528.77)" />
  <polyline
     class="BarLine"
     fill="none"
     stroke="#000000"
     stroke-width="4.46"
     stroke-linejoin="bevel"
     points="1850.02,632.834 1850.02,734.762"
     id="polyline1079"
     transform="translate(-336.598,-528.77)" />
  <polyline
     class="BarLine"
     fill="none"
     stroke="#000000"
     stroke-width="4.46"
     stroke-linejoin="bevel"
     points="1408.99,632.834 1408.99,734.762"
     id="polyline1081"
     transform="translate(-336.598,-528.77)" />
  <path
     class="BarLine"
     d="m 1945.135,142.628 c 0,-2.883 -2.294,-5.2545 -5.1615,-5.2545 -2.883,0 -5.1615,2.3715 -5.1615,5.2545 0,2.883 2.2785,5.2545 5.1615,5.2545 2.8675,0 5.1615,-2.3715 5.1615,-5.2545"
     id="path1083"
     style="stroke-width:0.992" />
  <path
     class="BarLine"
     d="m 1945.135,167.428 c 0,-2.883 -2.294,-5.2545 -5.1615,-5.2545 -2.883,0 -5.1615,2.3715 -5.1615,5.2545 0,2.883 2.2785,5.2545 5.1615,5.2545 2.8675,0 5.1615,-2.3715 5.1615,-5.2545"
     id="path1085"
     style="stroke-width:0.992" />
  <polyline
     class="BarLine"
     fill="none"
     stroke="#000000"
     stroke-width="4.46"
     stroke-linejoin="bevel"
     points="2293.12,632.834 2293.12,734.762"
     id="polyline1087"
     transform="translate(-336.598,-528.77)" />
  <polyline
     class="BarLine"
     fill="none"
     stroke="#000000"
     stroke-width="13.64"
     stroke-linejoin="bevel"
     points="2311.35,632.834 2311.35,734.762"
     id="polyline1089"
     transform="translate(-336.598,-528.77)" />
  <polyline
     class="LedgerLine"
     fill="none"
     stroke="#000000"
     stroke-width="3.97"
     stroke-linejoin="bevel"
     points="1304.58,758.198 1353.17,758.198"
     id="polyline1091"
     transform="translate(-336.598,-528.77)" />
  <polyline
     class="Stem"
     fill="none"
     stroke="#000000"
     stroke-width="2.48"
     stroke-linejoin="bevel"
     points="2454.3,692.23 2454.3,615.598"
     id="polyline1093"
     transform="translate(-336.598,-528.77)" />
  <polyline
     class="Stem"
     fill="none"
     stroke="#000000"
     stroke-width="2.48"
     stroke-linejoin="bevel"
     points="2380.15,704.63 2380.15,615.598"
     id="polyline1095"
     transform="translate(-336.598,-528.77)" />
  <polyline
     class="Stem"
     fill="none"
     stroke="#000000"
     stroke-width="2.48"
     stroke-linejoin="bevel"
     points="561.565,717.03 561.565,640.353"
     id="polyline1097"
     transform="translate(-336.598,-528.77)" />
  <polyline
     class="Stem"
     fill="none"
     stroke="#000000"
     stroke-width="2.48"
     stroke-linejoin="bevel"
     points="2161.4,704.63 2161.4,621.798"
     id="polyline1099"
     transform="translate(-336.598,-528.77)" />
  <polyline
     class="Stem"
     fill="none"
     stroke="#000000"
     stroke-width="2.48"
     stroke-linejoin="bevel"
     points="1784.78,717.03 1784.78,640.239"
     id="polyline1101"
     transform="translate(-336.598,-528.77)" />
  <polyline
     class="Stem"
     fill="none"
     stroke="#000000"
     stroke-width="2.48"
     stroke-linejoin="bevel"
     points="2087.25,717.03 2087.25,615.598"
     id="polyline1103"
     transform="translate(-336.598,-528.77)" />
  <polyline
     class="Stem"
     fill="none"
     stroke="#000000"
     stroke-width="2.48"
     stroke-linejoin="bevel"
     points="655.561,717.03 655.561,636.938"
     id="polyline1105"
     transform="translate(-336.598,-528.77)" />
  <polyline
     class="Stem"
     fill="none"
     stroke="#000000"
     stroke-width="2.48"
     stroke-linejoin="bevel"
     points="1690.78,692.23 1690.78,628.158"
     id="polyline1107"
     transform="translate(-336.598,-528.77)" />
  <polyline
     class="Stem"
     fill="none"
     stroke="#000000"
     stroke-width="2.48"
     stroke-linejoin="bevel"
     points="729.708,704.63 729.708,634.243"
     id="polyline1109"
     transform="translate(-336.598,-528.77)" />
  <polyline
     class="Stem"
     fill="none"
     stroke="#000000"
     stroke-width="2.48"
     stroke-linejoin="bevel"
     points="1641.35,704.63 1641.35,634.243"
     id="polyline1111"
     transform="translate(-336.598,-528.77)" />
  <polyline
     class="Stem"
     fill="none"
     stroke="#000000"
     stroke-width="2.48"
     stroke-linejoin="bevel"
     points="779.14,692.23 779.14,628.158"
     id="polyline1113"
     transform="translate(-336.598,-528.77)" />
  <polyline
     class="Stem"
     fill="none"
     stroke="#000000"
     stroke-width="2.48"
     stroke-linejoin="bevel"
     points="1343.75,754.23 1343.75,683.719"
     id="polyline1115"
     transform="translate(-336.598,-528.77)" />
  <polyline
     class="Stem"
     fill="none"
     stroke="#000000"
     stroke-width="2.48"
     stroke-linejoin="bevel"
     points="2037.82,704.63 2037.82,615.598"
     id="polyline1117"
     transform="translate(-336.598,-528.77)" />
  <polyline
     class="Stem"
     fill="none"
     stroke="#000000"
     stroke-width="2.48"
     stroke-linejoin="bevel"
     points="873.136,717.03 873.136,640.239"
     id="polyline1119"
     transform="translate(-336.598,-528.77)" />
  <polyline
     class="Stem"
     fill="none"
     stroke="#000000"
     stroke-width="2.48"
     stroke-linejoin="bevel"
     points="1002.59,704.63 1002.59,615.598"
     id="polyline1121"
     transform="translate(-336.598,-528.77)" />
  <polyline
     class="Stem"
     fill="none"
     stroke="#000000"
     stroke-width="2.48"
     stroke-linejoin="bevel"
     points="1914.24,704.63 1914.24,615.598"
     id="polyline1123"
     transform="translate(-336.598,-528.77)" />
  <polyline
     class="Stem"
     fill="none"
     stroke="#000000"
     stroke-width="2.48"
     stroke-linejoin="bevel"
     points="1076.74,692.23 1076.74,615.598"
     id="polyline1125"
     transform="translate(-336.598,-528.77)" />
  <polyline
     class="Stem"
     fill="none"
     stroke="#000000"
     stroke-width="2.48"
     stroke-linejoin="bevel"
     points="1473.21,717.03 1473.21,640.353"
     id="polyline1127"
     transform="translate(-336.598,-528.77)" />
  <polyline
     class="Stem"
     fill="none"
     stroke="#000000"
     stroke-width="2.48"
     stroke-linejoin="bevel"
     points="1126.17,704.63 1126.17,615.598"
     id="polyline1129"
     transform="translate(-336.598,-528.77)" />
  <polyline
     class="Stem"
     fill="none"
     stroke="#000000"
     stroke-width="2.48"
     stroke-linejoin="bevel"
     points="1567.2,717.03 1567.2,636.938"
     id="polyline1131"
     transform="translate(-336.598,-528.77)" />
  <polyline
     class="Stem"
     fill="none"
     stroke="#000000"
     stroke-width="2.48"
     stroke-linejoin="bevel"
     points="1175.61,717.03 1175.61,615.598"
     id="polyline1133"
     transform="translate(-336.598,-528.77)" />
  <polyline
     class="Stem"
     fill="none"
     stroke="#000000"
     stroke-width="2.48"
     stroke-linejoin="bevel"
     points="1249.75,741.83 1249.75,677.678"
     id="polyline1135"
     transform="translate(-336.598,-528.77)" />
  <polyline
     class="Stem"
     fill="none"
     stroke="#000000"
     stroke-width="2.48"
     stroke-linejoin="bevel"
     points="2503.73,704.63 2503.73,615.598"
     id="polyline1137"
     transform="translate(-336.598,-528.77)" />
  <polyline
     class="Stem"
     fill="none"
     stroke="#000000"
     stroke-width="2.48"
     stroke-linejoin="bevel"
     points="2553.17,717.03 2553.17,615.598"
     id="polyline1139"
     transform="translate(-336.598,-528.77)" />
  <polyline
     class="Stem"
     fill="none"
     stroke="#000000"
     stroke-width="2.48"
     stroke-linejoin="bevel"
     points="2627.31,717.03 2627.31,634.198"
     id="polyline1141"
     transform="translate(-336.598,-528.77)" />
  <polyline
     class="Stem"
     fill="none"
     stroke="#000000"
     stroke-width="2.48"
     stroke-linejoin="bevel"
     points="1988.39,692.23 1988.39,615.598"
     id="polyline1143"
     transform="translate(-336.598,-528.77)" />
  <path
     class="Note"
     d="m 635.012,183.9975 c 0,4.2625 3.069,9.02102 11.11348,9.02102 10.30757,0 21.12652,-8.43202 21.12652,-17.15852 0,-5.859 -4.96,-9.12948 -11.11348,-9.12948 -9.62547,0 -21.12652,8.13748 -21.12652,17.26698"
     id="path1145"
     style="stroke-width:0.992" />
  <path
     class="Note"
     d="m 709.162,171.5975 c 0,4.2625 3.069,9.02102 11.11348,9.02102 10.30757,0 21.12652,-8.43202 21.12652,-17.15852 0,-5.859 -4.96,-9.12948 -11.11348,-9.12948 -9.62547,0 -21.12652,8.13748 -21.12652,17.26698"
     id="path1147"
     style="stroke-width:0.992" />
  <path
     class="Note"
     d="m 758.592,183.9975 c 0,4.2625 3.069,9.02102 11.11348,9.02102 10.30757,0 21.12652,-8.43202 21.12652,-17.15852 0,-5.859 -4.96,-9.12948 -11.11348,-9.12948 -9.62547,0 -21.12652,8.13748 -21.12652,17.26698"
     id="path1149"
     style="stroke-width:0.992" />
  <path
     class="Note"
     d="m 808.022,196.3975 c 0,4.2625 3.069,9.02102 11.11348,9.02102 10.30757,0 21.12652,-8.43202 21.12652,-17.15852 0,-5.859 -4.96,-9.12948 -11.11348,-9.12948 -9.62547,0 -21.12652,8.13748 -21.12652,17.26698"
     id="path1151"
     style="stroke-width:0.992" />
  <path
     class="Note"
     d="m 882.172,221.1975 c 0,4.2625 3.069,9.02102 11.11348,9.02102 10.30757,0 21.12652,-8.43202 21.12652,-17.15852 0,-5.859 -4.96,-9.12948 -11.11348,-9.12948 -9.62547,0 -21.12652,8.13748 -21.12652,17.26698"
     id="path1153"
     style="stroke-width:0.992" />
  <path
     class="Note"
     d="m 976.162,233.5975 c 0,4.2625 3.069,9.02102 11.11348,9.02102 10.30757,0 21.12652,-8.43202 21.12652,-17.15852 0,-5.859 -4.96,-9.12948 -11.11348,-9.12948 -9.62547,0 -21.12652,8.13748 -21.12652,17.26698"
     id="path1155"
     style="stroke-width:0.992" />
  <path
     class="Note"
     d="m 505.553,196.3975 c 0,4.2625 3.069,9.02102 11.11348,9.02102 10.30757,0 21.12652,-8.43202 21.12652,-17.15852 0,-5.859 -4.96,-9.12948 -11.11348,-9.12948 -9.62547,0 -21.12652,8.13748 -21.12652,17.26698"
     id="path1157"
     style="stroke-width:0.992" />
  <path
     class="Note"
     d="m 1199.622,196.3975 c 0,4.2625 3.069,9.02102 11.1135,9.02102 10.3075,0 21.1265,-8.43202 21.1265,-17.15852 0,-5.859 -4.96,-9.12948 -11.1135,-9.12948 -9.6255,0 -21.1265,8.13748 -21.1265,17.26698"
     id="path1159"
     style="stroke-width:0.992" />
  <path
     class="Note"
     d="m 1273.772,183.9975 c 0,4.2625 3.069,9.02102 11.1135,9.02102 10.3075,0 21.1265,-8.43202 21.1265,-17.15852 0,-5.859 -4.96,-9.12948 -11.1135,-9.12948 -9.6255,0 -21.1265,8.13748 -21.1265,17.26698"
     id="path1161"
     style="stroke-width:0.992" />
  <path
     class="Note"
     d="m 1323.202,171.5975 c 0,4.2625 3.069,9.02102 11.1135,9.02102 10.3075,0 21.1265,-8.43202 21.1265,-17.15852 0,-5.859 -4.96,-9.12948 -11.1135,-9.12948 -9.6255,0 -21.1265,8.13748 -21.1265,17.26698"
     id="path1163"
     style="stroke-width:0.992" />
  <path
     class="Note"
     d="m 1105.622,196.3975 c 0,4.2625 3.069,9.02102 11.1135,9.02102 10.3075,0 21.1265,-8.43202 21.1265,-17.15852 0,-5.859 -4.96,-9.12948 -11.1135,-9.12948 -9.6255,0 -21.1265,8.13748 -21.1265,17.26698"
     id="path1165"
     style="stroke-width:0.992" />
  <path
     class="Note"
     d="m 1417.192,196.3975 c 0,4.2625 3.069,9.02102 11.1135,9.02102 10.3075,0 21.1265,-8.43202 21.1265,-17.15852 0,-5.859 -4.96,-9.12948 -11.1135,-9.12948 -9.6255,0 -21.1265,8.13748 -21.1265,17.26698"
     id="path1167"
     style="stroke-width:0.992" />
  <path
     class="Note"
     d="m 1546.652,183.9975 c 0,4.2625 3.069,9.02102 11.1135,9.02102 10.3075,0 21.1265,-8.43202 21.1265,-17.15852 0,-5.859 -4.96,-9.12948 -11.1135,-9.12948 -9.6255,0 -21.1265,8.13748 -21.1265,17.26698"
     id="path1169"
     style="stroke-width:0.992" />
  <path
     class="Note"
     d="m 1620.802,171.5975 c 0,4.2625 3.069,9.02102 11.1135,9.02102 10.3075,0 21.1265,-8.43202 21.1265,-17.15852 0,-5.859 -4.96,-9.12948 -11.1135,-9.12948 -9.6255,0 -21.1265,8.13748 -21.1265,17.26698"
     id="path1171"
     style="stroke-width:0.992" />
  <path
     class="Note"
     d="m 1670.232,183.9975 c 0,4.2625 3.069,9.02102 11.1135,9.02102 10.3075,0 21.1265,-8.43202 21.1265,-17.15852 0,-5.859 -4.96,-9.12948 -11.1135,-9.12948 -9.6255,0 -21.1265,8.13748 -21.1265,17.26698"
     id="path1173"
     style="stroke-width:0.992" />
  <path
     class="Note"
     d="m 1719.672,196.3975 c 0,4.2625 3.069,9.02102 11.1135,9.02102 10.3075,0 21.1265,-8.43202 21.1265,-17.15852 0,-5.859 -4.96,-9.12948 -11.1135,-9.12948 -9.6255,0 -21.1265,8.13748 -21.1265,17.26698"
     id="path1175"
     style="stroke-width:0.992" />
  <path
     class="Note"
     d="m 1793.812,183.9975 c 0,4.2625 3.069,9.02102 11.1135,9.02102 10.3075,0 21.1265,-8.43202 21.1265,-17.15852 0,-5.859 -4.96,-9.12948 -11.1135,-9.12948 -9.6255,0 -21.1265,8.13748 -21.1265,17.26698"
     id="path1177"
     style="stroke-width:0.992" />
  <path
     class="Note"
     d="m 2012.572,183.9975 c 0,4.2625 3.069,9.02102 11.1135,9.02102 10.3075,0 21.1265,-8.43202 21.1265,-17.15852 0,-5.859 -4.96,-9.12948 -11.1135,-9.12948 -9.6255,0 -21.1265,8.13748 -21.1265,17.26698"
     id="path1179"
     style="stroke-width:0.992" />
  <path
     class="Note"
     d="m 2086.722,171.5975 c 0,4.2625 3.069,9.02102 11.1135,9.02102 10.3075,0 21.1265,-8.43202 21.1265,-17.15852 0,-5.859 -4.96,-9.12948 -11.1135,-9.12948 -9.6255,0 -21.1265,8.13748 -21.1265,17.26698"
     id="path1181"
     style="stroke-width:0.992" />
  <path
     class="Note"
     d="m 193.983,196.3975 c 0,4.2625 3.069,9.02102 11.11348,9.02102 10.30757,0 21.12652,-8.43202 21.12652,-17.15852 0,-5.859 -4.96,-9.12948 -11.11348,-9.12948 -9.62547,0 -21.12652,8.13748 -21.12652,17.26698"
     id="path1183"
     style="stroke-width:0.992" />
  <path
     class="Note"
     d="m 2136.152,183.9975 c 0,4.2625 3.069,9.02102 11.1135,9.02102 10.3075,0 21.1265,-8.43202 21.1265,-17.15852 0,-5.859 -4.96,-9.12948 -11.1135,-9.12948 -9.6255,0 -21.1265,8.13748 -21.1265,17.26698"
     id="path1185"
     style="stroke-width:0.992" />
  <path
     class="Note"
     d="m 287.978,196.3975 c 0,4.2625 3.069,9.02102 11.11348,9.02102 10.30757,0 21.12652,-8.43202 21.12652,-17.15852 0,-5.859 -4.96,-9.12948 -11.11348,-9.12948 -9.62547,0 -21.12652,8.13748 -21.12652,17.26698"
     id="path1187"
     style="stroke-width:0.992" />
  <path
     class="Note"
     d="m 2185.582,196.3975 c 0,4.2625 3.069,9.02102 11.1135,9.02102 10.3075,0 21.1265,-8.43202 21.1265,-17.15852 0,-5.859 -4.96,-9.12948 -11.1135,-9.12948 -9.6255,0 -21.1265,8.13748 -21.1265,17.26698"
     id="path1189"
     style="stroke-width:0.992" />
  <path
     class="Note"
     d="m 362.126,183.9975 c 0,4.2625 3.069,9.02102 11.11348,9.02102 10.30757,0 21.12652,-8.43202 21.12652,-17.15852 0,-5.859 -4.96,-9.12948 -11.11348,-9.12948 -9.62547,0 -21.12652,8.13748 -21.12652,17.26698"
     id="path1191"
     style="stroke-width:0.992" />
  <path
     class="Note"
     d="m 2259.732,196.3975 c 0,4.2625 3.069,9.02102 11.1135,9.02102 10.3075,0 21.1265,-8.43202 21.1265,-17.15852 0,-5.859 -4.96,-9.12948 -11.1135,-9.12948 -9.6255,0 -21.1265,8.13748 -21.1265,17.26698"
     id="path1193"
     style="stroke-width:0.992" />
  <path
     class="Note"
     d="m 411.558,171.5975 c 0,4.2625 3.069,9.02102 11.11348,9.02102 10.30757,0 21.12652,-8.43202 21.12652,-17.15852 0,-5.859 -4.96,-9.12948 -11.11348,-9.12948 -9.62547,0 -21.12652,8.13748 -21.12652,17.26698"
     id="path1195"
     style="stroke-width:0.992" />
  <path
     class="Clef"
     d="m 60.558525,250.95748 c 0,-3.67348 -3.363475,-5.25443 -6.634,-5.25443 -4.169475,0 -8.246,2.57295 -8.246,7.03695 0,1.89105 0.697475,3.286 2.092525,4.66548 -2.588525,0.992 -5.161575,2.976 -5.161575,6.06052 0,3.27052 2.976,5.456 7.34705,5.456 5.347475,0 9.114,-2.976 9.114,-7.254 0,-2.27852 -0.992,-4.154 -2.774525,-5.456 2.88305,-1.28652 4.262525,-2.86748 4.262525,-5.25452 m -9.92,15.872 c -2.17,0 -3.658,-1.37948 -3.658,-3.472 0,-1.984 0.883475,-3.56496 2.57295,-4.55696 0.40305,0.20148 0.496,0.20148 0.790525,0.38748 1.193475,0.60452 1.193475,0.60452 1.39505,0.806 1.875475,1.08505 2.681475,2.07705 2.681475,3.472 0,1.87548 -1.596525,3.36348 -3.782,3.36348 m 3.782,-11.904 c -1.488,-0.79043 -1.89105,-0.992 -2.185475,-1.19348 l -0.201575,-0.093 c -1.488,-0.89905 -1.984,-1.59653 -1.984,-2.77453 0,-1.798 1.39505,-3.08452 3.37905,-3.08452 1.875475,0 3.06895,1.19348 3.06895,3.27052 0,1.59653 -0.58895,2.68148 -2.07695,3.87496 M 82.088,179.6265 c 0,-14.97302 -10.617475,-25.0945 -25.094525,-25.0945 -0.992,-5.952 -1.89095,-11.81105 -2.774425,-17.36 10.416,-11.02052 17.747475,-23.51348 17.747475,-39.184 0,-9.036525 -2.774525,-16.368 -4.464,-19.948128 -2.371475,-5.053248 -5.254525,-8.525248 -6.944,-8.525248 -0.682,0 -3.859475,1.193376 -7.03705,5.053248 -6.448,7.548128 -8.230425,20.134128 -8.230425,28.473078 0,5.36305 0.496,10.21453 2.185475,21.43653 -0.108525,0 -5.27,5.25452 -7.34705,7.03704 C 31.09305,139.85348 18.6,151.94348 18.6,171.6905 c 0,18.64655 16.166525,33.23202 34.62705,33.23202 2.867475,0 5.54895,-0.29452 7.936,-0.69747 1.782425,9.43947 2.976,16.47643 2.976,21.73095 0,10.32305 -5.36305,15.77905 -15.376,15.77905 -2.38705,0 -4.464,-0.496 -4.665575,-0.60453 -0.09295,0 -0.294425,-0.093 -0.294425,-0.186 0,-0.20147 0.201475,-0.31 0.496,-0.40304 4.665475,-0.69748 9.315475,-4.75843 9.315475,-11.00496 0,-5.36304 -4.06105,-11.02052 -11.50105,-11.02052 -6.944,0 -11.31495,5.65748 -11.31495,12.19852 0,6.55653 4.96,15.19 18.352,15.19 12.80295,0 19.049475,-7.254 19.049475,-19.94852 0,-3.85948 -0.58895,-8.32348 -1.58095,-13.98095 -0.294525,-1.984 -0.790525,-5.06853 -1.488,-8.83505 C 74.849475,199.86948 82.088,189.84105 82.088,179.6265 M 51.537475,98.282525 c 0.992,-3.968 5.456,-14.384 10.617575,-14.384 1.488,0 3.968,4.758425 3.968,11.702425 0,10.21453 -7.734525,17.96453 -14.585575,24.8 -0.58895,-3.968 -1.08495,-7.936 -1.08495,-11.99695 0,-3.76652 0.387475,-7.05252 1.08495,-10.121475 m 2.976,102.578955 c -14.182425,0 -26.28797,-9.92 -26.28797,-24.90848 0,-12.09005 8.52502,-22.909 17.26702,-30.55048 1.674,-1.39504 3.270525,-2.77452 4.758525,-4.26252 0.883475,5.34748 1.58095,9.92 2.278425,14.08948 -9.036425,2.57304 -15.174425,12.19852 -15.174425,21.42102 0,7.0525 5.456,16.5695 13.392,16.5695 0.790425,0 1.689475,-0.40295 1.689475,-1.39495 0,-0.79053 -0.89905,-1.37957 -2.185475,-2.17005 -3.87505,-2.294 -6.060525,-4.96 -6.060525,-9.734 0,-6.045 4.572525,-10.91205 10.32295,-12.29152 L 60.264,200.164 c -1.984,0.40305 -3.766525,0.69748 -5.750525,0.69748 m 9.92,-1.89096 c -2.07695,-11.79552 -4.758425,-27.57452 -5.456,-31.94557 10.01305,0 14.29105,6.94405 15.174525,11.71805 0.108525,0.7905 0.294525,1.8755 0.294525,3.069 0,7.1455 -2.976,14.29105 -10.01305,17.15852"
     id="path1197"
     style="stroke-width:0.992" />
  <path
     class="TimeSig"
     d="m 130.20048,125.9655 c -6.06043,0 -8.23043,1.7825 -9.62548,3.2705 -0.29452,-2.077 -0.496,-3.6735 -0.496,-5.2545 0,-1.5965 0.20148,-2.976 0.496,-4.75855 0.58905,-3.67347 3.06905,-8.246 8.432,-8.246 2.48,0 3.968,0.806 4.96,1.89105 -2.07695,0.89895 -3.76652,3.56495 -3.76652,5.85895 0,3.56505 2.77452,6.33955 6.35504,6.33955 3.56496,0 6.448,-2.7745 6.448,-6.33955 v -0.20147 c 0,0 0,0 0,-0.10853 0,-0.88347 -0.20147,-2.37147 -0.60452,-3.162 -1.28652,-3.58043 -5.456,-8.83495 -15.376,-8.83495 -8.928,0 -15.376,8.52495 -17.36,13.09748 -0.992,2.37152 -2.48,7.23852 -2.48,12.78752 0,6.0605 1.6895,12.89605 7.533,18.05752 5.76605,4.37096 9.42405,4.57253 12.89605,4.57253 3.48747,0 16.47643,-4.07653 16.47643,-15.57755 0,-9.7185 -7.64148,-13.392 -13.888,-13.392 m -3.67348,24.79998 c -3.27052,0 -5.952,-4.464 -5.952,-10.02843 0,-5.54905 2.68148,-10.10605 5.952,-10.10605 3.27052,0 6.06052,4.557 6.06052,10.10605 0,5.56443 -2.79,10.02843 -6.06052,10.02843"
     id="path1199"
     style="stroke-width:0.992" />
  <path
     class="TimeSig"
     d="m 137.54705,177.7975 c 3.27043,-2.48 5.54895,-5.6575 5.54895,-9.6255 0,-7.14548 -7.82748,-12.98905 -17.45295,-12.98905 -9.62557,0 -17.46855,5.84357 -17.46855,12.98905 0,3.968 0.992,7.533 5.6575,10.509 -4.464,2.5885 -6.944,6.262 -6.944,11.02048 0,8.02904 8.432,14.47704 18.75505,14.47704 10.30747,0 18.73947,-6.448 18.73947,-14.47704 0,-4.75848 -1.674,-9.22248 -6.83547,-11.90398 m -11.904,20.83198 c -6.35505,0 -11.81105,-3.472 -11.81105,-9.03643 0,-6.63405 5.16148,-8.23055 5.16148,-8.23055 6.74252,2.2785 16.368,5.6575 16.368,11.1135 0,2.68148 -3.472,6.15348 -9.71843,6.15348 M 131.98252,175.116 C 125.24,172.9305 117.8,169.66 117.8,165.196 c 0,-3.87505 3.56505,-5.456 7.84305,-5.456 6.15347,0 10.30747,2.88295 10.30747,7.44 0,4.7585 -2.17,7.037 -3.968,7.936"
     id="path1201"
     style="stroke-width:0.992" />
  <path
     class="Beam"
     fill-rule="evenodd"
     d="m 1352.942,92.977 96.48,12.4 v 12.502 l -96.48,-12.4 V 92.977"
     id="path1203" />
  <path
     class="Beam"
     fill-rule="evenodd"
     d="m 2042.312,80.628 h 175.5 v 12.4 h -175.5 v -12.4"
     id="path1205" />
  <path
     class="Beam"
     fill-rule="evenodd"
     d="m 2116.462,99.228 h 51.91 v 12.4 h -51.91 v -12.4"
     id="path1207" />
  <path
     class="Beam"
     fill-rule="evenodd"
     d="m 911.912,142.616 96.48,6.2 v 12.425 l -96.48,-6.2 v -12.425"
     id="path1209" />
  <path
     class="Beam"
     fill-rule="evenodd"
     d="m 664.752,80.628 h 175.5 v 12.4 h -175.5 v -12.4"
     id="path1211" />
  <path
     class="Beam"
     fill-rule="evenodd"
     d="m 738.902,99.228 h 51.91 v 12.4 h -51.91 v -12.4"
     id="path1213" />
  <path
     class="Beam"
     fill-rule="evenodd"
     d="m 223.727,105.424 170.623,-6.2 v 12.409 l -170.623,6.2 v -12.409"
     id="path1215" />
  <path
     class="Beam"
     fill-rule="evenodd"
     d="m 394.35,117.824 -27.28,0.992 v 12.408 l 27.28,-0.991 v -12.409"
     id="path1217" />
  <path
     class="Beam"
     fill-rule="evenodd"
     d="m 1135.372,105.424 170.62,-6.2 v 12.409 l -170.62,6.2 v -12.409"
     id="path1219" />
  <path
     class="Beam"
     fill-rule="evenodd"
     d="m 1305.992,117.824 -27.28,0.992 v 12.408 l 27.28,-0.991 v -12.409"
     id="path1221" />
  <path
     class="Beam"
     fill-rule="evenodd"
     d="m 1576.402,80.628 h 175.49 v 12.4 h -175.49 v -12.4"
     id="path1223" />
  <path
     class="Beam"
     fill-rule="evenodd"
     d="m 1650.552,99.228 h 51.91 v 12.4 h -51.91 v -12.4"
     id="path1225" />
  <path
     class="Beam"
     fill-rule="evenodd"
     d="m 441.302,92.977 96.476,12.4 v 12.502 l -96.476,-12.4 V 92.977"
     id="path1227" />
  <path
     class="Tempo"
     d="m 130.729,0 h -3.266 v 42.266 c -1.094,-0.688 -2.484,-1.094 -4.063,-1.281 -3.562,0 -6.437,0.39 -9.609,2.172 -3.953,2.078 -8.312,6.437 -8.312,11.281 0,1.094 0.203,2.187 0.796,3.172 1.282,2.468 4.36,3.859 7.813,3.859 6.937,0 16.641,-5.937 16.641,-13.469 V 0"
     id="path1229" />
  <path
     class="Tempo"
     d="m 152.463,37.953 h 30.234 v -6.906 h -30.234 v 6.906 m 0,12.36 h 30.234 v -6.906 h -30.234 v 6.906 m 74.109,-19.141 c 3.969,-1.5 7.094,-3.844 7.094,-8.578 0,-5.531 -5.234,-9.25 -13.031,-9.25 -9.297,0 -15.297,4.984 -15.297,12.781 0,4.75 2.219,8.219 6.969,10.75 -1.86,0.594 -2.641,0.828 -3.672,1.375 -3,1.563 -4.61,4.313 -4.61,7.797 0,6.485 5.813,10.625 14.938,10.625 9.656,0 16.203,-5.531 16.203,-13.75 0,-5.64 -2.766,-9.359 -8.594,-11.75 m -3.359,-1.265 c -2.516,-0.594 -4.375,-1.141 -5.516,-1.563 -2.75,-1.016 -4.562,-3.469 -4.562,-6.109 0,-3.313 2.765,-5.766 6.484,-5.766 4.016,0 6.547,2.641 6.547,6.844 0,2.703 -1.031,4.984 -2.953,6.594 m -7.672,8.578 c 2.453,0.672 5.453,1.562 6.953,2.047 3.781,1.312 5.219,2.937 5.219,6 0,4.078 -3.359,7.015 -8.094,7.015 -4.859,0 -7.797,-2.875 -7.797,-7.672 0,-3.187 1.016,-5.218 3.719,-7.39 m 38.078,-25.141 c -9,0 -15.594,9.188 -15.594,21.672 0,12.469 6.594,21.656 15.594,21.656 8.813,0 15.547,-9.187 15.547,-21.359 0,-7.078 -1.625,-12.297 -5.172,-16.75 -2.812,-3.406 -6.359,-5.219 -10.375,-5.219 m -0.062,3.125 c 1.797,0 3.25,1.078 3.906,3 0.781,1.984 1.25,8.281 1.25,15.719 0,6.187 -0.469,12.656 -1.016,14.703 -0.656,2.391 -2.093,3.656 -4.14,3.656 -1.86,0 -3.235,-1.015 -3.953,-3 -0.782,-1.984 -1.266,-8.344 -1.266,-15.531 0,-6.313 0.484,-12.844 1.016,-14.891 0.671,-2.39 2.109,-3.656 4.203,-3.656"
     id="path1231" />
  <path
     class="VoltaSegment"
     d="m 1545.582,39.327 h -1.93 c -3.46,2.594 -7.37,3.687 -13.92,3.797 v 3.078 h 2.31 c 4.9,0 4.96,0.109 4.9,4.625 v 19.516 c 0,3.406 0,3.578 -0.38,4.125 -0.5,0.609 -1.61,0.828 -4.58,0.828 h -1.75 v 2.968 h 21.94 v -2.968 h -1.77 c -2.9,0 -3.95,-0.219 -4.45,-0.828 -0.37,-0.547 -0.37,-0.766 -0.37,-4.125 V 39.327 m 19.23,29.422 c -2.86,0 -5.17,2.312 -5.17,5.172 0,2.797 2.31,5.172 5.12,5.172 2.91,0 5.22,-2.313 5.22,-5.172 0,-2.86 -2.31,-5.172 -5.17,-5.172"
     id="path1233" />
  <polyline
     class="VoltaSegment"
     fill="none"
     stroke="#000000"
     stroke-width="2.73"
     stroke-linejoin="miter"
     stroke-miterlimit="2"
     points="1850.89,607.034 1850.89,552.474 2292.25,552.474 2292.25,607.034"
     id="polyline1235"
     transform="translate(-336.598,-528.77)" />
  <path
     class="VoltaSegment"
     d="m 2020.322,63.639 -0.61,2.75 c -0.5,2.204 -0.83,2.907 -1.27,3.188 -0.54,0.391 -0.65,0.391 -4.12,0.437 h -10.61 c 1.92,-1.656 3.36,-2.687 5.5,-4.125 7.75,-5 9.34,-6.218 10.94,-8.25 1.87,-2.468 2.97,-5.39 2.97,-7.968 0,-5.891 -5.77,-10.344 -13.52,-10.344 -7.48,0 -13.26,4.844 -13.26,11.109 0,3.844 2.15,6.328 5.45,6.328 2.86,0 4.67,-1.812 4.67,-4.671 0,-2.375 -1.05,-3.75 -3.58,-4.954 -0.61,-0.281 -0.87,-0.609 -0.87,-1.046 0,-1.766 2.97,-3.625 5.72,-3.625 3.84,0 6.04,2.359 6.04,6.437 0,4.563 -1.76,7.797 -7.59,14.016 -6.16,6.547 -8.3,9.015 -11.05,12.984 v 2.578 c 1.42,-0.156 2.03,-0.219 2.86,-0.219 h 20.67 c 1.05,0 1.71,0.063 3.36,0.219 l 1.27,-14.844 h -2.97 m 13.41,5.11 c -2.86,0 -5.18,2.312 -5.18,5.172 0,2.797 2.32,5.172 5.13,5.172 2.91,0 5.22,-2.313 5.22,-5.172 0,-2.86 -2.31,-5.172 -5.17,-5.172"
     id="path1237" />
  <polyline
     class="VoltaSegment"
     fill="none"
     stroke="#000000"
     stroke-width="2.73"
     stroke-linejoin="miter"
     stroke-miterlimit="2"
     points="2316.81,607.034 2316.81,552.474 2763.24,552.474"
     id="polyline1239"
     transform="translate(-336.598,-528.77)" />
  <path
     class="NoteDot"
     d="m 926.792,217.028 c 0,2.7745 2.1855,4.96 4.96,4.96 2.7745,0 4.96,-2.1855 4.96,-4.96 0,-2.7745 -2.1855,-4.96 -4.96,-4.96 -2.7745,0 -4.96,2.1855 -4.96,4.96"
     id="path1241"
     style="stroke-width:0.992" />
  <path
     class="NoteDot"
     d="m 456.182,167.428 c 0,2.7745 2.1855,4.96 4.96,4.96 2.7745,0 4.96,-2.1855 4.96,-4.96 0,-2.7745 -2.1855,-4.96 -4.96,-4.96 -2.7745,0 -4.96,2.1855 -4.96,4.96"
     id="path1243"
     style="stroke-width:0.992" />
  <path
     class="NoteDot"
     d="m 1020.792,217.028 c 0,2.7745 2.1855,4.96 4.96,4.96 2.7745,0 4.96,-2.1855 4.96,-4.96 0,-2.7745 -2.1855,-4.96 -4.96,-4.96 -2.7745,0 -4.96,2.1855 -4.96,4.96"
     id="path1245"
     style="stroke-width:0.992" />
  <path
     class="NoteDot"
     d="m 1367.822,167.428 c 0,2.7745 2.1855,4.96 4.96,4.96 2.7745,0 4.96,-2.1855 4.96,-4.96 0,-2.7745 -2.1855,-4.96 -4.96,-4.96 -2.7745,0 -4.96,2.1855 -4.96,4.96"
     id="path1247"
     style="stroke-width:0.992" />
  <path
     class="NoteDot"
     d="m 238.607,192.228 c 0,2.7745 2.1855,4.96 4.96,4.96 2.7745,0 4.96,-2.1855 4.96,-4.96 0,-2.7745 -2.1855,-4.96 -4.96,-4.96 -2.7745,0 -4.96,2.1855 -4.96,4.96"
     id="path1249"
     style="stroke-width:0.992" />
  <path
     class="NoteDot"
     d="m 1838.442,167.428 c 0,2.7745 2.1855,4.96 4.96,4.96 2.7745,0 4.96,-2.1855 4.96,-4.96 0,-2.7745 -2.1855,-4.96 -4.96,-4.96 -2.7745,0 -4.96,2.1855 -4.96,4.96"
     id="path1251"
     style="stroke-width:0.992" />
  <path
     class="NoteDot"
     d="m 1150.252,192.228 c 0,2.7745 2.1855,4.96 4.96,4.96 2.7745,0 4.96,-2.1855 4.96,-4.96 0,-2.7745 -2.1855,-4.96 -4.96,-4.96 -2.7745,0 -4.96,2.1855 -4.96,4.96"
     id="path1253"
     style="stroke-width:0.992" />
  <path
     class="NoteDot"
     d="m 1461.822,192.228 c 0,2.7745 2.1855,4.96 4.96,4.96 2.7745,0 4.96,-2.1855 4.96,-4.96 0,-2.7745 -2.1855,-4.96 -4.96,-4.96 -2.7745,0 -4.96,2.1855 -4.96,4.96"
     id="path1255"
     style="stroke-width:0.992" />
  <path
     class="NoteDot"
     d="m 550.178,192.228 c 0,2.7745 2.1855,4.96 4.96,4.96 2.7745,0 4.96,-2.1855 4.96,-4.96 0,-2.7745 -2.1855,-4.96 -4.96,-4.96 -2.7745,0 -4.96,2.1855 -4.96,4.96"
     id="path1257"
     style="stroke-width:0.992" />
  <path
     class="NoteDot"
     d="m 2304.352,192.228 c 0,2.7745 2.1855,4.96 4.96,4.96 2.7745,0 4.96,-2.1855 4.96,-4.96 0,-2.7745 -2.1855,-4.96 -4.96,-4.96 -2.7745,0 -4.96,2.1855 -4.96,4.96"
     id="path1259"
     style="stroke-width:0.992" />
</svg>
