<?xml version="1.0" encoding="UTF-8" standalone="no"?>
<svg
   xmlns:dc="http://purl.org/dc/elements/1.1/"
   xmlns:cc="http://creativecommons.org/ns#"
   xmlns:rdf="http://www.w3.org/1999/02/22-rdf-syntax-ns#"
   xmlns:svg="http://www.w3.org/2000/svg"
   xmlns="http://www.w3.org/2000/svg"
   xmlns:sodipodi="http://sodipodi.sourceforge.net/DTD/sodipodi-0.dtd"
   xmlns:inkscape="http://www.inkscape.org/namespaces/inkscape"
   width="258.20526mm"
   height="14.611279mm"
   viewBox="0 0 3659.6022 207.089"
   version="1.2"
   id="svg1329"
   sodipodi:docname="Dossium Canto Lustmoord Musica.svg"
   inkscape:version="1.0.2-2 (e86c870879, 2021-01-15)">
  <metadata
     id="metadata1335">
    <rdf:RDF>
      <cc:Work
         rdf:about="">
        <dc:format>image/svg+xml</dc:format>
        <dc:type
           rdf:resource="http://purl.org/dc/dcmitype/StillImage" />
      </cc:Work>
    </rdf:RDF>
  </metadata>
  <defs
     id="defs1333" />
  <sodipodi:namedview
     pagecolor="#ffffff"
     bordercolor="#666666"
     borderopacity="1"
     objecttolerance="10"
     gridtolerance="10"
     guidetolerance="10"
     inkscape:pageopacity="0"
     inkscape:pageshadow="2"
     inkscape:window-width="1920"
     inkscape:window-height="991"
     id="namedview1331"
     showgrid="false"
     inkscape:zoom="0.94988596"
     inkscape:cx="471.36053"
     inkscape:cy="249.9976"
     inkscape:window-x="-9"
     inkscape:window-y="-9"
     inkscape:window-maximized="1"
     inkscape:current-layer="svg1329" />
  <title
     id="title1085">Dossium Canto Lustmoord Musica</title>
  <desc
     id="desc1087">Generated by MuseScore Studio 4.5.2</desc>
  <polyline
     class="StaffLines"
     fill="none"
     stroke="#000000"
     stroke-width="2.73"
     stroke-linejoin="bevel"
     points="336.598,634.198 3996.2,634.198"
     id="polyline1089"
     transform="translate(-336.598,-551.109)" />
  <polyline
     class="StaffLines"
     fill="none"
     stroke="#000000"
     stroke-width="2.73"
     stroke-linejoin="bevel"
     points="336.598,658.998 3996.2,658.998"
     id="polyline1091"
     transform="translate(-336.598,-551.109)" />
  <polyline
     class="StaffLines"
     fill="none"
     stroke="#000000"
     stroke-width="2.73"
     stroke-linejoin="bevel"
     points="336.598,683.798 3996.2,683.798"
     id="polyline1093"
     transform="translate(-336.598,-551.109)" />
  <polyline
     class="StaffLines"
     fill="none"
     stroke="#000000"
     stroke-width="2.73"
     stroke-linejoin="bevel"
     points="336.598,708.598 3996.2,708.598"
     id="polyline1095"
     transform="translate(-336.598,-551.109)" />
  <polyline
     class="StaffLines"
     fill="none"
     stroke="#000000"
     stroke-width="2.73"
     stroke-linejoin="bevel"
     points="336.598,733.398 3996.2,733.398"
     id="polyline1097"
     transform="translate(-336.598,-551.109)" />
  <polyline
     class="BarLine"
     fill="none"
     stroke="#000000"
     stroke-width="4.46"
     stroke-linejoin="bevel"
     points="1172.59,632.834 1172.59,734.762"
     id="polyline1107"
     transform="translate(-336.598,-551.109)" />
  <polyline
     class="BarLine"
     fill="none"
     stroke="#000000"
     stroke-width="4.46"
     stroke-linejoin="bevel"
     points="3300.74,632.834 3300.74,734.762"
     id="polyline1109"
     transform="translate(-336.598,-551.109)" />
  <polyline
     class="BarLine"
     fill="none"
     stroke="#000000"
     stroke-width="13.64"
     stroke-linejoin="bevel"
     points="2241.25,632.834 2241.25,734.762"
     id="polyline1111"
     transform="translate(-336.598,-551.109)" />
  <polyline
     class="BarLine"
     fill="none"
     stroke="#000000"
     stroke-width="4.46"
     stroke-linejoin="bevel"
     points="2259.48,632.834 2259.48,734.762"
     id="polyline1113"
     transform="translate(-336.598,-551.109)" />
  <path
     class="BarLine"
     d="m 1944.615,120.289 c 0,-2.883 -2.294,-5.2545 -5.1615,-5.2545 -2.883,0 -5.1615,2.3715 -5.1615,5.2545 0,2.883 2.2785,5.2545 5.1615,5.2545 2.8675,0 5.1615,-2.3715 5.1615,-5.2545"
     id="path1115"
     style="stroke-width:0.992" />
  <path
     class="BarLine"
     d="m 1944.615,145.089 c 0,-2.883 -2.294,-5.2545 -5.1615,-5.2545 -2.883,0 -5.1615,2.3715 -5.1615,5.2545 0,2.883 2.2785,5.2545 5.1615,5.2545 2.8675,0 5.1615,-2.3715 5.1615,-5.2545"
     id="path1117"
     style="stroke-width:0.992" />
  <polyline
     class="BarLine"
     fill="none"
     stroke="#000000"
     stroke-width="4.46"
     stroke-linejoin="bevel"
     points="3971.15,632.834 3971.15,734.762"
     id="polyline1119"
     transform="translate(-336.598,-551.109)" />
  <polyline
     class="BarLine"
     fill="none"
     stroke="#000000"
     stroke-width="13.64"
     stroke-linejoin="bevel"
     points="3989.38,632.834 3989.38,734.762"
     id="polyline1121"
     transform="translate(-336.598,-551.109)" />
  <polyline
     class="BarLine"
     fill="none"
     stroke="#000000"
     stroke-width="4.46"
     stroke-linejoin="bevel"
     points="2946.88,632.834 2946.88,734.762"
     id="polyline1123"
     transform="translate(-336.598,-551.109)" />
  <polyline
     class="BarLine"
     fill="none"
     stroke="#000000"
     stroke-width="4.46"
     stroke-linejoin="bevel"
     points="1526.45,632.834 1526.45,734.762"
     id="polyline1125"
     transform="translate(-336.598,-551.109)" />
  <polyline
     class="BarLine"
     fill="none"
     stroke="#000000"
     stroke-width="4.46"
     stroke-linejoin="bevel"
     points="858.537,632.834 858.537,734.762"
     id="polyline1127"
     transform="translate(-336.598,-551.109)" />
  <path
     class="BarLine"
     d="m 1551.805,120.289 c 0,-2.883 -2.294,-5.2545 -5.1615,-5.2545 -2.883,0 -5.1615,2.3715 -5.1615,5.2545 0,2.883 2.2785,5.2545 5.1615,5.2545 2.8675,0 5.1615,-2.3715 5.1615,-5.2545"
     id="path1129"
     style="stroke-width:0.992" />
  <path
     class="BarLine"
     d="m 1551.805,145.089 c 0,-2.883 -2.294,-5.2545 -5.1615,-5.2545 -2.883,0 -5.1615,2.3715 -5.1615,5.2545 0,2.883 2.2785,5.2545 5.1615,5.2545 2.8675,0 5.1615,-2.3715 5.1615,-5.2545"
     id="path1131"
     style="stroke-width:0.992" />
  <polyline
     class="BarLine"
     fill="none"
     stroke="#000000"
     stroke-width="4.46"
     stroke-linejoin="bevel"
     points="1899.79,632.834 1899.79,734.762"
     id="polyline1133"
     transform="translate(-336.598,-551.109)" />
  <polyline
     class="BarLine"
     fill="none"
     stroke="#000000"
     stroke-width="13.64"
     stroke-linejoin="bevel"
     points="1918.02,632.834 1918.02,734.762"
     id="polyline1135"
     transform="translate(-336.598,-551.109)" />
  <polyline
     class="BarLine"
     fill="none"
     stroke="#000000"
     stroke-width="4.46"
     stroke-linejoin="bevel"
     points="2632.82,632.834 2632.82,734.762"
     id="polyline1137"
     transform="translate(-336.598,-551.109)" />
  <path
     class="BarLine"
     d="m 3286.285,120.289 c 0,-2.883 -2.294,-5.2545 -5.1615,-5.2545 -2.883,0 -5.1615,2.3715 -5.1615,5.2545 0,2.883 2.2785,5.2545 5.1615,5.2545 2.8675,0 5.1615,-2.3715 5.1615,-5.2545"
     id="path1139"
     style="stroke-width:0.992" />
  <path
     class="BarLine"
     d="m 3286.285,145.089 c 0,-2.883 -2.294,-5.2545 -5.1615,-5.2545 -2.883,0 -5.1615,2.3715 -5.1615,5.2545 0,2.883 2.2785,5.2545 5.1615,5.2545 2.8675,0 5.1615,-2.3715 5.1615,-5.2545"
     id="path1141"
     style="stroke-width:0.992" />
  <polyline
     class="BarLine"
     fill="none"
     stroke="#000000"
     stroke-width="4.46"
     stroke-linejoin="bevel"
     points="3634.28,632.834 3634.28,734.762"
     id="polyline1143"
     transform="translate(-336.598,-551.109)" />
  <polyline
     class="BarLine"
     fill="none"
     stroke="#000000"
     stroke-width="13.64"
     stroke-linejoin="bevel"
     points="3652.5,632.834 3652.5,734.762"
     id="polyline1145"
     transform="translate(-336.598,-551.109)" />
  <path
     class="Accidental"
     d="m 2128.395,112.446 c -0.589,-3.85952 -2.976,-7.533 -8.029,-7.533 -4.96,0 -7.843,3.06895 -8.339,3.67348 l 0.403,-31.85253 c 0,-0.790425 -0.589,-1.379475 -1.395,-1.379475 h -1.178 c -0.806,0 -1.395,0.58905 -1.395,1.379475 l 0.496,59.62853 c 0,0.79052 0.589,1.37957 1.395,1.37957 0.186,0 0.589,-0.0931 0.7905,-0.186 0.3875,-0.20157 6.8355,-3.37905 12.1985,-9.42405 3.7665,-4.278 5.2545,-9.1295 5.2545,-13.206 0,-0.8835 -0.093,-1.674 -0.2015,-2.48 m -6.8355,3.875 c 0,1.488 -0.403,6.045 -2.883,9.827 -1.6895,2.573 -5.053,5.25448 -6.944,6.74248 l 0.2945,-19.34398 c 0.2015,-0.899 1.6895,-3.76655 5.6575,-3.76655 3.5805,0 3.875,3.36355 3.875,5.45605 0,0.496 0,0.7905 0,1.085"
     id="path1147"
     style="stroke-width:0.992" />
  <path
     class="Accidental"
     d="m 1455.475,124.846 c -0.589,-3.85952 -2.976,-7.533 -8.029,-7.533 -4.96,0 -7.843,3.06895 -8.339,3.67348 l 0.403,-31.85253 c 0,-0.790425 -0.589,-1.379475 -1.395,-1.379475 h -1.178 c -0.806,0 -1.395,0.58905 -1.395,1.379475 l 0.496,59.62853 c 0,0.79052 0.589,1.37957 1.395,1.37957 0.186,0 0.589,-0.0931 0.7905,-0.186 0.3875,-0.20157 6.8355,-3.37905 12.1985,-9.42405 3.7665,-4.278 5.2545,-9.1295 5.2545,-13.206 0,-0.8835 -0.093,-1.674 -0.2015,-2.48 m -6.8355,3.875 c 0,1.488 -0.403,6.045 -2.883,9.827 -1.6895,2.573 -5.053,5.25448 -6.944,6.74248 l 0.2945,-19.34398 c 0.2015,-0.899 1.6895,-3.76655 5.6575,-3.76655 3.5805,0 3.875,3.36355 3.875,5.45605 0,0.496 0,0.7905 0,1.085"
     id="path1149"
     style="stroke-width:0.992" />
  <path
     class="Accidental"
     d="m 2482.255,112.446 c -0.589,-3.85952 -2.976,-7.533 -8.029,-7.533 -4.96,0 -7.843,3.06895 -8.339,3.67348 l 0.403,-31.85253 c 0,-0.790425 -0.589,-1.379475 -1.395,-1.379475 h -1.178 c -0.806,0 -1.395,0.58905 -1.395,1.379475 l 0.496,59.62853 c 0,0.79052 0.589,1.37957 1.395,1.37957 0.186,0 0.589,-0.0931 0.7905,-0.186 0.3875,-0.20157 6.8355,-3.37905 12.1985,-9.42405 3.7665,-4.278 5.2545,-9.1295 5.2545,-13.206 0,-0.8835 -0.093,-1.674 -0.2015,-2.48 m -6.8355,3.875 c 0,1.488 -0.403,6.045 -2.883,9.827 -1.6895,2.573 -5.053,5.25448 -6.944,6.74248 l 0.2945,-19.34398 c 0.2015,-0.899 1.6895,-3.76655 5.6575,-3.76655 3.5805,0 3.875,3.36355 3.875,5.45605 0,0.496 0,0.7905 0,1.085"
     id="path1151"
     style="stroke-width:0.992" />
  <path
     class="Accidental"
     d="m 274.51105,162.046 c -0.58905,-3.85952 -2.976,-7.533 -8.02905,-7.533 -4.96,0 -7.843,3.06895 -8.339,3.67348 l 0.403,-31.85253 c 0,-0.79043 -0.589,-1.37947 -1.395,-1.37947 h -1.178 c -0.806,0 -1.395,0.58904 -1.395,1.37947 l 0.496,59.62853 c 0,0.79052 0.589,1.37957 1.395,1.37957 0.186,0 0.589,-0.0931 0.7905,-0.186 0.3875,-0.20157 6.8355,-3.37905 12.1985,-9.42405 3.76652,-4.278 5.25452,-9.1295 5.25452,-13.206 0,-0.8835 -0.093,-1.674 -0.20147,-2.48 m -6.83557,3.875 c 0,1.488 -0.40296,6.045 -2.88296,9.827 -1.68952,2.573 -5.05302,5.25448 -6.94402,6.74248 l 0.2945,-19.34398 c 0.2015,-0.899 1.6895,-3.76655 5.6575,-3.76655 3.58055,0 3.87498,3.36355 3.87498,5.45605 0,0.496 0,0.7905 0,1.085"
     id="path1153"
     style="stroke-width:0.992" />
  <path
     class="Accidental"
     d="m 1295.4025,122.273 c 0.6045,-0.093 1.1005,-0.79052 1.1005,-1.39505 v -5.84347 c 0,-0.79053 -0.6045,-1.39496 -1.395,-1.39496 -0.093,0 -0.093,0 -0.2015,0 l -3.2705,0.69748 V 99.54995 h -2.7745 v 15.376 l -8.835,1.798 v -13.99643 h -2.7745 V 117.313 l -3.875,0.79052 c -0.589,0.10843 -1.085,0.79043 -1.085,1.39496 v 0.20147 5.75055 -0.2015 c 0,0.7905 0.589,1.395 1.395,1.395 0.093,0 0.186,0 0.2945,0 l 3.2705,-0.6975 v 16.368 l -3.875,0.7905 c -0.589,0.0931 -1.085,0.79052 -1.085,1.39505 v 5.75043 c 0,0.79052 0.589,1.37957 1.395,1.37957 0.093,0 0.186,0 0.2945,0 l 3.2705,-0.682 v 14.77147 h 2.7745 v -15.376 l 8.835,-1.78252 v 13.99652 h 2.7745 v -14.58547 l 3.7665,-0.69757 c 0.6045,-0.10843 1.1005,-0.79043 1.1005,-1.39496 V 140.036 c 0,-0.806 -0.6045,-1.395 -1.395,-1.395 -0.093,0 -0.093,0 -0.2015,0 l -3.2705,0.6975 v -16.368 l 3.7665,-0.6975 m -15.376,3.069 8.835,-1.7825 v 16.368 l -8.835,1.891 V 125.342"
     id="path1155"
     style="stroke-width:0.992" />
  <path
     class="Accidental"
     d="m 628.36805,162.046 c -0.58905,-3.85952 -2.976,-7.533 -8.02905,-7.533 -4.96,0 -7.843,3.06895 -8.339,3.67348 l 0.403,-31.85253 c 0,-0.79043 -0.589,-1.37947 -1.395,-1.37947 h -1.178 c -0.806,0 -1.395,0.58904 -1.395,1.37947 l 0.496,59.62853 c 0,0.79052 0.589,1.37957 1.395,1.37957 0.186,0 0.589,-0.0931 0.7905,-0.186 0.3875,-0.20157 6.8355,-3.37905 12.1985,-9.42405 3.76652,-4.278 5.25452,-9.1295 5.25452,-13.206 0,-0.8835 -0.093,-1.674 -0.20147,-2.48 m -6.83557,3.875 c 0,1.488 -0.40296,6.045 -2.88296,9.827 -1.68952,2.573 -5.05302,5.25448 -6.94402,6.74248 L 612,163.1465 c 0.2015,-0.899 1.6895,-3.76655 5.6575,-3.76655 3.58055,0 3.87498,3.36355 3.87498,5.45605 0,0.496 0,0.7905 0,1.085"
     id="path1157"
     style="stroke-width:0.992" />
  <path
     class="Accidental"
     d="m 1373.103,114.53848 c -0.186,-0.20148 -0.496,-0.29453 -0.7905,-0.29453 -0.093,0 -0.2945,0.0931 -0.3875,0.0931 l -12.5085,3.472 v -17.36 h -2.7745 v 49.104 c 0,0.79052 0.589,1.28652 1.395,1.28652 0.093,0 0.2945,0 0.3875,0 l 12.5085,-3.472 v 17.36 h 2.666 c 0,-16.46104 0,-32.13152 0,-49.104 0,-0.38757 -0.186,-0.88357 -0.496,-1.08504 m -13.6865,27.77602 v -16.275 l 11.5165,-3.2705 v 16.368 l -11.5165,3.1775"
     id="path1159"
     style="stroke-width:0.992" />
  <path
     class="Accidental"
     d="m 2796.305,112.446 c -0.589,-3.85952 -2.976,-7.533 -8.029,-7.533 -4.96,0 -7.843,3.06895 -8.339,3.67348 l 0.403,-31.85253 c 0,-0.790425 -0.589,-1.379475 -1.395,-1.379475 h -1.178 c -0.806,0 -1.395,0.58905 -1.395,1.379475 l 0.496,59.62853 c 0,0.79052 0.589,1.37957 1.395,1.37957 0.186,0 0.589,-0.0931 0.7905,-0.186 0.3875,-0.20157 6.8355,-3.37905 12.1985,-9.42405 3.7665,-4.278 5.2545,-9.1295 5.2545,-13.206 0,-0.8835 -0.093,-1.674 -0.2015,-2.48 m -6.8355,3.875 c 0,1.488 -0.403,6.045 -2.883,9.827 -1.6895,2.573 -5.053,5.25448 -6.944,6.74248 l 0.2945,-19.34398 c 0.2015,-0.899 1.6895,-3.76655 5.6575,-3.76655 3.5805,0 3.875,3.36355 3.875,5.45605 0,0.496 0,0.7905 0,1.085"
     id="path1161"
     style="stroke-width:0.992" />
  <path
     class="Accidental"
     d="m 3150.165,112.446 c -0.589,-3.85952 -2.976,-7.533 -8.029,-7.533 -4.96,0 -7.843,3.06895 -8.339,3.67348 l 0.403,-31.85253 c 0,-0.790425 -0.589,-1.379475 -1.395,-1.379475 h -1.178 c -0.806,0 -1.395,0.58905 -1.395,1.379475 l 0.496,59.62853 c 0,0.79052 0.589,1.37957 1.395,1.37957 0.186,0 0.589,-0.0931 0.7905,-0.186 0.3875,-0.20157 6.8355,-3.37905 12.1985,-9.42405 3.7665,-4.278 5.2545,-9.1295 5.2545,-13.206 0,-0.8835 -0.093,-1.674 -0.2015,-2.48 m -6.8355,3.875 c 0,1.488 -0.403,6.045 -2.883,9.827 -1.6895,2.573 -5.053,5.25448 -6.944,6.74248 l 0.2945,-19.34398 c 0.2015,-0.899 1.6895,-3.76655 5.6575,-3.76655 3.5805,0 3.875,3.36355 3.875,5.45605 0,0.496 0,0.7905 0,1.085"
     id="path1163"
     style="stroke-width:0.992" />
  <path
     class="Accidental"
     d="m 942.42505,162.046 c -0.58905,-3.85952 -2.976,-7.533 -8.02905,-7.533 -4.96,0 -7.843,3.06895 -8.339,3.67348 l 0.403,-31.85253 c 0,-0.79043 -0.589,-1.37947 -1.395,-1.37947 h -1.178 c -0.806,0 -1.395,0.58904 -1.395,1.37947 l 0.496,59.62853 c 0,0.79052 0.589,1.37957 1.395,1.37957 0.186,0 0.589,-0.0931 0.7905,-0.186 0.3875,-0.20157 6.8355,-3.37905 12.1985,-9.42405 3.76652,-4.278 5.25452,-9.1295 5.25452,-13.206 0,-0.8835 -0.093,-1.674 -0.20147,-2.48 m -6.83557,3.875 c 0,1.488 -0.40296,6.045 -2.88296,9.827 -1.68952,2.573 -5.05302,5.25448 -6.94402,6.74248 l 0.2945,-19.34398 c 0.2015,-0.899 1.6895,-3.76655 5.6575,-3.76655 3.58055,0 3.87498,3.36355 3.87498,5.45605 0,0.496 0,0.7905 0,1.085"
     id="path1165"
     style="stroke-width:0.992" />
  <polyline
     class="Stem"
     fill="none"
     stroke="#000000"
     stroke-width="2.48"
     stroke-linejoin="bevel"
     points="3364.95,692.23 3364.95,615.598"
     id="polyline1167"
     transform="translate(-336.598,-551.109)" />
  <polyline
     class="Stem"
     fill="none"
     stroke="#000000"
     stroke-width="2.48"
     stroke-linejoin="bevel"
     points="3414.81,687.965 3414.81,758.198"
     id="polyline1169"
     transform="translate(-336.598,-551.109)" />
  <polyline
     class="Stem"
     fill="none"
     stroke="#000000"
     stroke-width="2.48"
     stroke-linejoin="bevel"
     points="3494.4,675.565 3494.4,751.998"
     id="polyline1171"
     transform="translate(-336.598,-551.109)" />
  <polyline
     class="Stem"
     fill="none"
     stroke="#000000"
     stroke-width="2.48"
     stroke-linejoin="bevel"
     points="3721.31,692.23 3721.31,615.598"
     id="polyline1173"
     transform="translate(-336.598,-551.109)" />
  <polyline
     class="Stem"
     fill="none"
     stroke="#000000"
     stroke-width="2.48"
     stroke-linejoin="bevel"
     points="568.897,692.23 568.897,615.598"
     id="polyline1175"
     transform="translate(-336.598,-551.109)" />
  <polyline
     class="Stem"
     fill="none"
     stroke="#000000"
     stroke-width="2.48"
     stroke-linejoin="bevel"
     points="3800.91,704.63 3800.91,621.798"
     id="polyline1177"
     transform="translate(-336.598,-551.109)" />
  <polyline
     class="Stem"
     fill="none"
     stroke="#000000"
     stroke-width="2.48"
     stroke-linejoin="bevel"
     points="648.495,717.03 648.495,634.198"
     id="polyline1179"
     transform="translate(-336.598,-551.109)" />
  <polyline
     class="Stem"
     fill="none"
     stroke="#000000"
     stroke-width="2.48"
     stroke-linejoin="bevel"
     points="3880.51,692.23 3880.51,615.598"
     id="polyline1181"
     transform="translate(-336.598,-551.109)" />
  <polyline
     class="Stem"
     fill="none"
     stroke="#000000"
     stroke-width="2.48"
     stroke-linejoin="bevel"
     points="728.093,704.63 728.093,621.798"
     id="polyline1183"
     transform="translate(-336.598,-551.109)" />
  <polyline
     class="Stem"
     fill="none"
     stroke="#000000"
     stroke-width="2.48"
     stroke-linejoin="bevel"
     points="1236.81,692.23 1236.81,615.598"
     id="polyline1185"
     transform="translate(-336.598,-551.109)" />
  <polyline
     class="Stem"
     fill="none"
     stroke="#000000"
     stroke-width="2.48"
     stroke-linejoin="bevel"
     points="807.691,692.23 807.691,615.598"
     id="polyline1187"
     transform="translate(-336.598,-551.109)" />
  <polyline
     class="Stem"
     fill="none"
     stroke="#000000"
     stroke-width="2.48"
     stroke-linejoin="bevel"
     points="922.754,692.23 922.754,615.598"
     id="polyline1189"
     transform="translate(-336.598,-551.109)" />
  <polyline
     class="Stem"
     fill="none"
     stroke="#000000"
     stroke-width="2.48"
     stroke-linejoin="bevel"
     points="1002.35,717.03 1002.35,634.198"
     id="polyline1191"
     transform="translate(-336.598,-551.109)" />
  <polyline
     class="Stem"
     fill="none"
     stroke="#000000"
     stroke-width="2.48"
     stroke-linejoin="bevel"
     points="1081.95,704.63 1081.95,621.798"
     id="polyline1193"
     transform="translate(-336.598,-551.109)" />
  <polyline
     class="Stem"
     fill="none"
     stroke="#000000"
     stroke-width="2.48"
     stroke-linejoin="bevel"
     points="1316.41,717.03 1316.41,634.198"
     id="polyline1195"
     transform="translate(-336.598,-551.109)" />
  <polyline
     class="Stem"
     fill="none"
     stroke="#000000"
     stroke-width="2.48"
     stroke-linejoin="bevel"
     points="1396.01,704.63 1396.01,621.798"
     id="polyline1197"
     transform="translate(-336.598,-551.109)" />
  <polyline
     class="Stem"
     fill="none"
     stroke="#000000"
     stroke-width="2.48"
     stroke-linejoin="bevel"
     points="1475.61,692.23 1475.61,615.598"
     id="polyline1199"
     transform="translate(-336.598,-551.109)" />
  <polyline
     class="Stem"
     fill="none"
     stroke="#000000"
     stroke-width="2.48"
     stroke-linejoin="bevel"
     points="1590.67,692.23 1590.67,615.598"
     id="polyline1201"
     transform="translate(-336.598,-551.109)" />
  <polyline
     class="Stem"
     fill="none"
     stroke="#000000"
     stroke-width="2.48"
     stroke-linejoin="bevel"
     points="1640.52,687.965 1640.52,758.198"
     id="polyline1203"
     transform="translate(-336.598,-551.109)" />
  <polyline
     class="Stem"
     fill="none"
     stroke="#000000"
     stroke-width="2.48"
     stroke-linejoin="bevel"
     points="1720.12,687.965 1720.12,758.198"
     id="polyline1205"
     transform="translate(-336.598,-551.109)" />
  <polyline
     class="Stem"
     fill="none"
     stroke="#000000"
     stroke-width="2.48"
     stroke-linejoin="bevel"
     points="1799.72,687.965 1799.72,758.198"
     id="polyline1207"
     transform="translate(-336.598,-551.109)" />
  <polyline
     class="Stem"
     fill="none"
     stroke="#000000"
     stroke-width="2.48"
     stroke-linejoin="bevel"
     points="1986.82,692.23 1986.82,615.598"
     id="polyline1209"
     transform="translate(-336.598,-551.109)" />
  <polyline
     class="Stem"
     fill="none"
     stroke="#000000"
     stroke-width="2.48"
     stroke-linejoin="bevel"
     points="2066.42,704.63 2066.42,621.798"
     id="polyline1211"
     transform="translate(-336.598,-551.109)" />
  <polyline
     class="Stem"
     fill="none"
     stroke="#000000"
     stroke-width="2.48"
     stroke-linejoin="bevel"
     points="2146.02,692.23 2146.02,615.598"
     id="polyline1213"
     transform="translate(-336.598,-551.109)" />
  <polyline
     class="Stem"
     fill="none"
     stroke="#000000"
     stroke-width="2.48"
     stroke-linejoin="bevel"
     points="2313.44,650.765 2313.44,733.398"
     id="polyline1215"
     transform="translate(-336.598,-551.109)" />
  <polyline
     class="Stem"
     fill="none"
     stroke="#000000"
     stroke-width="2.48"
     stroke-linejoin="bevel"
     points="2393.03,663.165 2393.03,745.798"
     id="polyline1217"
     transform="translate(-336.598,-551.109)" />
  <polyline
     class="Stem"
     fill="none"
     stroke="#000000"
     stroke-width="2.48"
     stroke-linejoin="bevel"
     points="2472.63,675.565 2472.63,751.998"
     id="polyline1219"
     transform="translate(-336.598,-551.109)" />
  <polyline
     class="Stem"
     fill="none"
     stroke="#000000"
     stroke-width="2.48"
     stroke-linejoin="bevel"
     points="2552.23,687.965 2552.23,758.198"
     id="polyline1221"
     transform="translate(-336.598,-551.109)" />
  <polyline
     class="Stem"
     fill="none"
     stroke="#000000"
     stroke-width="2.48"
     stroke-linejoin="bevel"
     points="2697.04,692.23 2697.04,615.598"
     id="polyline1223"
     transform="translate(-336.598,-551.109)" />
  <polyline
     class="Stem"
     fill="none"
     stroke="#000000"
     stroke-width="2.48"
     stroke-linejoin="bevel"
     points="2746.89,687.965 2746.89,758.198"
     id="polyline1225"
     transform="translate(-336.598,-551.109)" />
  <polyline
     class="Stem"
     fill="none"
     stroke="#000000"
     stroke-width="2.48"
     stroke-linejoin="bevel"
     points="2826.49,675.565 2826.49,751.998"
     id="polyline1227"
     transform="translate(-336.598,-551.109)" />
  <polyline
     class="Stem"
     fill="none"
     stroke="#000000"
     stroke-width="2.48"
     stroke-linejoin="bevel"
     points="3011.1,692.23 3011.1,615.598"
     id="polyline1229"
     transform="translate(-336.598,-551.109)" />
  <polyline
     class="Stem"
     fill="none"
     stroke="#000000"
     stroke-width="2.48"
     stroke-linejoin="bevel"
     points="3060.95,687.965 3060.95,758.198"
     id="polyline1231"
     transform="translate(-336.598,-551.109)" />
  <polyline
     class="Stem"
     fill="none"
     stroke="#000000"
     stroke-width="2.48"
     stroke-linejoin="bevel"
     points="3140.55,675.565 3140.55,751.998"
     id="polyline1233"
     transform="translate(-336.598,-551.109)" />
  <polyline
     class="Stem"
     fill="none"
     stroke="#000000"
     stroke-width="2.48"
     stroke-linejoin="bevel"
     points="3220.15,687.965 3220.15,758.198"
     id="polyline1235"
     transform="translate(-336.598,-551.109)" />
  <path
     class="Note"
     d="m 280.913,174.0585 c 0,4.2625 3.069,9.02102 11.11348,9.02102 10.30757,0 21.12652,-8.43202 21.12652,-17.15852 0,-5.859 -4.96,-9.12948 -11.11348,-9.12948 -9.62547,0 -21.12652,8.13748 -21.12652,17.26698"
     id="path1237"
     style="stroke-width:0.992" />
  <path
     class="Note"
     d="m 3433.322,161.6585 c 0,4.2625 3.069,9.02102 11.1135,9.02102 10.3075,0 21.1265,-8.43202 21.1265,-17.15852 0,-5.859 -4.96,-9.12948 -11.1135,-9.12948 -9.6255,0 -21.1265,8.13748 -21.1265,17.26698"
     id="path1239"
     style="stroke-width:0.992" />
  <path
     class="Note"
     d="m 1698.842,161.6585 c 0,4.2625 3.069,9.02102 11.1135,9.02102 10.3075,0 21.1265,-8.43202 21.1265,-17.15852 0,-5.859 -4.96,-9.12948 -11.1135,-9.12948 -9.6255,0 -21.1265,8.13748 -21.1265,17.26698"
     id="path1241"
     style="stroke-width:0.992" />
  <path
     class="Note"
     d="m 3534.0485,131.99152 c -9.6255,0 -21.1265,8.04448 -21.1265,17.26698 0,4.2625 3.069,9.02102 11.1135,9.02102 10.3075,0 21.1265,-8.43202 21.1265,-17.15852 0,-5.859 -4.96,-9.12948 -11.1135,-9.12948 M 3531.367,149.46 c -0.2945,0.186 -7.533,4.154 -11.005,4.154 -3.2705,0 -3.968,-2.666 -3.968,-3.565 0,-4.1695 9.92,-9.021 10.323,-9.2225 0.3875,-0.2015 7.44,-4.1695 11.005,-4.1695 2.387,0 3.968,1.395 3.968,3.565 0,4.278 -10.013,9.0365 -10.323,9.238"
     id="path1243"
     style="stroke-width:0.992" />
  <path
     class="Note"
     d="m 201.314,149.2585 c 0,4.2625 3.069,9.02102 11.11348,9.02102 10.30757,0 21.12652,-8.43202 21.12652,-17.15852 0,-5.859 -4.96,-9.12948 -11.11348,-9.12948 -9.62547,0 -21.12652,8.13748 -21.12652,17.26698"
     id="path1245"
     style="stroke-width:0.992" />
  <path
     class="Note"
     d="m 1108.022,149.2585 c 0,4.2625 3.069,9.02102 11.1135,9.02102 10.3075,0 21.1265,-8.43202 21.1265,-17.15852 0,-5.859 -4.96,-9.12948 -11.1135,-9.12948 -9.6255,0 -21.1265,8.13748 -21.1265,17.26698"
     id="path1247"
     style="stroke-width:0.992" />
  <path
     class="Note"
     d="m 2409.052,136.8585 c 0,4.2625 3.069,9.02102 11.1135,9.02102 10.3075,0 21.1265,-8.43202 21.1265,-17.15852 0,-5.859 -4.96,-9.12948 -11.1135,-9.12948 -9.6255,0 -21.1265,8.13748 -21.1265,17.26698"
     id="path1249"
     style="stroke-width:0.992" />
  <path
     class="Note"
     d="m 2055.192,112.0585 c 0,4.2625 3.069,9.02102 11.1135,9.02102 10.3075,0 21.1265,-8.43202 21.1265,-17.15852 0,-5.859 -4.96,-9.129475 -11.1135,-9.129475 -9.6255,0 -21.1265,8.137475 -21.1265,17.266975"
     id="path1251"
     style="stroke-width:0.992" />
  <path
     class="Note"
     d="m 2509.7785,107.19152 c -9.6255,0 -21.1265,8.04448 -21.1265,17.26698 0,4.2625 3.069,9.02102 11.1135,9.02102 10.3075,0 21.1265,-8.43202 21.1265,-17.15852 0,-5.859 -4.96,-9.12948 -11.1135,-9.12948 M 2507.097,124.66 c -0.2945,0.186 -7.533,4.154 -11.005,4.154 -3.2705,0 -3.968,-2.666 -3.968,-3.565 0,-4.1695 9.92,-9.021 10.323,-9.2225 0.3875,-0.2015 7.44,-4.1695 11.005,-4.1695 2.387,0 3.968,1.395 3.968,3.565 0,4.278 -10.013,9.0365 -10.323,9.238"
     id="path1253"
     style="stroke-width:0.992" />
  <path
     class="Note"
     d="m 1223.082,149.2585 c 0,4.2625 3.069,9.02102 11.1135,9.02102 10.3075,0 21.1265,-8.43202 21.1265,-17.15852 0,-5.859 -4.96,-9.12948 -11.1135,-9.12948 -9.6255,0 -21.1265,8.13748 -21.1265,17.26698"
     id="path1255"
     style="stroke-width:0.992" />
  <path
     class="Note"
     d="m 440.109,149.2585 c 0,4.2625 3.069,9.02102 11.11348,9.02102 10.30757,0 21.12652,-8.43202 21.12652,-17.15852 0,-5.859 -4.96,-9.12948 -11.11348,-9.12948 -9.62547,0 -21.12652,8.13748 -21.12652,17.26698"
     id="path1257"
     style="stroke-width:0.992" />
  <path
     class="Note"
     d="m 1028.422,161.6585 c 0,4.2625 3.069,9.02102 11.1135,9.02102 10.3075,0 21.1265,-8.43202 21.1265,-17.15852 0,-5.859 -4.96,-9.12948 -11.1135,-9.12948 -9.6255,0 -21.1265,8.13748 -21.1265,17.26698"
     id="path1259"
     style="stroke-width:0.992" />
  <path
     class="Note"
     d="m 1619.242,149.2585 c 0,4.2625 3.069,9.02102 11.1135,9.02102 10.3075,0 21.1265,-8.43202 21.1265,-17.15852 0,-5.859 -4.96,-9.12948 -11.1135,-9.12948 -9.6255,0 -21.1265,8.13748 -21.1265,17.26698"
     id="path1261"
     style="stroke-width:0.992" />
  <path
     class="Note"
     d="m 2643.512,149.2585 c 0,4.2625 3.069,9.02102 11.1135,9.02102 10.3075,0 21.1265,-8.43202 21.1265,-17.15852 0,-5.859 -4.96,-9.12948 -11.1135,-9.12948 -9.6255,0 -21.1265,8.13748 -21.1265,17.26698"
     id="path1263"
     style="stroke-width:0.992" />
  <path
     class="Note"
     d="m 2134.792,124.4585 c 0,4.2625 3.069,9.02102 11.1135,9.02102 10.3075,0 21.1265,-8.43202 21.1265,-17.15852 0,-5.859 -4.96,-9.12948 -11.1135,-9.12948 -9.6255,0 -21.1265,8.13748 -21.1265,17.26698"
     id="path1265"
     style="stroke-width:0.992" />
  <path
     class="Note"
     d="m 948.822,174.0585 c 0,4.2625 3.069,9.02102 11.11348,9.02102 10.30757,0 21.12652,-8.43202 21.12652,-17.15852 0,-5.859 -4.96,-9.12948 -11.11348,-9.12948 -9.62547,0 -21.12652,8.13748 -21.12652,17.26698"
     id="path1267"
     style="stroke-width:0.992" />
  <path
     class="Note"
     d="m 1461.882,136.8585 c 0,4.2625 3.069,9.02102 11.1135,9.02102 10.3075,0 21.1265,-8.43202 21.1265,-17.15852 0,-5.859 -4.96,-9.12948 -11.1135,-9.12948 -9.6255,0 -21.1265,8.13748 -21.1265,17.26698"
     id="path1269"
     style="stroke-width:0.992" />
  <path
     class="Note"
     d="m 2802.712,124.4585 c 0,4.2625 3.069,9.02102 11.1135,9.02102 10.3075,0 21.1265,-8.43202 21.1265,-17.15852 0,-5.859 -4.96,-9.12948 -11.1135,-9.12948 -9.6255,0 -21.1265,8.13748 -21.1265,17.26698"
     id="path1271"
     style="stroke-width:0.992" />
  <path
     class="Note"
     d="m 869.232,149.2585 c 0,4.2625 3.069,9.02102 11.11348,9.02102 10.30757,0 21.12652,-8.43202 21.12652,-17.15852 0,-5.859 -4.96,-9.12948 -11.11348,-9.12948 -9.62547,0 -21.12652,8.13748 -21.12652,17.26698"
     id="path1273"
     style="stroke-width:0.992" />
  <path
     class="Note"
     d="m 1799.5685,131.99152 c -9.6255,0 -21.1265,8.04448 -21.1265,17.26698 0,4.2625 3.069,9.02102 11.1135,9.02102 10.3075,0 21.1265,-8.43202 21.1265,-17.15852 0,-5.859 -4.96,-9.12948 -11.1135,-9.12948 M 1796.887,149.46 c -0.2945,0.186 -7.533,4.154 -11.005,4.154 -3.2705,0 -3.968,-2.666 -3.968,-3.565 0,-4.1695 9.92,-9.021 10.323,-9.2225 0.3875,-0.2015 7.44,-4.1695 11.005,-4.1695 2.387,0 3.968,1.395 3.968,3.565 0,4.278 -10.013,9.0365 -10.323,9.238"
     id="path1275"
     style="stroke-width:0.992" />
  <path
     class="Note"
     d="m 2882.312,136.8585 c 0,4.2625 3.069,9.02102 11.1135,9.02102 10.3075,0 21.1265,-8.43202 21.1265,-17.15852 0,-5.859 -4.96,-9.12948 -11.1135,-9.12948 -9.6255,0 -21.1265,8.13748 -21.1265,17.26698"
     id="path1277"
     style="stroke-width:0.992" />
  <path
     class="Note"
     d="m 360.511,161.6585 c 0,4.2625 3.069,9.02102 11.11348,9.02102 10.30757,0 21.12652,-8.43202 21.12652,-17.15852 0,-5.859 -4.96,-9.12948 -11.11348,-9.12948 -9.62547,0 -21.12652,8.13748 -21.12652,17.26698"
     id="path1279"
     style="stroke-width:0.992" />
  <path
     class="Note"
     d="m 735.49852,144.39152 c -9.62547,0 -21.12652,8.04448 -21.12652,17.26698 0,4.2625 3.069,9.02102 11.11348,9.02102 10.30757,0 21.12652,-8.43202 21.12652,-17.15852 0,-5.859 -4.96,-9.12948 -11.11348,-9.12948 M 732.81705,161.86 c -0.29453,0.186 -7.53305,4.154 -11.00505,4.154 -3.2705,0 -3.968,-2.666 -3.968,-3.565 0,-4.1695 9.92,-9.021 10.32305,-9.2225 0.38747,-0.2015 7.44,-4.1695 11.00495,-4.1695 2.38705,0 3.968,1.395 3.968,3.565 0,4.278 -10.01295,9.0365 -10.32295,9.238"
     id="path1281"
     style="stroke-width:0.992" />
  <path
     class="Note"
     d="m 2214.392,136.8585 c 0,4.2625 3.069,9.02102 11.1135,9.02102 10.3075,0 21.1265,-8.43202 21.1265,-17.15852 0,-5.859 -4.96,-9.12948 -11.1135,-9.12948 -9.6255,0 -21.1265,8.13748 -21.1265,17.26698"
     id="path1283"
     style="stroke-width:0.992" />
  <path
     class="Note"
     d="m 2997.372,149.2585 c 0,4.2625 3.069,9.02102 11.1135,9.02102 10.3075,0 21.1265,-8.43202 21.1265,-17.15852 0,-5.859 -4.96,-9.12948 -11.1135,-9.12948 -9.6255,0 -21.1265,8.13748 -21.1265,17.26698"
     id="path1285"
     style="stroke-width:0.992" />
  <path
     class="Note"
     d="m 1382.282,136.8585 c 0,4.2625 3.069,9.02102 11.1135,9.02102 10.3075,0 21.1265,-8.43202 21.1265,-17.15852 0,-5.859 -4.96,-9.12948 -11.1135,-9.12948 -9.6255,0 -21.1265,8.13748 -21.1265,17.26698"
     id="path1287"
     style="stroke-width:0.992" />
  <path
     class="Note"
     d="m 3076.972,136.8585 c 0,4.2625 3.069,9.02102 11.1135,9.02102 10.3075,0 21.1265,-8.43202 21.1265,-17.15852 0,-5.859 -4.96,-9.12948 -11.1135,-9.12948 -9.6255,0 -21.1265,8.13748 -21.1265,17.26698"
     id="path1289"
     style="stroke-width:0.992" />
  <path
     class="Note"
     d="m 1302.682,136.8585 c 0,4.2625 3.069,9.02102 11.1135,9.02102 10.3075,0 21.1265,-8.43202 21.1265,-17.15852 0,-5.859 -4.96,-9.12948 -11.1135,-9.12948 -9.6255,0 -21.1265,8.13748 -21.1265,17.26698"
     id="path1291"
     style="stroke-width:0.992" />
  <path
     class="Note"
     d="m 3177.6885,107.19152 c -9.6255,0 -21.1265,8.04448 -21.1265,17.26698 0,4.2625 3.069,9.02102 11.1135,9.02102 10.3075,0 21.1265,-8.43202 21.1265,-17.15852 0,-5.859 -4.96,-9.12948 -11.1135,-9.12948 M 3175.007,124.66 c -0.2945,0.186 -7.533,4.154 -11.005,4.154 -3.2705,0 -3.968,-2.666 -3.968,-3.565 0,-4.1695 9.92,-9.021 10.323,-9.2225 0.3875,-0.2015 7.44,-4.1695 11.005,-4.1695 2.387,0 3.968,1.395 3.968,3.565 0,4.278 -10.013,9.0365 -10.323,9.238"
     id="path1293"
     style="stroke-width:0.992" />
  <path
     class="Note"
     d="m 2723.112,136.8585 c 0,4.2625 3.069,9.02102 11.1135,9.02102 10.3075,0 21.1265,-8.43202 21.1265,-17.15852 0,-5.859 -4.96,-9.12948 -11.1135,-9.12948 -9.6255,0 -21.1265,8.13748 -21.1265,17.26698"
     id="path1295"
     style="stroke-width:0.992" />
  <path
     class="Note"
     d="m 634.769,174.0585 c 0,4.2625 3.069,9.02102 11.11348,9.02102 10.30757,0 21.12652,-8.43202 21.12652,-17.15852 0,-5.859 -4.96,-9.12948 -11.11348,-9.12948 -9.62547,0 -21.12652,8.13748 -21.12652,17.26698"
     id="path1297"
     style="stroke-width:0.992" />
  <path
     class="Note"
     d="m 555.171,149.2585 c 0,4.2625 3.069,9.02102 11.11348,9.02102 10.30757,0 21.12652,-8.43202 21.12652,-17.15852 0,-5.859 -4.96,-9.12948 -11.11348,-9.12948 -9.62547,0 -21.12652,8.13748 -21.12652,17.26698"
     id="path1299"
     style="stroke-width:0.992" />
  <path
     class="Note"
     d="m 1975.602,99.658505 c 0,4.262495 3.069,9.021015 11.1135,9.021015 10.3075,0 21.1265,-8.43202 21.1265,-17.15852 0,-5.859 -4.96,-9.129475 -11.1135,-9.129475 -9.6255,0 -21.1265,8.137475 -21.1265,17.26698"
     id="path1301"
     style="stroke-width:0.992" />
  <path
     class="Note"
     d="m 3353.722,149.2585 c 0,4.2625 3.069,9.02102 11.1135,9.02102 10.3075,0 21.1265,-8.43202 21.1265,-17.15852 0,-5.859 -4.96,-9.12948 -11.1135,-9.12948 -9.6255,0 -21.1265,8.13748 -21.1265,17.26698"
     id="path1303"
     style="stroke-width:0.992" />
  <path
     class="Note"
     d="m 2329.452,149.2585 c 0,4.2625 3.069,9.02102 11.1135,9.02102 10.3075,0 21.1265,-8.43202 21.1265,-17.15852 0,-5.859 -4.96,-9.12948 -11.1135,-9.12948 -9.6255,0 -21.1265,8.13748 -21.1265,17.26698"
     id="path1305"
     style="stroke-width:0.992" />
  <path
     class="Clef"
     d="m 43.80305,82.99595 c -7.548525,0 -13.593575,4.355575 -13.702,4.355575 -5.750545,4.262425 -8.02905,9.33095 -8.92805,12.802975 -0.496,1.7825 -0.682,3.565 -0.682,5.2545 0,2.387 0.387505,4.557 1.286505,6.448 1.193495,2.6815 3.472,4.557 6.448,5.549 1.193545,0.403 2.47997,0.60448 3.766495,0.60448 2.185475,0 4.464,-0.60448 6.35505,-1.68948 3.06895,-1.6895 4.96,-5.2545 4.96,-9.1295 0,-3.472 -1.798,-6.6495 -4.774,-8.525005 C 36.456,97.271525 34.472,96.88395 32.782525,96.88395 c -1.193475,0 -2.278525,0.186 -3.177475,0.496 -0.992,0.387575 -2.66605,1.379545 -3.47205,2.07705 0.31,-1.89105 1.488,-4.758525 2.588475,-6.35505 1.08505,-1.58095 3.270525,-3.56495 4.96,-4.464 2.48,-1.379475 5.657575,-1.984 9.129575,-1.984 10.121475,0 15.081475,8.137575 15.081475,24.80005 0,9.23805 -3.472,18.05752 -6.448,23.91648 -3.286,6.54104 -7.641475,12.80304 -11.516525,16.27504 -10.32295,9.424 -20.041495,13.888 -20.134495,13.888 0,0 -1.193505,0.682 -1.193505,1.87548 0,0.20148 0.093,0.29452 0.093,0.496 0.31,0.992 1.193505,1.19348 1.798,1.19348 0.093,0 0.387505,-0.093 0.496,-0.093 0.093,0 11.40805,-4.66547 20.429,-11.718 5.068525,-3.658 9.625475,-7.626 13.593475,-11.904 3.56505,-3.85947 6.649575,-8.02904 9.129575,-12.19852 4.355475,-7.44 6.835475,-15.17452 6.835475,-21.824 0,-8.2305 -2.17,-15.081475 -6.246525,-19.93305 -4.665475,-5.564425 -11.702525,-8.432 -20.92495,-8.432 m 31.139475,12.586 c 0,2.79005 2.185475,4.96005 4.774,4.96005 2.57295,0 4.758525,-2.17 4.758525,-4.96005 0,-2.774425 -2.185575,-5.05295 -4.758525,-5.05295 -2.588525,0 -4.774,2.278525 -4.774,5.05295 m 0,24.50557 c 0,2.77453 2.185475,5.06853 4.774,5.06853 2.57295,0 4.758525,-2.294 4.758525,-5.06853 0,-2.77452 -2.185575,-5.05302 -4.758525,-5.05302 -2.588525,0 -4.774,2.2785 -4.774,5.05302"
     id="path1307"
     style="stroke-width:0.992" />
  <path
     class="TimeSig"
     d="m 128.51052,120.49048 v 7.33157 H 120.28 c -0.69748,0 -1.39495,0.60443 -1.39495,1.39495 v 1.89105 c 0,0.79043 0.69747,1.37947 1.39495,1.37947 h 30.05452 c 0.806,0 1.39496,-0.58904 1.39496,-1.37947 V 129.217 c 0,-0.79052 -0.58896,-1.39495 -1.39496,-1.39495 h -8.928 v -7.33157 h 8.928 c 0.806,0 1.39496,-0.69748 1.39496,-1.488 v -1.89098 c 0,-0.6975 -0.58896,-1.3795 -1.39496,-1.3795 h -8.928 V 99.953 c 0,-0.589 -0.29452,-1.085 -0.682,-1.286505 L 139.53105,98.062 c -0.20157,-0.093 -0.29453,-0.093 -0.496,-0.093 -0.10853,0 -0.10853,0 -0.20157,0 -0.29443,0 -0.69748,0.093 -0.89896,0.294495 l -9.02104,8.230505 c -0.29443,0.31 -0.40296,0.6975 -0.40296,1.1005 v 8.1375 H 117.0095 c 0,0 11.11355,-11.904 22.81598,-27.59005 0.40304,-0.496 0.496,-0.992 0.496,-1.379475 0,-0.496 -0.20148,-0.89895 -0.29443,-0.992 L 137.84148,83.585 c -0.29443,-0.201475 -0.58896,-0.40305 -0.992,-0.40305 -0.58896,0 -13.99643,0 -14.78696,0 -0.69747,0 -1.19347,0.604525 -1.28652,1.193575 0,0 -0.496,7.34695 -3.069,15.37597 -2.5885,8.044505 -5.5645,13.004505 -8.1375,16.662505 0,0 -0.2945,0.496 -0.2945,1.1005 0,0.2015 0,0.38755 0.093,0.58902 0.2945,0.69748 0.992,1.78253 0.992,1.78253 0,0 0.2015,0.60443 1.085,0.60443 h 17.06552"
     id="path1309"
     style="stroke-width:0.992" />
  <path
     class="TimeSig"
     d="m 128.51052,170.09048 v 7.33157 H 120.28 c -0.69748,0 -1.39495,0.60443 -1.39495,1.39495 v 1.89105 c 0,0.79043 0.69747,1.37947 1.39495,1.37947 h 30.05452 c 0.806,0 1.39496,-0.58904 1.39496,-1.37947 V 178.817 c 0,-0.79052 -0.58896,-1.39495 -1.39496,-1.39495 h -8.928 v -7.33157 h 8.928 c 0.806,0 1.39496,-0.69748 1.39496,-1.488 v -1.89098 c 0,-0.6975 -0.58896,-1.3795 -1.39496,-1.3795 h -8.928 v -15.779 c 0,-0.589 -0.29452,-1.085 -0.682,-1.2865 l -1.19347,-0.6045 c -0.20157,-0.093 -0.29453,-0.093 -0.496,-0.093 -0.10853,0 -0.10853,0 -0.20157,0 -0.29443,0 -0.69748,0.093 -0.89896,0.2945 l -9.02104,8.2305 c -0.29443,0.31 -0.40296,0.6975 -0.40296,1.1005 v 8.1375 H 117.0095 c 0,0 11.11355,-11.904 22.81598,-27.59005 0.40304,-0.496 0.496,-0.992 0.496,-1.37947 0,-0.496 -0.20148,-0.89896 -0.29443,-0.992 l -2.18557,-2.18548 c -0.29443,-0.20148 -0.58896,-0.40305 -0.992,-0.40305 -0.58896,0 -13.99643,0 -14.78696,0 -0.69747,0 -1.19347,0.60453 -1.28652,1.19357 0,0 -0.496,7.34696 -3.069,15.37598 -2.5885,8.0445 -5.5645,13.0045 -8.1375,16.6625 0,0 -0.2945,0.496 -0.2945,1.1005 0,0.2015 0,0.38755 0.093,0.58902 0.2945,0.69748 0.992,1.78253 0.992,1.78253 0,0 0.2015,0.60443 1.085,0.60443 h 17.06552"
     id="path1311"
     style="stroke-width:0.992" />
  <path
     class="VoltaSegment"
     d="m 1222.012,16.988 h -1.93 c -3.46,2.594 -7.37,3.687 -13.92,3.797 v 3.078 h 2.31 c 4.9,0 4.96,0.109 4.9,4.625 v 19.516 c 0,3.406 0,3.578 -0.38,4.125 -0.5,0.609 -1.61,0.828 -4.58,0.828 h -1.75 v 2.968 h 21.94 v -2.968 h -1.77 c -2.9,0 -3.95,-0.219 -4.45,-0.828 -0.37,-0.547 -0.37,-0.766 -0.37,-4.125 V 16.988 m 19.23,29.422 c -2.86,0 -5.17,2.312 -5.17,5.172 0,2.797 2.31,5.172 5.12,5.172 2.91,0 5.22,-2.313 5.22,-5.172 0,-2.86 -2.31,-5.172 -5.17,-5.172"
     id="path1313" />
  <polyline
     class="VoltaSegment"
     fill="none"
     stroke="#000000"
     stroke-width="2.73"
     stroke-linejoin="miter"
     stroke-miterlimit="2"
     points="1527.32,607.034 1527.32,552.474 1898.92,552.474 1898.92,607.034"
     id="polyline1315"
     transform="translate(-336.598,-551.109)" />
  <path
     class="VoltaSegment"
     d="m 1626.992,41.3 -0.61,2.75 c -0.5,2.204 -0.83,2.907 -1.27,3.188 -0.54,0.391 -0.65,0.391 -4.12,0.437 h -10.61 c 1.92,-1.656 3.36,-2.687 5.5,-4.125 7.75,-5 9.34,-6.218 10.94,-8.25 1.87,-2.468 2.97,-5.39 2.97,-7.968 0,-5.891 -5.77,-10.344 -13.52,-10.344 -7.48,0 -13.26,4.844 -13.26,11.109 0,3.844 2.15,6.328 5.45,6.328 2.86,0 4.67,-1.812 4.67,-4.671 0,-2.375 -1.05,-3.75 -3.58,-4.954 -0.61,-0.281 -0.87,-0.609 -0.87,-1.046 0,-1.766 2.97,-3.625 5.72,-3.625 3.84,0 6.04,2.359 6.04,6.437 0,4.563 -1.76,7.797 -7.59,14.016 -6.16,6.547 -8.3,9.015 -11.05,12.984 v 2.578 c 1.42,-0.156 2.03,-0.219 2.86,-0.219 h 20.67 c 1.05,0 1.71,0.063 3.36,0.219 l 1.27,-14.844 h -2.97 m 13.41,5.11 c -2.86,0 -5.18,2.312 -5.18,5.172 0,2.797 2.32,5.172 5.13,5.172 2.91,0 5.22,-2.313 5.22,-5.172 0,-2.86 -2.31,-5.172 -5.17,-5.172"
     id="path1317" />
  <polyline
     class="VoltaSegment"
     fill="none"
     stroke="#000000"
     stroke-width="2.73"
     stroke-linejoin="miter"
     stroke-miterlimit="2"
     points="1923.48,607.034 1923.48,552.474 2235.8,552.474"
     id="polyline1319"
     transform="translate(-336.598,-551.109)" />
  <path
     class="VoltaSegment"
     d="m 2996.292,16.988 h -1.92 c -3.47,2.594 -7.38,3.687 -13.92,3.797 v 3.078 h 2.31 c 4.89,0 4.95,0.109 4.89,4.625 v 19.516 c 0,3.406 0,3.578 -0.38,4.125 -0.5,0.609 -1.61,0.828 -4.57,0.828 h -1.75 v 2.968 h 21.93 v -2.968 h -1.76 c -2.91,0 -3.96,-0.219 -4.46,-0.828 -0.37,-0.547 -0.37,-0.766 -0.37,-4.125 V 16.988 m 19.23,29.422 c -2.86,0 -5.17,2.312 -5.17,5.172 0,2.797 2.31,5.172 5.13,5.172 2.9,0 5.22,-2.313 5.22,-5.172 0,-2.86 -2.32,-5.172 -5.18,-5.172"
     id="path1321" />
  <polyline
     class="VoltaSegment"
     fill="none"
     stroke="#000000"
     stroke-width="2.73"
     stroke-linejoin="miter"
     stroke-miterlimit="2"
     points="3301.6,607.034 3301.6,552.474 3633.41,552.474 3633.41,607.034"
     id="polyline1323"
     transform="translate(-336.598,-551.109)" />
  <path
     class="VoltaSegment"
     d="m 3361.482,41.3 -0.61,2.75 c -0.5,2.204 -0.83,2.907 -1.27,3.188 -0.55,0.391 -0.66,0.391 -4.12,0.437 h -10.61 c 1.92,-1.656 3.36,-2.687 5.5,-4.125 7.75,-5 9.34,-6.218 10.93,-8.25 1.88,-2.468 2.97,-5.39 2.97,-7.968 0,-5.891 -5.76,-10.344 -13.51,-10.344 -7.49,0 -13.27,4.844 -13.27,11.109 0,3.844 2.16,6.328 5.45,6.328 2.86,0 4.68,-1.812 4.68,-4.671 0,-2.375 -1.05,-3.75 -3.58,-4.954 -0.61,-0.281 -0.88,-0.609 -0.88,-1.046 0,-1.766 2.97,-3.625 5.72,-3.625 3.85,0 6.05,2.359 6.05,6.437 0,4.563 -1.77,7.797 -7.6,14.016 -6.15,6.547 -8.29,9.015 -11.04,12.984 v 2.578 c 1.42,-0.156 2.03,-0.219 2.86,-0.219 h 20.67 c 1.05,0 1.7,0.063 3.36,0.219 l 1.26,-14.844 h -2.96 m 13.4,5.11 c -2.86,0 -5.17,2.312 -5.17,5.172 0,2.797 2.31,5.172 5.12,5.172 2.91,0 5.22,-2.313 5.22,-5.172 0,-2.86 -2.31,-5.172 -5.17,-5.172"
     id="path1325" />
  <polyline
     class="VoltaSegment"
     fill="none"
     stroke="#000000"
     stroke-width="2.73"
     stroke-linejoin="miter"
     stroke-miterlimit="2"
     points="3657.96,607.034 3657.96,552.474 3994.83,552.474"
     id="polyline1327"
     transform="translate(-336.598,-551.109)" />
</svg>
