<?xml version="1.0" encoding="UTF-8" standalone="no"?>
<svg
   xmlns:dc="http://purl.org/dc/elements/1.1/"
   xmlns:cc="http://creativecommons.org/ns#"
   xmlns:rdf="http://www.w3.org/1999/02/22-rdf-syntax-ns#"
   xmlns:svg="http://www.w3.org/2000/svg"
   xmlns="http://www.w3.org/2000/svg"
   xmlns:sodipodi="http://sodipodi.sourceforge.net/DTD/sodipodi-0.dtd"
   xmlns:inkscape="http://www.inkscape.org/namespaces/inkscape"
   width="258.20526mm"
   height="17.3978mm"
   viewBox="0 0 3659.6022 246.583"
   version="1.2"
   id="svg5665"
   sodipodi:docname="Dossium Canto Messing Musica.svg"
   inkscape:version="1.0.2-2 (e86c870879, 2021-01-15)"
   inkscape:export-filename="C:\Users\slagt\Music\Dossia\Dossium Canto Messing\Dossium Canto Messing Musica.png"
   inkscape:export-xdpi="176"
   inkscape:export-ydpi="176">
  <metadata
     id="metadata5671">
    <rdf:RDF>
      <cc:Work
         rdf:about="">
        <dc:format>image/svg+xml</dc:format>
        <dc:type
           rdf:resource="http://purl.org/dc/dcmitype/StillImage" />
      </cc:Work>
    </rdf:RDF>
  </metadata>
  <defs
     id="defs5669" />
  <sodipodi:namedview
     pagecolor="#ffffff"
     bordercolor="#666666"
     borderopacity="1"
     objecttolerance="10"
     gridtolerance="10"
     guidetolerance="10"
     inkscape:pageopacity="0"
     inkscape:pageshadow="2"
     inkscape:window-width="1920"
     inkscape:window-height="991"
     id="namedview5667"
     showgrid="false"
     inkscape:zoom="1.0328497"
     inkscape:cx="471.36053"
     inkscape:cy="249.9976"
     inkscape:window-x="-9"
     inkscape:window-y="-9"
     inkscape:window-maximized="1"
     inkscape:current-layer="svg5665" />
  <title
     id="title5325">Dossium Canto Messing Musica</title>
  <desc
     id="desc5327">Generated by MuseScore Studio 4.5.1</desc>
  <polyline
     class="StaffLines"
     fill="none"
     stroke="#000000"
     stroke-width="2.73"
     stroke-linejoin="bevel"
     points="336.598,634.198 3996.2,634.198"
     id="polyline5329"
     transform="translate(-336.598,-551.109)" />
  <polyline
     class="StaffLines"
     fill="none"
     stroke="#000000"
     stroke-width="2.73"
     stroke-linejoin="bevel"
     points="336.598,658.998 3996.2,658.998"
     id="polyline5331"
     transform="translate(-336.598,-551.109)" />
  <polyline
     class="StaffLines"
     fill="none"
     stroke="#000000"
     stroke-width="2.73"
     stroke-linejoin="bevel"
     points="336.598,683.798 3996.2,683.798"
     id="polyline5333"
     transform="translate(-336.598,-551.109)" />
  <polyline
     class="StaffLines"
     fill="none"
     stroke="#000000"
     stroke-width="2.73"
     stroke-linejoin="bevel"
     points="336.598,708.598 3996.2,708.598"
     id="polyline5335"
     transform="translate(-336.598,-551.109)" />
  <polyline
     class="StaffLines"
     fill="none"
     stroke="#000000"
     stroke-width="2.73"
     stroke-linejoin="bevel"
     points="336.598,733.398 3996.2,733.398"
     id="polyline5337"
     transform="translate(-336.598,-551.109)" />
  <polyline
     class="BarLine"
     fill="none"
     stroke="#000000"
     stroke-width="4.46"
     stroke-linejoin="bevel"
     points="3056.36,632.834 3056.36,734.762"
     id="polyline5347"
     transform="translate(-336.598,-551.109)" />
  <polyline
     class="BarLine"
     fill="none"
     stroke="#000000"
     stroke-width="4.46"
     stroke-linejoin="bevel"
     points="1646.1,632.834 1646.1,734.762"
     id="polyline5349"
     transform="translate(-336.598,-551.109)" />
  <polyline
     class="BarLine"
     fill="none"
     stroke="#000000"
     stroke-width="4.46"
     stroke-linejoin="bevel"
     points="739.185,632.834 739.185,734.762"
     id="polyline5351"
     transform="translate(-336.598,-551.109)" />
  <polyline
     class="BarLine"
     fill="none"
     stroke="#000000"
     stroke-width="4.46"
     stroke-linejoin="bevel"
     points="1222.86,632.834 1222.86,734.762"
     id="polyline5353"
     transform="translate(-336.598,-551.109)" />
  <path
     class="BarLine"
     d="m 1982.675,120.289 c 0,-2.883 -2.294,-5.2545 -5.1615,-5.2545 -2.883,0 -5.1615,2.3715 -5.1615,5.2545 0,2.883 2.2785,5.2545 5.1615,5.2545 2.8675,0 5.1615,-2.3715 5.1615,-5.2545"
     id="path5355"
     style="stroke-width:0.992" />
  <path
     class="BarLine"
     d="m 1982.675,145.089 c 0,-2.883 -2.294,-5.2545 -5.1615,-5.2545 -2.883,0 -5.1615,2.3715 -5.1615,5.2545 0,2.883 2.2785,5.2545 5.1615,5.2545 2.8675,0 5.1615,-2.3715 5.1615,-5.2545"
     id="path5357"
     style="stroke-width:0.992" />
  <polyline
     class="BarLine"
     fill="none"
     stroke="#000000"
     stroke-width="4.46"
     stroke-linejoin="bevel"
     points="2330.66,632.834 2330.66,734.762"
     id="polyline5359"
     transform="translate(-336.598,-551.109)" />
  <polyline
     class="BarLine"
     fill="none"
     stroke="#000000"
     stroke-width="13.64"
     stroke-linejoin="bevel"
     points="2348.89,632.834 2348.89,734.762"
     id="polyline5361"
     transform="translate(-336.598,-551.109)" />
  <polyline
     class="BarLine"
     fill="none"
     stroke="#000000"
     stroke-width="4.46"
     stroke-linejoin="bevel"
     points="2609.09,632.834 2609.09,734.762"
     id="polyline5363"
     transform="translate(-336.598,-551.109)" />
  <polyline
     class="BarLine"
     fill="none"
     stroke="#000000"
     stroke-width="4.46"
     stroke-linejoin="bevel"
     points="3258.83,632.834 3258.83,734.762"
     id="polyline5365"
     transform="translate(-336.598,-551.109)" />
  <polyline
     class="BarLine"
     fill="none"
     stroke="#000000"
     stroke-width="4.46"
     stroke-linejoin="bevel"
     points="1385.99,632.834 1385.99,734.762"
     id="polyline5367"
     transform="translate(-336.598,-551.109)" />
  <polyline
     class="BarLine"
     fill="none"
     stroke="#000000"
     stroke-width="4.46"
     stroke-linejoin="bevel"
     points="3971.15,632.834 3971.15,734.762"
     id="polyline5369"
     transform="translate(-336.598,-551.109)" />
  <polyline
     class="BarLine"
     fill="none"
     stroke="#000000"
     stroke-width="13.64"
     stroke-linejoin="bevel"
     points="3989.38,632.834 3989.38,734.762"
     id="polyline5371"
     transform="translate(-336.598,-551.109)" />
  <polyline
     class="BarLine"
     fill="none"
     stroke="#000000"
     stroke-width="4.46"
     stroke-linejoin="bevel"
     points="981.02,632.834 981.02,734.762"
     id="polyline5373"
     transform="translate(-336.598,-551.109)" />
  <path
     class="BarLine"
     d="m 3374.615,120.289 c 0,-2.883 -2.294,-5.2545 -5.1615,-5.2545 -2.883,0 -5.1615,2.3715 -5.1615,5.2545 0,2.883 2.2785,5.2545 5.1615,5.2545 2.8675,0 5.1615,-2.3715 5.1615,-5.2545"
     id="path5375"
     style="stroke-width:0.992" />
  <path
     class="BarLine"
     d="m 3374.615,145.089 c 0,-2.883 -2.294,-5.2545 -5.1615,-5.2545 -2.883,0 -5.1615,2.3715 -5.1615,5.2545 0,2.883 2.2785,5.2545 5.1615,5.2545 2.8675,0 5.1615,-2.3715 5.1615,-5.2545"
     id="path5377"
     style="stroke-width:0.992" />
  <polyline
     class="BarLine"
     fill="none"
     stroke="#000000"
     stroke-width="4.46"
     stroke-linejoin="bevel"
     points="3722.61,632.834 3722.61,734.762"
     id="polyline5379"
     transform="translate(-336.598,-551.109)" />
  <polyline
     class="BarLine"
     fill="none"
     stroke="#000000"
     stroke-width="13.64"
     stroke-linejoin="bevel"
     points="3740.83,632.834 3740.83,734.762"
     id="polyline5381"
     transform="translate(-336.598,-551.109)" />
  <polyline
     class="BarLine"
     fill="none"
     stroke="#000000"
     stroke-width="4.46"
     stroke-linejoin="bevel"
     points="1906.21,632.834 1906.21,734.762"
     id="polyline5383"
     transform="translate(-336.598,-551.109)" />
  <polyline
     class="BarLine"
     fill="none"
     stroke="#000000"
     stroke-width="4.46"
     stroke-linejoin="bevel"
     points="3505.15,632.834 3505.15,734.762"
     id="polyline5385"
     transform="translate(-336.598,-551.109)" />
  <polyline
     class="BarLine"
     fill="none"
     stroke="#000000"
     stroke-width="4.46"
     stroke-linejoin="bevel"
     points="2148.04,632.834 2148.04,734.762"
     id="polyline5387"
     transform="translate(-336.598,-551.109)" />
  <polyline
     class="BarLine"
     fill="none"
     stroke="#000000"
     stroke-width="13.64"
     stroke-linejoin="bevel"
     points="2776.82,632.834 2776.82,734.762"
     id="polyline5389"
     transform="translate(-336.598,-551.109)" />
  <polyline
     class="BarLine"
     fill="none"
     stroke="#000000"
     stroke-width="4.46"
     stroke-linejoin="bevel"
     points="2795.05,632.834 2795.05,734.762"
     id="polyline5391"
     transform="translate(-336.598,-551.109)" />
  <path
     class="BarLine"
     d="m 2480.175,120.289 c 0,-2.883 -2.294,-5.2545 -5.1615,-5.2545 -2.883,0 -5.1615,2.3715 -5.1615,5.2545 0,2.883 2.2785,5.2545 5.1615,5.2545 2.8675,0 5.1615,-2.3715 5.1615,-5.2545"
     id="path5393"
     style="stroke-width:0.992" />
  <path
     class="BarLine"
     d="m 2480.175,145.089 c 0,-2.883 -2.294,-5.2545 -5.1615,-5.2545 -2.883,0 -5.1615,2.3715 -5.1615,5.2545 0,2.883 2.2785,5.2545 5.1615,5.2545 2.8675,0 5.1615,-2.3715 5.1615,-5.2545"
     id="path5395"
     style="stroke-width:0.992" />
  <polyline
     class="Stem"
     fill="none"
     stroke="#000000"
     stroke-width="2.48"
     stroke-linejoin="bevel"
     points="619.956,663.165 619.956,745.798"
     id="polyline5397"
     transform="translate(-336.598,-551.109)" />
  <polyline
     class="Stem"
     fill="none"
     stroke="#000000"
     stroke-width="2.48"
     stroke-linejoin="bevel"
     points="773.657,687.965 773.657,758.198"
     id="polyline5399"
     transform="translate(-336.598,-551.109)" />
  <polyline
     class="Stem"
     fill="none"
     stroke="#000000"
     stroke-width="2.48"
     stroke-linejoin="bevel"
     points="822.468,675.565 822.468,751.899"
     id="polyline5401"
     transform="translate(-336.598,-551.109)" />
  <polyline
     class="Stem"
     fill="none"
     stroke="#000000"
     stroke-width="2.48"
     stroke-linejoin="bevel"
     points="861.792,663.165 861.792,745.798"
     id="polyline5403"
     transform="translate(-336.598,-551.109)" />
  <polyline
     class="Stem"
     fill="none"
     stroke="#000000"
     stroke-width="2.48"
     stroke-linejoin="bevel"
     points="910.604,687.965 910.604,764.299"
     id="polyline5405"
     transform="translate(-336.598,-551.109)" />
  <polyline
     class="Stem"
     fill="none"
     stroke="#000000"
     stroke-width="2.48"
     stroke-linejoin="bevel"
     points="668.768,687.965 668.768,764.299"
     id="polyline5407"
     transform="translate(-336.598,-551.109)" />
  <polyline
     class="Stem"
     fill="none"
     stroke="#000000"
     stroke-width="2.48"
     stroke-linejoin="bevel"
     points="1015.49,675.565 1015.49,751.998"
     id="polyline5409"
     transform="translate(-336.598,-551.109)" />
  <polyline
     class="Stem"
     fill="none"
     stroke="#000000"
     stroke-width="2.48"
     stroke-linejoin="bevel"
     points="1064.3,663.165 1064.3,745.699"
     id="polyline5411"
     transform="translate(-336.598,-551.109)" />
  <polyline
     class="Stem"
     fill="none"
     stroke="#000000"
     stroke-width="2.48"
     stroke-linejoin="bevel"
     points="1103.63,650.765 1103.63,733.398"
     id="polyline5413"
     transform="translate(-336.598,-551.109)" />
  <polyline
     class="Stem"
     fill="none"
     stroke="#000000"
     stroke-width="2.48"
     stroke-linejoin="bevel"
     points="1152.44,675.565 1152.44,751.899"
     id="polyline5415"
     transform="translate(-336.598,-551.109)" />
  <polyline
     class="Stem"
     fill="none"
     stroke="#000000"
     stroke-width="2.48"
     stroke-linejoin="bevel"
     points="1287.07,692.23 1287.07,615.598"
     id="polyline5417"
     transform="translate(-336.598,-551.109)" />
  <polyline
     class="Stem"
     fill="none"
     stroke="#000000"
     stroke-width="2.48"
     stroke-linejoin="bevel"
     points="1450.21,692.23 1450.21,615.598"
     id="polyline5419"
     transform="translate(-336.598,-551.109)" />
  <polyline
     class="Stem"
     fill="none"
     stroke="#000000"
     stroke-width="2.48"
     stroke-linejoin="bevel"
     points="1473.77,687.965 1473.77,764.299"
     id="polyline5421"
     transform="translate(-336.598,-551.109)" />
  <polyline
     class="Stem"
     fill="none"
     stroke="#000000"
     stroke-width="2.48"
     stroke-linejoin="bevel"
     points="1513.09,675.565 1513.09,751.998"
     id="polyline5423"
     transform="translate(-336.598,-551.109)" />
  <polyline
     class="Stem"
     fill="none"
     stroke="#000000"
     stroke-width="2.48"
     stroke-linejoin="bevel"
     points="1591.65,692.23 1591.65,615.797"
     id="polyline5425"
     transform="translate(-336.598,-551.109)" />
  <polyline
     class="Stem"
     fill="none"
     stroke="#000000"
     stroke-width="2.48"
     stroke-linejoin="bevel"
     points="1710.32,692.23 1710.32,615.598"
     id="polyline5427"
     transform="translate(-336.598,-551.109)" />
  <polyline
     class="Stem"
     fill="none"
     stroke="#000000"
     stroke-width="2.48"
     stroke-linejoin="bevel"
     points="1733.88,687.965 1733.88,764.299"
     id="polyline5429"
     transform="translate(-336.598,-551.109)" />
  <polyline
     class="Stem"
     fill="none"
     stroke="#000000"
     stroke-width="2.48"
     stroke-linejoin="bevel"
     points="1773.2,675.565 1773.2,751.998"
     id="polyline5431"
     transform="translate(-336.598,-551.109)" />
  <polyline
     class="Stem"
     fill="none"
     stroke="#000000"
     stroke-width="2.48"
     stroke-linejoin="bevel"
     points="1851.76,692.23 1851.76,615.797"
     id="polyline5433"
     transform="translate(-336.598,-551.109)" />
  <polyline
     class="Stem"
     fill="none"
     stroke="#000000"
     stroke-width="2.48"
     stroke-linejoin="bevel"
     points="1940.68,687.965 1940.68,758.198"
     id="polyline5435"
     transform="translate(-336.598,-551.109)" />
  <polyline
     class="Stem"
     fill="none"
     stroke="#000000"
     stroke-width="2.48"
     stroke-linejoin="bevel"
     points="1989.49,675.565 1989.49,751.899"
     id="polyline5437"
     transform="translate(-336.598,-551.109)" />
  <polyline
     class="Stem"
     fill="none"
     stroke="#000000"
     stroke-width="2.48"
     stroke-linejoin="bevel"
     points="2028.81,663.165 2028.81,745.798"
     id="polyline5439"
     transform="translate(-336.598,-551.109)" />
  <polyline
     class="Stem"
     fill="none"
     stroke="#000000"
     stroke-width="2.48"
     stroke-linejoin="bevel"
     points="2077.63,687.965 2077.63,764.299"
     id="polyline5441"
     transform="translate(-336.598,-551.109)" />
  <polyline
     class="Stem"
     fill="none"
     stroke="#000000"
     stroke-width="2.48"
     stroke-linejoin="bevel"
     points="3434.74,663.165 3434.74,745.699"
     id="polyline5443"
     transform="translate(-336.598,-551.109)" />
  <polyline
     class="Stem"
     fill="none"
     stroke="#000000"
     stroke-width="2.48"
     stroke-linejoin="bevel"
     points="2212.26,692.23 2212.26,615.598"
     id="polyline5445"
     transform="translate(-336.598,-551.109)" />
  <polyline
     class="Stem"
     fill="none"
     stroke="#000000"
     stroke-width="2.48"
     stroke-linejoin="bevel"
     points="2387.95,687.965 2387.95,758.198"
     id="polyline5447"
     transform="translate(-336.598,-551.109)" />
  <polyline
     class="Stem"
     fill="none"
     stroke="#000000"
     stroke-width="2.48"
     stroke-linejoin="bevel"
     points="2436.76,675.565 2436.76,751.899"
     id="polyline5449"
     transform="translate(-336.598,-551.109)" />
  <polyline
     class="Stem"
     fill="none"
     stroke="#000000"
     stroke-width="2.48"
     stroke-linejoin="bevel"
     points="2476.09,687.965 2476.09,758.198"
     id="polyline5451"
     transform="translate(-336.598,-551.109)" />
  <polyline
     class="Stem"
     fill="none"
     stroke="#000000"
     stroke-width="2.48"
     stroke-linejoin="bevel"
     points="2554.64,692.23 2554.64,615.797"
     id="polyline5453"
     transform="translate(-336.598,-551.109)" />
  <polyline
     class="Stem"
     fill="none"
     stroke="#000000"
     stroke-width="2.48"
     stroke-linejoin="bevel"
     points="2673.31,704.63 2673.31,621.798"
     id="polyline5455"
     transform="translate(-336.598,-551.109)" />
  <polyline
     class="Stem"
     fill="none"
     stroke="#000000"
     stroke-width="2.48"
     stroke-linejoin="bevel"
     points="2849,687.965 2849,758.198"
     id="polyline5457"
     transform="translate(-336.598,-551.109)" />
  <polyline
     class="Stem"
     fill="none"
     stroke="#000000"
     stroke-width="2.48"
     stroke-linejoin="bevel"
     points="2897.81,675.565 2897.81,751.899"
     id="polyline5459"
     transform="translate(-336.598,-551.109)" />
  <polyline
     class="Stem"
     fill="none"
     stroke="#000000"
     stroke-width="2.48"
     stroke-linejoin="bevel"
     points="2937.14,663.165 2937.14,745.798"
     id="polyline5461"
     transform="translate(-336.598,-551.109)" />
  <polyline
     class="Stem"
     fill="none"
     stroke="#000000"
     stroke-width="2.48"
     stroke-linejoin="bevel"
     points="2985.95,650.765 2985.95,733.299"
     id="polyline5463"
     transform="translate(-336.598,-551.109)" />
  <polyline
     class="Stem"
     fill="none"
     stroke="#000000"
     stroke-width="2.48"
     stroke-linejoin="bevel"
     points="3120.58,692.23 3120.58,615.598"
     id="polyline5465"
     transform="translate(-336.598,-551.109)" />
  <polyline
     class="Stem"
     fill="none"
     stroke="#000000"
     stroke-width="2.48"
     stroke-linejoin="bevel"
     points="3144.14,687.965 3144.14,764.299"
     id="polyline5467"
     transform="translate(-336.598,-551.109)" />
  <polyline
     class="Stem"
     fill="none"
     stroke="#000000"
     stroke-width="2.48"
     stroke-linejoin="bevel"
     points="3183.46,675.565 3183.46,751.998"
     id="polyline5469"
     transform="translate(-336.598,-551.109)" />
  <polyline
     class="Stem"
     fill="none"
     stroke="#000000"
     stroke-width="2.48"
     stroke-linejoin="bevel"
     points="3323.04,692.23 3323.04,615.598"
     id="polyline5471"
     transform="translate(-336.598,-551.109)" />
  <polyline
     class="Stem"
     fill="none"
     stroke="#000000"
     stroke-width="2.48"
     stroke-linejoin="bevel"
     points="3346.6,687.965 3346.6,764.299"
     id="polyline5473"
     transform="translate(-336.598,-551.109)" />
  <polyline
     class="Stem"
     fill="none"
     stroke="#000000"
     stroke-width="2.48"
     stroke-linejoin="bevel"
     points="3385.93,675.565 3385.93,751.998"
     id="polyline5475"
     transform="translate(-336.598,-551.109)" />
  <polyline
     class="Stem"
     fill="none"
     stroke="#000000"
     stroke-width="2.48"
     stroke-linejoin="bevel"
     points="3539.63,687.965 3539.63,758.198"
     id="polyline5477"
     transform="translate(-336.598,-551.109)" />
  <polyline
     class="Stem"
     fill="none"
     stroke="#000000"
     stroke-width="2.48"
     stroke-linejoin="bevel"
     points="3588.44,675.565 3588.44,751.899"
     id="polyline5479"
     transform="translate(-336.598,-551.109)" />
  <polyline
     class="Stem"
     fill="none"
     stroke="#000000"
     stroke-width="2.48"
     stroke-linejoin="bevel"
     points="3627.76,663.165 3627.76,745.798"
     id="polyline5481"
     transform="translate(-336.598,-551.109)" />
  <polyline
     class="Stem"
     fill="none"
     stroke="#000000"
     stroke-width="2.48"
     stroke-linejoin="bevel"
     points="531.821,687.965 531.821,758.198"
     id="polyline5483"
     transform="translate(-336.598,-551.109)" />
  <polyline
     class="Stem"
     fill="none"
     stroke="#000000"
     stroke-width="2.48"
     stroke-linejoin="bevel"
     points="3779.89,687.965 3779.89,758.198"
     id="polyline5485"
     transform="translate(-336.598,-551.109)" />
  <polyline
     class="Stem"
     fill="none"
     stroke="#000000"
     stroke-width="2.48"
     stroke-linejoin="bevel"
     points="3858.45,692.23 3858.45,615.797"
     id="polyline5487"
     transform="translate(-336.598,-551.109)" />
  <polyline
     class="Stem"
     fill="none"
     stroke="#000000"
     stroke-width="2.48"
     stroke-linejoin="bevel"
     points="3925.53,704.63 3925.53,621.798"
     id="polyline5489"
     transform="translate(-336.598,-551.109)" />
  <polyline
     class="Stem"
     fill="none"
     stroke="#000000"
     stroke-width="2.48"
     stroke-linejoin="bevel"
     points="580.633,675.565 580.633,751.899"
     id="polyline5491"
     transform="translate(-336.598,-551.109)" />
  <path
     class="Hook"
     d="m 3008.762,213.196 c 0,0.682 0.589,1.2865 1.2865,1.2865 0.496,0 1.1005,-0.403 1.1935,-0.7905 0,-0.1085 0.899,-3.5805 0.992,-3.875 0.093,-0.403 0.992,-4.1695 4.557,-10.01305 3.875,-6.448 9.827,-11.11347 14.787,-18.05747 4.867,-6.944 7.843,-13.50053 7.843,-22.22696 0,-9.02104 -2.0925,-16.56957 -7.347,-26.19504 -0.2945,-0.69748 -0.899,-1.08496 -1.488,-1.08496 -0.2015,0 -0.403,0 -0.496,0.093 -0.496,0.20147 -0.6975,0.60452 -0.6975,1.19347 0,0.29453 0.1085,0.79053 0.2945,1.19357 3.968,9.22243 5.5645,14.47696 5.5645,21.62243 0,8.23053 -2.883,12.50853 -4.6655,15.57757 -6.448,11.00496 -16.864,16.368 -21.0335,17.76296 -0.6975,0.29452 -0.7905,0.79052 -0.7905,1.08504 V 213.196"
     id="path5493"
     style="stroke-width:0.992" />
  <path
     class="Hook"
     d="m 1651.652,200.796 c 0,0.682 0.589,1.2865 1.2865,1.2865 0.496,0 1.1005,-0.403 1.1935,-0.7905 0,-0.1085 0.899,-3.5805 0.992,-3.875 0.093,-0.403 0.992,-4.1695 4.557,-10.01305 3.875,-6.448 9.827,-11.11347 14.787,-18.05747 4.867,-6.944 7.843,-13.50053 7.843,-22.22696 0,-9.02104 -2.0925,-16.56957 -7.347,-26.19504 -0.2945,-0.69748 -0.899,-1.08496 -1.488,-1.08496 -0.2015,0 -0.403,0 -0.496,0.093 -0.496,0.20147 -0.6975,0.60452 -0.6975,1.19347 0,0.29453 0.1085,0.79053 0.2945,1.19357 3.968,9.22243 5.5645,14.47696 5.5645,21.62243 0,8.23053 -2.883,12.50853 -4.6655,15.57757 -6.448,11.00496 -16.864,16.368 -21.0335,17.76296 -0.6975,0.29452 -0.7905,0.79052 -0.7905,1.08504 V 200.796"
     id="path5495"
     style="stroke-width:0.992" />
  <path
     class="Hook"
     d="m 1739.792,213.196 c 0,0.682 0.589,1.2865 1.2865,1.2865 0.496,0 1.1005,-0.403 1.1935,-0.7905 0,-0.1085 0.899,-3.5805 0.992,-3.875 0.093,-0.403 0.992,-4.1695 4.557,-10.01305 3.875,-6.448 9.827,-11.11347 14.787,-18.05747 4.867,-6.944 7.843,-13.50053 7.843,-22.22696 0,-9.02104 -2.0925,-16.56957 -7.347,-26.19504 -0.2945,-0.69748 -0.899,-1.08496 -1.488,-1.08496 -0.2015,0 -0.403,0 -0.496,0.093 -0.496,0.20147 -0.6975,0.60452 -0.6975,1.19347 0,0.29453 0.1085,0.79053 0.2945,1.19357 3.968,9.22243 5.5645,14.47696 5.5645,21.62243 0,8.23053 -2.883,12.50853 -4.6655,15.57757 -6.448,11.00496 -16.864,16.368 -21.0335,17.76296 -0.6975,0.29452 -0.7905,0.79052 -0.7905,1.08504 V 213.196"
     id="path5497"
     style="stroke-width:0.992" />
  <path
     class="Hook"
     d="m 1396.042,213.196 c 0,0.682 0.589,1.2865 1.2865,1.2865 0.496,0 1.1005,-0.403 1.1935,-0.7905 0,-0.1085 0.899,-3.5805 0.992,-3.875 0.093,-0.403 0.992,-4.1695 4.557,-10.01305 3.875,-6.448 9.827,-11.11347 14.787,-18.05747 4.867,-6.944 7.843,-13.50053 7.843,-22.22696 0,-9.02104 -2.0925,-16.56957 -7.347,-26.19504 -0.2945,-0.69748 -0.899,-1.08496 -1.488,-1.08496 -0.2015,0 -0.403,0 -0.496,0.093 -0.496,0.20147 -0.6975,0.60452 -0.6975,1.19347 0,0.29453 0.1085,0.79053 0.2945,1.19357 3.968,9.22243 5.5645,14.47696 5.5645,21.62243 0,8.23053 -2.883,12.50853 -4.6655,15.57757 -6.448,11.00496 -16.864,16.368 -21.0335,17.76296 -0.6975,0.29452 -0.7905,0.79052 -0.7905,1.08504 V 213.196"
     id="path5499"
     style="stroke-width:0.992" />
  <path
     class="Hook"
     d="m 2648.112,182.196 c 0,0.682 0.589,1.2865 1.2865,1.2865 0.496,0 1.1005,-0.403 1.1935,-0.7905 0,-0.1085 0.899,-3.5805 0.992,-3.875 0.093,-0.403 0.992,-4.1695 4.557,-10.01305 3.875,-6.448 9.827,-11.11347 14.787,-18.05747 4.867,-6.944 7.843,-13.50053 7.843,-22.22696 0,-9.02104 -2.0925,-16.56957 -7.347,-26.19504 -0.2945,-0.69748 -0.899,-1.08496 -1.488,-1.08496 -0.2015,0 -0.403,0 -0.496,0.093 -0.496,0.20147 -0.6975,0.60452 -0.6975,1.19347 0,0.29453 0.1085,0.79053 0.2945,1.19357 3.968,9.22243 5.5645,14.47696 5.5645,21.62243 0,8.23053 -2.883,12.50853 -4.6655,15.57757 -6.448,11.00496 -16.864,16.368 -21.0335,17.76296 -0.6975,0.29452 -0.7905,0.79052 -0.7905,1.08504 V 182.196"
     id="path5501"
     style="stroke-width:0.992" />
  <path
     class="Hook"
     d="m 2098.922,200.796 c 0,0.682 0.589,1.2865 1.2865,1.2865 0.496,0 1.1005,-0.403 1.1935,-0.7905 0,-0.1085 0.899,-3.5805 0.992,-3.875 0.093,-0.403 0.992,-4.1695 4.557,-10.01305 3.875,-6.448 9.827,-11.11347 14.787,-18.05747 4.867,-6.944 7.843,-13.50053 7.843,-22.22696 0,-9.02104 -2.0925,-16.56957 -7.347,-26.19504 -0.2945,-0.69748 -0.899,-1.08496 -1.488,-1.08496 -0.2015,0 -0.403,0 -0.496,0.093 -0.496,0.20147 -0.6975,0.60452 -0.6975,1.19347 0,0.29453 0.1085,0.79053 0.2945,1.19357 3.968,9.22243 5.5645,14.47696 5.5645,21.62243 0,8.23053 -2.883,12.50853 -4.6655,15.57757 -6.448,11.00496 -16.864,16.368 -21.0335,17.76296 -0.6975,0.29452 -0.7905,0.79052 -0.7905,1.08504 V 200.796"
     id="path5503"
     style="stroke-width:0.992" />
  <path
     class="Hook"
     d="m 1253.812,87.010475 c 0,0.294525 0.093,0.790525 0.7905,1.08505 4.2625,1.39495 12.803,6.758 19.251,17.762955 1.7825,3.06904 4.6655,7.34704 4.6655,15.57757 0,7.14547 -1.891,14.47695 -4.464,21.62243 -0.2015,0.60452 -0.403,1.10052 -0.31,1.488 0,0.40304 0.1085,0.69757 0.496,0.89904 0.2015,0.093 0.403,0.093 0.496,0.093 0.6975,0 1.1935,-0.38748 1.5965,-1.08496 4.6655,-8.246 6.2465,-18.75504 6.1535,-25.00147 0,-0.496 0,-0.79053 0,-1.19357 -0.496,-12.80296 -7.843,-22.226955 -7.843,-22.226955 0.2945,0 -9.1295,-12.198525 -11.811,-16.368 C 1259.175,74.006 1257.4855,68.364 1257.284,67.961 c -0.093,-0.294495 -0.992,-3.875 -0.992,-3.875 -0.093,-0.3875 -0.589,-0.790505 -1.1935,-0.790505 -0.6975,0 -1.2865,0.604505 -1.2865,1.286505 v 22.428475"
     id="path5505"
     style="stroke-width:0.992" />
  <path
     class="Hook"
     d="m 2559.972,200.796 c 0,0.682 0.589,1.2865 1.2865,1.2865 0.496,0 1.1005,-0.403 1.1935,-0.7905 0,-0.1085 0.899,-3.5805 0.992,-3.875 0.093,-0.403 0.992,-4.1695 4.557,-10.01305 3.875,-6.448 9.827,-11.11347 14.787,-18.05747 4.867,-6.944 7.843,-13.50053 7.843,-22.22696 0,-9.02104 -2.0925,-16.56957 -7.347,-26.19504 -0.2945,-0.69748 -0.899,-1.08496 -1.488,-1.08496 -0.2015,0 -0.403,0 -0.496,0.093 -0.496,0.20147 -0.6975,0.60452 -0.6975,1.19347 0,0.29453 0.1085,0.79053 0.2945,1.19357 3.968,9.22243 5.5645,14.47696 5.5645,21.62243 0,8.23053 -2.883,12.50853 -4.6655,15.57757 -6.448,11.00496 -16.864,16.368 -21.0335,17.76296 -0.6975,0.29452 -0.7905,0.79052 -0.7905,1.08504 V 200.796"
     id="path5507"
     style="stroke-width:0.992" />
  <path
     class="Hook"
     d="m 484.63,200.796 c 0,0.682 0.589,1.2865 1.2865,1.2865 0.496,0 1.1005,-0.403 1.1935,-0.7905 0,-0.1085 0.899,-3.5805 0.992,-3.875 0.093,-0.403 0.992,-4.1695 4.557,-10.01305 3.875,-6.448 9.827,-11.11347 14.787,-18.05747 4.86705,-6.944 7.84305,-13.50053 7.84305,-22.22696 0,-9.02104 -2.09253,-16.56957 -7.34705,-26.19504 -0.29452,-0.69748 -0.89895,-1.08496 -1.488,-1.08496 -0.20148,0 -0.40295,0 -0.496,0.093 -0.496,0.20147 -0.69748,0.60452 -0.69748,1.19347 0,0.29453 0.10853,0.79053 0.29453,1.19357 3.968,9.22243 5.56443,14.47696 5.56443,21.62243 0,8.23053 -2.88296,12.50853 -4.66548,15.57757 -6.448,11.00496 -16.864,16.368 -21.0335,17.76296 -0.6975,0.29452 -0.7905,0.79052 -0.7905,1.08504 V 200.796"
     id="path5509"
     style="stroke-width:0.992" />
  <path
     class="Hook"
     d="m 2806.302,213.196 c 0,0.682 0.589,1.2865 1.2865,1.2865 0.496,0 1.1005,-0.403 1.1935,-0.7905 0,-0.1085 0.899,-3.5805 0.992,-3.875 0.093,-0.403 0.992,-4.1695 4.557,-10.01305 3.875,-6.448 9.827,-11.11347 14.787,-18.05747 4.867,-6.944 7.843,-13.50053 7.843,-22.22696 0,-9.02104 -2.0925,-16.56957 -7.347,-26.19504 -0.2945,-0.69748 -0.899,-1.08496 -1.488,-1.08496 -0.2015,0 -0.403,0 -0.496,0.093 -0.496,0.20147 -0.6975,0.60452 -0.6975,1.19347 0,0.29453 0.1085,0.79053 0.2945,1.19357 3.968,9.22243 5.5645,14.47696 5.5645,21.62243 0,8.23053 -2.883,12.50853 -4.6655,15.57757 -6.448,11.00496 -16.864,16.368 -21.0335,17.76296 -0.6975,0.29452 -0.7905,0.79052 -0.7905,1.08504 V 213.196"
     id="path5511"
     style="stroke-width:0.992" />
  <path
     class="Hook"
     d="m 330.93,213.196 c 0,0.682 0.589,1.2865 1.2865,1.2865 0.496,0 1.1005,-0.403 1.1935,-0.7905 0,-0.1085 0.899,-3.5805 0.992,-3.875 0.093,-0.403 0.992,-4.1695 4.557,-10.01305 3.875,-6.448 9.827,-11.11347 14.787,-18.05747 4.86705,-6.944 7.84305,-13.50053 7.84305,-22.22696 0,-9.02104 -2.09253,-16.56957 -7.34705,-26.19504 -0.29452,-0.69748 -0.89895,-1.08496 -1.488,-1.08496 -0.20148,0 -0.40295,0 -0.496,0.093 -0.496,0.20147 -0.69748,0.60452 -0.69748,1.19347 0,0.29453 0.10853,0.79053 0.29453,1.19357 3.968,9.22243 5.56443,14.47696 5.56443,21.62243 0,8.23053 -2.88296,12.50853 -4.66548,15.57757 -6.448,11.00496 -16.864,16.368 -21.0335,17.76296 -0.6975,0.29452 -0.7905,0.79052 -0.7905,1.08504 V 213.196"
     id="path5513"
     style="stroke-width:0.992" />
  <path
     class="Hook"
     d="m 814.602,200.796 c 0,0.682 0.589,1.2865 1.2865,1.2865 0.496,0 1.1005,-0.403 1.1935,-0.7905 0,-0.1085 0.899,-3.5805 0.992,-3.875 0.093,-0.403 0.992,-4.1695 4.557,-10.01305 3.875,-6.448 9.827,-11.11347 14.787,-18.05747 4.86705,-6.944 7.84305,-13.50053 7.84305,-22.22696 0,-9.02104 -2.09253,-16.56957 -7.34705,-26.19504 -0.29452,-0.69748 -0.89895,-1.08496 -1.488,-1.08496 -0.20148,0 -0.40295,0 -0.496,0.093 -0.496,0.20147 -0.69748,0.60452 -0.69748,1.19347 0,0.29453 0.10853,0.79053 0.29453,1.19357 3.968,9.22243 5.56443,14.47696 5.56443,21.62243 0,8.23053 -2.88296,12.50853 -4.66548,15.57757 -6.448,11.00496 -16.864,16.368 -21.0335,17.76296 -0.6975,0.29452 -0.7905,0.79052 -0.7905,1.08504 V 200.796"
     id="path5515"
     style="stroke-width:0.992" />
  <path
     class="Hook"
     d="m 242.795,200.796 c 0,0.682 0.589,1.2865 1.2865,1.2865 0.496,0 1.1005,-0.403 1.1935,-0.7905 0,-0.1085 0.899,-3.5805 0.992,-3.875 0.093,-0.403 0.992,-4.1695 4.557,-10.01305 3.875,-6.448 9.827,-11.11347 14.787,-18.05747 4.86705,-6.944 7.84305,-13.50053 7.84305,-22.22696 0,-9.02104 -2.09253,-16.56957 -7.34705,-26.19504 -0.29452,-0.69748 -0.89895,-1.08496 -1.488,-1.08496 -0.20148,0 -0.40295,0 -0.496,0.093 -0.496,0.20147 -0.69748,0.60452 -0.69748,1.19347 0,0.29453 0.10853,0.79053 0.29453,1.19357 3.968,9.22243 5.56443,14.47696 5.56443,21.62243 0,8.23053 -2.88296,12.50853 -4.66548,15.57757 -6.448,11.00496 -16.864,16.368 -21.0335,17.76296 -0.6975,0.29452 -0.7905,0.79052 -0.7905,1.08504 V 200.796"
     id="path5517"
     style="stroke-width:0.992" />
  <path
     class="Hook"
     d="m 572.766,213.196 c 0,0.682 0.589,1.2865 1.2865,1.2865 0.496,0 1.1005,-0.403 1.1935,-0.7905 0,-0.1085 0.899,-3.5805 0.992,-3.875 0.093,-0.403 0.992,-4.1695 4.557,-10.01305 3.875,-6.448 9.827,-11.11347 14.787,-18.05747 4.86705,-6.944 7.84305,-13.50053 7.84305,-22.22696 0,-9.02104 -2.09253,-16.56957 -7.34705,-26.19504 -0.29452,-0.69748 -0.89895,-1.08496 -1.488,-1.08496 -0.20148,0 -0.40295,0 -0.496,0.093 -0.496,0.20147 -0.69748,0.60452 -0.69748,1.19347 0,0.29453 0.10853,0.79053 0.29453,1.19357 3.968,9.22243 5.56443,14.47696 5.56443,21.62243 0,8.23053 -2.88296,12.50853 -4.66548,15.57757 -6.448,11.00496 -16.864,16.368 -21.0335,17.76296 -0.6975,0.29452 -0.7905,0.79052 -0.7905,1.08504 V 213.196"
     id="path5519"
     style="stroke-width:0.992" />
  <path
     class="Hook"
     d="m 1135.932,213.196 c 0,0.682 0.589,1.2865 1.2865,1.2865 0.496,0 1.1005,-0.403 1.1935,-0.7905 0,-0.1085 0.899,-3.5805 0.992,-3.875 0.093,-0.403 0.992,-4.1695 4.557,-10.01305 3.875,-6.448 9.827,-11.11347 14.787,-18.05747 4.867,-6.944 7.843,-13.50053 7.843,-22.22696 0,-9.02104 -2.0925,-16.56957 -7.347,-26.19504 -0.2945,-0.69748 -0.899,-1.08496 -1.488,-1.08496 -0.2015,0 -0.403,0 -0.496,0.093 -0.496,0.20147 -0.6975,0.60452 -0.6975,1.19347 0,0.29453 0.1085,0.79053 0.2945,1.19357 3.968,9.22243 5.5645,14.47696 5.5645,21.62243 0,8.23053 -2.883,12.50853 -4.6655,15.57757 -6.448,11.00496 -16.864,16.368 -21.0335,17.76296 -0.6975,0.29452 -0.7905,0.79052 -0.7905,1.08504 V 213.196"
     id="path5521"
     style="stroke-width:0.992" />
  <path
     class="Hook"
     d="m 726.462,194.596 c 0,0.682 0.589,1.2865 1.2865,1.2865 0.496,0 1.1005,-0.403 1.1935,-0.7905 0,-0.1085 0.899,-3.5805 0.992,-3.875 0.093,-0.403 0.992,-4.1695 4.557,-10.01305 3.875,-6.448 9.827,-11.11347 14.787,-18.05747 4.86705,-6.944 7.84305,-13.50053 7.84305,-22.22696 0,-9.02104 -2.09253,-16.56957 -7.34705,-26.19504 -0.29452,-0.69748 -0.89895,-1.08496 -1.488,-1.08496 -0.20148,0 -0.40295,0 -0.496,0.093 -0.496,0.20147 -0.69748,0.60452 -0.69748,1.19347 0,0.29453 0.10853,0.79053 0.29453,1.19357 3.968,9.22243 5.56443,14.47696 5.56443,21.62243 0,8.23053 -2.88296,12.50853 -4.66548,15.57757 -6.448,11.00496 -16.864,16.368 -21.0335,17.76296 -0.6975,0.29452 -0.7905,0.79052 -0.7905,1.08504 V 194.596"
     id="path5523"
     style="stroke-width:0.992" />
  <path
     class="Hook"
     d="m 2216.802,87.010475 c 0,0.294525 0.093,0.790525 0.7905,1.08505 4.2625,1.39495 12.803,6.758 19.251,17.762955 1.7825,3.06904 4.6655,7.34704 4.6655,15.57757 0,7.14547 -1.891,14.47695 -4.464,21.62243 -0.2015,0.60452 -0.403,1.10052 -0.31,1.488 0,0.40304 0.1085,0.69757 0.496,0.89904 0.2015,0.093 0.403,0.093 0.496,0.093 0.6975,0 1.1935,-0.38748 1.5965,-1.08496 4.6655,-8.246 6.2465,-18.75504 6.1535,-25.00147 0,-0.496 0,-0.79053 0,-1.19357 -0.496,-12.80296 -7.843,-22.226955 -7.843,-22.226955 0.2945,0 -9.1295,-12.198525 -11.811,-16.368 C 2222.165,74.006 2220.4755,68.364 2220.274,67.961 c -0.093,-0.294495 -0.992,-3.875 -0.992,-3.875 -0.093,-0.3875 -0.589,-0.790505 -1.1935,-0.790505 -0.6975,0 -1.2865,0.604505 -1.2865,1.286505 v 22.428475"
     id="path5525"
     style="stroke-width:0.992" />
  <path
     class="Hook"
     d="m 3096.902,194.596 c 0,0.682 0.589,1.2865 1.2865,1.2865 0.496,0 1.1005,-0.403 1.1935,-0.7905 0,-0.1085 0.899,-3.5805 0.992,-3.875 0.093,-0.403 0.992,-4.1695 4.557,-10.01305 3.875,-6.448 9.827,-11.11347 14.787,-18.05747 4.867,-6.944 7.843,-13.50053 7.843,-22.22696 0,-9.02104 -2.0925,-16.56957 -7.347,-26.19504 -0.2945,-0.69748 -0.899,-1.08496 -1.488,-1.08496 -0.2015,0 -0.403,0 -0.496,0.093 -0.496,0.20147 -0.6975,0.60452 -0.6975,1.19347 0,0.29453 0.1085,0.79053 0.2945,1.19357 3.968,9.22243 5.5645,14.47696 5.5645,21.62243 0,8.23053 -2.883,12.50853 -4.6655,15.57757 -6.448,11.00496 -16.864,16.368 -21.0335,17.76296 -0.6975,0.29452 -0.7905,0.79052 -0.7905,1.08504 V 194.596"
     id="path5527"
     style="stroke-width:0.992" />
  <path
     class="Hook"
     d="m 3250.602,200.796 c 0,0.682 0.589,1.2865 1.2865,1.2865 0.496,0 1.1005,-0.403 1.1935,-0.7905 0,-0.1085 0.899,-3.5805 0.992,-3.875 0.093,-0.403 0.992,-4.1695 4.557,-10.01305 3.875,-6.448 9.827,-11.11347 14.787,-18.05747 4.867,-6.944 7.843,-13.50053 7.843,-22.22696 0,-9.02104 -2.0925,-16.56957 -7.347,-26.19504 -0.2945,-0.69748 -0.899,-1.08496 -1.488,-1.08496 -0.2015,0 -0.403,0 -0.496,0.093 -0.496,0.20147 -0.6975,0.60452 -0.6975,1.19347 0,0.29453 0.1085,0.79053 0.2945,1.19357 3.968,9.22243 5.5645,14.47696 5.5645,21.62243 0,8.23053 -2.883,12.50853 -4.6655,15.57757 -6.448,11.00496 -16.864,16.368 -21.0335,17.76296 -0.6975,0.29452 -0.7905,0.79052 -0.7905,1.08504 V 200.796"
     id="path5529"
     style="stroke-width:0.992" />
  <path
     class="Hook"
     d="m 3520.612,87.010475 c 0,0.294525 0.093,0.790525 0.7905,1.08505 4.2625,1.39495 12.803,6.758 19.251,17.762955 1.7825,3.06904 4.6655,7.34704 4.6655,15.57757 0,7.14547 -1.891,14.47695 -4.464,21.62243 -0.2015,0.60452 -0.403,1.10052 -0.31,1.488 0,0.40304 0.1085,0.69757 0.496,0.89904 0.2015,0.093 0.403,0.093 0.496,0.093 0.6975,0 1.1935,-0.38748 1.5965,-1.08496 4.6655,-8.246 6.2465,-18.75504 6.1535,-25.00147 0,-0.496 0,-0.79053 0,-1.19357 -0.496,-12.80296 -7.843,-22.226955 -7.843,-22.226955 0.2945,0 -9.1295,-12.198525 -11.811,-16.368 C 3525.975,74.006 3524.2855,68.364 3524.084,67.961 c -0.093,-0.294495 -0.992,-3.875 -0.992,-3.875 -0.093,-0.3875 -0.589,-0.790505 -1.1935,-0.790505 -0.6975,0 -1.2865,0.604505 -1.2865,1.286505 v 22.428475"
     id="path5531"
     style="stroke-width:0.992" />
  <path
     class="Hook"
     d="m 1513.922,87.010475 c 0,0.294525 0.093,0.790525 0.7905,1.08505 4.2625,1.39495 12.803,6.758 19.251,17.762955 1.7825,3.06904 4.6655,7.34704 4.6655,15.57757 0,7.14547 -1.891,14.47695 -4.464,21.62243 -0.2015,0.60452 -0.403,1.10052 -0.31,1.488 0,0.40304 0.1085,0.69757 0.496,0.89904 0.2015,0.093 0.403,0.093 0.496,0.093 0.6975,0 1.1935,-0.38748 1.5965,-1.08496 4.6655,-8.246 6.2465,-18.75504 6.1535,-25.00147 0,-0.496 0,-0.79053 0,-1.19357 -0.496,-12.80296 -7.843,-22.226955 -7.843,-22.226955 0.2945,0 -9.1295,-12.198525 -11.811,-16.368 C 1519.285,74.006 1517.5955,68.364 1517.394,67.961 c -0.093,-0.294495 -0.992,-3.875 -0.992,-3.875 -0.093,-0.3875 -0.589,-0.790505 -1.1935,-0.790505 -0.6975,0 -1.2865,0.604505 -1.2865,1.286505 v 22.428475"
     id="path5533"
     style="stroke-width:0.992" />
  <path
     class="Note"
     d="m 2559.972,124.4585 c 0,4.2625 3.069,9.02102 11.1135,9.02102 10.3075,0 21.1265,-8.43202 21.1265,-17.15852 0,-5.859 -4.96,-9.12948 -11.1135,-9.12948 -9.6255,0 -21.1265,8.13748 -21.1265,17.26698"
     id="path5535"
     style="stroke-width:0.992" />
  <path
     class="Note"
     d="m 1135.932,136.8585 c 0,4.2625 3.069,9.02102 11.1135,9.02102 10.3075,0 21.1265,-8.43202 21.1265,-17.15852 0,-5.859 -4.96,-9.12948 -11.1135,-9.12948 -9.6255,0 -21.1265,8.13748 -21.1265,17.26698"
     id="path5537"
     style="stroke-width:0.992" />
  <path
     class="Note"
     d="m 2050.112,136.8585 c 0,4.2625 3.069,9.02102 11.1135,9.02102 10.3075,0 21.1265,-8.43202 21.1265,-17.15852 0,-5.859 -4.96,-9.12948 -11.1135,-9.12948 -9.6255,0 -21.1265,8.13748 -21.1265,17.26698"
     id="path5539"
     style="stroke-width:0.992" />
  <path
     class="Note"
     d="m 2599.302,112.0585 c 0,4.2625 3.069,9.02102 11.1135,9.02102 10.3075,0 21.1265,-8.43202 21.1265,-17.15852 0,-5.859 -4.96,-9.129475 -11.1135,-9.129475 -9.6255,0 -21.1265,8.137475 -21.1265,17.266975"
     id="path5541"
     style="stroke-width:0.992" />
  <path
     class="Note"
     d="m 1082.622,149.2585 c 0,4.2625 3.069,9.02102 11.1135,9.02102 10.3075,0 21.1265,-8.43202 21.1265,-17.15852 0,-5.859 -4.96,-9.12948 -11.1135,-9.12948 -9.6255,0 -21.1265,8.13748 -21.1265,17.26698"
     id="path5543"
     style="stroke-width:0.992" />
  <path
     class="Note"
     d="m 940.61852,131.99152 c -9.62547,0 -21.12652,8.04448 -21.12652,17.26698 0,4.2625 3.069,9.02102 11.11348,9.02102 10.30757,0 21.12652,-8.43202 21.12652,-17.15852 0,-5.859 -4.96,-9.12948 -11.11348,-9.12948 M 937.93705,149.46 c -0.29453,0.186 -7.53305,4.154 -11.00505,4.154 -3.2705,0 -3.968,-2.666 -3.968,-3.565 0,-4.1695 9.92,-9.021 10.32305,-9.2225 0.38747,-0.2015 7.44,-4.1695 11.00495,-4.1695 2.38705,0 3.968,1.395 3.968,3.565 0,4.278 -10.01295,9.0365 -10.32295,9.238"
     id="path5545"
     style="stroke-width:0.992" />
  <path
     class="Note"
     d="m 2648.112,99.658505 c 0,4.262495 3.069,9.021015 11.1135,9.021015 10.3075,0 21.1265,-8.43202 21.1265,-17.15852 0,-5.859 -4.96,-9.129475 -11.1135,-9.129475 -9.6255,0 -21.1265,8.137475 -21.1265,17.26698"
     id="path5547"
     style="stroke-width:0.992" />
  <path
     class="Note"
     d="m 814.602,124.4585 c 0,4.2625 3.069,9.02102 11.11348,9.02102 10.30757,0 21.12652,-8.43202 21.12652,-17.15852 0,-5.859 -4.96,-9.12948 -11.11348,-9.12948 -9.62547,0 -21.12652,8.13748 -21.12652,17.26698"
     id="path5549"
     style="stroke-width:0.992" />
  <path
     class="Note"
     d="m 765.792,99.658505 c 0,4.262495 3.069,9.021015 11.11348,9.021015 10.30757,0 21.12652,-8.43202 21.12652,-17.15852 0,-5.859 -4.96,-9.129475 -11.11348,-9.129475 -9.62547,0 -21.12652,8.137475 -21.12652,17.26698"
     id="path5551"
     style="stroke-width:0.992" />
  <path
     class="Note"
     d="m 726.462,112.0585 c 0,4.2625 3.069,9.02102 11.11348,9.02102 10.30757,0 21.12652,-8.43202 21.12652,-17.15852 0,-5.859 -4.96,-9.129475 -11.11348,-9.129475 -9.62547,0 -21.12652,8.137475 -21.12652,17.266975"
     id="path5553"
     style="stroke-width:0.992" />
  <path
     class="Note"
     d="m 2753.002,149.2585 c 0,4.2625 3.069,9.02102 11.1135,9.02102 10.3075,0 21.1265,-8.43202 21.1265,-17.15852 0,-5.859 -4.96,-9.12948 -11.1135,-9.12948 -9.6255,0 -21.1265,8.13748 -21.1265,17.26698"
     id="path5555"
     style="stroke-width:0.992" />
  <path
     class="Note"
     d="m 677.652,124.4585 c 0,4.2625 3.069,9.02102 11.11348,9.02102 10.30757,0 21.12652,-8.43202 21.12652,-17.15852 0,-5.859 -4.96,-9.12948 -11.11348,-9.12948 -9.62547,0 -21.12652,8.13748 -21.12652,17.26698"
     id="path5557"
     style="stroke-width:0.992" />
  <path
     class="Note"
     d="m 572.766,136.8585 c 0,4.2625 3.069,9.02102 11.11348,9.02102 10.30757,0 21.12652,-8.43202 21.12652,-17.15852 0,-5.859 -4.96,-9.12948 -11.11348,-9.12948 -9.62547,0 -21.12652,8.13748 -21.12652,17.26698"
     id="path5559"
     style="stroke-width:0.992" />
  <path
     class="Note"
     d="m 523.954,112.0585 c 0,4.2625 3.069,9.02102 11.11348,9.02102 10.30757,0 21.12652,-8.43202 21.12652,-17.15852 0,-5.859 -4.96,-9.129475 -11.11348,-9.129475 -9.62547,0 -21.12652,8.137475 -21.12652,17.266975"
     id="path5561"
     style="stroke-width:0.992" />
  <path
     class="Note"
     d="m 2098.922,124.4585 c 0,4.2625 3.069,9.02102 11.1135,9.02102 10.3075,0 21.1265,-8.43202 21.1265,-17.15852 0,-5.859 -4.96,-9.12948 -11.1135,-9.12948 -9.6255,0 -21.1265,8.13748 -21.1265,17.26698"
     id="path5563"
     style="stroke-width:0.992" />
  <path
     class="Note"
     d="m 2806.302,136.8585 c 0,4.2625 3.069,9.02102 11.1135,9.02102 10.3075,0 21.1265,-8.43202 21.1265,-17.15852 0,-5.859 -4.96,-9.12948 -11.1135,-9.12948 -9.6255,0 -21.1265,8.13748 -21.1265,17.26698"
     id="path5565"
     style="stroke-width:0.992" />
  <path
     class="Note"
     d="m 484.63,124.4585 c 0,4.2625 3.069,9.02102 11.11348,9.02102 10.30757,0 21.12652,-8.43202 21.12652,-17.15852 0,-5.859 -4.96,-9.12948 -11.11348,-9.12948 -9.62547,0 -21.12652,8.13748 -21.12652,17.26698"
     id="path5567"
     style="stroke-width:0.992" />
  <path
     class="Note"
     d="m 1865.7985,131.99152 c -9.6255,0 -21.1265,8.04448 -21.1265,17.26698 0,4.2625 3.069,9.02102 11.1135,9.02102 10.3075,0 21.1265,-8.43202 21.1265,-17.15852 0,-5.859 -4.96,-9.12948 -11.1135,-9.12948 M 1863.117,149.46 c -0.2945,0.186 -7.533,4.154 -11.005,4.154 -3.2705,0 -3.968,-2.666 -3.968,-3.565 0,-4.1695 9.92,-9.021 10.323,-9.2225 0.3875,-0.2015 7.44,-4.1695 11.005,-4.1695 2.387,0 3.968,1.395 3.968,3.565 0,4.278 -10.013,9.0365 -10.323,9.238"
     id="path5569"
     style="stroke-width:0.992" />
  <path
     class="Note"
     d="m 2845.622,124.4585 c 0,4.2625 3.069,9.02102 11.1135,9.02102 10.3075,0 21.1265,-8.43202 21.1265,-17.15852 0,-5.859 -4.96,-9.12948 -11.1135,-9.12948 -9.6255,0 -21.1265,8.13748 -21.1265,17.26698"
     id="path5571"
     style="stroke-width:0.992" />
  <path
     class="Note"
     d="m 435.819,136.8585 c 0,4.2625 3.069,9.02102 11.11348,9.02102 10.30757,0 21.12652,-8.43202 21.12652,-17.15852 0,-5.859 -4.96,-9.12948 -11.11348,-9.12948 -9.62547,0 -21.12652,8.13748 -21.12652,17.26698"
     id="path5573"
     style="stroke-width:0.992" />
  <path
     class="Note"
     d="m 330.93,136.8585 c 0,4.2625 3.069,9.02102 11.11348,9.02102 10.30757,0 21.12652,-8.43202 21.12652,-17.15852 0,-5.859 -4.96,-9.12948 -11.11348,-9.12948 -9.62547,0 -21.12652,8.13748 -21.12652,17.26698"
     id="path5575"
     style="stroke-width:0.992" />
  <path
     class="Note"
     d="m 1175.252,124.4585 c 0,4.2625 3.069,9.02102 11.1135,9.02102 10.3075,0 21.1265,-8.43202 21.1265,-17.15852 0,-5.859 -4.96,-9.12948 -11.1135,-9.12948 -9.6255,0 -21.1265,8.13748 -21.1265,17.26698"
     id="path5577"
     style="stroke-width:0.992" />
  <path
     class="Note"
     d="m 282.118,112.0585 c 0,4.2625 3.069,9.02102 11.11348,9.02102 10.30757,0 21.12652,-8.43202 21.12652,-17.15852 0,-5.859 -4.96,-9.129475 -11.11348,-9.129475 -9.62547,0 -21.12652,8.137475 -21.12652,17.266975"
     id="path5579"
     style="stroke-width:0.992" />
  <path
     class="Note"
     d="m 242.795,124.4585 c 0,4.2625 3.069,9.02102 11.11348,9.02102 10.30757,0 21.12652,-8.43202 21.12652,-17.15852 0,-5.859 -4.96,-9.12948 -11.11348,-9.12948 -9.62547,0 -21.12652,8.13748 -21.12652,17.26698"
     id="path5581"
     style="stroke-width:0.992" />
  <path
     class="Note"
     d="m 193.983,136.8585 c 0,4.2625 3.069,9.02102 11.11348,9.02102 10.30757,0 21.12652,-8.43202 21.12652,-17.15852 0,-5.859 -4.96,-9.12948 -11.11348,-9.12948 -9.62547,0 -21.12652,8.13748 -21.12652,17.26698"
     id="path5583"
     style="stroke-width:0.992" />
  <path
     class="Note"
     d="m 2138.252,136.8585 c 0,4.2625 3.069,9.02102 11.1135,9.02102 10.3075,0 21.1265,-8.43202 21.1265,-17.15852 0,-5.859 -4.96,-9.12948 -11.1135,-9.12948 -9.6255,0 -21.1265,8.13748 -21.1265,17.26698"
     id="path5585"
     style="stroke-width:0.992" />
  <path
     class="Note"
     d="m 2955.462,149.2585 c 0,4.2625 3.069,9.02102 11.1135,9.02102 10.3075,0 21.1265,-8.43202 21.1265,-17.15852 0,-5.859 -4.96,-9.12948 -11.1135,-9.12948 -9.6255,0 -21.1265,8.13748 -21.1265,17.26698"
     id="path5587"
     style="stroke-width:0.992" />
  <path
     class="Note"
     d="m 1396.042,136.8585 c 0,4.2625 3.069,9.02102 11.1135,9.02102 10.3075,0 21.1265,-8.43202 21.1265,-17.15852 0,-5.859 -4.96,-9.12948 -11.1135,-9.12948 -9.6255,0 -21.1265,8.13748 -21.1265,17.26698"
     id="path5589"
     style="stroke-width:0.992" />
  <path
     class="Note"
     d="m 3008.762,136.8585 c 0,4.2625 3.069,9.02102 11.1135,9.02102 10.3075,0 21.1265,-8.43202 21.1265,-17.15852 0,-5.859 -4.96,-9.12948 -11.1135,-9.12948 -9.6255,0 -21.1265,8.13748 -21.1265,17.26698"
     id="path5591"
     style="stroke-width:0.992" />
  <path
     class="Note"
     d="m 3048.092,124.4585 c 0,4.2625 3.069,9.02102 11.1135,9.02102 10.3075,0 21.1265,-8.43202 21.1265,-17.15852 0,-5.859 -4.96,-9.12948 -11.1135,-9.12948 -9.6255,0 -21.1265,8.13748 -21.1265,17.26698"
     id="path5593"
     style="stroke-width:0.992" />
  <path
     class="Note"
     d="m 2511.162,136.8585 c 0,4.2625 3.069,9.02102 11.1135,9.02102 10.3075,0 21.1265,-8.43202 21.1265,-17.15852 0,-5.859 -4.96,-9.12948 -11.1135,-9.12948 -9.6255,0 -21.1265,8.13748 -21.1265,17.26698"
     id="path5595"
     style="stroke-width:0.992" />
  <path
     class="Note"
     d="m 1739.792,136.8585 c 0,4.2625 3.069,9.02102 11.1135,9.02102 10.3075,0 21.1265,-8.43202 21.1265,-17.15852 0,-5.859 -4.96,-9.12948 -11.1135,-9.12948 -9.6255,0 -21.1265,8.13748 -21.1265,17.26698"
     id="path5597"
     style="stroke-width:0.992" />
  <path
     class="Note"
     d="m 3096.902,112.0585 c 0,4.2625 3.069,9.02102 11.1135,9.02102 10.3075,0 21.1265,-8.43202 21.1265,-17.15852 0,-5.859 -4.96,-9.129475 -11.1135,-9.129475 -9.6255,0 -21.1265,8.137475 -21.1265,17.266975"
     id="path5599"
     style="stroke-width:0.992" />
  <path
     class="Note"
     d="m 2187.062,149.2585 c 0,4.2625 3.069,9.02102 11.1135,9.02102 10.3075,0 21.1265,-8.43202 21.1265,-17.15852 0,-5.859 -4.96,-9.12948 -11.1135,-9.12948 -9.6255,0 -21.1265,8.13748 -21.1265,17.26698"
     id="path5601"
     style="stroke-width:0.992" />
  <path
     class="Note"
     d="m 3201.792,136.8585 c 0,4.2625 3.069,9.02102 11.1135,9.02102 10.3075,0 21.1265,-8.43202 21.1265,-17.15852 0,-5.859 -4.96,-9.12948 -11.1135,-9.12948 -9.6255,0 -21.1265,8.13748 -21.1265,17.26698"
     id="path5603"
     style="stroke-width:0.992" />
  <path
     class="Note"
     d="m 1342.732,149.2585 c 0,4.2625 3.069,9.02102 11.1135,9.02102 10.3075,0 21.1265,-8.43202 21.1265,-17.15852 0,-5.859 -4.96,-9.12948 -11.1135,-9.12948 -9.6255,0 -21.1265,8.13748 -21.1265,17.26698"
     id="path5605"
     style="stroke-width:0.992" />
  <path
     class="Note"
     d="m 1602.842,136.8585 c 0,4.2625 3.069,9.02102 11.1135,9.02102 10.3075,0 21.1265,-8.43202 21.1265,-17.15852 0,-5.859 -4.96,-9.12948 -11.1135,-9.12948 -9.6255,0 -21.1265,8.13748 -21.1265,17.26698"
     id="path5607"
     style="stroke-width:0.992" />
  <path
     class="Note"
     d="m 3250.602,124.4585 c 0,4.2625 3.069,9.02102 11.1135,9.02102 10.3075,0 21.1265,-8.43202 21.1265,-17.15852 0,-5.859 -4.96,-9.12948 -11.1135,-9.12948 -9.6255,0 -21.1265,8.13748 -21.1265,17.26698"
     id="path5609"
     style="stroke-width:0.992" />
  <path
     class="Note"
     d="m 1484.172,149.2585 c 0,4.2625 3.069,9.02102 11.1135,9.02102 10.3075,0 21.1265,-8.43202 21.1265,-17.15852 0,-5.859 -4.96,-9.12948 -11.1135,-9.12948 -9.6255,0 -21.1265,8.13748 -21.1265,17.26698"
     id="path5611"
     style="stroke-width:0.992" />
  <path
     class="Note"
     d="m 3289.922,112.0585 c 0,4.2625 3.069,9.02102 11.1135,9.02102 10.3075,0 21.1265,-8.43202 21.1265,-17.15852 0,-5.859 -4.96,-9.129475 -11.1135,-9.129475 -9.6255,0 -21.1265,8.137475 -21.1265,17.266975"
     id="path5613"
     style="stroke-width:0.992" />
  <path
     class="Note"
     d="m 1651.652,124.4585 c 0,4.2625 3.069,9.02102 11.1135,9.02102 10.3075,0 21.1265,-8.43202 21.1265,-17.15852 0,-5.859 -4.96,-9.12948 -11.1135,-9.12948 -9.6255,0 -21.1265,8.13748 -21.1265,17.26698"
     id="path5615"
     style="stroke-width:0.992" />
  <path
     class="Note"
     d="m 2326.8585,144.39152 c -9.6255,0 -21.1265,8.04448 -21.1265,17.26698 0,4.2625 3.069,9.02102 11.1135,9.02102 10.3075,0 21.1265,-8.43202 21.1265,-17.15852 0,-5.859 -4.96,-9.12948 -11.1135,-9.12948 M 2324.177,161.86 c -0.2945,0.186 -7.533,4.154 -11.005,4.154 -3.2705,0 -3.968,-2.666 -3.968,-3.565 0,-4.1695 9.92,-9.021 10.323,-9.2225 0.3875,-0.2015 7.44,-4.1695 11.005,-4.1695 2.387,0 3.968,1.395 3.968,3.565 0,4.278 -10.013,9.0365 -10.323,9.238"
     id="path5617"
     style="stroke-width:0.992" />
  <path
     class="Note"
     d="m 3442.052,136.8585 c 0,4.2625 3.069,9.02102 11.1135,9.02102 10.3075,0 21.1265,-8.43202 21.1265,-17.15852 0,-5.859 -4.96,-9.12948 -11.1135,-9.12948 -9.6255,0 -21.1265,8.13748 -21.1265,17.26698"
     id="path5619"
     style="stroke-width:0.992" />
  <path
     class="Note"
     d="m 1224.062,149.2585 c 0,4.2625 3.069,9.02102 11.1135,9.02102 10.3075,0 21.1265,-8.43202 21.1265,-17.15852 0,-5.859 -4.96,-9.12948 -11.1135,-9.12948 -9.6255,0 -21.1265,8.13748 -21.1265,17.26698"
     id="path5621"
     style="stroke-width:0.992" />
  <path
     class="Note"
     d="m 3490.872,149.2585 c 0,4.2625 3.069,9.02102 11.1135,9.02102 10.3075,0 21.1265,-8.43202 21.1265,-17.15852 0,-5.859 -4.96,-9.12948 -11.1135,-9.12948 -9.6255,0 -21.1265,8.13748 -21.1265,17.26698"
     id="path5623"
     style="stroke-width:0.992" />
  <path
     class="Note"
     d="m 1690.972,112.0585 c 0,4.2625 3.069,9.02102 11.1135,9.02102 10.3075,0 21.1265,-8.43202 21.1265,-17.15852 0,-5.859 -4.96,-9.129475 -11.1135,-9.129475 -9.6255,0 -21.1265,8.137475 -21.1265,17.266975"
     id="path5625"
     style="stroke-width:0.992" />
  <path
     class="Note"
     d="m 3557.952,161.6585 c 0,4.2625 3.069,9.02102 11.1135,9.02102 10.3075,0 21.1265,-8.43202 21.1265,-17.15852 0,-5.859 -4.96,-9.12948 -11.1135,-9.12948 -9.6255,0 -21.1265,8.13748 -21.1265,17.26698"
     id="path5627"
     style="stroke-width:0.992" />
  <path
     class="Note"
     d="m 1435.362,124.4585 c 0,4.2625 3.069,9.02102 11.1135,9.02102 10.3075,0 21.1265,-8.43202 21.1265,-17.15852 0,-5.859 -4.96,-9.12948 -11.1135,-9.12948 -9.6255,0 -21.1265,8.13748 -21.1265,17.26698"
     id="path5629"
     style="stroke-width:0.992" />
  <path
     class="Clef"
     d="m 60.558525,228.61848 c 0,-3.67348 -3.363475,-5.25443 -6.634,-5.25443 -4.169475,0 -8.246,2.57295 -8.246,7.03695 0,1.89105 0.697475,3.286 2.092525,4.66548 -2.588525,0.992 -5.161575,2.976 -5.161575,6.06052 0,3.27052 2.976,5.456 7.34705,5.456 5.347475,0 9.114,-2.976 9.114,-7.254 0,-2.27852 -0.992,-4.154 -2.774525,-5.456 2.88305,-1.28652 4.262525,-2.86748 4.262525,-5.25452 m -9.92,15.872 c -2.17,0 -3.658,-1.37948 -3.658,-3.472 0,-1.984 0.883475,-3.56496 2.57295,-4.55696 0.40305,0.20148 0.496,0.20148 0.790525,0.38748 1.193475,0.60452 1.193475,0.60452 1.39505,0.806 1.875475,1.08505 2.681475,2.07705 2.681475,3.472 0,1.87548 -1.596525,3.36348 -3.782,3.36348 m 3.782,-11.904 c -1.488,-0.79043 -1.89105,-0.992 -2.185475,-1.19348 L 52.033475,231.3 c -1.488,-0.89905 -1.984,-1.59653 -1.984,-2.77453 0,-1.798 1.39505,-3.08452 3.37905,-3.08452 1.875475,0 3.06895,1.19348 3.06895,3.27052 0,1.59653 -0.58895,2.68148 -2.07695,3.87496 M 82.088,157.2875 c 0,-14.97302 -10.617475,-25.0945 -25.094525,-25.0945 -0.992,-5.952 -1.89095,-11.81105 -2.774425,-17.36 10.416,-11.02052 17.747475,-23.513475 17.747475,-39.184 0,-9.036525 -2.774525,-16.368 -4.464,-19.948128 -2.371475,-5.053248 -5.254525,-8.525248 -6.944,-8.525248 -0.682,0 -3.859475,1.193376 -7.03705,5.053248 C 47.073475,59.777 45.29105,72.363 45.29105,80.70195 c 0,5.36305 0.496,10.214525 2.185475,21.43653 -0.108525,0 -5.27,5.25452 -7.34705,7.03704 C 31.09305,117.51448 18.6,129.60448 18.6,149.3515 c 0,18.64655 16.166525,33.23202 34.62705,33.23202 2.867475,0 5.54895,-0.29452 7.936,-0.69747 1.782425,9.43947 2.976,16.47643 2.976,21.73095 0,10.32305 -5.36305,15.77905 -15.376,15.77905 -2.38705,0 -4.464,-0.496 -4.665575,-0.60453 -0.09295,0 -0.294425,-0.093 -0.294425,-0.186 0,-0.20147 0.201475,-0.31 0.496,-0.40304 4.665475,-0.69748 9.315475,-4.75843 9.315475,-11.00496 0,-5.36304 -4.06105,-11.02052 -11.50105,-11.02052 -6.944,0 -11.31495,5.65748 -11.31495,12.19852 0,6.55653 4.96,15.19 18.352,15.19 12.80295,0 19.049475,-7.254 19.049475,-19.94852 0,-3.85948 -0.58895,-8.32348 -1.58095,-13.98095 -0.294525,-1.984 -0.790525,-5.06853 -1.488,-8.83505 C 74.849475,177.53048 82.088,167.50205 82.088,157.2875 M 51.537475,75.943525 c 0.992,-3.968 5.456,-14.384 10.617575,-14.384 1.488,0 3.968,4.758425 3.968,11.702425 0,10.214525 -7.734525,17.964525 -14.585575,24.8 -0.58895,-3.968 -1.08495,-7.936 -1.08495,-11.99695 0,-3.766525 0.387475,-7.052525 1.08495,-10.121475 m 2.976,102.578955 c -14.182425,0 -26.28797,-9.92 -26.28797,-24.90848 0,-12.09005 8.52502,-22.909 17.26702,-30.55048 1.674,-1.39504 3.270525,-2.77452 4.758525,-4.26252 0.883475,5.34748 1.58095,9.92 2.278425,14.08948 -9.036425,2.57304 -15.174425,12.19852 -15.174425,21.42102 0,7.0525 5.456,16.5695 13.392,16.5695 0.790425,0 1.689475,-0.40295 1.689475,-1.39495 0,-0.79053 -0.89905,-1.37957 -2.185475,-2.17005 -3.87505,-2.294 -6.060525,-4.96 -6.060525,-9.734 0,-6.045 4.572525,-10.91205 10.32295,-12.29152 L 60.264,177.825 c -1.984,0.40305 -3.766525,0.69748 -5.750525,0.69748 m 9.92,-1.89096 c -2.07695,-11.79552 -4.758425,-27.57452 -5.456,-31.94557 10.01305,0 14.29105,6.94405 15.174525,11.71805 0.108525,0.7905 0.294525,1.8755 0.294525,3.069 0,7.1455 -2.976,14.29105 -10.01305,17.15852"
     id="path5631"
     style="stroke-width:0.992" />
  <path
     class="TimeSig"
     d="m 130.20048,103.6265 c -6.06043,0 -8.23043,1.7825 -9.62548,3.2705 -0.29452,-2.077 -0.496,-3.6735 -0.496,-5.2545 0,-1.5965 0.20148,-2.976005 0.496,-4.75855 0.58905,-3.673475 3.06905,-8.246 8.432,-8.246 2.48,0 3.968,0.806 4.96,1.89105 -2.07695,0.89895 -3.76652,3.56495 -3.76652,5.85895 0,3.56505 2.77452,6.33955 6.35504,6.33955 3.56496,0 6.448,-2.7745 6.448,-6.33955 v -0.201475 c 0,0 0,0 0,-0.108525 0,-0.883475 -0.20147,-2.371475 -0.60452,-3.162 -1.28652,-3.580425 -5.456,-8.83495 -15.376,-8.83495 -8.928,0 -15.376,8.52495 -17.36,13.097475 -0.992,2.371525 -2.48,7.238525 -2.48,12.787525 0,6.0605 1.6895,12.89605 7.533,18.05752 5.76605,4.37096 9.42405,4.57253 12.89605,4.57253 3.48747,0 16.47643,-4.07653 16.47643,-15.57755 0,-9.7185 -7.64148,-13.392 -13.888,-13.392 m -3.67348,24.79998 c -3.27052,0 -5.952,-4.464 -5.952,-10.02843 0,-5.54905 2.68148,-10.10605 5.952,-10.10605 3.27052,0 6.06052,4.557 6.06052,10.10605 0,5.56443 -2.79,10.02843 -6.06052,10.02843"
     id="path5633"
     style="stroke-width:0.992" />
  <path
     class="TimeSig"
     d="m 137.54705,155.4585 c 3.27043,-2.48 5.54895,-5.6575 5.54895,-9.6255 0,-7.14548 -7.82748,-12.98905 -17.45295,-12.98905 -9.62557,0 -17.46855,5.84357 -17.46855,12.98905 0,3.968 0.992,7.533 5.6575,10.509 -4.464,2.5885 -6.944,6.262 -6.944,11.02048 0,8.02904 8.432,14.47704 18.75505,14.47704 10.30747,0 18.73947,-6.448 18.73947,-14.47704 0,-4.75848 -1.674,-9.22248 -6.83547,-11.90398 m -11.904,20.83198 c -6.35505,0 -11.81105,-3.472 -11.81105,-9.03643 0,-6.63405 5.16148,-8.23055 5.16148,-8.23055 6.74252,2.2785 16.368,5.6575 16.368,11.1135 0,2.68148 -3.472,6.15348 -9.71843,6.15348 M 131.98252,152.777 C 125.24,150.5915 117.8,147.321 117.8,142.857 c 0,-3.87505 3.56505,-5.456 7.84305,-5.456 6.15347,0 10.30747,2.88295 10.30747,7.44 0,4.7585 -2.17,7.037 -3.968,7.936"
     id="path5635"
     style="stroke-width:0.992" />
  <path
     class="Rest"
     d="m 1930.948,149.15005 c -0.093,-0.0931 -0.2945,-0.29453 -0.589,-0.682 l -11.408,-14.08955 c -0.1085,-0.1085 -0.2015,-0.403 -0.2015,-0.6045 0,-0.2945 0.093,-0.682 0.2015,-0.8835 l 10.106,-15.28298 c 0.1085,-0.20157 0.2015,-0.496 0.2015,-0.69757 v -0.88347 c 0,-0.29453 -0.093,-0.60453 -0.2945,-0.79053 L 1912.8905,93.505 c 0,0 -0.3875,-0.604525 -0.992,-0.604525 -0.2945,0 -0.496,0.108525 -0.7905,0.31 -0.403,0.294525 -0.496,0.682 -0.496,0.992 0,0.58905 0.2945,1.08505 0.2945,1.08505 l 7.5485,10.322955 c 0.186,0.29452 0.2945,0.682 0.2945,1.178 0,0.40304 -0.1085,0.89904 -0.2945,1.19347 l -10.0285,15.28305 c -0.093,0.2015 -0.2015,0.589 -0.2015,0.7905 v 0.899 c 0,0.2945 0.1085,0.589 0.31,0.7905 l 11.098,13.795 c -0.3875,-0.1085 -1.2865,-0.31 -2.48,-0.31 -1.674,0 -3.8595,0.403 -5.642,1.984 -2.1855,1.98405 -3.379,4.77405 -3.379,7.25405 0,1.37947 0.2945,2.77443 1.085,3.85947 2.0925,3.17748 9.5325,12.60148 9.5325,12.60148 0,0 0.496,0.60452 1.1935,0.60452 0.186,0 0.3875,0 0.589,-0.20147 0.496,-0.40305 0.6975,-0.79053 0.6975,-1.19357 0,-0.40296 -0.2015,-0.69748 -0.2945,-0.89896 -0.31,-0.496 -3.472,-6.24652 -3.472,-6.24652 0,0 -0.6975,-1.39495 -0.6975,-3.17748 0,-1.28652 0.3875,-2.86747 1.6895,-4.16947 1.178,-1.178 2.573,-1.58105 3.8595,-1.58105 1.2865,0 2.387,0.40305 3.1775,0.89905 l 3.875,2.48 c 0,0 0.3875,0.186 0.7905,0.186 0.3875,0 0.6975,-0.0931 0.992,-0.496 0.2015,-0.38757 0.2945,-0.58905 0.2945,-0.88357 0,-0.29443 -0.093,-0.496 -0.2945,-0.79043 l -0.2015,-0.31"
     id="path5637"
     style="stroke-width:0.992" />
  <path
     class="Rest"
     d="m 2391.998,149.15005 c -0.093,-0.0931 -0.2945,-0.29453 -0.589,-0.682 l -11.408,-14.08955 c -0.1085,-0.1085 -0.2015,-0.403 -0.2015,-0.6045 0,-0.2945 0.093,-0.682 0.2015,-0.8835 l 10.106,-15.28298 c 0.1085,-0.20157 0.2015,-0.496 0.2015,-0.69757 v -0.88347 c 0,-0.29453 -0.093,-0.60453 -0.2945,-0.79053 L 2373.9405,93.505 c 0,0 -0.3875,-0.604525 -0.992,-0.604525 -0.2945,0 -0.496,0.108525 -0.7905,0.31 -0.403,0.294525 -0.496,0.682 -0.496,0.992 0,0.58905 0.2945,1.08505 0.2945,1.08505 l 7.5485,10.322955 c 0.186,0.29452 0.2945,0.682 0.2945,1.178 0,0.40304 -0.1085,0.89904 -0.2945,1.19347 l -10.0285,15.28305 c -0.093,0.2015 -0.2015,0.589 -0.2015,0.7905 v 0.899 c 0,0.2945 0.1085,0.589 0.31,0.7905 l 11.098,13.795 c -0.3875,-0.1085 -1.2865,-0.31 -2.48,-0.31 -1.674,0 -3.8595,0.403 -5.642,1.984 -2.1855,1.98405 -3.379,4.77405 -3.379,7.25405 0,1.37947 0.2945,2.77443 1.085,3.85947 2.0925,3.17748 9.5325,12.60148 9.5325,12.60148 0,0 0.496,0.60452 1.1935,0.60452 0.186,0 0.3875,0 0.589,-0.20147 0.496,-0.40305 0.6975,-0.79053 0.6975,-1.19357 0,-0.40296 -0.2015,-0.69748 -0.2945,-0.89896 -0.31,-0.496 -3.472,-6.24652 -3.472,-6.24652 0,0 -0.6975,-1.39495 -0.6975,-3.17748 0,-1.28652 0.3875,-2.86747 1.6895,-4.16947 1.178,-1.178 2.573,-1.58105 3.8595,-1.58105 1.2865,0 2.387,0.40305 3.1775,0.89905 l 3.875,2.48 c 0,0 0.3875,0.186 0.7905,0.186 0.3875,0 0.6975,-0.0931 0.992,-0.496 0.2015,-0.38757 0.2945,-0.58905 0.2945,-0.88357 0,-0.29443 -0.093,-0.496 -0.2945,-0.79043 l -0.2015,-0.31"
     id="path5639"
     style="stroke-width:0.992" />
  <path
     class="Rest"
     d="m 1005.758,149.15005 c -0.093,-0.0931 -0.2945,-0.29453 -0.589,-0.682 L 993.76105,134.3785 c -0.10853,-0.1085 -0.20157,-0.403 -0.20157,-0.6045 0,-0.2945 0.093,-0.682 0.20157,-0.8835 l 10.10595,-15.28298 c 0.1085,-0.20157 0.2015,-0.496 0.2015,-0.69757 v -0.88347 c 0,-0.29453 -0.093,-0.60453 -0.2945,-0.79053 L 987.7005,93.505 c 0,0 -0.3875,-0.604525 -0.992,-0.604525 -0.2945,0 -0.496,0.108525 -0.7905,0.31 -0.403,0.294525 -0.496,0.682 -0.496,0.992 0,0.58905 0.2945,1.08505 0.2945,1.08505 l 7.54855,10.322955 c 0.186,0.29452 0.29443,0.682 0.29443,1.178 0,0.40304 -0.10843,0.89904 -0.29443,1.19347 L 983.2365,123.265 c -0.093,0.2015 -0.2015,0.589 -0.2015,0.7905 v 0.899 c 0,0.2945 0.1085,0.589 0.31,0.7905 l 11.09805,13.795 c -0.38757,-0.1085 -1.28653,-0.31 -2.48005,-0.31 -1.674,0 -3.8595,0.403 -5.642,1.984 -2.1855,1.98405 -3.379,4.77405 -3.379,7.25405 0,1.37947 0.2945,2.77443 1.085,3.85947 2.0925,3.17748 9.53248,12.60148 9.53248,12.60148 0,0 0.496,0.60452 1.19357,0.60452 0.186,0 0.38747,0 0.58895,-0.20147 0.496,-0.40305 0.69748,-0.79053 0.69748,-1.19357 0,-0.40296 -0.20148,-0.69748 -0.29443,-0.89896 -0.31,-0.496 -3.47205,-6.24652 -3.47205,-6.24652 0,0 -0.6975,-1.39495 -0.6975,-3.17748 0,-1.28652 0.3875,-2.86747 1.68955,-4.16947 1.178,-1.178 2.57295,-1.58105 3.85947,-1.58105 1.28653,0 2.38696,0.40305 3.17748,0.89905 l 3.875,2.48 c 0,0 0.3875,0.186 0.7905,0.186 0.3875,0 0.6975,-0.0931 0.992,-0.496 0.2015,-0.38757 0.2945,-0.58905 0.2945,-0.88357 0,-0.29443 -0.093,-0.496 -0.2945,-0.79043 l -0.2015,-0.31"
     id="path5641"
     style="stroke-width:0.992" />
  <path
     class="VoltaSegment"
     d="m 1601.762,16.988 h -1.92 c -3.47,2.594 -7.38,3.687 -13.92,3.797 v 3.078 h 2.31 c 4.89,0 4.95,0.109 4.89,4.625 v 19.516 c 0,3.406 0,3.578 -0.37,4.125 -0.5,0.609 -1.61,0.828 -4.58,0.828 h -1.75 v 2.968 h 21.94 v -2.968 h -1.77 c -2.91,0 -3.95,-0.219 -4.45,-0.828 -0.38,-0.547 -0.38,-0.766 -0.38,-4.125 V 16.988 m 19.24,29.422 c -2.86,0 -5.18,2.312 -5.18,5.172 0,2.797 2.32,5.172 5.13,5.172 2.91,0 5.22,-2.313 5.22,-5.172 0,-2.86 -2.31,-5.172 -5.17,-5.172"
     id="path5643" />
  <polyline
     class="VoltaSegment"
     fill="none"
     stroke="#000000"
     stroke-width="2.73"
     stroke-linejoin="miter"
     stroke-miterlimit="2"
     points="1907.08,607.034 1907.08,552.474 2329.79,552.474 2329.79,607.034"
     id="polyline5645"
     transform="translate(-336.598,-551.109)" />
  <path
     class="VoltaSegment"
     d="m 2057.862,41.3 -0.61,2.75 c -0.5,2.204 -0.83,2.907 -1.26,3.188 -0.55,0.391 -0.66,0.391 -4.13,0.437 h -10.61 c 1.92,-1.656 3.36,-2.687 5.5,-4.125 7.75,-5 9.35,-6.218 10.94,-8.25 1.87,-2.468 2.97,-5.39 2.97,-7.968 0,-5.891 -5.77,-10.344 -13.52,-10.344 -7.48,0 -13.26,4.844 -13.26,11.109 0,3.844 2.15,6.328 5.45,6.328 2.86,0 4.67,-1.812 4.67,-4.671 0,-2.375 -1.05,-3.75 -3.58,-4.954 -0.61,-0.281 -0.87,-0.609 -0.87,-1.046 0,-1.766 2.97,-3.625 5.72,-3.625 3.84,0 6.04,2.359 6.04,6.437 0,4.563 -1.76,7.797 -7.59,14.016 -6.16,6.547 -8.3,9.015 -11.05,12.984 v 2.578 c 1.43,-0.156 2.03,-0.219 2.86,-0.219 h 20.67 c 1.05,0 1.71,0.063 3.36,0.219 l 1.27,-14.844 h -2.97 m 13.41,5.11 c -2.86,0 -5.17,2.312 -5.17,5.172 0,2.797 2.31,5.172 5.12,5.172 2.91,0 5.22,-2.313 5.22,-5.172 0,-2.86 -2.31,-5.172 -5.17,-5.172"
     id="path5647" />
  <polyline
     class="VoltaSegment"
     fill="none"
     stroke="#000000"
     stroke-width="2.73"
     stroke-linejoin="miter"
     stroke-miterlimit="2"
     points="2354.35,607.034 2354.35,552.474 2771.36,552.474"
     id="polyline5649"
     transform="translate(-336.598,-551.109)" />
  <path
     class="VoltaSegment"
     d="m 3200.712,16.988 h -1.92 c -3.47,2.594 -7.38,3.687 -13.93,3.797 v 3.078 h 2.32 c 4.89,0 4.95,0.109 4.89,4.625 v 19.516 c 0,3.406 0,3.578 -0.38,4.125 -0.5,0.609 -1.61,0.828 -4.58,0.828 h -1.75 v 2.968 h 21.94 v -2.968 h -1.76 c -2.91,0 -3.96,-0.219 -4.46,-0.828 -0.37,-0.547 -0.37,-0.766 -0.37,-4.125 V 16.988 m 19.23,29.422 c -2.86,0 -5.17,2.312 -5.17,5.172 0,2.797 2.31,5.172 5.13,5.172 2.9,0 5.21,-2.313 5.21,-5.172 0,-2.86 -2.31,-5.172 -5.17,-5.172"
     id="path5651" />
  <polyline
     class="VoltaSegment"
     fill="none"
     stroke="#000000"
     stroke-width="2.73"
     stroke-linejoin="miter"
     stroke-miterlimit="2"
     points="3506.02,607.034 3506.02,552.474 3721.74,552.474 3721.74,607.034"
     id="polyline5653"
     transform="translate(-336.598,-551.109)" />
  <path
     class="VoltaSegment"
     d="m 3449.802,41.3 -0.61,2.75 c -0.5,2.204 -0.82,2.907 -1.26,3.188 -0.55,0.391 -0.66,0.391 -4.13,0.437 h -10.61 c 1.93,-1.656 3.36,-2.687 5.5,-4.125 7.75,-5 9.35,-6.218 10.94,-8.25 1.88,-2.468 2.97,-5.39 2.97,-7.968 0,-5.891 -5.76,-10.344 -13.51,-10.344 -7.49,0 -13.27,4.844 -13.27,11.109 0,3.844 2.16,6.328 5.45,6.328 2.86,0 4.67,-1.812 4.67,-4.671 0,-2.375 -1.04,-3.75 -3.57,-4.954 -0.61,-0.281 -0.88,-0.609 -0.88,-1.046 0,-1.766 2.97,-3.625 5.72,-3.625 3.84,0 6.05,2.359 6.05,6.437 0,4.563 -1.77,7.797 -7.6,14.016 -6.15,6.547 -8.29,9.015 -11.04,12.984 v 2.578 c 1.42,-0.156 2.03,-0.219 2.86,-0.219 h 20.67 c 1.04,0 1.7,0.063 3.36,0.219 l 1.26,-14.844 h -2.97 m 13.41,5.11 c -2.86,0 -5.17,2.312 -5.17,5.172 0,2.797 2.31,5.172 5.12,5.172 2.91,0 5.22,-2.313 5.22,-5.172 0,-2.86 -2.31,-5.172 -5.17,-5.172"
     id="path5655" />
  <polyline
     class="VoltaSegment"
     fill="none"
     stroke="#000000"
     stroke-width="2.73"
     stroke-linejoin="miter"
     stroke-miterlimit="2"
     points="3746.29,607.034 3746.29,552.474 3994.83,552.474"
     id="polyline5657"
     transform="translate(-336.598,-551.109)" />
  <path
     class="NoteDot"
     d="m 2890.252,120.289 c 0,2.7745 2.1855,4.96 4.96,4.96 2.7745,0 4.96,-2.1855 4.96,-4.96 0,-2.7745 -2.1855,-4.96 -4.96,-4.96 -2.7745,0 -4.96,2.1855 -4.96,4.96"
     id="path5659"
     style="stroke-width:0.992" />
  <path
     class="NoteDot"
     d="m 3334.552,95.489 c 0,2.774505 2.1855,4.96 4.96,4.96 2.7745,0 4.96,-2.185495 4.96,-4.96 0,-2.774505 -2.1855,-4.96 -4.96,-4.96 -2.7745,0 -4.96,2.185495 -4.96,4.96"
     id="path5661"
     style="stroke-width:0.992" />
  <path
     class="NoteDot"
     d="m 3602.572,145.089 c 0,2.7745 2.1855,4.96 4.96,4.96 2.7745,0 4.96,-2.1855 4.96,-4.96 0,-2.7745 -2.1855,-4.96 -4.96,-4.96 -2.7745,0 -4.96,2.1855 -4.96,4.96"
     id="path5663"
     style="stroke-width:0.992" />
</svg>
