<?xml version="1.0" encoding="UTF-8" standalone="no"?>
<svg
   xmlns:dc="http://purl.org/dc/elements/1.1/"
   xmlns:cc="http://creativecommons.org/ns#"
   xmlns:rdf="http://www.w3.org/1999/02/22-rdf-syntax-ns#"
   xmlns:svg="http://www.w3.org/2000/svg"
   xmlns="http://www.w3.org/2000/svg"
   xmlns:sodipodi="http://sodipodi.sourceforge.net/DTD/sodipodi-0.dtd"
   xmlns:inkscape="http://www.inkscape.org/namespaces/inkscape"
   width="3659.6021"
   height="192.94948"
   viewBox="0 0 3659.6021 192.94948"
   version="1.2"
   id="svg1805"
   sodipodi:docname="Dossium Canto Huisvoogd Musica.svg"
   inkscape:version="1.0.2-2 (e86c870879, 2021-01-15)">
  <metadata
     id="metadata1811">
    <rdf:RDF>
      <cc:Work
         rdf:about="">
        <dc:format>image/svg+xml</dc:format>
        <dc:type
           rdf:resource="http://purl.org/dc/dcmitype/StillImage" />
      </cc:Work>
    </rdf:RDF>
  </metadata>
  <defs
     id="defs1809" />
  <sodipodi:namedview
     pagecolor="#ffffff"
     bordercolor="#666666"
     borderopacity="1"
     objecttolerance="10"
     gridtolerance="10"
     guidetolerance="10"
     inkscape:pageopacity="0"
     inkscape:pageshadow="2"
     inkscape:window-width="1920"
     inkscape:window-height="991"
     id="namedview1807"
     showgrid="false"
     inkscape:zoom="0.27542658"
     inkscape:cx="1767.602"
     inkscape:cy="904.69945"
     inkscape:window-x="-9"
     inkscape:window-y="-9"
     inkscape:window-maximized="1"
     inkscape:current-layer="svg1805" />
  <title
     id="title1625">Dossium Canto Huisvoogd Musica</title>
  <desc
     id="desc1627">Generated by MuseScore Studio 4.4.4</desc>
  <polyline
     class="StaffLines"
     fill="none"
     stroke="#000000"
     stroke-width="2.73"
     stroke-linejoin="bevel"
     points="336.598,634.198 3996.2,634.198"
     id="polyline1629"
     transform="translate(-336.598,-583.90052)" />
  <polyline
     class="StaffLines"
     fill="none"
     stroke="#000000"
     stroke-width="2.73"
     stroke-linejoin="bevel"
     points="336.598,658.998 3996.2,658.998"
     id="polyline1631"
     transform="translate(-336.598,-583.90052)" />
  <polyline
     class="StaffLines"
     fill="none"
     stroke="#000000"
     stroke-width="2.73"
     stroke-linejoin="bevel"
     points="336.598,683.798 3996.2,683.798"
     id="polyline1633"
     transform="translate(-336.598,-583.90052)" />
  <polyline
     class="StaffLines"
     fill="none"
     stroke="#000000"
     stroke-width="2.73"
     stroke-linejoin="bevel"
     points="336.598,708.598 3996.2,708.598"
     id="polyline1635"
     transform="translate(-336.598,-583.90052)" />
  <polyline
     class="StaffLines"
     fill="none"
     stroke="#000000"
     stroke-width="2.73"
     stroke-linejoin="bevel"
     points="336.598,733.398 3996.2,733.398"
     id="polyline1637"
     transform="translate(-336.598,-583.90052)" />
  <path
     class="TieSegment"
     stroke="#000000"
     stroke-width="1.24"
     stroke-linecap="round"
     stroke-linejoin="round"
     fill-rule="evenodd"
     d="m 2498.822,81.801475 c 34.6,-29.595 138.4,-29.595 173,0 -34.6,-21.659 -138.4,-21.659 -173,0"
     id="path1647" />
  <polyline
     class="BarLine"
     fill="none"
     stroke="#000000"
     stroke-width="4.46"
     stroke-linejoin="bevel"
     points="2959.62,632.834 2959.62,734.762"
     id="polyline1649"
     transform="translate(-336.598,-583.90052)" />
  <polyline
     class="BarLine"
     fill="none"
     stroke="#000000"
     stroke-width="4.46"
     stroke-linejoin="bevel"
     points="1452.03,632.834 1452.03,734.762"
     id="polyline1651"
     transform="translate(-336.598,-583.90052)" />
  <polyline
     class="BarLine"
     fill="none"
     stroke="#000000"
     stroke-width="4.46"
     stroke-linejoin="bevel"
     points="2401.67,632.834 2401.67,734.762"
     id="polyline1653"
     transform="translate(-336.598,-583.90052)" />
  <polyline
     class="BarLine"
     fill="none"
     stroke="#000000"
     stroke-width="4.46"
     stroke-linejoin="bevel"
     points="1055.29,632.834 1055.29,734.762"
     id="polyline1655"
     transform="translate(-336.598,-583.90052)" />
  <polyline
     class="BarLine"
     fill="none"
     stroke="#000000"
     stroke-width="4.46"
     stroke-linejoin="bevel"
     points="2009.97,632.834 2009.97,734.762"
     id="polyline1657"
     transform="translate(-336.598,-583.90052)" />
  <polyline
     class="BarLine"
     fill="none"
     stroke="#000000"
     stroke-width="4.46"
     stroke-linejoin="bevel"
     points="3413.21,632.834 3413.21,734.762"
     id="polyline1659"
     transform="translate(-336.598,-583.90052)" />
  <polyline
     class="BarLine"
     fill="none"
     stroke="#000000"
     stroke-width="4.46"
     stroke-linejoin="bevel"
     points="3971.15,632.834 3971.15,734.762"
     id="polyline1661"
     transform="translate(-336.598,-583.90052)" />
  <polyline
     class="BarLine"
     fill="none"
     stroke="#000000"
     stroke-width="13.64"
     stroke-linejoin="bevel"
     points="3989.38,632.834 3989.38,734.762"
     id="polyline1663"
     transform="translate(-336.598,-583.90052)" />
  <polyline
     class="LedgerLine"
     fill="none"
     stroke="#000000"
     stroke-width="3.97"
     stroke-linejoin="bevel"
     points="2248.76,609.398 2297.35,609.398"
     id="polyline1665"
     transform="translate(-336.598,-583.90052)" />
  <polyline
     class="Stem"
     fill="none"
     stroke="#000000"
     stroke-width="2.48"
     stroke-linejoin="bevel"
     points="864.308,687.965 864.308,758.198"
     id="polyline1667"
     transform="translate(-336.598,-583.90052)" />
  <polyline
     class="Stem"
     fill="none"
     stroke="#000000"
     stroke-width="2.48"
     stroke-linejoin="bevel"
     points="1818.99,687.965 1818.99,751.998"
     id="polyline1669"
     transform="translate(-336.598,-583.90052)" />
  <polyline
     class="Stem"
     fill="none"
     stroke="#000000"
     stroke-width="2.48"
     stroke-linejoin="bevel"
     points="959.304,712.765 959.304,770.439"
     id="polyline1671"
     transform="translate(-336.598,-583.90052)" />
  <polyline
     class="Stem"
     fill="none"
     stroke="#000000"
     stroke-width="2.48"
     stroke-linejoin="bevel"
     points="2531.14,663.165 2531.14,739.598"
     id="polyline1673"
     transform="translate(-336.598,-583.90052)" />
  <polyline
     class="Stem"
     fill="none"
     stroke="#000000"
     stroke-width="2.48"
     stroke-linejoin="bevel"
     points="1089.76,687.965 1089.76,758.198"
     id="polyline1675"
     transform="translate(-336.598,-583.90052)" />
  <polyline
     class="Stem"
     fill="none"
     stroke="#000000"
     stroke-width="2.48"
     stroke-linejoin="bevel"
     points="1913.98,663.165 1913.98,751.998"
     id="polyline1677"
     transform="translate(-336.598,-583.90052)" />
  <polyline
     class="Stem"
     fill="none"
     stroke="#000000"
     stroke-width="2.48"
     stroke-linejoin="bevel"
     points="2258.19,601.165 2258.19,683.798"
     id="polyline1679"
     transform="translate(-336.598,-583.90052)" />
  <polyline
     class="Stem"
     fill="none"
     stroke="#000000"
     stroke-width="2.48"
     stroke-linejoin="bevel"
     points="1300.15,741.83 1300.15,658.998"
     id="polyline1681"
     transform="translate(-336.598,-583.90052)" />
  <polyline
     class="Stem"
     fill="none"
     stroke="#000000"
     stroke-width="2.48"
     stroke-linejoin="bevel"
     points="2044.44,625.965 2044.44,708.598"
     id="polyline1683"
     transform="translate(-336.598,-583.90052)" />
  <polyline
     class="Stem"
     fill="none"
     stroke="#000000"
     stroke-width="2.48"
     stroke-linejoin="bevel"
     points="2750.88,704.63 2750.88,621.997"
     id="polyline1685"
     transform="translate(-336.598,-583.90052)" />
  <polyline
     class="Stem"
     fill="none"
     stroke="#000000"
     stroke-width="2.48"
     stroke-linejoin="bevel"
     points="2436.14,625.965 2436.14,727.358"
     id="polyline1687"
     transform="translate(-336.598,-583.90052)" />
  <polyline
     class="Stem"
     fill="none"
     stroke="#000000"
     stroke-width="2.48"
     stroke-linejoin="bevel"
     points="1516.25,704.63 1516.25,621.798"
     id="polyline1689"
     transform="translate(-336.598,-583.90052)" />
  <polyline
     class="Stem"
     fill="none"
     stroke="#000000"
     stroke-width="2.48"
     stroke-linejoin="bevel"
     points="561.565,704.63 561.565,621.798"
     id="polyline1691"
     transform="translate(-336.598,-583.90052)" />
  <polyline
     class="Stem"
     fill="none"
     stroke="#000000"
     stroke-width="2.48"
     stroke-linejoin="bevel"
     points="1629,687.965 1629,764.299"
     id="polyline1693"
     transform="translate(-336.598,-583.90052)" />
  <polyline
     class="Stem"
     fill="none"
     stroke="#000000"
     stroke-width="2.48"
     stroke-linejoin="bevel"
     points="2626.14,687.965 2626.14,751.839"
     id="polyline1695"
     transform="translate(-336.598,-583.90052)" />
  <polyline
     class="Stem"
     fill="none"
     stroke="#000000"
     stroke-width="2.48"
     stroke-linejoin="bevel"
     points="1723.99,663.165 1723.99,751.998"
     id="polyline1697"
     transform="translate(-336.598,-583.90052)" />
  <polyline
     class="Stem"
     fill="none"
     stroke="#000000"
     stroke-width="2.48"
     stroke-linejoin="bevel"
     points="3118.83,741.83 3118.83,658.998"
     id="polyline1699"
     transform="translate(-336.598,-583.90052)" />
  <polyline
     class="Stem"
     fill="none"
     stroke="#000000"
     stroke-width="2.48"
     stroke-linejoin="bevel"
     points="3299.46,704.63 3299.46,621.798"
     id="polyline1701"
     transform="translate(-336.598,-583.90052)" />
  <polyline
     class="Stem"
     fill="none"
     stroke="#000000"
     stroke-width="2.48"
     stroke-linejoin="bevel"
     points="674.315,687.965 674.315,764.299"
     id="polyline1703"
     transform="translate(-336.598,-583.90052)" />
  <polyline
     class="Stem"
     fill="none"
     stroke="#000000"
     stroke-width="2.48"
     stroke-linejoin="bevel"
     points="2816.13,687.965 2816.13,758.198"
     id="polyline1705"
     transform="translate(-336.598,-583.90052)" />
  <polyline
     class="Stem"
     fill="none"
     stroke="#000000"
     stroke-width="2.48"
     stroke-linejoin="bevel"
     points="3447.68,687.965 3447.68,751.998"
     id="polyline1707"
     transform="translate(-336.598,-583.90052)" />
  <polyline
     class="Stem"
     fill="none"
     stroke="#000000"
     stroke-width="2.48"
     stroke-linejoin="bevel"
     points="2994.09,687.965 2994.09,764.299"
     id="polyline1709"
     transform="translate(-336.598,-583.90052)" />
  <polyline
     class="Stem"
     fill="none"
     stroke="#000000"
     stroke-width="2.48"
     stroke-linejoin="bevel"
     points="3637.67,687.965 3637.67,751.998"
     id="polyline1711"
     transform="translate(-336.598,-583.90052)" />
  <polyline
     class="Stem"
     fill="none"
     stroke="#000000"
     stroke-width="2.48"
     stroke-linejoin="bevel"
     points="3762.41,704.63 3762.41,621.997"
     id="polyline1713"
     transform="translate(-336.598,-583.90052)" />
  <polyline
     class="Stem"
     fill="none"
     stroke="#000000"
     stroke-width="2.48"
     stroke-linejoin="bevel"
     points="3857.41,704.63 3857.41,621.798"
     id="polyline1715"
     transform="translate(-336.598,-583.90052)" />
  <polyline
     class="Stem"
     fill="none"
     stroke="#000000"
     stroke-width="2.48"
     stroke-linejoin="bevel"
     points="769.312,663.165 769.312,745.958"
     id="polyline1717"
     transform="translate(-336.598,-583.90052)" />
  <polyline
     class="Stem"
     fill="none"
     stroke="#000000"
     stroke-width="2.48"
     stroke-linejoin="bevel"
     points="3542.68,663.165 3542.68,751.998"
     id="polyline1719"
     transform="translate(-336.598,-583.90052)" />
  <path
     class="Hook"
     d="m 3424.572,60.41895 c 0,0.294525 0.093,0.883575 0.7905,1.08505 4.2625,1.39495 12.803,6.758 19.251,17.76295 1.7825,3.06905 4.6655,7.34705 4.6655,15.577575 0,7.145475 -1.798,14.476955 -4.464,21.622425 -0.2015,0.60453 -0.31,1.10053 -0.31,1.488 0,0.69757 0.403,0.992 1.1005,0.992 0.589,0 1.085,-0.38747 1.488,-1.08495 4.464,-7.936 6.1535,-17.174 6.1535,-26.19505 C 3452.751,78.864 3445.404,69.44 3445.404,69.44 c 0.2945,0 -9.1295,-12.198525 -11.811,-16.368 -3.658,-5.657525 -5.3475,-11.299525 -5.549,-11.702525 -0.093,-0.294495 -0.992,-3.875 -0.992,-3.875 -0.093,-0.3875 -0.589,-0.790505 -1.1935,-0.790505 -0.6975,0 -1.2865,0.604505 -1.2865,1.286505 V 60.41895"
     id="path1721"
     style="stroke-width:0.992" />
  <path
     class="Hook"
     d="m 1291.162,180.40448 c 0,0.682 0.589,1.2865 1.2865,1.2865 0.496,0 1.1005,-0.403 1.1935,-0.7905 0,-0.1085 0.899,-3.58051 0.992,-3.875 0.093,-0.403 0.992,-4.16951 4.557,-10.01305 3.875,-6.448 9.827,-11.11348 14.787,-18.05748 4.96,-6.944 7.843,-13.50052 7.843,-22.22695 0,-9.02105 -1.984,-16.56957 -7.347,-26.19505 -0.2945,-0.697475 -0.899,-1.08495 -1.488,-1.08495 -0.2015,0 -0.403,0 -0.496,0.09295 -0.496,0.201476 -0.6975,0.60453 -0.6975,1.19348 0,0.29452 0.1085,0.69757 0.2945,1.19357 3.968,9.22243 5.5645,14.47695 5.5645,21.62243 0,8.23052 -2.883,12.50852 -4.6655,15.57757 -6.448,11.00495 -16.864,16.368 -21.0335,17.76295 -0.6975,0.20148 -0.7905,0.79053 -0.7905,1.08505 v 22.42848"
     id="path1723"
     style="stroke-width:0.992" />
  <path
     class="Hook"
     d="m 2413.042,60.41895 c 0,0.294525 0.093,0.883575 0.7905,1.08505 4.2625,1.39495 12.803,6.758 19.251,17.76295 1.7825,3.06905 4.6655,7.34705 4.6655,15.577575 0,7.145475 -1.798,14.476955 -4.464,21.622425 -0.2015,0.60453 -0.31,1.10053 -0.31,1.488 0,0.69757 0.403,0.992 1.1005,0.992 0.589,0 1.085,-0.38747 1.488,-1.08495 4.464,-7.936 6.1535,-17.174 6.1535,-26.19505 C 2441.221,78.864 2433.874,69.44 2433.874,69.44 c 0.2945,0 -9.1295,-12.198525 -11.811,-16.368 -3.658,-5.657525 -5.3475,-11.299525 -5.549,-11.702525 -0.093,-0.294495 -0.992,-3.875 -0.992,-3.875 -0.093,-0.3875 -0.589,-0.790505 -1.1935,-0.790505 -0.6975,0 -1.2865,0.604505 -1.2865,1.286505 V 60.41895"
     id="path1725"
     style="stroke-width:0.992" />
  <path
     class="Hook"
     d="m 336.477,180.40448 c 0,0.682 0.589,1.2865 1.2865,1.2865 0.496,0 1.1005,-0.403 1.1935,-0.7905 0,-0.1085 0.899,-3.58051 0.992,-3.875 0.093,-0.403 0.992,-4.16951 4.557,-10.01305 3.875,-6.448 9.827,-11.11348 14.787,-18.05748 4.96,-6.944 7.84305,-13.50052 7.84305,-22.22695 0,-9.02105 -1.984,-16.56957 -7.34705,-26.19505 -0.29452,-0.697475 -0.89895,-1.08495 -1.488,-1.08495 -0.20148,0 -0.40295,0 -0.496,0.09295 -0.496,0.201476 -0.69748,0.60453 -0.69748,1.19348 0,0.29452 0.10853,0.69757 0.29453,1.19357 3.968,9.22243 5.56443,14.47695 5.56443,21.62243 0,8.23052 -2.88296,12.50852 -4.66548,15.57757 -6.448,11.00495 -16.864,16.368 -21.0335,17.76295 -0.6975,0.20148 -0.7905,0.79053 -0.7905,1.08505 v 22.42848"
     id="path1727"
     style="stroke-width:0.992" />
  <path
     class="Hook"
     d="m 2656.252,180.40448 c 0,0.682 0.589,1.2865 1.2865,1.2865 0.496,0 1.1005,-0.403 1.1935,-0.7905 0,-0.1085 0.899,-3.58051 0.992,-3.875 0.093,-0.403 0.992,-4.16951 4.557,-10.01305 3.875,-6.448 9.827,-11.11348 14.787,-18.05748 4.96,-6.944 7.843,-13.50052 7.843,-22.22695 0,-9.02105 -1.984,-16.56957 -7.347,-26.19505 -0.2945,-0.697475 -0.899,-1.08495 -1.488,-1.08495 -0.2015,0 -0.403,0 -0.496,0.09295 -0.496,0.201476 -0.6975,0.60453 -0.6975,1.19348 0,0.29452 0.1085,0.69757 0.2945,1.19357 3.968,9.22243 5.5645,14.47695 5.5645,21.62243 0,8.23052 -2.883,12.50852 -4.6655,15.57757 -6.448,11.00495 -16.864,16.368 -21.0335,17.76295 -0.6975,0.20148 -0.7905,0.79053 -0.7905,1.08505 v 22.42848"
     id="path1729"
     style="stroke-width:0.992" />
  <path
     class="Note"
     d="m 2193.302,79.26698 c 0,4.262495 3.069,9.02102 11.1135,9.02102 10.3075,0 21.1265,-8.43202 21.1265,-17.158525 0,-5.859 -4.96,-9.129475 -11.1135,-9.129475 -9.6255,0 -21.1265,8.137475 -21.1265,17.26698"
     id="path1731"
     style="stroke-width:0.992" />
  <path
     class="Note"
     d="m 1727.7285,24.8 c -9.6255,0 -21.1265,8.044475 -21.1265,17.26698 0,4.262495 3.069,9.02102 11.1135,9.02102 10.3075,0 21.1265,-8.43202 21.1265,-17.158525 0,-5.859 -4.96,-9.129475 -11.1135,-9.129475 m -13.6865,21.622475 c -3.2705,0 -3.968,-2.666 -3.968,-3.565 0,-4.867 16.6625,-13.392 21.328,-13.392 2.387,0 3.968,1.395 3.968,3.565 0,4.96 -16.771,13.392 -21.328,13.392"
     id="path1733"
     style="stroke-width:0.992" />
  <path
     class="Note"
     d="m 2288.302,104.06698 c 0,4.2625 3.069,9.02102 11.1135,9.02102 10.3075,0 21.1265,-8.43202 21.1265,-17.158525 0,-5.859 -4.96,-9.129475 -11.1135,-9.129475 -9.6255,0 -21.1265,8.137475 -21.1265,17.26698"
     id="path1735"
     style="stroke-width:0.992" />
  <path
     class="Note"
     d="m 2383.292,128.86698 c 0,4.2625 3.069,9.02102 11.1135,9.02102 10.3075,0 21.1265,-8.43202 21.1265,-17.15852 0,-5.859 -4.96,-9.12948 -11.1135,-9.12948 -9.6255,0 -21.1265,8.13748 -21.1265,17.26698"
     id="path1737"
     style="stroke-width:0.992" />
  <path
     class="Note"
     d="m 2478.292,104.06698 c 0,4.2625 3.069,9.02102 11.1135,9.02102 10.3075,0 21.1265,-8.43202 21.1265,-17.158525 0,-5.859 -4.96,-9.129475 -11.1135,-9.129475 -9.6255,0 -21.1265,8.137475 -21.1265,17.26698"
     id="path1739"
     style="stroke-width:0.992" />
  <path
     class="Note"
     d="m 193.983,128.86698 c 0,4.2625 3.069,9.02102 11.11348,9.02102 10.30757,0 21.12652,-8.43202 21.12652,-17.15852 0,-5.859 -4.96,-9.12948 -11.11348,-9.12948 -9.62547,0 -21.12652,8.13748 -21.12652,17.26698"
     id="path1741"
     style="stroke-width:0.992" />
  <path
     class="Note"
     d="m 336.477,104.06698 c 0,4.2625 3.069,9.02102 11.11348,9.02102 10.30757,0 21.12652,-8.43202 21.12652,-17.158525 0,-5.859 -4.96,-9.129475 -11.11348,-9.129475 -9.62547,0 -21.12652,8.137475 -21.12652,17.26698"
     id="path1743"
     style="stroke-width:0.992" />
  <path
     class="Note"
     d="m 2656.252,104.06698 c 0,4.2625 3.069,9.02102 11.1135,9.02102 10.3075,0 21.1265,-8.43202 21.1265,-17.158525 0,-5.859 -4.96,-9.129475 -11.1135,-9.129475 -9.6255,0 -21.1265,8.137475 -21.1265,17.26698"
     id="path1745"
     style="stroke-width:0.992" />
  <path
     class="Note"
     d="m 431.474,79.26698 c 0,4.262495 3.069,9.02102 11.11348,9.02102 10.30757,0 21.12652,-8.43202 21.12652,-17.158525 C 463.714,65.270475 458.754,62 452.60052,62 442.97505,62 431.474,70.137475 431.474,79.26698"
     id="path1747"
     style="stroke-width:0.992" />
  <path
     class="Note"
     d="m 2751.242,166.06698 c 0,4.2625 3.069,9.02102 11.1135,9.02102 10.3075,0 21.1265,-8.43202 21.1265,-17.15852 0,-5.859 -4.96,-9.12948 -11.1135,-9.12948 -9.6255,0 -21.1265,8.13748 -21.1265,17.26698"
     id="path1749"
     style="stroke-width:0.992" />
  <path
     class="Note"
     d="m 526.47,104.06698 c 0,4.2625 3.069,9.02102 11.11348,9.02102 10.30757,0 21.12652,-8.43202 21.12652,-17.158525 0,-5.859 -4.96,-9.129475 -11.11348,-9.129475 -9.62547,0 -21.12652,8.137475 -21.12652,17.26698"
     id="path1751"
     style="stroke-width:0.992" />
  <path
     class="Note"
     d="m 2931.882,128.86698 c 0,4.2625 3.069,9.02102 11.1135,9.02102 10.3075,0 21.1265,-8.43202 21.1265,-17.15852 0,-5.859 -4.96,-9.12948 -11.1135,-9.12948 -9.6255,0 -21.1265,8.13748 -21.1265,17.26698"
     id="path1753"
     style="stroke-width:0.992" />
  <path
     class="Note"
     d="m 621.466,128.86698 c 0,4.2625 3.069,9.02102 11.11348,9.02102 10.30757,0 21.12652,-8.43202 21.12652,-17.15852 0,-5.859 -4.96,-9.12948 -11.11348,-9.12948 -9.62547,0 -21.12652,8.13748 -21.12652,17.26698"
     id="path1755"
     style="stroke-width:0.992" />
  <path
     class="Note"
     d="m 751.922,104.06698 c 0,4.2625 3.069,9.02102 11.11348,9.02102 10.30757,0 21.12652,-8.43202 21.12652,-17.158525 0,-5.859 -4.96,-9.129475 -11.11348,-9.129475 -9.62547,0 -21.12652,8.137475 -21.12652,17.26698"
     id="path1757"
     style="stroke-width:0.992" />
  <path
     class="Note"
     d="m 932.562,166.06698 c 0,4.2625 3.069,9.02102 11.11348,9.02102 10.30757,0 21.12652,-8.43202 21.12652,-17.15852 0,-5.859 -4.96,-9.12948 -11.11348,-9.12948 -9.62547,0 -21.12652,8.13748 -21.12652,17.26698"
     id="path1759"
     style="stroke-width:0.992" />
  <path
     class="Note"
     d="m 3109.842,104.06698 c 0,4.2625 3.069,9.02102 11.1135,9.02102 10.3075,0 21.1265,-8.43202 21.1265,-17.158525 0,-5.859 -4.96,-9.129475 -11.1135,-9.129475 -9.6255,0 -21.1265,8.137475 -21.1265,17.26698"
     id="path1761"
     style="stroke-width:0.992" />
  <path
     class="Note"
     d="m 1148.662,128.86698 c 0,4.2625 3.069,9.02102 11.1135,9.02102 10.3075,0 21.1265,-8.43202 21.1265,-17.15852 0,-5.859 -4.96,-9.12948 -11.1135,-9.12948 -9.6255,0 -21.1265,8.13748 -21.1265,17.26698"
     id="path1763"
     style="stroke-width:0.992" />
  <path
     class="Note"
     d="m 3204.842,79.26698 c 0,4.262495 3.069,9.02102 11.1135,9.02102 10.3075,0 21.1265,-8.43202 21.1265,-17.158525 0,-5.859 -4.96,-9.129475 -11.1135,-9.129475 -9.6255,0 -21.1265,8.137475 -21.1265,17.26698"
     id="path1765"
     style="stroke-width:0.992" />
  <path
     class="Note"
     d="m 1386.152,79.26698 c 0,4.262495 3.069,9.02102 11.1135,9.02102 10.3075,0 21.1265,-8.43202 21.1265,-17.158525 0,-5.859 -4.96,-9.129475 -11.1135,-9.129475 -9.6255,0 -21.1265,8.137475 -21.1265,17.26698"
     id="path1767"
     style="stroke-width:0.992" />
  <path
     class="Note"
     d="m 3299.832,104.06698 c 0,4.2625 3.069,9.02102 11.1135,9.02102 10.3075,0 21.1265,-8.43202 21.1265,-17.158525 0,-5.859 -4.96,-9.129475 -11.1135,-9.129475 -9.6255,0 -21.1265,8.137475 -21.1265,17.26698"
     id="path1769"
     style="stroke-width:0.992" />
  <path
     class="Note"
     d="m 1481.152,104.06698 c 0,4.2625 3.069,9.02102 11.1135,9.02102 10.3075,0 21.1265,-8.43202 21.1265,-17.158525 0,-5.859 -4.96,-9.129475 -11.1135,-9.129475 -9.6255,0 -21.1265,8.137475 -21.1265,17.26698"
     id="path1771"
     style="stroke-width:0.992" />
  <path
     class="Note"
     d="m 1576.142,79.26698 c 0,4.262495 3.069,9.02102 11.1135,9.02102 10.3075,0 21.1265,-8.43202 21.1265,-17.158525 0,-5.859 -4.96,-9.129475 -11.1135,-9.129475 -9.6255,0 -21.1265,8.137475 -21.1265,17.26698"
     id="path1773"
     style="stroke-width:0.992" />
  <path
     class="Note"
     d="m 3394.832,128.86698 c 0,4.2625 3.069,9.02102 11.1135,9.02102 10.3075,0 21.1265,-8.43202 21.1265,-17.15852 0,-5.859 -4.96,-9.12948 -11.1135,-9.12948 -9.6255,0 -21.1265,8.13748 -21.1265,17.26698"
     id="path1775"
     style="stroke-width:0.992" />
  <path
     class="Note"
     d="m 1291.162,104.06698 c 0,4.2625 3.069,9.02102 11.1135,9.02102 10.3075,0 21.1265,-8.43202 21.1265,-17.158525 0,-5.859 -4.96,-9.129475 -11.1135,-9.129475 -9.6255,0 -21.1265,8.137475 -21.1265,17.26698"
     id="path1777"
     style="stroke-width:0.992" />
  <path
     class="Note"
     d="m 3489.822,128.86698 c 0,4.2625 3.069,9.02102 11.1135,9.02102 10.3075,0 21.1265,-8.43202 21.1265,-17.15852 0,-5.859 -4.96,-9.12948 -11.1135,-9.12948 -9.6255,0 -21.1265,8.13748 -21.1265,17.26698"
     id="path1779"
     style="stroke-width:0.992" />
  <path
     class="Note"
     d="m 1920.352,17.26698 c 0,4.262495 3.069,9.02102 11.1135,9.02102 10.3075,0 21.1265,-8.43202 21.1265,-17.1585248 C 1952.592,3.2704752 1947.632,0 1941.4785,0 1931.853,0 1920.352,8.1374752 1920.352,17.26698"
     id="path1781"
     style="stroke-width:0.992" />
  <path
     class="Note"
     d="m 2098.302,42.06698 c 0,4.262495 3.069,9.02102 11.1135,9.02102 10.3075,0 21.1265,-8.43202 21.1265,-17.158525 0,-5.859 -4.96,-9.129475 -11.1135,-9.129475 -9.6255,0 -21.1265,8.137475 -21.1265,17.26698"
     id="path1783"
     style="stroke-width:0.992" />
  <path
     class="Clef"
     d="m 30.798525,175.584 c 0,6.55652 4.96,15.19 18.352,15.19 4.665475,0 8.742,-1.19348 12.30695,-3.37905 C 66.820525,183.62852 68.2,177.072 68.2,170.82548 c 0,-3.85948 -0.58895,-8.32348 -1.58095,-13.98096 -0.294525,-1.984 -0.89905,-4.96 -1.488,-8.83504 9.718425,-3.17748 16.95695,-13.29896 16.95695,-23.5135 0,-14.97303 -10.617475,-25.094505 -25.094525,-25.094505 -0.992,-5.952 -1.984,-11.811049 -2.774425,-17.36 10.416,-11.020525 17.654425,-23.420525 17.654425,-39.184 0,-9.036525 -2.774425,-16.368 -4.37095,-19.948128 -2.371475,-5.053248 -5.254525,-8.525248 -7.03705,-8.525248 -0.697475,0 -3.766425,1.193376 -7.03695,5.053248 -6.35505,7.548128 -8.137475,20.242653 -8.137475,28.566128 0,5.362951 0.496,10.23 2.185475,21.343475 C 47.368,69.44 42.206525,74.694426 40.129475,76.384 31.09305,84.72295 18.6,96.81295 18.6,116.66848 c 0,18.53804 16.166525,33.12352 34.62705,33.12352 2.867475,0 5.54895,-0.29452 7.827475,-0.69748 1.89095,9.53243 3.084525,16.47643 3.084525,21.73096 0,10.32304 -5.36305,15.77904 -15.376,15.77904 -2.38705,0 -4.464,-0.496 -4.665575,-0.496 C 44.004525,186 43.80305,185.90695 43.80305,185.814 c 0,-0.20148 0.201475,-0.31 0.496,-0.31 4.665475,-0.79052 9.315475,-4.75852 9.315475,-11.098 0,-5.36305 -4.06105,-11.02052 -11.50105,-11.02052 -6.944,0 -11.31495,5.65747 -11.31495,12.19852 M 51.537475,43.152 c 0.89905,-3.968 5.456,-14.384 10.617575,-14.384 1.488,0 3.859475,4.758426 3.859475,11.702426 0,10.323049 -7.626,18.057574 -14.47705,24.8 -0.58895,-3.968 -1.08495,-7.827476 -1.08495,-11.996951 0,-3.673475 0.294525,-7.052525 1.08495,-10.121475 M 60.264,145.12652 c -1.984,0.40296 -3.859475,0.60443 -5.750525,0.60443 -14.182425,0 -26.28797,-9.92 -26.28797,-24.90847 0,-12.09005 8.52502,-22.909005 17.26702,-30.45753 1.674,-1.488 3.270525,-2.867475 4.758525,-4.355475 0.883475,5.347475 1.58095,10.012951 2.278425,14.089475 -9.036425,2.68148 -15.174425,12.19853 -15.174425,21.52953 0,6.944 5.456,16.461 13.392,16.461 0.790425,0 1.689475,-0.40296 1.689475,-1.28653 0,-0.89895 -0.992,-1.39495 -2.185475,-2.18547 -3.87505,-2.387 -6.060525,-4.96 -6.060525,-9.827 0,-6.045 4.572525,-10.91205 10.32295,-12.29153 L 60.264,145.12652 m 14.089475,-18.35204 c 0,7.0525 -2.88295,14.291 -9.92,17.17404 -2.07695,-11.90404 -4.758425,-27.68304 -5.456,-32.05409 8.928,0 15.376,6.06054 15.376,14.88005"
     id="path1785"
     style="stroke-width:0.992" />
  <path
     class="TimeSig"
     d="m 130.20048,70.83497 c -6.06043,0 -8.23043,1.782505 -9.62548,3.270505 -0.29452,-2.077 -0.496,-3.673505 -0.496,-5.254505 0,-5.657495 1.984,-13.004544 8.928,-13.004544 2.48,0 3.968,0.806 4.96,1.891049 -2.07695,0.898951 -3.76652,3.564951 -3.76652,5.858951 0,3.565049 2.77452,6.339544 6.35504,6.339544 3.56496,0 6.448,-2.774495 6.448,-6.339544 v -0.31 c 0,-0.883476 -0.20147,-2.371476 -0.60452,-3.162 -1.28652,-3.580426 -5.456,-8.834951 -15.376,-8.834951 -8.928,0 -15.376,8.524951 -17.36,13.097475 -0.992,2.371525 -2.48,7.238525 -2.48,12.787525 0,6.060505 1.6895,12.89605 7.533,18.057525 5.76605,4.37095 9.42405,4.572525 12.89605,4.572525 3.48747,0 16.47643,-4.076525 16.47643,-15.577545 0,-9.718505 -7.64148,-13.39201 -13.888,-13.39201 M 126.527,95.63495 c -3.27052,0 -5.952,-4.464 -5.952,-10.028425 0,-5.54905 2.68148,-10.10605 5.952,-10.10605 3.27052,0 6.06052,4.557 6.06052,10.10605 0,5.564425 -2.79,10.028425 -6.06052,10.028425"
     id="path1787"
     style="stroke-width:0.992" />
  <path
     class="TimeSig"
     d="m 137.54705,122.66697 c 3.27043,-2.48 5.54895,-5.65749 5.54895,-9.62549 0,-7.14548 -7.82748,-12.98905 -17.45295,-12.98905 -9.62557,0 -17.46855,5.84357 -17.46855,12.98905 0,3.968 0.992,7.533 5.6575,10.509 -4.464,2.5885 -6.944,6.262 -6.944,11.02047 0,8.02905 8.432,14.47705 18.75505,14.47705 10.30747,0 18.73947,-6.448 18.73947,-14.47705 0,-4.75847 -1.674,-9.22247 -6.83547,-11.90398 m -5.56453,-2.68149 c -6.74252,-2.18551 -14.18252,-5.456 -14.18252,-9.92 0,-3.87505 3.56505,-5.456 7.84305,-5.456 6.15347,0 10.30747,2.88295 10.30747,7.44 0,4.75849 -2.17,7.037 -3.968,7.936 m -6.33947,23.51347 c -6.35505,0 -11.81105,-3.472 -11.81105,-9.03643 0,-6.63404 5.16148,-8.23054 5.16148,-8.23054 6.74252,2.2785 16.368,5.6575 16.368,11.1135 0,2.68147 -3.37896,6.15347 -9.71843,6.15347"
     id="path1789"
     style="stroke-width:0.992" />
  <path
     class="Beam"
     fill-rule="evenodd"
     d="m 3109.842,161.89748 h 192.47 v 12.4 h -192.47 v -12.4"
     id="path1791" />
  <path
     class="Beam"
     fill-rule="evenodd"
     d="m 1386.152,161.89748 h 192.47 v 12.4 h -192.47 v -12.4"
     id="path1793" />
  <path
     class="Beam"
     fill-rule="evenodd"
     d="m 2098.302,137.04648 192.48,24.8 v 12.503 l -192.48,-24.8 v -12.503"
     id="path1795" />
  <path
     class="Beam"
     fill-rule="evenodd"
     d="m 431.474,155.64648 192.472,24.8 v 12.503 l -192.472,-24.8 v -12.503"
     id="path1797" />
  <path
     class="NoteDot"
     d="m 796.552,87.497475 c 0,2.774505 2.1855,4.96 4.96,4.96 2.7745,0 4.96,-2.185495 4.96,-4.96 0,-2.774505 -2.1855,-4.96 -4.96,-4.96 -2.7745,0 -4.96,2.185495 -4.96,4.96"
     id="path1799"
     style="stroke-width:0.992" />
  <path
     class="NoteDot"
     d="m 2795.872,161.89748 c 0,2.7745 2.1855,4.96 4.96,4.96 2.7745,0 4.96,-2.1855 4.96,-4.96 0,-2.77451 -2.1855,-4.96 -4.96,-4.96 -2.7745,0 -4.96,2.18549 -4.96,4.96"
     id="path1801"
     style="stroke-width:0.992" />
  <path
     class="NoteDot"
     d="m 977.192,161.89748 c 0,2.7745 2.1855,4.96 4.96,4.96 2.7745,0 4.96,-2.1855 4.96,-4.96 0,-2.77451 -2.1855,-4.96 -4.96,-4.96 -2.7745,0 -4.96,2.18549 -4.96,4.96"
     id="path1803"
     style="stroke-width:0.992" />
</svg>
