<?xml version="1.0" encoding="UTF-8" standalone="no"?>
<svg
   xmlns:dc="http://purl.org/dc/elements/1.1/"
   xmlns:cc="http://creativecommons.org/ns#"
   xmlns:rdf="http://www.w3.org/1999/02/22-rdf-syntax-ns#"
   xmlns:svg="http://www.w3.org/2000/svg"
   xmlns="http://www.w3.org/2000/svg"
   xmlns:sodipodi="http://sodipodi.sourceforge.net/DTD/sodipodi-0.dtd"
   xmlns:inkscape="http://www.inkscape.org/namespaces/inkscape"
   width="3659.6011"
   height="176.39008"
   viewBox="0 0 3659.6011 176.39008"
   version="1.2"
   id="svg178"
   sodipodi:docname="Strofa Angst.svg"
   inkscape:version="1.0.2-2 (e86c870879, 2021-01-15)"
   inkscape:export-filename="C:\Users\slagt\Music\Strofe\Strofa Angst\Strofa Angst.png"
   inkscape:export-xdpi="94.908707"
   inkscape:export-ydpi="94.908707">
  <metadata
     id="metadata184">
    <rdf:RDF>
      <cc:Work
         rdf:about="">
        <dc:format>image/svg+xml</dc:format>
        <dc:type
           rdf:resource="http://purl.org/dc/dcmitype/StillImage" />
      </cc:Work>
    </rdf:RDF>
  </metadata>
  <defs
     id="defs182" />
  <sodipodi:namedview
     pagecolor="#ffffff"
     bordercolor="#666666"
     borderopacity="1"
     objecttolerance="10"
     gridtolerance="10"
     guidetolerance="10"
     inkscape:pageopacity="0"
     inkscape:pageshadow="2"
     inkscape:window-width="1920"
     inkscape:window-height="991"
     id="namedview180"
     showgrid="false"
     inkscape:zoom="0.27542658"
     inkscape:cx="1767.601"
     inkscape:cy="890.31547"
     inkscape:window-x="-9"
     inkscape:window-y="-9"
     inkscape:window-maximized="1"
     inkscape:current-layer="svg178" />
  <title
     id="title2">Strofa Angst</title>
  <desc
     id="desc4">Generated by MuseScore Studio 4.4.4</desc>
  <polyline
     class="StaffLines"
     fill="none"
     stroke="#000000"
     stroke-width="2.73"
     stroke-linejoin="bevel"
     points="336.599,634.198 3996.2,634.198"
     id="polyline6"
     transform="translate(-336.599,-598.28451)" />
  <polyline
     class="StaffLines"
     fill="none"
     stroke="#000000"
     stroke-width="2.73"
     stroke-linejoin="bevel"
     points="336.599,658.998 3996.2,658.998"
     id="polyline8"
     transform="translate(-336.599,-598.28451)" />
  <polyline
     class="StaffLines"
     fill="none"
     stroke="#000000"
     stroke-width="2.73"
     stroke-linejoin="bevel"
     points="336.599,683.798 3996.2,683.798"
     id="polyline10"
     transform="translate(-336.599,-598.28451)" />
  <polyline
     class="StaffLines"
     fill="none"
     stroke="#000000"
     stroke-width="2.73"
     stroke-linejoin="bevel"
     points="336.599,708.598 3996.2,708.598"
     id="polyline12"
     transform="translate(-336.599,-598.28451)" />
  <polyline
     class="StaffLines"
     fill="none"
     stroke="#000000"
     stroke-width="2.73"
     stroke-linejoin="bevel"
     points="336.599,733.398 3996.2,733.398"
     id="polyline14"
     transform="translate(-336.599,-598.28451)" />
  <polyline
     class="BarLine"
     fill="none"
     stroke="#000000"
     stroke-width="4.46"
     stroke-linejoin="bevel"
     points="3099.67,632.834 3099.67,734.762"
     id="polyline22"
     transform="translate(-336.599,-598.28451)" />
  <polyline
     class="BarLine"
     fill="none"
     stroke="#000000"
     stroke-width="4.46"
     stroke-linejoin="bevel"
     points="3971.15,632.834 3971.15,734.762"
     id="polyline24"
     transform="translate(-336.599,-598.28451)" />
  <polyline
     class="BarLine"
     fill="none"
     stroke="#000000"
     stroke-width="13.64"
     stroke-linejoin="bevel"
     points="3989.38,632.834 3989.38,734.762"
     id="polyline26"
     transform="translate(-336.599,-598.28451)" />
  <polyline
     class="BarLine"
     fill="none"
     stroke="#000000"
     stroke-width="4.46"
     stroke-linejoin="bevel"
     points="3622.43,632.834 3622.43,734.762"
     id="polyline28"
     transform="translate(-336.599,-598.28451)" />
  <polyline
     class="BarLine"
     fill="none"
     stroke="#000000"
     stroke-width="4.46"
     stroke-linejoin="bevel"
     points="1374.12,632.834 1374.12,734.762"
     id="polyline30"
     transform="translate(-336.599,-598.28451)" />
  <polyline
     class="BarLine"
     fill="none"
     stroke="#000000"
     stroke-width="4.46"
     stroke-linejoin="bevel"
     points="973.193,632.834 973.193,734.762"
     id="polyline32"
     transform="translate(-336.599,-598.28451)" />
  <polyline
     class="BarLine"
     fill="none"
     stroke="#000000"
     stroke-width="4.46"
     stroke-linejoin="bevel"
     points="2750.95,632.834 2750.95,734.762"
     id="polyline34"
     transform="translate(-336.599,-598.28451)" />
  <polyline
     class="BarLine"
     fill="none"
     stroke="#000000"
     stroke-width="4.46"
     stroke-linejoin="bevel"
     points="1827.27,632.834 1827.27,734.762"
     id="polyline36"
     transform="translate(-336.599,-598.28451)" />
  <polyline
     class="BarLine"
     fill="none"
     stroke="#000000"
     stroke-width="4.46"
     stroke-linejoin="bevel"
     points="2228.2,632.834 2228.2,734.762"
     id="polyline38"
     transform="translate(-336.599,-598.28451)" />
  <polyline
     class="LedgerLine"
     fill="none"
     stroke="#000000"
     stroke-width="3.97"
     stroke-linejoin="bevel"
     points="2601.31,758.199 2649.9,758.199"
     id="polyline40"
     transform="translate(-336.599,-598.28451)" />
  <polyline
     class="LedgerLine"
     fill="none"
     stroke="#000000"
     stroke-width="3.97"
     stroke-linejoin="bevel"
     points="3472.79,758.199 3521.38,758.199"
     id="polyline42"
     transform="translate(-336.599,-598.28451)" />
  <polyline
     class="Stem"
     fill="none"
     stroke="#000000"
     stroke-width="2.48"
     stroke-linejoin="bevel"
     points="2971.8,717.03 2971.8,634.198"
     id="polyline44"
     transform="translate(-336.599,-598.28451)" />
  <polyline
     class="Stem"
     fill="none"
     stroke="#000000"
     stroke-width="2.48"
     stroke-linejoin="bevel"
     points="3163.89,692.23 3163.89,615.598"
     id="polyline46"
     transform="translate(-336.599,-598.28451)" />
  <polyline
     class="Stem"
     fill="none"
     stroke="#000000"
     stroke-width="2.48"
     stroke-linejoin="bevel"
     points="3268.31,717.03 3268.31,652.905"
     id="polyline48"
     transform="translate(-336.599,-598.28451)" />
  <polyline
     class="Stem"
     fill="none"
     stroke="#000000"
     stroke-width="2.48"
     stroke-linejoin="bevel"
     points="3337.92,729.43 3337.92,658.892"
     id="polyline50"
     transform="translate(-336.599,-598.28451)" />
  <polyline
     class="Stem"
     fill="none"
     stroke="#000000"
     stroke-width="2.48"
     stroke-linejoin="bevel"
     points="606.733,675.565 606.733,751.999"
     id="polyline52"
     transform="translate(-336.599,-598.28451)" />
  <polyline
     class="Stem"
     fill="none"
     stroke="#000000"
     stroke-width="2.48"
     stroke-linejoin="bevel"
     points="3407.54,741.83 3407.54,658.998"
     id="polyline54"
     transform="translate(-336.599,-598.28451)" />
  <polyline
     class="Stem"
     fill="none"
     stroke="#000000"
     stroke-width="2.48"
     stroke-linejoin="bevel"
     points="711.152,675.565 711.152,751.999"
     id="polyline56"
     transform="translate(-336.599,-598.28451)" />
  <polyline
     class="Stem"
     fill="none"
     stroke="#000000"
     stroke-width="2.48"
     stroke-linejoin="bevel"
     points="815.572,638.365 815.572,720.998"
     id="polyline58"
     transform="translate(-336.599,-598.28451)" />
  <polyline
     class="Stem"
     fill="none"
     stroke="#000000"
     stroke-width="2.48"
     stroke-linejoin="bevel"
     points="3511.95,754.231 3511.95,683.692"
     id="polyline60"
     transform="translate(-336.599,-598.28451)" />
  <polyline
     class="Stem"
     fill="none"
     stroke="#000000"
     stroke-width="2.48"
     stroke-linejoin="bevel"
     points="1007.66,675.565 1007.66,751.999"
     id="polyline62"
     transform="translate(-336.599,-598.28451)" />
  <polyline
     class="Stem"
     fill="none"
     stroke="#000000"
     stroke-width="2.48"
     stroke-linejoin="bevel"
     points="3581.57,741.83 3581.57,677.705"
     id="polyline64"
     transform="translate(-336.599,-598.28451)" />
  <polyline
     class="Stem"
     fill="none"
     stroke="#000000"
     stroke-width="2.48"
     stroke-linejoin="bevel"
     points="1112.08,675.565 1112.08,751.999"
     id="polyline66"
     transform="translate(-336.599,-598.28451)" />
  <polyline
     class="Stem"
     fill="none"
     stroke="#000000"
     stroke-width="2.48"
     stroke-linejoin="bevel"
     points="3686.64,717.03 3686.64,634.198"
     id="polyline68"
     transform="translate(-336.599,-598.28451)" />
  <polyline
     class="Stem"
     fill="none"
     stroke="#000000"
     stroke-width="2.48"
     stroke-linejoin="bevel"
     points="1246.25,717.03 1246.25,634.198"
     id="polyline70"
     transform="translate(-336.599,-598.28451)" />
  <polyline
     class="Stem"
     fill="none"
     stroke="#000000"
     stroke-width="2.48"
     stroke-linejoin="bevel"
     points="3843.27,717.03 3843.27,634.198"
     id="polyline72"
     transform="translate(-336.599,-598.28451)" />
  <polyline
     class="Stem"
     fill="none"
     stroke="#000000"
     stroke-width="2.48"
     stroke-linejoin="bevel"
     points="1408.6,675.565 1408.6,751.999"
     id="polyline74"
     transform="translate(-336.599,-598.28451)" />
  <polyline
     class="Stem"
     fill="none"
     stroke="#000000"
     stroke-width="2.48"
     stroke-linejoin="bevel"
     points="1513.02,675.565 1513.02,751.999"
     id="polyline76"
     transform="translate(-336.599,-598.28451)" />
  <polyline
     class="Stem"
     fill="none"
     stroke="#000000"
     stroke-width="2.48"
     stroke-linejoin="bevel"
     points="1617.44,638.365 1617.44,720.998"
     id="polyline78"
     transform="translate(-336.599,-598.28451)" />
  <polyline
     class="Stem"
     fill="none"
     stroke="#000000"
     stroke-width="2.48"
     stroke-linejoin="bevel"
     points="1721.85,638.365 1721.85,720.998"
     id="polyline80"
     transform="translate(-336.599,-598.28451)" />
  <polyline
     class="Stem"
     fill="none"
     stroke="#000000"
     stroke-width="2.48"
     stroke-linejoin="bevel"
     points="1861.74,675.565 1861.74,751.999"
     id="polyline82"
     transform="translate(-336.599,-598.28451)" />
  <polyline
     class="Stem"
     fill="none"
     stroke="#000000"
     stroke-width="2.48"
     stroke-linejoin="bevel"
     points="1966.16,675.565 1966.16,751.999"
     id="polyline84"
     transform="translate(-336.599,-598.28451)" />
  <polyline
     class="Stem"
     fill="none"
     stroke="#000000"
     stroke-width="2.48"
     stroke-linejoin="bevel"
     points="2100.32,717.03 2100.32,634.198"
     id="polyline86"
     transform="translate(-336.599,-598.28451)" />
  <polyline
     class="Stem"
     fill="none"
     stroke="#000000"
     stroke-width="2.48"
     stroke-linejoin="bevel"
     points="2292.41,692.23 2292.41,615.598"
     id="polyline88"
     transform="translate(-336.599,-598.28451)" />
  <polyline
     class="Stem"
     fill="none"
     stroke="#000000"
     stroke-width="2.48"
     stroke-linejoin="bevel"
     points="2396.83,717.03 2396.83,652.905"
     id="polyline90"
     transform="translate(-336.599,-598.28451)" />
  <polyline
     class="Stem"
     fill="none"
     stroke="#000000"
     stroke-width="2.48"
     stroke-linejoin="bevel"
     points="2466.45,729.43 2466.45,658.892"
     id="polyline92"
     transform="translate(-336.599,-598.28451)" />
  <polyline
     class="Stem"
     fill="none"
     stroke="#000000"
     stroke-width="2.48"
     stroke-linejoin="bevel"
     points="2536.06,741.83 2536.06,658.998"
     id="polyline94"
     transform="translate(-336.599,-598.28451)" />
  <polyline
     class="Stem"
     fill="none"
     stroke="#000000"
     stroke-width="2.48"
     stroke-linejoin="bevel"
     points="2640.48,754.231 2640.48,683.692"
     id="polyline96"
     transform="translate(-336.599,-598.28451)" />
  <polyline
     class="Stem"
     fill="none"
     stroke="#000000"
     stroke-width="2.48"
     stroke-linejoin="bevel"
     points="2710.09,741.83 2710.09,677.705"
     id="polyline98"
     transform="translate(-336.599,-598.28451)" />
  <polyline
     class="Stem"
     fill="none"
     stroke="#000000"
     stroke-width="2.48"
     stroke-linejoin="bevel"
     points="2815.17,717.03 2815.17,634.198"
     id="polyline100"
     transform="translate(-336.599,-598.28451)" />
  <path
     class="Note"
     d="m 2900.731,126.883 c 0,4.2625 3.069,9.02103 11.1135,9.02103 10.3076,0 21.1265,-8.43203 21.1265,-17.15854 0,-5.85901 -4.96,-9.12949 -11.1135,-9.12949 -9.6254,0 -21.1265,8.13749 -21.1265,17.267"
     id="path102"
     style="stroke-width:0.992001" />
  <path
     class="Note"
     d="m 1753.8675,109.616 c -9.6254,0 -21.1265,8.04448 -21.1265,17.267 0,4.2625 3.069,9.02103 11.1135,9.02103 10.3076,0 21.1265,-8.43203 21.1265,-17.15854 0,-5.85901 -4.96,-9.12949 -11.1135,-9.12949 m -13.6865,21.6225 c -3.2705,0 -3.968,-2.666 -3.968,-3.565 0,-4.86701 16.6625,-13.39202 21.328,-13.39202 2.3871,0 3.968,1.395 3.968,3.56501 0,4.96 -16.7709,13.39201 -21.328,13.39201"
     id="path104"
     style="stroke-width:0.992001" />
  <path
     class="Note"
     d="m 3340.1875,109.616 c -9.6254,0 -21.1265,8.04448 -21.1265,17.267 0,4.2625 3.069,9.02103 11.1135,9.02103 10.3076,0 21.1265,-8.43203 21.1265,-17.15854 0,-5.85901 -4.96,-9.12949 -11.1135,-9.12949 m -13.6865,21.6225 c -3.2705,0 -3.968,-2.666 -3.968,-3.565 0,-4.86701 16.6625,-13.39202 21.328,-13.39202 2.3871,0 3.968,1.395 3.968,3.56501 0,4.96 -16.7709,13.39201 -21.328,13.39201"
     id="path106"
     style="stroke-width:0.992001" />
  <path
     class="Note"
     d="m 1628.321,77.283 c 0,4.2625 3.069,9.02103 11.1135,9.02103 10.3076,0 21.1265,-8.43203 21.1265,-17.15854 0,-5.85901 -4.96,-9.12949 -11.1135,-9.12949 -9.6254,0 -21.1265,8.13749 -21.1265,17.267"
     id="path108"
     style="stroke-width:0.992001" />
  <path
     class="Note"
     d="m 268.894,77.283 c 0,4.2625 3.069,9.02103 11.11349,9.02103 10.30758,0 21.12654,-8.43203 21.12654,-17.15854 0,-5.85901 -4.96,-9.12949 -11.11348,-9.12949 -9.62549,0 -21.12655,8.13749 -21.12655,17.267"
     id="path110"
     style="stroke-width:0.992001" />
  <path
     class="Note"
     d="m 498.85955,22.816 c -9.62549,0 -21.12655,8.04448 -21.12655,17.267 0,4.2625 3.069,9.02103 11.11349,9.02103 10.30758,0 21.12654,-8.43203 21.12654,-17.15854 0,-5.85901 -4.96,-9.12949 -11.11348,-9.12949 m -13.68654,21.6225 c -3.2705,0 -3.96801,-2.666 -3.96801,-3.565 0,-4.86701 16.66255,-13.39202 21.32802,-13.39202 2.38706,0 3.96801,1.395 3.96801,3.56501 0,4.96 -16.77097,13.39201 -21.32802,13.39201"
     id="path112"
     style="stroke-width:0.992001" />
  <path
     class="Note"
     d="m 669.821,77.283 c 0,4.2625 3.069,9.02103 11.11349,9.02103 10.30758,0 21.12654,-8.43203 21.12654,-17.15854 0,-5.85901 -4.96,-9.12949 -11.11348,-9.12949 -9.62549,0 -21.12655,8.13749 -21.12655,17.267"
     id="path114"
     style="stroke-width:0.992001" />
  <path
     class="Note"
     d="m 774.241,77.283 c 0,4.2625 3.069,9.02103 11.11349,9.02103 10.30758,0 21.12654,-8.43203 21.12654,-17.15854 0,-5.85901 -4.96,-9.12949 -11.11348,-9.12949 -9.62549,0 -21.12655,8.13749 -21.12655,17.267"
     id="path116"
     style="stroke-width:0.992001" />
  <path
     class="Note"
     d="m 899.78755,109.616 c -9.62549,0 -21.12655,8.04448 -21.12655,17.267 0,4.2625 3.069,9.02103 11.11349,9.02103 10.30758,0 21.12654,-8.43203 21.12654,-17.15854 0,-5.85901 -4.96,-9.12949 -11.11348,-9.12949 m -13.68654,21.6225 c -3.2705,0 -3.96801,-2.666 -3.96801,-3.565 0,-4.86701 16.66255,-13.39202 21.32803,-13.39202 2.38705,0 3.968,1.395 3.968,3.56501 0,4.96 -16.77097,13.39201 -21.32802,13.39201"
     id="path118"
     style="stroke-width:0.992001" />
  <path
     class="Note"
     d="m 3496.8175,109.616 c -9.6254,0 -21.1265,8.04448 -21.1265,17.267 0,4.2625 3.069,9.02103 11.1135,9.02103 10.3076,0 21.1265,-8.43203 21.1265,-17.15854 0,-5.85901 -4.96,-9.12949 -11.1135,-9.12949 m -13.6865,21.6225 c -3.2705,0 -3.968,-2.666 -3.968,-3.565 0,-4.86701 16.6625,-13.39202 21.328,-13.39202 2.3871,0 3.968,1.395 3.968,3.56501 0,4.96 -16.7709,13.39201 -21.328,13.39201"
     id="path120"
     style="stroke-width:0.992001" />
  <path
     class="Note"
     d="m 2468.7075,109.616 c -9.6254,0 -21.1265,8.04448 -21.1265,17.267 0,4.2625 3.069,9.02103 11.1135,9.02103 10.3076,0 21.1265,-8.43203 21.1265,-17.15854 0,-5.85901 -4.96,-9.12949 -11.1135,-9.12949 m -13.6865,21.6225 c -3.2705,0 -3.968,-2.666 -3.968,-3.565 0,-4.86701 16.6625,-13.39202 21.328,-13.39202 2.3871,0 3.968,1.395 3.968,3.56501 0,4.96 -16.7709,13.39201 -21.328,13.39201"
     id="path122"
     style="stroke-width:0.992001" />
  <path
     class="Note"
     d="m 2168.471,151.684 c 0,4.2625 3.069,9.02103 11.1135,9.02103 10.3076,0 21.1265,-8.43203 21.1265,-17.15854 0,-5.85901 -4.96,-9.12949 -11.1135,-9.12949 -9.6254,0 -21.1265,8.13748 -21.1265,17.267"
     id="path124"
     style="stroke-width:0.992001" />
  <path
     class="Note"
     d="m 2625.3375,109.616 c -9.6254,0 -21.1265,8.04448 -21.1265,17.267 0,4.2625 3.069,9.02103 11.1135,9.02103 10.3076,0 21.1265,-8.43203 21.1265,-17.15854 0,-5.85901 -4.96,-9.12949 -11.1135,-9.12949 m -13.6865,21.6225 c -3.2705,0 -3.968,-2.666 -3.968,-3.565 0,-4.86701 16.6625,-13.39202 21.328,-13.39202 2.3871,0 3.968,1.395 3.968,3.56501 0,4.96 -16.7709,13.39201 -21.328,13.39201"
     id="path126"
     style="stroke-width:0.992001" />
  <path
     class="Note"
     d="m 1523.901,77.283 c 0,4.2625 3.069,9.02103 11.1135,9.02103 10.3076,0 21.1265,-8.43203 21.1265,-17.15854 0,-5.85901 -4.96,-9.12949 -11.1135,-9.12949 -9.6254,0 -21.1265,8.13749 -21.1265,17.267"
     id="path128"
     style="stroke-width:0.992001" />
  <path
     class="Note"
     d="m 1384.011,40.083 c 0,4.2625 3.069,9.02103 11.1135,9.02103 10.3076,0 21.1265,-8.43203 21.1265,-17.15854 0,-5.85901 -4.96,-9.12949 -11.1135,-9.12949 -9.6254,0 -21.1265,8.13748 -21.1265,17.267"
     id="path130"
     style="stroke-width:0.992001" />
  <path
     class="Note"
     d="m 2029.251,126.883 c 0,4.2625 3.069,9.02103 11.1135,9.02103 10.3076,0 21.1265,-8.43203 21.1265,-17.15854 0,-5.85901 -4.96,-9.12949 -11.1135,-9.12949 -9.6254,0 -21.1265,8.13749 -21.1265,17.267"
     id="path132"
     style="stroke-width:0.992001" />
  <path
     class="Note"
     d="m 2796.311,102.083 c 0,4.2625 3.069,9.02103 11.1135,9.02103 10.3076,0 21.1265,-8.43203 21.1265,-17.15854 0,-5.85901 -4.96,-9.12949 -11.1135,-9.12949 -9.6254,0 -21.1265,8.13748 -21.1265,17.267"
     id="path134"
     style="stroke-width:0.992001" />
  <path
     class="Note"
     d="m 1924.831,102.083 c 0,4.2625 3.069,9.02103 11.1135,9.02103 10.3076,0 21.1265,-8.43203 21.1265,-17.15854 0,-5.85901 -4.96,-9.12949 -11.1135,-9.12949 -9.6254,0 -21.1265,8.13748 -21.1265,17.267"
     id="path136"
     style="stroke-width:0.992001" />
  <path
     class="Note"
     d="m 373.313,77.283 c 0,4.2625 3.069,9.02103 11.11349,9.02103 10.30758,0 21.12654,-8.43203 21.12654,-17.15854 0,-5.85901 -4.96,-9.12949 -11.11348,-9.12949 -9.62549,0 -21.12655,8.13749 -21.12655,17.267"
     id="path138"
     style="stroke-width:0.992001" />
  <path
     class="Note"
     d="m 2272.891,164.084 c 0,4.2625 3.069,9.02103 11.1135,9.02103 10.3076,0 21.1265,-8.43203 21.1265,-17.15854 0,-5.85901 -4.96,-9.12949 -11.1135,-9.12949 -9.6254,0 -21.1265,8.13748 -21.1265,17.267"
     id="path140"
     style="stroke-width:0.992001" />
  <path
     class="Note"
     d="m 2970.341,139.283 c 0,4.2625 3.069,9.02103 11.1135,9.02103 10.3076,0 21.1265,-8.43203 21.1265,-17.15854 0,-5.85901 -4.96,-9.12949 -11.1135,-9.12949 -9.6254,0 -21.1265,8.13749 -21.1265,17.267"
     id="path142"
     style="stroke-width:0.992001" />
  <path
     class="Note"
     d="m 3039.951,151.684 c 0,4.2625 3.069,9.02103 11.1135,9.02103 10.3076,0 21.1265,-8.43203 21.1265,-17.15854 0,-5.85901 -4.96,-9.12949 -11.1135,-9.12949 -9.6254,0 -21.1265,8.13748 -21.1265,17.267"
     id="path144"
     style="stroke-width:0.992001" />
  <path
     class="Note"
     d="m 2098.861,139.283 c 0,4.2625 3.069,9.02103 11.1135,9.02103 10.3076,0 21.1265,-8.43203 21.1265,-17.15854 0,-5.85901 -4.96,-9.12949 -11.1135,-9.12949 -9.6254,0 -21.1265,8.13749 -21.1265,17.267"
     id="path146"
     style="stroke-width:0.992001" />
  <path
     class="Note"
     d="m 1279.601,40.083 c 0,4.2625 3.069,9.02103 11.1135,9.02103 10.3076,0 21.1265,-8.43203 21.1265,-17.15854 0,-5.85901 -4.96,-9.12949 -11.1135,-9.12949 -9.6254,0 -21.1265,8.13748 -21.1265,17.267"
     id="path148"
     style="stroke-width:0.992001" />
  <path
     class="Note"
     d="m 3144.371,164.084 c 0,4.2625 3.069,9.02103 11.1135,9.02103 10.3076,0 21.1265,-8.43203 21.1265,-17.15854 0,-5.85901 -4.96,-9.12949 -11.1135,-9.12949 -9.6254,0 -21.1265,8.13748 -21.1265,17.267"
     id="path150"
     style="stroke-width:0.992001" />
  <path
     class="Note"
     d="m 2342.511,151.684 c 0,4.2625 3.069,9.02103 11.1135,9.02103 10.3076,0 21.1265,-8.43203 21.1265,-17.15854 0,-5.85901 -4.96,-9.12949 -11.1135,-9.12949 -9.6254,0 -21.1265,8.13748 -21.1265,17.267"
     id="path152"
     style="stroke-width:0.992001" />
  <path
     class="Note"
     d="m 3213.981,151.684 c 0,4.2625 3.069,9.02103 11.1135,9.02103 10.3076,0 21.1265,-8.43203 21.1265,-17.15854 0,-5.85901 -4.96,-9.12949 -11.1135,-9.12949 -9.6254,0 -21.1265,8.13748 -21.1265,17.267"
     id="path154"
     style="stroke-width:0.992001" />
  <path
     class="Note"
     d="m 1175.181,77.283 c 0,4.2625 3.069,9.02103 11.1135,9.02103 10.3076,0 21.1265,-8.43203 21.1265,-17.15854 0,-5.85901 -4.96,-9.12949 -11.1135,-9.12949 -9.6254,0 -21.1265,8.13749 -21.1265,17.267"
     id="path156"
     style="stroke-width:0.992001" />
  <path
     class="Note"
     d="m 1070.761,77.283 c 0,4.2625 3.069,9.02103 11.1135,9.02103 10.3076,0 21.1265,-8.43203 21.1265,-17.15854 0,-5.85901 -4.96,-9.12949 -11.1135,-9.12949 -9.6254,0 -21.1265,8.13749 -21.1265,17.267"
     id="path158"
     style="stroke-width:0.992001" />
  <path
     class="Clef"
     d="m 30.798537,161.20007 c 0,6.55653 4.960005,15.19001 18.352019,15.19001 4.66548,0 8.742008,-1.19347 12.306962,-3.37905 5.363055,-3.76643 6.742532,-10.32296 6.742532,-16.56949 0,-3.85948 -0.588951,-8.32349 -1.580952,-13.98097 -0.294525,-1.984 -0.89905,-4.96 -1.488001,-8.83506 9.718435,-3.17747 16.956967,-13.29896 16.956967,-23.51352 0,-14.97304 -10.617486,-25.09453 -25.09455,-25.09453 -0.992001,-5.952 -1.984002,-11.81106 -2.774428,-17.36001 10.41601,-11.02054 17.654443,-23.42055 17.654443,-39.18404 0,-9.03654 -2.774428,-16.36802 -4.370955,-19.94815 C 65.131097,3.47201 62.248044,0 60.465517,0 59.768042,0 56.699088,1.19338 53.42856,5.05326 c -6.355056,7.54813 -8.137483,20.24267 -8.137483,28.56615 0,5.36296 0.496,10.23001 2.185477,21.3435 -0.108525,0.0931 -5.270005,5.34748 -7.347057,7.03706 C 31.093062,70.33892 18.6,82.42894 18.6,102.28448 c 0,18.53807 16.166541,33.12356 34.627085,33.12356 2.867478,0 5.548956,-0.29453 7.827483,-0.69748 1.890952,9.53244 3.084528,16.47645 3.084528,21.73098 0,10.32306 -5.363055,15.77906 -15.376016,15.77906 -2.387052,0 -4.464004,-0.496 -4.665579,-0.496 -0.09295,-0.10852 -0.294426,-0.20157 -0.294426,-0.29452 0,-0.20148 0.201475,-0.31 0.496001,-0.31 4.665479,-0.79053 9.315484,-4.75853 9.315484,-11.09802 0,-5.36305 -4.061054,-11.02053 -11.501061,-11.02053 -6.944007,0 -11.314962,5.65748 -11.314962,12.19854 M 51.537508,28.76793 c 0.899051,-3.968 5.456006,-14.38401 10.617586,-14.38401 1.488001,0 3.859479,4.75843 3.859479,11.70244 0,10.32306 -7.626008,18.05759 -14.477065,24.80002 -0.588951,-3.968 -1.084951,-7.82748 -1.084951,-11.99696 0,-3.67348 0.294525,-7.05253 1.084951,-10.12149 m 8.726534,101.97463 c -1.984002,0.40295 -3.859479,0.60443 -5.750531,0.60443 -14.182439,0 -26.287996,-9.92001 -26.287996,-24.9085 0,-12.09007 8.525028,-22.90903 17.267037,-30.45756 1.674002,-1.488 3.270528,-2.86748 4.75853,-4.35548 0.883476,5.34748 1.580952,10.01296 2.278427,14.08949 -9.036434,2.68148 -15.17444,12.19854 -15.17444,21.52955 0,6.944 5.456005,16.46101 13.392013,16.46101 0.790426,0 1.689477,-0.40295 1.689477,-1.28652 0,-0.89895 -0.992001,-1.39495 -2.185477,-2.18548 -3.875054,-2.387 -6.060531,-4.96001 -6.060531,-9.82701 0,-6.04501 4.572529,-10.91206 10.32296,-12.29154 l 5.750531,32.62761 m 14.089489,-18.35207 c 0,7.05251 -2.882953,14.29102 -9.92001,17.17407 -2.076952,-11.90406 -4.75843,-27.68308 -5.456005,-32.05413 8.928009,0 15.376015,6.06055 15.376015,14.88006"
     id="path160"
     style="stroke-width:0.992001" />
  <path
     class="KeySig"
     d="m 123.78255,25.49748 c 0.60452,-0.0931 1.10052,-0.79053 1.10052,-1.39505 v -5.84348 c 0,-0.992 -0.69757,-1.39495 -1.59652,-1.39495 l -3.27053,0.69747 V 2.77441 h -2.77453 v 15.37601 l -8.83498,1.798 V 5.95198 h -2.7745 V 20.53747 L 101.757,21.328 c -0.589,0.10843 -1.085,0.79043 -1.085,1.39495 v 5.75053 c 0,1.085 0.7905,1.395 1.68951,1.395 l 3.2705,-0.6975 V 45.539 l -3.87501,0.7905 c -0.589,0.093 -1.085,0.79053 -1.085,1.39505 v 5.75043 c 0,1.08505 0.7905,1.37958 1.68951,1.37958 l 3.2705,-0.682 v 14.77149 h 2.7745 V 53.56803 l 8.83498,-1.78252 v 13.99653 h 2.77453 V 51.19656 l 3.76653,-0.69758 c 0.60452,-0.10843 1.10052,-0.79043 1.10052,-1.39495 V 43.2605 c 0,-0.992 -0.69757,-1.395 -1.59652,-1.395 l -3.27053,0.6975 V 26.19498 l 3.76653,-0.6975 m -15.37604,3.069 8.83498,-1.7825 V 43.152 l -8.83498,1.891 V 28.56648"
     id="path162"
     style="stroke-width:0.992001" />
  <path
     class="KeySig"
     d="m 150.95455,62.69748 c 0.60452,-0.0931 1.10052,-0.79053 1.10052,-1.39505 v -5.84348 c 0,-0.992 -0.69757,-1.39495 -1.59652,-1.39495 l -3.27053,0.69747 V 39.97441 h -2.77453 v 15.37601 l -8.83498,1.798 V 43.15198 H 132.804 v 14.58549 l -3.875,0.79053 c -0.589,0.10843 -1.085,0.79043 -1.085,1.39495 v 5.75053 c 0,1.085 0.7905,1.395 1.68951,1.395 l 3.27049,-0.6975 V 82.739 l -3.875,0.7905 c -0.589,0.0931 -1.085,0.79053 -1.085,1.39505 v 5.75043 c 0,1.08505 0.7905,1.37958 1.68951,1.37958 l 3.27049,-0.682 v 14.77149 h 2.77451 V 90.76803 l 8.83498,-1.78252 v 13.99653 h 2.77453 V 88.39656 l 3.76653,-0.69758 c 0.60452,-0.10843 1.10052,-0.79043 1.10052,-1.39495 V 80.4605 c 0,-0.992 -0.69757,-1.395 -1.59652,-1.395 l -3.27053,0.6975 V 63.39498 l 3.76653,-0.6975 m -15.37604,3.069 8.83498,-1.7825 V 80.352 l -8.83498,1.891 V 65.76648"
     id="path164"
     style="stroke-width:0.992001" />
  <path
     class="TimeSig"
     d="m 196.09055,73.31498 v 7.33158 h -8.23054 c -0.69747,0 -1.39495,0.60443 -1.39495,1.39495 v 1.89105 c 0,0.79043 0.69748,1.37948 1.39495,1.37948 h 30.05456 c 0.806,0 1.39495,-0.58905 1.39495,-1.37948 v -1.89105 c 0,-0.79052 -0.58895,-1.39495 -1.39495,-1.39495 h -8.81949 v -7.33158 h 8.81949 c 0.806,0 1.39495,-0.69748 1.39495,-1.488 V 69.936 c 0,-0.6975 -0.58895,-1.3795 -1.39495,-1.3795 h -8.81949 V 52.77748 c 0,-0.589 -0.29452,-1.085 -0.79052,-1.2865 l -1.19348,-0.6045 c -0.20157,-0.093 -0.496,-0.18605 -0.69757,-0.18605 -0.29443,0.0931 -0.69748,0.18605 -0.89895,0.38755 l -9.02106,8.23051 c -0.29443,0.31 -0.40295,0.6975 -0.40295,1.1005 v 8.13751 h -11.40804 c 0,0 11.02056,-11.90401 22.723,-27.59008 0.40305,-0.496 0.496,-0.992 0.496,-1.37948 0,-0.496 -0.20148,-0.89895 -0.29443,-0.992 l -2.18557,-2.18547 c -0.20148,-0.20148 -0.58896,-0.40305 -0.99201,-0.40305 -0.58895,0 -13.99644,0 -14.67844,0 -0.806,0 -1.302,0.60452 -1.39505,1.19357 0,0 -0.496,7.34696 -3.069,15.37599 -2.5885,8.04451 -5.5645,13.00451 -8.1375,16.66252 0,0 -0.29451,0.496 -0.29451,1.1005 0,0.2015 0,0.38755 0.093,0.58903 0.403,0.69747 0.992,1.78252 0.992,1.78252 0,0 0.20151,0.60443 1.085,0.60443 h 17.06555"
     id="path166"
     style="stroke-width:0.992001" />
  <path
     class="TimeSig"
     d="m 196.09055,122.91498 v 7.33158 h -8.23054 c -0.69747,0 -1.39495,0.60443 -1.39495,1.39495 v 1.89105 c 0,0.79043 0.69748,1.37948 1.39495,1.37948 h 30.05456 c 0.806,0 1.39495,-0.58905 1.39495,-1.37948 v -1.89105 c 0,-0.79052 -0.58895,-1.39495 -1.39495,-1.39495 h -8.81949 v -7.33158 h 8.81949 c 0.806,0 1.39495,-0.69748 1.39495,-1.488 V 119.536 c 0,-0.6975 -0.58895,-1.3795 -1.39495,-1.3795 h -8.81949 v -15.77902 c 0,-0.589 -0.29452,-1.085 -0.79052,-1.2865 l -1.19348,-0.6045 c -0.20157,-0.093 -0.496,-0.18605 -0.69757,-0.18605 -0.29443,0.0931 -0.69748,0.18605 -0.89895,0.38755 l -9.02106,8.23051 c -0.29443,0.31 -0.40295,0.6975 -0.40295,1.1005 v 8.13751 h -11.40804 c 0,0 11.02056,-11.90401 22.723,-27.59008 0.40305,-0.496 0.496,-0.992 0.496,-1.37948 0,-0.496 -0.20148,-0.89895 -0.29443,-0.992 l -2.18557,-2.18547 c -0.20148,-0.20148 -0.58896,-0.40305 -0.99201,-0.40305 -0.58895,0 -13.99644,0 -14.67844,0 -0.806,0 -1.302,0.60452 -1.39505,1.19357 0,0 -0.496,7.34696 -3.069,15.37599 -2.5885,8.04451 -5.5645,13.00451 -8.1375,16.66252 0,0 -0.29451,0.496 -0.29451,1.1005 0,0.2015 0,0.38755 0.093,0.58903 0.403,0.69747 0.992,1.78252 0.992,1.78252 0,0 0.20151,0.60443 1.085,0.60443 h 17.06555"
     id="path168"
     style="stroke-width:0.992001" />
  <path
     class="Beam"
     fill-rule="evenodd"
     d="m 2058.991,48.29049 72.1,6.2 v 12.446 l -72.1,-6.2 v -12.446"
     id="path170" />
  <path
     class="Beam"
     fill-rule="evenodd"
     d="m 2302.641,79.29149 72.09,-6.2 v 12.445 l -72.09,6.2 v -12.445"
     id="path172" />
  <path
     class="Beam"
     fill-rule="evenodd"
     d="m 3174.111,79.29149 72.1,-6.2 v 12.445 l -72.1,6.2 v -12.445"
     id="path174" />
  <path
     class="Beam"
     fill-rule="evenodd"
     d="m 2930.471,48.29049 72.09,6.2 v 12.446 l -72.09,-6.2 v -12.446"
     id="path176" />
</svg>
